<?xml version="1.0" standalone="no"?>
<!DOCTYPE svg PUBLIC "-//W3C//DTD SVG 20010904//EN"
 "http://www.w3.org/TR/2001/REC-SVG-20010904/DTD/svg10.dtd">
<svg version="1.0" xmlns="http://www.w3.org/2000/svg"
 width="700.000000pt" height="700.000000pt" viewBox="0 0 700.000000 700.000000"
 preserveAspectRatio="xMidYMid meet">
<metadata>
Created by potrace 1.11, written by Peter Selinger 2001-2013
</metadata>
<g transform="translate(0.000000,700.000000) scale(0.100000,-0.100000)"
fill="#000000" stroke="none">
<path d="M4547 5724 c-384 -59 -734 -327 -906 -695 -36 -77 -84 -222 -96 -291
-16 -91 -22 -165 -21 -275 1 -118 0 -123 -19 -117 -11 4 -24 10 -30 14 -27 19
-159 62 -235 77 -38 7 -170 7 -215 -1 -414 -70 -708 -418 -714 -848 l-1 -57
-82 40 c-260 126 -539 149 -811 68 -76 -22 -196 -78 -267 -123 -342 -219 -551
-595 -552 -991 0 -121 4 -154 43 -317 27 -111 35 -131 61 -153 l30 -25 1111 0
c1079 0 1113 1 1143 19 44 27 60 77 40 124 -8 20 -25 41 -38 49 -19 10 -226
14 -1083 18 l-1059 5 -13 60 c-20 92 -20 305 1 400 98 449 475 765 914 765 84
0 199 -19 282 -47 111 -38 259 -125 352 -208 57 -51 103 -63 149 -40 17 9 37
31 44 49 13 31 12 41 -17 127 -27 83 -31 109 -32 214 -1 100 3 133 23 195 55
176 172 319 324 394 170 84 327 87 494 11 92 -42 143 -78 229 -159 82 -78 115
-89 168 -56 56 34 61 72 26 179 -30 91 -34 107 -49 213 -13 87 -6 257 14 352
84 396 391 711 770 791 329 70 660 -29 900 -270 152 -152 239 -315 291 -550
14 -62 13 -300 -1 -379 -45 -252 -176 -475 -373 -636 -74 -61 -89 -109 -50
-166 32 -47 75 -55 158 -31 134 39 300 21 417 -44 46 -25 132 -91 153 -116 49
-59 80 -103 100 -143 129 -253 87 -552 -105 -746 -97 -98 -192 -151 -314 -174
-29 -5 -205 -10 -390 -11 -185 -1 -347 -4 -361 -8 -14 -4 -35 -22 -48 -41 -31
-46 -24 -94 18 -133 l32 -28 386 4 c213 2 400 7 416 11 119 30 245 89 326 154
236 188 358 492 316 787 -47 329 -293 617 -612 715 -114 35 -108 27 -62 95 62
91 153 289 174 378 2 9 6 27 9 40 8 30 23 113 30 161 13 94 2 338 -19 397 -3
8 -7 26 -10 40 -8 51 -68 215 -102 280 -183 350 -519 597 -889 654 -80 13
-282 12 -368 -1z"/>
<path d="M3840 3384 c-96 -20 -185 -69 -260 -144 -276 -276 -151 -723 234
-835 53 -15 162 -21 212 -11 106 21 165 51 252 124 187 161 227 436 93 638
-51 75 -57 82 -111 126 -117 94 -273 131 -420 102z m227 -229 c225 -102 228
-419 5 -527 -89 -43 -218 -34 -297 20 -49 34 -110 114 -120 156 -26 109 -2
213 68 284 50 52 85 72 152 87 66 15 129 9 192 -20z"/>
<path d="M3840 2248 c-230 -23 -416 -131 -558 -323 -99 -134 -144 -283 -145
-473 0 -94 17 -129 70 -147 19 -6 292 -10 745 -10 674 0 715 1 742 18 40 26
53 67 51 155 -5 218 -74 395 -208 538 -179 192 -408 271 -697 242z m250 -213
c208 -55 367 -214 420 -418 31 -125 101 -112 -574 -112 l-588 0 6 57 c15 137
94 271 216 369 57 46 98 67 185 95 83 26 251 31 335 9z"/>
</g>
</svg>
