<svg xmlns="http://www.w3.org/2000/svg" xmlns:xlink="http://www.w3.org/1999/xlink" version="1.1" x="0px" y="0px" viewBox="0 0 100 100" enable-background="new 0 0 100 100" xml:space="preserve"><path d="M98.071,88.75c-2.847-6.402-16.743-10.638-25.976-14.615c-9.233-3.977-7.971-6.389-8.303-9.686  c-0.044-0.437-0.073-0.9-0.092-1.375c2.771-2.647,5.044-6.09,6.564-10.012c0,0,0.088-0.22,0.113-0.287  c0.354-0.94,0.668-1.92,0.938-2.919c2.116-0.418,3.349-2.665,3.821-4.743c0.476-0.841,1.465-2.914,1.238-5.266  c-0.279-2.889-1.432-4.294-2.758-4.925c0.357-0.847,0.687-1.722,0.955-2.592c1.368-4.442,0.069-14.388-2.176-19.872  c-2.244-5.483-11.614-9.656-14.584-9.533c-2.577,0.106-3.511,1.257-4.662,2.061c-0.165-0.828-0.543-1.573-1.262-2.098  c-2.716-1.981-11.275-2.864-15.248,0.167c-3.973,3.032-4.908,4.674-7.964,9.025c-3.057,4.351-4.055,15.021-3.753,17.295  c0.186,1.409,0.761,3.651,1.418,5.569c-1.308,0.642-2.437,2.047-2.713,4.904c-0.227,2.352,0.762,4.425,1.238,5.266  c0.479,2.114,1.747,4.403,3.932,4.763c0.271,1.004,0.59,1.99,0.948,2.938c0.023,0.062,0.048,0.122,0.072,0.183l0.033,0.082  c1.554,4.001,3.891,7.507,6.741,10.172c-0.019,0.413-0.046,0.816-0.084,1.198c-0.332,3.298,0.639,5.709-8.594,9.686  C18.678,78.112,4.782,82.348,1.934,88.75c-2.847,6.401-1.71,10.168-1.71,10.168h99.547C99.771,98.918,100.919,95.151,98.071,88.75z"/></svg>
