<svg xmlns="http://www.w3.org/2000/svg" xmlns:xlink="http://www.w3.org/1999/xlink" version="1.1" x="0px" y="0px" viewBox="0 0 100 100" enable-background="new 0 0 100 100" xml:space="preserve"><path d="M93,73v-2h-2v-2h-2V46h1v-1h-1v-7h3v-2L50,25L8,36v2h2.5v7h-1v1h1v23H9v2H7v2H5v2h90v-2H93z M27,46v-1  h3.5v1h1v23H26V46H27z M73.5,46v23H68V46h1v-1h3.5v1H73.5z M63,46v23h-5.5V46h1v-1H62v1H63z M52.5,46v23H47V46h1v-1h3.5v1H52.5z   M42,46v23h-5.5V46h1v-1H41v1H42z M84,69h-5.5V46h1v-1H83v1h1V69z M15.5,46h1v-1H20v1h1v23h-5.5V46z"/></svg>
