<svg xmlns="http://www.w3.org/2000/svg" xmlns:xlink="http://www.w3.org/1999/xlink" version="1.1" x="0px" y="0px" viewBox="0 0 100 100" style="enable-background:new 0 0 100 100;" xml:space="preserve"><style type="text/css">
	.st0{fill:none;stroke:#000000;stroke-width:3;stroke-linecap:round;stroke-linejoin:round;stroke-miterlimit:10;}
	.st1{fill:none;stroke:#000000;stroke-width:3;stroke-miterlimit:10;}
	.st2{fill:none;stroke:#000000;stroke-width:3;stroke-linecap:round;stroke-miterlimit:10;}
</style><path d="M91.5,59.3c0,6.6-5.2,12-11.6,12h-8.7c-0.8,0-1.5-0.7-1.5-1.5s0.7-1.5,1.5-1.5h8.7c4.8,0,8.6-4,8.6-9s-3.9-9-8.6-9  c-0.6,0-1.9,0.3-2.5,0.5c-0.7,0.3-1.5,0-1.9-0.6c-0.4-0.7-0.2-1.5,0.4-2c3.8-2.8,6-7.3,6-12.1c0-8.2-6.4-14.8-14.3-14.8  s-14.3,6.6-14.3,14.8c0,2,0.4,3.9,1.1,5.7c0.3,0.7,0,1.5-0.6,1.8c-0.6,0.4-1.4,0.3-1.9-0.3c-1.5-1.7-4.2-3.6-7-3.6  c-4.9,0-8.9,4.2-8.9,9.3c0,1.3,0.3,2.6,0.8,3.8c0.3,0.7,0.1,1.4-0.5,1.8c-0.6,0.4-1.4,0.3-1.9-0.2c-2.6-2.5-6.1-4-9.4-4  c-7.4,0-13.4,6.2-13.4,13.9c0,1.1,0.2,2.5,0.5,3.7h29.8c0.8,0,1.5,0.7,1.5,1.5s-0.7,1.5-1.5,1.5h-31c-0.7,0-1.2-0.4-1.4-1.1  c-0.4-1.4-1-3.8-1-5.7c0-9.3,7.4-16.9,16.4-16.9c2.7,0,5.6,0.8,8.1,2.3c0-0.3,0-0.5,0-0.8c0-6.8,5.4-12.3,11.9-12.3  c2,0,3.9,0.7,5.5,1.6c-0.1-0.7-0.1-1.5-0.1-2.3c0-9.8,7.8-17.8,17.3-17.8s17.3,8,17.3,17.8c0,4.1-1.4,8-3.8,11.2  C86.9,48.1,91.5,53.2,91.5,59.3z M56.3,65.9c-4,0-7.3-3.2-7.3-7.2s3.3-7.2,7.3-7.2s7.3,3.2,7.3,7.2S60.3,65.9,56.3,65.9z M56.3,62.9  c2.4,0,4.3-1.9,4.3-4.2s-1.9-4.2-4.3-4.2s-4.3,1.9-4.3,4.2S53.9,62.9,56.3,62.9z M67.8,78.9V80c0,0.8-0.7,1.5-1.5,1.5h-20  c-0.8,0-1.5-0.7-1.5-1.5v-1.1c0-6.1,5-11.1,11.1-11.1h0.7C62.8,67.7,67.8,72.7,67.8,78.9z M64.7,78.5c-0.2-4.3-3.8-7.8-8.1-7.8h-0.7  c-4.4,0-7.9,3.5-8.1,7.8H64.7z"></path></svg>