<svg xmlns="http://www.w3.org/2000/svg" xmlns:xlink="http://www.w3.org/1999/xlink" version="1.1" x="0px" y="0px" viewBox="0 0 34 42.5" enable-background="new 0 0 34 34" xml:space="preserve"><g><path d="M31.72052,18.97568H19.0379c-0.22272,0-0.33429,0.26929-0.17682,0.42676l7.73328,7.73322l1.22614,1.22614   c0.10406,0.10406,0.27826,0.099,0.37402-0.0127c2.13019-2.48462,3.50409-5.63434,3.78027-9.09918   C31.98651,19.1033,31.86756,18.97568,31.72052,18.97568z"/><path d="M17.29938,2.02512c-0.14679-0.01166-0.27502,0.10773-0.27502,0.255v14.44556c0,0.13806,0.11194,0.25,0.25,0.25h14.4455   c0.14728,0,0.26666-0.12823,0.255-0.27502C31.35419,8.88101,25.10956,2.64572,17.29938,2.02512z"/><path d="M15.31433,18.68564c-0.20203-0.20209-0.28998-0.4848-0.28998-0.70996V4.29343c0-0.1485-0.13037-0.2688-0.2782-0.25543   C7.28223,4.7117,1.50037,11.26865,2.06208,19.01413c0.48846,6.73535,5.89868,12.27161,12.62256,12.89893   c3.91821,0.36548,7.54327-0.89117,10.2796-3.1875c0.1134-0.09515,0.1192-0.27081,0.01453-0.37549L15.31433,18.68564z"/></g></svg>
