<svg xmlns="http://www.w3.org/2000/svg" xmlns:xlink="http://www.w3.org/1999/xlink" version="1.1" x="0px" y="0px" viewBox="0 0 100 100" enable-background="new 0 0 100 100" xml:space="preserve"><path d="M96.002,90.27c-2.725-6.126-16.022-10.18-24.858-13.986c-8.835-3.806-7.628-6.114-7.946-9.27  c-0.092-0.915-0.118-1.952-0.11-2.962c2.661-2.535,4.845-5.839,6.303-9.603c0,0,0.084-0.21,0.109-0.274  c0.338-0.899,0.64-1.837,0.898-2.793c2.026-0.4,3.206-2.55,3.656-4.539c0.456-0.805,1.402-2.788,1.185-5.039  c-0.215-2.224-0.971-3.528-1.919-4.268c0.459-1.985,0.703-4.061,0.703-6.199c0-9.83-5.144-18.36-12.68-22.623  C61.136,3.872,56.321,0,50.407,0S39.678,3.872,39.471,8.714c-7.537,4.263-12.68,12.793-12.68,22.623c0,1.98,0.213,3.904,0.608,5.754  c-1.269,0.605-2.371,1.95-2.638,4.713c-0.217,2.251,0.73,4.235,1.185,5.039c0.459,2.023,1.672,4.213,3.763,4.558  c0.26,0.961,0.564,1.905,0.907,2.811c0.022,0.059,0.046,0.117,0.069,0.175l0.031,0.078c1.492,3.843,3.74,7.208,6.481,9.762  c0.004,0.955-0.024,1.925-0.111,2.787c-0.317,3.156,0.611,5.464-8.224,9.27C20.026,80.09,6.728,84.144,4.003,90.27  C1.278,96.395,2.367,100,2.367,100h95.262C97.629,100,98.727,96.395,96.002,90.27z"/></svg>
