<?xml version="1.0" encoding="UTF-8" standalone="no"?>
<!DOCTYPE svg PUBLIC "-//W3C//DTD SVG 1.1//EN"
 "http://www.w3.org/Graphics/SVG/1.1/DTD/svg11.dtd">
<!-- Generated by graphviz version 2.40.1 (20161225.0304)
 -->
<!-- Title: oneDegreeRelationshipsDiagram Pages: 1 -->
<svg width="314pt" height="866pt"
 viewBox="0.00 0.00 314.00 866.20" xmlns="http://www.w3.org/2000/svg" xmlns:xlink="http://www.w3.org/1999/xlink">
<g id="graph0" class="graph" transform="scale(1 1) rotate(0) translate(4 862.2)">
<title>oneDegreeRelationshipsDiagram</title>
<polygon fill="#ffffff" stroke="transparent" points="-4,4 -4,-862.2 310,-862.2 310,4 -4,4"/>
<text text-anchor="middle" x="72.4936" y="-7.3" font-family="Helvetica,sans-Serif" font-size="11.00" fill="#000000">Generated by SchemaSpy</text>
<!-- act_cmmn_hi_plan_item_inst -->
<g id="node1" class="node">
<title>act_cmmn_hi_plan_item_inst</title>
<g id="a_node1"><a xlink:href="../../tables/act_cmmn_hi_plan_item_inst.html" xlink:title="act_cmmn_hi_plan_item_inst" target="_top">
<polygon fill="#ffffff" stroke="transparent" points="8,-38.2 8,-854.2 298,-854.2 298,-38.2 8,-38.2"/>
<polygon fill="#f5f5f5" stroke="transparent" points="10,-829.2 10,-852.2 296,-852.2 296,-829.2 10,-829.2"/>
<polygon fill="none" stroke="#000000" points="10,-829.2 10,-852.2 296,-852.2 296,-829.2 10,-829.2"/>
<text text-anchor="start" x="15" y="-837.8" font-family="Helvetica,sans-Serif" font-weight="bold" font-size="11.00" fill="#000000">act_cmmn_hi_plan_item_inst</text>
<text text-anchor="start" x="261.0437" y="-837.3" font-family="Helvetica,sans-Serif" font-size="11.00" fill="#000000">[table]</text>
<polygon fill="none" stroke="#000000" points="10,-807.2 10,-829.2 212,-829.2 212,-807.2 10,-807.2"/>
<image xlink:href="../../images/primaryKeys.png" width="11px" height="12px" preserveAspectRatio="xMinYMin meet" x="15" y="-824.2"/>
<text text-anchor="start" x="30" y="-814.3" font-family="Helvetica,sans-Serif" font-size="11.00" fill="#000000">id_</text>
<polygon fill="none" stroke="#000000" points="212,-807.2 212,-829.2 296,-829.2 296,-807.2 212,-807.2"/>
<text text-anchor="start" x="215" y="-814.9" font-family="Helvetica,sans-Serif" font-size="11.00" fill="#000000">varchar[255]</text>
<polygon fill="none" stroke="#000000" points="10,-785.2 10,-807.2 212,-807.2 212,-785.2 10,-785.2"/>
<text text-anchor="start" x="30" y="-792.3" font-family="Helvetica,sans-Serif" font-size="11.00" fill="#000000">rev_</text>
<polygon fill="none" stroke="#000000" points="212,-785.2 212,-807.2 296,-807.2 296,-785.2 212,-785.2"/>
<text text-anchor="start" x="215" y="-792.9" font-family="Helvetica,sans-Serif" font-size="11.00" fill="#000000">int4[10]</text>
<polygon fill="none" stroke="#000000" points="10,-763.2 10,-785.2 212,-785.2 212,-763.2 10,-763.2"/>
<text text-anchor="start" x="30" y="-770.3" font-family="Helvetica,sans-Serif" font-size="11.00" fill="#000000">name_</text>
<polygon fill="none" stroke="#000000" points="212,-763.2 212,-785.2 296,-785.2 296,-763.2 212,-763.2"/>
<text text-anchor="start" x="215" y="-770.9" font-family="Helvetica,sans-Serif" font-size="11.00" fill="#000000">varchar[255]</text>
<polygon fill="none" stroke="#000000" points="10,-741.2 10,-763.2 212,-763.2 212,-741.2 10,-741.2"/>
<text text-anchor="start" x="30" y="-748.3" font-family="Helvetica,sans-Serif" font-size="11.00" fill="#000000">state_</text>
<polygon fill="none" stroke="#000000" points="212,-741.2 212,-763.2 296,-763.2 296,-741.2 212,-741.2"/>
<text text-anchor="start" x="215" y="-748.9" font-family="Helvetica,sans-Serif" font-size="11.00" fill="#000000">varchar[255]</text>
<polygon fill="none" stroke="#000000" points="10,-719.2 10,-741.2 212,-741.2 212,-719.2 10,-719.2"/>
<text text-anchor="start" x="30" y="-726.3" font-family="Helvetica,sans-Serif" font-size="11.00" fill="#000000">case_def_id_</text>
<polygon fill="none" stroke="#000000" points="212,-719.2 212,-741.2 296,-741.2 296,-719.2 212,-719.2"/>
<text text-anchor="start" x="215" y="-726.9" font-family="Helvetica,sans-Serif" font-size="11.00" fill="#000000">varchar[255]</text>
<polygon fill="#ffffff" stroke="transparent" points="10,-697.2 10,-719.2 212,-719.2 212,-697.2 10,-697.2"/>
<polygon fill="none" stroke="#000000" points="10,-697.2 10,-719.2 212,-719.2 212,-697.2 10,-697.2"/>
<text text-anchor="start" x="30" y="-704.3" font-family="Helvetica,sans-Serif" font-size="11.00" fill="#000000">case_inst_id_</text>
<polygon fill="none" stroke="#000000" points="212,-697.2 212,-719.2 296,-719.2 296,-697.2 212,-697.2"/>
<text text-anchor="start" x="215" y="-704.9" font-family="Helvetica,sans-Serif" font-size="11.00" fill="#000000">varchar[255]</text>
<polygon fill="none" stroke="#000000" points="10,-675.2 10,-697.2 212,-697.2 212,-675.2 10,-675.2"/>
<text text-anchor="start" x="30" y="-682.3" font-family="Helvetica,sans-Serif" font-size="11.00" fill="#000000">stage_inst_id_</text>
<polygon fill="none" stroke="#000000" points="212,-675.2 212,-697.2 296,-697.2 296,-675.2 212,-675.2"/>
<text text-anchor="start" x="215" y="-682.9" font-family="Helvetica,sans-Serif" font-size="11.00" fill="#000000">varchar[255]</text>
<polygon fill="none" stroke="#000000" points="10,-653.2 10,-675.2 212,-675.2 212,-653.2 10,-653.2"/>
<text text-anchor="start" x="30" y="-660.3" font-family="Helvetica,sans-Serif" font-size="11.00" fill="#000000">is_stage_</text>
<polygon fill="none" stroke="#000000" points="212,-653.2 212,-675.2 296,-675.2 296,-653.2 212,-653.2"/>
<text text-anchor="start" x="215" y="-660.9" font-family="Helvetica,sans-Serif" font-size="11.00" fill="#000000">bool[1]</text>
<polygon fill="none" stroke="#000000" points="10,-631.2 10,-653.2 212,-653.2 212,-631.2 10,-631.2"/>
<text text-anchor="start" x="30" y="-638.3" font-family="Helvetica,sans-Serif" font-size="11.00" fill="#000000">element_id_</text>
<polygon fill="none" stroke="#000000" points="212,-631.2 212,-653.2 296,-653.2 296,-631.2 212,-631.2"/>
<text text-anchor="start" x="215" y="-638.9" font-family="Helvetica,sans-Serif" font-size="11.00" fill="#000000">varchar[255]</text>
<polygon fill="none" stroke="#000000" points="10,-609.2 10,-631.2 212,-631.2 212,-609.2 10,-609.2"/>
<text text-anchor="start" x="30" y="-616.3" font-family="Helvetica,sans-Serif" font-size="11.00" fill="#000000">item_definition_id_</text>
<polygon fill="none" stroke="#000000" points="212,-609.2 212,-631.2 296,-631.2 296,-609.2 212,-609.2"/>
<text text-anchor="start" x="215" y="-616.9" font-family="Helvetica,sans-Serif" font-size="11.00" fill="#000000">varchar[255]</text>
<polygon fill="none" stroke="#000000" points="10,-587.2 10,-609.2 212,-609.2 212,-587.2 10,-587.2"/>
<text text-anchor="start" x="30" y="-594.3" font-family="Helvetica,sans-Serif" font-size="11.00" fill="#000000">item_definition_type_</text>
<polygon fill="none" stroke="#000000" points="212,-587.2 212,-609.2 296,-609.2 296,-587.2 212,-587.2"/>
<text text-anchor="start" x="215" y="-594.9" font-family="Helvetica,sans-Serif" font-size="11.00" fill="#000000">varchar[255]</text>
<polygon fill="none" stroke="#000000" points="10,-565.2 10,-587.2 212,-587.2 212,-565.2 10,-565.2"/>
<text text-anchor="start" x="30" y="-572.3" font-family="Helvetica,sans-Serif" font-size="11.00" fill="#000000">create_time_</text>
<polygon fill="none" stroke="#000000" points="212,-565.2 212,-587.2 296,-587.2 296,-565.2 212,-565.2"/>
<text text-anchor="start" x="214.8807" y="-572.9" font-family="Helvetica,sans-Serif" font-size="11.00" fill="#000000">timestamp[29,6]</text>
<polygon fill="none" stroke="#000000" points="10,-543.2 10,-565.2 212,-565.2 212,-543.2 10,-543.2"/>
<text text-anchor="start" x="30" y="-550.3" font-family="Helvetica,sans-Serif" font-size="11.00" fill="#000000">last_available_time_</text>
<polygon fill="none" stroke="#000000" points="212,-543.2 212,-565.2 296,-565.2 296,-543.2 212,-543.2"/>
<text text-anchor="start" x="214.8807" y="-550.9" font-family="Helvetica,sans-Serif" font-size="11.00" fill="#000000">timestamp[29,6]</text>
<polygon fill="none" stroke="#000000" points="10,-521.2 10,-543.2 212,-543.2 212,-521.2 10,-521.2"/>
<text text-anchor="start" x="30" y="-528.3" font-family="Helvetica,sans-Serif" font-size="11.00" fill="#000000">last_enabled_time_</text>
<polygon fill="none" stroke="#000000" points="212,-521.2 212,-543.2 296,-543.2 296,-521.2 212,-521.2"/>
<text text-anchor="start" x="214.8807" y="-528.9" font-family="Helvetica,sans-Serif" font-size="11.00" fill="#000000">timestamp[29,6]</text>
<polygon fill="none" stroke="#000000" points="10,-499.2 10,-521.2 212,-521.2 212,-499.2 10,-499.2"/>
<text text-anchor="start" x="30" y="-506.3" font-family="Helvetica,sans-Serif" font-size="11.00" fill="#000000">last_disabled_time_</text>
<polygon fill="none" stroke="#000000" points="212,-499.2 212,-521.2 296,-521.2 296,-499.2 212,-499.2"/>
<text text-anchor="start" x="214.8807" y="-506.9" font-family="Helvetica,sans-Serif" font-size="11.00" fill="#000000">timestamp[29,6]</text>
<polygon fill="none" stroke="#000000" points="10,-477.2 10,-499.2 212,-499.2 212,-477.2 10,-477.2"/>
<text text-anchor="start" x="30" y="-484.3" font-family="Helvetica,sans-Serif" font-size="11.00" fill="#000000">last_started_time_</text>
<polygon fill="none" stroke="#000000" points="212,-477.2 212,-499.2 296,-499.2 296,-477.2 212,-477.2"/>
<text text-anchor="start" x="214.8807" y="-484.9" font-family="Helvetica,sans-Serif" font-size="11.00" fill="#000000">timestamp[29,6]</text>
<polygon fill="none" stroke="#000000" points="10,-455.2 10,-477.2 212,-477.2 212,-455.2 10,-455.2"/>
<text text-anchor="start" x="30" y="-462.3" font-family="Helvetica,sans-Serif" font-size="11.00" fill="#000000">last_suspended_time_</text>
<polygon fill="none" stroke="#000000" points="212,-455.2 212,-477.2 296,-477.2 296,-455.2 212,-455.2"/>
<text text-anchor="start" x="214.8807" y="-462.9" font-family="Helvetica,sans-Serif" font-size="11.00" fill="#000000">timestamp[29,6]</text>
<polygon fill="none" stroke="#000000" points="10,-433.2 10,-455.2 212,-455.2 212,-433.2 10,-433.2"/>
<text text-anchor="start" x="30" y="-440.3" font-family="Helvetica,sans-Serif" font-size="11.00" fill="#000000">completed_time_</text>
<polygon fill="none" stroke="#000000" points="212,-433.2 212,-455.2 296,-455.2 296,-433.2 212,-433.2"/>
<text text-anchor="start" x="214.8807" y="-440.9" font-family="Helvetica,sans-Serif" font-size="11.00" fill="#000000">timestamp[29,6]</text>
<polygon fill="none" stroke="#000000" points="10,-411.2 10,-433.2 212,-433.2 212,-411.2 10,-411.2"/>
<text text-anchor="start" x="30" y="-418.3" font-family="Helvetica,sans-Serif" font-size="11.00" fill="#000000">occurred_time_</text>
<polygon fill="none" stroke="#000000" points="212,-411.2 212,-433.2 296,-433.2 296,-411.2 212,-411.2"/>
<text text-anchor="start" x="214.8807" y="-418.9" font-family="Helvetica,sans-Serif" font-size="11.00" fill="#000000">timestamp[29,6]</text>
<polygon fill="none" stroke="#000000" points="10,-389.2 10,-411.2 212,-411.2 212,-389.2 10,-389.2"/>
<text text-anchor="start" x="30" y="-396.3" font-family="Helvetica,sans-Serif" font-size="11.00" fill="#000000">terminated_time_</text>
<polygon fill="none" stroke="#000000" points="212,-389.2 212,-411.2 296,-411.2 296,-389.2 212,-389.2"/>
<text text-anchor="start" x="214.8807" y="-396.9" font-family="Helvetica,sans-Serif" font-size="11.00" fill="#000000">timestamp[29,6]</text>
<polygon fill="none" stroke="#000000" points="10,-367.2 10,-389.2 212,-389.2 212,-367.2 10,-367.2"/>
<text text-anchor="start" x="30" y="-374.3" font-family="Helvetica,sans-Serif" font-size="11.00" fill="#000000">exit_time_</text>
<polygon fill="none" stroke="#000000" points="212,-367.2 212,-389.2 296,-389.2 296,-367.2 212,-367.2"/>
<text text-anchor="start" x="214.8807" y="-374.9" font-family="Helvetica,sans-Serif" font-size="11.00" fill="#000000">timestamp[29,6]</text>
<polygon fill="none" stroke="#000000" points="10,-345.2 10,-367.2 212,-367.2 212,-345.2 10,-345.2"/>
<text text-anchor="start" x="30" y="-352.3" font-family="Helvetica,sans-Serif" font-size="11.00" fill="#000000">ended_time_</text>
<polygon fill="none" stroke="#000000" points="212,-345.2 212,-367.2 296,-367.2 296,-345.2 212,-345.2"/>
<text text-anchor="start" x="214.8807" y="-352.9" font-family="Helvetica,sans-Serif" font-size="11.00" fill="#000000">timestamp[29,6]</text>
<polygon fill="none" stroke="#000000" points="10,-323.2 10,-345.2 212,-345.2 212,-323.2 10,-323.2"/>
<text text-anchor="start" x="30" y="-330.3" font-family="Helvetica,sans-Serif" font-size="11.00" fill="#000000">last_updated_time_</text>
<polygon fill="none" stroke="#000000" points="212,-323.2 212,-345.2 296,-345.2 296,-323.2 212,-323.2"/>
<text text-anchor="start" x="214.8807" y="-330.9" font-family="Helvetica,sans-Serif" font-size="11.00" fill="#000000">timestamp[29,6]</text>
<polygon fill="none" stroke="#000000" points="10,-301.2 10,-323.2 212,-323.2 212,-301.2 10,-301.2"/>
<text text-anchor="start" x="30" y="-308.3" font-family="Helvetica,sans-Serif" font-size="11.00" fill="#000000">start_user_id_</text>
<polygon fill="none" stroke="#000000" points="212,-301.2 212,-323.2 296,-323.2 296,-301.2 212,-301.2"/>
<text text-anchor="start" x="215" y="-308.9" font-family="Helvetica,sans-Serif" font-size="11.00" fill="#000000">varchar[255]</text>
<polygon fill="none" stroke="#000000" points="10,-279.2 10,-301.2 212,-301.2 212,-279.2 10,-279.2"/>
<text text-anchor="start" x="30" y="-286.3" font-family="Helvetica,sans-Serif" font-size="11.00" fill="#000000">assignee_</text>
<polygon fill="none" stroke="#000000" points="212,-279.2 212,-301.2 296,-301.2 296,-279.2 212,-279.2"/>
<text text-anchor="start" x="215" y="-286.9" font-family="Helvetica,sans-Serif" font-size="11.00" fill="#000000">varchar[255]</text>
<polygon fill="none" stroke="#000000" points="10,-257.2 10,-279.2 212,-279.2 212,-257.2 10,-257.2"/>
<text text-anchor="start" x="30" y="-264.3" font-family="Helvetica,sans-Serif" font-size="11.00" fill="#000000">completed_by_</text>
<polygon fill="none" stroke="#000000" points="212,-257.2 212,-279.2 296,-279.2 296,-257.2 212,-257.2"/>
<text text-anchor="start" x="215" y="-264.9" font-family="Helvetica,sans-Serif" font-size="11.00" fill="#000000">varchar[255]</text>
<polygon fill="none" stroke="#000000" points="10,-235.2 10,-257.2 212,-257.2 212,-235.2 10,-235.2"/>
<text text-anchor="start" x="30" y="-242.3" font-family="Helvetica,sans-Serif" font-size="11.00" fill="#000000">reference_id_</text>
<polygon fill="none" stroke="#000000" points="212,-235.2 212,-257.2 296,-257.2 296,-235.2 212,-235.2"/>
<text text-anchor="start" x="215" y="-242.9" font-family="Helvetica,sans-Serif" font-size="11.00" fill="#000000">varchar[255]</text>
<polygon fill="none" stroke="#000000" points="10,-213.2 10,-235.2 212,-235.2 212,-213.2 10,-213.2"/>
<text text-anchor="start" x="30" y="-220.3" font-family="Helvetica,sans-Serif" font-size="11.00" fill="#000000">reference_type_</text>
<polygon fill="none" stroke="#000000" points="212,-213.2 212,-235.2 296,-235.2 296,-213.2 212,-213.2"/>
<text text-anchor="start" x="215" y="-220.9" font-family="Helvetica,sans-Serif" font-size="11.00" fill="#000000">varchar[255]</text>
<polygon fill="none" stroke="#000000" points="10,-191.2 10,-213.2 212,-213.2 212,-191.2 10,-191.2"/>
<text text-anchor="start" x="30" y="-198.3" font-family="Helvetica,sans-Serif" font-size="11.00" fill="#000000">entry_criterion_id_</text>
<polygon fill="none" stroke="#000000" points="212,-191.2 212,-213.2 296,-213.2 296,-191.2 212,-191.2"/>
<text text-anchor="start" x="215" y="-198.9" font-family="Helvetica,sans-Serif" font-size="11.00" fill="#000000">varchar[255]</text>
<polygon fill="none" stroke="#000000" points="10,-169.2 10,-191.2 212,-191.2 212,-169.2 10,-169.2"/>
<text text-anchor="start" x="30" y="-176.3" font-family="Helvetica,sans-Serif" font-size="11.00" fill="#000000">exit_criterion_id_</text>
<polygon fill="none" stroke="#000000" points="212,-169.2 212,-191.2 296,-191.2 296,-169.2 212,-169.2"/>
<text text-anchor="start" x="215" y="-176.9" font-family="Helvetica,sans-Serif" font-size="11.00" fill="#000000">varchar[255]</text>
<polygon fill="none" stroke="#000000" points="10,-147.2 10,-169.2 212,-169.2 212,-147.2 10,-147.2"/>
<text text-anchor="start" x="30" y="-154.3" font-family="Helvetica,sans-Serif" font-size="11.00" fill="#000000">show_in_overview_</text>
<polygon fill="none" stroke="#000000" points="212,-147.2 212,-169.2 296,-169.2 296,-147.2 212,-147.2"/>
<text text-anchor="start" x="215" y="-154.9" font-family="Helvetica,sans-Serif" font-size="11.00" fill="#000000">bool[1]</text>
<polygon fill="none" stroke="#000000" points="10,-125.2 10,-147.2 212,-147.2 212,-125.2 10,-125.2"/>
<text text-anchor="start" x="30" y="-132.3" font-family="Helvetica,sans-Serif" font-size="11.00" fill="#000000">extra_value_</text>
<polygon fill="none" stroke="#000000" points="212,-125.2 212,-147.2 296,-147.2 296,-125.2 212,-125.2"/>
<text text-anchor="start" x="215" y="-132.9" font-family="Helvetica,sans-Serif" font-size="11.00" fill="#000000">varchar[255]</text>
<polygon fill="none" stroke="#000000" points="10,-103.2 10,-125.2 212,-125.2 212,-103.2 10,-103.2"/>
<text text-anchor="start" x="30" y="-110.3" font-family="Helvetica,sans-Serif" font-size="11.00" fill="#000000">derived_case_def_id_</text>
<polygon fill="none" stroke="#000000" points="212,-103.2 212,-125.2 296,-125.2 296,-103.2 212,-103.2"/>
<text text-anchor="start" x="215" y="-110.9" font-family="Helvetica,sans-Serif" font-size="11.00" fill="#000000">varchar[255]</text>
<polygon fill="none" stroke="#000000" points="10,-81.2 10,-103.2 212,-103.2 212,-81.2 10,-81.2"/>
<text text-anchor="start" x="30" y="-88.3" font-family="Helvetica,sans-Serif" font-size="11.00" fill="#000000">last_unavailable_time_</text>
<polygon fill="none" stroke="#000000" points="212,-81.2 212,-103.2 296,-103.2 296,-81.2 212,-81.2"/>
<text text-anchor="start" x="214.8807" y="-88.9" font-family="Helvetica,sans-Serif" font-size="11.00" fill="#000000">timestamp[26,3]</text>
<polygon fill="none" stroke="#000000" points="10,-59.2 10,-81.2 212,-81.2 212,-59.2 10,-59.2"/>
<text text-anchor="start" x="30" y="-66.3" font-family="Helvetica,sans-Serif" font-size="11.00" fill="#000000">tenant_id_</text>
<polygon fill="none" stroke="#000000" points="212,-59.2 212,-81.2 296,-81.2 296,-59.2 212,-59.2"/>
<text text-anchor="start" x="215" y="-66.9" font-family="Helvetica,sans-Serif" font-size="11.00" fill="#000000">varchar[255]</text>
<polygon fill="#ffffff" stroke="transparent" points="10,-40.2 10,-59.2 296,-59.2 296,-40.2 10,-40.2"/>
<polygon fill="none" stroke="#000000" points="10,-40.2 10,-59.2 296,-59.2 296,-40.2 10,-40.2"/>
<polygon fill="#ffffff" stroke="transparent" points="11,-41.2 11,-58.2 109,-58.2 109,-41.2 11,-41.2"/>
<text text-anchor="start" x="13" y="-46.3" font-family="Helvetica,sans-Serif" font-size="11.00" fill="#000000">&lt; 0</text>
<polygon fill="#ffffff" stroke="transparent" points="109,-41.2 109,-58.2 198,-58.2 198,-41.2 109,-41.2"/>
<text text-anchor="start" x="150.4431" y="-46.3" font-family="Helvetica,sans-Serif" font-size="11.00" fill="#000000"> &#160;</text>
<polygon fill="#ffffff" stroke="transparent" points="198,-41.2 198,-58.2 295,-58.2 295,-41.2 198,-41.2"/>
<text text-anchor="start" x="277.4053" y="-46.3" font-family="Helvetica,sans-Serif" font-size="11.00" fill="#000000">0 &gt;</text>
<polygon fill="#000000" stroke="#000000" points="109,-41.2 109,-58.2 109,-58.2 109,-41.2 109,-41.2"/>
<polygon fill="#000000" stroke="#000000" points="198,-41.2 198,-58.2 198,-58.2 198,-41.2 198,-41.2"/>
<polygon fill="none" stroke="#000000" stroke-width="2" points="9,-39.2 9,-853.2 297,-853.2 297,-39.2 9,-39.2"/>
</a>
</g>
</g>
</g>
</svg>
