<?xml version="1.0" encoding="UTF-8" standalone="no"?>
<!DOCTYPE svg PUBLIC "-//W3C//DTD SVG 1.1//EN"
 "http://www.w3.org/Graphics/SVG/1.1/DTD/svg11.dtd">
<!-- Generated by graphviz version 2.40.1 (20161225.0304)
 -->
<!-- Title: twoDegreesRelationshipsDiagram Pages: 1 -->
<svg width="921pt" height="1371pt"
 viewBox="0.00 0.00 921.00 1370.53" xmlns="http://www.w3.org/2000/svg" xmlns:xlink="http://www.w3.org/1999/xlink">
<g id="graph0" class="graph" transform="scale(1 1) rotate(0) translate(4 1366.532)">
<title>twoDegreesRelationshipsDiagram</title>
<polygon fill="#ffffff" stroke="transparent" points="-4,4 -4,-1366.532 917,-1366.532 917,4 -4,4"/>
<text text-anchor="middle" x="72.4936" y="-7.3" font-family="Helvetica,sans-Serif" font-size="11.00" fill="#000000">Generated by SchemaSpy</text>
<!-- act_procdef_info -->
<g id="node1" class="node">
<title>act_procdef_info</title>
<g id="a_node1"><a xlink:href="../../tables/act_procdef_info.html" xlink:title="act_procdef_info" target="_top">
<polygon fill="#ffffff" stroke="transparent" points="541.5,-1266.7663 541.5,-1327.7663 684.5,-1327.7663 684.5,-1266.7663 541.5,-1266.7663"/>
<polygon fill="#f5f5f5" stroke="transparent" points="542,-1304.2663 542,-1327.2663 685,-1327.2663 685,-1304.2663 542,-1304.2663"/>
<polygon fill="none" stroke="#000000" points="542,-1304.2663 542,-1327.2663 685,-1327.2663 685,-1304.2663 542,-1304.2663"/>
<text text-anchor="start" x="547" y="-1312.8663" font-family="Helvetica,sans-Serif" font-weight="bold" font-size="11.00" fill="#000000">act_procdef_info</text>
<text text-anchor="start" x="650.5219" y="-1312.3663" font-family="Helvetica,sans-Serif" font-size="11.00" fill="#000000">[table]</text>
<polygon fill="none" stroke="#000000" points="542,-1285.2663 542,-1304.2663 685,-1304.2663 685,-1285.2663 542,-1285.2663"/>
<text text-anchor="start" x="545" y="-1291.3663" font-family="Helvetica,sans-Serif" font-size="11.00" fill="#000000">...</text>
<polygon fill="#ffffff" stroke="transparent" points="542,-1266.2663 542,-1285.2663 685,-1285.2663 685,-1266.2663 542,-1266.2663"/>
<polygon fill="none" stroke="#000000" points="542,-1266.2663 542,-1285.2663 685,-1285.2663 685,-1266.2663 542,-1266.2663"/>
<polygon fill="#ffffff" stroke="transparent" points="543,-1267.2663 543,-1284.2663 596,-1284.2663 596,-1267.2663 543,-1267.2663"/>
<text text-anchor="start" x="545" y="-1272.3663" font-family="Helvetica,sans-Serif" font-size="11.00" fill="#000000">&lt; 2</text>
<polygon fill="#ffffff" stroke="transparent" points="596,-1267.2663 596,-1284.2663 640,-1284.2663 640,-1267.2663 596,-1267.2663"/>
<text text-anchor="start" x="614.9431" y="-1272.3663" font-family="Helvetica,sans-Serif" font-size="11.00" fill="#000000"> &#160;</text>
<polygon fill="#ffffff" stroke="transparent" points="640,-1267.2663 640,-1284.2663 684,-1284.2663 684,-1267.2663 640,-1267.2663"/>
<text text-anchor="start" x="675.8862" y="-1272.3663" font-family="Helvetica,sans-Serif" font-size="11.00" fill="#000000"> &#160;</text>
<polygon fill="#000000" stroke="#000000" points="596,-1267.2663 596,-1284.2663 596,-1284.2663 596,-1267.2663 596,-1267.2663"/>
<polygon fill="#000000" stroke="#000000" points="640,-1267.2663 640,-1284.2663 640,-1284.2663 640,-1267.2663 640,-1267.2663"/>
</a>
</g>
</g>
<!-- act_ge_bytearray -->
<g id="node2" class="node">
<title>act_ge_bytearray</title>
<g id="a_node2"><a xlink:href="../../tables/act_ge_bytearray.html" xlink:title="act_ge_bytearray" target="_top">
<polygon fill="#ffffff" stroke="transparent" points="259,-1102.7663 259,-1163.7663 404,-1163.7663 404,-1102.7663 259,-1102.7663"/>
<polygon fill="#f5f5f5" stroke="transparent" points="259.5,-1140.2663 259.5,-1163.2663 404.5,-1163.2663 404.5,-1140.2663 259.5,-1140.2663"/>
<polygon fill="none" stroke="#000000" points="259.5,-1140.2663 259.5,-1163.2663 404.5,-1163.2663 404.5,-1140.2663 259.5,-1140.2663"/>
<text text-anchor="start" x="264.5" y="-1148.8663" font-family="Helvetica,sans-Serif" font-weight="bold" font-size="11.00" fill="#000000">act_ge_bytearray</text>
<text text-anchor="start" x="370.0219" y="-1148.3663" font-family="Helvetica,sans-Serif" font-size="11.00" fill="#000000">[table]</text>
<polygon fill="none" stroke="#000000" points="259.5,-1121.2663 259.5,-1140.2663 404.5,-1140.2663 404.5,-1121.2663 259.5,-1121.2663"/>
<text text-anchor="start" x="262.5" y="-1127.3663" font-family="Helvetica,sans-Serif" font-size="11.00" fill="#000000">...</text>
<polygon fill="#ffffff" stroke="transparent" points="259.5,-1102.2663 259.5,-1121.2663 404.5,-1121.2663 404.5,-1102.2663 259.5,-1102.2663"/>
<polygon fill="none" stroke="#000000" points="259.5,-1102.2663 259.5,-1121.2663 404.5,-1121.2663 404.5,-1102.2663 259.5,-1102.2663"/>
<polygon fill="#ffffff" stroke="transparent" points="260.5,-1103.2663 260.5,-1120.2663 309.5,-1120.2663 309.5,-1103.2663 260.5,-1103.2663"/>
<text text-anchor="start" x="262.5" y="-1108.3663" font-family="Helvetica,sans-Serif" font-size="11.00" fill="#000000">&lt; 1</text>
<polygon fill="#ffffff" stroke="transparent" points="309.5,-1103.2663 309.5,-1120.2663 349.5,-1120.2663 349.5,-1103.2663 309.5,-1103.2663"/>
<text text-anchor="start" x="326.4431" y="-1108.3663" font-family="Helvetica,sans-Serif" font-size="11.00" fill="#000000"> &#160;</text>
<polygon fill="#ffffff" stroke="transparent" points="349.5,-1103.2663 349.5,-1120.2663 403.5,-1120.2663 403.5,-1103.2663 349.5,-1103.2663"/>
<text text-anchor="start" x="379.7904" y="-1108.3663" font-family="Helvetica,sans-Serif" font-size="11.00" fill="#000000">14 &gt;</text>
<polygon fill="#000000" stroke="#000000" points="309.5,-1103.2663 309.5,-1120.2663 309.5,-1120.2663 309.5,-1103.2663 309.5,-1103.2663"/>
<polygon fill="#000000" stroke="#000000" points="349.5,-1103.2663 349.5,-1120.2663 349.5,-1120.2663 349.5,-1103.2663 349.5,-1103.2663"/>
</a>
</g>
</g>
<!-- act_procdef_info&#45;&gt;act_ge_bytearray -->
<g id="edge1" class="edge">
<title>act_procdef_info:w&#45;&gt;act_ge_bytearray:e</title>
<path fill="none" stroke="#000000" d="M527.2067,-1292.7475C452.382,-1276.2144 494.2301,-1130.2663 404.5,-1130.2663"/>
<polygon fill="#000000" stroke="#000000" points="534.0418,-1293.4492 541.6323,-1297.8475 538.0209,-1293.8578 542,-1294.2663 542,-1294.2663 542,-1294.2663 538.0209,-1293.8578 542.3677,-1290.6852 534.0418,-1293.4492 534.0418,-1293.4492"/>
<ellipse fill="none" stroke="#000000" cx="530.8586" cy="-1293.1224" rx="3.2" ry="3.2"/>
</g>
<!-- act_re_procdef -->
<g id="node3" class="node">
<title>act_re_procdef</title>
<g id="a_node3"><a xlink:href="../../tables/act_re_procdef.html" xlink:title="act_re_procdef" target="_top">
<polygon fill="#ffffff" stroke="transparent" points="8,-1102.7663 8,-1163.7663 140,-1163.7663 140,-1102.7663 8,-1102.7663"/>
<polygon fill="#f5f5f5" stroke="transparent" points="8,-1140.2663 8,-1163.2663 140,-1163.2663 140,-1140.2663 8,-1140.2663"/>
<polygon fill="none" stroke="#000000" points="8,-1140.2663 8,-1163.2663 140,-1163.2663 140,-1140.2663 8,-1140.2663"/>
<text text-anchor="start" x="13" y="-1148.8663" font-family="Helvetica,sans-Serif" font-weight="bold" font-size="11.00" fill="#000000">act_re_procdef</text>
<text text-anchor="start" x="105.5219" y="-1148.3663" font-family="Helvetica,sans-Serif" font-size="11.00" fill="#000000">[table]</text>
<polygon fill="none" stroke="#000000" points="8,-1121.2663 8,-1140.2663 140,-1140.2663 140,-1121.2663 8,-1121.2663"/>
<text text-anchor="start" x="11" y="-1127.3663" font-family="Helvetica,sans-Serif" font-size="11.00" fill="#000000">...</text>
<polygon fill="#ffffff" stroke="transparent" points="8,-1102.2663 8,-1121.2663 140,-1121.2663 140,-1102.2663 8,-1102.2663"/>
<polygon fill="none" stroke="#000000" points="8,-1102.2663 8,-1121.2663 140,-1121.2663 140,-1102.2663 8,-1102.2663"/>
<polygon fill="#ffffff" stroke="transparent" points="9,-1103.2663 9,-1120.2663 50,-1120.2663 50,-1103.2663 9,-1103.2663"/>
<text text-anchor="start" x="11" y="-1108.3663" font-family="Helvetica,sans-Serif" font-size="11.00" fill="#000000"> &#160;</text>
<polygon fill="#ffffff" stroke="transparent" points="50,-1103.2663 50,-1120.2663 90,-1120.2663 90,-1103.2663 50,-1103.2663"/>
<text text-anchor="start" x="66.9431" y="-1108.3663" font-family="Helvetica,sans-Serif" font-size="11.00" fill="#000000"> &#160;</text>
<polygon fill="#ffffff" stroke="transparent" points="90,-1103.2663 90,-1120.2663 139,-1120.2663 139,-1103.2663 90,-1103.2663"/>
<text text-anchor="start" x="121.4053" y="-1108.3663" font-family="Helvetica,sans-Serif" font-size="11.00" fill="#000000">8 &gt;</text>
<polygon fill="#000000" stroke="#000000" points="50,-1103.2663 50,-1120.2663 50,-1120.2663 50,-1103.2663 50,-1103.2663"/>
<polygon fill="#000000" stroke="#000000" points="90,-1103.2663 90,-1120.2663 90,-1120.2663 90,-1103.2663 90,-1103.2663"/>
</a>
</g>
</g>
<!-- act_procdef_info&#45;&gt;act_re_procdef -->
<g id="edge2" class="edge">
<title>act_procdef_info:w&#45;&gt;act_re_procdef:e</title>
<path fill="none" stroke="#000000" d="M531.5843,-1294.2555C375.8218,-1293.9179 326.3854,-1285.3298 181,-1217.2663 154.9055,-1205.05 129.3813,-1185.3999 109.8103,-1168.1759"/>
<polygon fill="#000000" stroke="#000000" points="541.2042,-1290.2655 541.1958,-1298.2655 539.5958,-1298.2638 539.6042,-1290.2638 541.2042,-1290.2655"/>
<polyline fill="none" stroke="#000000" points="542,-1294.2663 538,-1294.2621 "/>
<ellipse fill="none" stroke="#000000" cx="534.8" cy="-1294.2588" rx="3.2" ry="3.2"/>
</g>
<!-- act_ru_deadletter_job -->
<g id="node4" class="node">
<title>act_ru_deadletter_job</title>
<g id="a_node4"><a xlink:href="../../tables/act_ru_deadletter_job.html" xlink:title="act_ru_deadletter_job" target="_top">
<polygon fill="#ffffff" stroke="transparent" points="526,-1184.7663 526,-1245.7663 700,-1245.7663 700,-1184.7663 526,-1184.7663"/>
<polygon fill="#f5f5f5" stroke="transparent" points="526,-1222.2663 526,-1245.2663 700,-1245.2663 700,-1222.2663 526,-1222.2663"/>
<polygon fill="none" stroke="#000000" points="526,-1222.2663 526,-1245.2663 700,-1245.2663 700,-1222.2663 526,-1222.2663"/>
<text text-anchor="start" x="531" y="-1230.8663" font-family="Helvetica,sans-Serif" font-weight="bold" font-size="11.00" fill="#000000">act_ru_deadletter_job</text>
<text text-anchor="start" x="665.5219" y="-1230.3663" font-family="Helvetica,sans-Serif" font-size="11.00" fill="#000000">[table]</text>
<polygon fill="none" stroke="#000000" points="526,-1203.2663 526,-1222.2663 700,-1222.2663 700,-1203.2663 526,-1203.2663"/>
<text text-anchor="start" x="529" y="-1209.3663" font-family="Helvetica,sans-Serif" font-size="11.00" fill="#000000">...</text>
<polygon fill="#ffffff" stroke="transparent" points="526,-1184.2663 526,-1203.2663 700,-1203.2663 700,-1184.2663 526,-1184.2663"/>
<polygon fill="none" stroke="#000000" points="526,-1184.2663 526,-1203.2663 700,-1203.2663 700,-1184.2663 526,-1184.2663"/>
<polygon fill="#ffffff" stroke="transparent" points="527,-1185.2663 527,-1202.2663 591,-1202.2663 591,-1185.2663 527,-1185.2663"/>
<text text-anchor="start" x="529" y="-1190.3663" font-family="Helvetica,sans-Serif" font-size="11.00" fill="#000000">&lt; 5</text>
<polygon fill="#ffffff" stroke="transparent" points="591,-1185.2663 591,-1202.2663 645,-1202.2663 645,-1185.2663 591,-1185.2663"/>
<text text-anchor="start" x="614.9431" y="-1190.3663" font-family="Helvetica,sans-Serif" font-size="11.00" fill="#000000"> &#160;</text>
<polygon fill="#ffffff" stroke="transparent" points="645,-1185.2663 645,-1202.2663 699,-1202.2663 699,-1185.2663 645,-1185.2663"/>
<text text-anchor="start" x="690.8862" y="-1190.3663" font-family="Helvetica,sans-Serif" font-size="11.00" fill="#000000"> &#160;</text>
<polygon fill="#000000" stroke="#000000" points="591,-1185.2663 591,-1202.2663 591,-1202.2663 591,-1185.2663 591,-1185.2663"/>
<polygon fill="#000000" stroke="#000000" points="645,-1185.2663 645,-1202.2663 645,-1202.2663 645,-1185.2663 645,-1185.2663"/>
</a>
</g>
</g>
<!-- act_ru_deadletter_job&#45;&gt;act_ge_bytearray -->
<g id="edge3" class="edge">
<title>act_ru_deadletter_job:w&#45;&gt;act_ge_bytearray:e</title>
<path fill="none" stroke="#000000" d="M527.4277,-1175.0874C471.4218,-1151.4855 407.9606,-1126.9466 404.5,-1130.2663"/>
<polygon fill="#000000" stroke="#000000" points="533.3553,-1177.6042 539.312,-1184.0445 537.0371,-1179.1675 540.719,-1180.7309 540.719,-1180.7309 540.719,-1180.7309 537.0371,-1179.1675 542.126,-1177.4172 533.3553,-1177.6042 533.3553,-1177.6042"/>
<ellipse fill="none" stroke="#000000" cx="530.4098" cy="-1176.3535" rx="3.2" ry="3.2"/>
</g>
<!-- act_ru_deadletter_job&#45;&gt;act_ge_bytearray -->
<g id="edge4" class="edge">
<title>act_ru_deadletter_job:w&#45;&gt;act_ge_bytearray:e</title>
<path fill="none" stroke="#000000" d="M504.2217,-1175.163C455.1977,-1154.7525 407.4877,-1133.6102 404.5,-1130.2663"/>
<polygon fill="#000000" stroke="#000000" points="510.3138,-1177.6846 516.3288,-1184.0705 514.0097,-1179.2144 517.7056,-1180.7442 517.7056,-1180.7442 517.7056,-1180.7442 514.0097,-1179.2144 519.0824,-1177.4179 510.3138,-1177.6846 510.3138,-1177.6846"/>
<ellipse fill="none" stroke="#000000" cx="507.3571" cy="-1176.4607" rx="3.2" ry="3.2"/>
</g>
<!-- act_ru_deadletter_job&#45;&gt;act_re_procdef -->
<g id="edge6" class="edge">
<title>act_ru_deadletter_job:w&#45;&gt;act_re_procdef:e</title>
<path fill="none" stroke="#000000" d="M503.4416,-1222.787C414.7611,-1225.7239 287.5379,-1222.7351 181,-1192.2663 161.9301,-1186.8126 142.5168,-1177.4722 125.5548,-1167.8118"/>
<polygon fill="#000000" stroke="#000000" points="509.8892,-1222.5452 518.0186,-1225.8426 513.8864,-1222.3952 517.8836,-1222.2452 517.8836,-1222.2452 517.8836,-1222.2452 513.8864,-1222.3952 517.7486,-1218.6477 509.8892,-1222.5452 509.8892,-1222.5452"/>
<ellipse fill="none" stroke="#000000" cx="506.6915" cy="-1222.6652" rx="3.2" ry="3.2"/>
</g>
<!-- act_ru_execution -->
<g id="node5" class="node">
<title>act_ru_execution</title>
<g id="a_node5"><a xlink:href="../../tables/act_ru_execution.html" xlink:title="act_ru_execution" target="_top">
<polygon fill="#ffffff" stroke="transparent" points="189,-96.2663 189,-1000.2663 474,-1000.2663 474,-96.2663 189,-96.2663"/>
<polygon fill="#f5f5f5" stroke="transparent" points="191.5,-975.2663 191.5,-998.2663 472.5,-998.2663 472.5,-975.2663 191.5,-975.2663"/>
<polygon fill="none" stroke="#000000" points="191.5,-975.2663 191.5,-998.2663 472.5,-998.2663 472.5,-975.2663 191.5,-975.2663"/>
<text text-anchor="start" x="196.5" y="-983.8663" font-family="Helvetica,sans-Serif" font-weight="bold" font-size="11.00" fill="#000000">act_ru_execution</text>
<text text-anchor="start" x="437.5437" y="-983.3663" font-family="Helvetica,sans-Serif" font-size="11.00" fill="#000000">[table]</text>
<polygon fill="none" stroke="#000000" points="191.5,-953.2663 191.5,-975.2663 388.5,-975.2663 388.5,-953.2663 191.5,-953.2663"/>
<image xlink:href="../../images/primaryKeys.png" width="11px" height="12px" preserveAspectRatio="xMinYMin meet" x="196.5" y="-970.266"/>
<text text-anchor="start" x="211.5" y="-960.3663" font-family="Helvetica,sans-Serif" font-size="11.00" fill="#000000">id_</text>
<polygon fill="none" stroke="#000000" points="388.5,-953.2663 388.5,-975.2663 472.5,-975.2663 472.5,-953.2663 388.5,-953.2663"/>
<text text-anchor="start" x="391.5" y="-960.9663" font-family="Helvetica,sans-Serif" font-size="11.00" fill="#000000">varchar[64]</text>
<polygon fill="none" stroke="#000000" points="191.5,-931.2663 191.5,-953.2663 388.5,-953.2663 388.5,-931.2663 191.5,-931.2663"/>
<text text-anchor="start" x="211.5" y="-938.3663" font-family="Helvetica,sans-Serif" font-size="11.00" fill="#000000">rev_</text>
<polygon fill="none" stroke="#000000" points="388.5,-931.2663 388.5,-953.2663 472.5,-953.2663 472.5,-931.2663 388.5,-931.2663"/>
<text text-anchor="start" x="391.5" y="-938.9663" font-family="Helvetica,sans-Serif" font-size="11.00" fill="#000000">int4[10]</text>
<polygon fill="#ffffff" stroke="transparent" points="191.5,-909.2663 191.5,-931.2663 388.5,-931.2663 388.5,-909.2663 191.5,-909.2663"/>
<polygon fill="none" stroke="#000000" points="191.5,-909.2663 191.5,-931.2663 388.5,-931.2663 388.5,-909.2663 191.5,-909.2663"/>
<image xlink:href="../../images/foreignKeys.png" width="11px" height="12px" preserveAspectRatio="xMinYMin meet" x="196.5" y="-926.266"/>
<text text-anchor="start" x="211.5" y="-916.3663" font-family="Helvetica,sans-Serif" font-size="11.00" fill="#000000">proc_inst_id_</text>
<polygon fill="none" stroke="#000000" points="388.5,-909.2663 388.5,-931.2663 472.5,-931.2663 472.5,-909.2663 388.5,-909.2663"/>
<text text-anchor="start" x="391.5" y="-916.9663" font-family="Helvetica,sans-Serif" font-size="11.00" fill="#000000">varchar[64]</text>
<polygon fill="#ffffff" stroke="transparent" points="191.5,-887.2663 191.5,-909.2663 388.5,-909.2663 388.5,-887.2663 191.5,-887.2663"/>
<polygon fill="none" stroke="#000000" points="191.5,-887.2663 191.5,-909.2663 388.5,-909.2663 388.5,-887.2663 191.5,-887.2663"/>
<text text-anchor="start" x="211.5" y="-894.3663" font-family="Helvetica,sans-Serif" font-size="11.00" fill="#000000">business_key_</text>
<polygon fill="none" stroke="#000000" points="388.5,-887.2663 388.5,-909.2663 472.5,-909.2663 472.5,-887.2663 388.5,-887.2663"/>
<text text-anchor="start" x="391.5" y="-894.9663" font-family="Helvetica,sans-Serif" font-size="11.00" fill="#000000">varchar[255]</text>
<polygon fill="#ffffff" stroke="transparent" points="191.5,-865.2663 191.5,-887.2663 388.5,-887.2663 388.5,-865.2663 191.5,-865.2663"/>
<polygon fill="none" stroke="#000000" points="191.5,-865.2663 191.5,-887.2663 388.5,-887.2663 388.5,-865.2663 191.5,-865.2663"/>
<image xlink:href="../../images/foreignKeys.png" width="11px" height="12px" preserveAspectRatio="xMinYMin meet" x="196.5" y="-882.266"/>
<text text-anchor="start" x="211.5" y="-872.3663" font-family="Helvetica,sans-Serif" font-size="11.00" fill="#000000">parent_id_</text>
<polygon fill="none" stroke="#000000" points="388.5,-865.2663 388.5,-887.2663 472.5,-887.2663 472.5,-865.2663 388.5,-865.2663"/>
<text text-anchor="start" x="391.5" y="-872.9663" font-family="Helvetica,sans-Serif" font-size="11.00" fill="#000000">varchar[64]</text>
<polygon fill="#ffffff" stroke="transparent" points="191.5,-843.2663 191.5,-865.2663 388.5,-865.2663 388.5,-843.2663 191.5,-843.2663"/>
<polygon fill="none" stroke="#000000" points="191.5,-843.2663 191.5,-865.2663 388.5,-865.2663 388.5,-843.2663 191.5,-843.2663"/>
<image xlink:href="../../images/foreignKeys.png" width="11px" height="12px" preserveAspectRatio="xMinYMin meet" x="196.5" y="-860.266"/>
<text text-anchor="start" x="211.5" y="-850.3663" font-family="Helvetica,sans-Serif" font-size="11.00" fill="#000000">proc_def_id_</text>
<polygon fill="none" stroke="#000000" points="388.5,-843.2663 388.5,-865.2663 472.5,-865.2663 472.5,-843.2663 388.5,-843.2663"/>
<text text-anchor="start" x="391.5" y="-850.9663" font-family="Helvetica,sans-Serif" font-size="11.00" fill="#000000">varchar[64]</text>
<polygon fill="#ffffff" stroke="transparent" points="191.5,-821.2663 191.5,-843.2663 388.5,-843.2663 388.5,-821.2663 191.5,-821.2663"/>
<polygon fill="none" stroke="#000000" points="191.5,-821.2663 191.5,-843.2663 388.5,-843.2663 388.5,-821.2663 191.5,-821.2663"/>
<image xlink:href="../../images/foreignKeys.png" width="11px" height="12px" preserveAspectRatio="xMinYMin meet" x="196.5" y="-838.266"/>
<text text-anchor="start" x="211.5" y="-828.3663" font-family="Helvetica,sans-Serif" font-size="11.00" fill="#000000">super_exec_</text>
<polygon fill="none" stroke="#000000" points="388.5,-821.2663 388.5,-843.2663 472.5,-843.2663 472.5,-821.2663 388.5,-821.2663"/>
<text text-anchor="start" x="391.5" y="-828.9663" font-family="Helvetica,sans-Serif" font-size="11.00" fill="#000000">varchar[64]</text>
<polygon fill="#ffffff" stroke="transparent" points="191.5,-799.2663 191.5,-821.2663 388.5,-821.2663 388.5,-799.2663 191.5,-799.2663"/>
<polygon fill="none" stroke="#000000" points="191.5,-799.2663 191.5,-821.2663 388.5,-821.2663 388.5,-799.2663 191.5,-799.2663"/>
<text text-anchor="start" x="211.5" y="-806.3663" font-family="Helvetica,sans-Serif" font-size="11.00" fill="#000000">root_proc_inst_id_</text>
<polygon fill="none" stroke="#000000" points="388.5,-799.2663 388.5,-821.2663 472.5,-821.2663 472.5,-799.2663 388.5,-799.2663"/>
<text text-anchor="start" x="391.5" y="-806.9663" font-family="Helvetica,sans-Serif" font-size="11.00" fill="#000000">varchar[64]</text>
<polygon fill="none" stroke="#000000" points="191.5,-777.2663 191.5,-799.2663 388.5,-799.2663 388.5,-777.2663 191.5,-777.2663"/>
<text text-anchor="start" x="211.5" y="-784.3663" font-family="Helvetica,sans-Serif" font-size="11.00" fill="#000000">act_id_</text>
<polygon fill="none" stroke="#000000" points="388.5,-777.2663 388.5,-799.2663 472.5,-799.2663 472.5,-777.2663 388.5,-777.2663"/>
<text text-anchor="start" x="391.5" y="-784.9663" font-family="Helvetica,sans-Serif" font-size="11.00" fill="#000000">varchar[255]</text>
<polygon fill="none" stroke="#000000" points="191.5,-755.2663 191.5,-777.2663 388.5,-777.2663 388.5,-755.2663 191.5,-755.2663"/>
<text text-anchor="start" x="211.5" y="-762.3663" font-family="Helvetica,sans-Serif" font-size="11.00" fill="#000000">is_active_</text>
<polygon fill="none" stroke="#000000" points="388.5,-755.2663 388.5,-777.2663 472.5,-777.2663 472.5,-755.2663 388.5,-755.2663"/>
<text text-anchor="start" x="391.5" y="-762.9663" font-family="Helvetica,sans-Serif" font-size="11.00" fill="#000000">bool[1]</text>
<polygon fill="none" stroke="#000000" points="191.5,-733.2663 191.5,-755.2663 388.5,-755.2663 388.5,-733.2663 191.5,-733.2663"/>
<text text-anchor="start" x="211.5" y="-740.3663" font-family="Helvetica,sans-Serif" font-size="11.00" fill="#000000">is_concurrent_</text>
<polygon fill="none" stroke="#000000" points="388.5,-733.2663 388.5,-755.2663 472.5,-755.2663 472.5,-733.2663 388.5,-733.2663"/>
<text text-anchor="start" x="391.5" y="-740.9663" font-family="Helvetica,sans-Serif" font-size="11.00" fill="#000000">bool[1]</text>
<polygon fill="none" stroke="#000000" points="191.5,-711.2663 191.5,-733.2663 388.5,-733.2663 388.5,-711.2663 191.5,-711.2663"/>
<text text-anchor="start" x="211.5" y="-718.3663" font-family="Helvetica,sans-Serif" font-size="11.00" fill="#000000">is_scope_</text>
<polygon fill="none" stroke="#000000" points="388.5,-711.2663 388.5,-733.2663 472.5,-733.2663 472.5,-711.2663 388.5,-711.2663"/>
<text text-anchor="start" x="391.5" y="-718.9663" font-family="Helvetica,sans-Serif" font-size="11.00" fill="#000000">bool[1]</text>
<polygon fill="none" stroke="#000000" points="191.5,-689.2663 191.5,-711.2663 388.5,-711.2663 388.5,-689.2663 191.5,-689.2663"/>
<text text-anchor="start" x="211.5" y="-696.3663" font-family="Helvetica,sans-Serif" font-size="11.00" fill="#000000">is_event_scope_</text>
<polygon fill="none" stroke="#000000" points="388.5,-689.2663 388.5,-711.2663 472.5,-711.2663 472.5,-689.2663 388.5,-689.2663"/>
<text text-anchor="start" x="391.5" y="-696.9663" font-family="Helvetica,sans-Serif" font-size="11.00" fill="#000000">bool[1]</text>
<polygon fill="none" stroke="#000000" points="191.5,-667.2663 191.5,-689.2663 388.5,-689.2663 388.5,-667.2663 191.5,-667.2663"/>
<text text-anchor="start" x="211.5" y="-674.3663" font-family="Helvetica,sans-Serif" font-size="11.00" fill="#000000">is_mi_root_</text>
<polygon fill="none" stroke="#000000" points="388.5,-667.2663 388.5,-689.2663 472.5,-689.2663 472.5,-667.2663 388.5,-667.2663"/>
<text text-anchor="start" x="391.5" y="-674.9663" font-family="Helvetica,sans-Serif" font-size="11.00" fill="#000000">bool[1]</text>
<polygon fill="none" stroke="#000000" points="191.5,-645.2663 191.5,-667.2663 388.5,-667.2663 388.5,-645.2663 191.5,-645.2663"/>
<text text-anchor="start" x="211.5" y="-652.3663" font-family="Helvetica,sans-Serif" font-size="11.00" fill="#000000">suspension_state_</text>
<polygon fill="none" stroke="#000000" points="388.5,-645.2663 388.5,-667.2663 472.5,-667.2663 472.5,-645.2663 388.5,-645.2663"/>
<text text-anchor="start" x="391.5" y="-652.9663" font-family="Helvetica,sans-Serif" font-size="11.00" fill="#000000">int4[10]</text>
<polygon fill="none" stroke="#000000" points="191.5,-623.2663 191.5,-645.2663 388.5,-645.2663 388.5,-623.2663 191.5,-623.2663"/>
<text text-anchor="start" x="211.5" y="-630.3663" font-family="Helvetica,sans-Serif" font-size="11.00" fill="#000000">cached_ent_state_</text>
<polygon fill="none" stroke="#000000" points="388.5,-623.2663 388.5,-645.2663 472.5,-645.2663 472.5,-623.2663 388.5,-623.2663"/>
<text text-anchor="start" x="391.5" y="-630.9663" font-family="Helvetica,sans-Serif" font-size="11.00" fill="#000000">int4[10]</text>
<polygon fill="none" stroke="#000000" points="191.5,-601.2663 191.5,-623.2663 388.5,-623.2663 388.5,-601.2663 191.5,-601.2663"/>
<text text-anchor="start" x="211.5" y="-608.3663" font-family="Helvetica,sans-Serif" font-size="11.00" fill="#000000">tenant_id_</text>
<polygon fill="none" stroke="#000000" points="388.5,-601.2663 388.5,-623.2663 472.5,-623.2663 472.5,-601.2663 388.5,-601.2663"/>
<text text-anchor="start" x="391.5" y="-608.9663" font-family="Helvetica,sans-Serif" font-size="11.00" fill="#000000">varchar[255]</text>
<polygon fill="none" stroke="#000000" points="191.5,-579.2663 191.5,-601.2663 388.5,-601.2663 388.5,-579.2663 191.5,-579.2663"/>
<text text-anchor="start" x="211.5" y="-586.3663" font-family="Helvetica,sans-Serif" font-size="11.00" fill="#000000">name_</text>
<polygon fill="none" stroke="#000000" points="388.5,-579.2663 388.5,-601.2663 472.5,-601.2663 472.5,-579.2663 388.5,-579.2663"/>
<text text-anchor="start" x="391.5" y="-586.9663" font-family="Helvetica,sans-Serif" font-size="11.00" fill="#000000">varchar[255]</text>
<polygon fill="none" stroke="#000000" points="191.5,-557.2663 191.5,-579.2663 388.5,-579.2663 388.5,-557.2663 191.5,-557.2663"/>
<text text-anchor="start" x="211.5" y="-564.3663" font-family="Helvetica,sans-Serif" font-size="11.00" fill="#000000">start_act_id_</text>
<polygon fill="none" stroke="#000000" points="388.5,-557.2663 388.5,-579.2663 472.5,-579.2663 472.5,-557.2663 388.5,-557.2663"/>
<text text-anchor="start" x="391.5" y="-564.9663" font-family="Helvetica,sans-Serif" font-size="11.00" fill="#000000">varchar[255]</text>
<polygon fill="none" stroke="#000000" points="191.5,-535.2663 191.5,-557.2663 388.5,-557.2663 388.5,-535.2663 191.5,-535.2663"/>
<text text-anchor="start" x="211.5" y="-542.3663" font-family="Helvetica,sans-Serif" font-size="11.00" fill="#000000">start_time_</text>
<polygon fill="none" stroke="#000000" points="388.5,-535.2663 388.5,-557.2663 472.5,-557.2663 472.5,-535.2663 388.5,-535.2663"/>
<text text-anchor="start" x="391.3807" y="-542.9663" font-family="Helvetica,sans-Serif" font-size="11.00" fill="#000000">timestamp[29,6]</text>
<polygon fill="none" stroke="#000000" points="191.5,-513.2663 191.5,-535.2663 388.5,-535.2663 388.5,-513.2663 191.5,-513.2663"/>
<text text-anchor="start" x="211.5" y="-520.3663" font-family="Helvetica,sans-Serif" font-size="11.00" fill="#000000">start_user_id_</text>
<polygon fill="none" stroke="#000000" points="388.5,-513.2663 388.5,-535.2663 472.5,-535.2663 472.5,-513.2663 388.5,-513.2663"/>
<text text-anchor="start" x="391.5" y="-520.9663" font-family="Helvetica,sans-Serif" font-size="11.00" fill="#000000">varchar[255]</text>
<polygon fill="none" stroke="#000000" points="191.5,-491.2663 191.5,-513.2663 388.5,-513.2663 388.5,-491.2663 191.5,-491.2663"/>
<text text-anchor="start" x="211.5" y="-498.3663" font-family="Helvetica,sans-Serif" font-size="11.00" fill="#000000">lock_time_</text>
<polygon fill="none" stroke="#000000" points="388.5,-491.2663 388.5,-513.2663 472.5,-513.2663 472.5,-491.2663 388.5,-491.2663"/>
<text text-anchor="start" x="391.3807" y="-498.9663" font-family="Helvetica,sans-Serif" font-size="11.00" fill="#000000">timestamp[29,6]</text>
<polygon fill="none" stroke="#000000" points="191.5,-469.2663 191.5,-491.2663 388.5,-491.2663 388.5,-469.2663 191.5,-469.2663"/>
<text text-anchor="start" x="211.5" y="-476.3663" font-family="Helvetica,sans-Serif" font-size="11.00" fill="#000000">lock_owner_</text>
<polygon fill="none" stroke="#000000" points="388.5,-469.2663 388.5,-491.2663 472.5,-491.2663 472.5,-469.2663 388.5,-469.2663"/>
<text text-anchor="start" x="391.5" y="-476.9663" font-family="Helvetica,sans-Serif" font-size="11.00" fill="#000000">varchar[255]</text>
<polygon fill="none" stroke="#000000" points="191.5,-447.2663 191.5,-469.2663 388.5,-469.2663 388.5,-447.2663 191.5,-447.2663"/>
<text text-anchor="start" x="211.5" y="-454.3663" font-family="Helvetica,sans-Serif" font-size="11.00" fill="#000000">is_count_enabled_</text>
<polygon fill="none" stroke="#000000" points="388.5,-447.2663 388.5,-469.2663 472.5,-469.2663 472.5,-447.2663 388.5,-447.2663"/>
<text text-anchor="start" x="391.5" y="-454.9663" font-family="Helvetica,sans-Serif" font-size="11.00" fill="#000000">bool[1]</text>
<polygon fill="none" stroke="#000000" points="191.5,-425.2663 191.5,-447.2663 388.5,-447.2663 388.5,-425.2663 191.5,-425.2663"/>
<text text-anchor="start" x="211.5" y="-432.3663" font-family="Helvetica,sans-Serif" font-size="11.00" fill="#000000">evt_subscr_count_</text>
<polygon fill="none" stroke="#000000" points="388.5,-425.2663 388.5,-447.2663 472.5,-447.2663 472.5,-425.2663 388.5,-425.2663"/>
<text text-anchor="start" x="391.5" y="-432.9663" font-family="Helvetica,sans-Serif" font-size="11.00" fill="#000000">int4[10]</text>
<polygon fill="none" stroke="#000000" points="191.5,-403.2663 191.5,-425.2663 388.5,-425.2663 388.5,-403.2663 191.5,-403.2663"/>
<text text-anchor="start" x="211.5" y="-410.3663" font-family="Helvetica,sans-Serif" font-size="11.00" fill="#000000">task_count_</text>
<polygon fill="none" stroke="#000000" points="388.5,-403.2663 388.5,-425.2663 472.5,-425.2663 472.5,-403.2663 388.5,-403.2663"/>
<text text-anchor="start" x="391.5" y="-410.9663" font-family="Helvetica,sans-Serif" font-size="11.00" fill="#000000">int4[10]</text>
<polygon fill="none" stroke="#000000" points="191.5,-381.2663 191.5,-403.2663 388.5,-403.2663 388.5,-381.2663 191.5,-381.2663"/>
<text text-anchor="start" x="211.5" y="-388.3663" font-family="Helvetica,sans-Serif" font-size="11.00" fill="#000000">job_count_</text>
<polygon fill="none" stroke="#000000" points="388.5,-381.2663 388.5,-403.2663 472.5,-403.2663 472.5,-381.2663 388.5,-381.2663"/>
<text text-anchor="start" x="391.5" y="-388.9663" font-family="Helvetica,sans-Serif" font-size="11.00" fill="#000000">int4[10]</text>
<polygon fill="none" stroke="#000000" points="191.5,-359.2663 191.5,-381.2663 388.5,-381.2663 388.5,-359.2663 191.5,-359.2663"/>
<text text-anchor="start" x="211.5" y="-366.3663" font-family="Helvetica,sans-Serif" font-size="11.00" fill="#000000">timer_job_count_</text>
<polygon fill="none" stroke="#000000" points="388.5,-359.2663 388.5,-381.2663 472.5,-381.2663 472.5,-359.2663 388.5,-359.2663"/>
<text text-anchor="start" x="391.5" y="-366.9663" font-family="Helvetica,sans-Serif" font-size="11.00" fill="#000000">int4[10]</text>
<polygon fill="none" stroke="#000000" points="191.5,-337.2663 191.5,-359.2663 388.5,-359.2663 388.5,-337.2663 191.5,-337.2663"/>
<text text-anchor="start" x="211.5" y="-344.3663" font-family="Helvetica,sans-Serif" font-size="11.00" fill="#000000">susp_job_count_</text>
<polygon fill="none" stroke="#000000" points="388.5,-337.2663 388.5,-359.2663 472.5,-359.2663 472.5,-337.2663 388.5,-337.2663"/>
<text text-anchor="start" x="391.5" y="-344.9663" font-family="Helvetica,sans-Serif" font-size="11.00" fill="#000000">int4[10]</text>
<polygon fill="none" stroke="#000000" points="191.5,-315.2663 191.5,-337.2663 388.5,-337.2663 388.5,-315.2663 191.5,-315.2663"/>
<text text-anchor="start" x="211.5" y="-322.3663" font-family="Helvetica,sans-Serif" font-size="11.00" fill="#000000">deadletter_job_count_</text>
<polygon fill="none" stroke="#000000" points="388.5,-315.2663 388.5,-337.2663 472.5,-337.2663 472.5,-315.2663 388.5,-315.2663"/>
<text text-anchor="start" x="391.5" y="-322.9663" font-family="Helvetica,sans-Serif" font-size="11.00" fill="#000000">int4[10]</text>
<polygon fill="none" stroke="#000000" points="191.5,-293.2663 191.5,-315.2663 388.5,-315.2663 388.5,-293.2663 191.5,-293.2663"/>
<text text-anchor="start" x="211.5" y="-300.3663" font-family="Helvetica,sans-Serif" font-size="11.00" fill="#000000">external_worker_job_count_</text>
<polygon fill="none" stroke="#000000" points="388.5,-293.2663 388.5,-315.2663 472.5,-315.2663 472.5,-293.2663 388.5,-293.2663"/>
<text text-anchor="start" x="391.5" y="-300.9663" font-family="Helvetica,sans-Serif" font-size="11.00" fill="#000000">int4[10]</text>
<polygon fill="none" stroke="#000000" points="191.5,-271.2663 191.5,-293.2663 388.5,-293.2663 388.5,-271.2663 191.5,-271.2663"/>
<text text-anchor="start" x="211.5" y="-278.3663" font-family="Helvetica,sans-Serif" font-size="11.00" fill="#000000">var_count_</text>
<polygon fill="none" stroke="#000000" points="388.5,-271.2663 388.5,-293.2663 472.5,-293.2663 472.5,-271.2663 388.5,-271.2663"/>
<text text-anchor="start" x="391.5" y="-278.9663" font-family="Helvetica,sans-Serif" font-size="11.00" fill="#000000">int4[10]</text>
<polygon fill="none" stroke="#000000" points="191.5,-249.2663 191.5,-271.2663 388.5,-271.2663 388.5,-249.2663 191.5,-249.2663"/>
<text text-anchor="start" x="211.5" y="-256.3663" font-family="Helvetica,sans-Serif" font-size="11.00" fill="#000000">id_link_count_</text>
<polygon fill="none" stroke="#000000" points="388.5,-249.2663 388.5,-271.2663 472.5,-271.2663 472.5,-249.2663 388.5,-249.2663"/>
<text text-anchor="start" x="391.5" y="-256.9663" font-family="Helvetica,sans-Serif" font-size="11.00" fill="#000000">int4[10]</text>
<polygon fill="none" stroke="#000000" points="191.5,-227.2663 191.5,-249.2663 388.5,-249.2663 388.5,-227.2663 191.5,-227.2663"/>
<text text-anchor="start" x="211.5" y="-234.3663" font-family="Helvetica,sans-Serif" font-size="11.00" fill="#000000">callback_id_</text>
<polygon fill="none" stroke="#000000" points="388.5,-227.2663 388.5,-249.2663 472.5,-249.2663 472.5,-227.2663 388.5,-227.2663"/>
<text text-anchor="start" x="391.5" y="-234.9663" font-family="Helvetica,sans-Serif" font-size="11.00" fill="#000000">varchar[255]</text>
<polygon fill="none" stroke="#000000" points="191.5,-205.2663 191.5,-227.2663 388.5,-227.2663 388.5,-205.2663 191.5,-205.2663"/>
<text text-anchor="start" x="211.5" y="-212.3663" font-family="Helvetica,sans-Serif" font-size="11.00" fill="#000000">callback_type_</text>
<polygon fill="none" stroke="#000000" points="388.5,-205.2663 388.5,-227.2663 472.5,-227.2663 472.5,-205.2663 388.5,-205.2663"/>
<text text-anchor="start" x="391.5" y="-212.9663" font-family="Helvetica,sans-Serif" font-size="11.00" fill="#000000">varchar[255]</text>
<polygon fill="#ffffff" stroke="transparent" points="191.5,-183.2663 191.5,-205.2663 388.5,-205.2663 388.5,-183.2663 191.5,-183.2663"/>
<polygon fill="none" stroke="#000000" points="191.5,-183.2663 191.5,-205.2663 388.5,-205.2663 388.5,-183.2663 191.5,-183.2663"/>
<text text-anchor="start" x="211.5" y="-190.3663" font-family="Helvetica,sans-Serif" font-size="11.00" fill="#000000">reference_id_</text>
<polygon fill="none" stroke="#000000" points="388.5,-183.2663 388.5,-205.2663 472.5,-205.2663 472.5,-183.2663 388.5,-183.2663"/>
<text text-anchor="start" x="391.5" y="-190.9663" font-family="Helvetica,sans-Serif" font-size="11.00" fill="#000000">varchar[255]</text>
<polygon fill="none" stroke="#000000" points="191.5,-161.2663 191.5,-183.2663 388.5,-183.2663 388.5,-161.2663 191.5,-161.2663"/>
<text text-anchor="start" x="211.5" y="-168.3663" font-family="Helvetica,sans-Serif" font-size="11.00" fill="#000000">reference_type_</text>
<polygon fill="none" stroke="#000000" points="388.5,-161.2663 388.5,-183.2663 472.5,-183.2663 472.5,-161.2663 388.5,-161.2663"/>
<text text-anchor="start" x="391.5" y="-168.9663" font-family="Helvetica,sans-Serif" font-size="11.00" fill="#000000">varchar[255]</text>
<polygon fill="none" stroke="#000000" points="191.5,-139.2663 191.5,-161.2663 388.5,-161.2663 388.5,-139.2663 191.5,-139.2663"/>
<text text-anchor="start" x="211.5" y="-146.3663" font-family="Helvetica,sans-Serif" font-size="11.00" fill="#000000">propagated_stage_inst_id_</text>
<polygon fill="none" stroke="#000000" points="388.5,-139.2663 388.5,-161.2663 472.5,-161.2663 472.5,-139.2663 388.5,-139.2663"/>
<text text-anchor="start" x="391.5" y="-146.9663" font-family="Helvetica,sans-Serif" font-size="11.00" fill="#000000">varchar[255]</text>
<polygon fill="none" stroke="#000000" points="191.5,-117.2663 191.5,-139.2663 388.5,-139.2663 388.5,-117.2663 191.5,-117.2663"/>
<text text-anchor="start" x="211.5" y="-124.3663" font-family="Helvetica,sans-Serif" font-size="11.00" fill="#000000">business_status_</text>
<polygon fill="none" stroke="#000000" points="388.5,-117.2663 388.5,-139.2663 472.5,-139.2663 472.5,-117.2663 388.5,-117.2663"/>
<text text-anchor="start" x="391.5" y="-124.9663" font-family="Helvetica,sans-Serif" font-size="11.00" fill="#000000">varchar[255]</text>
<polygon fill="#ffffff" stroke="transparent" points="191.5,-98.2663 191.5,-117.2663 472.5,-117.2663 472.5,-98.2663 191.5,-98.2663"/>
<polygon fill="none" stroke="#000000" points="191.5,-98.2663 191.5,-117.2663 472.5,-117.2663 472.5,-98.2663 191.5,-98.2663"/>
<polygon fill="#ffffff" stroke="transparent" points="192.5,-99.2663 192.5,-116.2663 286.5,-116.2663 286.5,-99.2663 192.5,-99.2663"/>
<text text-anchor="start" x="194.5" y="-104.3663" font-family="Helvetica,sans-Serif" font-size="11.00" fill="#000000">&lt; 4</text>
<polygon fill="#ffffff" stroke="transparent" points="286.5,-99.2663 286.5,-116.2663 371.5,-116.2663 371.5,-99.2663 286.5,-99.2663"/>
<text text-anchor="start" x="325.9431" y="-104.3663" font-family="Helvetica,sans-Serif" font-size="11.00" fill="#000000"> &#160;</text>
<polygon fill="#ffffff" stroke="transparent" points="371.5,-99.2663 371.5,-116.2663 471.5,-116.2663 471.5,-99.2663 371.5,-99.2663"/>
<text text-anchor="start" x="447.7904" y="-104.3663" font-family="Helvetica,sans-Serif" font-size="11.00" fill="#000000">17 &gt;</text>
<polygon fill="#000000" stroke="#000000" points="286.5,-99.2663 286.5,-116.2663 286.5,-116.2663 286.5,-99.2663 286.5,-99.2663"/>
<polygon fill="#000000" stroke="#000000" points="371.5,-99.2663 371.5,-116.2663 371.5,-116.2663 371.5,-99.2663 371.5,-99.2663"/>
<polygon fill="none" stroke="#000000" stroke-width="2" points="190,-97.2663 190,-999.2663 473,-999.2663 473,-97.2663 190,-97.2663"/>
</a>
</g>
</g>
<!-- act_ru_deadletter_job&#45;&gt;act_ru_execution -->
<g id="edge5" class="edge">
<title>act_ru_deadletter_job:w&#45;&gt;act_ru_execution:e</title>
<path fill="none" stroke="#000000" d="M517.1672,-1170.7804C516.4248,-1169.9597 515.7019,-1169.1218 515,-1168.2663 454.5971,-1094.6498 567.7255,-958.2663 472.5,-964.2663"/>
<polygon fill="#000000" stroke="#000000" points="521.9076,-1175.1184 525.379,-1183.175 524.8585,-1177.8188 527.8094,-1180.5192 527.8094,-1180.5192 527.8094,-1180.5192 524.8585,-1177.8188 530.2397,-1177.8634 521.9076,-1175.1184 521.9076,-1175.1184"/>
<ellipse fill="none" stroke="#000000" cx="519.5468" cy="-1172.9581" rx="3.2" ry="3.2"/>
</g>
<!-- act_ru_deadletter_job&#45;&gt;act_ru_execution -->
<g id="edge7" class="edge">
<title>act_ru_deadletter_job:w&#45;&gt;act_ru_execution:e</title>
<path fill="none" stroke="#000000" d="M509.5844,-1172.4378C465.5495,-1094.132 562.8899,-970.9109 472.5,-964.2663"/>
<polygon fill="#000000" stroke="#000000" points="513.3936,-1177.996 514.9465,-1186.6302 515.6548,-1181.2955 517.916,-1184.5951 517.916,-1184.5951 517.916,-1184.5951 515.6548,-1181.2955 520.8856,-1182.56 513.3936,-1177.996 513.3936,-1177.996"/>
<ellipse fill="none" stroke="#000000" cx="511.5846" cy="-1175.3564" rx="3.2" ry="3.2"/>
</g>
<!-- act_ru_execution&#45;&gt;act_re_procdef -->
<g id="edge10" class="edge">
<title>act_ru_execution:w&#45;&gt;act_re_procdef:e</title>
<path fill="none" stroke="#000000" d="M177.6315,-858.1779C131.7239,-883.9482 95.5614,-1030.4235 80.9828,-1098.4949"/>
<polygon fill="#000000" stroke="#000000" points="183.8004,-856.438 192.4773,-857.7312 187.6502,-855.3522 191.5,-854.2663 191.5,-854.2663 191.5,-854.2663 187.6502,-855.3522 190.5227,-850.8015 183.8004,-856.438 183.8004,-856.438"/>
<ellipse fill="none" stroke="#000000" cx="180.7205" cy="-857.3067" rx="3.2" ry="3.2"/>
</g>
<!-- act_ru_execution&#45;&gt;act_ru_execution -->
<g id="edge9" class="edge">
<title>act_ru_execution:w&#45;&gt;act_ru_execution:e</title>
<path fill="none" stroke="#000000" d="M185.1674,-889.4069C127.7389,-1009.182 134.4897,-1017.2663 332,-1017.2663 536.5,-1017.2663 536.5,-1008.5997 472.5,-964.2663"/>
<polygon fill="#000000" stroke="#000000" points="188.0269,-883.4731 194.7431,-877.8292 189.7635,-879.8697 191.5,-876.2663 191.5,-876.2663 191.5,-876.2663 189.7635,-879.8697 188.2569,-874.7035 188.0269,-883.4731 188.0269,-883.4731"/>
<ellipse fill="none" stroke="#000000" cx="186.6377" cy="-886.3559" rx="3.2" ry="3.2"/>
</g>
<!-- act_ru_execution&#45;&gt;act_ru_execution -->
<g id="edge11" class="edge">
<title>act_ru_execution:w&#45;&gt;act_ru_execution:e</title>
<path fill="none" stroke="#000000" d="M182.9363,-932.1704C127.9493,-1009.3931 137.0859,-1017.2663 332,-1017.2663 536.5,-1017.2663 536.5,-1008.5997 472.5,-964.2663"/>
<polygon fill="#000000" stroke="#000000" points="186.8281,-926.7605 194.4224,-922.3687 189.1641,-923.5134 191.5,-920.2663 191.5,-920.2663 191.5,-920.2663 189.1641,-923.5134 188.5776,-918.164 186.8281,-926.7605 186.8281,-926.7605"/>
<ellipse fill="none" stroke="#000000" cx="184.9594" cy="-929.3582" rx="3.2" ry="3.2"/>
</g>
<!-- act_ru_execution&#45;&gt;act_ru_execution -->
<g id="edge12" class="edge">
<title>act_ru_execution:w&#45;&gt;act_ru_execution:e</title>
<path fill="none" stroke="#000000" d="M186.0433,-845.6803C127.6755,-990.2548 133.4912,-1017.2663 332,-1017.2663 536.5,-1017.2663 536.5,-1008.5997 472.5,-964.2663"/>
<polygon fill="#000000" stroke="#000000" points="188.4855,-839.6767 194.8347,-833.6229 189.9928,-835.9715 191.5,-832.2663 191.5,-832.2663 191.5,-832.2663 189.9928,-835.9715 188.1653,-830.9098 188.4855,-839.6767 188.4855,-839.6767"/>
<ellipse fill="none" stroke="#000000" cx="187.2797" cy="-842.6408" rx="3.2" ry="3.2"/>
</g>
<!-- act_ru_event_subscr -->
<g id="node6" class="node">
<title>act_ru_event_subscr</title>
<g id="a_node6"><a xlink:href="../../tables/act_ru_event_subscr.html" xlink:title="act_ru_event_subscr" target="_top">
<polygon fill="#ffffff" stroke="transparent" points="528.5,-438.7663 528.5,-631.7663 697.5,-631.7663 697.5,-438.7663 528.5,-438.7663"/>
<polygon fill="#f5f5f5" stroke="transparent" points="529,-608.2663 529,-631.2663 698,-631.2663 698,-608.2663 529,-608.2663"/>
<polygon fill="none" stroke="#000000" points="529,-608.2663 529,-631.2663 698,-631.2663 698,-608.2663 529,-608.2663"/>
<text text-anchor="start" x="534" y="-616.8663" font-family="Helvetica,sans-Serif" font-weight="bold" font-size="11.00" fill="#000000">act_ru_event_subscr</text>
<text text-anchor="start" x="663.5219" y="-616.3663" font-family="Helvetica,sans-Serif" font-size="11.00" fill="#000000">[table]</text>
<polygon fill="none" stroke="#000000" points="529,-586.2663 529,-608.2663 698,-608.2663 698,-586.2663 529,-586.2663"/>
<image xlink:href="../../images/primaryKeys.png" width="11px" height="12px" preserveAspectRatio="xMinYMin meet" x="534" y="-603.266"/>
<text text-anchor="start" x="554" y="-593.3663" font-family="Helvetica,sans-Serif" font-size="11.00" fill="#000000">id_</text>
<polygon fill="#ffffff" stroke="transparent" points="529,-564.2663 529,-586.2663 698,-586.2663 698,-564.2663 529,-564.2663"/>
<polygon fill="none" stroke="#000000" points="529,-564.2663 529,-586.2663 698,-586.2663 698,-564.2663 529,-564.2663"/>
<image xlink:href="../../images/foreignKeys.png" width="11px" height="12px" preserveAspectRatio="xMinYMin meet" x="534" y="-581.266"/>
<text text-anchor="start" x="554" y="-571.3663" font-family="Helvetica,sans-Serif" font-size="11.00" fill="#000000">execution_id_</text>
<polygon fill="#ffffff" stroke="transparent" points="529,-542.2663 529,-564.2663 698,-564.2663 698,-542.2663 529,-542.2663"/>
<polygon fill="none" stroke="#000000" points="529,-542.2663 529,-564.2663 698,-564.2663 698,-542.2663 529,-542.2663"/>
<text text-anchor="start" x="554" y="-549.3663" font-family="Helvetica,sans-Serif" font-size="11.00" fill="#000000">proc_inst_id_</text>
<polygon fill="#ffffff" stroke="transparent" points="529,-520.2663 529,-542.2663 698,-542.2663 698,-520.2663 529,-520.2663"/>
<polygon fill="none" stroke="#000000" points="529,-520.2663 529,-542.2663 698,-542.2663 698,-520.2663 529,-520.2663"/>
<text text-anchor="start" x="554" y="-527.3663" font-family="Helvetica,sans-Serif" font-size="11.00" fill="#000000">configuration_</text>
<polygon fill="#ffffff" stroke="transparent" points="529,-498.2663 529,-520.2663 698,-520.2663 698,-498.2663 529,-498.2663"/>
<polygon fill="none" stroke="#000000" points="529,-498.2663 529,-520.2663 698,-520.2663 698,-498.2663 529,-498.2663"/>
<text text-anchor="start" x="554" y="-505.3663" font-family="Helvetica,sans-Serif" font-size="11.00" fill="#000000">scope_id_</text>
<polygon fill="#ffffff" stroke="transparent" points="529,-476.2663 529,-498.2663 698,-498.2663 698,-476.2663 529,-476.2663"/>
<polygon fill="none" stroke="#000000" points="529,-476.2663 529,-498.2663 698,-498.2663 698,-476.2663 529,-476.2663"/>
<text text-anchor="start" x="554" y="-483.3663" font-family="Helvetica,sans-Serif" font-size="11.00" fill="#000000">scope_type_</text>
<polygon fill="none" stroke="#000000" points="529,-457.2663 529,-476.2663 698,-476.2663 698,-457.2663 529,-457.2663"/>
<text text-anchor="start" x="532" y="-463.3663" font-family="Helvetica,sans-Serif" font-size="11.00" fill="#000000">...</text>
<polygon fill="#ffffff" stroke="transparent" points="529,-438.2663 529,-457.2663 698,-457.2663 698,-438.2663 529,-438.2663"/>
<polygon fill="none" stroke="#000000" points="529,-438.2663 529,-457.2663 698,-457.2663 698,-438.2663 529,-438.2663"/>
<polygon fill="#ffffff" stroke="transparent" points="530,-439.2663 530,-456.2663 592,-456.2663 592,-439.2663 530,-439.2663"/>
<text text-anchor="start" x="532" y="-444.3663" font-family="Helvetica,sans-Serif" font-size="11.00" fill="#000000">&lt; 1</text>
<polygon fill="#ffffff" stroke="transparent" points="592,-439.2663 592,-456.2663 645,-456.2663 645,-439.2663 592,-439.2663"/>
<text text-anchor="start" x="615.4431" y="-444.3663" font-family="Helvetica,sans-Serif" font-size="11.00" fill="#000000"> &#160;</text>
<polygon fill="#ffffff" stroke="transparent" points="645,-439.2663 645,-456.2663 697,-456.2663 697,-439.2663 645,-439.2663"/>
<text text-anchor="start" x="688.8862" y="-444.3663" font-family="Helvetica,sans-Serif" font-size="11.00" fill="#000000"> &#160;</text>
<polygon fill="#000000" stroke="#000000" points="592,-439.2663 592,-456.2663 592,-456.2663 592,-439.2663 592,-439.2663"/>
<polygon fill="#000000" stroke="#000000" points="645,-439.2663 645,-456.2663 645,-456.2663 645,-439.2663 645,-439.2663"/>
</a>
</g>
</g>
<!-- act_ru_event_subscr&#45;&gt;act_ru_execution -->
<g id="edge8" class="edge">
<title>act_ru_event_subscr:w&#45;&gt;act_ru_execution:e</title>
<path fill="none" stroke="#000000" d="M514.9301,-579.635C455.6209,-622.3718 554.392,-964.2663 472.5,-964.2663"/>
<polygon fill="#000000" stroke="#000000" points="521.3598,-577.6386 530.0675,-578.7044 525.1799,-576.4525 529,-575.2663 529,-575.2663 529,-575.2663 525.1799,-576.4525 527.9325,-571.8283 521.3598,-577.6386 521.3598,-577.6386"/>
<ellipse fill="none" stroke="#000000" cx="518.3037" cy="-578.5875" rx="3.2" ry="3.2"/>
</g>
<!-- act_ru_identitylink -->
<g id="node7" class="node">
<title>act_ru_identitylink</title>
<g id="a_node7"><a xlink:href="../../tables/act_ru_identitylink.html" xlink:title="act_ru_identitylink" target="_top">
<polygon fill="#ffffff" stroke="transparent" points="752,-625.7663 752,-686.7663 905,-686.7663 905,-625.7663 752,-625.7663"/>
<polygon fill="#f5f5f5" stroke="transparent" points="752.5,-663.2663 752.5,-686.2663 905.5,-686.2663 905.5,-663.2663 752.5,-663.2663"/>
<polygon fill="none" stroke="#000000" points="752.5,-663.2663 752.5,-686.2663 905.5,-686.2663 905.5,-663.2663 752.5,-663.2663"/>
<text text-anchor="start" x="757.5" y="-671.8663" font-family="Helvetica,sans-Serif" font-weight="bold" font-size="11.00" fill="#000000">act_ru_identitylink</text>
<text text-anchor="start" x="871.0219" y="-671.3663" font-family="Helvetica,sans-Serif" font-size="11.00" fill="#000000">[table]</text>
<polygon fill="none" stroke="#000000" points="752.5,-644.2663 752.5,-663.2663 905.5,-663.2663 905.5,-644.2663 752.5,-644.2663"/>
<text text-anchor="start" x="755.5" y="-650.3663" font-family="Helvetica,sans-Serif" font-size="11.00" fill="#000000">...</text>
<polygon fill="#ffffff" stroke="transparent" points="752.5,-625.2663 752.5,-644.2663 905.5,-644.2663 905.5,-625.2663 752.5,-625.2663"/>
<polygon fill="none" stroke="#000000" points="752.5,-625.2663 752.5,-644.2663 905.5,-644.2663 905.5,-625.2663 752.5,-625.2663"/>
<polygon fill="#ffffff" stroke="transparent" points="753.5,-626.2663 753.5,-643.2663 810.5,-643.2663 810.5,-626.2663 753.5,-626.2663"/>
<text text-anchor="start" x="755.5" y="-631.3663" font-family="Helvetica,sans-Serif" font-size="11.00" fill="#000000">&lt; 3</text>
<polygon fill="#ffffff" stroke="transparent" points="810.5,-626.2663 810.5,-643.2663 857.5,-643.2663 857.5,-626.2663 810.5,-626.2663"/>
<text text-anchor="start" x="830.9431" y="-631.3663" font-family="Helvetica,sans-Serif" font-size="11.00" fill="#000000"> &#160;</text>
<polygon fill="#ffffff" stroke="transparent" points="857.5,-626.2663 857.5,-643.2663 904.5,-643.2663 904.5,-626.2663 857.5,-626.2663"/>
<text text-anchor="start" x="896.3862" y="-631.3663" font-family="Helvetica,sans-Serif" font-size="11.00" fill="#000000"> &#160;</text>
<polygon fill="#000000" stroke="#000000" points="810.5,-626.2663 810.5,-643.2663 810.5,-643.2663 810.5,-626.2663 810.5,-626.2663"/>
<polygon fill="#000000" stroke="#000000" points="857.5,-626.2663 857.5,-643.2663 857.5,-643.2663 857.5,-626.2663 857.5,-626.2663"/>
</a>
</g>
</g>
<!-- act_ru_identitylink&#45;&gt;act_re_procdef -->
<g id="edge13" class="edge">
<title>act_ru_identitylink:w&#45;&gt;act_re_procdef:e</title>
<path fill="none" stroke="#000000" d="M823.6474,-705.6385C808.4307,-855.4594 759.7548,-1297.1931 711,-1338.2663 619.3063,-1415.5133 211.5137,-1284.0754 181,-1265.2663 142.2012,-1241.3503 111.2611,-1198.2232 92.8256,-1167.7843"/>
<polygon fill="#000000" stroke="#000000" points="824.3341,-698.8196 828.7177,-691.2206 824.7349,-694.8397 825.1358,-690.8598 825.1358,-690.8598 825.1358,-690.8598 824.7349,-694.8397 821.5539,-690.4991 824.3341,-698.8196 824.3341,-698.8196"/>
<ellipse fill="none" stroke="#000000" cx="824.0135" cy="-702.0035" rx="3.2" ry="3.2"/>
</g>
<!-- act_ru_identitylink&#45;&gt;act_ru_execution -->
<g id="edge14" class="edge">
<title>act_ru_identitylink:w&#45;&gt;act_ru_execution:e</title>
<path fill="none" stroke="#000000" d="M729.0831,-647.4736C649.2129,-642.7453 545.5077,-642.6369 515,-670.2663 466.0711,-714.579 538.5124,-964.2663 472.5,-964.2663"/>
<polygon fill="#000000" stroke="#000000" points="735.7124,-647.8959 743.4673,-651.9973 739.7043,-648.1503 743.6962,-648.4046 743.6962,-648.4046 743.6962,-648.4046 739.7043,-648.1503 743.9252,-644.8119 735.7124,-647.8959 735.7124,-647.8959"/>
<ellipse fill="none" stroke="#000000" cx="732.5189" cy="-647.6924" rx="3.2" ry="3.2"/>
</g>
<!-- act_ru_task -->
<g id="node8" class="node">
<title>act_ru_task</title>
<g id="a_node8"><a xlink:href="../../tables/act_ru_task.html" xlink:title="act_ru_task" target="_top">
<polygon fill="#ffffff" stroke="transparent" points="557.5,-356.7663 557.5,-417.7663 668.5,-417.7663 668.5,-356.7663 557.5,-356.7663"/>
<polygon fill="#f5f5f5" stroke="transparent" points="558,-394.2663 558,-417.2663 669,-417.2663 669,-394.2663 558,-394.2663"/>
<polygon fill="none" stroke="#000000" points="558,-394.2663 558,-417.2663 669,-417.2663 669,-394.2663 558,-394.2663"/>
<text text-anchor="start" x="563" y="-402.8663" font-family="Helvetica,sans-Serif" font-weight="bold" font-size="11.00" fill="#000000">act_ru_task</text>
<text text-anchor="start" x="634.5219" y="-402.3663" font-family="Helvetica,sans-Serif" font-size="11.00" fill="#000000">[table]</text>
<polygon fill="none" stroke="#000000" points="558,-375.2663 558,-394.2663 669,-394.2663 669,-375.2663 558,-375.2663"/>
<text text-anchor="start" x="561" y="-381.3663" font-family="Helvetica,sans-Serif" font-size="11.00" fill="#000000">...</text>
<polygon fill="#ffffff" stroke="transparent" points="558,-356.2663 558,-375.2663 669,-375.2663 669,-356.2663 558,-356.2663"/>
<polygon fill="none" stroke="#000000" points="558,-356.2663 558,-375.2663 669,-375.2663 669,-356.2663 558,-356.2663"/>
<polygon fill="#ffffff" stroke="transparent" points="559,-357.2663 559,-374.2663 599,-374.2663 599,-357.2663 559,-357.2663"/>
<text text-anchor="start" x="561" y="-362.3663" font-family="Helvetica,sans-Serif" font-size="11.00" fill="#000000">&lt; 3</text>
<polygon fill="#ffffff" stroke="transparent" points="599,-357.2663 599,-374.2663 629,-374.2663 629,-357.2663 599,-357.2663"/>
<text text-anchor="start" x="610.9431" y="-362.3663" font-family="Helvetica,sans-Serif" font-size="11.00" fill="#000000"> &#160;</text>
<polygon fill="#ffffff" stroke="transparent" points="629,-357.2663 629,-374.2663 668,-374.2663 668,-357.2663 629,-357.2663"/>
<text text-anchor="start" x="650.4053" y="-362.3663" font-family="Helvetica,sans-Serif" font-size="11.00" fill="#000000">1 &gt;</text>
<polygon fill="#000000" stroke="#000000" points="599,-357.2663 599,-374.2663 599,-374.2663 599,-357.2663 599,-357.2663"/>
<polygon fill="#000000" stroke="#000000" points="629,-357.2663 629,-374.2663 629,-374.2663 629,-357.2663 629,-357.2663"/>
</a>
</g>
</g>
<!-- act_ru_identitylink&#45;&gt;act_ru_task -->
<g id="edge15" class="edge">
<title>act_ru_identitylink:w&#45;&gt;act_ru_task:e</title>
<path fill="none" stroke="#000000" d="M814.4429,-607.605C797.4897,-556.7368 764.4147,-477.5892 711,-428.2663 701.1764,-419.1953 689.057,-411.9738 676.73,-406.2818"/>
<polygon fill="#000000" stroke="#000000" points="816.4508,-613.8539 815.471,-622.5717 817.6746,-617.6621 818.8984,-621.4703 818.8984,-621.4703 818.8984,-621.4703 817.6746,-617.6621 822.3258,-620.3689 816.4508,-613.8539 816.4508,-613.8539"/>
<ellipse fill="none" stroke="#000000" cx="815.4718" cy="-610.8073" rx="3.2" ry="3.2"/>
</g>
<!-- act_ru_task&#45;&gt;act_re_procdef -->
<g id="edge27" class="edge">
<title>act_ru_task:w&#45;&gt;act_re_procdef:e</title>
<path fill="none" stroke="#000000" d="M609.3748,-337.8203C600.9862,-263.8893 573.2783,-126.6744 482,-65.2663 426.5016,-27.9294 230.5991,-20.3881 181,-65.2663 102.4979,-136.2965 79.0514,-922.8076 74.7752,-1098.5695"/>
<polygon fill="#000000" stroke="#000000" points="610.0721,-344.6275 607.3062,-352.9527 610.4798,-348.6066 610.8875,-352.5858 610.8875,-352.5858 610.8875,-352.5858 610.4798,-348.6066 614.4687,-352.2189 610.0721,-344.6275 610.0721,-344.6275"/>
<ellipse fill="none" stroke="#000000" cx="609.7459" cy="-341.4441" rx="3.2" ry="3.2"/>
</g>
<!-- act_ru_task&#45;&gt;act_ru_execution -->
<g id="edge26" class="edge">
<title>act_ru_task:w&#45;&gt;act_ru_execution:e</title>
<path fill="none" stroke="#000000" d="M536.4227,-402.9981C528.1402,-408.0844 520.6754,-414.4305 515,-422.2663 479.9557,-470.6508 532.2425,-958.2663 472.5,-964.2663"/>
<polygon fill="#000000" stroke="#000000" points="542.3933,-399.9007 551.1524,-399.4121 545.9439,-398.0586 549.4945,-396.2166 549.4945,-396.2166 549.4945,-396.2166 545.9439,-398.0586 547.8367,-393.021 542.3933,-399.9007 542.3933,-399.9007"/>
<ellipse fill="none" stroke="#000000" cx="539.5528" cy="-401.3743" rx="3.2" ry="3.2"/>
</g>
<!-- act_ru_task&#45;&gt;act_ru_execution -->
<g id="edge28" class="edge">
<title>act_ru_task:w&#45;&gt;act_ru_execution:e</title>
<path fill="none" stroke="#000000" d="M536.7154,-415.7033C528.3161,-420.9353 520.7422,-427.3383 515,-435.2663 479.9557,-483.6508 532.2425,-971.2663 472.5,-964.2663"/>
<polygon fill="#000000" stroke="#000000" points="542.4479,-412.6221 551.1989,-412.0055 545.9712,-410.7283 549.4945,-408.8345 549.4945,-408.8345 549.4945,-408.8345 545.9712,-410.7283 547.7901,-405.6636 542.4479,-412.6221 542.4479,-412.6221"/>
<ellipse fill="none" stroke="#000000" cx="539.6293" cy="-414.1371" rx="3.2" ry="3.2"/>
</g>
<!-- act_ru_job -->
<g id="node9" class="node">
<title>act_ru_job</title>
<g id="a_node9"><a xlink:href="../../tables/act_ru_job.html" xlink:title="act_ru_job" target="_top">
<polygon fill="#ffffff" stroke="transparent" points="561,-1102.7663 561,-1163.7663 665,-1163.7663 665,-1102.7663 561,-1102.7663"/>
<polygon fill="#f5f5f5" stroke="transparent" points="561,-1140.2663 561,-1163.2663 665,-1163.2663 665,-1140.2663 561,-1140.2663"/>
<polygon fill="none" stroke="#000000" points="561,-1140.2663 561,-1163.2663 665,-1163.2663 665,-1140.2663 561,-1140.2663"/>
<text text-anchor="start" x="566" y="-1148.8663" font-family="Helvetica,sans-Serif" font-weight="bold" font-size="11.00" fill="#000000">act_ru_job</text>
<text text-anchor="start" x="630.5219" y="-1148.3663" font-family="Helvetica,sans-Serif" font-size="11.00" fill="#000000">[table]</text>
<polygon fill="none" stroke="#000000" points="561,-1121.2663 561,-1140.2663 665,-1140.2663 665,-1121.2663 561,-1121.2663"/>
<text text-anchor="start" x="564" y="-1127.3663" font-family="Helvetica,sans-Serif" font-size="11.00" fill="#000000">...</text>
<polygon fill="#ffffff" stroke="transparent" points="561,-1102.2663 561,-1121.2663 665,-1121.2663 665,-1102.2663 561,-1102.2663"/>
<polygon fill="none" stroke="#000000" points="561,-1102.2663 561,-1121.2663 665,-1121.2663 665,-1102.2663 561,-1102.2663"/>
<polygon fill="#ffffff" stroke="transparent" points="562,-1103.2663 562,-1120.2663 602,-1120.2663 602,-1103.2663 562,-1103.2663"/>
<text text-anchor="start" x="564" y="-1108.3663" font-family="Helvetica,sans-Serif" font-size="11.00" fill="#000000">&lt; 5</text>
<polygon fill="#ffffff" stroke="transparent" points="602,-1103.2663 602,-1120.2663 633,-1120.2663 633,-1103.2663 602,-1103.2663"/>
<text text-anchor="start" x="614.4431" y="-1108.3663" font-family="Helvetica,sans-Serif" font-size="11.00" fill="#000000"> &#160;</text>
<polygon fill="#ffffff" stroke="transparent" points="633,-1103.2663 633,-1120.2663 664,-1120.2663 664,-1103.2663 633,-1103.2663"/>
<text text-anchor="start" x="655.8862" y="-1108.3663" font-family="Helvetica,sans-Serif" font-size="11.00" fill="#000000"> &#160;</text>
<polygon fill="#000000" stroke="#000000" points="602,-1103.2663 602,-1120.2663 602,-1120.2663 602,-1103.2663 602,-1103.2663"/>
<polygon fill="#000000" stroke="#000000" points="633,-1103.2663 633,-1120.2663 633,-1120.2663 633,-1103.2663 633,-1103.2663"/>
</a>
</g>
</g>
<!-- act_ru_job&#45;&gt;act_ge_bytearray -->
<g id="edge16" class="edge">
<title>act_ru_job:w&#45;&gt;act_ge_bytearray:e</title>
<path fill="none" stroke="#000000" d="M538.3478,-1127.18C498.6051,-1126.5831 448.8965,-1127.392 404.5,-1130.2663"/>
<polygon fill="#000000" stroke="#000000" points="544.7865,-1127.309 552.7127,-1131.0685 548.7857,-1127.3891 552.7849,-1127.4692 552.7849,-1127.4692 552.7849,-1127.4692 548.7857,-1127.3891 552.857,-1123.87 544.7865,-1127.309 544.7865,-1127.309"/>
<ellipse fill="none" stroke="#000000" cx="541.5871" cy="-1127.2448" rx="3.2" ry="3.2"/>
</g>
<!-- act_ru_job&#45;&gt;act_ge_bytearray -->
<g id="edge17" class="edge">
<title>act_ru_job:w&#45;&gt;act_ge_bytearray:e</title>
<path fill="none" stroke="#000000" d="M538.3478,-1136.9129C498.6051,-1136.0551 448.8965,-1133.6197 404.5,-1130.2663"/>
<polygon fill="#000000" stroke="#000000" points="544.786,-1137.0229 552.7233,-1140.7592 548.7855,-1137.0913 552.7849,-1137.1597 552.7849,-1137.1597 552.7849,-1137.1597 548.7855,-1137.0913 552.8464,-1133.5603 544.786,-1137.0229 544.786,-1137.0229"/>
<ellipse fill="none" stroke="#000000" cx="541.5865" cy="-1136.9682" rx="3.2" ry="3.2"/>
</g>
<!-- act_ru_job&#45;&gt;act_re_procdef -->
<g id="edge19" class="edge">
<title>act_ru_job:w&#45;&gt;act_re_procdef:e</title>
<path fill="none" stroke="#000000" d="M539.1655,-1160.6548C520.7488,-1166.2911 500.8662,-1171.383 482,-1174.2663 349.7578,-1194.4774 312.5449,-1198.606 181,-1174.2663 170.1434,-1172.2576 158.9651,-1169.1927 148.1148,-1165.6242"/>
<polygon fill="#000000" stroke="#000000" points="545.3005,-1158.6976 554.0162,-1159.6957 549.1113,-1157.4818 552.9221,-1156.266 552.9221,-1156.266 552.9221,-1156.266 549.1113,-1157.4818 551.8279,-1152.8363 545.3005,-1158.6976 545.3005,-1158.6976"/>
<ellipse fill="none" stroke="#000000" cx="542.2519" cy="-1159.6702" rx="3.2" ry="3.2"/>
</g>
<!-- act_ru_job&#45;&gt;act_ru_execution -->
<g id="edge18" class="edge">
<title>act_ru_job:w&#45;&gt;act_ru_execution:e</title>
<path fill="none" stroke="#000000" d="M540.0588,-1105.3285C530.7764,-1100.1459 522.0686,-1093.891 515,-1086.2663 474.2475,-1042.3076 532.4428,-958.2663 472.5,-964.2663"/>
<polygon fill="#000000" stroke="#000000" points="545.8113,-1108.193 551.3678,-1114.9816 549.3919,-1109.976 552.9726,-1111.7591 552.9726,-1111.7591 552.9726,-1111.7591 549.3919,-1109.976 554.5773,-1108.5365 545.8113,-1108.193 545.8113,-1108.193"/>
<ellipse fill="none" stroke="#000000" cx="542.9468" cy="-1106.7666" rx="3.2" ry="3.2"/>
</g>
<!-- act_ru_job&#45;&gt;act_ru_execution -->
<g id="edge20" class="edge">
<title>act_ru_job:w&#45;&gt;act_ru_execution:e</title>
<path fill="none" stroke="#000000" d="M539.7425,-1118.0173C530.5787,-1113.0036 521.9883,-1106.8044 515,-1099.2663 474.2475,-1055.3076 532.4428,-971.2663 472.5,-964.2663"/>
<polygon fill="#000000" stroke="#000000" points="545.7528,-1120.8859 551.4219,-1127.5807 549.3627,-1122.6088 552.9726,-1124.3318 552.9726,-1124.3318 552.9726,-1124.3318 549.3627,-1122.6088 554.5233,-1121.0829 545.7528,-1120.8859 545.7528,-1120.8859"/>
<ellipse fill="none" stroke="#000000" cx="542.8648" cy="-1119.5075" rx="3.2" ry="3.2"/>
</g>
<!-- act_ru_suspended_job -->
<g id="node10" class="node">
<title>act_ru_suspended_job</title>
<g id="a_node10"><a xlink:href="../../tables/act_ru_suspended_job.html" xlink:title="act_ru_suspended_job" target="_top">
<polygon fill="#ffffff" stroke="transparent" points="523,-1020.7663 523,-1081.7663 703,-1081.7663 703,-1020.7663 523,-1020.7663"/>
<polygon fill="#f5f5f5" stroke="transparent" points="523,-1058.2663 523,-1081.2663 703,-1081.2663 703,-1058.2663 523,-1058.2663"/>
<polygon fill="none" stroke="#000000" points="523,-1058.2663 523,-1081.2663 703,-1081.2663 703,-1058.2663 523,-1058.2663"/>
<text text-anchor="start" x="528" y="-1066.8663" font-family="Helvetica,sans-Serif" font-weight="bold" font-size="11.00" fill="#000000">act_ru_suspended_job</text>
<text text-anchor="start" x="668.5219" y="-1066.3663" font-family="Helvetica,sans-Serif" font-size="11.00" fill="#000000">[table]</text>
<polygon fill="none" stroke="#000000" points="523,-1039.2663 523,-1058.2663 703,-1058.2663 703,-1039.2663 523,-1039.2663"/>
<text text-anchor="start" x="526" y="-1045.3663" font-family="Helvetica,sans-Serif" font-size="11.00" fill="#000000">...</text>
<polygon fill="#ffffff" stroke="transparent" points="523,-1020.2663 523,-1039.2663 703,-1039.2663 703,-1020.2663 523,-1020.2663"/>
<polygon fill="none" stroke="#000000" points="523,-1020.2663 523,-1039.2663 703,-1039.2663 703,-1020.2663 523,-1020.2663"/>
<polygon fill="#ffffff" stroke="transparent" points="524,-1021.2663 524,-1038.2663 590,-1038.2663 590,-1021.2663 524,-1021.2663"/>
<text text-anchor="start" x="526" y="-1026.3663" font-family="Helvetica,sans-Serif" font-size="11.00" fill="#000000">&lt; 5</text>
<polygon fill="#ffffff" stroke="transparent" points="590,-1021.2663 590,-1038.2663 646,-1038.2663 646,-1021.2663 590,-1021.2663"/>
<text text-anchor="start" x="614.9431" y="-1026.3663" font-family="Helvetica,sans-Serif" font-size="11.00" fill="#000000"> &#160;</text>
<polygon fill="#ffffff" stroke="transparent" points="646,-1021.2663 646,-1038.2663 702,-1038.2663 702,-1021.2663 646,-1021.2663"/>
<text text-anchor="start" x="693.8862" y="-1026.3663" font-family="Helvetica,sans-Serif" font-size="11.00" fill="#000000"> &#160;</text>
<polygon fill="#000000" stroke="#000000" points="590,-1021.2663 590,-1038.2663 590,-1038.2663 590,-1021.2663 590,-1021.2663"/>
<polygon fill="#000000" stroke="#000000" points="646,-1021.2663 646,-1038.2663 646,-1038.2663 646,-1021.2663 646,-1021.2663"/>
</a>
</g>
</g>
<!-- act_ru_suspended_job&#45;&gt;act_ge_bytearray -->
<g id="edge21" class="edge">
<title>act_ru_suspended_job:w&#45;&gt;act_ge_bytearray:e</title>
<path fill="none" stroke="#000000" d="M505.8321,-1091.1879C460.659,-1109.4076 415.8621,-1127.5145 404.5,-1130.2663"/>
<polygon fill="#000000" stroke="#000000" points="511.7689,-1088.7948 520.5347,-1089.1427 515.4788,-1087.2993 519.1887,-1085.8037 519.1887,-1085.8037 519.1887,-1085.8037 515.4788,-1087.2993 517.8427,-1082.4648 511.7689,-1088.7948 511.7689,-1088.7948"/>
<ellipse fill="none" stroke="#000000" cx="508.8009" cy="-1089.9912" rx="3.2" ry="3.2"/>
</g>
<!-- act_ru_suspended_job&#45;&gt;act_ge_bytearray -->
<g id="edge22" class="edge">
<title>act_ru_suspended_job:w&#45;&gt;act_ge_bytearray:e</title>
<path fill="none" stroke="#000000" d="M529.4408,-1091.3703C477.3889,-1112.8262 417.8535,-1134.0395 404.5,-1130.2663"/>
<polygon fill="#000000" stroke="#000000" points="535.4466,-1088.8615 544.2161,-1089.0998 539.1375,-1087.3197 542.8285,-1085.7779 542.8285,-1085.7779 542.8285,-1085.7779 539.1375,-1087.3197 541.4408,-1082.4561 535.4466,-1088.8615 535.4466,-1088.8615"/>
<ellipse fill="none" stroke="#000000" cx="532.4939" cy="-1090.095" rx="3.2" ry="3.2"/>
</g>
<!-- act_ru_suspended_job&#45;&gt;act_re_procdef -->
<g id="edge24" class="edge">
<title>act_ru_suspended_job:w&#45;&gt;act_re_procdef:e</title>
<path fill="none" stroke="#000000" d="M500.2214,-1063.4427C494.0587,-1064.0695 487.9539,-1064.6812 482,-1065.2663 348.3291,-1078.4033 311.8483,-1061.9476 181,-1092.2663 170.1472,-1094.781 158.9224,-1098.1575 148.0076,-1101.8983"/>
<polygon fill="#000000" stroke="#000000" points="506.7044,-1062.7764 515.0305,-1065.5396 510.6834,-1062.3674 514.6624,-1061.9584 514.6624,-1061.9584 514.6624,-1061.9584 510.6834,-1062.3674 514.2943,-1058.3773 506.7044,-1062.7764 506.7044,-1062.7764"/>
<ellipse fill="none" stroke="#000000" cx="503.5211" cy="-1063.1036" rx="3.2" ry="3.2"/>
</g>
<!-- act_ru_suspended_job&#45;&gt;act_ru_execution -->
<g id="edge23" class="edge">
<title>act_ru_suspended_job:w&#45;&gt;act_ru_execution:e</title>
<path fill="none" stroke="#000000" d="M523.0838,-1009.5657C520.3117,-1007.858 517.6089,-1006.092 515,-1004.2663 492.1947,-988.3075 500.3346,-958.2663 472.5,-964.2663"/>
<polygon fill="#000000" stroke="#000000" points="528.6517,-1012.7315 533.8268,-1019.8153 532.129,-1014.7086 535.6062,-1016.6858 535.6062,-1016.6858 535.6062,-1016.6858 532.129,-1014.7086 537.3856,-1013.5563 528.6517,-1012.7315 528.6517,-1012.7315"/>
<ellipse fill="none" stroke="#000000" cx="525.8699" cy="-1011.1498" rx="3.2" ry="3.2"/>
</g>
<!-- act_ru_suspended_job&#45;&gt;act_ru_execution -->
<g id="edge25" class="edge">
<title>act_ru_suspended_job:w&#45;&gt;act_ru_execution:e</title>
<path fill="none" stroke="#000000" d="M504.5557,-1006.3913C494.0087,-990.2913 494.8107,-969.8772 472.5,-964.2663"/>
<polygon fill="#000000" stroke="#000000" points="509.2169,-1011.2855 512.1273,-1019.5614 511.9755,-1014.1821 514.7342,-1017.0787 514.7342,-1017.0787 514.7342,-1017.0787 511.9755,-1014.1821 517.3411,-1014.5959 509.2169,-1011.2855 509.2169,-1011.2855"/>
<ellipse fill="none" stroke="#000000" cx="507.01" cy="-1008.9683" rx="3.2" ry="3.2"/>
</g>
<!-- act_ru_timer_job -->
<g id="node11" class="node">
<title>act_ru_timer_job</title>
<g id="a_node11"><a xlink:href="../../tables/act_ru_timer_job.html" xlink:title="act_ru_timer_job" target="_top">
<polygon fill="#ffffff" stroke="transparent" points="541.5,-680.7663 541.5,-741.7663 684.5,-741.7663 684.5,-680.7663 541.5,-680.7663"/>
<polygon fill="#f5f5f5" stroke="transparent" points="542,-718.2663 542,-741.2663 685,-741.2663 685,-718.2663 542,-718.2663"/>
<polygon fill="none" stroke="#000000" points="542,-718.2663 542,-741.2663 685,-741.2663 685,-718.2663 542,-718.2663"/>
<text text-anchor="start" x="547" y="-726.8663" font-family="Helvetica,sans-Serif" font-weight="bold" font-size="11.00" fill="#000000">act_ru_timer_job</text>
<text text-anchor="start" x="650.5219" y="-726.3663" font-family="Helvetica,sans-Serif" font-size="11.00" fill="#000000">[table]</text>
<polygon fill="none" stroke="#000000" points="542,-699.2663 542,-718.2663 685,-718.2663 685,-699.2663 542,-699.2663"/>
<text text-anchor="start" x="545" y="-705.3663" font-family="Helvetica,sans-Serif" font-size="11.00" fill="#000000">...</text>
<polygon fill="#ffffff" stroke="transparent" points="542,-680.2663 542,-699.2663 685,-699.2663 685,-680.2663 542,-680.2663"/>
<polygon fill="none" stroke="#000000" points="542,-680.2663 542,-699.2663 685,-699.2663 685,-680.2663 542,-680.2663"/>
<polygon fill="#ffffff" stroke="transparent" points="543,-681.2663 543,-698.2663 596,-698.2663 596,-681.2663 543,-681.2663"/>
<text text-anchor="start" x="545" y="-686.3663" font-family="Helvetica,sans-Serif" font-size="11.00" fill="#000000">&lt; 5</text>
<polygon fill="#ffffff" stroke="transparent" points="596,-681.2663 596,-698.2663 640,-698.2663 640,-681.2663 596,-681.2663"/>
<text text-anchor="start" x="614.9431" y="-686.3663" font-family="Helvetica,sans-Serif" font-size="11.00" fill="#000000"> &#160;</text>
<polygon fill="#ffffff" stroke="transparent" points="640,-681.2663 640,-698.2663 684,-698.2663 684,-681.2663 640,-681.2663"/>
<text text-anchor="start" x="675.8862" y="-686.3663" font-family="Helvetica,sans-Serif" font-size="11.00" fill="#000000"> &#160;</text>
<polygon fill="#000000" stroke="#000000" points="596,-681.2663 596,-698.2663 596,-698.2663 596,-681.2663 596,-681.2663"/>
<polygon fill="#000000" stroke="#000000" points="640,-681.2663 640,-698.2663 640,-698.2663 640,-681.2663 640,-681.2663"/>
</a>
</g>
</g>
<!-- act_ru_timer_job&#45;&gt;act_ge_bytearray -->
<g id="edge29" class="edge">
<title>act_ru_timer_job:w&#45;&gt;act_ge_bytearray:e</title>
<path fill="none" stroke="#000000" d="M521.6351,-738.6744C519.2382,-741.0341 517.013,-743.5616 515,-746.2663 431.4855,-858.4819 547.7048,-935.7759 482,-1059.2663 460.8838,-1098.9538 449.4554,-1124.2663 404.5,-1130.2663"/>
<polygon fill="#000000" stroke="#000000" points="526.901,-734.4099 535.3837,-732.1727 530.0095,-731.8924 533.118,-729.375 533.118,-729.375 533.118,-729.375 530.0095,-731.8924 530.8524,-726.5774 526.901,-734.4099 526.901,-734.4099"/>
<ellipse fill="none" stroke="#000000" cx="524.4142" cy="-736.4238" rx="3.2" ry="3.2"/>
</g>
<!-- act_ru_timer_job&#45;&gt;act_ge_bytearray -->
<g id="edge30" class="edge">
<title>act_ru_timer_job:w&#45;&gt;act_ge_bytearray:e</title>
<path fill="none" stroke="#000000" d="M521.9124,-751.3976C519.4097,-753.8399 517.0904,-756.4576 515,-759.2663 431.4855,-871.4819 547.7048,-948.7759 482,-1072.2663 460.8838,-1111.9538 449.4554,-1137.2663 404.5,-1130.2663"/>
<polygon fill="#000000" stroke="#000000" points="526.906,-747.3454 535.3865,-745.0998 530.012,-744.8249 533.118,-742.3044 533.118,-742.3044 533.118,-742.3044 530.012,-744.8249 530.8496,-739.509 526.906,-747.3454 526.906,-747.3454"/>
<ellipse fill="none" stroke="#000000" cx="524.4212" cy="-749.3618" rx="3.2" ry="3.2"/>
</g>
<!-- act_ru_timer_job&#45;&gt;act_re_procdef -->
<g id="edge32" class="edge">
<title>act_ru_timer_job:w&#45;&gt;act_re_procdef:e</title>
<path fill="none" stroke="#000000" d="M534.9957,-667.1709C527.1263,-659.8116 520.1518,-651.5143 515,-642.2663 484.8287,-588.1058 527.1165,-127.789 482,-85.2663 457.6619,-62.3275 205.8208,-62.8507 181,-85.2663 103.9721,-154.8302 79.4175,-925.038 74.8428,-1098.6455"/>
<polygon fill="#000000" stroke="#000000" points="540.0815,-671.465 543.8716,-679.3767 543.1378,-674.0455 546.1941,-676.626 546.1941,-676.626 546.1941,-676.626 543.1378,-674.0455 548.5166,-673.8754 540.0815,-671.465 540.0815,-671.465"/>
<ellipse fill="none" stroke="#000000" cx="537.6364" cy="-669.4006" rx="3.2" ry="3.2"/>
</g>
<!-- act_ru_timer_job&#45;&gt;act_ru_execution -->
<g id="edge31" class="edge">
<title>act_ru_timer_job:w&#45;&gt;act_ru_execution:e</title>
<path fill="none" stroke="#000000" d="M521.7885,-739.0764C519.3637,-741.3217 517.0888,-743.7159 515,-746.2663 454.1126,-820.6124 568.5969,-958.2663 472.5,-964.2663"/>
<polygon fill="#000000" stroke="#000000" points="526.9492,-735.0694 535.4759,-733.0067 530.1086,-732.6163 533.2681,-730.1632 533.2681,-730.1632 533.2681,-730.1632 530.1086,-732.6163 531.0603,-727.3196 526.9492,-735.0694 526.9492,-735.0694"/>
<ellipse fill="none" stroke="#000000" cx="524.4216" cy="-737.0319" rx="3.2" ry="3.2"/>
</g>
<!-- act_ru_timer_job&#45;&gt;act_ru_execution -->
<g id="edge33" class="edge">
<title>act_ru_timer_job:w&#45;&gt;act_ru_execution:e</title>
<path fill="none" stroke="#000000" d="M521.7885,-752.072C519.3637,-754.3217 517.0888,-756.7159 515,-759.2663 454.1126,-833.6124 568.5969,-971.2663 472.5,-964.2663"/>
<polygon fill="#000000" stroke="#000000" points="526.9656,-748.0245 535.4854,-745.9333 530.1168,-745.5608 533.2681,-743.0972 533.2681,-743.0972 533.2681,-743.0972 530.1168,-745.5608 531.0508,-740.261 526.9656,-748.0245 526.9656,-748.0245"/>
<ellipse fill="none" stroke="#000000" cx="524.4446" cy="-749.9954" rx="3.2" ry="3.2"/>
</g>
<!-- act_ru_variable -->
<g id="node12" class="node">
<title>act_ru_variable</title>
<g id="a_node12"><a xlink:href="../../tables/act_ru_variable.html" xlink:title="act_ru_variable" target="_top">
<polygon fill="#ffffff" stroke="transparent" points="546,-762.7663 546,-999.7663 680,-999.7663 680,-762.7663 546,-762.7663"/>
<polygon fill="#f5f5f5" stroke="transparent" points="546,-976.2663 546,-999.2663 680,-999.2663 680,-976.2663 546,-976.2663"/>
<polygon fill="none" stroke="#000000" points="546,-976.2663 546,-999.2663 680,-999.2663 680,-976.2663 546,-976.2663"/>
<text text-anchor="start" x="551" y="-984.8663" font-family="Helvetica,sans-Serif" font-weight="bold" font-size="11.00" fill="#000000">act_ru_variable</text>
<text text-anchor="start" x="645.5219" y="-984.3663" font-family="Helvetica,sans-Serif" font-size="11.00" fill="#000000">[table]</text>
<polygon fill="none" stroke="#000000" points="546,-954.2663 546,-976.2663 680,-976.2663 680,-954.2663 546,-954.2663"/>
<image xlink:href="../../images/primaryKeys.png" width="11px" height="12px" preserveAspectRatio="xMinYMin meet" x="551" y="-971.266"/>
<text text-anchor="start" x="575" y="-961.3663" font-family="Helvetica,sans-Serif" font-size="11.00" fill="#000000">id_</text>
<polygon fill="#ffffff" stroke="transparent" points="546,-932.2663 546,-954.2663 680,-954.2663 680,-932.2663 546,-932.2663"/>
<polygon fill="none" stroke="#000000" points="546,-932.2663 546,-954.2663 680,-954.2663 680,-932.2663 546,-932.2663"/>
<image xlink:href="../../images/foreignKeys.png" width="11px" height="12px" preserveAspectRatio="xMinYMin meet" x="551" y="-949.266"/>
<text text-anchor="start" x="575" y="-939.3663" font-family="Helvetica,sans-Serif" font-size="11.00" fill="#000000">execution_id_</text>
<polygon fill="#ffffff" stroke="transparent" points="546,-910.2663 546,-932.2663 680,-932.2663 680,-910.2663 546,-910.2663"/>
<polygon fill="none" stroke="#000000" points="546,-910.2663 546,-932.2663 680,-932.2663 680,-910.2663 546,-910.2663"/>
<image xlink:href="../../images/foreignKeys.png" width="11px" height="12px" preserveAspectRatio="xMinYMin meet" x="551" y="-927.266"/>
<text text-anchor="start" x="575" y="-917.3663" font-family="Helvetica,sans-Serif" font-size="11.00" fill="#000000">proc_inst_id_</text>
<polygon fill="#ffffff" stroke="transparent" points="546,-888.2663 546,-910.2663 680,-910.2663 680,-888.2663 546,-888.2663"/>
<polygon fill="none" stroke="#000000" points="546,-888.2663 546,-910.2663 680,-910.2663 680,-888.2663 546,-888.2663"/>
<text text-anchor="start" x="575" y="-895.3663" font-family="Helvetica,sans-Serif" font-size="11.00" fill="#000000">task_id_</text>
<polygon fill="#ffffff" stroke="transparent" points="546,-866.2663 546,-888.2663 680,-888.2663 680,-866.2663 546,-866.2663"/>
<polygon fill="none" stroke="#000000" points="546,-866.2663 546,-888.2663 680,-888.2663 680,-866.2663 546,-866.2663"/>
<text text-anchor="start" x="575" y="-873.3663" font-family="Helvetica,sans-Serif" font-size="11.00" fill="#000000">scope_id_</text>
<polygon fill="#ffffff" stroke="transparent" points="546,-844.2663 546,-866.2663 680,-866.2663 680,-844.2663 546,-844.2663"/>
<polygon fill="none" stroke="#000000" points="546,-844.2663 546,-866.2663 680,-866.2663 680,-844.2663 546,-844.2663"/>
<text text-anchor="start" x="575" y="-851.3663" font-family="Helvetica,sans-Serif" font-size="11.00" fill="#000000">sub_scope_id_</text>
<polygon fill="#ffffff" stroke="transparent" points="546,-822.2663 546,-844.2663 680,-844.2663 680,-822.2663 546,-822.2663"/>
<polygon fill="none" stroke="#000000" points="546,-822.2663 546,-844.2663 680,-844.2663 680,-822.2663 546,-822.2663"/>
<text text-anchor="start" x="575" y="-829.3663" font-family="Helvetica,sans-Serif" font-size="11.00" fill="#000000">scope_type_</text>
<polygon fill="#ffffff" stroke="transparent" points="546,-800.2663 546,-822.2663 680,-822.2663 680,-800.2663 546,-800.2663"/>
<polygon fill="none" stroke="#000000" points="546,-800.2663 546,-822.2663 680,-822.2663 680,-800.2663 546,-800.2663"/>
<image xlink:href="../../images/foreignKeys.png" width="11px" height="12px" preserveAspectRatio="xMinYMin meet" x="551" y="-817.266"/>
<text text-anchor="start" x="575" y="-807.3663" font-family="Helvetica,sans-Serif" font-size="11.00" fill="#000000">bytearray_id_</text>
<polygon fill="none" stroke="#000000" points="546,-781.2663 546,-800.2663 680,-800.2663 680,-781.2663 546,-781.2663"/>
<text text-anchor="start" x="549" y="-787.3663" font-family="Helvetica,sans-Serif" font-size="11.00" fill="#000000">...</text>
<polygon fill="#ffffff" stroke="transparent" points="546,-762.2663 546,-781.2663 680,-781.2663 680,-762.2663 546,-762.2663"/>
<polygon fill="none" stroke="#000000" points="546,-762.2663 546,-781.2663 680,-781.2663 680,-762.2663 546,-762.2663"/>
<polygon fill="#ffffff" stroke="transparent" points="547,-763.2663 547,-780.2663 597,-780.2663 597,-763.2663 547,-763.2663"/>
<text text-anchor="start" x="549" y="-768.3663" font-family="Helvetica,sans-Serif" font-size="11.00" fill="#000000">&lt; 3</text>
<polygon fill="#ffffff" stroke="transparent" points="597,-763.2663 597,-780.2663 638,-780.2663 638,-763.2663 597,-763.2663"/>
<text text-anchor="start" x="614.4431" y="-768.3663" font-family="Helvetica,sans-Serif" font-size="11.00" fill="#000000"> &#160;</text>
<polygon fill="#ffffff" stroke="transparent" points="638,-763.2663 638,-780.2663 679,-780.2663 679,-763.2663 638,-763.2663"/>
<text text-anchor="start" x="670.8862" y="-768.3663" font-family="Helvetica,sans-Serif" font-size="11.00" fill="#000000"> &#160;</text>
<polygon fill="#000000" stroke="#000000" points="597,-763.2663 597,-780.2663 597,-780.2663 597,-763.2663 597,-763.2663"/>
<polygon fill="#000000" stroke="#000000" points="638,-763.2663 638,-780.2663 638,-780.2663 638,-763.2663 638,-763.2663"/>
</a>
</g>
</g>
<!-- act_ru_variable&#45;&gt;act_ge_bytearray -->
<g id="edge34" class="edge">
<title>act_ru_variable:w&#45;&gt;act_ge_bytearray:e</title>
<path fill="none" stroke="#000000" d="M531.3883,-812.2277C439.6989,-825.4081 540.988,-971.1503 482,-1065.2663 458.1256,-1103.3583 449.4554,-1130.2663 404.5,-1130.2663"/>
<polygon fill="#000000" stroke="#000000" points="538.0173,-811.7916 546.2364,-814.8586 542.0086,-811.529 546,-811.2663 546,-811.2663 546,-811.2663 542.0086,-811.529 545.7636,-807.6741 538.0173,-811.7916 538.0173,-811.7916"/>
<ellipse fill="none" stroke="#000000" cx="534.8242" cy="-812.0017" rx="3.2" ry="3.2"/>
</g>
<!-- act_ru_variable&#45;&gt;act_ru_execution -->
<g id="edge35" class="edge">
<title>act_ru_variable:w&#45;&gt;act_ru_execution:e</title>
<path fill="none" stroke="#000000" d="M531.6302,-944.7098C509.5187,-949.4543 501.0327,-964.2663 472.5,-964.2663"/>
<polygon fill="#000000" stroke="#000000" points="538.0401,-944.066 546.3598,-946.8483 542.02,-943.6661 546,-943.2663 546,-943.2663 546,-943.2663 542.02,-943.6661 545.6402,-939.6844 538.0401,-944.066 538.0401,-944.066"/>
<ellipse fill="none" stroke="#000000" cx="534.8561" cy="-944.3858" rx="3.2" ry="3.2"/>
</g>
<!-- act_ru_variable&#45;&gt;act_ru_execution -->
<g id="edge36" class="edge">
<title>act_ru_variable:w&#45;&gt;act_ru_execution:e</title>
<path fill="none" stroke="#000000" d="M531.5313,-923.8274C507.9224,-933.0845 504.7285,-964.2663 472.5,-964.2663"/>
<polygon fill="#000000" stroke="#000000" points="538.1225,-922.6608 546.6275,-924.8112 542.0612,-921.9636 546,-921.2663 546,-921.2663 546,-921.2663 542.0612,-921.9636 545.3725,-917.7214 538.1225,-922.6608 538.1225,-922.6608"/>
<ellipse fill="none" stroke="#000000" cx="534.9714" cy="-923.2185" rx="3.2" ry="3.2"/>
</g>
</g>
</svg>
