<?xml version="1.0" encoding="UTF-8" standalone="no"?>
<!DOCTYPE svg PUBLIC "-//W3C//DTD SVG 1.1//EN"
 "http://www.w3.org/Graphics/SVG/1.1/DTD/svg11.dtd">
<!-- Generated by graphviz version 2.40.1 (20161225.0304)
 -->
<!-- Title: twoDegreesRelationshipsDiagram Pages: 1 -->
<svg width="471pt" height="399pt"
 viewBox="0.00 0.00 471.00 398.70" xmlns="http://www.w3.org/2000/svg" xmlns:xlink="http://www.w3.org/1999/xlink">
<g id="graph0" class="graph" transform="scale(1 1) rotate(0) translate(4 394.7)">
<title>twoDegreesRelationshipsDiagram</title>
<polygon fill="#ffffff" stroke="transparent" points="-4,4 -4,-394.7 467,-394.7 467,4 -4,4"/>
<text text-anchor="middle" x="72.4936" y="-7.3" font-family="Helvetica,sans-Serif" font-size="11.00" fill="#000000">Generated by SchemaSpy</text>
<!-- act_app_appdef -->
<g id="node1" class="node">
<title>act_app_appdef</title>
<g id="a_node1"><a xlink:href="../../tables/act_app_appdef.html" xlink:title="act_app_appdef" target="_top">
<polygon fill="#ffffff" stroke="transparent" points="239.5,-120.7 239.5,-386.7 440.5,-386.7 440.5,-120.7 239.5,-120.7"/>
<polygon fill="#f5f5f5" stroke="transparent" points="242,-361.7 242,-384.7 439,-384.7 439,-361.7 242,-361.7"/>
<polygon fill="none" stroke="#000000" points="242,-361.7 242,-384.7 439,-384.7 439,-361.7 242,-361.7"/>
<text text-anchor="start" x="247" y="-370.3" font-family="Helvetica,sans-Serif" font-weight="bold" font-size="11.00" fill="#000000">act_app_appdef</text>
<text text-anchor="start" x="404.0437" y="-369.8" font-family="Helvetica,sans-Serif" font-size="11.00" fill="#000000">[table]</text>
<polygon fill="none" stroke="#000000" points="242,-339.7 242,-361.7 366,-361.7 366,-339.7 242,-339.7"/>
<image xlink:href="../../images/primaryKeys.png" width="11px" height="12px" preserveAspectRatio="xMinYMin meet" x="247" y="-356.7"/>
<text text-anchor="start" x="262" y="-346.8" font-family="Helvetica,sans-Serif" font-size="11.00" fill="#000000">id_</text>
<polygon fill="none" stroke="#000000" points="366,-339.7 366,-361.7 439,-361.7 439,-339.7 366,-339.7"/>
<text text-anchor="start" x="369" y="-347.4" font-family="Helvetica,sans-Serif" font-size="11.00" fill="#000000">varchar[255]</text>
<polygon fill="none" stroke="#000000" points="242,-317.7 242,-339.7 366,-339.7 366,-317.7 242,-317.7"/>
<text text-anchor="start" x="262" y="-324.8" font-family="Helvetica,sans-Serif" font-size="11.00" fill="#000000">rev_</text>
<polygon fill="none" stroke="#000000" points="366,-317.7 366,-339.7 439,-339.7 439,-317.7 366,-317.7"/>
<text text-anchor="start" x="369" y="-325.4" font-family="Helvetica,sans-Serif" font-size="11.00" fill="#000000">int4[10]</text>
<polygon fill="none" stroke="#000000" points="242,-295.7 242,-317.7 366,-317.7 366,-295.7 242,-295.7"/>
<text text-anchor="start" x="262" y="-302.8" font-family="Helvetica,sans-Serif" font-size="11.00" fill="#000000">name_</text>
<polygon fill="none" stroke="#000000" points="366,-295.7 366,-317.7 439,-317.7 439,-295.7 366,-295.7"/>
<text text-anchor="start" x="369" y="-303.4" font-family="Helvetica,sans-Serif" font-size="11.00" fill="#000000">varchar[255]</text>
<polygon fill="#ffffff" stroke="transparent" points="242,-273.7 242,-295.7 366,-295.7 366,-273.7 242,-273.7"/>
<polygon fill="none" stroke="#000000" points="242,-273.7 242,-295.7 366,-295.7 366,-273.7 242,-273.7"/>
<text text-anchor="start" x="262" y="-280.8" font-family="Helvetica,sans-Serif" font-size="11.00" fill="#000000">key_</text>
<polygon fill="none" stroke="#000000" points="366,-273.7 366,-295.7 439,-295.7 439,-273.7 366,-273.7"/>
<text text-anchor="start" x="369" y="-281.4" font-family="Helvetica,sans-Serif" font-size="11.00" fill="#000000">varchar[255]</text>
<polygon fill="#ffffff" stroke="transparent" points="242,-251.7 242,-273.7 366,-273.7 366,-251.7 242,-251.7"/>
<polygon fill="none" stroke="#000000" points="242,-251.7 242,-273.7 366,-273.7 366,-251.7 242,-251.7"/>
<text text-anchor="start" x="262" y="-258.8" font-family="Helvetica,sans-Serif" font-size="11.00" fill="#000000">version_</text>
<polygon fill="none" stroke="#000000" points="366,-251.7 366,-273.7 439,-273.7 439,-251.7 366,-251.7"/>
<text text-anchor="start" x="369" y="-259.4" font-family="Helvetica,sans-Serif" font-size="11.00" fill="#000000">int4[10]</text>
<polygon fill="none" stroke="#000000" points="242,-229.7 242,-251.7 366,-251.7 366,-229.7 242,-229.7"/>
<text text-anchor="start" x="262" y="-236.8" font-family="Helvetica,sans-Serif" font-size="11.00" fill="#000000">category_</text>
<polygon fill="none" stroke="#000000" points="366,-229.7 366,-251.7 439,-251.7 439,-229.7 366,-229.7"/>
<text text-anchor="start" x="369" y="-237.4" font-family="Helvetica,sans-Serif" font-size="11.00" fill="#000000">varchar[255]</text>
<polygon fill="#ffffff" stroke="transparent" points="242,-207.7 242,-229.7 366,-229.7 366,-207.7 242,-207.7"/>
<polygon fill="none" stroke="#000000" points="242,-207.7 242,-229.7 366,-229.7 366,-207.7 242,-207.7"/>
<image xlink:href="../../images/foreignKeys.png" width="11px" height="12px" preserveAspectRatio="xMinYMin meet" x="247" y="-224.7"/>
<text text-anchor="start" x="262" y="-214.8" font-family="Helvetica,sans-Serif" font-size="11.00" fill="#000000">deployment_id_</text>
<polygon fill="none" stroke="#000000" points="366,-207.7 366,-229.7 439,-229.7 439,-207.7 366,-207.7"/>
<text text-anchor="start" x="369" y="-215.4" font-family="Helvetica,sans-Serif" font-size="11.00" fill="#000000">varchar[255]</text>
<polygon fill="none" stroke="#000000" points="242,-185.7 242,-207.7 366,-207.7 366,-185.7 242,-185.7"/>
<text text-anchor="start" x="262" y="-192.8" font-family="Helvetica,sans-Serif" font-size="11.00" fill="#000000">resource_name_</text>
<polygon fill="none" stroke="#000000" points="366,-185.7 366,-207.7 439,-207.7 439,-185.7 366,-185.7"/>
<text text-anchor="start" x="368.8791" y="-193.4" font-family="Helvetica,sans-Serif" font-size="11.00" fill="#000000">varchar[4000]</text>
<polygon fill="none" stroke="#000000" points="242,-163.7 242,-185.7 366,-185.7 366,-163.7 242,-163.7"/>
<text text-anchor="start" x="262" y="-170.8" font-family="Helvetica,sans-Serif" font-size="11.00" fill="#000000">description_</text>
<polygon fill="none" stroke="#000000" points="366,-163.7 366,-185.7 439,-185.7 439,-163.7 366,-163.7"/>
<text text-anchor="start" x="368.8791" y="-171.4" font-family="Helvetica,sans-Serif" font-size="11.00" fill="#000000">varchar[4000]</text>
<polygon fill="#ffffff" stroke="transparent" points="242,-141.7 242,-163.7 366,-163.7 366,-141.7 242,-141.7"/>
<polygon fill="none" stroke="#000000" points="242,-141.7 242,-163.7 366,-163.7 366,-141.7 242,-141.7"/>
<text text-anchor="start" x="262" y="-148.8" font-family="Helvetica,sans-Serif" font-size="11.00" fill="#000000">tenant_id_</text>
<polygon fill="none" stroke="#000000" points="366,-141.7 366,-163.7 439,-163.7 439,-141.7 366,-141.7"/>
<text text-anchor="start" x="369" y="-149.4" font-family="Helvetica,sans-Serif" font-size="11.00" fill="#000000">varchar[255]</text>
<polygon fill="#ffffff" stroke="transparent" points="242,-122.7 242,-141.7 439,-141.7 439,-122.7 242,-122.7"/>
<polygon fill="none" stroke="#000000" points="242,-122.7 242,-141.7 439,-141.7 439,-122.7 242,-122.7"/>
<polygon fill="#ffffff" stroke="transparent" points="243,-123.7 243,-140.7 311,-140.7 311,-123.7 243,-123.7"/>
<text text-anchor="start" x="245" y="-128.8" font-family="Helvetica,sans-Serif" font-size="11.00" fill="#000000">&lt; 1</text>
<polygon fill="#ffffff" stroke="transparent" points="311,-123.7 311,-140.7 370,-140.7 370,-123.7 311,-123.7"/>
<text text-anchor="start" x="337.4431" y="-128.8" font-family="Helvetica,sans-Serif" font-size="11.00" fill="#000000"> &#160;</text>
<polygon fill="#ffffff" stroke="transparent" points="370,-123.7 370,-140.7 438,-140.7 438,-123.7 370,-123.7"/>
<text text-anchor="start" x="420.4053" y="-128.8" font-family="Helvetica,sans-Serif" font-size="11.00" fill="#000000">0 &gt;</text>
<polygon fill="#000000" stroke="#000000" points="311,-123.7 311,-140.7 311,-140.7 311,-123.7 311,-123.7"/>
<polygon fill="#000000" stroke="#000000" points="370,-123.7 370,-140.7 370,-140.7 370,-123.7 370,-123.7"/>
<polygon fill="none" stroke="#000000" stroke-width="2" points="240.5,-121.7 240.5,-385.7 439.5,-385.7 439.5,-121.7 240.5,-121.7"/>
</a>
</g>
</g>
<!-- act_app_deployment -->
<g id="node2" class="node">
<title>act_app_deployment</title>
<g id="a_node2"><a xlink:href="../../tables/act_app_deployment.html" xlink:title="act_app_deployment" target="_top">
<polygon fill="#ffffff" stroke="transparent" points="8,-93.2 8,-176.2 176,-176.2 176,-93.2 8,-93.2"/>
<polygon fill="#f5f5f5" stroke="transparent" points="8,-152.7 8,-175.7 176,-175.7 176,-152.7 8,-152.7"/>
<polygon fill="none" stroke="#000000" points="8,-152.7 8,-175.7 176,-175.7 176,-152.7 8,-152.7"/>
<text text-anchor="start" x="13" y="-161.3" font-family="Helvetica,sans-Serif" font-weight="bold" font-size="11.00" fill="#000000">act_app_deployment</text>
<text text-anchor="start" x="141.5219" y="-160.8" font-family="Helvetica,sans-Serif" font-size="11.00" fill="#000000">[table]</text>
<polygon fill="none" stroke="#000000" points="8,-130.7 8,-152.7 176,-152.7 176,-130.7 8,-130.7"/>
<image xlink:href="../../images/primaryKeys.png" width="11px" height="12px" preserveAspectRatio="xMinYMin meet" x="13" y="-147.7"/>
<text text-anchor="start" x="37" y="-137.8" font-family="Helvetica,sans-Serif" font-size="11.00" fill="#000000">id_</text>
<polygon fill="none" stroke="#000000" points="8,-111.7 8,-130.7 176,-130.7 176,-111.7 8,-111.7"/>
<text text-anchor="start" x="11" y="-117.8" font-family="Helvetica,sans-Serif" font-size="11.00" fill="#000000">...</text>
<polygon fill="#ffffff" stroke="transparent" points="8,-92.7 8,-111.7 176,-111.7 176,-92.7 8,-92.7"/>
<polygon fill="none" stroke="#000000" points="8,-92.7 8,-111.7 176,-111.7 176,-92.7 8,-92.7"/>
<polygon fill="#ffffff" stroke="transparent" points="9,-93.7 9,-110.7 62,-110.7 62,-93.7 9,-93.7"/>
<text text-anchor="start" x="11" y="-98.8" font-family="Helvetica,sans-Serif" font-size="11.00" fill="#000000"> &#160;</text>
<polygon fill="#ffffff" stroke="transparent" points="62,-93.7 62,-110.7 114,-110.7 114,-93.7 62,-93.7"/>
<text text-anchor="start" x="84.9431" y="-98.8" font-family="Helvetica,sans-Serif" font-size="11.00" fill="#000000"> &#160;</text>
<polygon fill="#ffffff" stroke="transparent" points="114,-93.7 114,-110.7 175,-110.7 175,-93.7 114,-93.7"/>
<text text-anchor="start" x="157.4053" y="-98.8" font-family="Helvetica,sans-Serif" font-size="11.00" fill="#000000">2 &gt;</text>
<polygon fill="#000000" stroke="#000000" points="62,-93.7 62,-110.7 62,-110.7 62,-93.7 62,-93.7"/>
<polygon fill="#000000" stroke="#000000" points="114,-93.7 114,-110.7 114,-110.7 114,-93.7 114,-93.7"/>
</a>
</g>
</g>
<!-- act_app_appdef&#45;&gt;act_app_deployment -->
<g id="edge1" class="edge">
<title>act_app_appdef:w&#45;&gt;act_app_deployment:e</title>
<path fill="none" stroke="#000000" d="M227.7234,-215.1914C202.0018,-200.1279 215.2631,-141.7 176,-141.7"/>
<polygon fill="#000000" stroke="#000000" points="234.2312,-216.7907 241.1408,-222.196 238.1156,-217.7453 242,-218.7 242,-218.7 242,-218.7 238.1156,-217.7453 242.8592,-215.204 234.2312,-216.7907 234.2312,-216.7907"/>
<ellipse fill="none" stroke="#000000" cx="231.1236" cy="-216.027" rx="3.2" ry="3.2"/>
</g>
<!-- act_app_deployment_resource -->
<g id="node3" class="node">
<title>act_app_deployment_resource</title>
<g id="a_node3"><a xlink:href="../../tables/act_app_deployment_resource.html" xlink:title="act_app_deployment_resource" target="_top">
<polygon fill="#ffffff" stroke="transparent" points="225,-38.2 225,-99.2 455,-99.2 455,-38.2 225,-38.2"/>
<polygon fill="#f5f5f5" stroke="transparent" points="225,-75.7 225,-98.7 455,-98.7 455,-75.7 225,-75.7"/>
<polygon fill="none" stroke="#000000" points="225,-75.7 225,-98.7 455,-98.7 455,-75.7 225,-75.7"/>
<text text-anchor="start" x="230" y="-84.3" font-family="Helvetica,sans-Serif" font-weight="bold" font-size="11.00" fill="#000000">act_app_deployment_resource</text>
<text text-anchor="start" x="420.5219" y="-83.8" font-family="Helvetica,sans-Serif" font-size="11.00" fill="#000000">[table]</text>
<polygon fill="none" stroke="#000000" points="225,-56.7 225,-75.7 455,-75.7 455,-56.7 225,-56.7"/>
<text text-anchor="start" x="228" y="-62.8" font-family="Helvetica,sans-Serif" font-size="11.00" fill="#000000">...</text>
<polygon fill="#ffffff" stroke="transparent" points="225,-37.7 225,-56.7 455,-56.7 455,-37.7 225,-37.7"/>
<polygon fill="none" stroke="#000000" points="225,-37.7 225,-56.7 455,-56.7 455,-37.7 225,-37.7"/>
<polygon fill="#ffffff" stroke="transparent" points="226,-38.7 226,-55.7 308,-55.7 308,-38.7 226,-38.7"/>
<text text-anchor="start" x="228" y="-43.8" font-family="Helvetica,sans-Serif" font-size="11.00" fill="#000000">&lt; 1</text>
<polygon fill="#ffffff" stroke="transparent" points="308,-38.7 308,-55.7 381,-55.7 381,-38.7 308,-38.7"/>
<text text-anchor="start" x="341.4431" y="-43.8" font-family="Helvetica,sans-Serif" font-size="11.00" fill="#000000"> &#160;</text>
<polygon fill="#ffffff" stroke="transparent" points="381,-38.7 381,-55.7 454,-55.7 454,-38.7 381,-38.7"/>
<text text-anchor="start" x="445.8862" y="-43.8" font-family="Helvetica,sans-Serif" font-size="11.00" fill="#000000"> &#160;</text>
<polygon fill="#000000" stroke="#000000" points="308,-38.7 308,-55.7 308,-55.7 308,-38.7 308,-38.7"/>
<polygon fill="#000000" stroke="#000000" points="381,-38.7 381,-55.7 381,-55.7 381,-38.7 381,-38.7"/>
</a>
</g>
</g>
<!-- act_app_deployment_resource&#45;&gt;act_app_deployment -->
<g id="edge2" class="edge">
<title>act_app_deployment_resource:w&#45;&gt;act_app_deployment:e</title>
<path fill="none" stroke="#000000" d="M211.109,-70.4541C192.7102,-87.0924 210.067,-141.7 176,-141.7"/>
<polygon fill="#000000" stroke="#000000" points="217.431,-68.2905 226.1657,-69.106 221.2155,-66.9952 225,-65.7 225,-65.7 225,-65.7 221.2155,-66.9952 223.8343,-62.294 217.431,-68.2905 217.431,-68.2905"/>
<ellipse fill="none" stroke="#000000" cx="214.4034" cy="-69.3267" rx="3.2" ry="3.2"/>
</g>
</g>
</svg>
