<?xml version="1.0" encoding="UTF-8" standalone="no"?>
<!DOCTYPE svg PUBLIC "-//W3C//DTD SVG 1.1//EN"
 "http://www.w3.org/Graphics/SVG/1.1/DTD/svg11.dtd">
<!-- Generated by graphviz version 2.40.1 (20161225.0304)
 -->
<!-- Title: twoDegreesRelationshipsDiagram Pages: 1 -->
<svg width="1231pt" height="422pt"
 viewBox="0.00 0.00 1231.00 422.21" xmlns="http://www.w3.org/2000/svg" xmlns:xlink="http://www.w3.org/1999/xlink">
<g id="graph0" class="graph" transform="scale(1 1) rotate(0) translate(4 418.2076)">
<title>twoDegreesRelationshipsDiagram</title>
<polygon fill="#ffffff" stroke="transparent" points="-4,4 -4,-418.2076 1227,-418.2076 1227,4 -4,4"/>
<text text-anchor="middle" x="72.4936" y="-7.3" font-family="Helvetica,sans-Serif" font-size="11.00" fill="#000000">Generated by SchemaSpy</text>
<!-- act_cmmn_casedef -->
<g id="node1" class="node">
<title>act_cmmn_casedef</title>
<g id="a_node1"><a xlink:href="../../tables/act_cmmn_casedef.html" xlink:title="act_cmmn_casedef" target="_top">
<polygon fill="#ffffff" stroke="transparent" points="240,-207.2076 240,-268.2076 398,-268.2076 398,-207.2076 240,-207.2076"/>
<polygon fill="#f5f5f5" stroke="transparent" points="240,-244.7076 240,-267.7076 398,-267.7076 398,-244.7076 240,-244.7076"/>
<polygon fill="none" stroke="#000000" points="240,-244.7076 240,-267.7076 398,-267.7076 398,-244.7076 240,-244.7076"/>
<text text-anchor="start" x="245" y="-253.3076" font-family="Helvetica,sans-Serif" font-weight="bold" font-size="11.00" fill="#000000">act_cmmn_casedef</text>
<text text-anchor="start" x="363.5219" y="-252.8076" font-family="Helvetica,sans-Serif" font-size="11.00" fill="#000000">[table]</text>
<polygon fill="none" stroke="#000000" points="240,-225.7076 240,-244.7076 398,-244.7076 398,-225.7076 240,-225.7076"/>
<text text-anchor="start" x="243" y="-231.8076" font-family="Helvetica,sans-Serif" font-size="11.00" fill="#000000">...</text>
<polygon fill="#ffffff" stroke="transparent" points="240,-206.7076 240,-225.7076 398,-225.7076 398,-206.7076 240,-206.7076"/>
<polygon fill="none" stroke="#000000" points="240,-206.7076 240,-225.7076 398,-225.7076 398,-206.7076 240,-206.7076"/>
<polygon fill="#ffffff" stroke="transparent" points="241,-207.7076 241,-224.7076 296,-224.7076 296,-207.7076 241,-207.7076"/>
<text text-anchor="start" x="243" y="-212.8076" font-family="Helvetica,sans-Serif" font-size="11.00" fill="#000000">&lt; 1</text>
<polygon fill="#ffffff" stroke="transparent" points="296,-207.7076 296,-224.7076 342,-224.7076 342,-207.7076 296,-207.7076"/>
<text text-anchor="start" x="315.9431" y="-212.8076" font-family="Helvetica,sans-Serif" font-size="11.00" fill="#000000"> &#160;</text>
<polygon fill="#ffffff" stroke="transparent" points="342,-207.7076 342,-224.7076 397,-224.7076 397,-207.7076 342,-207.7076"/>
<text text-anchor="start" x="379.4053" y="-212.8076" font-family="Helvetica,sans-Serif" font-size="11.00" fill="#000000">4 &gt;</text>
<polygon fill="#000000" stroke="#000000" points="296,-207.7076 296,-224.7076 296,-224.7076 296,-207.7076 296,-207.7076"/>
<polygon fill="#000000" stroke="#000000" points="342,-207.7076 342,-224.7076 342,-224.7076 342,-207.7076 342,-207.7076"/>
</a>
</g>
</g>
<!-- act_cmmn_deployment -->
<g id="node2" class="node">
<title>act_cmmn_deployment</title>
<g id="a_node2"><a xlink:href="../../tables/act_cmmn_deployment.html" xlink:title="act_cmmn_deployment" target="_top">
<polygon fill="#ffffff" stroke="transparent" points="8,-210.2076 8,-271.2076 191,-271.2076 191,-210.2076 8,-210.2076"/>
<polygon fill="#f5f5f5" stroke="transparent" points="8.5,-247.7076 8.5,-270.7076 191.5,-270.7076 191.5,-247.7076 8.5,-247.7076"/>
<polygon fill="none" stroke="#000000" points="8.5,-247.7076 8.5,-270.7076 191.5,-270.7076 191.5,-247.7076 8.5,-247.7076"/>
<text text-anchor="start" x="13.5" y="-256.3076" font-family="Helvetica,sans-Serif" font-weight="bold" font-size="11.00" fill="#000000">act_cmmn_deployment</text>
<text text-anchor="start" x="157.0219" y="-255.8076" font-family="Helvetica,sans-Serif" font-size="11.00" fill="#000000">[table]</text>
<polygon fill="none" stroke="#000000" points="8.5,-228.7076 8.5,-247.7076 191.5,-247.7076 191.5,-228.7076 8.5,-228.7076"/>
<text text-anchor="start" x="11.5" y="-234.8076" font-family="Helvetica,sans-Serif" font-size="11.00" fill="#000000">...</text>
<polygon fill="#ffffff" stroke="transparent" points="8.5,-209.7076 8.5,-228.7076 191.5,-228.7076 191.5,-209.7076 8.5,-209.7076"/>
<polygon fill="none" stroke="#000000" points="8.5,-209.7076 8.5,-228.7076 191.5,-228.7076 191.5,-209.7076 8.5,-209.7076"/>
<polygon fill="#ffffff" stroke="transparent" points="9.5,-210.7076 9.5,-227.7076 67.5,-227.7076 67.5,-210.7076 9.5,-210.7076"/>
<text text-anchor="start" x="11.5" y="-215.8076" font-family="Helvetica,sans-Serif" font-size="11.00" fill="#000000"> &#160;</text>
<polygon fill="#ffffff" stroke="transparent" points="67.5,-210.7076 67.5,-227.7076 124.5,-227.7076 124.5,-210.7076 67.5,-210.7076"/>
<text text-anchor="start" x="92.9431" y="-215.8076" font-family="Helvetica,sans-Serif" font-size="11.00" fill="#000000"> &#160;</text>
<polygon fill="#ffffff" stroke="transparent" points="124.5,-210.7076 124.5,-227.7076 190.5,-227.7076 190.5,-210.7076 124.5,-210.7076"/>
<text text-anchor="start" x="172.9053" y="-215.8076" font-family="Helvetica,sans-Serif" font-size="11.00" fill="#000000">2 &gt;</text>
<polygon fill="#000000" stroke="#000000" points="67.5,-210.7076 67.5,-227.7076 67.5,-227.7076 67.5,-210.7076 67.5,-210.7076"/>
<polygon fill="#000000" stroke="#000000" points="124.5,-210.7076 124.5,-227.7076 124.5,-227.7076 124.5,-210.7076 124.5,-210.7076"/>
</a>
</g>
</g>
<!-- act_cmmn_casedef&#45;&gt;act_cmmn_deployment -->
<g id="edge1" class="edge">
<title>act_cmmn_casedef:w&#45;&gt;act_cmmn_deployment:e</title>
<path fill="none" stroke="#000000" d="M217.2524,-237.7076C208.5418,-237.7076 199.8665,-237.7076 191.5,-237.7076"/>
<polygon fill="#000000" stroke="#000000" points="223.8966,-237.7076 231.8966,-241.3076 227.8966,-237.7076 231.8966,-237.7076 231.8966,-237.7076 231.8966,-237.7076 227.8966,-237.7076 231.8966,-234.1076 223.8966,-237.7076 223.8966,-237.7076"/>
<ellipse fill="none" stroke="#000000" cx="220.6966" cy="-237.7077" rx="3.2" ry="3.2"/>
</g>
<!-- act_cmmn_ru_case_inst -->
<g id="node3" class="node">
<title>act_cmmn_ru_case_inst</title>
<g id="a_node3"><a xlink:href="../../tables/act_cmmn_ru_case_inst.html" xlink:title="act_cmmn_ru_case_inst" target="_top">
<polygon fill="#ffffff" stroke="transparent" points="447,-257.2076 447,-318.2076 637,-318.2076 637,-257.2076 447,-257.2076"/>
<polygon fill="#f5f5f5" stroke="transparent" points="447,-294.7076 447,-317.7076 637,-317.7076 637,-294.7076 447,-294.7076"/>
<polygon fill="none" stroke="#000000" points="447,-294.7076 447,-317.7076 637,-317.7076 637,-294.7076 447,-294.7076"/>
<text text-anchor="start" x="452" y="-303.3076" font-family="Helvetica,sans-Serif" font-weight="bold" font-size="11.00" fill="#000000">act_cmmn_ru_case_inst</text>
<text text-anchor="start" x="602.5219" y="-302.8076" font-family="Helvetica,sans-Serif" font-size="11.00" fill="#000000">[table]</text>
<polygon fill="none" stroke="#000000" points="447,-275.7076 447,-294.7076 637,-294.7076 637,-275.7076 447,-275.7076"/>
<text text-anchor="start" x="450" y="-281.8076" font-family="Helvetica,sans-Serif" font-size="11.00" fill="#000000">...</text>
<polygon fill="#ffffff" stroke="transparent" points="447,-256.7076 447,-275.7076 637,-275.7076 637,-256.7076 447,-256.7076"/>
<polygon fill="none" stroke="#000000" points="447,-256.7076 447,-275.7076 637,-275.7076 637,-256.7076 447,-256.7076"/>
<polygon fill="#ffffff" stroke="transparent" points="448,-257.7076 448,-274.7076 514,-274.7076 514,-257.7076 448,-257.7076"/>
<text text-anchor="start" x="450" y="-262.8076" font-family="Helvetica,sans-Serif" font-size="11.00" fill="#000000">&lt; 1</text>
<polygon fill="#ffffff" stroke="transparent" points="514,-257.7076 514,-274.7076 571,-274.7076 571,-257.7076 514,-257.7076"/>
<text text-anchor="start" x="539.4431" y="-262.8076" font-family="Helvetica,sans-Serif" font-size="11.00" fill="#000000"> &#160;</text>
<polygon fill="#ffffff" stroke="transparent" points="571,-257.7076 571,-274.7076 636,-274.7076 636,-257.7076 571,-257.7076"/>
<text text-anchor="start" x="618.4053" y="-262.8076" font-family="Helvetica,sans-Serif" font-size="11.00" fill="#000000">3 &gt;</text>
<polygon fill="#000000" stroke="#000000" points="514,-257.7076 514,-274.7076 514,-274.7076 514,-257.7076 514,-257.7076"/>
<polygon fill="#000000" stroke="#000000" points="571,-257.7076 571,-274.7076 571,-274.7076 571,-257.7076 571,-257.7076"/>
</a>
</g>
</g>
<!-- act_cmmn_ru_case_inst&#45;&gt;act_cmmn_casedef -->
<g id="edge2" class="edge">
<title>act_cmmn_ru_case_inst:w&#45;&gt;act_cmmn_casedef:e</title>
<path fill="none" stroke="#000000" d="M424.8363,-261.4377C418.5792,-260.0348 412.346,-258.6372 406.2157,-257.2627"/>
<polygon fill="#000000" stroke="#000000" points="431.1797,-262.8599 438.1982,-268.123 435.0828,-263.7351 438.9859,-264.6103 438.9859,-264.6103 438.9859,-264.6103 435.0828,-263.7351 439.7735,-261.0975 431.1797,-262.8599 431.1797,-262.8599"/>
<ellipse fill="none" stroke="#000000" cx="428.0572" cy="-262.1598" rx="3.2" ry="3.2"/>
</g>
<!-- act_cmmn_ru_mil_inst -->
<g id="node4" class="node">
<title>act_cmmn_ru_mil_inst</title>
<g id="a_node4"><a xlink:href="../../tables/act_cmmn_ru_mil_inst.html" xlink:title="act_cmmn_ru_mil_inst" target="_top">
<polygon fill="#ffffff" stroke="transparent" points="686,-100.7076 686,-300.7076 935,-300.7076 935,-100.7076 686,-100.7076"/>
<polygon fill="#f5f5f5" stroke="transparent" points="688.5,-275.7076 688.5,-298.7076 933.5,-298.7076 933.5,-275.7076 688.5,-275.7076"/>
<polygon fill="none" stroke="#000000" points="688.5,-275.7076 688.5,-298.7076 933.5,-298.7076 933.5,-275.7076 688.5,-275.7076"/>
<text text-anchor="start" x="693.5" y="-284.3076" font-family="Helvetica,sans-Serif" font-weight="bold" font-size="11.00" fill="#000000">act_cmmn_ru_mil_inst</text>
<text text-anchor="start" x="898.5437" y="-283.8076" font-family="Helvetica,sans-Serif" font-size="11.00" fill="#000000">[table]</text>
<polygon fill="none" stroke="#000000" points="688.5,-253.7076 688.5,-275.7076 849.5,-275.7076 849.5,-253.7076 688.5,-253.7076"/>
<image xlink:href="../../images/primaryKeys.png" width="11px" height="12px" preserveAspectRatio="xMinYMin meet" x="693.5" y="-270.708"/>
<text text-anchor="start" x="708.5" y="-260.8076" font-family="Helvetica,sans-Serif" font-size="11.00" fill="#000000">id_</text>
<polygon fill="none" stroke="#000000" points="849.5,-253.7076 849.5,-275.7076 933.5,-275.7076 933.5,-253.7076 849.5,-253.7076"/>
<text text-anchor="start" x="852.5" y="-261.4076" font-family="Helvetica,sans-Serif" font-size="11.00" fill="#000000">varchar[255]</text>
<polygon fill="none" stroke="#000000" points="688.5,-231.7076 688.5,-253.7076 849.5,-253.7076 849.5,-231.7076 688.5,-231.7076"/>
<text text-anchor="start" x="708.5" y="-238.8076" font-family="Helvetica,sans-Serif" font-size="11.00" fill="#000000">name_</text>
<polygon fill="none" stroke="#000000" points="849.5,-231.7076 849.5,-253.7076 933.5,-253.7076 933.5,-231.7076 849.5,-231.7076"/>
<text text-anchor="start" x="852.5" y="-239.4076" font-family="Helvetica,sans-Serif" font-size="11.00" fill="#000000">varchar[255]</text>
<polygon fill="none" stroke="#000000" points="688.5,-209.7076 688.5,-231.7076 849.5,-231.7076 849.5,-209.7076 688.5,-209.7076"/>
<text text-anchor="start" x="708.5" y="-216.8076" font-family="Helvetica,sans-Serif" font-size="11.00" fill="#000000">time_stamp_</text>
<polygon fill="none" stroke="#000000" points="849.5,-209.7076 849.5,-231.7076 933.5,-231.7076 933.5,-209.7076 849.5,-209.7076"/>
<text text-anchor="start" x="852.3807" y="-217.4076" font-family="Helvetica,sans-Serif" font-size="11.00" fill="#000000">timestamp[29,6]</text>
<polygon fill="#ffffff" stroke="transparent" points="688.5,-187.7076 688.5,-209.7076 849.5,-209.7076 849.5,-187.7076 688.5,-187.7076"/>
<polygon fill="none" stroke="#000000" points="688.5,-187.7076 688.5,-209.7076 849.5,-209.7076 849.5,-187.7076 688.5,-187.7076"/>
<image xlink:href="../../images/foreignKeys.png" width="11px" height="12px" preserveAspectRatio="xMinYMin meet" x="693.5" y="-204.708"/>
<text text-anchor="start" x="708.5" y="-194.8076" font-family="Helvetica,sans-Serif" font-size="11.00" fill="#000000">case_inst_id_</text>
<polygon fill="none" stroke="#000000" points="849.5,-187.7076 849.5,-209.7076 933.5,-209.7076 933.5,-187.7076 849.5,-187.7076"/>
<text text-anchor="start" x="852.5" y="-195.4076" font-family="Helvetica,sans-Serif" font-size="11.00" fill="#000000">varchar[255]</text>
<polygon fill="#ffffff" stroke="transparent" points="688.5,-165.7076 688.5,-187.7076 849.5,-187.7076 849.5,-165.7076 688.5,-165.7076"/>
<polygon fill="none" stroke="#000000" points="688.5,-165.7076 688.5,-187.7076 849.5,-187.7076 849.5,-165.7076 688.5,-165.7076"/>
<image xlink:href="../../images/foreignKeys.png" width="11px" height="12px" preserveAspectRatio="xMinYMin meet" x="693.5" y="-182.708"/>
<text text-anchor="start" x="708.5" y="-172.8076" font-family="Helvetica,sans-Serif" font-size="11.00" fill="#000000">case_def_id_</text>
<polygon fill="none" stroke="#000000" points="849.5,-165.7076 849.5,-187.7076 933.5,-187.7076 933.5,-165.7076 849.5,-165.7076"/>
<text text-anchor="start" x="852.5" y="-173.4076" font-family="Helvetica,sans-Serif" font-size="11.00" fill="#000000">varchar[255]</text>
<polygon fill="none" stroke="#000000" points="688.5,-143.7076 688.5,-165.7076 849.5,-165.7076 849.5,-143.7076 688.5,-143.7076"/>
<text text-anchor="start" x="708.5" y="-150.8076" font-family="Helvetica,sans-Serif" font-size="11.00" fill="#000000">element_id_</text>
<polygon fill="none" stroke="#000000" points="849.5,-143.7076 849.5,-165.7076 933.5,-165.7076 933.5,-143.7076 849.5,-143.7076"/>
<text text-anchor="start" x="852.5" y="-151.4076" font-family="Helvetica,sans-Serif" font-size="11.00" fill="#000000">varchar[255]</text>
<polygon fill="none" stroke="#000000" points="688.5,-121.7076 688.5,-143.7076 849.5,-143.7076 849.5,-121.7076 688.5,-121.7076"/>
<text text-anchor="start" x="708.5" y="-128.8076" font-family="Helvetica,sans-Serif" font-size="11.00" fill="#000000">tenant_id_</text>
<polygon fill="none" stroke="#000000" points="849.5,-121.7076 849.5,-143.7076 933.5,-143.7076 933.5,-121.7076 849.5,-121.7076"/>
<text text-anchor="start" x="852.5" y="-129.4076" font-family="Helvetica,sans-Serif" font-size="11.00" fill="#000000">varchar[255]</text>
<polygon fill="#ffffff" stroke="transparent" points="688.5,-102.7076 688.5,-121.7076 933.5,-121.7076 933.5,-102.7076 688.5,-102.7076"/>
<polygon fill="none" stroke="#000000" points="688.5,-102.7076 688.5,-121.7076 933.5,-121.7076 933.5,-102.7076 688.5,-102.7076"/>
<polygon fill="#ffffff" stroke="transparent" points="689.5,-103.7076 689.5,-120.7076 773.5,-120.7076 773.5,-103.7076 689.5,-103.7076"/>
<text text-anchor="start" x="691.5" y="-108.8076" font-family="Helvetica,sans-Serif" font-size="11.00" fill="#000000">&lt; 2</text>
<polygon fill="#ffffff" stroke="transparent" points="773.5,-103.7076 773.5,-120.7076 848.5,-120.7076 848.5,-103.7076 773.5,-103.7076"/>
<text text-anchor="start" x="807.9431" y="-108.8076" font-family="Helvetica,sans-Serif" font-size="11.00" fill="#000000"> &#160;</text>
<polygon fill="#ffffff" stroke="transparent" points="848.5,-103.7076 848.5,-120.7076 932.5,-120.7076 932.5,-103.7076 848.5,-103.7076"/>
<text text-anchor="start" x="914.9053" y="-108.8076" font-family="Helvetica,sans-Serif" font-size="11.00" fill="#000000">0 &gt;</text>
<polygon fill="#000000" stroke="#000000" points="773.5,-103.7076 773.5,-120.7076 773.5,-120.7076 773.5,-103.7076 773.5,-103.7076"/>
<polygon fill="#000000" stroke="#000000" points="848.5,-103.7076 848.5,-120.7076 848.5,-120.7076 848.5,-103.7076 848.5,-103.7076"/>
<polygon fill="none" stroke="#000000" stroke-width="2" points="687,-101.7076 687,-299.7076 934,-299.7076 934,-101.7076 687,-101.7076"/>
</a>
</g>
</g>
<!-- act_cmmn_ru_mil_inst&#45;&gt;act_cmmn_casedef -->
<g id="edge3" class="edge">
<title>act_cmmn_ru_mil_inst:w&#45;&gt;act_cmmn_casedef:e</title>
<path fill="none" stroke="#000000" d="M673.816,-176.8609C579.9131,-178.7916 476.8029,-198.5848 406.0542,-215.0801"/>
<polygon fill="#000000" stroke="#000000" points="680.5004,-176.7912 688.5376,-180.3074 684.5002,-176.7494 688.5,-176.7076 688.5,-176.7076 688.5,-176.7076 684.5002,-176.7494 688.4624,-173.1078 680.5004,-176.7912 680.5004,-176.7912"/>
<ellipse fill="none" stroke="#000000" cx="677.3006" cy="-176.8246" rx="3.2" ry="3.2"/>
</g>
<!-- act_cmmn_ru_mil_inst&#45;&gt;act_cmmn_ru_case_inst -->
<g id="edge4" class="edge">
<title>act_cmmn_ru_mil_inst:w&#45;&gt;act_cmmn_ru_case_inst:e</title>
<path fill="none" stroke="#000000" d="M673.9781,-199.7522C635.619,-205.1876 599.861,-230.8354 575.2678,-253.043"/>
<polygon fill="#000000" stroke="#000000" points="680.5206,-199.2816 688.7583,-202.2983 684.5103,-198.9946 688.5,-198.7076 688.5,-198.7076 688.5,-198.7076 684.5103,-198.9946 688.2417,-195.1169 680.5206,-199.2816 680.5206,-199.2816"/>
<ellipse fill="none" stroke="#000000" cx="677.3289" cy="-199.5113" rx="3.2" ry="3.2"/>
</g>
<!-- act_cmmn_ru_plan_item_inst -->
<g id="node5" class="node">
<title>act_cmmn_ru_plan_item_inst</title>
<g id="a_node5"><a xlink:href="../../tables/act_cmmn_ru_plan_item_inst.html" xlink:title="act_cmmn_ru_plan_item_inst" target="_top">
<polygon fill="#ffffff" stroke="transparent" points="700,-349.2076 700,-410.2076 921,-410.2076 921,-349.2076 700,-349.2076"/>
<polygon fill="#f5f5f5" stroke="transparent" points="700.5,-386.7076 700.5,-409.7076 921.5,-409.7076 921.5,-386.7076 700.5,-386.7076"/>
<polygon fill="none" stroke="#000000" points="700.5,-386.7076 700.5,-409.7076 921.5,-409.7076 921.5,-386.7076 700.5,-386.7076"/>
<text text-anchor="start" x="705.5" y="-395.3076" font-family="Helvetica,sans-Serif" font-weight="bold" font-size="11.00" fill="#000000">act_cmmn_ru_plan_item_inst</text>
<text text-anchor="start" x="887.0219" y="-394.8076" font-family="Helvetica,sans-Serif" font-size="11.00" fill="#000000">[table]</text>
<polygon fill="none" stroke="#000000" points="700.5,-367.7076 700.5,-386.7076 921.5,-386.7076 921.5,-367.7076 700.5,-367.7076"/>
<text text-anchor="start" x="703.5" y="-373.8076" font-family="Helvetica,sans-Serif" font-size="11.00" fill="#000000">...</text>
<polygon fill="#ffffff" stroke="transparent" points="700.5,-348.7076 700.5,-367.7076 921.5,-367.7076 921.5,-348.7076 700.5,-348.7076"/>
<polygon fill="none" stroke="#000000" points="700.5,-348.7076 700.5,-367.7076 921.5,-367.7076 921.5,-348.7076 700.5,-348.7076"/>
<polygon fill="#ffffff" stroke="transparent" points="701.5,-349.7076 701.5,-366.7076 777.5,-366.7076 777.5,-349.7076 701.5,-349.7076"/>
<text text-anchor="start" x="703.5" y="-354.8076" font-family="Helvetica,sans-Serif" font-size="11.00" fill="#000000">&lt; 2</text>
<polygon fill="#ffffff" stroke="transparent" points="777.5,-349.7076 777.5,-366.7076 844.5,-366.7076 844.5,-349.7076 777.5,-349.7076"/>
<text text-anchor="start" x="807.9431" y="-354.8076" font-family="Helvetica,sans-Serif" font-size="11.00" fill="#000000"> &#160;</text>
<polygon fill="#ffffff" stroke="transparent" points="844.5,-349.7076 844.5,-366.7076 920.5,-366.7076 920.5,-349.7076 844.5,-349.7076"/>
<text text-anchor="start" x="902.9053" y="-354.8076" font-family="Helvetica,sans-Serif" font-size="11.00" fill="#000000">1 &gt;</text>
<polygon fill="#000000" stroke="#000000" points="777.5,-349.7076 777.5,-366.7076 777.5,-366.7076 777.5,-349.7076 777.5,-349.7076"/>
<polygon fill="#000000" stroke="#000000" points="844.5,-349.7076 844.5,-366.7076 844.5,-366.7076 844.5,-349.7076 844.5,-349.7076"/>
</a>
</g>
</g>
<!-- act_cmmn_ru_plan_item_inst&#45;&gt;act_cmmn_casedef -->
<g id="edge5" class="edge">
<title>act_cmmn_ru_plan_item_inst:w&#45;&gt;act_cmmn_casedef:e</title>
<path fill="none" stroke="#000000" d="M686.0414,-376.7023C579.2503,-376.5957 542.585,-374.3676 439,-328.7076 408.0172,-315.0504 377.673,-291.9242 355.2497,-272.4036"/>
<polygon fill="#000000" stroke="#000000" points="692.5,-376.7046 700.4987,-380.3076 696.5,-376.7061 700.5,-376.7076 700.5,-376.7076 700.5,-376.7076 696.5,-376.7061 700.5013,-373.1076 692.5,-376.7046 692.5,-376.7046"/>
<ellipse fill="none" stroke="#000000" cx="689.3" cy="-376.7034" rx="3.2" ry="3.2"/>
</g>
<!-- act_cmmn_ru_plan_item_inst&#45;&gt;act_cmmn_ru_case_inst -->
<g id="edge6" class="edge">
<title>act_cmmn_ru_plan_item_inst:w&#45;&gt;act_cmmn_ru_case_inst:e</title>
<path fill="none" stroke="#000000" d="M686.5528,-372.3055C665.7391,-363.1911 628.7677,-341.5049 597.4264,-322.3722"/>
<polygon fill="#000000" stroke="#000000" points="692.871,-374.2996 699.4164,-380.1406 696.6855,-375.5036 700.5,-376.7076 700.5,-376.7076 700.5,-376.7076 696.6855,-375.5036 701.5836,-373.2745 692.871,-374.2996 692.871,-374.2996"/>
<ellipse fill="none" stroke="#000000" cx="689.8194" cy="-373.3364" rx="3.2" ry="3.2"/>
</g>
<!-- act_cmmn_ru_sentry_part_inst -->
<g id="node6" class="node">
<title>act_cmmn_ru_sentry_part_inst</title>
<g id="a_node6"><a xlink:href="../../tables/act_cmmn_ru_sentry_part_inst.html" xlink:title="act_cmmn_ru_sentry_part_inst" target="_top">
<polygon fill="#ffffff" stroke="transparent" points="984,-297.2076 984,-358.2076 1215,-358.2076 1215,-297.2076 984,-297.2076"/>
<polygon fill="#f5f5f5" stroke="transparent" points="984.5,-334.7076 984.5,-357.7076 1215.5,-357.7076 1215.5,-334.7076 984.5,-334.7076"/>
<polygon fill="none" stroke="#000000" points="984.5,-334.7076 984.5,-357.7076 1215.5,-357.7076 1215.5,-334.7076 984.5,-334.7076"/>
<text text-anchor="start" x="989.5" y="-343.3076" font-family="Helvetica,sans-Serif" font-weight="bold" font-size="11.00" fill="#000000">act_cmmn_ru_sentry_part_inst</text>
<text text-anchor="start" x="1181.0219" y="-342.8076" font-family="Helvetica,sans-Serif" font-size="11.00" fill="#000000">[table]</text>
<polygon fill="none" stroke="#000000" points="984.5,-315.7076 984.5,-334.7076 1215.5,-334.7076 1215.5,-315.7076 984.5,-315.7076"/>
<text text-anchor="start" x="987.5" y="-321.8076" font-family="Helvetica,sans-Serif" font-size="11.00" fill="#000000">...</text>
<polygon fill="#ffffff" stroke="transparent" points="984.5,-296.7076 984.5,-315.7076 1215.5,-315.7076 1215.5,-296.7076 984.5,-296.7076"/>
<polygon fill="none" stroke="#000000" points="984.5,-296.7076 984.5,-315.7076 1215.5,-315.7076 1215.5,-296.7076 984.5,-296.7076"/>
<polygon fill="#ffffff" stroke="transparent" points="985.5,-297.7076 985.5,-314.7076 1068.5,-314.7076 1068.5,-297.7076 985.5,-297.7076"/>
<text text-anchor="start" x="987.5" y="-302.8076" font-family="Helvetica,sans-Serif" font-size="11.00" fill="#000000">&lt; 3</text>
<polygon fill="#ffffff" stroke="transparent" points="1068.5,-297.7076 1068.5,-314.7076 1141.5,-314.7076 1141.5,-297.7076 1068.5,-297.7076"/>
<text text-anchor="start" x="1101.9431" y="-302.8076" font-family="Helvetica,sans-Serif" font-size="11.00" fill="#000000"> &#160;</text>
<polygon fill="#ffffff" stroke="transparent" points="1141.5,-297.7076 1141.5,-314.7076 1214.5,-314.7076 1214.5,-297.7076 1141.5,-297.7076"/>
<text text-anchor="start" x="1206.3862" y="-302.8076" font-family="Helvetica,sans-Serif" font-size="11.00" fill="#000000"> &#160;</text>
<polygon fill="#000000" stroke="#000000" points="1068.5,-297.7076 1068.5,-314.7076 1068.5,-314.7076 1068.5,-297.7076 1068.5,-297.7076"/>
<polygon fill="#000000" stroke="#000000" points="1141.5,-297.7076 1141.5,-314.7076 1141.5,-314.7076 1141.5,-297.7076 1141.5,-297.7076"/>
</a>
</g>
</g>
<!-- act_cmmn_ru_sentry_part_inst&#45;&gt;act_cmmn_casedef -->
<g id="edge7" class="edge">
<title>act_cmmn_ru_sentry_part_inst:w&#45;&gt;act_cmmn_casedef:e</title>
<path fill="none" stroke="#000000" d="M969.752,-323.3547C893.1871,-307.386 1019.971,-154.2768 943,-89.7076 769.6283,55.7301 478.214,-123.063 365.4806,-202.9204"/>
<polygon fill="#000000" stroke="#000000" points="976.5335,-323.9767 984.1711,-328.2925 980.5167,-324.3422 984.5,-324.7076 984.5,-324.7076 984.5,-324.7076 980.5167,-324.3422 984.8289,-321.1226 976.5335,-323.9767 976.5335,-323.9767"/>
<ellipse fill="none" stroke="#000000" cx="973.3468" cy="-323.6844" rx="3.2" ry="3.2"/>
</g>
<!-- act_cmmn_ru_sentry_part_inst&#45;&gt;act_cmmn_ru_case_inst -->
<g id="edge8" class="edge">
<title>act_cmmn_ru_sentry_part_inst:w&#45;&gt;act_cmmn_ru_case_inst:e</title>
<path fill="none" stroke="#000000" d="M969.7309,-324.714C845.4474,-324.8161 808.5126,-325.9281 678,-311.7076 667.2743,-310.5389 656.1171,-309.0396 645.0115,-307.3618"/>
<polygon fill="#000000" stroke="#000000" points="976.5,-324.7111 984.5016,-328.3076 980.5,-324.7093 984.5,-324.7076 984.5,-324.7076 984.5,-324.7076 980.5,-324.7093 984.4984,-321.1076 976.5,-324.7111 976.5,-324.7111"/>
<ellipse fill="none" stroke="#000000" cx="973.3" cy="-324.7125" rx="3.2" ry="3.2"/>
</g>
<!-- act_cmmn_ru_sentry_part_inst&#45;&gt;act_cmmn_ru_plan_item_inst -->
<g id="edge9" class="edge">
<title>act_cmmn_ru_sentry_part_inst:w&#45;&gt;act_cmmn_ru_plan_item_inst:e</title>
<path fill="none" stroke="#000000" d="M970.4944,-328.1195C950.0767,-339.6881 952.1332,-376.7076 921.5,-376.7076"/>
<polygon fill="#000000" stroke="#000000" points="976.7273,-326.6011 985.3521,-328.2053 980.6137,-325.6544 984.5,-324.7076 984.5,-324.7076 984.5,-324.7076 980.6137,-325.6544 983.6479,-321.2099 976.7273,-326.6011 976.7273,-326.6011"/>
<ellipse fill="none" stroke="#000000" cx="973.6182" cy="-327.3585" rx="3.2" ry="3.2"/>
</g>
</g>
</svg>
