<?xml version="1.0" encoding="UTF-8" standalone="no"?>
<!DOCTYPE svg PUBLIC "-//W3C//DTD SVG 1.1//EN"
 "http://www.w3.org/Graphics/SVG/1.1/DTD/svg11.dtd">
<!-- Generated by graphviz version 2.40.1 (20161225.0304)
 -->
<!-- Title: oneDegreeRelationshipsDiagram Pages: 1 -->
<svg width="229pt" height="316pt"
 viewBox="0.00 0.00 229.00 316.20" xmlns="http://www.w3.org/2000/svg" xmlns:xlink="http://www.w3.org/1999/xlink">
<g id="graph0" class="graph" transform="scale(1 1) rotate(0) translate(4 312.2)">
<title>oneDegreeRelationshipsDiagram</title>
<polygon fill="#ffffff" stroke="transparent" points="-4,4 -4,-312.2 225,-312.2 225,4 -4,4"/>
<text text-anchor="middle" x="72.4936" y="-7.3" font-family="Helvetica,sans-Serif" font-size="11.00" fill="#000000">Generated by SchemaSpy</text>
<!-- act_dmn_decision -->
<g id="node1" class="node">
<title>act_dmn_decision</title>
<g id="a_node1"><a xlink:href="../../tables/act_dmn_decision.html" xlink:title="act_dmn_decision" target="_top">
<polygon fill="#ffffff" stroke="transparent" points="8,-38.2 8,-304.2 213,-304.2 213,-38.2 8,-38.2"/>
<polygon fill="#f5f5f5" stroke="transparent" points="10.5,-279.2 10.5,-302.2 211.5,-302.2 211.5,-279.2 10.5,-279.2"/>
<polygon fill="none" stroke="#000000" points="10.5,-279.2 10.5,-302.2 211.5,-302.2 211.5,-279.2 10.5,-279.2"/>
<text text-anchor="start" x="15.5" y="-287.8" font-family="Helvetica,sans-Serif" font-weight="bold" font-size="11.00" fill="#000000">act_dmn_decision</text>
<text text-anchor="start" x="176.5437" y="-287.3" font-family="Helvetica,sans-Serif" font-size="11.00" fill="#000000">[table]</text>
<polygon fill="none" stroke="#000000" points="10.5,-257.2 10.5,-279.2 144.5,-279.2 144.5,-257.2 10.5,-257.2"/>
<image xlink:href="../../images/primaryKeys.png" width="11px" height="12px" preserveAspectRatio="xMinYMin meet" x="15.5" y="-274.2"/>
<text text-anchor="start" x="30.5" y="-264.3" font-family="Helvetica,sans-Serif" font-size="11.00" fill="#000000">id_</text>
<polygon fill="none" stroke="#000000" points="144.5,-257.2 144.5,-279.2 211.5,-279.2 211.5,-257.2 144.5,-257.2"/>
<text text-anchor="start" x="147.4365" y="-264.9" font-family="Helvetica,sans-Serif" font-size="11.00" fill="#000000">varchar[255]</text>
<polygon fill="none" stroke="#000000" points="10.5,-235.2 10.5,-257.2 144.5,-257.2 144.5,-235.2 10.5,-235.2"/>
<text text-anchor="start" x="30.5" y="-242.3" font-family="Helvetica,sans-Serif" font-size="11.00" fill="#000000">name_</text>
<polygon fill="none" stroke="#000000" points="144.5,-235.2 144.5,-257.2 211.5,-257.2 211.5,-235.2 144.5,-235.2"/>
<text text-anchor="start" x="147.4365" y="-242.9" font-family="Helvetica,sans-Serif" font-size="11.00" fill="#000000">varchar[255]</text>
<polygon fill="#ffffff" stroke="transparent" points="10.5,-213.2 10.5,-235.2 144.5,-235.2 144.5,-213.2 10.5,-213.2"/>
<polygon fill="none" stroke="#000000" points="10.5,-213.2 10.5,-235.2 144.5,-235.2 144.5,-213.2 10.5,-213.2"/>
<text text-anchor="start" x="30.5" y="-220.3" font-family="Helvetica,sans-Serif" font-size="11.00" fill="#000000">version_</text>
<polygon fill="none" stroke="#000000" points="144.5,-213.2 144.5,-235.2 211.5,-235.2 211.5,-213.2 144.5,-213.2"/>
<text text-anchor="start" x="147.5" y="-220.9" font-family="Helvetica,sans-Serif" font-size="11.00" fill="#000000">int4[10]</text>
<polygon fill="#ffffff" stroke="transparent" points="10.5,-191.2 10.5,-213.2 144.5,-213.2 144.5,-191.2 10.5,-191.2"/>
<polygon fill="none" stroke="#000000" points="10.5,-191.2 10.5,-213.2 144.5,-213.2 144.5,-191.2 10.5,-191.2"/>
<text text-anchor="start" x="30.5" y="-198.3" font-family="Helvetica,sans-Serif" font-size="11.00" fill="#000000">key_</text>
<polygon fill="none" stroke="#000000" points="144.5,-191.2 144.5,-213.2 211.5,-213.2 211.5,-191.2 144.5,-191.2"/>
<text text-anchor="start" x="147.4365" y="-198.9" font-family="Helvetica,sans-Serif" font-size="11.00" fill="#000000">varchar[255]</text>
<polygon fill="none" stroke="#000000" points="10.5,-169.2 10.5,-191.2 144.5,-191.2 144.5,-169.2 10.5,-169.2"/>
<text text-anchor="start" x="30.5" y="-176.3" font-family="Helvetica,sans-Serif" font-size="11.00" fill="#000000">category_</text>
<polygon fill="none" stroke="#000000" points="144.5,-169.2 144.5,-191.2 211.5,-191.2 211.5,-169.2 144.5,-169.2"/>
<text text-anchor="start" x="147.4365" y="-176.9" font-family="Helvetica,sans-Serif" font-size="11.00" fill="#000000">varchar[255]</text>
<polygon fill="none" stroke="#000000" points="10.5,-147.2 10.5,-169.2 144.5,-169.2 144.5,-147.2 10.5,-147.2"/>
<text text-anchor="start" x="30.5" y="-154.3" font-family="Helvetica,sans-Serif" font-size="11.00" fill="#000000">decision_type_</text>
<polygon fill="none" stroke="#000000" points="144.5,-147.2 144.5,-169.2 211.5,-169.2 211.5,-147.2 144.5,-147.2"/>
<text text-anchor="start" x="147.4365" y="-154.9" font-family="Helvetica,sans-Serif" font-size="11.00" fill="#000000">varchar[255]</text>
<polygon fill="none" stroke="#000000" points="10.5,-125.2 10.5,-147.2 144.5,-147.2 144.5,-125.2 10.5,-125.2"/>
<text text-anchor="start" x="30.5" y="-132.3" font-family="Helvetica,sans-Serif" font-size="11.00" fill="#000000">deployment_id_</text>
<polygon fill="none" stroke="#000000" points="144.5,-125.2 144.5,-147.2 211.5,-147.2 211.5,-125.2 144.5,-125.2"/>
<text text-anchor="start" x="147.4365" y="-132.9" font-family="Helvetica,sans-Serif" font-size="11.00" fill="#000000">varchar[255]</text>
<polygon fill="#ffffff" stroke="transparent" points="10.5,-103.2 10.5,-125.2 144.5,-125.2 144.5,-103.2 10.5,-103.2"/>
<polygon fill="none" stroke="#000000" points="10.5,-103.2 10.5,-125.2 144.5,-125.2 144.5,-103.2 10.5,-103.2"/>
<text text-anchor="start" x="30.5" y="-110.3" font-family="Helvetica,sans-Serif" font-size="11.00" fill="#000000">tenant_id_</text>
<polygon fill="none" stroke="#000000" points="144.5,-103.2 144.5,-125.2 211.5,-125.2 211.5,-103.2 144.5,-103.2"/>
<text text-anchor="start" x="147.4365" y="-110.9" font-family="Helvetica,sans-Serif" font-size="11.00" fill="#000000">varchar[255]</text>
<polygon fill="none" stroke="#000000" points="10.5,-81.2 10.5,-103.2 144.5,-103.2 144.5,-81.2 10.5,-81.2"/>
<text text-anchor="start" x="30.5" y="-88.3" font-family="Helvetica,sans-Serif" font-size="11.00" fill="#000000">resource_name_</text>
<polygon fill="none" stroke="#000000" points="144.5,-81.2 144.5,-103.2 211.5,-103.2 211.5,-81.2 144.5,-81.2"/>
<text text-anchor="start" x="147.4365" y="-88.9" font-family="Helvetica,sans-Serif" font-size="11.00" fill="#000000">varchar[255]</text>
<polygon fill="none" stroke="#000000" points="10.5,-59.2 10.5,-81.2 144.5,-81.2 144.5,-59.2 10.5,-59.2"/>
<text text-anchor="start" x="30.5" y="-66.3" font-family="Helvetica,sans-Serif" font-size="11.00" fill="#000000">description_</text>
<polygon fill="none" stroke="#000000" points="144.5,-59.2 144.5,-81.2 211.5,-81.2 211.5,-59.2 144.5,-59.2"/>
<text text-anchor="start" x="147.4365" y="-66.9" font-family="Helvetica,sans-Serif" font-size="11.00" fill="#000000">varchar[255]</text>
<polygon fill="#ffffff" stroke="transparent" points="10.5,-40.2 10.5,-59.2 211.5,-59.2 211.5,-40.2 10.5,-40.2"/>
<polygon fill="none" stroke="#000000" points="10.5,-40.2 10.5,-59.2 211.5,-59.2 211.5,-40.2 10.5,-40.2"/>
<polygon fill="#ffffff" stroke="transparent" points="11.5,-41.2 11.5,-58.2 81.5,-58.2 81.5,-41.2 11.5,-41.2"/>
<text text-anchor="start" x="13.5" y="-46.3" font-family="Helvetica,sans-Serif" font-size="11.00" fill="#000000">&lt; 0</text>
<polygon fill="#ffffff" stroke="transparent" points="81.5,-41.2 81.5,-58.2 141.5,-58.2 141.5,-41.2 81.5,-41.2"/>
<text text-anchor="start" x="108.4431" y="-46.3" font-family="Helvetica,sans-Serif" font-size="11.00" fill="#000000"> &#160;</text>
<polygon fill="#ffffff" stroke="transparent" points="141.5,-41.2 141.5,-58.2 210.5,-58.2 210.5,-41.2 141.5,-41.2"/>
<text text-anchor="start" x="192.9053" y="-46.3" font-family="Helvetica,sans-Serif" font-size="11.00" fill="#000000">0 &gt;</text>
<polygon fill="#000000" stroke="#000000" points="81.5,-41.2 81.5,-58.2 81.5,-58.2 81.5,-41.2 81.5,-41.2"/>
<polygon fill="#000000" stroke="#000000" points="141.5,-41.2 141.5,-58.2 141.5,-58.2 141.5,-41.2 141.5,-41.2"/>
<polygon fill="none" stroke="#000000" stroke-width="2" points="9,-39.2 9,-303.2 212,-303.2 212,-39.2 9,-39.2"/>
</a>
</g>
</g>
</g>
</svg>
