<?xml version="1.0" encoding="UTF-8" standalone="no"?>
<!DOCTYPE svg PUBLIC "-//W3C//DTD SVG 1.1//EN"
 "http://www.w3.org/Graphics/SVG/1.1/DTD/svg11.dtd">
<!-- Generated by graphviz version 2.40.1 (20161225.0304)
 -->
<!-- Title: twoDegreesRelationshipsDiagram Pages: 1 -->
<svg width="419pt" height="377pt"
 viewBox="0.00 0.00 419.00 376.70" xmlns="http://www.w3.org/2000/svg" xmlns:xlink="http://www.w3.org/1999/xlink">
<g id="graph0" class="graph" transform="scale(1 1) rotate(0) translate(4 372.7)">
<title>twoDegreesRelationshipsDiagram</title>
<polygon fill="#ffffff" stroke="transparent" points="-4,4 -4,-372.7 415,-372.7 415,4 -4,4"/>
<text text-anchor="middle" x="72.4936" y="-7.3" font-family="Helvetica,sans-Serif" font-size="11.00" fill="#000000">Generated by SchemaSpy</text>
<!-- act_id_membership -->
<g id="node1" class="node">
<title>act_id_membership</title>
<g id="a_node1"><a xlink:href="../../tables/act_id_membership.html" xlink:title="act_id_membership" target="_top">
<polygon fill="#ffffff" stroke="transparent" points="242,-155.7 242,-241.7 403,-241.7 403,-155.7 242,-155.7"/>
<polygon fill="#f5f5f5" stroke="transparent" points="242.5,-218.7 242.5,-241.7 403.5,-241.7 403.5,-218.7 242.5,-218.7"/>
<polygon fill="none" stroke="#000000" points="242.5,-218.7 242.5,-241.7 403.5,-241.7 403.5,-218.7 242.5,-218.7"/>
<text text-anchor="start" x="247.5" y="-227.3" font-family="Helvetica,sans-Serif" font-weight="bold" font-size="11.00" fill="#000000">act_id_membership</text>
<text text-anchor="start" x="369.0219" y="-226.8" font-family="Helvetica,sans-Serif" font-size="11.00" fill="#000000">[table]</text>
<polygon fill="none" stroke="#000000" points="242.5,-196.7 242.5,-218.7 403.5,-218.7 403.5,-196.7 242.5,-196.7"/>
<image xlink:href="../../images/primaryKeys.png" width="11px" height="12px" preserveAspectRatio="xMinYMin meet" x="247.5" y="-213.7"/>
<text text-anchor="start" x="271.5" y="-203.8" font-family="Helvetica,sans-Serif" font-size="11.00" fill="#000000">user_id_</text>
<polygon fill="none" stroke="#000000" points="242.5,-174.7 242.5,-196.7 403.5,-196.7 403.5,-174.7 242.5,-174.7"/>
<image xlink:href="../../images/primaryKeys.png" width="11px" height="12px" preserveAspectRatio="xMinYMin meet" x="247.5" y="-191.7"/>
<text text-anchor="start" x="271.5" y="-181.8" font-family="Helvetica,sans-Serif" font-size="11.00" fill="#000000">group_id_</text>
<polygon fill="#ffffff" stroke="transparent" points="242.5,-155.7 242.5,-174.7 403.5,-174.7 403.5,-155.7 242.5,-155.7"/>
<polygon fill="none" stroke="#000000" points="242.5,-155.7 242.5,-174.7 403.5,-174.7 403.5,-155.7 242.5,-155.7"/>
<polygon fill="#ffffff" stroke="transparent" points="243.5,-156.7 243.5,-173.7 302.5,-173.7 302.5,-156.7 243.5,-156.7"/>
<text text-anchor="start" x="245.5" y="-161.8" font-family="Helvetica,sans-Serif" font-size="11.00" fill="#000000">&lt; 2</text>
<polygon fill="#ffffff" stroke="transparent" points="302.5,-156.7 302.5,-173.7 352.5,-173.7 352.5,-156.7 302.5,-156.7"/>
<text text-anchor="start" x="324.4431" y="-161.8" font-family="Helvetica,sans-Serif" font-size="11.00" fill="#000000"> &#160;</text>
<polygon fill="#ffffff" stroke="transparent" points="352.5,-156.7 352.5,-173.7 402.5,-173.7 402.5,-156.7 352.5,-156.7"/>
<text text-anchor="start" x="394.3862" y="-161.8" font-family="Helvetica,sans-Serif" font-size="11.00" fill="#000000"> &#160;</text>
<polygon fill="#000000" stroke="#000000" points="302.5,-156.7 302.5,-173.7 302.5,-173.7 302.5,-156.7 302.5,-156.7"/>
<polygon fill="#000000" stroke="#000000" points="352.5,-156.7 352.5,-173.7 352.5,-173.7 352.5,-156.7 352.5,-156.7"/>
</a>
</g>
</g>
<!-- act_id_group -->
<g id="node2" class="node">
<title>act_id_group</title>
<g id="a_node2"><a xlink:href="../../tables/act_id_group.html" xlink:title="act_id_group" target="_top">
<polygon fill="#ffffff" stroke="transparent" points="40.5,-38.2 40.5,-99.2 160.5,-99.2 160.5,-38.2 40.5,-38.2"/>
<polygon fill="#f5f5f5" stroke="transparent" points="40.5,-75.7 40.5,-98.7 160.5,-98.7 160.5,-75.7 40.5,-75.7"/>
<polygon fill="none" stroke="#000000" points="40.5,-75.7 40.5,-98.7 160.5,-98.7 160.5,-75.7 40.5,-75.7"/>
<text text-anchor="start" x="45.5" y="-84.3" font-family="Helvetica,sans-Serif" font-weight="bold" font-size="11.00" fill="#000000">act_id_group</text>
<text text-anchor="start" x="126.0219" y="-83.8" font-family="Helvetica,sans-Serif" font-size="11.00" fill="#000000">[table]</text>
<polygon fill="none" stroke="#000000" points="40.5,-56.7 40.5,-75.7 160.5,-75.7 160.5,-56.7 40.5,-56.7"/>
<text text-anchor="start" x="43.5" y="-62.8" font-family="Helvetica,sans-Serif" font-size="11.00" fill="#000000">...</text>
<polygon fill="#ffffff" stroke="transparent" points="40.5,-37.7 40.5,-56.7 160.5,-56.7 160.5,-37.7 40.5,-37.7"/>
<polygon fill="none" stroke="#000000" points="40.5,-37.7 40.5,-56.7 160.5,-56.7 160.5,-37.7 40.5,-37.7"/>
<polygon fill="#ffffff" stroke="transparent" points="41.5,-38.7 41.5,-55.7 78.5,-55.7 78.5,-38.7 41.5,-38.7"/>
<text text-anchor="start" x="43.5" y="-43.8" font-family="Helvetica,sans-Serif" font-size="11.00" fill="#000000"> &#160;</text>
<polygon fill="#ffffff" stroke="transparent" points="78.5,-38.7 78.5,-55.7 114.5,-55.7 114.5,-38.7 78.5,-38.7"/>
<text text-anchor="start" x="93.4431" y="-43.8" font-family="Helvetica,sans-Serif" font-size="11.00" fill="#000000"> &#160;</text>
<polygon fill="#ffffff" stroke="transparent" points="114.5,-38.7 114.5,-55.7 159.5,-55.7 159.5,-38.7 114.5,-38.7"/>
<text text-anchor="start" x="141.9053" y="-43.8" font-family="Helvetica,sans-Serif" font-size="11.00" fill="#000000">1 &gt;</text>
<polygon fill="#000000" stroke="#000000" points="78.5,-38.7 78.5,-55.7 78.5,-55.7 78.5,-38.7 78.5,-38.7"/>
<polygon fill="#000000" stroke="#000000" points="114.5,-38.7 114.5,-55.7 114.5,-55.7 114.5,-38.7 114.5,-38.7"/>
</a>
</g>
</g>
<!-- act_id_membership&#45;&gt;act_id_group -->
<g id="edge1" class="edge">
<title>act_id_membership:w&#45;&gt;act_id_group:e</title>
<path fill="none" stroke="#000000" d="M228.3197,-182.6465C209.0578,-172.0531 219.9178,-136.0924 201,-109.7 185.5158,-88.0977 187.0786,-65.7 160.5,-65.7"/>
<polygon fill="#000000" stroke="#000000" points="234.6793,-184.0159 241.7421,-189.2193 238.5896,-184.8579 242.5,-185.7 242.5,-185.7 242.5,-185.7 238.5896,-184.8579 243.2579,-182.1807 234.6793,-184.0159 234.6793,-184.0159"/>
<ellipse fill="none" stroke="#000000" cx="231.551" cy="-183.3422" rx="3.2" ry="3.2"/>
</g>
<!-- act_id_user -->
<g id="node3" class="node">
<title>act_id_user</title>
<g id="a_node3"><a xlink:href="../../tables/act_id_user.html" xlink:title="act_id_user" target="_top">
<polygon fill="#ffffff" stroke="transparent" points="8,-120.7 8,-364.7 193,-364.7 193,-120.7 8,-120.7"/>
<polygon fill="#f5f5f5" stroke="transparent" points="10.5,-339.7 10.5,-362.7 191.5,-362.7 191.5,-339.7 10.5,-339.7"/>
<polygon fill="none" stroke="#000000" points="10.5,-339.7 10.5,-362.7 191.5,-362.7 191.5,-339.7 10.5,-339.7"/>
<text text-anchor="start" x="15.5" y="-348.3" font-family="Helvetica,sans-Serif" font-weight="bold" font-size="11.00" fill="#000000">act_id_user</text>
<text text-anchor="start" x="156.5437" y="-347.8" font-family="Helvetica,sans-Serif" font-size="11.00" fill="#000000">[table]</text>
<polygon fill="none" stroke="#000000" points="10.5,-317.7 10.5,-339.7 124.5,-339.7 124.5,-317.7 10.5,-317.7"/>
<image xlink:href="../../images/primaryKeys.png" width="11px" height="12px" preserveAspectRatio="xMinYMin meet" x="15.5" y="-334.7"/>
<text text-anchor="start" x="30.5" y="-324.8" font-family="Helvetica,sans-Serif" font-size="11.00" fill="#000000">id_</text>
<polygon fill="none" stroke="#000000" points="124.5,-317.7 124.5,-339.7 191.5,-339.7 191.5,-317.7 124.5,-317.7"/>
<text text-anchor="start" x="127.5" y="-325.4" font-family="Helvetica,sans-Serif" font-size="11.00" fill="#000000">varchar[64]</text>
<polygon fill="none" stroke="#000000" points="10.5,-295.7 10.5,-317.7 124.5,-317.7 124.5,-295.7 10.5,-295.7"/>
<text text-anchor="start" x="30.5" y="-302.8" font-family="Helvetica,sans-Serif" font-size="11.00" fill="#000000">rev_</text>
<polygon fill="none" stroke="#000000" points="124.5,-295.7 124.5,-317.7 191.5,-317.7 191.5,-295.7 124.5,-295.7"/>
<text text-anchor="start" x="127.5" y="-303.4" font-family="Helvetica,sans-Serif" font-size="11.00" fill="#000000">int4[10]</text>
<polygon fill="none" stroke="#000000" points="10.5,-273.7 10.5,-295.7 124.5,-295.7 124.5,-273.7 10.5,-273.7"/>
<text text-anchor="start" x="30.5" y="-280.8" font-family="Helvetica,sans-Serif" font-size="11.00" fill="#000000">first_</text>
<polygon fill="none" stroke="#000000" points="124.5,-273.7 124.5,-295.7 191.5,-295.7 191.5,-273.7 124.5,-273.7"/>
<text text-anchor="start" x="127.4365" y="-281.4" font-family="Helvetica,sans-Serif" font-size="11.00" fill="#000000">varchar[255]</text>
<polygon fill="none" stroke="#000000" points="10.5,-251.7 10.5,-273.7 124.5,-273.7 124.5,-251.7 10.5,-251.7"/>
<text text-anchor="start" x="30.5" y="-258.8" font-family="Helvetica,sans-Serif" font-size="11.00" fill="#000000">last_</text>
<polygon fill="none" stroke="#000000" points="124.5,-251.7 124.5,-273.7 191.5,-273.7 191.5,-251.7 124.5,-251.7"/>
<text text-anchor="start" x="127.4365" y="-259.4" font-family="Helvetica,sans-Serif" font-size="11.00" fill="#000000">varchar[255]</text>
<polygon fill="none" stroke="#000000" points="10.5,-229.7 10.5,-251.7 124.5,-251.7 124.5,-229.7 10.5,-229.7"/>
<text text-anchor="start" x="30.5" y="-236.8" font-family="Helvetica,sans-Serif" font-size="11.00" fill="#000000">display_name_</text>
<polygon fill="none" stroke="#000000" points="124.5,-229.7 124.5,-251.7 191.5,-251.7 191.5,-229.7 124.5,-229.7"/>
<text text-anchor="start" x="127.4365" y="-237.4" font-family="Helvetica,sans-Serif" font-size="11.00" fill="#000000">varchar[255]</text>
<polygon fill="none" stroke="#000000" points="10.5,-207.7 10.5,-229.7 124.5,-229.7 124.5,-207.7 10.5,-207.7"/>
<text text-anchor="start" x="30.5" y="-214.8" font-family="Helvetica,sans-Serif" font-size="11.00" fill="#000000">email_</text>
<polygon fill="none" stroke="#000000" points="124.5,-207.7 124.5,-229.7 191.5,-229.7 191.5,-207.7 124.5,-207.7"/>
<text text-anchor="start" x="127.4365" y="-215.4" font-family="Helvetica,sans-Serif" font-size="11.00" fill="#000000">varchar[255]</text>
<polygon fill="none" stroke="#000000" points="10.5,-185.7 10.5,-207.7 124.5,-207.7 124.5,-185.7 10.5,-185.7"/>
<text text-anchor="start" x="30.5" y="-192.8" font-family="Helvetica,sans-Serif" font-size="11.00" fill="#000000">pwd_</text>
<polygon fill="none" stroke="#000000" points="124.5,-185.7 124.5,-207.7 191.5,-207.7 191.5,-185.7 124.5,-185.7"/>
<text text-anchor="start" x="127.4365" y="-193.4" font-family="Helvetica,sans-Serif" font-size="11.00" fill="#000000">varchar[255]</text>
<polygon fill="none" stroke="#000000" points="10.5,-163.7 10.5,-185.7 124.5,-185.7 124.5,-163.7 10.5,-163.7"/>
<text text-anchor="start" x="30.5" y="-170.8" font-family="Helvetica,sans-Serif" font-size="11.00" fill="#000000">picture_id_</text>
<polygon fill="none" stroke="#000000" points="124.5,-163.7 124.5,-185.7 191.5,-185.7 191.5,-163.7 124.5,-163.7"/>
<text text-anchor="start" x="127.5" y="-171.4" font-family="Helvetica,sans-Serif" font-size="11.00" fill="#000000">varchar[64]</text>
<polygon fill="none" stroke="#000000" points="10.5,-141.7 10.5,-163.7 124.5,-163.7 124.5,-141.7 10.5,-141.7"/>
<text text-anchor="start" x="30.5" y="-148.8" font-family="Helvetica,sans-Serif" font-size="11.00" fill="#000000">tenant_id_</text>
<polygon fill="none" stroke="#000000" points="124.5,-141.7 124.5,-163.7 191.5,-163.7 191.5,-141.7 124.5,-141.7"/>
<text text-anchor="start" x="127.4365" y="-149.4" font-family="Helvetica,sans-Serif" font-size="11.00" fill="#000000">varchar[255]</text>
<polygon fill="#ffffff" stroke="transparent" points="10.5,-122.7 10.5,-141.7 191.5,-141.7 191.5,-122.7 10.5,-122.7"/>
<polygon fill="none" stroke="#000000" points="10.5,-122.7 10.5,-141.7 191.5,-141.7 191.5,-122.7 10.5,-122.7"/>
<polygon fill="#ffffff" stroke="transparent" points="11.5,-123.7 11.5,-140.7 74.5,-140.7 74.5,-123.7 11.5,-123.7"/>
<text text-anchor="start" x="13.5" y="-128.8" font-family="Helvetica,sans-Serif" font-size="11.00" fill="#000000">&lt; 0</text>
<polygon fill="#ffffff" stroke="transparent" points="74.5,-123.7 74.5,-140.7 128.5,-140.7 128.5,-123.7 74.5,-123.7"/>
<text text-anchor="start" x="98.4431" y="-128.8" font-family="Helvetica,sans-Serif" font-size="11.00" fill="#000000"> &#160;</text>
<polygon fill="#ffffff" stroke="transparent" points="128.5,-123.7 128.5,-140.7 190.5,-140.7 190.5,-123.7 128.5,-123.7"/>
<text text-anchor="start" x="172.9053" y="-128.8" font-family="Helvetica,sans-Serif" font-size="11.00" fill="#000000">1 &gt;</text>
<polygon fill="#000000" stroke="#000000" points="74.5,-123.7 74.5,-140.7 74.5,-140.7 74.5,-123.7 74.5,-123.7"/>
<polygon fill="#000000" stroke="#000000" points="128.5,-123.7 128.5,-140.7 128.5,-140.7 128.5,-123.7 128.5,-123.7"/>
<polygon fill="none" stroke="#000000" stroke-width="2" points="9,-121.7 9,-363.7 192,-363.7 192,-121.7 9,-121.7"/>
</a>
</g>
</g>
<!-- act_id_membership&#45;&gt;act_id_user -->
<g id="edge2" class="edge">
<title>act_id_membership:w&#45;&gt;act_id_user:e</title>
<path fill="none" stroke="#000000" d="M228.2982,-211.1908C196.2098,-231.03 243.9323,-328.7 191.5,-328.7"/>
<polygon fill="#000000" stroke="#000000" points="234.7312,-209.6096 243.3593,-211.1959 238.6156,-208.6548 242.5,-207.7 242.5,-207.7 242.5,-207.7 238.6156,-208.6548 241.6407,-204.2041 234.7312,-209.6096 234.7312,-209.6096"/>
<ellipse fill="none" stroke="#000000" cx="231.6237" cy="-210.3734" rx="3.2" ry="3.2"/>
</g>
</g>
</svg>
