<?xml version="1.0" encoding="UTF-8" standalone="no"?>
<!DOCTYPE svg PUBLIC "-//W3C//DTD SVG 1.1//EN"
 "http://www.w3.org/Graphics/SVG/1.1/DTD/svg11.dtd">
<!-- Generated by graphviz version 2.40.1 (20161225.0304)
 -->
<!-- Title: twoDegreesRelationshipsDiagram Pages: 1 -->
<svg width="849pt" height="702pt"
 viewBox="0.00 0.00 849.00 702.00" xmlns="http://www.w3.org/2000/svg" xmlns:xlink="http://www.w3.org/1999/xlink">
<g id="graph0" class="graph" transform="scale(1 1) rotate(0) translate(4 697.9982)">
<title>twoDegreesRelationshipsDiagram</title>
<polygon fill="#ffffff" stroke="transparent" points="-4,4 -4,-697.9982 845,-697.9982 845,4 -4,4"/>
<text text-anchor="middle" x="72.4936" y="-7.3" font-family="Helvetica,sans-Serif" font-size="11.00" fill="#000000">Generated by SchemaSpy</text>
<!-- act_procdef_info -->
<g id="node1" class="node">
<title>act_procdef_info</title>
<g id="a_node1"><a xlink:href="../../tables/act_procdef_info.html" xlink:title="act_procdef_info" target="_top">
<polygon fill="#ffffff" stroke="transparent" points="190,-463.9982 190,-524.9982 333,-524.9982 333,-463.9982 190,-463.9982"/>
<polygon fill="#f5f5f5" stroke="transparent" points="190.5,-501.4982 190.5,-524.4982 333.5,-524.4982 333.5,-501.4982 190.5,-501.4982"/>
<polygon fill="none" stroke="#000000" points="190.5,-501.4982 190.5,-524.4982 333.5,-524.4982 333.5,-501.4982 190.5,-501.4982"/>
<text text-anchor="start" x="195.5" y="-510.0982" font-family="Helvetica,sans-Serif" font-weight="bold" font-size="11.00" fill="#000000">act_procdef_info</text>
<text text-anchor="start" x="299.0219" y="-509.5982" font-family="Helvetica,sans-Serif" font-size="11.00" fill="#000000">[table]</text>
<polygon fill="none" stroke="#000000" points="190.5,-482.4982 190.5,-501.4982 333.5,-501.4982 333.5,-482.4982 190.5,-482.4982"/>
<text text-anchor="start" x="193.5" y="-488.5982" font-family="Helvetica,sans-Serif" font-size="11.00" fill="#000000">...</text>
<polygon fill="#ffffff" stroke="transparent" points="190.5,-463.4982 190.5,-482.4982 333.5,-482.4982 333.5,-463.4982 190.5,-463.4982"/>
<polygon fill="none" stroke="#000000" points="190.5,-463.4982 190.5,-482.4982 333.5,-482.4982 333.5,-463.4982 190.5,-463.4982"/>
<polygon fill="#ffffff" stroke="transparent" points="191.5,-464.4982 191.5,-481.4982 244.5,-481.4982 244.5,-464.4982 191.5,-464.4982"/>
<text text-anchor="start" x="193.5" y="-469.5982" font-family="Helvetica,sans-Serif" font-size="11.00" fill="#000000">&lt; 2</text>
<polygon fill="#ffffff" stroke="transparent" points="244.5,-464.4982 244.5,-481.4982 288.5,-481.4982 288.5,-464.4982 244.5,-464.4982"/>
<text text-anchor="start" x="263.4431" y="-469.5982" font-family="Helvetica,sans-Serif" font-size="11.00" fill="#000000"> &#160;</text>
<polygon fill="#ffffff" stroke="transparent" points="288.5,-464.4982 288.5,-481.4982 332.5,-481.4982 332.5,-464.4982 288.5,-464.4982"/>
<text text-anchor="start" x="324.3862" y="-469.5982" font-family="Helvetica,sans-Serif" font-size="11.00" fill="#000000"> &#160;</text>
<polygon fill="#000000" stroke="#000000" points="244.5,-464.4982 244.5,-481.4982 244.5,-481.4982 244.5,-464.4982 244.5,-464.4982"/>
<polygon fill="#000000" stroke="#000000" points="288.5,-464.4982 288.5,-481.4982 288.5,-481.4982 288.5,-464.4982 288.5,-464.4982"/>
</a>
</g>
</g>
<!-- act_re_procdef -->
<g id="node2" class="node">
<title>act_re_procdef</title>
<g id="a_node2"><a xlink:href="../../tables/act_re_procdef.html" xlink:title="act_re_procdef" target="_top">
<polygon fill="#ffffff" stroke="transparent" points="8,-298.9982 8,-359.9982 140,-359.9982 140,-298.9982 8,-298.9982"/>
<polygon fill="#f5f5f5" stroke="transparent" points="8,-336.4982 8,-359.4982 140,-359.4982 140,-336.4982 8,-336.4982"/>
<polygon fill="none" stroke="#000000" points="8,-336.4982 8,-359.4982 140,-359.4982 140,-336.4982 8,-336.4982"/>
<text text-anchor="start" x="13" y="-345.0982" font-family="Helvetica,sans-Serif" font-weight="bold" font-size="11.00" fill="#000000">act_re_procdef</text>
<text text-anchor="start" x="105.5219" y="-344.5982" font-family="Helvetica,sans-Serif" font-size="11.00" fill="#000000">[table]</text>
<polygon fill="none" stroke="#000000" points="8,-317.4982 8,-336.4982 140,-336.4982 140,-317.4982 8,-317.4982"/>
<text text-anchor="start" x="11" y="-323.5982" font-family="Helvetica,sans-Serif" font-size="11.00" fill="#000000">...</text>
<polygon fill="#ffffff" stroke="transparent" points="8,-298.4982 8,-317.4982 140,-317.4982 140,-298.4982 8,-298.4982"/>
<polygon fill="none" stroke="#000000" points="8,-298.4982 8,-317.4982 140,-317.4982 140,-298.4982 8,-298.4982"/>
<polygon fill="#ffffff" stroke="transparent" points="9,-299.4982 9,-316.4982 50,-316.4982 50,-299.4982 9,-299.4982"/>
<text text-anchor="start" x="11" y="-304.5982" font-family="Helvetica,sans-Serif" font-size="11.00" fill="#000000"> &#160;</text>
<polygon fill="#ffffff" stroke="transparent" points="50,-299.4982 50,-316.4982 90,-316.4982 90,-299.4982 50,-299.4982"/>
<text text-anchor="start" x="66.9431" y="-304.5982" font-family="Helvetica,sans-Serif" font-size="11.00" fill="#000000"> &#160;</text>
<polygon fill="#ffffff" stroke="transparent" points="90,-299.4982 90,-316.4982 139,-316.4982 139,-299.4982 90,-299.4982"/>
<text text-anchor="start" x="121.4053" y="-304.5982" font-family="Helvetica,sans-Serif" font-size="11.00" fill="#000000">8 &gt;</text>
<polygon fill="#000000" stroke="#000000" points="50,-299.4982 50,-316.4982 50,-316.4982 50,-299.4982 50,-299.4982"/>
<polygon fill="#000000" stroke="#000000" points="90,-299.4982 90,-316.4982 90,-316.4982 90,-299.4982 90,-299.4982"/>
</a>
</g>
</g>
<!-- act_procdef_info&#45;&gt;act_re_procdef -->
<g id="edge1" class="edge">
<title>act_procdef_info:w&#45;&gt;act_re_procdef:e</title>
<path fill="none" stroke="#000000" d="M179.8753,-490.7004C124.6004,-482.2747 95.2554,-409.0631 82.3337,-364.2513"/>
<polygon fill="#000000" stroke="#000000" points="190.0018,-487.4496 189.4027,-495.4271 187.8072,-495.3073 188.4063,-487.3297 190.0018,-487.4496"/>
<polyline fill="none" stroke="#000000" points="190.5,-491.4982 186.5112,-491.1987 "/>
<ellipse fill="none" stroke="#000000" cx="183.3202" cy="-490.959" rx="3.2" ry="3.2"/>
</g>
<!-- act_ru_deadletter_job -->
<g id="node3" class="node">
<title>act_ru_deadletter_job</title>
<g id="a_node3"><a xlink:href="../../tables/act_ru_deadletter_job.html" xlink:title="act_ru_deadletter_job" target="_top">
<polygon fill="#ffffff" stroke="transparent" points="386,-628.9982 386,-689.9982 560,-689.9982 560,-628.9982 386,-628.9982"/>
<polygon fill="#f5f5f5" stroke="transparent" points="386,-666.4982 386,-689.4982 560,-689.4982 560,-666.4982 386,-666.4982"/>
<polygon fill="none" stroke="#000000" points="386,-666.4982 386,-689.4982 560,-689.4982 560,-666.4982 386,-666.4982"/>
<text text-anchor="start" x="391" y="-675.0982" font-family="Helvetica,sans-Serif" font-weight="bold" font-size="11.00" fill="#000000">act_ru_deadletter_job</text>
<text text-anchor="start" x="525.5219" y="-674.5982" font-family="Helvetica,sans-Serif" font-size="11.00" fill="#000000">[table]</text>
<polygon fill="none" stroke="#000000" points="386,-647.4982 386,-666.4982 560,-666.4982 560,-647.4982 386,-647.4982"/>
<text text-anchor="start" x="389" y="-653.5982" font-family="Helvetica,sans-Serif" font-size="11.00" fill="#000000">...</text>
<polygon fill="#ffffff" stroke="transparent" points="386,-628.4982 386,-647.4982 560,-647.4982 560,-628.4982 386,-628.4982"/>
<polygon fill="none" stroke="#000000" points="386,-628.4982 386,-647.4982 560,-647.4982 560,-628.4982 386,-628.4982"/>
<polygon fill="#ffffff" stroke="transparent" points="387,-629.4982 387,-646.4982 451,-646.4982 451,-629.4982 387,-629.4982"/>
<text text-anchor="start" x="389" y="-634.5982" font-family="Helvetica,sans-Serif" font-size="11.00" fill="#000000">&lt; 5</text>
<polygon fill="#ffffff" stroke="transparent" points="451,-629.4982 451,-646.4982 505,-646.4982 505,-629.4982 451,-629.4982"/>
<text text-anchor="start" x="474.9431" y="-634.5982" font-family="Helvetica,sans-Serif" font-size="11.00" fill="#000000"> &#160;</text>
<polygon fill="#ffffff" stroke="transparent" points="505,-629.4982 505,-646.4982 559,-646.4982 559,-629.4982 505,-629.4982"/>
<text text-anchor="start" x="550.8862" y="-634.5982" font-family="Helvetica,sans-Serif" font-size="11.00" fill="#000000"> &#160;</text>
<polygon fill="#000000" stroke="#000000" points="451,-629.4982 451,-646.4982 451,-646.4982 451,-629.4982 451,-629.4982"/>
<polygon fill="#000000" stroke="#000000" points="505,-629.4982 505,-646.4982 505,-646.4982 505,-629.4982 505,-629.4982"/>
</a>
</g>
</g>
<!-- act_ru_deadletter_job&#45;&gt;act_re_procdef -->
<g id="edge3" class="edge">
<title>act_ru_deadletter_job:w&#45;&gt;act_re_procdef:e</title>
<path fill="none" stroke="#000000" d="M371.415,-655.0258C306.8315,-640.0375 403.7283,-514.4187 342,-453.4982 290.1938,-402.37 246.4611,-455.323 181,-423.4982 151.646,-409.2274 124.1153,-384.6817 104.332,-364.2512"/>
<polygon fill="#000000" stroke="#000000" points="378.0405,-655.6946 385.6384,-660.08 382.0202,-656.0964 386,-656.4982 386,-656.4982 386,-656.4982 382.0202,-656.0964 386.3616,-652.9164 378.0405,-655.6946 378.0405,-655.6946"/>
<ellipse fill="none" stroke="#000000" cx="374.8566" cy="-655.3732" rx="3.2" ry="3.2"/>
</g>
<!-- act_ru_execution -->
<g id="node4" class="node">
<title>act_ru_execution</title>
<g id="a_node4"><a xlink:href="../../tables/act_ru_execution.html" xlink:title="act_ru_execution" target="_top">
<polygon fill="#ffffff" stroke="transparent" points="189,-326.9982 189,-387.9982 334,-387.9982 334,-326.9982 189,-326.9982"/>
<polygon fill="#f5f5f5" stroke="transparent" points="189.5,-364.4982 189.5,-387.4982 334.5,-387.4982 334.5,-364.4982 189.5,-364.4982"/>
<polygon fill="none" stroke="#000000" points="189.5,-364.4982 189.5,-387.4982 334.5,-387.4982 334.5,-364.4982 189.5,-364.4982"/>
<text text-anchor="start" x="194.5" y="-373.0982" font-family="Helvetica,sans-Serif" font-weight="bold" font-size="11.00" fill="#000000">act_ru_execution</text>
<text text-anchor="start" x="300.0219" y="-372.5982" font-family="Helvetica,sans-Serif" font-size="11.00" fill="#000000">[table]</text>
<polygon fill="none" stroke="#000000" points="189.5,-345.4982 189.5,-364.4982 334.5,-364.4982 334.5,-345.4982 189.5,-345.4982"/>
<text text-anchor="start" x="192.5" y="-351.5982" font-family="Helvetica,sans-Serif" font-size="11.00" fill="#000000">...</text>
<polygon fill="#ffffff" stroke="transparent" points="189.5,-326.4982 189.5,-345.4982 334.5,-345.4982 334.5,-326.4982 189.5,-326.4982"/>
<polygon fill="none" stroke="#000000" points="189.5,-326.4982 189.5,-345.4982 334.5,-345.4982 334.5,-326.4982 189.5,-326.4982"/>
<polygon fill="#ffffff" stroke="transparent" points="190.5,-327.4982 190.5,-344.4982 239.5,-344.4982 239.5,-327.4982 190.5,-327.4982"/>
<text text-anchor="start" x="192.5" y="-332.5982" font-family="Helvetica,sans-Serif" font-size="11.00" fill="#000000">&lt; 4</text>
<polygon fill="#ffffff" stroke="transparent" points="239.5,-327.4982 239.5,-344.4982 279.5,-344.4982 279.5,-327.4982 239.5,-327.4982"/>
<text text-anchor="start" x="256.4431" y="-332.5982" font-family="Helvetica,sans-Serif" font-size="11.00" fill="#000000"> &#160;</text>
<polygon fill="#ffffff" stroke="transparent" points="279.5,-327.4982 279.5,-344.4982 333.5,-344.4982 333.5,-327.4982 279.5,-327.4982"/>
<text text-anchor="start" x="309.7904" y="-332.5982" font-family="Helvetica,sans-Serif" font-size="11.00" fill="#000000">17 &gt;</text>
<polygon fill="#000000" stroke="#000000" points="239.5,-327.4982 239.5,-344.4982 239.5,-344.4982 239.5,-327.4982 239.5,-327.4982"/>
<polygon fill="#000000" stroke="#000000" points="279.5,-327.4982 279.5,-344.4982 279.5,-344.4982 279.5,-327.4982 279.5,-327.4982"/>
</a>
</g>
</g>
<!-- act_ru_deadletter_job&#45;&gt;act_ru_execution -->
<g id="edge2" class="edge">
<title>act_ru_deadletter_job:w&#45;&gt;act_ru_execution:e</title>
<path fill="none" stroke="#000000" d="M372.787,-649.5495C340.5932,-614.9281 364.4144,-463.8564 342,-423.4982 335.6273,-412.024 326.7209,-401.4414 317.1428,-392.2435"/>
<polygon fill="#000000" stroke="#000000" points="378.9194,-652.7745 384.3243,-659.6845 382.4597,-654.6364 386,-656.4982 386,-656.4982 386,-656.4982 382.4597,-654.6364 387.6757,-653.312 378.9194,-652.7745 378.9194,-652.7745"/>
<ellipse fill="none" stroke="#000000" cx="376.0872" cy="-651.2851" rx="3.2" ry="3.2"/>
</g>
<!-- act_ru_deadletter_job&#45;&gt;act_ru_execution -->
<g id="edge4" class="edge">
<title>act_ru_deadletter_job:w&#45;&gt;act_ru_execution:e</title>
<path fill="none" stroke="#000000" d="M371.9598,-652.4362C341.0039,-625.3091 364.2195,-476.5054 342,-436.4982 332.5321,-419.4508 317.4712,-404.3716 302.9242,-392.0056"/>
<polygon fill="#000000" stroke="#000000" points="378.3152,-654.2748 384.9995,-659.9564 382.1576,-655.3865 386,-656.4982 386,-656.4982 386,-656.4982 382.1576,-655.3865 387.0005,-653.0401 378.3152,-654.2748 378.3152,-654.2748"/>
<ellipse fill="none" stroke="#000000" cx="375.2412" cy="-653.3855" rx="3.2" ry="3.2"/>
</g>
<!-- act_ru_execution&#45;&gt;act_re_procdef -->
<g id="edge6" class="edge">
<title>act_ru_execution:w&#45;&gt;act_re_procdef:e</title>
<path fill="none" stroke="#000000" d="M166.4765,-343.3081C160.2811,-342.3829 154.0931,-341.4588 148.0208,-340.552"/>
<polygon fill="#000000" stroke="#000000" points="172.9827,-344.2796 180.3632,-349.0217 176.9388,-344.8704 180.895,-345.4612 180.895,-345.4612 180.895,-345.4612 176.9388,-344.8704 181.4267,-341.9007 172.9827,-344.2796 172.9827,-344.2796"/>
<ellipse fill="none" stroke="#000000" cx="169.8178" cy="-343.807" rx="3.2" ry="3.2"/>
</g>
<!-- act_ru_event_subscr -->
<g id="node5" class="node">
<title>act_ru_event_subscr</title>
<g id="a_node5"><a xlink:href="../../tables/act_ru_event_subscr.html" xlink:title="act_ru_event_subscr" target="_top">
<polygon fill="#ffffff" stroke="transparent" points="388.5,-464.9982 388.5,-525.9982 557.5,-525.9982 557.5,-464.9982 388.5,-464.9982"/>
<polygon fill="#f5f5f5" stroke="transparent" points="389,-502.4982 389,-525.4982 558,-525.4982 558,-502.4982 389,-502.4982"/>
<polygon fill="none" stroke="#000000" points="389,-502.4982 389,-525.4982 558,-525.4982 558,-502.4982 389,-502.4982"/>
<text text-anchor="start" x="394" y="-511.0982" font-family="Helvetica,sans-Serif" font-weight="bold" font-size="11.00" fill="#000000">act_ru_event_subscr</text>
<text text-anchor="start" x="523.5219" y="-510.5982" font-family="Helvetica,sans-Serif" font-size="11.00" fill="#000000">[table]</text>
<polygon fill="none" stroke="#000000" points="389,-483.4982 389,-502.4982 558,-502.4982 558,-483.4982 389,-483.4982"/>
<text text-anchor="start" x="392" y="-489.5982" font-family="Helvetica,sans-Serif" font-size="11.00" fill="#000000">...</text>
<polygon fill="#ffffff" stroke="transparent" points="389,-464.4982 389,-483.4982 558,-483.4982 558,-464.4982 389,-464.4982"/>
<polygon fill="none" stroke="#000000" points="389,-464.4982 389,-483.4982 558,-483.4982 558,-464.4982 389,-464.4982"/>
<polygon fill="#ffffff" stroke="transparent" points="390,-465.4982 390,-482.4982 452,-482.4982 452,-465.4982 390,-465.4982"/>
<text text-anchor="start" x="392" y="-470.5982" font-family="Helvetica,sans-Serif" font-size="11.00" fill="#000000">&lt; 1</text>
<polygon fill="#ffffff" stroke="transparent" points="452,-465.4982 452,-482.4982 505,-482.4982 505,-465.4982 452,-465.4982"/>
<text text-anchor="start" x="475.4431" y="-470.5982" font-family="Helvetica,sans-Serif" font-size="11.00" fill="#000000"> &#160;</text>
<polygon fill="#ffffff" stroke="transparent" points="505,-465.4982 505,-482.4982 557,-482.4982 557,-465.4982 505,-465.4982"/>
<text text-anchor="start" x="548.8862" y="-470.5982" font-family="Helvetica,sans-Serif" font-size="11.00" fill="#000000"> &#160;</text>
<polygon fill="#000000" stroke="#000000" points="452,-465.4982 452,-482.4982 452,-482.4982 452,-465.4982 452,-465.4982"/>
<polygon fill="#000000" stroke="#000000" points="505,-465.4982 505,-482.4982 505,-482.4982 505,-465.4982 505,-465.4982"/>
</a>
</g>
</g>
<!-- act_ru_event_subscr&#45;&gt;act_ru_execution -->
<g id="edge5" class="edge">
<title>act_ru_event_subscr:w&#45;&gt;act_ru_execution:e</title>
<path fill="none" stroke="#000000" d="M374.6553,-489.6423C350.6541,-477.6335 369.2743,-430.5602 342,-402.4982 338.429,-398.8242 334.493,-395.3655 330.3389,-392.1257"/>
<polygon fill="#000000" stroke="#000000" points="381.154,-490.9361 388.297,-496.0289 385.077,-491.7172 389,-492.4982 389,-492.4982 389,-492.4982 385.077,-491.7172 389.703,-488.9675 381.154,-490.9361 381.154,-490.9361"/>
<ellipse fill="none" stroke="#000000" cx="378.0156" cy="-490.3113" rx="3.2" ry="3.2"/>
</g>
<!-- act_ru_identitylink -->
<g id="node6" class="node">
<title>act_ru_identitylink</title>
<g id="a_node6"><a xlink:href="../../tables/act_ru_identitylink.html" xlink:title="act_ru_identitylink" target="_top">
<polygon fill="#ffffff" stroke="transparent" points="612,-216.4982 612,-526.4982 833,-526.4982 833,-216.4982 612,-216.4982"/>
<polygon fill="#f5f5f5" stroke="transparent" points="614.5,-501.4982 614.5,-524.4982 831.5,-524.4982 831.5,-501.4982 614.5,-501.4982"/>
<polygon fill="none" stroke="#000000" points="614.5,-501.4982 614.5,-524.4982 831.5,-524.4982 831.5,-501.4982 614.5,-501.4982"/>
<text text-anchor="start" x="619.5" y="-510.0982" font-family="Helvetica,sans-Serif" font-weight="bold" font-size="11.00" fill="#000000">act_ru_identitylink</text>
<text text-anchor="start" x="796.5437" y="-509.5982" font-family="Helvetica,sans-Serif" font-size="11.00" fill="#000000">[table]</text>
<polygon fill="none" stroke="#000000" points="614.5,-479.4982 614.5,-501.4982 764.5,-501.4982 764.5,-479.4982 614.5,-479.4982"/>
<image xlink:href="../../images/primaryKeys.png" width="11px" height="12px" preserveAspectRatio="xMinYMin meet" x="619.5" y="-496.498"/>
<text text-anchor="start" x="634.5" y="-486.5982" font-family="Helvetica,sans-Serif" font-size="11.00" fill="#000000">id_</text>
<polygon fill="none" stroke="#000000" points="764.5,-479.4982 764.5,-501.4982 831.5,-501.4982 831.5,-479.4982 764.5,-479.4982"/>
<text text-anchor="start" x="767.5" y="-487.1982" font-family="Helvetica,sans-Serif" font-size="11.00" fill="#000000">varchar[64]</text>
<polygon fill="none" stroke="#000000" points="614.5,-457.4982 614.5,-479.4982 764.5,-479.4982 764.5,-457.4982 614.5,-457.4982"/>
<text text-anchor="start" x="634.5" y="-464.5982" font-family="Helvetica,sans-Serif" font-size="11.00" fill="#000000">rev_</text>
<polygon fill="none" stroke="#000000" points="764.5,-457.4982 764.5,-479.4982 831.5,-479.4982 831.5,-457.4982 764.5,-457.4982"/>
<text text-anchor="start" x="767.5" y="-465.1982" font-family="Helvetica,sans-Serif" font-size="11.00" fill="#000000">int4[10]</text>
<polygon fill="#ffffff" stroke="transparent" points="614.5,-435.4982 614.5,-457.4982 764.5,-457.4982 764.5,-435.4982 614.5,-435.4982"/>
<polygon fill="none" stroke="#000000" points="614.5,-435.4982 614.5,-457.4982 764.5,-457.4982 764.5,-435.4982 614.5,-435.4982"/>
<text text-anchor="start" x="634.5" y="-442.5982" font-family="Helvetica,sans-Serif" font-size="11.00" fill="#000000">group_id_</text>
<polygon fill="none" stroke="#000000" points="764.5,-435.4982 764.5,-457.4982 831.5,-457.4982 831.5,-435.4982 764.5,-435.4982"/>
<text text-anchor="start" x="767.4365" y="-443.1982" font-family="Helvetica,sans-Serif" font-size="11.00" fill="#000000">varchar[255]</text>
<polygon fill="none" stroke="#000000" points="614.5,-413.4982 614.5,-435.4982 764.5,-435.4982 764.5,-413.4982 614.5,-413.4982"/>
<text text-anchor="start" x="634.5" y="-420.5982" font-family="Helvetica,sans-Serif" font-size="11.00" fill="#000000">type_</text>
<polygon fill="none" stroke="#000000" points="764.5,-413.4982 764.5,-435.4982 831.5,-435.4982 831.5,-413.4982 764.5,-413.4982"/>
<text text-anchor="start" x="767.4365" y="-421.1982" font-family="Helvetica,sans-Serif" font-size="11.00" fill="#000000">varchar[255]</text>
<polygon fill="#ffffff" stroke="transparent" points="614.5,-391.4982 614.5,-413.4982 764.5,-413.4982 764.5,-391.4982 614.5,-391.4982"/>
<polygon fill="none" stroke="#000000" points="614.5,-391.4982 614.5,-413.4982 764.5,-413.4982 764.5,-391.4982 614.5,-391.4982"/>
<text text-anchor="start" x="634.5" y="-398.5982" font-family="Helvetica,sans-Serif" font-size="11.00" fill="#000000">user_id_</text>
<polygon fill="none" stroke="#000000" points="764.5,-391.4982 764.5,-413.4982 831.5,-413.4982 831.5,-391.4982 764.5,-391.4982"/>
<text text-anchor="start" x="767.4365" y="-399.1982" font-family="Helvetica,sans-Serif" font-size="11.00" fill="#000000">varchar[255]</text>
<polygon fill="#ffffff" stroke="transparent" points="614.5,-369.4982 614.5,-391.4982 764.5,-391.4982 764.5,-369.4982 614.5,-369.4982"/>
<polygon fill="none" stroke="#000000" points="614.5,-369.4982 614.5,-391.4982 764.5,-391.4982 764.5,-369.4982 614.5,-369.4982"/>
<image xlink:href="../../images/foreignKeys.png" width="11px" height="12px" preserveAspectRatio="xMinYMin meet" x="619.5" y="-386.498"/>
<text text-anchor="start" x="634.5" y="-376.5982" font-family="Helvetica,sans-Serif" font-size="11.00" fill="#000000">task_id_</text>
<polygon fill="none" stroke="#000000" points="764.5,-369.4982 764.5,-391.4982 831.5,-391.4982 831.5,-369.4982 764.5,-369.4982"/>
<text text-anchor="start" x="767.5" y="-377.1982" font-family="Helvetica,sans-Serif" font-size="11.00" fill="#000000">varchar[64]</text>
<polygon fill="#ffffff" stroke="transparent" points="614.5,-347.4982 614.5,-369.4982 764.5,-369.4982 764.5,-347.4982 614.5,-347.4982"/>
<polygon fill="none" stroke="#000000" points="614.5,-347.4982 614.5,-369.4982 764.5,-369.4982 764.5,-347.4982 614.5,-347.4982"/>
<image xlink:href="../../images/foreignKeys.png" width="11px" height="12px" preserveAspectRatio="xMinYMin meet" x="619.5" y="-364.498"/>
<text text-anchor="start" x="634.5" y="-354.5982" font-family="Helvetica,sans-Serif" font-size="11.00" fill="#000000">proc_inst_id_</text>
<polygon fill="none" stroke="#000000" points="764.5,-347.4982 764.5,-369.4982 831.5,-369.4982 831.5,-347.4982 764.5,-347.4982"/>
<text text-anchor="start" x="767.5" y="-355.1982" font-family="Helvetica,sans-Serif" font-size="11.00" fill="#000000">varchar[64]</text>
<polygon fill="#ffffff" stroke="transparent" points="614.5,-325.4982 614.5,-347.4982 764.5,-347.4982 764.5,-325.4982 614.5,-325.4982"/>
<polygon fill="none" stroke="#000000" points="614.5,-325.4982 614.5,-347.4982 764.5,-347.4982 764.5,-325.4982 614.5,-325.4982"/>
<image xlink:href="../../images/foreignKeys.png" width="11px" height="12px" preserveAspectRatio="xMinYMin meet" x="619.5" y="-342.498"/>
<text text-anchor="start" x="634.5" y="-332.5982" font-family="Helvetica,sans-Serif" font-size="11.00" fill="#000000">proc_def_id_</text>
<polygon fill="none" stroke="#000000" points="764.5,-325.4982 764.5,-347.4982 831.5,-347.4982 831.5,-325.4982 764.5,-325.4982"/>
<text text-anchor="start" x="767.5" y="-333.1982" font-family="Helvetica,sans-Serif" font-size="11.00" fill="#000000">varchar[64]</text>
<polygon fill="#ffffff" stroke="transparent" points="614.5,-303.4982 614.5,-325.4982 764.5,-325.4982 764.5,-303.4982 614.5,-303.4982"/>
<polygon fill="none" stroke="#000000" points="614.5,-303.4982 614.5,-325.4982 764.5,-325.4982 764.5,-303.4982 614.5,-303.4982"/>
<text text-anchor="start" x="634.5" y="-310.5982" font-family="Helvetica,sans-Serif" font-size="11.00" fill="#000000">scope_id_</text>
<polygon fill="none" stroke="#000000" points="764.5,-303.4982 764.5,-325.4982 831.5,-325.4982 831.5,-303.4982 764.5,-303.4982"/>
<text text-anchor="start" x="767.4365" y="-311.1982" font-family="Helvetica,sans-Serif" font-size="11.00" fill="#000000">varchar[255]</text>
<polygon fill="#ffffff" stroke="transparent" points="614.5,-281.4982 614.5,-303.4982 764.5,-303.4982 764.5,-281.4982 614.5,-281.4982"/>
<polygon fill="none" stroke="#000000" points="614.5,-281.4982 614.5,-303.4982 764.5,-303.4982 764.5,-281.4982 614.5,-281.4982"/>
<text text-anchor="start" x="634.5" y="-288.5982" font-family="Helvetica,sans-Serif" font-size="11.00" fill="#000000">sub_scope_id_</text>
<polygon fill="none" stroke="#000000" points="764.5,-281.4982 764.5,-303.4982 831.5,-303.4982 831.5,-281.4982 764.5,-281.4982"/>
<text text-anchor="start" x="767.4365" y="-289.1982" font-family="Helvetica,sans-Serif" font-size="11.00" fill="#000000">varchar[255]</text>
<polygon fill="#ffffff" stroke="transparent" points="614.5,-259.4982 614.5,-281.4982 764.5,-281.4982 764.5,-259.4982 614.5,-259.4982"/>
<polygon fill="none" stroke="#000000" points="614.5,-259.4982 614.5,-281.4982 764.5,-281.4982 764.5,-259.4982 614.5,-259.4982"/>
<text text-anchor="start" x="634.5" y="-266.5982" font-family="Helvetica,sans-Serif" font-size="11.00" fill="#000000">scope_type_</text>
<polygon fill="none" stroke="#000000" points="764.5,-259.4982 764.5,-281.4982 831.5,-281.4982 831.5,-259.4982 764.5,-259.4982"/>
<text text-anchor="start" x="767.4365" y="-267.1982" font-family="Helvetica,sans-Serif" font-size="11.00" fill="#000000">varchar[255]</text>
<polygon fill="#ffffff" stroke="transparent" points="614.5,-237.4982 614.5,-259.4982 764.5,-259.4982 764.5,-237.4982 614.5,-237.4982"/>
<polygon fill="none" stroke="#000000" points="614.5,-237.4982 614.5,-259.4982 764.5,-259.4982 764.5,-237.4982 614.5,-237.4982"/>
<text text-anchor="start" x="634.5" y="-244.5982" font-family="Helvetica,sans-Serif" font-size="11.00" fill="#000000">scope_definition_id_</text>
<polygon fill="none" stroke="#000000" points="764.5,-237.4982 764.5,-259.4982 831.5,-259.4982 831.5,-237.4982 764.5,-237.4982"/>
<text text-anchor="start" x="767.4365" y="-245.1982" font-family="Helvetica,sans-Serif" font-size="11.00" fill="#000000">varchar[255]</text>
<polygon fill="#ffffff" stroke="transparent" points="614.5,-218.4982 614.5,-237.4982 831.5,-237.4982 831.5,-218.4982 614.5,-218.4982"/>
<polygon fill="none" stroke="#000000" points="614.5,-218.4982 614.5,-237.4982 831.5,-237.4982 831.5,-218.4982 614.5,-218.4982"/>
<polygon fill="#ffffff" stroke="transparent" points="615.5,-219.4982 615.5,-236.4982 690.5,-236.4982 690.5,-219.4982 615.5,-219.4982"/>
<text text-anchor="start" x="617.5" y="-224.5982" font-family="Helvetica,sans-Serif" font-size="11.00" fill="#000000">&lt; 3</text>
<polygon fill="#ffffff" stroke="transparent" points="690.5,-219.4982 690.5,-236.4982 756.5,-236.4982 756.5,-219.4982 690.5,-219.4982"/>
<text text-anchor="start" x="720.4431" y="-224.5982" font-family="Helvetica,sans-Serif" font-size="11.00" fill="#000000"> &#160;</text>
<polygon fill="#ffffff" stroke="transparent" points="756.5,-219.4982 756.5,-236.4982 830.5,-236.4982 830.5,-219.4982 756.5,-219.4982"/>
<text text-anchor="start" x="812.9053" y="-224.5982" font-family="Helvetica,sans-Serif" font-size="11.00" fill="#000000">0 &gt;</text>
<polygon fill="#000000" stroke="#000000" points="690.5,-219.4982 690.5,-236.4982 690.5,-236.4982 690.5,-219.4982 690.5,-219.4982"/>
<polygon fill="#000000" stroke="#000000" points="756.5,-219.4982 756.5,-236.4982 756.5,-236.4982 756.5,-219.4982 756.5,-219.4982"/>
<polygon fill="none" stroke="#000000" stroke-width="2" points="613,-217.4982 613,-525.4982 832,-525.4982 832,-217.4982 613,-217.4982"/>
</a>
</g>
</g>
<!-- act_ru_identitylink&#45;&gt;act_re_procdef -->
<g id="edge7" class="edge">
<title>act_ru_identitylink:w&#45;&gt;act_re_procdef:e</title>
<path fill="none" stroke="#000000" d="M600.0213,-335.225C521.2698,-319.5787 649.3943,-163.8628 571,-98.4982 437.1733,13.0854 321.6138,-35.599 181,-138.4982 127.7825,-177.4421 97.552,-251.3296 83.5944,-294.9079"/>
<polygon fill="#000000" stroke="#000000" points="606.5308,-335.7974 614.1846,-340.0844 610.5154,-336.1478 614.5,-336.4982 614.5,-336.4982 614.5,-336.4982 610.5154,-336.1478 614.8154,-332.9121 606.5308,-335.7974 606.5308,-335.7974"/>
<ellipse fill="none" stroke="#000000" cx="603.3431" cy="-335.5171" rx="3.2" ry="3.2"/>
</g>
<!-- act_ru_identitylink&#45;&gt;act_ru_execution -->
<g id="edge8" class="edge">
<title>act_ru_identitylink:w&#45;&gt;act_ru_execution:e</title>
<path fill="none" stroke="#000000" d="M599.8833,-358.4954C510.0211,-358.4617 409.9596,-358.1285 342.1145,-357.8564"/>
<polygon fill="#000000" stroke="#000000" points="606.5,-358.4967 614.4993,-362.0982 610.5,-358.4974 614.5,-358.4982 614.5,-358.4982 614.5,-358.4982 610.5,-358.4974 614.5007,-354.8982 606.5,-358.4967 606.5,-358.4967"/>
<ellipse fill="none" stroke="#000000" cx="603.3" cy="-358.496" rx="3.2" ry="3.2"/>
</g>
<!-- act_ru_task -->
<g id="node7" class="node">
<title>act_ru_task</title>
<g id="a_node7"><a xlink:href="../../tables/act_ru_task.html" xlink:title="act_ru_task" target="_top">
<polygon fill="#ffffff" stroke="transparent" points="417.5,-546.9982 417.5,-607.9982 528.5,-607.9982 528.5,-546.9982 417.5,-546.9982"/>
<polygon fill="#f5f5f5" stroke="transparent" points="418,-584.4982 418,-607.4982 529,-607.4982 529,-584.4982 418,-584.4982"/>
<polygon fill="none" stroke="#000000" points="418,-584.4982 418,-607.4982 529,-607.4982 529,-584.4982 418,-584.4982"/>
<text text-anchor="start" x="423" y="-593.0982" font-family="Helvetica,sans-Serif" font-weight="bold" font-size="11.00" fill="#000000">act_ru_task</text>
<text text-anchor="start" x="494.5219" y="-592.5982" font-family="Helvetica,sans-Serif" font-size="11.00" fill="#000000">[table]</text>
<polygon fill="none" stroke="#000000" points="418,-565.4982 418,-584.4982 529,-584.4982 529,-565.4982 418,-565.4982"/>
<text text-anchor="start" x="421" y="-571.5982" font-family="Helvetica,sans-Serif" font-size="11.00" fill="#000000">...</text>
<polygon fill="#ffffff" stroke="transparent" points="418,-546.4982 418,-565.4982 529,-565.4982 529,-546.4982 418,-546.4982"/>
<polygon fill="none" stroke="#000000" points="418,-546.4982 418,-565.4982 529,-565.4982 529,-546.4982 418,-546.4982"/>
<polygon fill="#ffffff" stroke="transparent" points="419,-547.4982 419,-564.4982 459,-564.4982 459,-547.4982 419,-547.4982"/>
<text text-anchor="start" x="421" y="-552.5982" font-family="Helvetica,sans-Serif" font-size="11.00" fill="#000000">&lt; 3</text>
<polygon fill="#ffffff" stroke="transparent" points="459,-547.4982 459,-564.4982 489,-564.4982 489,-547.4982 459,-547.4982"/>
<text text-anchor="start" x="470.9431" y="-552.5982" font-family="Helvetica,sans-Serif" font-size="11.00" fill="#000000"> &#160;</text>
<polygon fill="#ffffff" stroke="transparent" points="489,-547.4982 489,-564.4982 528,-564.4982 528,-547.4982 489,-547.4982"/>
<text text-anchor="start" x="510.4053" y="-552.5982" font-family="Helvetica,sans-Serif" font-size="11.00" fill="#000000">1 &gt;</text>
<polygon fill="#000000" stroke="#000000" points="459,-547.4982 459,-564.4982 459,-564.4982 459,-547.4982 459,-547.4982"/>
<polygon fill="#000000" stroke="#000000" points="489,-547.4982 489,-564.4982 489,-564.4982 489,-547.4982 489,-547.4982"/>
</a>
</g>
</g>
<!-- act_ru_identitylink&#45;&gt;act_ru_task -->
<g id="edge9" class="edge">
<title>act_ru_identitylink:w&#45;&gt;act_ru_task:e</title>
<path fill="none" stroke="#000000" d="M600.2121,-382.2951C553.6593,-396.1486 614.9153,-486.7545 571,-536.4982 561.7845,-546.9368 549.4808,-554.7843 536.712,-560.6613"/>
<polygon fill="#000000" stroke="#000000" points="606.5625,-381.4965 614.9492,-384.0701 610.5313,-380.9974 614.5,-380.4982 614.5,-380.4982 614.5,-380.4982 610.5313,-380.9974 614.0508,-376.9264 606.5625,-381.4965 606.5625,-381.4965"/>
<ellipse fill="none" stroke="#000000" cx="603.3875" cy="-381.8958" rx="3.2" ry="3.2"/>
</g>
<!-- act_ru_task&#45;&gt;act_re_procdef -->
<g id="edge17" class="edge">
<title>act_ru_task:w&#45;&gt;act_re_procdef:e</title>
<path fill="none" stroke="#000000" d="M396.5724,-553.7151C388.5747,-548.9492 381.1403,-543.2656 375,-536.4982 341.5592,-499.6424 379.0534,-462.7201 342,-429.4982 287.7444,-380.853 248.6315,-425.6277 181,-398.4982 159.3568,-389.8163 137.38,-376.5717 119.0205,-363.9994"/>
<polygon fill="#000000" stroke="#000000" points="402.409,-556.7664 407.8307,-563.6631 405.9538,-558.6196 409.4986,-560.4728 409.4986,-560.4728 409.4986,-560.4728 405.9538,-558.6196 411.1665,-557.2825 402.409,-556.7664 402.409,-556.7664"/>
<ellipse fill="none" stroke="#000000" cx="399.5731" cy="-555.2838" rx="3.2" ry="3.2"/>
</g>
<!-- act_ru_task&#45;&gt;act_ru_execution -->
<g id="edge16" class="edge">
<title>act_ru_task:w&#45;&gt;act_ru_execution:e</title>
<path fill="none" stroke="#000000" d="M396.3442,-548.1953C388.3527,-543.307 380.9819,-537.4859 375,-530.4982 335.1124,-483.9047 379.1808,-445.279 342,-396.4982 340.8353,-394.9702 339.6029,-393.4865 338.3117,-392.047"/>
<polygon fill="#000000" stroke="#000000" points="402.252,-551.3626 407.6017,-558.3154 405.7774,-553.2526 409.3027,-555.1426 409.3027,-555.1426 409.3027,-555.1426 405.7774,-553.2526 411.0037,-551.9698 402.252,-551.3626 402.252,-551.3626"/>
<ellipse fill="none" stroke="#000000" cx="399.4318" cy="-549.8505" rx="3.2" ry="3.2"/>
</g>
<!-- act_ru_task&#45;&gt;act_ru_execution -->
<g id="edge18" class="edge">
<title>act_ru_task:w&#45;&gt;act_ru_execution:e</title>
<path fill="none" stroke="#000000" d="M396.3442,-561.0991C388.3527,-556.307 380.9819,-550.4859 375,-543.4982 335.1124,-496.9047 379.1808,-458.279 342,-409.4982 336.953,-402.8766 330.6349,-397.0883 323.7704,-392.0094"/>
<polygon fill="#000000" stroke="#000000" points="402.1971,-564.1268 407.6486,-571 405.7499,-565.9646 409.3027,-567.8025 409.3027,-567.8025 409.3027,-567.8025 405.7499,-565.9646 410.9568,-564.6049 402.1971,-564.1268 402.1971,-564.1268"/>
<ellipse fill="none" stroke="#000000" cx="399.3548" cy="-562.6565" rx="3.2" ry="3.2"/>
</g>
<!-- act_ru_job -->
<g id="node8" class="node">
<title>act_ru_job</title>
<g id="a_node8"><a xlink:href="../../tables/act_ru_job.html" xlink:title="act_ru_job" target="_top">
<polygon fill="#ffffff" stroke="transparent" points="421,-272.9982 421,-333.9982 525,-333.9982 525,-272.9982 421,-272.9982"/>
<polygon fill="#f5f5f5" stroke="transparent" points="421,-310.4982 421,-333.4982 525,-333.4982 525,-310.4982 421,-310.4982"/>
<polygon fill="none" stroke="#000000" points="421,-310.4982 421,-333.4982 525,-333.4982 525,-310.4982 421,-310.4982"/>
<text text-anchor="start" x="426" y="-319.0982" font-family="Helvetica,sans-Serif" font-weight="bold" font-size="11.00" fill="#000000">act_ru_job</text>
<text text-anchor="start" x="490.5219" y="-318.5982" font-family="Helvetica,sans-Serif" font-size="11.00" fill="#000000">[table]</text>
<polygon fill="none" stroke="#000000" points="421,-291.4982 421,-310.4982 525,-310.4982 525,-291.4982 421,-291.4982"/>
<text text-anchor="start" x="424" y="-297.5982" font-family="Helvetica,sans-Serif" font-size="11.00" fill="#000000">...</text>
<polygon fill="#ffffff" stroke="transparent" points="421,-272.4982 421,-291.4982 525,-291.4982 525,-272.4982 421,-272.4982"/>
<polygon fill="none" stroke="#000000" points="421,-272.4982 421,-291.4982 525,-291.4982 525,-272.4982 421,-272.4982"/>
<polygon fill="#ffffff" stroke="transparent" points="422,-273.4982 422,-290.4982 462,-290.4982 462,-273.4982 422,-273.4982"/>
<text text-anchor="start" x="424" y="-278.5982" font-family="Helvetica,sans-Serif" font-size="11.00" fill="#000000">&lt; 5</text>
<polygon fill="#ffffff" stroke="transparent" points="462,-273.4982 462,-290.4982 493,-290.4982 493,-273.4982 462,-273.4982"/>
<text text-anchor="start" x="474.4431" y="-278.5982" font-family="Helvetica,sans-Serif" font-size="11.00" fill="#000000"> &#160;</text>
<polygon fill="#ffffff" stroke="transparent" points="493,-273.4982 493,-290.4982 524,-290.4982 524,-273.4982 493,-273.4982"/>
<text text-anchor="start" x="515.8862" y="-278.5982" font-family="Helvetica,sans-Serif" font-size="11.00" fill="#000000"> &#160;</text>
<polygon fill="#000000" stroke="#000000" points="462,-273.4982 462,-290.4982 462,-290.4982 462,-273.4982 462,-273.4982"/>
<polygon fill="#000000" stroke="#000000" points="493,-273.4982 493,-290.4982 493,-290.4982 493,-273.4982 493,-273.4982"/>
</a>
</g>
</g>
<!-- act_ru_job&#45;&gt;act_re_procdef -->
<g id="edge11" class="edge">
<title>act_ru_job:w&#45;&gt;act_re_procdef:e</title>
<path fill="none" stroke="#000000" d="M406.5321,-300.5798C315.7998,-301.5859 214.9057,-311.6943 148.3081,-319.6802"/>
<polygon fill="#000000" stroke="#000000" points="413.0001,-300.5434 421.0203,-304.0982 417.0001,-300.5208 421,-300.4982 421,-300.4982 421,-300.4982 417.0001,-300.5208 420.9797,-296.8983 413.0001,-300.5434 413.0001,-300.5434"/>
<ellipse fill="none" stroke="#000000" cx="409.8002" cy="-300.5615" rx="3.2" ry="3.2"/>
</g>
<!-- act_ru_job&#45;&gt;act_ru_execution -->
<g id="edge10" class="edge">
<title>act_ru_job:w&#45;&gt;act_ru_execution:e</title>
<path fill="none" stroke="#000000" d="M406.5037,-300.0896C374.8206,-300.7463 342.6174,-311.0771 316.6327,-322.836"/>
<polygon fill="#000000" stroke="#000000" points="413.0032,-300.2728 420.8985,-304.0968 417.0016,-300.3855 421,-300.4982 421,-300.4982 421,-300.4982 417.0016,-300.3855 421.1015,-296.8997 413.0032,-300.2728 413.0032,-300.2728"/>
<ellipse fill="none" stroke="#000000" cx="409.8044" cy="-300.1826" rx="3.2" ry="3.2"/>
</g>
<!-- act_ru_job&#45;&gt;act_ru_execution -->
<g id="edge12" class="edge">
<title>act_ru_job:w&#45;&gt;act_ru_execution:e</title>
<path fill="none" stroke="#000000" d="M406.5872,-302.4053C383.3425,-306.3444 359.8146,-314.28 338.6649,-322.9556"/>
<polygon fill="#000000" stroke="#000000" points="413.0691,-301.5477 421.4722,-304.0671 417.0346,-301.023 421,-300.4982 421,-300.4982 421,-300.4982 417.0346,-301.023 420.5278,-296.9293 413.0691,-301.5477 413.0691,-301.5477"/>
<ellipse fill="none" stroke="#000000" cx="409.8968" cy="-301.9675" rx="3.2" ry="3.2"/>
</g>
<!-- act_ru_suspended_job -->
<g id="node9" class="node">
<title>act_ru_suspended_job</title>
<g id="a_node9"><a xlink:href="../../tables/act_ru_suspended_job.html" xlink:title="act_ru_suspended_job" target="_top">
<polygon fill="#ffffff" stroke="transparent" points="383,-190.9982 383,-251.9982 563,-251.9982 563,-190.9982 383,-190.9982"/>
<polygon fill="#f5f5f5" stroke="transparent" points="383,-228.4982 383,-251.4982 563,-251.4982 563,-228.4982 383,-228.4982"/>
<polygon fill="none" stroke="#000000" points="383,-228.4982 383,-251.4982 563,-251.4982 563,-228.4982 383,-228.4982"/>
<text text-anchor="start" x="388" y="-237.0982" font-family="Helvetica,sans-Serif" font-weight="bold" font-size="11.00" fill="#000000">act_ru_suspended_job</text>
<text text-anchor="start" x="528.5219" y="-236.5982" font-family="Helvetica,sans-Serif" font-size="11.00" fill="#000000">[table]</text>
<polygon fill="none" stroke="#000000" points="383,-209.4982 383,-228.4982 563,-228.4982 563,-209.4982 383,-209.4982"/>
<text text-anchor="start" x="386" y="-215.5982" font-family="Helvetica,sans-Serif" font-size="11.00" fill="#000000">...</text>
<polygon fill="#ffffff" stroke="transparent" points="383,-190.4982 383,-209.4982 563,-209.4982 563,-190.4982 383,-190.4982"/>
<polygon fill="none" stroke="#000000" points="383,-190.4982 383,-209.4982 563,-209.4982 563,-190.4982 383,-190.4982"/>
<polygon fill="#ffffff" stroke="transparent" points="384,-191.4982 384,-208.4982 450,-208.4982 450,-191.4982 384,-191.4982"/>
<text text-anchor="start" x="386" y="-196.5982" font-family="Helvetica,sans-Serif" font-size="11.00" fill="#000000">&lt; 5</text>
<polygon fill="#ffffff" stroke="transparent" points="450,-191.4982 450,-208.4982 506,-208.4982 506,-191.4982 450,-191.4982"/>
<text text-anchor="start" x="474.9431" y="-196.5982" font-family="Helvetica,sans-Serif" font-size="11.00" fill="#000000"> &#160;</text>
<polygon fill="#ffffff" stroke="transparent" points="506,-191.4982 506,-208.4982 562,-208.4982 562,-191.4982 506,-191.4982"/>
<text text-anchor="start" x="553.8862" y="-196.5982" font-family="Helvetica,sans-Serif" font-size="11.00" fill="#000000"> &#160;</text>
<polygon fill="#000000" stroke="#000000" points="450,-191.4982 450,-208.4982 450,-208.4982 450,-191.4982 450,-191.4982"/>
<polygon fill="#000000" stroke="#000000" points="506,-191.4982 506,-208.4982 506,-208.4982 506,-191.4982 506,-191.4982"/>
</a>
</g>
</g>
<!-- act_ru_suspended_job&#45;&gt;act_re_procdef -->
<g id="edge14" class="edge">
<title>act_ru_suspended_job:w&#45;&gt;act_re_procdef:e</title>
<path fill="none" stroke="#000000" d="M368.4311,-218.8564C280.9378,-223.0972 189.4794,-264.1196 132.1612,-294.9856"/>
<polygon fill="#000000" stroke="#000000" points="375.0024,-218.6949 383.0885,-222.0972 379.0012,-218.5966 383,-218.4982 383,-218.4982 383,-218.4982 379.0012,-218.5966 382.9115,-214.8993 375.0024,-218.6949 375.0024,-218.6949"/>
<ellipse fill="none" stroke="#000000" cx="371.8034" cy="-218.7736" rx="3.2" ry="3.2"/>
</g>
<!-- act_ru_suspended_job&#45;&gt;act_ru_execution -->
<g id="edge13" class="edge">
<title>act_ru_suspended_job:w&#45;&gt;act_ru_execution:e</title>
<path fill="none" stroke="#000000" d="M370.5511,-226.1924C350.4813,-244.4203 311.9469,-290.4022 286.4787,-322.8363"/>
<polygon fill="#000000" stroke="#000000" points="376.1949,-222.7042 384.8927,-221.5606 379.5974,-220.6012 383,-218.4982 383,-218.4982 383,-218.4982 379.5974,-220.6012 381.1073,-215.4359 376.1949,-222.7042 376.1949,-222.7042"/>
<ellipse fill="none" stroke="#000000" cx="373.4728" cy="-224.3866" rx="3.2" ry="3.2"/>
</g>
<!-- act_ru_suspended_job&#45;&gt;act_ru_execution -->
<g id="edge15" class="edge">
<title>act_ru_suspended_job:w&#45;&gt;act_ru_execution:e</title>
<path fill="none" stroke="#000000" d="M372.881,-228.9482C355.2423,-248.7683 319.7306,-291.9285 293.526,-322.8255"/>
<polygon fill="#000000" stroke="#000000" points="377.4349,-224.2454 385.5862,-221.0025 380.2174,-221.3718 383,-218.4982 383,-218.4982 383,-218.4982 380.2174,-221.3718 380.4138,-215.9939 377.4349,-224.2454 377.4349,-224.2454"/>
<ellipse fill="none" stroke="#000000" cx="375.2088" cy="-226.5443" rx="3.2" ry="3.2"/>
</g>
<!-- act_ru_timer_job -->
<g id="node10" class="node">
<title>act_ru_timer_job</title>
<g id="a_node10"><a xlink:href="../../tables/act_ru_timer_job.html" xlink:title="act_ru_timer_job" target="_top">
<polygon fill="#ffffff" stroke="transparent" points="401.5,-108.9982 401.5,-169.9982 544.5,-169.9982 544.5,-108.9982 401.5,-108.9982"/>
<polygon fill="#f5f5f5" stroke="transparent" points="402,-146.4982 402,-169.4982 545,-169.4982 545,-146.4982 402,-146.4982"/>
<polygon fill="none" stroke="#000000" points="402,-146.4982 402,-169.4982 545,-169.4982 545,-146.4982 402,-146.4982"/>
<text text-anchor="start" x="407" y="-155.0982" font-family="Helvetica,sans-Serif" font-weight="bold" font-size="11.00" fill="#000000">act_ru_timer_job</text>
<text text-anchor="start" x="510.5219" y="-154.5982" font-family="Helvetica,sans-Serif" font-size="11.00" fill="#000000">[table]</text>
<polygon fill="none" stroke="#000000" points="402,-127.4982 402,-146.4982 545,-146.4982 545,-127.4982 402,-127.4982"/>
<text text-anchor="start" x="405" y="-133.5982" font-family="Helvetica,sans-Serif" font-size="11.00" fill="#000000">...</text>
<polygon fill="#ffffff" stroke="transparent" points="402,-108.4982 402,-127.4982 545,-127.4982 545,-108.4982 402,-108.4982"/>
<polygon fill="none" stroke="#000000" points="402,-108.4982 402,-127.4982 545,-127.4982 545,-108.4982 402,-108.4982"/>
<polygon fill="#ffffff" stroke="transparent" points="403,-109.4982 403,-126.4982 456,-126.4982 456,-109.4982 403,-109.4982"/>
<text text-anchor="start" x="405" y="-114.5982" font-family="Helvetica,sans-Serif" font-size="11.00" fill="#000000">&lt; 5</text>
<polygon fill="#ffffff" stroke="transparent" points="456,-109.4982 456,-126.4982 500,-126.4982 500,-109.4982 456,-109.4982"/>
<text text-anchor="start" x="474.9431" y="-114.5982" font-family="Helvetica,sans-Serif" font-size="11.00" fill="#000000"> &#160;</text>
<polygon fill="#ffffff" stroke="transparent" points="500,-109.4982 500,-126.4982 544,-126.4982 544,-109.4982 500,-109.4982"/>
<text text-anchor="start" x="535.8862" y="-114.5982" font-family="Helvetica,sans-Serif" font-size="11.00" fill="#000000"> &#160;</text>
<polygon fill="#000000" stroke="#000000" points="456,-109.4982 456,-126.4982 456,-126.4982 456,-109.4982 456,-109.4982"/>
<polygon fill="#000000" stroke="#000000" points="500,-109.4982 500,-126.4982 500,-126.4982 500,-109.4982 500,-109.4982"/>
</a>
</g>
</g>
<!-- act_ru_timer_job&#45;&gt;act_re_procdef -->
<g id="edge20" class="edge">
<title>act_ru_timer_job:w&#45;&gt;act_re_procdef:e</title>
<path fill="none" stroke="#000000" d="M387.469,-136.6683C294.3646,-138.9302 264.4653,-163.8717 181,-218.4982 149.4213,-239.1659 120.169,-270.7398 100.2601,-294.9363"/>
<polygon fill="#000000" stroke="#000000" points="394.0005,-136.5919 402.0422,-140.098 398.0003,-136.5451 402,-136.4982 402,-136.4982 402,-136.4982 398.0003,-136.5451 401.9578,-132.8985 394.0005,-136.5919 394.0005,-136.5919"/>
<ellipse fill="none" stroke="#000000" cx="390.8008" cy="-136.6294" rx="3.2" ry="3.2"/>
</g>
<!-- act_ru_timer_job&#45;&gt;act_ru_execution -->
<g id="edge19" class="edge">
<title>act_ru_timer_job:w&#45;&gt;act_ru_execution:e</title>
<path fill="none" stroke="#000000" d="M388.848,-142.8891C359.4109,-169.1885 305.0326,-268.7405 277.8549,-322.5673"/>
<polygon fill="#000000" stroke="#000000" points="394.8045,-139.9947 403.5734,-139.7362 398.4023,-138.2465 402,-136.4982 402,-136.4982 402,-136.4982 398.4023,-138.2465 400.4266,-133.2603 394.8045,-139.9947 394.8045,-139.9947"/>
<ellipse fill="none" stroke="#000000" cx="391.9263" cy="-141.3933" rx="3.2" ry="3.2"/>
</g>
<!-- act_ru_timer_job&#45;&gt;act_ru_execution -->
<g id="edge21" class="edge">
<title>act_ru_timer_job:w&#45;&gt;act_ru_execution:e</title>
<path fill="none" stroke="#000000" d="M390.2222,-145.3911C362.4327,-175.0615 310.3819,-270.376 281.7175,-322.6122"/>
<polygon fill="#000000" stroke="#000000" points="395.6155,-141.3189 404.1693,-139.3713 398.8078,-138.9086 402,-136.4982 402,-136.4982 402,-136.4982 398.8078,-138.9086 399.8307,-133.6252 395.6155,-141.3189 395.6155,-141.3189"/>
<ellipse fill="none" stroke="#000000" cx="393.0617" cy="-143.2472" rx="3.2" ry="3.2"/>
</g>
<!-- act_ru_variable -->
<g id="node11" class="node">
<title>act_ru_variable</title>
<g id="a_node11"><a xlink:href="../../tables/act_ru_variable.html" xlink:title="act_ru_variable" target="_top">
<polygon fill="#ffffff" stroke="transparent" points="406,-382.9982 406,-443.9982 540,-443.9982 540,-382.9982 406,-382.9982"/>
<polygon fill="#f5f5f5" stroke="transparent" points="406,-420.4982 406,-443.4982 540,-443.4982 540,-420.4982 406,-420.4982"/>
<polygon fill="none" stroke="#000000" points="406,-420.4982 406,-443.4982 540,-443.4982 540,-420.4982 406,-420.4982"/>
<text text-anchor="start" x="411" y="-429.0982" font-family="Helvetica,sans-Serif" font-weight="bold" font-size="11.00" fill="#000000">act_ru_variable</text>
<text text-anchor="start" x="505.5219" y="-428.5982" font-family="Helvetica,sans-Serif" font-size="11.00" fill="#000000">[table]</text>
<polygon fill="none" stroke="#000000" points="406,-401.4982 406,-420.4982 540,-420.4982 540,-401.4982 406,-401.4982"/>
<text text-anchor="start" x="409" y="-407.5982" font-family="Helvetica,sans-Serif" font-size="11.00" fill="#000000">...</text>
<polygon fill="#ffffff" stroke="transparent" points="406,-382.4982 406,-401.4982 540,-401.4982 540,-382.4982 406,-382.4982"/>
<polygon fill="none" stroke="#000000" points="406,-382.4982 406,-401.4982 540,-401.4982 540,-382.4982 406,-382.4982"/>
<polygon fill="#ffffff" stroke="transparent" points="407,-383.4982 407,-400.4982 457,-400.4982 457,-383.4982 407,-383.4982"/>
<text text-anchor="start" x="409" y="-388.5982" font-family="Helvetica,sans-Serif" font-size="11.00" fill="#000000">&lt; 3</text>
<polygon fill="#ffffff" stroke="transparent" points="457,-383.4982 457,-400.4982 498,-400.4982 498,-383.4982 457,-383.4982"/>
<text text-anchor="start" x="474.4431" y="-388.5982" font-family="Helvetica,sans-Serif" font-size="11.00" fill="#000000"> &#160;</text>
<polygon fill="#ffffff" stroke="transparent" points="498,-383.4982 498,-400.4982 539,-400.4982 539,-383.4982 498,-383.4982"/>
<text text-anchor="start" x="530.8862" y="-388.5982" font-family="Helvetica,sans-Serif" font-size="11.00" fill="#000000"> &#160;</text>
<polygon fill="#000000" stroke="#000000" points="457,-383.4982 457,-400.4982 457,-400.4982 457,-383.4982 457,-383.4982"/>
<polygon fill="#000000" stroke="#000000" points="498,-383.4982 498,-400.4982 498,-400.4982 498,-383.4982 498,-383.4982"/>
</a>
</g>
</g>
<!-- act_ru_variable&#45;&gt;act_ru_execution -->
<g id="edge22" class="edge">
<title>act_ru_variable:w&#45;&gt;act_ru_execution:e</title>
<path fill="none" stroke="#000000" d="M391.6691,-408.6044C372.8567,-405.3318 353.9054,-399.1185 336.5082,-392.1062"/>
<polygon fill="#000000" stroke="#000000" points="398.069,-409.4501 405.5283,-414.0672 402.0345,-409.9742 406,-410.4982 406,-410.4982 406,-410.4982 402.0345,-409.9742 406.4717,-406.9293 398.069,-409.4501 398.069,-409.4501"/>
<ellipse fill="none" stroke="#000000" cx="394.8965" cy="-409.0308" rx="3.2" ry="3.2"/>
</g>
<!-- act_ru_variable&#45;&gt;act_ru_execution -->
<g id="edge23" class="edge">
<title>act_ru_variable:w&#45;&gt;act_ru_execution:e</title>
<path fill="none" stroke="#000000" d="M391.3814,-411.1203C364.1641,-410.7396 336.6743,-402.2088 314.0374,-392.0126"/>
<polygon fill="#000000" stroke="#000000" points="398.0072,-410.8384 406.1531,-414.095 402.0036,-410.6683 406,-410.4982 406,-410.4982 406,-410.4982 402.0036,-410.6683 405.8469,-406.9015 398.0072,-410.8384 398.0072,-410.8384"/>
<ellipse fill="none" stroke="#000000" cx="394.8101" cy="-410.9745" rx="3.2" ry="3.2"/>
</g>
</g>
</svg>
