<?xml version="1.0" encoding="UTF-8" standalone="no"?>
<!DOCTYPE svg PUBLIC "-//W3C//DTD SVG 1.1//EN"
 "http://www.w3.org/Graphics/SVG/1.1/DTD/svg11.dtd">
<!-- Generated by graphviz version 2.40.1 (20161225.0304)
 -->
<!-- Title: twoDegreesRelationshipsDiagram Pages: 1 -->
<svg width="1273pt" height="288pt"
 viewBox="0.00 0.00 1273.00 287.64" xmlns="http://www.w3.org/2000/svg" xmlns:xlink="http://www.w3.org/1999/xlink">
<g id="graph0" class="graph" transform="scale(1 1) rotate(0) translate(4 283.6406)">
<title>twoDegreesRelationshipsDiagram</title>
<polygon fill="#ffffff" stroke="transparent" points="-4,4 -4,-283.6406 1269,-283.6406 1269,4 -4,4"/>
<text text-anchor="middle" x="72.4936" y="-7.3" font-family="Helvetica,sans-Serif" font-size="11.00" fill="#000000">Generated by SchemaSpy</text>
<!-- act_cmmn_casedef -->
<g id="node1" class="node">
<title>act_cmmn_casedef</title>
<g id="a_node1"><a xlink:href="../../tables/act_cmmn_casedef.html" xlink:title="act_cmmn_casedef" target="_top">
<polygon fill="#ffffff" stroke="transparent" points="240,-154.7 240,-215.7 398,-215.7 398,-154.7 240,-154.7"/>
<polygon fill="#f5f5f5" stroke="transparent" points="240,-192.2 240,-215.2 398,-215.2 398,-192.2 240,-192.2"/>
<polygon fill="none" stroke="#000000" points="240,-192.2 240,-215.2 398,-215.2 398,-192.2 240,-192.2"/>
<text text-anchor="start" x="245" y="-200.8" font-family="Helvetica,sans-Serif" font-weight="bold" font-size="11.00" fill="#000000">act_cmmn_casedef</text>
<text text-anchor="start" x="363.5219" y="-200.3" font-family="Helvetica,sans-Serif" font-size="11.00" fill="#000000">[table]</text>
<polygon fill="none" stroke="#000000" points="240,-173.2 240,-192.2 398,-192.2 398,-173.2 240,-173.2"/>
<text text-anchor="start" x="243" y="-179.3" font-family="Helvetica,sans-Serif" font-size="11.00" fill="#000000">...</text>
<polygon fill="#ffffff" stroke="transparent" points="240,-154.2 240,-173.2 398,-173.2 398,-154.2 240,-154.2"/>
<polygon fill="none" stroke="#000000" points="240,-154.2 240,-173.2 398,-173.2 398,-154.2 240,-154.2"/>
<polygon fill="#ffffff" stroke="transparent" points="241,-155.2 241,-172.2 296,-172.2 296,-155.2 241,-155.2"/>
<text text-anchor="start" x="243" y="-160.3" font-family="Helvetica,sans-Serif" font-size="11.00" fill="#000000">&lt; 1</text>
<polygon fill="#ffffff" stroke="transparent" points="296,-155.2 296,-172.2 342,-172.2 342,-155.2 296,-155.2"/>
<text text-anchor="start" x="315.9431" y="-160.3" font-family="Helvetica,sans-Serif" font-size="11.00" fill="#000000"> &#160;</text>
<polygon fill="#ffffff" stroke="transparent" points="342,-155.2 342,-172.2 397,-172.2 397,-155.2 342,-155.2"/>
<text text-anchor="start" x="379.4053" y="-160.3" font-family="Helvetica,sans-Serif" font-size="11.00" fill="#000000">4 &gt;</text>
<polygon fill="#000000" stroke="#000000" points="296,-155.2 296,-172.2 296,-172.2 296,-155.2 296,-155.2"/>
<polygon fill="#000000" stroke="#000000" points="342,-155.2 342,-172.2 342,-172.2 342,-155.2 342,-155.2"/>
</a>
</g>
</g>
<!-- act_cmmn_deployment -->
<g id="node2" class="node">
<title>act_cmmn_deployment</title>
<g id="a_node2"><a xlink:href="../../tables/act_cmmn_deployment.html" xlink:title="act_cmmn_deployment" target="_top">
<polygon fill="#ffffff" stroke="transparent" points="8,-157.7 8,-218.7 191,-218.7 191,-157.7 8,-157.7"/>
<polygon fill="#f5f5f5" stroke="transparent" points="8.5,-195.2 8.5,-218.2 191.5,-218.2 191.5,-195.2 8.5,-195.2"/>
<polygon fill="none" stroke="#000000" points="8.5,-195.2 8.5,-218.2 191.5,-218.2 191.5,-195.2 8.5,-195.2"/>
<text text-anchor="start" x="13.5" y="-203.8" font-family="Helvetica,sans-Serif" font-weight="bold" font-size="11.00" fill="#000000">act_cmmn_deployment</text>
<text text-anchor="start" x="157.0219" y="-203.3" font-family="Helvetica,sans-Serif" font-size="11.00" fill="#000000">[table]</text>
<polygon fill="none" stroke="#000000" points="8.5,-176.2 8.5,-195.2 191.5,-195.2 191.5,-176.2 8.5,-176.2"/>
<text text-anchor="start" x="11.5" y="-182.3" font-family="Helvetica,sans-Serif" font-size="11.00" fill="#000000">...</text>
<polygon fill="#ffffff" stroke="transparent" points="8.5,-157.2 8.5,-176.2 191.5,-176.2 191.5,-157.2 8.5,-157.2"/>
<polygon fill="none" stroke="#000000" points="8.5,-157.2 8.5,-176.2 191.5,-176.2 191.5,-157.2 8.5,-157.2"/>
<polygon fill="#ffffff" stroke="transparent" points="9.5,-158.2 9.5,-175.2 67.5,-175.2 67.5,-158.2 9.5,-158.2"/>
<text text-anchor="start" x="11.5" y="-163.3" font-family="Helvetica,sans-Serif" font-size="11.00" fill="#000000"> &#160;</text>
<polygon fill="#ffffff" stroke="transparent" points="67.5,-158.2 67.5,-175.2 124.5,-175.2 124.5,-158.2 67.5,-158.2"/>
<text text-anchor="start" x="92.9431" y="-163.3" font-family="Helvetica,sans-Serif" font-size="11.00" fill="#000000"> &#160;</text>
<polygon fill="#ffffff" stroke="transparent" points="124.5,-158.2 124.5,-175.2 190.5,-175.2 190.5,-158.2 124.5,-158.2"/>
<text text-anchor="start" x="172.9053" y="-163.3" font-family="Helvetica,sans-Serif" font-size="11.00" fill="#000000">2 &gt;</text>
<polygon fill="#000000" stroke="#000000" points="67.5,-158.2 67.5,-175.2 67.5,-175.2 67.5,-158.2 67.5,-158.2"/>
<polygon fill="#000000" stroke="#000000" points="124.5,-158.2 124.5,-175.2 124.5,-175.2 124.5,-158.2 124.5,-158.2"/>
</a>
</g>
</g>
<!-- act_cmmn_casedef&#45;&gt;act_cmmn_deployment -->
<g id="edge1" class="edge">
<title>act_cmmn_casedef:w&#45;&gt;act_cmmn_deployment:e</title>
<path fill="none" stroke="#000000" d="M217.2524,-185.2C208.5418,-185.2 199.8665,-185.2 191.5,-185.2"/>
<polygon fill="#000000" stroke="#000000" points="223.8966,-185.2001 231.8966,-188.8 227.8966,-185.2 231.8966,-185.2 231.8966,-185.2 231.8966,-185.2 227.8966,-185.2 231.8966,-181.6 223.8966,-185.2001 223.8966,-185.2001"/>
<ellipse fill="none" stroke="#000000" cx="220.6966" cy="-185.2001" rx="3.2" ry="3.2"/>
</g>
<!-- act_cmmn_ru_case_inst -->
<g id="node3" class="node">
<title>act_cmmn_ru_case_inst</title>
<g id="a_node3"><a xlink:href="../../tables/act_cmmn_ru_case_inst.html" xlink:title="act_cmmn_ru_case_inst" target="_top">
<polygon fill="#ffffff" stroke="transparent" points="447,-127.7 447,-188.7 637,-188.7 637,-127.7 447,-127.7"/>
<polygon fill="#f5f5f5" stroke="transparent" points="447,-165.2 447,-188.2 637,-188.2 637,-165.2 447,-165.2"/>
<polygon fill="none" stroke="#000000" points="447,-165.2 447,-188.2 637,-188.2 637,-165.2 447,-165.2"/>
<text text-anchor="start" x="452" y="-173.8" font-family="Helvetica,sans-Serif" font-weight="bold" font-size="11.00" fill="#000000">act_cmmn_ru_case_inst</text>
<text text-anchor="start" x="602.5219" y="-173.3" font-family="Helvetica,sans-Serif" font-size="11.00" fill="#000000">[table]</text>
<polygon fill="none" stroke="#000000" points="447,-146.2 447,-165.2 637,-165.2 637,-146.2 447,-146.2"/>
<text text-anchor="start" x="450" y="-152.3" font-family="Helvetica,sans-Serif" font-size="11.00" fill="#000000">...</text>
<polygon fill="#ffffff" stroke="transparent" points="447,-127.2 447,-146.2 637,-146.2 637,-127.2 447,-127.2"/>
<polygon fill="none" stroke="#000000" points="447,-127.2 447,-146.2 637,-146.2 637,-127.2 447,-127.2"/>
<polygon fill="#ffffff" stroke="transparent" points="448,-128.2 448,-145.2 514,-145.2 514,-128.2 448,-128.2"/>
<text text-anchor="start" x="450" y="-133.3" font-family="Helvetica,sans-Serif" font-size="11.00" fill="#000000">&lt; 1</text>
<polygon fill="#ffffff" stroke="transparent" points="514,-128.2 514,-145.2 571,-145.2 571,-128.2 514,-128.2"/>
<text text-anchor="start" x="539.4431" y="-133.3" font-family="Helvetica,sans-Serif" font-size="11.00" fill="#000000"> &#160;</text>
<polygon fill="#ffffff" stroke="transparent" points="571,-128.2 571,-145.2 636,-145.2 636,-128.2 571,-128.2"/>
<text text-anchor="start" x="618.4053" y="-133.3" font-family="Helvetica,sans-Serif" font-size="11.00" fill="#000000">3 &gt;</text>
<polygon fill="#000000" stroke="#000000" points="514,-128.2 514,-145.2 514,-145.2 514,-128.2 514,-128.2"/>
<polygon fill="#000000" stroke="#000000" points="571,-128.2 571,-145.2 571,-145.2 571,-128.2 571,-128.2"/>
</a>
</g>
</g>
<!-- act_cmmn_ru_case_inst&#45;&gt;act_cmmn_casedef -->
<g id="edge2" class="edge">
<title>act_cmmn_ru_case_inst:w&#45;&gt;act_cmmn_casedef:e</title>
<path fill="none" stroke="#000000" d="M424.5792,-172.4169C418.4085,-173.164 412.262,-173.9082 406.2157,-174.6403"/>
<polygon fill="#000000" stroke="#000000" points="431.0439,-171.6342 439.4186,-174.2465 435.0149,-171.1534 438.9859,-170.6726 438.9859,-170.6726 438.9859,-170.6726 435.0149,-171.1534 438.5531,-167.0987 431.0439,-171.6342 431.0439,-171.6342"/>
<ellipse fill="none" stroke="#000000" cx="427.8671" cy="-172.0189" rx="3.2" ry="3.2"/>
</g>
<!-- act_cmmn_ru_mil_inst -->
<g id="node4" class="node">
<title>act_cmmn_ru_mil_inst</title>
<g id="a_node4"><a xlink:href="../../tables/act_cmmn_ru_mil_inst.html" xlink:title="act_cmmn_ru_mil_inst" target="_top">
<polygon fill="#ffffff" stroke="transparent" points="707,-182.7 707,-243.7 886,-243.7 886,-182.7 707,-182.7"/>
<polygon fill="#f5f5f5" stroke="transparent" points="707.5,-220.2 707.5,-243.2 886.5,-243.2 886.5,-220.2 707.5,-220.2"/>
<polygon fill="none" stroke="#000000" points="707.5,-220.2 707.5,-243.2 886.5,-243.2 886.5,-220.2 707.5,-220.2"/>
<text text-anchor="start" x="712.5" y="-228.8" font-family="Helvetica,sans-Serif" font-weight="bold" font-size="11.00" fill="#000000">act_cmmn_ru_mil_inst</text>
<text text-anchor="start" x="852.0219" y="-228.3" font-family="Helvetica,sans-Serif" font-size="11.00" fill="#000000">[table]</text>
<polygon fill="none" stroke="#000000" points="707.5,-201.2 707.5,-220.2 886.5,-220.2 886.5,-201.2 707.5,-201.2"/>
<text text-anchor="start" x="710.5" y="-207.3" font-family="Helvetica,sans-Serif" font-size="11.00" fill="#000000">...</text>
<polygon fill="#ffffff" stroke="transparent" points="707.5,-182.2 707.5,-201.2 886.5,-201.2 886.5,-182.2 707.5,-182.2"/>
<polygon fill="none" stroke="#000000" points="707.5,-182.2 707.5,-201.2 886.5,-201.2 886.5,-182.2 707.5,-182.2"/>
<polygon fill="#ffffff" stroke="transparent" points="708.5,-183.2 708.5,-200.2 773.5,-200.2 773.5,-183.2 708.5,-183.2"/>
<text text-anchor="start" x="710.5" y="-188.3" font-family="Helvetica,sans-Serif" font-size="11.00" fill="#000000">&lt; 2</text>
<polygon fill="#ffffff" stroke="transparent" points="773.5,-183.2 773.5,-200.2 829.5,-200.2 829.5,-183.2 773.5,-183.2"/>
<text text-anchor="start" x="798.4431" y="-188.3" font-family="Helvetica,sans-Serif" font-size="11.00" fill="#000000"> &#160;</text>
<polygon fill="#ffffff" stroke="transparent" points="829.5,-183.2 829.5,-200.2 885.5,-200.2 885.5,-183.2 829.5,-183.2"/>
<text text-anchor="start" x="877.3862" y="-188.3" font-family="Helvetica,sans-Serif" font-size="11.00" fill="#000000"> &#160;</text>
<polygon fill="#000000" stroke="#000000" points="773.5,-183.2 773.5,-200.2 773.5,-200.2 773.5,-183.2 773.5,-183.2"/>
<polygon fill="#000000" stroke="#000000" points="829.5,-183.2 829.5,-200.2 829.5,-200.2 829.5,-183.2 829.5,-183.2"/>
</a>
</g>
</g>
<!-- act_cmmn_ru_mil_inst&#45;&gt;act_cmmn_casedef -->
<g id="edge3" class="edge">
<title>act_cmmn_ru_mil_inst:w&#45;&gt;act_cmmn_casedef:e</title>
<path fill="none" stroke="#000000" d="M692.9141,-210.1909C585.3899,-210.0495 553.0654,-208.1776 439,-199.2 428.3359,-198.3607 417.1582,-197.3001 406.0948,-196.1398"/>
<polygon fill="#000000" stroke="#000000" points="699.5,-210.195 707.4977,-213.8 703.5,-210.1975 707.5,-210.2 707.5,-210.2 707.5,-210.2 703.5,-210.1975 707.5023,-206.6 699.5,-210.195 699.5,-210.195"/>
<ellipse fill="none" stroke="#000000" cx="696.3" cy="-210.193" rx="3.2" ry="3.2"/>
</g>
<!-- act_cmmn_ru_mil_inst&#45;&gt;act_cmmn_ru_case_inst -->
<g id="edge4" class="edge">
<title>act_cmmn_ru_mil_inst:w&#45;&gt;act_cmmn_ru_case_inst:e</title>
<path fill="none" stroke="#000000" d="M692.9945,-209.6206C667.4939,-207.6389 641.4508,-200.8064 618.3326,-192.7401"/>
<polygon fill="#000000" stroke="#000000" points="699.5064,-209.8807 707.3563,-213.7971 703.5032,-210.0403 707.5,-210.2 707.5,-210.2 707.5,-210.2 703.5032,-210.0403 707.6437,-206.6029 699.5064,-209.8807 699.5064,-209.8807"/>
<ellipse fill="none" stroke="#000000" cx="696.3089" cy="-209.7529" rx="3.2" ry="3.2"/>
</g>
<!-- act_cmmn_ru_plan_item_inst -->
<g id="node5" class="node">
<title>act_cmmn_ru_plan_item_inst</title>
<g id="a_node5"><a xlink:href="../../tables/act_cmmn_ru_plan_item_inst.html" xlink:title="act_cmmn_ru_plan_item_inst" target="_top">
<polygon fill="#ffffff" stroke="transparent" points="686,-72.7 686,-133.7 907,-133.7 907,-72.7 686,-72.7"/>
<polygon fill="#f5f5f5" stroke="transparent" points="686.5,-110.2 686.5,-133.2 907.5,-133.2 907.5,-110.2 686.5,-110.2"/>
<polygon fill="none" stroke="#000000" points="686.5,-110.2 686.5,-133.2 907.5,-133.2 907.5,-110.2 686.5,-110.2"/>
<text text-anchor="start" x="691.5" y="-118.8" font-family="Helvetica,sans-Serif" font-weight="bold" font-size="11.00" fill="#000000">act_cmmn_ru_plan_item_inst</text>
<text text-anchor="start" x="873.0219" y="-118.3" font-family="Helvetica,sans-Serif" font-size="11.00" fill="#000000">[table]</text>
<polygon fill="none" stroke="#000000" points="686.5,-91.2 686.5,-110.2 907.5,-110.2 907.5,-91.2 686.5,-91.2"/>
<text text-anchor="start" x="689.5" y="-97.3" font-family="Helvetica,sans-Serif" font-size="11.00" fill="#000000">...</text>
<polygon fill="#ffffff" stroke="transparent" points="686.5,-72.2 686.5,-91.2 907.5,-91.2 907.5,-72.2 686.5,-72.2"/>
<polygon fill="none" stroke="#000000" points="686.5,-72.2 686.5,-91.2 907.5,-91.2 907.5,-72.2 686.5,-72.2"/>
<polygon fill="#ffffff" stroke="transparent" points="687.5,-73.2 687.5,-90.2 763.5,-90.2 763.5,-73.2 687.5,-73.2"/>
<text text-anchor="start" x="689.5" y="-78.3" font-family="Helvetica,sans-Serif" font-size="11.00" fill="#000000">&lt; 2</text>
<polygon fill="#ffffff" stroke="transparent" points="763.5,-73.2 763.5,-90.2 830.5,-90.2 830.5,-73.2 763.5,-73.2"/>
<text text-anchor="start" x="793.9431" y="-78.3" font-family="Helvetica,sans-Serif" font-size="11.00" fill="#000000"> &#160;</text>
<polygon fill="#ffffff" stroke="transparent" points="830.5,-73.2 830.5,-90.2 906.5,-90.2 906.5,-73.2 830.5,-73.2"/>
<text text-anchor="start" x="888.9053" y="-78.3" font-family="Helvetica,sans-Serif" font-size="11.00" fill="#000000">1 &gt;</text>
<polygon fill="#000000" stroke="#000000" points="763.5,-73.2 763.5,-90.2 763.5,-90.2 763.5,-73.2 763.5,-73.2"/>
<polygon fill="#000000" stroke="#000000" points="830.5,-73.2 830.5,-90.2 830.5,-90.2 830.5,-73.2 830.5,-73.2"/>
</a>
</g>
</g>
<!-- act_cmmn_ru_plan_item_inst&#45;&gt;act_cmmn_casedef -->
<g id="edge5" class="edge">
<title>act_cmmn_ru_plan_item_inst:w&#45;&gt;act_cmmn_casedef:e</title>
<path fill="none" stroke="#000000" d="M663.2047,-93.602C594.9396,-92.3771 511.2138,-96.642 439,-117.2 414.0117,-124.3137 388.6493,-137.6123 367.7185,-150.5753"/>
<polygon fill="#000000" stroke="#000000" points="669.9735,-93.7643 677.8849,-97.555 673.9724,-93.8602 677.9712,-93.9561 677.9712,-93.9561 677.9712,-93.9561 673.9724,-93.8602 678.0575,-90.3571 669.9735,-93.7643 669.9735,-93.7643"/>
<ellipse fill="none" stroke="#000000" cx="666.7744" cy="-93.6875" rx="3.2" ry="3.2"/>
</g>
<!-- act_cmmn_ru_plan_item_inst&#45;&gt;act_cmmn_ru_case_inst -->
<g id="edge6" class="edge">
<title>act_cmmn_ru_plan_item_inst:w&#45;&gt;act_cmmn_ru_case_inst:e</title>
<path fill="none" stroke="#000000" d="M663.5102,-131.9404C657.3804,-133.2651 651.2683,-134.586 645.2311,-135.8907"/>
<polygon fill="#000000" stroke="#000000" points="669.9992,-130.5381 678.5792,-132.367 673.909,-129.6932 677.8187,-128.8482 677.8187,-128.8482 677.8187,-128.8482 673.909,-129.6932 677.0582,-125.3295 669.9992,-130.5381 669.9992,-130.5381"/>
<ellipse fill="none" stroke="#000000" cx="666.8714" cy="-131.2141" rx="3.2" ry="3.2"/>
</g>
<!-- act_cmmn_ru_sentry_part_inst -->
<g id="node6" class="node">
<title>act_cmmn_ru_sentry_part_inst</title>
<g id="a_node6"><a xlink:href="../../tables/act_cmmn_ru_sentry_part_inst.html" xlink:title="act_cmmn_ru_sentry_part_inst" target="_top">
<polygon fill="#ffffff" stroke="transparent" points="956,-38.2 956,-260.2 1257,-260.2 1257,-38.2 956,-38.2"/>
<polygon fill="#f5f5f5" stroke="transparent" points="958.5,-235.2 958.5,-258.2 1255.5,-258.2 1255.5,-235.2 958.5,-235.2"/>
<polygon fill="none" stroke="#000000" points="958.5,-235.2 958.5,-258.2 1255.5,-258.2 1255.5,-235.2 958.5,-235.2"/>
<text text-anchor="start" x="963.5" y="-243.8" font-family="Helvetica,sans-Serif" font-weight="bold" font-size="11.00" fill="#000000">act_cmmn_ru_sentry_part_inst</text>
<text text-anchor="start" x="1220.5437" y="-243.3" font-family="Helvetica,sans-Serif" font-size="11.00" fill="#000000">[table]</text>
<polygon fill="none" stroke="#000000" points="958.5,-213.2 958.5,-235.2 1171.5,-235.2 1171.5,-213.2 958.5,-213.2"/>
<image xlink:href="../../images/primaryKeys.png" width="11px" height="12px" preserveAspectRatio="xMinYMin meet" x="963.5" y="-230.2"/>
<text text-anchor="start" x="978.5" y="-220.3" font-family="Helvetica,sans-Serif" font-size="11.00" fill="#000000">id_</text>
<polygon fill="none" stroke="#000000" points="1171.5,-213.2 1171.5,-235.2 1255.5,-235.2 1255.5,-213.2 1171.5,-213.2"/>
<text text-anchor="start" x="1174.5" y="-220.9" font-family="Helvetica,sans-Serif" font-size="11.00" fill="#000000">varchar[255]</text>
<polygon fill="none" stroke="#000000" points="958.5,-191.2 958.5,-213.2 1171.5,-213.2 1171.5,-191.2 958.5,-191.2"/>
<text text-anchor="start" x="978.5" y="-198.3" font-family="Helvetica,sans-Serif" font-size="11.00" fill="#000000">rev_</text>
<polygon fill="none" stroke="#000000" points="1171.5,-191.2 1171.5,-213.2 1255.5,-213.2 1255.5,-191.2 1171.5,-191.2"/>
<text text-anchor="start" x="1174.5" y="-198.9" font-family="Helvetica,sans-Serif" font-size="11.00" fill="#000000">int4[10]</text>
<polygon fill="#ffffff" stroke="transparent" points="958.5,-169.2 958.5,-191.2 1171.5,-191.2 1171.5,-169.2 958.5,-169.2"/>
<polygon fill="none" stroke="#000000" points="958.5,-169.2 958.5,-191.2 1171.5,-191.2 1171.5,-169.2 958.5,-169.2"/>
<image xlink:href="../../images/foreignKeys.png" width="11px" height="12px" preserveAspectRatio="xMinYMin meet" x="963.5" y="-186.2"/>
<text text-anchor="start" x="978.5" y="-176.3" font-family="Helvetica,sans-Serif" font-size="11.00" fill="#000000">case_def_id_</text>
<polygon fill="none" stroke="#000000" points="1171.5,-169.2 1171.5,-191.2 1255.5,-191.2 1255.5,-169.2 1171.5,-169.2"/>
<text text-anchor="start" x="1174.5" y="-176.9" font-family="Helvetica,sans-Serif" font-size="11.00" fill="#000000">varchar[255]</text>
<polygon fill="#ffffff" stroke="transparent" points="958.5,-147.2 958.5,-169.2 1171.5,-169.2 1171.5,-147.2 958.5,-147.2"/>
<polygon fill="none" stroke="#000000" points="958.5,-147.2 958.5,-169.2 1171.5,-169.2 1171.5,-147.2 958.5,-147.2"/>
<image xlink:href="../../images/foreignKeys.png" width="11px" height="12px" preserveAspectRatio="xMinYMin meet" x="963.5" y="-164.2"/>
<text text-anchor="start" x="978.5" y="-154.3" font-family="Helvetica,sans-Serif" font-size="11.00" fill="#000000">case_inst_id_</text>
<polygon fill="none" stroke="#000000" points="1171.5,-147.2 1171.5,-169.2 1255.5,-169.2 1255.5,-147.2 1171.5,-147.2"/>
<text text-anchor="start" x="1174.5" y="-154.9" font-family="Helvetica,sans-Serif" font-size="11.00" fill="#000000">varchar[255]</text>
<polygon fill="#ffffff" stroke="transparent" points="958.5,-125.2 958.5,-147.2 1171.5,-147.2 1171.5,-125.2 958.5,-125.2"/>
<polygon fill="none" stroke="#000000" points="958.5,-125.2 958.5,-147.2 1171.5,-147.2 1171.5,-125.2 958.5,-125.2"/>
<image xlink:href="../../images/foreignKeys.png" width="11px" height="12px" preserveAspectRatio="xMinYMin meet" x="963.5" y="-142.2"/>
<text text-anchor="start" x="978.5" y="-132.3" font-family="Helvetica,sans-Serif" font-size="11.00" fill="#000000">plan_item_inst_id_</text>
<polygon fill="none" stroke="#000000" points="1171.5,-125.2 1171.5,-147.2 1255.5,-147.2 1255.5,-125.2 1171.5,-125.2"/>
<text text-anchor="start" x="1174.5" y="-132.9" font-family="Helvetica,sans-Serif" font-size="11.00" fill="#000000">varchar[255]</text>
<polygon fill="none" stroke="#000000" points="958.5,-103.2 958.5,-125.2 1171.5,-125.2 1171.5,-103.2 958.5,-103.2"/>
<text text-anchor="start" x="978.5" y="-110.3" font-family="Helvetica,sans-Serif" font-size="11.00" fill="#000000">on_part_id_</text>
<polygon fill="none" stroke="#000000" points="1171.5,-103.2 1171.5,-125.2 1255.5,-125.2 1255.5,-103.2 1171.5,-103.2"/>
<text text-anchor="start" x="1174.5" y="-110.9" font-family="Helvetica,sans-Serif" font-size="11.00" fill="#000000">varchar[255]</text>
<polygon fill="none" stroke="#000000" points="958.5,-81.2 958.5,-103.2 1171.5,-103.2 1171.5,-81.2 958.5,-81.2"/>
<text text-anchor="start" x="978.5" y="-88.3" font-family="Helvetica,sans-Serif" font-size="11.00" fill="#000000">if_part_id_</text>
<polygon fill="none" stroke="#000000" points="1171.5,-81.2 1171.5,-103.2 1255.5,-103.2 1255.5,-81.2 1171.5,-81.2"/>
<text text-anchor="start" x="1174.5" y="-88.9" font-family="Helvetica,sans-Serif" font-size="11.00" fill="#000000">varchar[255]</text>
<polygon fill="none" stroke="#000000" points="958.5,-59.2 958.5,-81.2 1171.5,-81.2 1171.5,-59.2 958.5,-59.2"/>
<text text-anchor="start" x="978.5" y="-66.3" font-family="Helvetica,sans-Serif" font-size="11.00" fill="#000000">time_stamp_</text>
<polygon fill="none" stroke="#000000" points="1171.5,-59.2 1171.5,-81.2 1255.5,-81.2 1255.5,-59.2 1171.5,-59.2"/>
<text text-anchor="start" x="1174.3807" y="-66.9" font-family="Helvetica,sans-Serif" font-size="11.00" fill="#000000">timestamp[29,6]</text>
<polygon fill="#ffffff" stroke="transparent" points="958.5,-40.2 958.5,-59.2 1255.5,-59.2 1255.5,-40.2 958.5,-40.2"/>
<polygon fill="none" stroke="#000000" points="958.5,-40.2 958.5,-59.2 1255.5,-59.2 1255.5,-40.2 958.5,-40.2"/>
<polygon fill="#ffffff" stroke="transparent" points="959.5,-41.2 959.5,-58.2 1061.5,-58.2 1061.5,-41.2 959.5,-41.2"/>
<text text-anchor="start" x="961.5" y="-46.3" font-family="Helvetica,sans-Serif" font-size="11.00" fill="#000000">&lt; 3</text>
<polygon fill="#ffffff" stroke="transparent" points="1061.5,-41.2 1061.5,-58.2 1153.5,-58.2 1153.5,-41.2 1061.5,-41.2"/>
<text text-anchor="start" x="1104.4431" y="-46.3" font-family="Helvetica,sans-Serif" font-size="11.00" fill="#000000"> &#160;</text>
<polygon fill="#ffffff" stroke="transparent" points="1153.5,-41.2 1153.5,-58.2 1254.5,-58.2 1254.5,-41.2 1153.5,-41.2"/>
<text text-anchor="start" x="1236.9053" y="-46.3" font-family="Helvetica,sans-Serif" font-size="11.00" fill="#000000">0 &gt;</text>
<polygon fill="#000000" stroke="#000000" points="1061.5,-41.2 1061.5,-58.2 1061.5,-58.2 1061.5,-41.2 1061.5,-41.2"/>
<polygon fill="#000000" stroke="#000000" points="1153.5,-41.2 1153.5,-58.2 1153.5,-58.2 1153.5,-41.2 1153.5,-41.2"/>
<polygon fill="none" stroke="#000000" stroke-width="2" points="957,-39.2 957,-259.2 1256,-259.2 1256,-39.2 957,-39.2"/>
</a>
</g>
</g>
<!-- act_cmmn_ru_sentry_part_inst&#45;&gt;act_cmmn_casedef -->
<g id="edge7" class="edge">
<title>act_cmmn_ru_sentry_part_inst:w&#45;&gt;act_cmmn_casedef:e</title>
<path fill="none" stroke="#000000" d="M944.4855,-184.243C927.821,-197.2928 942.681,-238.3626 915,-254.2 823.5732,-306.5091 782.9715,-262.9236 678,-254.2 584.0751,-246.3945 478.3176,-224.4267 406.06,-207.3536"/>
<polygon fill="#000000" stroke="#000000" points="950.8135,-182.4175 959.4979,-183.6589 954.6567,-181.3088 958.5,-180.2 958.5,-180.2 958.5,-180.2 954.6567,-181.3088 957.5021,-176.7411 950.8135,-182.4175 950.8135,-182.4175"/>
<ellipse fill="none" stroke="#000000" cx="947.7389" cy="-183.3045" rx="3.2" ry="3.2"/>
</g>
<!-- act_cmmn_ru_sentry_part_inst&#45;&gt;act_cmmn_ru_case_inst -->
<g id="edge8" class="edge">
<title>act_cmmn_ru_sentry_part_inst:w&#45;&gt;act_cmmn_ru_case_inst:e</title>
<path fill="none" stroke="#000000" d="M944.0136,-158.2C840.7565,-158.2 725.6254,-158.2 645.1258,-158.2"/>
<polygon fill="#000000" stroke="#000000" points="950.5,-158.2001 958.5,-161.8 954.5,-158.2 958.5,-158.2 958.5,-158.2 958.5,-158.2 954.5,-158.2 958.5,-154.6 950.5,-158.2001 950.5,-158.2001"/>
<ellipse fill="none" stroke="#000000" cx="947.3" cy="-158.2001" rx="3.2" ry="3.2"/>
</g>
<!-- act_cmmn_ru_sentry_part_inst&#45;&gt;act_cmmn_ru_plan_item_inst -->
<g id="edge9" class="edge">
<title>act_cmmn_ru_sentry_part_inst:w&#45;&gt;act_cmmn_ru_plan_item_inst:e</title>
<path fill="none" stroke="#000000" d="M943.8304,-135.7902C934.4083,-135.2806 924.8565,-134.3189 915.3801,-133.0358"/>
<polygon fill="#000000" stroke="#000000" points="950.5031,-135.9766 958.3995,-139.7986 954.5016,-136.0883 958.5,-136.2 958.5,-136.2 958.5,-136.2 954.5016,-136.0883 958.6005,-132.6014 950.5031,-135.9766 950.5031,-135.9766"/>
<ellipse fill="none" stroke="#000000" cx="947.3044" cy="-135.8872" rx="3.2" ry="3.2"/>
</g>
</g>
</svg>
