<?xml version="1.0" encoding="UTF-8" standalone="no"?>
<!DOCTYPE svg PUBLIC "-//W3C//DTD SVG 1.1//EN"
 "http://www.w3.org/Graphics/SVG/1.1/DTD/svg11.dtd">
<!-- Generated by graphviz version 2.40.1 (20161225.0304)
 -->
<!-- Title: oneDegreeRelationshipsDiagram Pages: 1 -->
<svg width="732pt" height="363pt"
 viewBox="0.00 0.00 732.00 362.70" xmlns="http://www.w3.org/2000/svg" xmlns:xlink="http://www.w3.org/1999/xlink">
<g id="graph0" class="graph" transform="scale(1 1) rotate(0) translate(4 358.7)">
<title>oneDegreeRelationshipsDiagram</title>
<polygon fill="#ffffff" stroke="transparent" points="-4,4 -4,-358.7 728,-358.7 728,4 -4,4"/>
<text text-anchor="middle" x="72.4936" y="-7.3" font-family="Helvetica,sans-Serif" font-size="11.00" fill="#000000">Generated by SchemaSpy</text>
<!-- act_ge_bytearray -->
<g id="node1" class="node">
<title>act_ge_bytearray</title>
<g id="a_node1"><a xlink:href="../../tables/act_ge_bytearray.html" xlink:title="act_ge_bytearray" target="_top">
<polygon fill="#ffffff" stroke="transparent" points="311,-179.7 311,-284.7 456,-284.7 456,-179.7 311,-179.7"/>
<polygon fill="#f5f5f5" stroke="transparent" points="311.5,-261.2 311.5,-284.2 456.5,-284.2 456.5,-261.2 311.5,-261.2"/>
<polygon fill="none" stroke="#000000" points="311.5,-261.2 311.5,-284.2 456.5,-284.2 456.5,-261.2 311.5,-261.2"/>
<text text-anchor="start" x="316.5" y="-269.8" font-family="Helvetica,sans-Serif" font-weight="bold" font-size="11.00" fill="#000000">act_ge_bytearray</text>
<text text-anchor="start" x="422.0219" y="-269.3" font-family="Helvetica,sans-Serif" font-size="11.00" fill="#000000">[table]</text>
<polygon fill="none" stroke="#000000" points="311.5,-239.2 311.5,-261.2 456.5,-261.2 456.5,-239.2 311.5,-239.2"/>
<image xlink:href="../../images/primaryKeys.png" width="11px" height="12px" preserveAspectRatio="xMinYMin meet" x="316.5" y="-256.2"/>
<text text-anchor="start" x="340.5" y="-246.3" font-family="Helvetica,sans-Serif" font-size="11.00" fill="#000000">id_</text>
<polygon fill="#ffffff" stroke="transparent" points="311.5,-217.2 311.5,-239.2 456.5,-239.2 456.5,-217.2 311.5,-217.2"/>
<polygon fill="none" stroke="#000000" points="311.5,-217.2 311.5,-239.2 456.5,-239.2 456.5,-217.2 311.5,-217.2"/>
<image xlink:href="../../images/foreignKeys.png" width="11px" height="12px" preserveAspectRatio="xMinYMin meet" x="316.5" y="-234.2"/>
<text text-anchor="start" x="340.5" y="-224.3" font-family="Helvetica,sans-Serif" font-size="11.00" fill="#000000">deployment_id_</text>
<polygon fill="none" stroke="#000000" points="311.5,-198.2 311.5,-217.2 456.5,-217.2 456.5,-198.2 311.5,-198.2"/>
<text text-anchor="start" x="314.5" y="-204.3" font-family="Helvetica,sans-Serif" font-size="11.00" fill="#000000">...</text>
<polygon fill="#ffffff" stroke="transparent" points="311.5,-179.2 311.5,-198.2 456.5,-198.2 456.5,-179.2 311.5,-179.2"/>
<polygon fill="none" stroke="#000000" points="311.5,-179.2 311.5,-198.2 456.5,-198.2 456.5,-179.2 311.5,-179.2"/>
<polygon fill="#ffffff" stroke="transparent" points="312.5,-180.2 312.5,-197.2 361.5,-197.2 361.5,-180.2 312.5,-180.2"/>
<text text-anchor="start" x="314.5" y="-185.3" font-family="Helvetica,sans-Serif" font-size="11.00" fill="#000000">&lt; 1</text>
<polygon fill="#ffffff" stroke="transparent" points="361.5,-180.2 361.5,-197.2 401.5,-197.2 401.5,-180.2 361.5,-180.2"/>
<text text-anchor="start" x="378.4431" y="-185.3" font-family="Helvetica,sans-Serif" font-size="11.00" fill="#000000"> &#160;</text>
<polygon fill="#ffffff" stroke="transparent" points="401.5,-180.2 401.5,-197.2 455.5,-197.2 455.5,-180.2 401.5,-180.2"/>
<text text-anchor="start" x="431.7904" y="-185.3" font-family="Helvetica,sans-Serif" font-size="11.00" fill="#000000">14 &gt;</text>
<polygon fill="#000000" stroke="#000000" points="361.5,-180.2 361.5,-197.2 361.5,-197.2 361.5,-180.2 361.5,-180.2"/>
<polygon fill="#000000" stroke="#000000" points="401.5,-180.2 401.5,-197.2 401.5,-197.2 401.5,-180.2 401.5,-180.2"/>
</a>
</g>
</g>
<!-- act_re_deployment -->
<g id="node2" class="node">
<title>act_re_deployment</title>
<g id="a_node2"><a xlink:href="../../tables/act_re_deployment.html" xlink:title="act_re_deployment" target="_top">
<polygon fill="#ffffff" stroke="transparent" points="8,-38.2 8,-304.2 262,-304.2 262,-38.2 8,-38.2"/>
<polygon fill="#f5f5f5" stroke="transparent" points="10,-279.2 10,-302.2 260,-302.2 260,-279.2 10,-279.2"/>
<polygon fill="none" stroke="#000000" points="10,-279.2 10,-302.2 260,-302.2 260,-279.2 10,-279.2"/>
<text text-anchor="start" x="15" y="-287.8" font-family="Helvetica,sans-Serif" font-weight="bold" font-size="11.00" fill="#000000">act_re_deployment</text>
<text text-anchor="start" x="225.0437" y="-287.3" font-family="Helvetica,sans-Serif" font-size="11.00" fill="#000000">[table]</text>
<polygon fill="none" stroke="#000000" points="10,-257.2 10,-279.2 176,-279.2 176,-257.2 10,-257.2"/>
<image xlink:href="../../images/primaryKeys.png" width="11px" height="12px" preserveAspectRatio="xMinYMin meet" x="15" y="-274.2"/>
<text text-anchor="start" x="30" y="-264.3" font-family="Helvetica,sans-Serif" font-size="11.00" fill="#000000">id_</text>
<polygon fill="none" stroke="#000000" points="176,-257.2 176,-279.2 260,-279.2 260,-257.2 176,-257.2"/>
<text text-anchor="start" x="179" y="-264.9" font-family="Helvetica,sans-Serif" font-size="11.00" fill="#000000">varchar[64]</text>
<polygon fill="none" stroke="#000000" points="10,-235.2 10,-257.2 176,-257.2 176,-235.2 10,-235.2"/>
<text text-anchor="start" x="30" y="-242.3" font-family="Helvetica,sans-Serif" font-size="11.00" fill="#000000">name_</text>
<polygon fill="none" stroke="#000000" points="176,-235.2 176,-257.2 260,-257.2 260,-235.2 176,-235.2"/>
<text text-anchor="start" x="179" y="-242.9" font-family="Helvetica,sans-Serif" font-size="11.00" fill="#000000">varchar[255]</text>
<polygon fill="none" stroke="#000000" points="10,-213.2 10,-235.2 176,-235.2 176,-213.2 10,-213.2"/>
<text text-anchor="start" x="30" y="-220.3" font-family="Helvetica,sans-Serif" font-size="11.00" fill="#000000">category_</text>
<polygon fill="none" stroke="#000000" points="176,-213.2 176,-235.2 260,-235.2 260,-213.2 176,-213.2"/>
<text text-anchor="start" x="179" y="-220.9" font-family="Helvetica,sans-Serif" font-size="11.00" fill="#000000">varchar[255]</text>
<polygon fill="none" stroke="#000000" points="10,-191.2 10,-213.2 176,-213.2 176,-191.2 10,-191.2"/>
<text text-anchor="start" x="30" y="-198.3" font-family="Helvetica,sans-Serif" font-size="11.00" fill="#000000">key_</text>
<polygon fill="none" stroke="#000000" points="176,-191.2 176,-213.2 260,-213.2 260,-191.2 176,-191.2"/>
<text text-anchor="start" x="179" y="-198.9" font-family="Helvetica,sans-Serif" font-size="11.00" fill="#000000">varchar[255]</text>
<polygon fill="none" stroke="#000000" points="10,-169.2 10,-191.2 176,-191.2 176,-169.2 10,-169.2"/>
<text text-anchor="start" x="30" y="-176.3" font-family="Helvetica,sans-Serif" font-size="11.00" fill="#000000">tenant_id_</text>
<polygon fill="none" stroke="#000000" points="176,-169.2 176,-191.2 260,-191.2 260,-169.2 176,-169.2"/>
<text text-anchor="start" x="179" y="-176.9" font-family="Helvetica,sans-Serif" font-size="11.00" fill="#000000">varchar[255]</text>
<polygon fill="none" stroke="#000000" points="10,-147.2 10,-169.2 176,-169.2 176,-147.2 10,-147.2"/>
<text text-anchor="start" x="30" y="-154.3" font-family="Helvetica,sans-Serif" font-size="11.00" fill="#000000">deploy_time_</text>
<polygon fill="none" stroke="#000000" points="176,-147.2 176,-169.2 260,-169.2 260,-147.2 176,-147.2"/>
<text text-anchor="start" x="178.8807" y="-154.9" font-family="Helvetica,sans-Serif" font-size="11.00" fill="#000000">timestamp[29,6]</text>
<polygon fill="none" stroke="#000000" points="10,-125.2 10,-147.2 176,-147.2 176,-125.2 10,-125.2"/>
<text text-anchor="start" x="30" y="-132.3" font-family="Helvetica,sans-Serif" font-size="11.00" fill="#000000">derived_from_</text>
<polygon fill="none" stroke="#000000" points="176,-125.2 176,-147.2 260,-147.2 260,-125.2 176,-125.2"/>
<text text-anchor="start" x="179" y="-132.9" font-family="Helvetica,sans-Serif" font-size="11.00" fill="#000000">varchar[64]</text>
<polygon fill="none" stroke="#000000" points="10,-103.2 10,-125.2 176,-125.2 176,-103.2 10,-103.2"/>
<text text-anchor="start" x="30" y="-110.3" font-family="Helvetica,sans-Serif" font-size="11.00" fill="#000000">derived_from_root_</text>
<polygon fill="none" stroke="#000000" points="176,-103.2 176,-125.2 260,-125.2 260,-103.2 176,-103.2"/>
<text text-anchor="start" x="179" y="-110.9" font-family="Helvetica,sans-Serif" font-size="11.00" fill="#000000">varchar[64]</text>
<polygon fill="none" stroke="#000000" points="10,-81.2 10,-103.2 176,-103.2 176,-81.2 10,-81.2"/>
<text text-anchor="start" x="30" y="-88.3" font-family="Helvetica,sans-Serif" font-size="11.00" fill="#000000">parent_deployment_id_</text>
<polygon fill="none" stroke="#000000" points="176,-81.2 176,-103.2 260,-103.2 260,-81.2 176,-81.2"/>
<text text-anchor="start" x="179" y="-88.9" font-family="Helvetica,sans-Serif" font-size="11.00" fill="#000000">varchar[255]</text>
<polygon fill="none" stroke="#000000" points="10,-59.2 10,-81.2 176,-81.2 176,-59.2 10,-59.2"/>
<text text-anchor="start" x="30" y="-66.3" font-family="Helvetica,sans-Serif" font-size="11.00" fill="#000000">engine_version_</text>
<polygon fill="none" stroke="#000000" points="176,-59.2 176,-81.2 260,-81.2 260,-59.2 176,-59.2"/>
<text text-anchor="start" x="179" y="-66.9" font-family="Helvetica,sans-Serif" font-size="11.00" fill="#000000">varchar[255]</text>
<polygon fill="#ffffff" stroke="transparent" points="10,-40.2 10,-59.2 260,-59.2 260,-40.2 10,-40.2"/>
<polygon fill="none" stroke="#000000" points="10,-40.2 10,-59.2 260,-59.2 260,-40.2 10,-40.2"/>
<polygon fill="#ffffff" stroke="transparent" points="11,-41.2 11,-58.2 97,-58.2 97,-41.2 11,-41.2"/>
<text text-anchor="start" x="13" y="-46.3" font-family="Helvetica,sans-Serif" font-size="11.00" fill="#000000">&lt; 0</text>
<polygon fill="#ffffff" stroke="transparent" points="97,-41.2 97,-58.2 174,-58.2 174,-41.2 97,-41.2"/>
<text text-anchor="start" x="132.4431" y="-46.3" font-family="Helvetica,sans-Serif" font-size="11.00" fill="#000000"> &#160;</text>
<polygon fill="#ffffff" stroke="transparent" points="174,-41.2 174,-58.2 259,-58.2 259,-41.2 174,-41.2"/>
<text text-anchor="start" x="241.4053" y="-46.3" font-family="Helvetica,sans-Serif" font-size="11.00" fill="#000000">2 &gt;</text>
<polygon fill="#000000" stroke="#000000" points="97,-41.2 97,-58.2 97,-58.2 97,-41.2 97,-41.2"/>
<polygon fill="#000000" stroke="#000000" points="174,-41.2 174,-58.2 174,-58.2 174,-41.2 174,-41.2"/>
<polygon fill="none" stroke="#000000" stroke-width="2" points="9,-39.2 9,-303.2 261,-303.2 261,-39.2 9,-39.2"/>
</a>
</g>
</g>
<!-- act_ge_bytearray&#45;&gt;act_re_deployment -->
<g id="edge1" class="edge">
<title>act_ge_bytearray:w&#45;&gt;act_re_deployment:e</title>
<path fill="none" stroke="#000000" d="M297.6325,-232.4807C283.6815,-242.7996 283.095,-268.2 260,-268.2"/>
<polygon fill="#000000" stroke="#000000" points="303.8559,-230.5597 312.5618,-231.6398 307.678,-229.3798 311.5,-228.2 311.5,-228.2 311.5,-228.2 307.678,-229.3798 310.4382,-224.7602 303.8559,-230.5597 303.8559,-230.5597"/>
<ellipse fill="none" stroke="#000000" cx="300.7983" cy="-231.5035" rx="3.2" ry="3.2"/>
</g>
<!-- act_re_model -->
<g id="node3" class="node">
<title>act_re_model</title>
<g id="a_node3"><a xlink:href="../../tables/act_re_model.html" xlink:title="act_re_model" target="_top">
<polygon fill="#ffffff" stroke="transparent" points="505,-201.7 505,-350.7 716,-350.7 716,-201.7 505,-201.7"/>
<polygon fill="#f5f5f5" stroke="transparent" points="505.5,-327.2 505.5,-350.2 716.5,-350.2 716.5,-327.2 505.5,-327.2"/>
<polygon fill="none" stroke="#000000" points="505.5,-327.2 505.5,-350.2 716.5,-350.2 716.5,-327.2 505.5,-327.2"/>
<text text-anchor="start" x="510.5" y="-335.8" font-family="Helvetica,sans-Serif" font-weight="bold" font-size="11.00" fill="#000000">act_re_model</text>
<text text-anchor="start" x="681.5437" y="-335.3" font-family="Helvetica,sans-Serif" font-size="11.00" fill="#000000">[table]</text>
<polygon fill="none" stroke="#000000" points="505.5,-305.2 505.5,-327.2 716.5,-327.2 716.5,-305.2 505.5,-305.2"/>
<image xlink:href="../../images/primaryKeys.png" width="11px" height="12px" preserveAspectRatio="xMinYMin meet" x="510.5" y="-322.2"/>
<text text-anchor="start" x="525.5" y="-312.3" font-family="Helvetica,sans-Serif" font-size="11.00" fill="#000000">id_</text>
<polygon fill="#ffffff" stroke="transparent" points="505.5,-283.2 505.5,-305.2 716.5,-305.2 716.5,-283.2 505.5,-283.2"/>
<polygon fill="none" stroke="#000000" points="505.5,-283.2 505.5,-305.2 716.5,-305.2 716.5,-283.2 505.5,-283.2"/>
<image xlink:href="../../images/foreignKeys.png" width="11px" height="12px" preserveAspectRatio="xMinYMin meet" x="510.5" y="-300.2"/>
<text text-anchor="start" x="525.5" y="-290.3" font-family="Helvetica,sans-Serif" font-size="11.00" fill="#000000">deployment_id_</text>
<polygon fill="#ffffff" stroke="transparent" points="505.5,-261.2 505.5,-283.2 716.5,-283.2 716.5,-261.2 505.5,-261.2"/>
<polygon fill="none" stroke="#000000" points="505.5,-261.2 505.5,-283.2 716.5,-283.2 716.5,-261.2 505.5,-261.2"/>
<image xlink:href="../../images/foreignKeys.png" width="11px" height="12px" preserveAspectRatio="xMinYMin meet" x="510.5" y="-278.2"/>
<text text-anchor="start" x="525.5" y="-268.3" font-family="Helvetica,sans-Serif" font-size="11.00" fill="#000000">editor_source_value_id_</text>
<polygon fill="#ffffff" stroke="transparent" points="505.5,-239.2 505.5,-261.2 716.5,-261.2 716.5,-239.2 505.5,-239.2"/>
<polygon fill="none" stroke="#000000" points="505.5,-239.2 505.5,-261.2 716.5,-261.2 716.5,-239.2 505.5,-239.2"/>
<image xlink:href="../../images/foreignKeys.png" width="11px" height="12px" preserveAspectRatio="xMinYMin meet" x="510.5" y="-256.2"/>
<text text-anchor="start" x="525.5" y="-246.3" font-family="Helvetica,sans-Serif" font-size="11.00" fill="#000000">editor_source_extra_value_id_</text>
<polygon fill="none" stroke="#000000" points="505.5,-220.2 505.5,-239.2 716.5,-239.2 716.5,-220.2 505.5,-220.2"/>
<text text-anchor="start" x="508.5" y="-226.3" font-family="Helvetica,sans-Serif" font-size="11.00" fill="#000000">...</text>
<polygon fill="#ffffff" stroke="transparent" points="505.5,-201.2 505.5,-220.2 716.5,-220.2 716.5,-201.2 505.5,-201.2"/>
<polygon fill="none" stroke="#000000" points="505.5,-201.2 505.5,-220.2 716.5,-220.2 716.5,-201.2 505.5,-201.2"/>
<polygon fill="#ffffff" stroke="transparent" points="506.5,-202.2 506.5,-219.2 582.5,-219.2 582.5,-202.2 506.5,-202.2"/>
<text text-anchor="start" x="508.5" y="-207.3" font-family="Helvetica,sans-Serif" font-size="11.00" fill="#000000">&lt; 3</text>
<polygon fill="#ffffff" stroke="transparent" points="582.5,-202.2 582.5,-219.2 649.5,-219.2 649.5,-202.2 582.5,-202.2"/>
<text text-anchor="start" x="612.9431" y="-207.3" font-family="Helvetica,sans-Serif" font-size="11.00" fill="#000000"> &#160;</text>
<polygon fill="#ffffff" stroke="transparent" points="649.5,-202.2 649.5,-219.2 715.5,-219.2 715.5,-202.2 649.5,-202.2"/>
<text text-anchor="start" x="707.3862" y="-207.3" font-family="Helvetica,sans-Serif" font-size="11.00" fill="#000000"> &#160;</text>
<polygon fill="#000000" stroke="#000000" points="582.5,-202.2 582.5,-219.2 582.5,-219.2 582.5,-202.2 582.5,-202.2"/>
<polygon fill="#000000" stroke="#000000" points="649.5,-202.2 649.5,-219.2 649.5,-219.2 649.5,-202.2 649.5,-202.2"/>
</a>
</g>
</g>
<!-- act_re_model&#45;&gt;act_ge_bytearray -->
<g id="edge3" class="edge">
<title>act_re_model:w&#45;&gt;act_ge_bytearray:e</title>
<path fill="none" stroke="#000000" d="M490.9909,-250.2C479.6774,-250.2 472.4931,-250.2 456.5,-250.2"/>
<polygon fill="#000000" stroke="#000000" points="497.5,-250.2001 505.5,-253.8 501.5,-250.2 505.5,-250.2 505.5,-250.2 505.5,-250.2 501.5,-250.2 505.5,-246.6 497.5,-250.2001 497.5,-250.2001"/>
<ellipse fill="none" stroke="#000000" cx="494.3" cy="-250.2001" rx="3.2" ry="3.2"/>
</g>
<!-- act_re_model&#45;&gt;act_ge_bytearray -->
<g id="edge4" class="edge">
<title>act_re_model:w&#45;&gt;act_ge_bytearray:e</title>
<path fill="none" stroke="#000000" d="M491.1297,-268.7625C479.5865,-262.575 474.4041,-250.2 456.5,-250.2"/>
<polygon fill="#000000" stroke="#000000" points="497.7195,-270.3388 504.6625,-275.7012 501.6098,-271.2694 505.5,-272.2 505.5,-272.2 505.5,-272.2 501.6098,-271.2694 506.3375,-268.6988 497.7195,-270.3388 497.7195,-270.3388"/>
<ellipse fill="none" stroke="#000000" cx="494.6073" cy="-269.5943" rx="3.2" ry="3.2"/>
</g>
<!-- act_re_model&#45;&gt;act_re_deployment -->
<g id="edge2" class="edge">
<title>act_re_model:w&#45;&gt;act_re_deployment:e</title>
<path fill="none" stroke="#000000" d="M490.8001,-294.4354C412.3583,-296.9712 384.5888,-318.6916 303,-295.2 281.3147,-288.9562 282.5662,-268.2 260,-268.2"/>
<polygon fill="#000000" stroke="#000000" points="497.501,-294.3281 505.5577,-297.7995 501.5005,-294.2641 505.5,-294.2 505.5,-294.2 505.5,-294.2 501.5005,-294.2641 505.4423,-290.6005 497.501,-294.3281 497.501,-294.3281"/>
<ellipse fill="none" stroke="#000000" cx="494.3014" cy="-294.3794" rx="3.2" ry="3.2"/>
</g>
</g>
</svg>
