<?xml version="1.0" encoding="UTF-8" standalone="no"?>
<!DOCTYPE svg PUBLIC "-//W3C//DTD SVG 1.1//EN"
 "http://www.w3.org/Graphics/SVG/1.1/DTD/svg11.dtd">
<!-- Generated by graphviz version 2.40.1 (20161225.0304)
 -->
<!-- Title: oneDegreeRelationshipsDiagram Pages: 1 -->
<svg width="401pt" height="237pt"
 viewBox="0.00 0.00 401.00 237.20" xmlns="http://www.w3.org/2000/svg" xmlns:xlink="http://www.w3.org/1999/xlink">
<g id="graph0" class="graph" transform="scale(1 1) rotate(0) translate(4 233.2)">
<title>oneDegreeRelationshipsDiagram</title>
<polygon fill="#ffffff" stroke="transparent" points="-4,4 -4,-233.2 397,-233.2 397,4 -4,4"/>
<text text-anchor="middle" x="72.4936" y="-7.3" font-family="Helvetica,sans-Serif" font-size="11.00" fill="#000000">Generated by SchemaSpy</text>
<!-- act_id_membership -->
<g id="node1" class="node">
<title>act_id_membership</title>
<g id="a_node1"><a xlink:href="../../tables/act_id_membership.html" xlink:title="act_id_membership" target="_top">
<polygon fill="#ffffff" stroke="transparent" points="177,-95.7 177,-185.7 385,-185.7 385,-95.7 177,-95.7"/>
<polygon fill="#f5f5f5" stroke="transparent" points="179,-160.7 179,-183.7 383,-183.7 383,-160.7 179,-160.7"/>
<polygon fill="none" stroke="#000000" points="179,-160.7 179,-183.7 383,-183.7 383,-160.7 179,-160.7"/>
<text text-anchor="start" x="184" y="-169.3" font-family="Helvetica,sans-Serif" font-weight="bold" font-size="11.00" fill="#000000">act_id_membership</text>
<text text-anchor="start" x="348.0437" y="-168.8" font-family="Helvetica,sans-Serif" font-size="11.00" fill="#000000">[table]</text>
<polygon fill="none" stroke="#000000" points="179,-138.7 179,-160.7 322,-160.7 322,-138.7 179,-138.7"/>
<image xlink:href="../../images/primaryKeys.png" width="11px" height="12px" preserveAspectRatio="xMinYMin meet" x="184" y="-155.7"/>
<text text-anchor="start" x="199" y="-145.8" font-family="Helvetica,sans-Serif" font-size="11.00" fill="#000000">user_id_</text>
<polygon fill="none" stroke="#000000" points="322,-138.7 322,-160.7 383,-160.7 383,-138.7 322,-138.7"/>
<text text-anchor="start" x="324.994" y="-146.4" font-family="Helvetica,sans-Serif" font-size="11.00" fill="#000000">varchar[64]</text>
<polygon fill="none" stroke="#000000" points="179,-116.7 179,-138.7 322,-138.7 322,-116.7 179,-116.7"/>
<image xlink:href="../../images/primaryKeys.png" width="11px" height="12px" preserveAspectRatio="xMinYMin meet" x="184" y="-133.7"/>
<text text-anchor="start" x="199" y="-123.8" font-family="Helvetica,sans-Serif" font-size="11.00" fill="#000000">group_id_</text>
<polygon fill="none" stroke="#000000" points="322,-116.7 322,-138.7 383,-138.7 383,-116.7 322,-116.7"/>
<text text-anchor="start" x="324.994" y="-124.4" font-family="Helvetica,sans-Serif" font-size="11.00" fill="#000000">varchar[64]</text>
<polygon fill="#ffffff" stroke="transparent" points="179,-97.7 179,-116.7 383,-116.7 383,-97.7 179,-97.7"/>
<polygon fill="none" stroke="#000000" points="179,-97.7 179,-116.7 383,-116.7 383,-97.7 179,-97.7"/>
<polygon fill="#ffffff" stroke="transparent" points="180,-98.7 180,-115.7 251,-115.7 251,-98.7 180,-98.7"/>
<text text-anchor="start" x="182" y="-103.8" font-family="Helvetica,sans-Serif" font-size="11.00" fill="#000000">&lt; 2</text>
<polygon fill="#ffffff" stroke="transparent" points="251,-98.7 251,-115.7 312,-115.7 312,-98.7 251,-98.7"/>
<text text-anchor="start" x="278.4431" y="-103.8" font-family="Helvetica,sans-Serif" font-size="11.00" fill="#000000"> &#160;</text>
<polygon fill="#ffffff" stroke="transparent" points="312,-98.7 312,-115.7 382,-115.7 382,-98.7 312,-98.7"/>
<text text-anchor="start" x="364.4053" y="-103.8" font-family="Helvetica,sans-Serif" font-size="11.00" fill="#000000">0 &gt;</text>
<polygon fill="#000000" stroke="#000000" points="251,-98.7 251,-115.7 251,-115.7 251,-98.7 251,-98.7"/>
<polygon fill="#000000" stroke="#000000" points="312,-98.7 312,-115.7 312,-115.7 312,-98.7 312,-98.7"/>
<polygon fill="none" stroke="#000000" stroke-width="2" points="178,-96.7 178,-184.7 384,-184.7 384,-96.7 178,-96.7"/>
</a>
</g>
</g>
<!-- act_id_group -->
<g id="node2" class="node">
<title>act_id_group</title>
<g id="a_node2"><a xlink:href="../../tables/act_id_group.html" xlink:title="act_id_group" target="_top">
<polygon fill="#ffffff" stroke="transparent" points="8,-38.2 8,-121.2 128,-121.2 128,-38.2 8,-38.2"/>
<polygon fill="#f5f5f5" stroke="transparent" points="8,-97.7 8,-120.7 128,-120.7 128,-97.7 8,-97.7"/>
<polygon fill="none" stroke="#000000" points="8,-97.7 8,-120.7 128,-120.7 128,-97.7 8,-97.7"/>
<text text-anchor="start" x="13" y="-106.3" font-family="Helvetica,sans-Serif" font-weight="bold" font-size="11.00" fill="#000000">act_id_group</text>
<text text-anchor="start" x="93.5219" y="-105.8" font-family="Helvetica,sans-Serif" font-size="11.00" fill="#000000">[table]</text>
<polygon fill="none" stroke="#000000" points="8,-75.7 8,-97.7 128,-97.7 128,-75.7 8,-75.7"/>
<image xlink:href="../../images/primaryKeys.png" width="11px" height="12px" preserveAspectRatio="xMinYMin meet" x="13" y="-92.7"/>
<text text-anchor="start" x="37" y="-82.8" font-family="Helvetica,sans-Serif" font-size="11.00" fill="#000000">id_</text>
<polygon fill="none" stroke="#000000" points="8,-56.7 8,-75.7 128,-75.7 128,-56.7 8,-56.7"/>
<text text-anchor="start" x="11" y="-62.8" font-family="Helvetica,sans-Serif" font-size="11.00" fill="#000000">...</text>
<polygon fill="#ffffff" stroke="transparent" points="8,-37.7 8,-56.7 128,-56.7 128,-37.7 8,-37.7"/>
<polygon fill="none" stroke="#000000" points="8,-37.7 8,-56.7 128,-56.7 128,-37.7 8,-37.7"/>
<polygon fill="#ffffff" stroke="transparent" points="9,-38.7 9,-55.7 46,-55.7 46,-38.7 9,-38.7"/>
<text text-anchor="start" x="11" y="-43.8" font-family="Helvetica,sans-Serif" font-size="11.00" fill="#000000"> &#160;</text>
<polygon fill="#ffffff" stroke="transparent" points="46,-38.7 46,-55.7 82,-55.7 82,-38.7 46,-38.7"/>
<text text-anchor="start" x="60.9431" y="-43.8" font-family="Helvetica,sans-Serif" font-size="11.00" fill="#000000"> &#160;</text>
<polygon fill="#ffffff" stroke="transparent" points="82,-38.7 82,-55.7 127,-55.7 127,-38.7 82,-38.7"/>
<text text-anchor="start" x="109.4053" y="-43.8" font-family="Helvetica,sans-Serif" font-size="11.00" fill="#000000">1 &gt;</text>
<polygon fill="#000000" stroke="#000000" points="46,-38.7 46,-55.7 46,-55.7 46,-38.7 46,-38.7"/>
<polygon fill="#000000" stroke="#000000" points="82,-38.7 82,-55.7 82,-55.7 82,-38.7 82,-38.7"/>
</a>
</g>
</g>
<!-- act_id_membership&#45;&gt;act_id_group -->
<g id="edge1" class="edge">
<title>act_id_membership:w&#45;&gt;act_id_group:e</title>
<path fill="none" stroke="#000000" d="M165.1568,-123.3123C151.3325,-112.7354 151.1756,-86.7 128,-86.7"/>
<polygon fill="#000000" stroke="#000000" points="171.3739,-125.2828 177.9123,-131.1317 175.1869,-126.4914 179,-127.7 179,-127.7 179,-127.7 175.1869,-126.4914 180.0877,-124.2683 171.3739,-125.2828 171.3739,-125.2828"/>
<ellipse fill="none" stroke="#000000" cx="168.3235" cy="-124.3159" rx="3.2" ry="3.2"/>
</g>
<!-- act_id_user -->
<g id="node3" class="node">
<title>act_id_user</title>
<g id="a_node3"><a xlink:href="../../tables/act_id_user.html" xlink:title="act_id_user" target="_top">
<polygon fill="#ffffff" stroke="transparent" points="11,-142.2 11,-225.2 125,-225.2 125,-142.2 11,-142.2"/>
<polygon fill="#f5f5f5" stroke="transparent" points="11,-201.7 11,-224.7 125,-224.7 125,-201.7 11,-201.7"/>
<polygon fill="none" stroke="#000000" points="11,-201.7 11,-224.7 125,-224.7 125,-201.7 11,-201.7"/>
<text text-anchor="start" x="16" y="-210.3" font-family="Helvetica,sans-Serif" font-weight="bold" font-size="11.00" fill="#000000">act_id_user</text>
<text text-anchor="start" x="90.0437" y="-209.8" font-family="Helvetica,sans-Serif" font-size="11.00" fill="#000000">[table]</text>
<polygon fill="none" stroke="#000000" points="11,-179.7 11,-201.7 125,-201.7 125,-179.7 11,-179.7"/>
<image xlink:href="../../images/primaryKeys.png" width="11px" height="12px" preserveAspectRatio="xMinYMin meet" x="16" y="-196.7"/>
<text text-anchor="start" x="31" y="-186.8" font-family="Helvetica,sans-Serif" font-size="11.00" fill="#000000">id_</text>
<polygon fill="none" stroke="#000000" points="11,-160.7 11,-179.7 125,-179.7 125,-160.7 11,-160.7"/>
<text text-anchor="start" x="14" y="-166.8" font-family="Helvetica,sans-Serif" font-size="11.00" fill="#000000">...</text>
<polygon fill="#ffffff" stroke="transparent" points="11,-141.7 11,-160.7 125,-160.7 125,-141.7 11,-141.7"/>
<polygon fill="none" stroke="#000000" points="11,-141.7 11,-160.7 125,-160.7 125,-141.7 11,-141.7"/>
<polygon fill="#ffffff" stroke="transparent" points="12,-142.7 12,-159.7 47,-159.7 47,-142.7 12,-142.7"/>
<text text-anchor="start" x="14" y="-147.8" font-family="Helvetica,sans-Serif" font-size="11.00" fill="#000000"> &#160;</text>
<polygon fill="#ffffff" stroke="transparent" points="47,-142.7 47,-159.7 81,-159.7 81,-142.7 47,-142.7"/>
<text text-anchor="start" x="60.9431" y="-147.8" font-family="Helvetica,sans-Serif" font-size="11.00" fill="#000000"> &#160;</text>
<polygon fill="#ffffff" stroke="transparent" points="81,-142.7 81,-159.7 124,-159.7 124,-142.7 81,-142.7"/>
<text text-anchor="start" x="106.4053" y="-147.8" font-family="Helvetica,sans-Serif" font-size="11.00" fill="#000000">1 &gt;</text>
<polygon fill="#000000" stroke="#000000" points="47,-142.7 47,-159.7 47,-159.7 47,-142.7 47,-142.7"/>
<polygon fill="#000000" stroke="#000000" points="81,-142.7 81,-159.7 81,-159.7 81,-142.7 81,-142.7"/>
</a>
</g>
</g>
<!-- act_id_membership&#45;&gt;act_id_user -->
<g id="edge2" class="edge">
<title>act_id_membership:w&#45;&gt;act_id_user:e</title>
<path fill="none" stroke="#000000" d="M164.9668,-153.7811C149.9259,-164.1516 149.2483,-190.7 125,-190.7"/>
<polygon fill="#000000" stroke="#000000" points="171.3183,-151.934 180.0053,-153.1568 175.1591,-150.817 179,-149.7 179,-149.7 179,-149.7 175.1591,-150.817 177.9947,-146.2432 171.3183,-151.934 171.3183,-151.934"/>
<ellipse fill="none" stroke="#000000" cx="168.2456" cy="-152.8277" rx="3.2" ry="3.2"/>
</g>
</g>
</svg>
