<?xml version="1.0" encoding="UTF-8" standalone="no"?>
<!DOCTYPE svg PUBLIC "-//W3C//DTD SVG 1.1//EN"
 "http://www.w3.org/Graphics/SVG/1.1/DTD/svg11.dtd">
<!-- Generated by graphviz version 2.40.1 (20161225.0304)
 -->
<!-- Title: oneDegreeRelationshipsDiagram Pages: 1 -->
<svg width="215pt" height="272pt"
 viewBox="0.00 0.00 215.00 272.20" xmlns="http://www.w3.org/2000/svg" xmlns:xlink="http://www.w3.org/1999/xlink">
<g id="graph0" class="graph" transform="scale(1 1) rotate(0) translate(4 268.2)">
<title>oneDegreeRelationshipsDiagram</title>
<polygon fill="#ffffff" stroke="transparent" points="-4,4 -4,-268.2 211,-268.2 211,4 -4,4"/>
<text text-anchor="middle" x="72.4936" y="-7.3" font-family="Helvetica,sans-Serif" font-size="11.00" fill="#000000">Generated by SchemaSpy</text>
<!-- act_id_token -->
<g id="node1" class="node">
<title>act_id_token</title>
<g id="a_node1"><a xlink:href="../../tables/act_id_token.html" xlink:title="act_id_token" target="_top">
<polygon fill="#ffffff" stroke="transparent" points="8,-38.2 8,-260.2 199,-260.2 199,-38.2 8,-38.2"/>
<polygon fill="#f5f5f5" stroke="transparent" points="10.5,-235.2 10.5,-258.2 197.5,-258.2 197.5,-235.2 10.5,-235.2"/>
<polygon fill="none" stroke="#000000" points="10.5,-235.2 10.5,-258.2 197.5,-258.2 197.5,-235.2 10.5,-235.2"/>
<text text-anchor="start" x="15.5" y="-243.8" font-family="Helvetica,sans-Serif" font-weight="bold" font-size="11.00" fill="#000000">act_id_token</text>
<text text-anchor="start" x="162.5437" y="-243.3" font-family="Helvetica,sans-Serif" font-size="11.00" fill="#000000">[table]</text>
<polygon fill="none" stroke="#000000" points="10.5,-213.2 10.5,-235.2 113.5,-235.2 113.5,-213.2 10.5,-213.2"/>
<image xlink:href="../../images/primaryKeys.png" width="11px" height="12px" preserveAspectRatio="xMinYMin meet" x="15.5" y="-230.2"/>
<text text-anchor="start" x="30.5" y="-220.3" font-family="Helvetica,sans-Serif" font-size="11.00" fill="#000000">id_</text>
<polygon fill="none" stroke="#000000" points="113.5,-213.2 113.5,-235.2 197.5,-235.2 197.5,-213.2 113.5,-213.2"/>
<text text-anchor="start" x="116.5" y="-220.9" font-family="Helvetica,sans-Serif" font-size="11.00" fill="#000000">varchar[64]</text>
<polygon fill="none" stroke="#000000" points="10.5,-191.2 10.5,-213.2 113.5,-213.2 113.5,-191.2 10.5,-191.2"/>
<text text-anchor="start" x="30.5" y="-198.3" font-family="Helvetica,sans-Serif" font-size="11.00" fill="#000000">rev_</text>
<polygon fill="none" stroke="#000000" points="113.5,-191.2 113.5,-213.2 197.5,-213.2 197.5,-191.2 113.5,-191.2"/>
<text text-anchor="start" x="116.5" y="-198.9" font-family="Helvetica,sans-Serif" font-size="11.00" fill="#000000">int4[10]</text>
<polygon fill="none" stroke="#000000" points="10.5,-169.2 10.5,-191.2 113.5,-191.2 113.5,-169.2 10.5,-169.2"/>
<text text-anchor="start" x="30.5" y="-176.3" font-family="Helvetica,sans-Serif" font-size="11.00" fill="#000000">token_value_</text>
<polygon fill="none" stroke="#000000" points="113.5,-169.2 113.5,-191.2 197.5,-191.2 197.5,-169.2 113.5,-169.2"/>
<text text-anchor="start" x="116.5" y="-176.9" font-family="Helvetica,sans-Serif" font-size="11.00" fill="#000000">varchar[255]</text>
<polygon fill="none" stroke="#000000" points="10.5,-147.2 10.5,-169.2 113.5,-169.2 113.5,-147.2 10.5,-147.2"/>
<text text-anchor="start" x="30.5" y="-154.3" font-family="Helvetica,sans-Serif" font-size="11.00" fill="#000000">token_date_</text>
<polygon fill="none" stroke="#000000" points="113.5,-147.2 113.5,-169.2 197.5,-169.2 197.5,-147.2 113.5,-147.2"/>
<text text-anchor="start" x="116.3807" y="-154.9" font-family="Helvetica,sans-Serif" font-size="11.00" fill="#000000">timestamp[29,6]</text>
<polygon fill="none" stroke="#000000" points="10.5,-125.2 10.5,-147.2 113.5,-147.2 113.5,-125.2 10.5,-125.2"/>
<text text-anchor="start" x="30.5" y="-132.3" font-family="Helvetica,sans-Serif" font-size="11.00" fill="#000000">ip_address_</text>
<polygon fill="none" stroke="#000000" points="113.5,-125.2 113.5,-147.2 197.5,-147.2 197.5,-125.2 113.5,-125.2"/>
<text text-anchor="start" x="116.5" y="-132.9" font-family="Helvetica,sans-Serif" font-size="11.00" fill="#000000">varchar[255]</text>
<polygon fill="none" stroke="#000000" points="10.5,-103.2 10.5,-125.2 113.5,-125.2 113.5,-103.2 10.5,-103.2"/>
<text text-anchor="start" x="30.5" y="-110.3" font-family="Helvetica,sans-Serif" font-size="11.00" fill="#000000">user_agent_</text>
<polygon fill="none" stroke="#000000" points="113.5,-103.2 113.5,-125.2 197.5,-125.2 197.5,-103.2 113.5,-103.2"/>
<text text-anchor="start" x="116.5" y="-110.9" font-family="Helvetica,sans-Serif" font-size="11.00" fill="#000000">varchar[255]</text>
<polygon fill="none" stroke="#000000" points="10.5,-81.2 10.5,-103.2 113.5,-103.2 113.5,-81.2 10.5,-81.2"/>
<text text-anchor="start" x="30.5" y="-88.3" font-family="Helvetica,sans-Serif" font-size="11.00" fill="#000000">user_id_</text>
<polygon fill="none" stroke="#000000" points="113.5,-81.2 113.5,-103.2 197.5,-103.2 197.5,-81.2 113.5,-81.2"/>
<text text-anchor="start" x="116.5" y="-88.9" font-family="Helvetica,sans-Serif" font-size="11.00" fill="#000000">varchar[255]</text>
<polygon fill="none" stroke="#000000" points="10.5,-59.2 10.5,-81.2 113.5,-81.2 113.5,-59.2 10.5,-59.2"/>
<text text-anchor="start" x="30.5" y="-66.3" font-family="Helvetica,sans-Serif" font-size="11.00" fill="#000000">token_data_</text>
<polygon fill="none" stroke="#000000" points="113.5,-59.2 113.5,-81.2 197.5,-81.2 197.5,-59.2 113.5,-59.2"/>
<text text-anchor="start" x="116.5" y="-66.9" font-family="Helvetica,sans-Serif" font-size="11.00" fill="#000000">varchar[2000]</text>
<polygon fill="#ffffff" stroke="transparent" points="10.5,-40.2 10.5,-59.2 197.5,-59.2 197.5,-40.2 10.5,-40.2"/>
<polygon fill="none" stroke="#000000" points="10.5,-40.2 10.5,-59.2 197.5,-59.2 197.5,-40.2 10.5,-40.2"/>
<polygon fill="#ffffff" stroke="transparent" points="11.5,-41.2 11.5,-58.2 76.5,-58.2 76.5,-41.2 11.5,-41.2"/>
<text text-anchor="start" x="13.5" y="-46.3" font-family="Helvetica,sans-Serif" font-size="11.00" fill="#000000">&lt; 0</text>
<polygon fill="#ffffff" stroke="transparent" points="76.5,-41.2 76.5,-58.2 132.5,-58.2 132.5,-41.2 76.5,-41.2"/>
<text text-anchor="start" x="101.4431" y="-46.3" font-family="Helvetica,sans-Serif" font-size="11.00" fill="#000000"> &#160;</text>
<polygon fill="#ffffff" stroke="transparent" points="132.5,-41.2 132.5,-58.2 196.5,-58.2 196.5,-41.2 132.5,-41.2"/>
<text text-anchor="start" x="178.9053" y="-46.3" font-family="Helvetica,sans-Serif" font-size="11.00" fill="#000000">0 &gt;</text>
<polygon fill="#000000" stroke="#000000" points="76.5,-41.2 76.5,-58.2 76.5,-58.2 76.5,-41.2 76.5,-41.2"/>
<polygon fill="#000000" stroke="#000000" points="132.5,-41.2 132.5,-58.2 132.5,-58.2 132.5,-41.2 132.5,-41.2"/>
<polygon fill="none" stroke="#000000" stroke-width="2" points="9,-39.2 9,-259.2 198,-259.2 198,-39.2 9,-39.2"/>
</a>
</g>
</g>
</g>
</svg>
