<?xml version="1.0" encoding="UTF-8" standalone="no"?>
<!DOCTYPE svg PUBLIC "-//W3C//DTD SVG 1.1//EN"
 "http://www.w3.org/Graphics/SVG/1.1/DTD/svg11.dtd">
<!-- Generated by graphviz version 2.40.1 (20161225.0304)
 -->
<!-- Title: oneDegreeRelationshipsDiagram Pages: 1 -->
<svg width="286pt" height="404pt"
 viewBox="0.00 0.00 286.00 404.20" xmlns="http://www.w3.org/2000/svg" xmlns:xlink="http://www.w3.org/1999/xlink">
<g id="graph0" class="graph" transform="scale(1 1) rotate(0) translate(4 400.2)">
<title>oneDegreeRelationshipsDiagram</title>
<polygon fill="#ffffff" stroke="transparent" points="-4,4 -4,-400.2 282,-400.2 282,4 -4,4"/>
<text text-anchor="middle" x="72.4936" y="-7.3" font-family="Helvetica,sans-Serif" font-size="11.00" fill="#000000">Generated by SchemaSpy</text>
<!-- act_hi_entitylink -->
<g id="node1" class="node">
<title>act_hi_entitylink</title>
<g id="a_node1"><a xlink:href="../../tables/act_hi_entitylink.html" xlink:title="act_hi_entitylink" target="_top">
<polygon fill="#ffffff" stroke="transparent" points="8,-38.2 8,-392.2 270,-392.2 270,-38.2 8,-38.2"/>
<polygon fill="#f5f5f5" stroke="transparent" points="10,-367.2 10,-390.2 268,-390.2 268,-367.2 10,-367.2"/>
<polygon fill="none" stroke="#000000" points="10,-367.2 10,-390.2 268,-390.2 268,-367.2 10,-367.2"/>
<text text-anchor="start" x="15" y="-375.8" font-family="Helvetica,sans-Serif" font-weight="bold" font-size="11.00" fill="#000000">act_hi_entitylink</text>
<text text-anchor="start" x="233.0437" y="-375.3" font-family="Helvetica,sans-Serif" font-size="11.00" fill="#000000">[table]</text>
<polygon fill="none" stroke="#000000" points="10,-345.2 10,-367.2 184,-367.2 184,-345.2 10,-345.2"/>
<image xlink:href="../../images/primaryKeys.png" width="11px" height="12px" preserveAspectRatio="xMinYMin meet" x="15" y="-362.2"/>
<text text-anchor="start" x="30" y="-352.3" font-family="Helvetica,sans-Serif" font-size="11.00" fill="#000000">id_</text>
<polygon fill="none" stroke="#000000" points="184,-345.2 184,-367.2 268,-367.2 268,-345.2 184,-345.2"/>
<text text-anchor="start" x="187" y="-352.9" font-family="Helvetica,sans-Serif" font-size="11.00" fill="#000000">varchar[64]</text>
<polygon fill="#ffffff" stroke="transparent" points="10,-323.2 10,-345.2 184,-345.2 184,-323.2 10,-323.2"/>
<polygon fill="none" stroke="#000000" points="10,-323.2 10,-345.2 184,-345.2 184,-323.2 10,-323.2"/>
<text text-anchor="start" x="30" y="-330.3" font-family="Helvetica,sans-Serif" font-size="11.00" fill="#000000">link_type_</text>
<polygon fill="none" stroke="#000000" points="184,-323.2 184,-345.2 268,-345.2 268,-323.2 184,-323.2"/>
<text text-anchor="start" x="187" y="-330.9" font-family="Helvetica,sans-Serif" font-size="11.00" fill="#000000">varchar[255]</text>
<polygon fill="none" stroke="#000000" points="10,-301.2 10,-323.2 184,-323.2 184,-301.2 10,-301.2"/>
<text text-anchor="start" x="30" y="-308.3" font-family="Helvetica,sans-Serif" font-size="11.00" fill="#000000">create_time_</text>
<polygon fill="none" stroke="#000000" points="184,-301.2 184,-323.2 268,-323.2 268,-301.2 184,-301.2"/>
<text text-anchor="start" x="186.8807" y="-308.9" font-family="Helvetica,sans-Serif" font-size="11.00" fill="#000000">timestamp[29,6]</text>
<polygon fill="#ffffff" stroke="transparent" points="10,-279.2 10,-301.2 184,-301.2 184,-279.2 10,-279.2"/>
<polygon fill="none" stroke="#000000" points="10,-279.2 10,-301.2 184,-301.2 184,-279.2 10,-279.2"/>
<text text-anchor="start" x="30" y="-286.3" font-family="Helvetica,sans-Serif" font-size="11.00" fill="#000000">scope_id_</text>
<polygon fill="none" stroke="#000000" points="184,-279.2 184,-301.2 268,-301.2 268,-279.2 184,-279.2"/>
<text text-anchor="start" x="187" y="-286.9" font-family="Helvetica,sans-Serif" font-size="11.00" fill="#000000">varchar[255]</text>
<polygon fill="none" stroke="#000000" points="10,-257.2 10,-279.2 184,-279.2 184,-257.2 10,-257.2"/>
<text text-anchor="start" x="30" y="-264.3" font-family="Helvetica,sans-Serif" font-size="11.00" fill="#000000">sub_scope_id_</text>
<polygon fill="none" stroke="#000000" points="184,-257.2 184,-279.2 268,-279.2 268,-257.2 184,-257.2"/>
<text text-anchor="start" x="187" y="-264.9" font-family="Helvetica,sans-Serif" font-size="11.00" fill="#000000">varchar[255]</text>
<polygon fill="#ffffff" stroke="transparent" points="10,-235.2 10,-257.2 184,-257.2 184,-235.2 10,-235.2"/>
<polygon fill="none" stroke="#000000" points="10,-235.2 10,-257.2 184,-257.2 184,-235.2 10,-235.2"/>
<text text-anchor="start" x="30" y="-242.3" font-family="Helvetica,sans-Serif" font-size="11.00" fill="#000000">scope_type_</text>
<polygon fill="none" stroke="#000000" points="184,-235.2 184,-257.2 268,-257.2 268,-235.2 184,-235.2"/>
<text text-anchor="start" x="187" y="-242.9" font-family="Helvetica,sans-Serif" font-size="11.00" fill="#000000">varchar[255]</text>
<polygon fill="#ffffff" stroke="transparent" points="10,-213.2 10,-235.2 184,-235.2 184,-213.2 10,-213.2"/>
<polygon fill="none" stroke="#000000" points="10,-213.2 10,-235.2 184,-235.2 184,-213.2 10,-213.2"/>
<text text-anchor="start" x="30" y="-220.3" font-family="Helvetica,sans-Serif" font-size="11.00" fill="#000000">scope_definition_id_</text>
<polygon fill="none" stroke="#000000" points="184,-213.2 184,-235.2 268,-235.2 268,-213.2 184,-213.2"/>
<text text-anchor="start" x="187" y="-220.9" font-family="Helvetica,sans-Serif" font-size="11.00" fill="#000000">varchar[255]</text>
<polygon fill="none" stroke="#000000" points="10,-191.2 10,-213.2 184,-213.2 184,-191.2 10,-191.2"/>
<text text-anchor="start" x="30" y="-198.3" font-family="Helvetica,sans-Serif" font-size="11.00" fill="#000000">parent_element_id_</text>
<polygon fill="none" stroke="#000000" points="184,-191.2 184,-213.2 268,-213.2 268,-191.2 184,-191.2"/>
<text text-anchor="start" x="187" y="-198.9" font-family="Helvetica,sans-Serif" font-size="11.00" fill="#000000">varchar[255]</text>
<polygon fill="#ffffff" stroke="transparent" points="10,-169.2 10,-191.2 184,-191.2 184,-169.2 10,-169.2"/>
<polygon fill="none" stroke="#000000" points="10,-169.2 10,-191.2 184,-191.2 184,-169.2 10,-169.2"/>
<text text-anchor="start" x="30" y="-176.3" font-family="Helvetica,sans-Serif" font-size="11.00" fill="#000000">ref_scope_id_</text>
<polygon fill="none" stroke="#000000" points="184,-169.2 184,-191.2 268,-191.2 268,-169.2 184,-169.2"/>
<text text-anchor="start" x="187" y="-176.9" font-family="Helvetica,sans-Serif" font-size="11.00" fill="#000000">varchar[255]</text>
<polygon fill="#ffffff" stroke="transparent" points="10,-147.2 10,-169.2 184,-169.2 184,-147.2 10,-147.2"/>
<polygon fill="none" stroke="#000000" points="10,-147.2 10,-169.2 184,-169.2 184,-147.2 10,-147.2"/>
<text text-anchor="start" x="30" y="-154.3" font-family="Helvetica,sans-Serif" font-size="11.00" fill="#000000">ref_scope_type_</text>
<polygon fill="none" stroke="#000000" points="184,-147.2 184,-169.2 268,-169.2 268,-147.2 184,-147.2"/>
<text text-anchor="start" x="187" y="-154.9" font-family="Helvetica,sans-Serif" font-size="11.00" fill="#000000">varchar[255]</text>
<polygon fill="none" stroke="#000000" points="10,-125.2 10,-147.2 184,-147.2 184,-125.2 10,-125.2"/>
<text text-anchor="start" x="30" y="-132.3" font-family="Helvetica,sans-Serif" font-size="11.00" fill="#000000">ref_scope_definition_id_</text>
<polygon fill="none" stroke="#000000" points="184,-125.2 184,-147.2 268,-147.2 268,-125.2 184,-125.2"/>
<text text-anchor="start" x="187" y="-132.9" font-family="Helvetica,sans-Serif" font-size="11.00" fill="#000000">varchar[255]</text>
<polygon fill="#ffffff" stroke="transparent" points="10,-103.2 10,-125.2 184,-125.2 184,-103.2 10,-103.2"/>
<polygon fill="none" stroke="#000000" points="10,-103.2 10,-125.2 184,-125.2 184,-103.2 10,-103.2"/>
<text text-anchor="start" x="30" y="-110.3" font-family="Helvetica,sans-Serif" font-size="11.00" fill="#000000">root_scope_id_</text>
<polygon fill="none" stroke="#000000" points="184,-103.2 184,-125.2 268,-125.2 268,-103.2 184,-103.2"/>
<text text-anchor="start" x="187" y="-110.9" font-family="Helvetica,sans-Serif" font-size="11.00" fill="#000000">varchar[255]</text>
<polygon fill="#ffffff" stroke="transparent" points="10,-81.2 10,-103.2 184,-103.2 184,-81.2 10,-81.2"/>
<polygon fill="none" stroke="#000000" points="10,-81.2 10,-103.2 184,-103.2 184,-81.2 10,-81.2"/>
<text text-anchor="start" x="30" y="-88.3" font-family="Helvetica,sans-Serif" font-size="11.00" fill="#000000">root_scope_type_</text>
<polygon fill="none" stroke="#000000" points="184,-81.2 184,-103.2 268,-103.2 268,-81.2 184,-81.2"/>
<text text-anchor="start" x="187" y="-88.9" font-family="Helvetica,sans-Serif" font-size="11.00" fill="#000000">varchar[255]</text>
<polygon fill="none" stroke="#000000" points="10,-59.2 10,-81.2 184,-81.2 184,-59.2 10,-59.2"/>
<text text-anchor="start" x="30" y="-66.3" font-family="Helvetica,sans-Serif" font-size="11.00" fill="#000000">hierarchy_type_</text>
<polygon fill="none" stroke="#000000" points="184,-59.2 184,-81.2 268,-81.2 268,-59.2 184,-59.2"/>
<text text-anchor="start" x="187" y="-66.9" font-family="Helvetica,sans-Serif" font-size="11.00" fill="#000000">varchar[255]</text>
<polygon fill="#ffffff" stroke="transparent" points="10,-40.2 10,-59.2 268,-59.2 268,-40.2 10,-40.2"/>
<polygon fill="none" stroke="#000000" points="10,-40.2 10,-59.2 268,-59.2 268,-40.2 10,-40.2"/>
<polygon fill="#ffffff" stroke="transparent" points="11,-41.2 11,-58.2 100,-58.2 100,-41.2 11,-41.2"/>
<text text-anchor="start" x="13" y="-46.3" font-family="Helvetica,sans-Serif" font-size="11.00" fill="#000000">&lt; 0</text>
<polygon fill="#ffffff" stroke="transparent" points="100,-41.2 100,-58.2 179,-58.2 179,-41.2 100,-41.2"/>
<text text-anchor="start" x="136.4431" y="-46.3" font-family="Helvetica,sans-Serif" font-size="11.00" fill="#000000"> &#160;</text>
<polygon fill="#ffffff" stroke="transparent" points="179,-41.2 179,-58.2 267,-58.2 267,-41.2 179,-41.2"/>
<text text-anchor="start" x="249.4053" y="-46.3" font-family="Helvetica,sans-Serif" font-size="11.00" fill="#000000">0 &gt;</text>
<polygon fill="#000000" stroke="#000000" points="100,-41.2 100,-58.2 100,-58.2 100,-41.2 100,-41.2"/>
<polygon fill="#000000" stroke="#000000" points="179,-41.2 179,-58.2 179,-58.2 179,-41.2 179,-41.2"/>
<polygon fill="none" stroke="#000000" stroke-width="2" points="9,-39.2 9,-391.2 269,-391.2 269,-39.2 9,-39.2"/>
</a>
</g>
</g>
</g>
</svg>
