<?xml version="1.0" encoding="UTF-8" standalone="no"?>
<!DOCTYPE svg PUBLIC "-//W3C//DTD SVG 1.1//EN"
 "http://www.w3.org/Graphics/SVG/1.1/DTD/svg11.dtd">
<!-- Generated by graphviz version 2.40.1 (20161225.0304)
 -->
<!-- Title: oneDegreeRelationshipsDiagram Pages: 1 -->
<svg width="462pt" height="690pt"
 viewBox="0.00 0.00 462.00 690.20" xmlns="http://www.w3.org/2000/svg" xmlns:xlink="http://www.w3.org/1999/xlink">
<g id="graph0" class="graph" transform="scale(1 1) rotate(0) translate(4 686.2)">
<title>oneDegreeRelationshipsDiagram</title>
<polygon fill="#ffffff" stroke="transparent" points="-4,4 -4,-686.2 458,-686.2 458,4 -4,4"/>
<text text-anchor="middle" x="72.4936" y="-7.3" font-family="Helvetica,sans-Serif" font-size="11.00" fill="#000000">Generated by SchemaSpy</text>
<!-- act_ru_external_job -->
<g id="node1" class="node">
<title>act_ru_external_job</title>
<g id="a_node1"><a xlink:href="../../tables/act_ru_external_job.html" xlink:title="act_ru_external_job" target="_top">
<polygon fill="#ffffff" stroke="transparent" points="202,-38.2 202,-678.2 446,-678.2 446,-38.2 202,-38.2"/>
<polygon fill="#f5f5f5" stroke="transparent" points="204,-653.2 204,-676.2 444,-676.2 444,-653.2 204,-653.2"/>
<polygon fill="none" stroke="#000000" points="204,-653.2 204,-676.2 444,-676.2 444,-653.2 204,-653.2"/>
<text text-anchor="start" x="209" y="-661.8" font-family="Helvetica,sans-Serif" font-weight="bold" font-size="11.00" fill="#000000">act_ru_external_job</text>
<text text-anchor="start" x="409.0437" y="-661.3" font-family="Helvetica,sans-Serif" font-size="11.00" fill="#000000">[table]</text>
<polygon fill="none" stroke="#000000" points="204,-631.2 204,-653.2 360,-653.2 360,-631.2 204,-631.2"/>
<image xlink:href="../../images/primaryKeys.png" width="11px" height="12px" preserveAspectRatio="xMinYMin meet" x="209" y="-648.2"/>
<text text-anchor="start" x="224" y="-638.3" font-family="Helvetica,sans-Serif" font-size="11.00" fill="#000000">id_</text>
<polygon fill="none" stroke="#000000" points="360,-631.2 360,-653.2 444,-653.2 444,-631.2 360,-631.2"/>
<text text-anchor="start" x="363" y="-638.9" font-family="Helvetica,sans-Serif" font-size="11.00" fill="#000000">varchar[64]</text>
<polygon fill="none" stroke="#000000" points="204,-609.2 204,-631.2 360,-631.2 360,-609.2 204,-609.2"/>
<text text-anchor="start" x="224" y="-616.3" font-family="Helvetica,sans-Serif" font-size="11.00" fill="#000000">rev_</text>
<polygon fill="none" stroke="#000000" points="360,-609.2 360,-631.2 444,-631.2 444,-609.2 360,-609.2"/>
<text text-anchor="start" x="363" y="-616.9" font-family="Helvetica,sans-Serif" font-size="11.00" fill="#000000">int4[10]</text>
<polygon fill="none" stroke="#000000" points="204,-587.2 204,-609.2 360,-609.2 360,-587.2 204,-587.2"/>
<text text-anchor="start" x="224" y="-594.3" font-family="Helvetica,sans-Serif" font-size="11.00" fill="#000000">category_</text>
<polygon fill="none" stroke="#000000" points="360,-587.2 360,-609.2 444,-609.2 444,-587.2 360,-587.2"/>
<text text-anchor="start" x="363" y="-594.9" font-family="Helvetica,sans-Serif" font-size="11.00" fill="#000000">varchar[255]</text>
<polygon fill="none" stroke="#000000" points="204,-565.2 204,-587.2 360,-587.2 360,-565.2 204,-565.2"/>
<text text-anchor="start" x="224" y="-572.3" font-family="Helvetica,sans-Serif" font-size="11.00" fill="#000000">type_</text>
<polygon fill="none" stroke="#000000" points="360,-565.2 360,-587.2 444,-587.2 444,-565.2 360,-565.2"/>
<text text-anchor="start" x="363" y="-572.9" font-family="Helvetica,sans-Serif" font-size="11.00" fill="#000000">varchar[255]</text>
<polygon fill="none" stroke="#000000" points="204,-543.2 204,-565.2 360,-565.2 360,-543.2 204,-543.2"/>
<text text-anchor="start" x="224" y="-550.3" font-family="Helvetica,sans-Serif" font-size="11.00" fill="#000000">lock_exp_time_</text>
<polygon fill="none" stroke="#000000" points="360,-543.2 360,-565.2 444,-565.2 444,-543.2 360,-543.2"/>
<text text-anchor="start" x="362.8807" y="-550.9" font-family="Helvetica,sans-Serif" font-size="11.00" fill="#000000">timestamp[29,6]</text>
<polygon fill="none" stroke="#000000" points="204,-521.2 204,-543.2 360,-543.2 360,-521.2 204,-521.2"/>
<text text-anchor="start" x="224" y="-528.3" font-family="Helvetica,sans-Serif" font-size="11.00" fill="#000000">lock_owner_</text>
<polygon fill="none" stroke="#000000" points="360,-521.2 360,-543.2 444,-543.2 444,-521.2 360,-521.2"/>
<text text-anchor="start" x="363" y="-528.9" font-family="Helvetica,sans-Serif" font-size="11.00" fill="#000000">varchar[255]</text>
<polygon fill="none" stroke="#000000" points="204,-499.2 204,-521.2 360,-521.2 360,-499.2 204,-499.2"/>
<text text-anchor="start" x="224" y="-506.3" font-family="Helvetica,sans-Serif" font-size="11.00" fill="#000000">exclusive_</text>
<polygon fill="none" stroke="#000000" points="360,-499.2 360,-521.2 444,-521.2 444,-499.2 360,-499.2"/>
<text text-anchor="start" x="363" y="-506.9" font-family="Helvetica,sans-Serif" font-size="11.00" fill="#000000">bool[1]</text>
<polygon fill="none" stroke="#000000" points="204,-477.2 204,-499.2 360,-499.2 360,-477.2 204,-477.2"/>
<text text-anchor="start" x="224" y="-484.3" font-family="Helvetica,sans-Serif" font-size="11.00" fill="#000000">execution_id_</text>
<polygon fill="none" stroke="#000000" points="360,-477.2 360,-499.2 444,-499.2 444,-477.2 360,-477.2"/>
<text text-anchor="start" x="363" y="-484.9" font-family="Helvetica,sans-Serif" font-size="11.00" fill="#000000">varchar[64]</text>
<polygon fill="none" stroke="#000000" points="204,-455.2 204,-477.2 360,-477.2 360,-455.2 204,-455.2"/>
<text text-anchor="start" x="224" y="-462.3" font-family="Helvetica,sans-Serif" font-size="11.00" fill="#000000">process_instance_id_</text>
<polygon fill="none" stroke="#000000" points="360,-455.2 360,-477.2 444,-477.2 444,-455.2 360,-455.2"/>
<text text-anchor="start" x="363" y="-462.9" font-family="Helvetica,sans-Serif" font-size="11.00" fill="#000000">varchar[64]</text>
<polygon fill="none" stroke="#000000" points="204,-433.2 204,-455.2 360,-455.2 360,-433.2 204,-433.2"/>
<text text-anchor="start" x="224" y="-440.3" font-family="Helvetica,sans-Serif" font-size="11.00" fill="#000000">proc_def_id_</text>
<polygon fill="none" stroke="#000000" points="360,-433.2 360,-455.2 444,-455.2 444,-433.2 360,-433.2"/>
<text text-anchor="start" x="363" y="-440.9" font-family="Helvetica,sans-Serif" font-size="11.00" fill="#000000">varchar[64]</text>
<polygon fill="none" stroke="#000000" points="204,-411.2 204,-433.2 360,-433.2 360,-411.2 204,-411.2"/>
<text text-anchor="start" x="224" y="-418.3" font-family="Helvetica,sans-Serif" font-size="11.00" fill="#000000">element_id_</text>
<polygon fill="none" stroke="#000000" points="360,-411.2 360,-433.2 444,-433.2 444,-411.2 360,-411.2"/>
<text text-anchor="start" x="363" y="-418.9" font-family="Helvetica,sans-Serif" font-size="11.00" fill="#000000">varchar[255]</text>
<polygon fill="none" stroke="#000000" points="204,-389.2 204,-411.2 360,-411.2 360,-389.2 204,-389.2"/>
<text text-anchor="start" x="224" y="-396.3" font-family="Helvetica,sans-Serif" font-size="11.00" fill="#000000">element_name_</text>
<polygon fill="none" stroke="#000000" points="360,-389.2 360,-411.2 444,-411.2 444,-389.2 360,-389.2"/>
<text text-anchor="start" x="363" y="-396.9" font-family="Helvetica,sans-Serif" font-size="11.00" fill="#000000">varchar[255]</text>
<polygon fill="#ffffff" stroke="transparent" points="204,-367.2 204,-389.2 360,-389.2 360,-367.2 204,-367.2"/>
<polygon fill="none" stroke="#000000" points="204,-367.2 204,-389.2 360,-389.2 360,-367.2 204,-367.2"/>
<text text-anchor="start" x="224" y="-374.3" font-family="Helvetica,sans-Serif" font-size="11.00" fill="#000000">scope_id_</text>
<polygon fill="none" stroke="#000000" points="360,-367.2 360,-389.2 444,-389.2 444,-367.2 360,-367.2"/>
<text text-anchor="start" x="363" y="-374.9" font-family="Helvetica,sans-Serif" font-size="11.00" fill="#000000">varchar[255]</text>
<polygon fill="#ffffff" stroke="transparent" points="204,-345.2 204,-367.2 360,-367.2 360,-345.2 204,-345.2"/>
<polygon fill="none" stroke="#000000" points="204,-345.2 204,-367.2 360,-367.2 360,-345.2 204,-345.2"/>
<text text-anchor="start" x="224" y="-352.3" font-family="Helvetica,sans-Serif" font-size="11.00" fill="#000000">sub_scope_id_</text>
<polygon fill="none" stroke="#000000" points="360,-345.2 360,-367.2 444,-367.2 444,-345.2 360,-345.2"/>
<text text-anchor="start" x="363" y="-352.9" font-family="Helvetica,sans-Serif" font-size="11.00" fill="#000000">varchar[255]</text>
<polygon fill="#ffffff" stroke="transparent" points="204,-323.2 204,-345.2 360,-345.2 360,-323.2 204,-323.2"/>
<polygon fill="none" stroke="#000000" points="204,-323.2 204,-345.2 360,-345.2 360,-323.2 204,-323.2"/>
<text text-anchor="start" x="224" y="-330.3" font-family="Helvetica,sans-Serif" font-size="11.00" fill="#000000">scope_type_</text>
<polygon fill="none" stroke="#000000" points="360,-323.2 360,-345.2 444,-345.2 444,-323.2 360,-323.2"/>
<text text-anchor="start" x="363" y="-330.9" font-family="Helvetica,sans-Serif" font-size="11.00" fill="#000000">varchar[255]</text>
<polygon fill="#ffffff" stroke="transparent" points="204,-301.2 204,-323.2 360,-323.2 360,-301.2 204,-301.2"/>
<polygon fill="none" stroke="#000000" points="204,-301.2 204,-323.2 360,-323.2 360,-301.2 204,-301.2"/>
<text text-anchor="start" x="224" y="-308.3" font-family="Helvetica,sans-Serif" font-size="11.00" fill="#000000">scope_definition_id_</text>
<polygon fill="none" stroke="#000000" points="360,-301.2 360,-323.2 444,-323.2 444,-301.2 360,-301.2"/>
<text text-anchor="start" x="363" y="-308.9" font-family="Helvetica,sans-Serif" font-size="11.00" fill="#000000">varchar[255]</text>
<polygon fill="#ffffff" stroke="transparent" points="204,-279.2 204,-301.2 360,-301.2 360,-279.2 204,-279.2"/>
<polygon fill="none" stroke="#000000" points="204,-279.2 204,-301.2 360,-301.2 360,-279.2 204,-279.2"/>
<text text-anchor="start" x="224" y="-286.3" font-family="Helvetica,sans-Serif" font-size="11.00" fill="#000000">correlation_id_</text>
<polygon fill="none" stroke="#000000" points="360,-279.2 360,-301.2 444,-301.2 444,-279.2 360,-279.2"/>
<text text-anchor="start" x="363" y="-286.9" font-family="Helvetica,sans-Serif" font-size="11.00" fill="#000000">varchar[255]</text>
<polygon fill="none" stroke="#000000" points="204,-257.2 204,-279.2 360,-279.2 360,-257.2 204,-257.2"/>
<text text-anchor="start" x="224" y="-264.3" font-family="Helvetica,sans-Serif" font-size="11.00" fill="#000000">retries_</text>
<polygon fill="none" stroke="#000000" points="360,-257.2 360,-279.2 444,-279.2 444,-257.2 360,-257.2"/>
<text text-anchor="start" x="363" y="-264.9" font-family="Helvetica,sans-Serif" font-size="11.00" fill="#000000">int4[10]</text>
<polygon fill="#ffffff" stroke="transparent" points="204,-235.2 204,-257.2 360,-257.2 360,-235.2 204,-235.2"/>
<polygon fill="none" stroke="#000000" points="204,-235.2 204,-257.2 360,-257.2 360,-235.2 204,-235.2"/>
<image xlink:href="../../images/foreignKeys.png" width="11px" height="12px" preserveAspectRatio="xMinYMin meet" x="209" y="-252.2"/>
<text text-anchor="start" x="224" y="-242.3" font-family="Helvetica,sans-Serif" font-size="11.00" fill="#000000">exception_stack_id_</text>
<polygon fill="none" stroke="#000000" points="360,-235.2 360,-257.2 444,-257.2 444,-235.2 360,-235.2"/>
<text text-anchor="start" x="363" y="-242.9" font-family="Helvetica,sans-Serif" font-size="11.00" fill="#000000">varchar[64]</text>
<polygon fill="none" stroke="#000000" points="204,-213.2 204,-235.2 360,-235.2 360,-213.2 204,-213.2"/>
<text text-anchor="start" x="224" y="-220.3" font-family="Helvetica,sans-Serif" font-size="11.00" fill="#000000">exception_msg_</text>
<polygon fill="none" stroke="#000000" points="360,-213.2 360,-235.2 444,-235.2 444,-213.2 360,-213.2"/>
<text text-anchor="start" x="363" y="-220.9" font-family="Helvetica,sans-Serif" font-size="11.00" fill="#000000">varchar[4000]</text>
<polygon fill="none" stroke="#000000" points="204,-191.2 204,-213.2 360,-213.2 360,-191.2 204,-191.2"/>
<text text-anchor="start" x="224" y="-198.3" font-family="Helvetica,sans-Serif" font-size="11.00" fill="#000000">duedate_</text>
<polygon fill="none" stroke="#000000" points="360,-191.2 360,-213.2 444,-213.2 444,-191.2 360,-191.2"/>
<text text-anchor="start" x="362.8807" y="-198.9" font-family="Helvetica,sans-Serif" font-size="11.00" fill="#000000">timestamp[29,6]</text>
<polygon fill="none" stroke="#000000" points="204,-169.2 204,-191.2 360,-191.2 360,-169.2 204,-169.2"/>
<text text-anchor="start" x="224" y="-176.3" font-family="Helvetica,sans-Serif" font-size="11.00" fill="#000000">repeat_</text>
<polygon fill="none" stroke="#000000" points="360,-169.2 360,-191.2 444,-191.2 444,-169.2 360,-169.2"/>
<text text-anchor="start" x="363" y="-176.9" font-family="Helvetica,sans-Serif" font-size="11.00" fill="#000000">varchar[255]</text>
<polygon fill="none" stroke="#000000" points="204,-147.2 204,-169.2 360,-169.2 360,-147.2 204,-147.2"/>
<text text-anchor="start" x="224" y="-154.3" font-family="Helvetica,sans-Serif" font-size="11.00" fill="#000000">handler_type_</text>
<polygon fill="none" stroke="#000000" points="360,-147.2 360,-169.2 444,-169.2 444,-147.2 360,-147.2"/>
<text text-anchor="start" x="363" y="-154.9" font-family="Helvetica,sans-Serif" font-size="11.00" fill="#000000">varchar[255]</text>
<polygon fill="none" stroke="#000000" points="204,-125.2 204,-147.2 360,-147.2 360,-125.2 204,-125.2"/>
<text text-anchor="start" x="224" y="-132.3" font-family="Helvetica,sans-Serif" font-size="11.00" fill="#000000">handler_cfg_</text>
<polygon fill="none" stroke="#000000" points="360,-125.2 360,-147.2 444,-147.2 444,-125.2 360,-125.2"/>
<text text-anchor="start" x="363" y="-132.9" font-family="Helvetica,sans-Serif" font-size="11.00" fill="#000000">varchar[4000]</text>
<polygon fill="#ffffff" stroke="transparent" points="204,-103.2 204,-125.2 360,-125.2 360,-103.2 204,-103.2"/>
<polygon fill="none" stroke="#000000" points="204,-103.2 204,-125.2 360,-125.2 360,-103.2 204,-103.2"/>
<image xlink:href="../../images/foreignKeys.png" width="11px" height="12px" preserveAspectRatio="xMinYMin meet" x="209" y="-120.2"/>
<text text-anchor="start" x="224" y="-110.3" font-family="Helvetica,sans-Serif" font-size="11.00" fill="#000000">custom_values_id_</text>
<polygon fill="none" stroke="#000000" points="360,-103.2 360,-125.2 444,-125.2 444,-103.2 360,-103.2"/>
<text text-anchor="start" x="363" y="-110.9" font-family="Helvetica,sans-Serif" font-size="11.00" fill="#000000">varchar[64]</text>
<polygon fill="none" stroke="#000000" points="204,-81.2 204,-103.2 360,-103.2 360,-81.2 204,-81.2"/>
<text text-anchor="start" x="224" y="-88.3" font-family="Helvetica,sans-Serif" font-size="11.00" fill="#000000">create_time_</text>
<polygon fill="none" stroke="#000000" points="360,-81.2 360,-103.2 444,-103.2 444,-81.2 360,-81.2"/>
<text text-anchor="start" x="362.8807" y="-88.9" font-family="Helvetica,sans-Serif" font-size="11.00" fill="#000000">timestamp[29,6]</text>
<polygon fill="none" stroke="#000000" points="204,-59.2 204,-81.2 360,-81.2 360,-59.2 204,-59.2"/>
<text text-anchor="start" x="224" y="-66.3" font-family="Helvetica,sans-Serif" font-size="11.00" fill="#000000">tenant_id_</text>
<polygon fill="none" stroke="#000000" points="360,-59.2 360,-81.2 444,-81.2 444,-59.2 360,-59.2"/>
<text text-anchor="start" x="363" y="-66.9" font-family="Helvetica,sans-Serif" font-size="11.00" fill="#000000">varchar[255]</text>
<polygon fill="#ffffff" stroke="transparent" points="204,-40.2 204,-59.2 444,-59.2 444,-40.2 204,-40.2"/>
<polygon fill="none" stroke="#000000" points="204,-40.2 204,-59.2 444,-59.2 444,-40.2 204,-40.2"/>
<polygon fill="#ffffff" stroke="transparent" points="205,-41.2 205,-58.2 288,-58.2 288,-41.2 205,-41.2"/>
<text text-anchor="start" x="207" y="-46.3" font-family="Helvetica,sans-Serif" font-size="11.00" fill="#000000">&lt; 2</text>
<polygon fill="#ffffff" stroke="transparent" points="288,-41.2 288,-58.2 361,-58.2 361,-41.2 288,-41.2"/>
<text text-anchor="start" x="321.4431" y="-46.3" font-family="Helvetica,sans-Serif" font-size="11.00" fill="#000000"> &#160;</text>
<polygon fill="#ffffff" stroke="transparent" points="361,-41.2 361,-58.2 443,-58.2 443,-41.2 361,-41.2"/>
<text text-anchor="start" x="425.4053" y="-46.3" font-family="Helvetica,sans-Serif" font-size="11.00" fill="#000000">0 &gt;</text>
<polygon fill="#000000" stroke="#000000" points="288,-41.2 288,-58.2 288,-58.2 288,-41.2 288,-41.2"/>
<polygon fill="#000000" stroke="#000000" points="361,-41.2 361,-58.2 361,-58.2 361,-41.2 361,-41.2"/>
<polygon fill="none" stroke="#000000" stroke-width="2" points="203,-39.2 203,-677.2 445,-677.2 445,-39.2 203,-39.2"/>
</a>
</g>
</g>
<!-- act_ge_bytearray -->
<g id="node2" class="node">
<title>act_ge_bytearray</title>
<g id="a_node2"><a xlink:href="../../tables/act_ge_bytearray.html" xlink:title="act_ge_bytearray" target="_top">
<polygon fill="#ffffff" stroke="transparent" points="8,-109.7 8,-214.7 153,-214.7 153,-109.7 8,-109.7"/>
<polygon fill="#f5f5f5" stroke="transparent" points="8.5,-191.2 8.5,-214.2 153.5,-214.2 153.5,-191.2 8.5,-191.2"/>
<polygon fill="none" stroke="#000000" points="8.5,-191.2 8.5,-214.2 153.5,-214.2 153.5,-191.2 8.5,-191.2"/>
<text text-anchor="start" x="13.5" y="-199.8" font-family="Helvetica,sans-Serif" font-weight="bold" font-size="11.00" fill="#000000">act_ge_bytearray</text>
<text text-anchor="start" x="119.0219" y="-199.3" font-family="Helvetica,sans-Serif" font-size="11.00" fill="#000000">[table]</text>
<polygon fill="none" stroke="#000000" points="8.5,-169.2 8.5,-191.2 153.5,-191.2 153.5,-169.2 8.5,-169.2"/>
<image xlink:href="../../images/primaryKeys.png" width="11px" height="12px" preserveAspectRatio="xMinYMin meet" x="13.5" y="-186.2"/>
<text text-anchor="start" x="37.5" y="-176.3" font-family="Helvetica,sans-Serif" font-size="11.00" fill="#000000">id_</text>
<polygon fill="#ffffff" stroke="transparent" points="8.5,-147.2 8.5,-169.2 153.5,-169.2 153.5,-147.2 8.5,-147.2"/>
<polygon fill="none" stroke="#000000" points="8.5,-147.2 8.5,-169.2 153.5,-169.2 153.5,-147.2 8.5,-147.2"/>
<image xlink:href="../../images/foreignKeys.png" width="11px" height="12px" preserveAspectRatio="xMinYMin meet" x="13.5" y="-164.2"/>
<text text-anchor="start" x="37.5" y="-154.3" font-family="Helvetica,sans-Serif" font-size="11.00" fill="#000000">deployment_id_</text>
<polygon fill="none" stroke="#000000" points="8.5,-128.2 8.5,-147.2 153.5,-147.2 153.5,-128.2 8.5,-128.2"/>
<text text-anchor="start" x="11.5" y="-134.3" font-family="Helvetica,sans-Serif" font-size="11.00" fill="#000000">...</text>
<polygon fill="#ffffff" stroke="transparent" points="8.5,-109.2 8.5,-128.2 153.5,-128.2 153.5,-109.2 8.5,-109.2"/>
<polygon fill="none" stroke="#000000" points="8.5,-109.2 8.5,-128.2 153.5,-128.2 153.5,-109.2 8.5,-109.2"/>
<polygon fill="#ffffff" stroke="transparent" points="9.5,-110.2 9.5,-127.2 58.5,-127.2 58.5,-110.2 9.5,-110.2"/>
<text text-anchor="start" x="11.5" y="-115.3" font-family="Helvetica,sans-Serif" font-size="11.00" fill="#000000">&lt; 1</text>
<polygon fill="#ffffff" stroke="transparent" points="58.5,-110.2 58.5,-127.2 98.5,-127.2 98.5,-110.2 58.5,-110.2"/>
<text text-anchor="start" x="75.4431" y="-115.3" font-family="Helvetica,sans-Serif" font-size="11.00" fill="#000000"> &#160;</text>
<polygon fill="#ffffff" stroke="transparent" points="98.5,-110.2 98.5,-127.2 152.5,-127.2 152.5,-110.2 98.5,-110.2"/>
<text text-anchor="start" x="128.7904" y="-115.3" font-family="Helvetica,sans-Serif" font-size="11.00" fill="#000000">14 &gt;</text>
<polygon fill="#000000" stroke="#000000" points="58.5,-110.2 58.5,-127.2 58.5,-127.2 58.5,-110.2 58.5,-110.2"/>
<polygon fill="#000000" stroke="#000000" points="98.5,-110.2 98.5,-127.2 98.5,-127.2 98.5,-110.2 98.5,-110.2"/>
</a>
</g>
</g>
<!-- act_ru_external_job&#45;&gt;act_ge_bytearray -->
<g id="edge1" class="edge">
<title>act_ru_external_job:w&#45;&gt;act_ge_bytearray:e</title>
<path fill="none" stroke="#000000" d="M190.158,-118.9466C173.1101,-134.0798 184.3754,-180.2 153.5,-180.2"/>
<polygon fill="#000000" stroke="#000000" points="196.4326,-116.795 205.1677,-117.6054 200.2163,-115.4975 204,-114.2 204,-114.2 204,-114.2 200.2163,-115.4975 202.8323,-110.7946 196.4326,-116.795 196.4326,-116.795"/>
<ellipse fill="none" stroke="#000000" cx="193.4056" cy="-117.833" rx="3.2" ry="3.2"/>
</g>
<!-- act_ru_external_job&#45;&gt;act_ge_bytearray -->
<g id="edge2" class="edge">
<title>act_ru_external_job:w&#45;&gt;act_ge_bytearray:e</title>
<path fill="none" stroke="#000000" d="M190.158,-241.4534C173.1101,-226.3202 184.3754,-180.2 153.5,-180.2"/>
<polygon fill="#000000" stroke="#000000" points="196.4326,-243.605 202.8323,-249.6054 200.2163,-244.9025 204,-246.2 204,-246.2 204,-246.2 200.2163,-244.9025 205.1677,-242.7946 196.4326,-243.605 196.4326,-243.605"/>
<ellipse fill="none" stroke="#000000" cx="193.4056" cy="-242.567" rx="3.2" ry="3.2"/>
</g>
</g>
</svg>
