<?xml version="1.0" encoding="UTF-8" standalone="no"?>
<!DOCTYPE svg PUBLIC "-//W3C//DTD SVG 1.1//EN"
 "http://www.w3.org/Graphics/SVG/1.1/DTD/svg11.dtd">
<!-- Generated by graphviz version 2.40.1 (20161225.0304)
 -->
<!-- Title: oneDegreeRelationshipsDiagram Pages: 1 -->
<svg width="463pt" height="503pt"
 viewBox="0.00 0.00 463.00 502.70" xmlns="http://www.w3.org/2000/svg" xmlns:xlink="http://www.w3.org/1999/xlink">
<g id="graph0" class="graph" transform="scale(1 1) rotate(0) translate(4 498.7)">
<title>oneDegreeRelationshipsDiagram</title>
<polygon fill="#ffffff" stroke="transparent" points="-4,4 -4,-498.7 459,-498.7 459,4 -4,4"/>
<text text-anchor="middle" x="72.4936" y="-7.3" font-family="Helvetica,sans-Serif" font-size="11.00" fill="#000000">Generated by SchemaSpy</text>
<!-- act_ru_variable -->
<g id="node1" class="node">
<title>act_ru_variable</title>
<g id="a_node1"><a xlink:href="../../tables/act_ru_variable.html" xlink:title="act_ru_variable" target="_top">
<polygon fill="#ffffff" stroke="transparent" points="254,-92.7 254,-490.7 447,-490.7 447,-92.7 254,-92.7"/>
<polygon fill="#f5f5f5" stroke="transparent" points="256.5,-465.7 256.5,-488.7 445.5,-488.7 445.5,-465.7 256.5,-465.7"/>
<polygon fill="none" stroke="#000000" points="256.5,-465.7 256.5,-488.7 445.5,-488.7 445.5,-465.7 256.5,-465.7"/>
<text text-anchor="start" x="261.5" y="-474.3" font-family="Helvetica,sans-Serif" font-weight="bold" font-size="11.00" fill="#000000">act_ru_variable</text>
<text text-anchor="start" x="410.5437" y="-473.8" font-family="Helvetica,sans-Serif" font-size="11.00" fill="#000000">[table]</text>
<polygon fill="none" stroke="#000000" points="256.5,-443.7 256.5,-465.7 372.5,-465.7 372.5,-443.7 256.5,-443.7"/>
<image xlink:href="../../images/primaryKeys.png" width="11px" height="12px" preserveAspectRatio="xMinYMin meet" x="261.5" y="-460.7"/>
<text text-anchor="start" x="276.5" y="-450.8" font-family="Helvetica,sans-Serif" font-size="11.00" fill="#000000">id_</text>
<polygon fill="none" stroke="#000000" points="372.5,-443.7 372.5,-465.7 445.5,-465.7 445.5,-443.7 372.5,-443.7"/>
<text text-anchor="start" x="375.5" y="-451.4" font-family="Helvetica,sans-Serif" font-size="11.00" fill="#000000">varchar[64]</text>
<polygon fill="none" stroke="#000000" points="256.5,-421.7 256.5,-443.7 372.5,-443.7 372.5,-421.7 256.5,-421.7"/>
<text text-anchor="start" x="276.5" y="-428.8" font-family="Helvetica,sans-Serif" font-size="11.00" fill="#000000">rev_</text>
<polygon fill="none" stroke="#000000" points="372.5,-421.7 372.5,-443.7 445.5,-443.7 445.5,-421.7 372.5,-421.7"/>
<text text-anchor="start" x="375.5" y="-429.4" font-family="Helvetica,sans-Serif" font-size="11.00" fill="#000000">int4[10]</text>
<polygon fill="none" stroke="#000000" points="256.5,-399.7 256.5,-421.7 372.5,-421.7 372.5,-399.7 256.5,-399.7"/>
<text text-anchor="start" x="276.5" y="-406.8" font-family="Helvetica,sans-Serif" font-size="11.00" fill="#000000">type_</text>
<polygon fill="none" stroke="#000000" points="372.5,-399.7 372.5,-421.7 445.5,-421.7 445.5,-399.7 372.5,-399.7"/>
<text text-anchor="start" x="375.5" y="-407.4" font-family="Helvetica,sans-Serif" font-size="11.00" fill="#000000">varchar[255]</text>
<polygon fill="none" stroke="#000000" points="256.5,-377.7 256.5,-399.7 372.5,-399.7 372.5,-377.7 256.5,-377.7"/>
<text text-anchor="start" x="276.5" y="-384.8" font-family="Helvetica,sans-Serif" font-size="11.00" fill="#000000">name_</text>
<polygon fill="none" stroke="#000000" points="372.5,-377.7 372.5,-399.7 445.5,-399.7 445.5,-377.7 372.5,-377.7"/>
<text text-anchor="start" x="375.5" y="-385.4" font-family="Helvetica,sans-Serif" font-size="11.00" fill="#000000">varchar[255]</text>
<polygon fill="#ffffff" stroke="transparent" points="256.5,-355.7 256.5,-377.7 372.5,-377.7 372.5,-355.7 256.5,-355.7"/>
<polygon fill="none" stroke="#000000" points="256.5,-355.7 256.5,-377.7 372.5,-377.7 372.5,-355.7 256.5,-355.7"/>
<image xlink:href="../../images/foreignKeys.png" width="11px" height="12px" preserveAspectRatio="xMinYMin meet" x="261.5" y="-372.7"/>
<text text-anchor="start" x="276.5" y="-362.8" font-family="Helvetica,sans-Serif" font-size="11.00" fill="#000000">execution_id_</text>
<polygon fill="none" stroke="#000000" points="372.5,-355.7 372.5,-377.7 445.5,-377.7 445.5,-355.7 372.5,-355.7"/>
<text text-anchor="start" x="375.5" y="-363.4" font-family="Helvetica,sans-Serif" font-size="11.00" fill="#000000">varchar[64]</text>
<polygon fill="#ffffff" stroke="transparent" points="256.5,-333.7 256.5,-355.7 372.5,-355.7 372.5,-333.7 256.5,-333.7"/>
<polygon fill="none" stroke="#000000" points="256.5,-333.7 256.5,-355.7 372.5,-355.7 372.5,-333.7 256.5,-333.7"/>
<image xlink:href="../../images/foreignKeys.png" width="11px" height="12px" preserveAspectRatio="xMinYMin meet" x="261.5" y="-350.7"/>
<text text-anchor="start" x="276.5" y="-340.8" font-family="Helvetica,sans-Serif" font-size="11.00" fill="#000000">proc_inst_id_</text>
<polygon fill="none" stroke="#000000" points="372.5,-333.7 372.5,-355.7 445.5,-355.7 445.5,-333.7 372.5,-333.7"/>
<text text-anchor="start" x="375.5" y="-341.4" font-family="Helvetica,sans-Serif" font-size="11.00" fill="#000000">varchar[64]</text>
<polygon fill="#ffffff" stroke="transparent" points="256.5,-311.7 256.5,-333.7 372.5,-333.7 372.5,-311.7 256.5,-311.7"/>
<polygon fill="none" stroke="#000000" points="256.5,-311.7 256.5,-333.7 372.5,-333.7 372.5,-311.7 256.5,-311.7"/>
<text text-anchor="start" x="276.5" y="-318.8" font-family="Helvetica,sans-Serif" font-size="11.00" fill="#000000">task_id_</text>
<polygon fill="none" stroke="#000000" points="372.5,-311.7 372.5,-333.7 445.5,-333.7 445.5,-311.7 372.5,-311.7"/>
<text text-anchor="start" x="375.5" y="-319.4" font-family="Helvetica,sans-Serif" font-size="11.00" fill="#000000">varchar[64]</text>
<polygon fill="#ffffff" stroke="transparent" points="256.5,-289.7 256.5,-311.7 372.5,-311.7 372.5,-289.7 256.5,-289.7"/>
<polygon fill="none" stroke="#000000" points="256.5,-289.7 256.5,-311.7 372.5,-311.7 372.5,-289.7 256.5,-289.7"/>
<text text-anchor="start" x="276.5" y="-296.8" font-family="Helvetica,sans-Serif" font-size="11.00" fill="#000000">scope_id_</text>
<polygon fill="none" stroke="#000000" points="372.5,-289.7 372.5,-311.7 445.5,-311.7 445.5,-289.7 372.5,-289.7"/>
<text text-anchor="start" x="375.5" y="-297.4" font-family="Helvetica,sans-Serif" font-size="11.00" fill="#000000">varchar[255]</text>
<polygon fill="#ffffff" stroke="transparent" points="256.5,-267.7 256.5,-289.7 372.5,-289.7 372.5,-267.7 256.5,-267.7"/>
<polygon fill="none" stroke="#000000" points="256.5,-267.7 256.5,-289.7 372.5,-289.7 372.5,-267.7 256.5,-267.7"/>
<text text-anchor="start" x="276.5" y="-274.8" font-family="Helvetica,sans-Serif" font-size="11.00" fill="#000000">sub_scope_id_</text>
<polygon fill="none" stroke="#000000" points="372.5,-267.7 372.5,-289.7 445.5,-289.7 445.5,-267.7 372.5,-267.7"/>
<text text-anchor="start" x="375.5" y="-275.4" font-family="Helvetica,sans-Serif" font-size="11.00" fill="#000000">varchar[255]</text>
<polygon fill="#ffffff" stroke="transparent" points="256.5,-245.7 256.5,-267.7 372.5,-267.7 372.5,-245.7 256.5,-245.7"/>
<polygon fill="none" stroke="#000000" points="256.5,-245.7 256.5,-267.7 372.5,-267.7 372.5,-245.7 256.5,-245.7"/>
<text text-anchor="start" x="276.5" y="-252.8" font-family="Helvetica,sans-Serif" font-size="11.00" fill="#000000">scope_type_</text>
<polygon fill="none" stroke="#000000" points="372.5,-245.7 372.5,-267.7 445.5,-267.7 445.5,-245.7 372.5,-245.7"/>
<text text-anchor="start" x="375.5" y="-253.4" font-family="Helvetica,sans-Serif" font-size="11.00" fill="#000000">varchar[255]</text>
<polygon fill="#ffffff" stroke="transparent" points="256.5,-223.7 256.5,-245.7 372.5,-245.7 372.5,-223.7 256.5,-223.7"/>
<polygon fill="none" stroke="#000000" points="256.5,-223.7 256.5,-245.7 372.5,-245.7 372.5,-223.7 256.5,-223.7"/>
<image xlink:href="../../images/foreignKeys.png" width="11px" height="12px" preserveAspectRatio="xMinYMin meet" x="261.5" y="-240.7"/>
<text text-anchor="start" x="276.5" y="-230.8" font-family="Helvetica,sans-Serif" font-size="11.00" fill="#000000">bytearray_id_</text>
<polygon fill="none" stroke="#000000" points="372.5,-223.7 372.5,-245.7 445.5,-245.7 445.5,-223.7 372.5,-223.7"/>
<text text-anchor="start" x="375.5" y="-231.4" font-family="Helvetica,sans-Serif" font-size="11.00" fill="#000000">varchar[64]</text>
<polygon fill="none" stroke="#000000" points="256.5,-201.7 256.5,-223.7 372.5,-223.7 372.5,-201.7 256.5,-201.7"/>
<text text-anchor="start" x="276.5" y="-208.8" font-family="Helvetica,sans-Serif" font-size="11.00" fill="#000000">double_</text>
<polygon fill="none" stroke="#000000" points="372.5,-201.7 372.5,-223.7 445.5,-223.7 445.5,-201.7 372.5,-201.7"/>
<text text-anchor="start" x="375.5" y="-209.4" font-family="Helvetica,sans-Serif" font-size="11.00" fill="#000000">float8[17,17]</text>
<polygon fill="none" stroke="#000000" points="256.5,-179.7 256.5,-201.7 372.5,-201.7 372.5,-179.7 256.5,-179.7"/>
<text text-anchor="start" x="276.5" y="-186.8" font-family="Helvetica,sans-Serif" font-size="11.00" fill="#000000">long_</text>
<polygon fill="none" stroke="#000000" points="372.5,-179.7 372.5,-201.7 445.5,-201.7 445.5,-179.7 372.5,-179.7"/>
<text text-anchor="start" x="375.5" y="-187.4" font-family="Helvetica,sans-Serif" font-size="11.00" fill="#000000">int8[19]</text>
<polygon fill="none" stroke="#000000" points="256.5,-157.7 256.5,-179.7 372.5,-179.7 372.5,-157.7 256.5,-157.7"/>
<text text-anchor="start" x="276.5" y="-164.8" font-family="Helvetica,sans-Serif" font-size="11.00" fill="#000000">text_</text>
<polygon fill="none" stroke="#000000" points="372.5,-157.7 372.5,-179.7 445.5,-179.7 445.5,-157.7 372.5,-157.7"/>
<text text-anchor="start" x="375.3791" y="-165.4" font-family="Helvetica,sans-Serif" font-size="11.00" fill="#000000">varchar[4000]</text>
<polygon fill="none" stroke="#000000" points="256.5,-135.7 256.5,-157.7 372.5,-157.7 372.5,-135.7 256.5,-135.7"/>
<text text-anchor="start" x="276.5" y="-142.8" font-family="Helvetica,sans-Serif" font-size="11.00" fill="#000000">text2_</text>
<polygon fill="none" stroke="#000000" points="372.5,-135.7 372.5,-157.7 445.5,-157.7 445.5,-135.7 372.5,-135.7"/>
<text text-anchor="start" x="375.3791" y="-143.4" font-family="Helvetica,sans-Serif" font-size="11.00" fill="#000000">varchar[4000]</text>
<polygon fill="none" stroke="#000000" points="256.5,-113.7 256.5,-135.7 372.5,-135.7 372.5,-113.7 256.5,-113.7"/>
<text text-anchor="start" x="276.5" y="-120.8" font-family="Helvetica,sans-Serif" font-size="11.00" fill="#000000">meta_info_</text>
<polygon fill="none" stroke="#000000" points="372.5,-113.7 372.5,-135.7 445.5,-135.7 445.5,-113.7 372.5,-113.7"/>
<text text-anchor="start" x="375.3791" y="-121.4" font-family="Helvetica,sans-Serif" font-size="11.00" fill="#000000">varchar[4000]</text>
<polygon fill="#ffffff" stroke="transparent" points="256.5,-94.7 256.5,-113.7 445.5,-113.7 445.5,-94.7 256.5,-94.7"/>
<polygon fill="none" stroke="#000000" points="256.5,-94.7 256.5,-113.7 445.5,-113.7 445.5,-94.7 256.5,-94.7"/>
<polygon fill="#ffffff" stroke="transparent" points="257.5,-95.7 257.5,-112.7 323.5,-112.7 323.5,-95.7 257.5,-95.7"/>
<text text-anchor="start" x="259.5" y="-100.8" font-family="Helvetica,sans-Serif" font-size="11.00" fill="#000000">&lt; 3</text>
<polygon fill="#ffffff" stroke="transparent" points="323.5,-95.7 323.5,-112.7 379.5,-112.7 379.5,-95.7 323.5,-95.7"/>
<text text-anchor="start" x="348.4431" y="-100.8" font-family="Helvetica,sans-Serif" font-size="11.00" fill="#000000"> &#160;</text>
<polygon fill="#ffffff" stroke="transparent" points="379.5,-95.7 379.5,-112.7 444.5,-112.7 444.5,-95.7 379.5,-95.7"/>
<text text-anchor="start" x="426.9053" y="-100.8" font-family="Helvetica,sans-Serif" font-size="11.00" fill="#000000">0 &gt;</text>
<polygon fill="#000000" stroke="#000000" points="323.5,-95.7 323.5,-112.7 323.5,-112.7 323.5,-95.7 323.5,-95.7"/>
<polygon fill="#000000" stroke="#000000" points="379.5,-95.7 379.5,-112.7 379.5,-112.7 379.5,-95.7 379.5,-95.7"/>
<polygon fill="none" stroke="#000000" stroke-width="2" points="255,-93.7 255,-489.7 446,-489.7 446,-93.7 255,-93.7"/>
</a>
</g>
</g>
<!-- act_ge_bytearray -->
<g id="node2" class="node">
<title>act_ge_bytearray</title>
<g id="a_node2"><a xlink:href="../../tables/act_ge_bytearray.html" xlink:title="act_ge_bytearray" target="_top">
<polygon fill="#ffffff" stroke="transparent" points="34,-38.2 34,-143.2 179,-143.2 179,-38.2 34,-38.2"/>
<polygon fill="#f5f5f5" stroke="transparent" points="34.5,-119.7 34.5,-142.7 179.5,-142.7 179.5,-119.7 34.5,-119.7"/>
<polygon fill="none" stroke="#000000" points="34.5,-119.7 34.5,-142.7 179.5,-142.7 179.5,-119.7 34.5,-119.7"/>
<text text-anchor="start" x="39.5" y="-128.3" font-family="Helvetica,sans-Serif" font-weight="bold" font-size="11.00" fill="#000000">act_ge_bytearray</text>
<text text-anchor="start" x="145.0219" y="-127.8" font-family="Helvetica,sans-Serif" font-size="11.00" fill="#000000">[table]</text>
<polygon fill="none" stroke="#000000" points="34.5,-97.7 34.5,-119.7 179.5,-119.7 179.5,-97.7 34.5,-97.7"/>
<image xlink:href="../../images/primaryKeys.png" width="11px" height="12px" preserveAspectRatio="xMinYMin meet" x="39.5" y="-114.7"/>
<text text-anchor="start" x="63.5" y="-104.8" font-family="Helvetica,sans-Serif" font-size="11.00" fill="#000000">id_</text>
<polygon fill="#ffffff" stroke="transparent" points="34.5,-75.7 34.5,-97.7 179.5,-97.7 179.5,-75.7 34.5,-75.7"/>
<polygon fill="none" stroke="#000000" points="34.5,-75.7 34.5,-97.7 179.5,-97.7 179.5,-75.7 34.5,-75.7"/>
<image xlink:href="../../images/foreignKeys.png" width="11px" height="12px" preserveAspectRatio="xMinYMin meet" x="39.5" y="-92.7"/>
<text text-anchor="start" x="63.5" y="-82.8" font-family="Helvetica,sans-Serif" font-size="11.00" fill="#000000">deployment_id_</text>
<polygon fill="none" stroke="#000000" points="34.5,-56.7 34.5,-75.7 179.5,-75.7 179.5,-56.7 34.5,-56.7"/>
<text text-anchor="start" x="37.5" y="-62.8" font-family="Helvetica,sans-Serif" font-size="11.00" fill="#000000">...</text>
<polygon fill="#ffffff" stroke="transparent" points="34.5,-37.7 34.5,-56.7 179.5,-56.7 179.5,-37.7 34.5,-37.7"/>
<polygon fill="none" stroke="#000000" points="34.5,-37.7 34.5,-56.7 179.5,-56.7 179.5,-37.7 34.5,-37.7"/>
<polygon fill="#ffffff" stroke="transparent" points="35.5,-38.7 35.5,-55.7 84.5,-55.7 84.5,-38.7 35.5,-38.7"/>
<text text-anchor="start" x="37.5" y="-43.8" font-family="Helvetica,sans-Serif" font-size="11.00" fill="#000000">&lt; 1</text>
<polygon fill="#ffffff" stroke="transparent" points="84.5,-38.7 84.5,-55.7 124.5,-55.7 124.5,-38.7 84.5,-38.7"/>
<text text-anchor="start" x="101.4431" y="-43.8" font-family="Helvetica,sans-Serif" font-size="11.00" fill="#000000"> &#160;</text>
<polygon fill="#ffffff" stroke="transparent" points="124.5,-38.7 124.5,-55.7 178.5,-55.7 178.5,-38.7 124.5,-38.7"/>
<text text-anchor="start" x="154.7904" y="-43.8" font-family="Helvetica,sans-Serif" font-size="11.00" fill="#000000">14 &gt;</text>
<polygon fill="#000000" stroke="#000000" points="84.5,-38.7 84.5,-55.7 84.5,-55.7 84.5,-38.7 84.5,-38.7"/>
<polygon fill="#000000" stroke="#000000" points="124.5,-38.7 124.5,-55.7 124.5,-55.7 124.5,-38.7 124.5,-38.7"/>
</a>
</g>
</g>
<!-- act_ru_variable&#45;&gt;act_ge_bytearray -->
<g id="edge1" class="edge">
<title>act_ru_variable:w&#45;&gt;act_ge_bytearray:e</title>
<path fill="none" stroke="#000000" d="M242.084,-232.0683C199.3112,-213.9743 239.489,-108.7 179.5,-108.7"/>
<polygon fill="#000000" stroke="#000000" points="248.6301,-233.2633 255.8535,-238.2415 252.565,-233.9816 256.5,-234.7 256.5,-234.7 256.5,-234.7 252.565,-233.9816 257.1465,-231.1585 248.6301,-233.2633 248.6301,-233.2633"/>
<ellipse fill="none" stroke="#000000" cx="245.4821" cy="-232.6886" rx="3.2" ry="3.2"/>
</g>
<!-- act_ru_execution -->
<g id="node3" class="node">
<title>act_ru_execution</title>
<g id="a_node3"><a xlink:href="../../tables/act_ru_execution.html" xlink:title="act_ru_execution" target="_top">
<polygon fill="#ffffff" stroke="transparent" points="8,-164.2 8,-401.2 205,-401.2 205,-164.2 8,-164.2"/>
<polygon fill="#f5f5f5" stroke="transparent" points="8.5,-377.7 8.5,-400.7 205.5,-400.7 205.5,-377.7 8.5,-377.7"/>
<polygon fill="none" stroke="#000000" points="8.5,-377.7 8.5,-400.7 205.5,-400.7 205.5,-377.7 8.5,-377.7"/>
<text text-anchor="start" x="13.5" y="-386.3" font-family="Helvetica,sans-Serif" font-weight="bold" font-size="11.00" fill="#000000">act_ru_execution</text>
<text text-anchor="start" x="170.5437" y="-385.8" font-family="Helvetica,sans-Serif" font-size="11.00" fill="#000000">[table]</text>
<polygon fill="none" stroke="#000000" points="8.5,-355.7 8.5,-377.7 205.5,-377.7 205.5,-355.7 8.5,-355.7"/>
<image xlink:href="../../images/primaryKeys.png" width="11px" height="12px" preserveAspectRatio="xMinYMin meet" x="13.5" y="-372.7"/>
<text text-anchor="start" x="28.5" y="-362.8" font-family="Helvetica,sans-Serif" font-size="11.00" fill="#000000">id_</text>
<polygon fill="#ffffff" stroke="transparent" points="8.5,-333.7 8.5,-355.7 205.5,-355.7 205.5,-333.7 8.5,-333.7"/>
<polygon fill="none" stroke="#000000" points="8.5,-333.7 8.5,-355.7 205.5,-355.7 205.5,-333.7 8.5,-333.7"/>
<image xlink:href="../../images/foreignKeys.png" width="11px" height="12px" preserveAspectRatio="xMinYMin meet" x="13.5" y="-350.7"/>
<text text-anchor="start" x="28.5" y="-340.8" font-family="Helvetica,sans-Serif" font-size="11.00" fill="#000000">proc_inst_id_</text>
<polygon fill="#ffffff" stroke="transparent" points="8.5,-311.7 8.5,-333.7 205.5,-333.7 205.5,-311.7 8.5,-311.7"/>
<polygon fill="none" stroke="#000000" points="8.5,-311.7 8.5,-333.7 205.5,-333.7 205.5,-311.7 8.5,-311.7"/>
<text text-anchor="start" x="28.5" y="-318.8" font-family="Helvetica,sans-Serif" font-size="11.00" fill="#000000">business_key_</text>
<polygon fill="#ffffff" stroke="transparent" points="8.5,-289.7 8.5,-311.7 205.5,-311.7 205.5,-289.7 8.5,-289.7"/>
<polygon fill="none" stroke="#000000" points="8.5,-289.7 8.5,-311.7 205.5,-311.7 205.5,-289.7 8.5,-289.7"/>
<image xlink:href="../../images/foreignKeys.png" width="11px" height="12px" preserveAspectRatio="xMinYMin meet" x="13.5" y="-306.7"/>
<text text-anchor="start" x="28.5" y="-296.8" font-family="Helvetica,sans-Serif" font-size="11.00" fill="#000000">parent_id_</text>
<polygon fill="#ffffff" stroke="transparent" points="8.5,-267.7 8.5,-289.7 205.5,-289.7 205.5,-267.7 8.5,-267.7"/>
<polygon fill="none" stroke="#000000" points="8.5,-267.7 8.5,-289.7 205.5,-289.7 205.5,-267.7 8.5,-267.7"/>
<image xlink:href="../../images/foreignKeys.png" width="11px" height="12px" preserveAspectRatio="xMinYMin meet" x="13.5" y="-284.7"/>
<text text-anchor="start" x="28.5" y="-274.8" font-family="Helvetica,sans-Serif" font-size="11.00" fill="#000000">proc_def_id_</text>
<polygon fill="#ffffff" stroke="transparent" points="8.5,-245.7 8.5,-267.7 205.5,-267.7 205.5,-245.7 8.5,-245.7"/>
<polygon fill="none" stroke="#000000" points="8.5,-245.7 8.5,-267.7 205.5,-267.7 205.5,-245.7 8.5,-245.7"/>
<image xlink:href="../../images/foreignKeys.png" width="11px" height="12px" preserveAspectRatio="xMinYMin meet" x="13.5" y="-262.7"/>
<text text-anchor="start" x="28.5" y="-252.8" font-family="Helvetica,sans-Serif" font-size="11.00" fill="#000000">super_exec_</text>
<polygon fill="#ffffff" stroke="transparent" points="8.5,-223.7 8.5,-245.7 205.5,-245.7 205.5,-223.7 8.5,-223.7"/>
<polygon fill="none" stroke="#000000" points="8.5,-223.7 8.5,-245.7 205.5,-245.7 205.5,-223.7 8.5,-223.7"/>
<text text-anchor="start" x="28.5" y="-230.8" font-family="Helvetica,sans-Serif" font-size="11.00" fill="#000000">root_proc_inst_id_</text>
<polygon fill="#ffffff" stroke="transparent" points="8.5,-201.7 8.5,-223.7 205.5,-223.7 205.5,-201.7 8.5,-201.7"/>
<polygon fill="none" stroke="#000000" points="8.5,-201.7 8.5,-223.7 205.5,-223.7 205.5,-201.7 8.5,-201.7"/>
<text text-anchor="start" x="28.5" y="-208.8" font-family="Helvetica,sans-Serif" font-size="11.00" fill="#000000">reference_id_</text>
<polygon fill="none" stroke="#000000" points="8.5,-182.7 8.5,-201.7 205.5,-201.7 205.5,-182.7 8.5,-182.7"/>
<text text-anchor="start" x="11.5" y="-188.8" font-family="Helvetica,sans-Serif" font-size="11.00" fill="#000000">...</text>
<polygon fill="#ffffff" stroke="transparent" points="8.5,-163.7 8.5,-182.7 205.5,-182.7 205.5,-163.7 8.5,-163.7"/>
<polygon fill="none" stroke="#000000" points="8.5,-163.7 8.5,-182.7 205.5,-182.7 205.5,-163.7 8.5,-163.7"/>
<polygon fill="#ffffff" stroke="transparent" points="9.5,-164.7 9.5,-181.7 75.5,-181.7 75.5,-164.7 9.5,-164.7"/>
<text text-anchor="start" x="11.5" y="-169.8" font-family="Helvetica,sans-Serif" font-size="11.00" fill="#000000">&lt; 4</text>
<polygon fill="#ffffff" stroke="transparent" points="75.5,-164.7 75.5,-181.7 132.5,-181.7 132.5,-164.7 75.5,-164.7"/>
<text text-anchor="start" x="100.9431" y="-169.8" font-family="Helvetica,sans-Serif" font-size="11.00" fill="#000000"> &#160;</text>
<polygon fill="#ffffff" stroke="transparent" points="132.5,-164.7 132.5,-181.7 204.5,-181.7 204.5,-164.7 132.5,-164.7"/>
<text text-anchor="start" x="180.7904" y="-169.8" font-family="Helvetica,sans-Serif" font-size="11.00" fill="#000000">17 &gt;</text>
<polygon fill="#000000" stroke="#000000" points="75.5,-164.7 75.5,-181.7 75.5,-181.7 75.5,-164.7 75.5,-164.7"/>
<polygon fill="#000000" stroke="#000000" points="132.5,-164.7 132.5,-181.7 132.5,-181.7 132.5,-164.7 132.5,-164.7"/>
</a>
</g>
</g>
<!-- act_ru_variable&#45;&gt;act_ru_execution -->
<g id="edge2" class="edge">
<title>act_ru_variable:w&#45;&gt;act_ru_execution:e</title>
<path fill="none" stroke="#000000" d="M241.776,-366.7C229.7815,-366.7 222.3229,-366.7 205.5,-366.7"/>
<polygon fill="#000000" stroke="#000000" points="248.5,-366.7001 256.5,-370.3 252.5,-366.7 256.5,-366.7 256.5,-366.7 256.5,-366.7 252.5,-366.7 256.5,-363.1 248.5,-366.7001 248.5,-366.7001"/>
<ellipse fill="none" stroke="#000000" cx="245.3" cy="-366.7001" rx="3.2" ry="3.2"/>
</g>
<!-- act_ru_variable&#45;&gt;act_ru_execution -->
<g id="edge3" class="edge">
<title>act_ru_variable:w&#45;&gt;act_ru_execution:e</title>
<path fill="none" stroke="#000000" d="M242.3489,-347.759C229.7843,-353.804 224.4,-366.7 205.5,-366.7"/>
<polygon fill="#000000" stroke="#000000" points="248.6806,-346.3903 257.2607,-348.2187 252.5903,-345.5452 256.5,-344.7 256.5,-344.7 256.5,-344.7 252.5903,-345.5452 255.7393,-341.1813 248.6806,-346.3903 248.6806,-346.3903"/>
<ellipse fill="none" stroke="#000000" cx="245.5528" cy="-347.0665" rx="3.2" ry="3.2"/>
</g>
</g>
</svg>
