<?xml version="1.0" encoding="UTF-8" standalone="no"?>
<!DOCTYPE svg PUBLIC "-//W3C//DTD SVG 1.1//EN"
 "http://www.w3.org/Graphics/SVG/1.1/DTD/svg11.dtd">
<!-- Generated by graphviz version 2.40.1 (20161225.0304)
 -->
<!-- Title: twoDegreesRelationshipsDiagram Pages: 1 -->
<svg width="870pt" height="1491pt"
 viewBox="0.00 0.00 870.00 1490.91" xmlns="http://www.w3.org/2000/svg" xmlns:xlink="http://www.w3.org/1999/xlink">
<g id="graph0" class="graph" transform="scale(1 1) rotate(0) translate(4 1486.9126)">
<title>twoDegreesRelationshipsDiagram</title>
<polygon fill="#ffffff" stroke="transparent" points="-4,4 -4,-1486.9126 866,-1486.9126 866,4 -4,4"/>
<text text-anchor="middle" x="72.4936" y="-7.3" font-family="Helvetica,sans-Serif" font-size="11.00" fill="#000000">Generated by SchemaSpy</text>
<!-- act_ge_bytearray -->
<g id="node1" class="node">
<title>act_ge_bytearray</title>
<g id="a_node1"><a xlink:href="../../tables/act_ge_bytearray.html" xlink:title="act_ge_bytearray" target="_top">
<polygon fill="#ffffff" stroke="transparent" points="214,-1069.9126 214,-1174.9126 359,-1174.9126 359,-1069.9126 214,-1069.9126"/>
<polygon fill="#f5f5f5" stroke="transparent" points="214.5,-1151.4126 214.5,-1174.4126 359.5,-1174.4126 359.5,-1151.4126 214.5,-1151.4126"/>
<polygon fill="none" stroke="#000000" points="214.5,-1151.4126 214.5,-1174.4126 359.5,-1174.4126 359.5,-1151.4126 214.5,-1151.4126"/>
<text text-anchor="start" x="219.5" y="-1160.0126" font-family="Helvetica,sans-Serif" font-weight="bold" font-size="11.00" fill="#000000">act_ge_bytearray</text>
<text text-anchor="start" x="325.0219" y="-1159.5126" font-family="Helvetica,sans-Serif" font-size="11.00" fill="#000000">[table]</text>
<polygon fill="none" stroke="#000000" points="214.5,-1129.4126 214.5,-1151.4126 359.5,-1151.4126 359.5,-1129.4126 214.5,-1129.4126"/>
<image xlink:href="../../images/primaryKeys.png" width="11px" height="12px" preserveAspectRatio="xMinYMin meet" x="219.5" y="-1146.41"/>
<text text-anchor="start" x="243.5" y="-1136.5126" font-family="Helvetica,sans-Serif" font-size="11.00" fill="#000000">id_</text>
<polygon fill="#ffffff" stroke="transparent" points="214.5,-1107.4126 214.5,-1129.4126 359.5,-1129.4126 359.5,-1107.4126 214.5,-1107.4126"/>
<polygon fill="none" stroke="#000000" points="214.5,-1107.4126 214.5,-1129.4126 359.5,-1129.4126 359.5,-1107.4126 214.5,-1107.4126"/>
<image xlink:href="../../images/foreignKeys.png" width="11px" height="12px" preserveAspectRatio="xMinYMin meet" x="219.5" y="-1124.41"/>
<text text-anchor="start" x="243.5" y="-1114.5126" font-family="Helvetica,sans-Serif" font-size="11.00" fill="#000000">deployment_id_</text>
<polygon fill="none" stroke="#000000" points="214.5,-1088.4126 214.5,-1107.4126 359.5,-1107.4126 359.5,-1088.4126 214.5,-1088.4126"/>
<text text-anchor="start" x="217.5" y="-1094.5126" font-family="Helvetica,sans-Serif" font-size="11.00" fill="#000000">...</text>
<polygon fill="#ffffff" stroke="transparent" points="214.5,-1069.4126 214.5,-1088.4126 359.5,-1088.4126 359.5,-1069.4126 214.5,-1069.4126"/>
<polygon fill="none" stroke="#000000" points="214.5,-1069.4126 214.5,-1088.4126 359.5,-1088.4126 359.5,-1069.4126 214.5,-1069.4126"/>
<polygon fill="#ffffff" stroke="transparent" points="215.5,-1070.4126 215.5,-1087.4126 264.5,-1087.4126 264.5,-1070.4126 215.5,-1070.4126"/>
<text text-anchor="start" x="217.5" y="-1075.5126" font-family="Helvetica,sans-Serif" font-size="11.00" fill="#000000">&lt; 1</text>
<polygon fill="#ffffff" stroke="transparent" points="264.5,-1070.4126 264.5,-1087.4126 304.5,-1087.4126 304.5,-1070.4126 264.5,-1070.4126"/>
<text text-anchor="start" x="281.4431" y="-1075.5126" font-family="Helvetica,sans-Serif" font-size="11.00" fill="#000000"> &#160;</text>
<polygon fill="#ffffff" stroke="transparent" points="304.5,-1070.4126 304.5,-1087.4126 358.5,-1087.4126 358.5,-1070.4126 304.5,-1070.4126"/>
<text text-anchor="start" x="334.7904" y="-1075.5126" font-family="Helvetica,sans-Serif" font-size="11.00" fill="#000000">14 &gt;</text>
<polygon fill="#000000" stroke="#000000" points="264.5,-1070.4126 264.5,-1087.4126 264.5,-1087.4126 264.5,-1070.4126 264.5,-1070.4126"/>
<polygon fill="#000000" stroke="#000000" points="304.5,-1070.4126 304.5,-1087.4126 304.5,-1087.4126 304.5,-1070.4126 304.5,-1070.4126"/>
</a>
</g>
</g>
<!-- act_re_deployment -->
<g id="node2" class="node">
<title>act_re_deployment</title>
<g id="a_node2"><a xlink:href="../../tables/act_re_deployment.html" xlink:title="act_re_deployment" target="_top">
<polygon fill="#ffffff" stroke="transparent" points="8,-1222.9126 8,-1283.9126 165,-1283.9126 165,-1222.9126 8,-1222.9126"/>
<polygon fill="#f5f5f5" stroke="transparent" points="8.5,-1260.4126 8.5,-1283.4126 165.5,-1283.4126 165.5,-1260.4126 8.5,-1260.4126"/>
<polygon fill="none" stroke="#000000" points="8.5,-1260.4126 8.5,-1283.4126 165.5,-1283.4126 165.5,-1260.4126 8.5,-1260.4126"/>
<text text-anchor="start" x="13.5" y="-1269.0126" font-family="Helvetica,sans-Serif" font-weight="bold" font-size="11.00" fill="#000000">act_re_deployment</text>
<text text-anchor="start" x="131.0219" y="-1268.5126" font-family="Helvetica,sans-Serif" font-size="11.00" fill="#000000">[table]</text>
<polygon fill="none" stroke="#000000" points="8.5,-1241.4126 8.5,-1260.4126 165.5,-1260.4126 165.5,-1241.4126 8.5,-1241.4126"/>
<text text-anchor="start" x="11.5" y="-1247.5126" font-family="Helvetica,sans-Serif" font-size="11.00" fill="#000000">...</text>
<polygon fill="#ffffff" stroke="transparent" points="8.5,-1222.4126 8.5,-1241.4126 165.5,-1241.4126 165.5,-1222.4126 8.5,-1222.4126"/>
<polygon fill="none" stroke="#000000" points="8.5,-1222.4126 8.5,-1241.4126 165.5,-1241.4126 165.5,-1222.4126 8.5,-1222.4126"/>
<polygon fill="#ffffff" stroke="transparent" points="9.5,-1223.4126 9.5,-1240.4126 58.5,-1240.4126 58.5,-1223.4126 9.5,-1223.4126"/>
<text text-anchor="start" x="11.5" y="-1228.5126" font-family="Helvetica,sans-Serif" font-size="11.00" fill="#000000"> &#160;</text>
<polygon fill="#ffffff" stroke="transparent" points="58.5,-1223.4126 58.5,-1240.4126 107.5,-1240.4126 107.5,-1223.4126 58.5,-1223.4126"/>
<text text-anchor="start" x="79.9431" y="-1228.5126" font-family="Helvetica,sans-Serif" font-size="11.00" fill="#000000"> &#160;</text>
<polygon fill="#ffffff" stroke="transparent" points="107.5,-1223.4126 107.5,-1240.4126 164.5,-1240.4126 164.5,-1223.4126 107.5,-1223.4126"/>
<text text-anchor="start" x="146.9053" y="-1228.5126" font-family="Helvetica,sans-Serif" font-size="11.00" fill="#000000">2 &gt;</text>
<polygon fill="#000000" stroke="#000000" points="58.5,-1223.4126 58.5,-1240.4126 58.5,-1240.4126 58.5,-1223.4126 58.5,-1223.4126"/>
<polygon fill="#000000" stroke="#000000" points="107.5,-1223.4126 107.5,-1240.4126 107.5,-1240.4126 107.5,-1223.4126 107.5,-1223.4126"/>
</a>
</g>
</g>
<!-- act_ge_bytearray&#45;&gt;act_re_deployment -->
<g id="edge1" class="edge">
<title>act_ge_bytearray:w&#45;&gt;act_re_deployment:e</title>
<path fill="none" stroke="#000000" d="M200.3293,-1121.6755C164.9817,-1142.0024 222.2116,-1250.4126 165.5,-1250.4126"/>
<polygon fill="#000000" stroke="#000000" points="206.704,-1120.2077 215.3078,-1121.9208 210.602,-1119.3101 214.5,-1118.4126 214.5,-1118.4126 214.5,-1118.4126 210.602,-1119.3101 213.6922,-1114.9044 206.704,-1120.2077 206.704,-1120.2077"/>
<ellipse fill="none" stroke="#000000" cx="203.5856" cy="-1120.9258" rx="3.2" ry="3.2"/>
</g>
<!-- act_procdef_info -->
<g id="node3" class="node">
<title>act_procdef_info</title>
<g id="a_node3"><a xlink:href="../../tables/act_procdef_info.html" xlink:title="act_procdef_info" target="_top">
<polygon fill="#ffffff" stroke="transparent" points="458.5,-1335.9126 458.5,-1396.9126 601.5,-1396.9126 601.5,-1335.9126 458.5,-1335.9126"/>
<polygon fill="#f5f5f5" stroke="transparent" points="459,-1373.4126 459,-1396.4126 602,-1396.4126 602,-1373.4126 459,-1373.4126"/>
<polygon fill="none" stroke="#000000" points="459,-1373.4126 459,-1396.4126 602,-1396.4126 602,-1373.4126 459,-1373.4126"/>
<text text-anchor="start" x="464" y="-1382.0126" font-family="Helvetica,sans-Serif" font-weight="bold" font-size="11.00" fill="#000000">act_procdef_info</text>
<text text-anchor="start" x="567.5219" y="-1381.5126" font-family="Helvetica,sans-Serif" font-size="11.00" fill="#000000">[table]</text>
<polygon fill="none" stroke="#000000" points="459,-1354.4126 459,-1373.4126 602,-1373.4126 602,-1354.4126 459,-1354.4126"/>
<text text-anchor="start" x="462" y="-1360.5126" font-family="Helvetica,sans-Serif" font-size="11.00" fill="#000000">...</text>
<polygon fill="#ffffff" stroke="transparent" points="459,-1335.4126 459,-1354.4126 602,-1354.4126 602,-1335.4126 459,-1335.4126"/>
<polygon fill="none" stroke="#000000" points="459,-1335.4126 459,-1354.4126 602,-1354.4126 602,-1335.4126 459,-1335.4126"/>
<polygon fill="#ffffff" stroke="transparent" points="460,-1336.4126 460,-1353.4126 513,-1353.4126 513,-1336.4126 460,-1336.4126"/>
<text text-anchor="start" x="462" y="-1341.5126" font-family="Helvetica,sans-Serif" font-size="11.00" fill="#000000">&lt; 2</text>
<polygon fill="#ffffff" stroke="transparent" points="513,-1336.4126 513,-1353.4126 557,-1353.4126 557,-1336.4126 513,-1336.4126"/>
<text text-anchor="start" x="531.9431" y="-1341.5126" font-family="Helvetica,sans-Serif" font-size="11.00" fill="#000000"> &#160;</text>
<polygon fill="#ffffff" stroke="transparent" points="557,-1336.4126 557,-1353.4126 601,-1353.4126 601,-1336.4126 557,-1336.4126"/>
<text text-anchor="start" x="592.8862" y="-1341.5126" font-family="Helvetica,sans-Serif" font-size="11.00" fill="#000000"> &#160;</text>
<polygon fill="#000000" stroke="#000000" points="513,-1336.4126 513,-1353.4126 513,-1353.4126 513,-1336.4126 513,-1336.4126"/>
<polygon fill="#000000" stroke="#000000" points="557,-1336.4126 557,-1353.4126 557,-1353.4126 557,-1336.4126 557,-1336.4126"/>
</a>
</g>
</g>
<!-- act_procdef_info&#45;&gt;act_ge_bytearray -->
<g id="edge2" class="edge">
<title>act_procdef_info:w&#45;&gt;act_ge_bytearray:e</title>
<path fill="none" stroke="#000000" d="M444.3574,-1362.2601C424.0478,-1358.6504 414.6651,-1346.527 400,-1325.4126 351.9851,-1256.2818 443.6694,-1140.4126 359.5,-1140.4126"/>
<polygon fill="#000000" stroke="#000000" points="451.0247,-1362.7848 458.7175,-1367.0015 455.0123,-1363.0987 459,-1363.4126 459,-1363.4126 459,-1363.4126 455.0123,-1363.0987 459.2825,-1359.8237 451.0247,-1362.7848 451.0247,-1362.7848"/>
<ellipse fill="none" stroke="#000000" cx="447.8345" cy="-1362.5337" rx="3.2" ry="3.2"/>
</g>
<!-- act_re_procdef -->
<g id="node4" class="node">
<title>act_re_procdef</title>
<g id="a_node4"><a xlink:href="../../tables/act_re_procdef.html" xlink:title="act_re_procdef" target="_top">
<polygon fill="#ffffff" stroke="transparent" points="20.5,-948.9126 20.5,-1009.9126 152.5,-1009.9126 152.5,-948.9126 20.5,-948.9126"/>
<polygon fill="#f5f5f5" stroke="transparent" points="20.5,-986.4126 20.5,-1009.4126 152.5,-1009.4126 152.5,-986.4126 20.5,-986.4126"/>
<polygon fill="none" stroke="#000000" points="20.5,-986.4126 20.5,-1009.4126 152.5,-1009.4126 152.5,-986.4126 20.5,-986.4126"/>
<text text-anchor="start" x="25.5" y="-995.0126" font-family="Helvetica,sans-Serif" font-weight="bold" font-size="11.00" fill="#000000">act_re_procdef</text>
<text text-anchor="start" x="118.0219" y="-994.5126" font-family="Helvetica,sans-Serif" font-size="11.00" fill="#000000">[table]</text>
<polygon fill="none" stroke="#000000" points="20.5,-967.4126 20.5,-986.4126 152.5,-986.4126 152.5,-967.4126 20.5,-967.4126"/>
<text text-anchor="start" x="23.5" y="-973.5126" font-family="Helvetica,sans-Serif" font-size="11.00" fill="#000000">...</text>
<polygon fill="#ffffff" stroke="transparent" points="20.5,-948.4126 20.5,-967.4126 152.5,-967.4126 152.5,-948.4126 20.5,-948.4126"/>
<polygon fill="none" stroke="#000000" points="20.5,-948.4126 20.5,-967.4126 152.5,-967.4126 152.5,-948.4126 20.5,-948.4126"/>
<polygon fill="#ffffff" stroke="transparent" points="21.5,-949.4126 21.5,-966.4126 62.5,-966.4126 62.5,-949.4126 21.5,-949.4126"/>
<text text-anchor="start" x="23.5" y="-954.5126" font-family="Helvetica,sans-Serif" font-size="11.00" fill="#000000"> &#160;</text>
<polygon fill="#ffffff" stroke="transparent" points="62.5,-949.4126 62.5,-966.4126 102.5,-966.4126 102.5,-949.4126 62.5,-949.4126"/>
<text text-anchor="start" x="79.4431" y="-954.5126" font-family="Helvetica,sans-Serif" font-size="11.00" fill="#000000"> &#160;</text>
<polygon fill="#ffffff" stroke="transparent" points="102.5,-949.4126 102.5,-966.4126 151.5,-966.4126 151.5,-949.4126 102.5,-949.4126"/>
<text text-anchor="start" x="133.9053" y="-954.5126" font-family="Helvetica,sans-Serif" font-size="11.00" fill="#000000">8 &gt;</text>
<polygon fill="#000000" stroke="#000000" points="62.5,-949.4126 62.5,-966.4126 62.5,-966.4126 62.5,-949.4126 62.5,-949.4126"/>
<polygon fill="#000000" stroke="#000000" points="102.5,-949.4126 102.5,-966.4126 102.5,-966.4126 102.5,-949.4126 102.5,-949.4126"/>
</a>
</g>
</g>
<!-- act_procdef_info&#45;&gt;act_re_procdef -->
<g id="edge3" class="edge">
<title>act_procdef_info:w&#45;&gt;act_re_procdef:e</title>
<path fill="none" stroke="#000000" d="M448.4709,-1362.8324C410.0432,-1358.3438 404.9865,-1328.7068 367,-1305.4126 295.9795,-1261.8611 263.1614,-1270.0196 206,-1209.4126 151.0432,-1151.143 114.7373,-1062.7089 97.7153,-1014.2288"/>
<polygon fill="#000000" stroke="#000000" points="458.4213,-1359.3746 457.9811,-1367.3625 456.3835,-1367.2744 456.8237,-1359.2866 458.4213,-1359.3746"/>
<polyline fill="none" stroke="#000000" points="459,-1363.4126 455.0061,-1363.1925 "/>
<ellipse fill="none" stroke="#000000" cx="451.8109" cy="-1363.0164" rx="3.2" ry="3.2"/>
</g>
<!-- act_re_model -->
<g id="node5" class="node">
<title>act_re_model</title>
<g id="a_node5"><a xlink:href="../../tables/act_re_model.html" xlink:title="act_re_model" target="_top">
<polygon fill="#ffffff" stroke="transparent" points="469,-1417.9126 469,-1478.9126 591,-1478.9126 591,-1417.9126 469,-1417.9126"/>
<polygon fill="#f5f5f5" stroke="transparent" points="469,-1455.4126 469,-1478.4126 591,-1478.4126 591,-1455.4126 469,-1455.4126"/>
<polygon fill="none" stroke="#000000" points="469,-1455.4126 469,-1478.4126 591,-1478.4126 591,-1455.4126 469,-1455.4126"/>
<text text-anchor="start" x="474" y="-1464.0126" font-family="Helvetica,sans-Serif" font-weight="bold" font-size="11.00" fill="#000000">act_re_model</text>
<text text-anchor="start" x="556.5219" y="-1463.5126" font-family="Helvetica,sans-Serif" font-size="11.00" fill="#000000">[table]</text>
<polygon fill="none" stroke="#000000" points="469,-1436.4126 469,-1455.4126 591,-1455.4126 591,-1436.4126 469,-1436.4126"/>
<text text-anchor="start" x="472" y="-1442.5126" font-family="Helvetica,sans-Serif" font-size="11.00" fill="#000000">...</text>
<polygon fill="#ffffff" stroke="transparent" points="469,-1417.4126 469,-1436.4126 591,-1436.4126 591,-1417.4126 469,-1417.4126"/>
<polygon fill="none" stroke="#000000" points="469,-1417.4126 469,-1436.4126 591,-1436.4126 591,-1417.4126 469,-1417.4126"/>
<polygon fill="#ffffff" stroke="transparent" points="470,-1418.4126 470,-1435.4126 516,-1435.4126 516,-1418.4126 470,-1418.4126"/>
<text text-anchor="start" x="472" y="-1423.5126" font-family="Helvetica,sans-Serif" font-size="11.00" fill="#000000">&lt; 3</text>
<polygon fill="#ffffff" stroke="transparent" points="516,-1418.4126 516,-1435.4126 553,-1435.4126 553,-1418.4126 516,-1418.4126"/>
<text text-anchor="start" x="531.4431" y="-1423.5126" font-family="Helvetica,sans-Serif" font-size="11.00" fill="#000000"> &#160;</text>
<polygon fill="#ffffff" stroke="transparent" points="553,-1418.4126 553,-1435.4126 590,-1435.4126 590,-1418.4126 553,-1418.4126"/>
<text text-anchor="start" x="581.8862" y="-1423.5126" font-family="Helvetica,sans-Serif" font-size="11.00" fill="#000000"> &#160;</text>
<polygon fill="#000000" stroke="#000000" points="516,-1418.4126 516,-1435.4126 516,-1435.4126 516,-1418.4126 516,-1418.4126"/>
<polygon fill="#000000" stroke="#000000" points="553,-1418.4126 553,-1435.4126 553,-1435.4126 553,-1418.4126 553,-1418.4126"/>
</a>
</g>
</g>
<!-- act_re_model&#45;&gt;act_ge_bytearray -->
<g id="edge5" class="edge">
<title>act_re_model:w&#45;&gt;act_ge_bytearray:e</title>
<path fill="none" stroke="#000000" d="M454.7122,-1442.4708C429.7112,-1436.2283 417.0536,-1425.8663 400,-1401.4126 365.6719,-1352.1884 419.512,-1134.4126 359.5,-1140.4126"/>
<polygon fill="#000000" stroke="#000000" points="461.1644,-1443.7992 468.274,-1448.9386 465.0822,-1444.6059 469,-1445.4126 469,-1445.4126 469,-1445.4126 465.0822,-1444.6059 469.726,-1441.8865 461.1644,-1443.7992 461.1644,-1443.7992"/>
<ellipse fill="none" stroke="#000000" cx="458.0301" cy="-1443.1539" rx="3.2" ry="3.2"/>
</g>
<!-- act_re_model&#45;&gt;act_ge_bytearray -->
<g id="edge6" class="edge">
<title>act_re_model:w&#45;&gt;act_ge_bytearray:e</title>
<path fill="none" stroke="#000000" d="M454.7122,-1447.4431C429.7112,-1449.2283 417.0536,-1438.8663 400,-1414.4126 365.6719,-1365.1884 419.512,-1147.4126 359.5,-1140.4126"/>
<polygon fill="#000000" stroke="#000000" points="461.0796,-1446.5382 469.5065,-1448.9768 465.0398,-1445.9754 469,-1445.4126 469,-1445.4126 469,-1445.4126 465.0398,-1445.9754 468.4935,-1441.8484 461.0796,-1446.5382 461.0796,-1446.5382"/>
<ellipse fill="none" stroke="#000000" cx="457.9114" cy="-1446.9885" rx="3.2" ry="3.2"/>
</g>
<!-- act_re_model&#45;&gt;act_re_deployment -->
<g id="edge4" class="edge">
<title>act_re_model:w&#45;&gt;act_re_deployment:e</title>
<path fill="none" stroke="#000000" d="M454.2843,-1445.1763C334.002,-1441.2091 302.7732,-1387.5432 206,-1304.4126 183.2435,-1284.8641 195.5,-1250.4126 165.5,-1250.4126"/>
<polygon fill="#000000" stroke="#000000" points="461.001,-1445.2841 468.9422,-1449.0121 465.0005,-1445.3483 469,-1445.4126 469,-1445.4126 469,-1445.4126 465.0005,-1445.3483 469.0578,-1441.813 461.001,-1445.2841 461.001,-1445.2841"/>
<ellipse fill="none" stroke="#000000" cx="457.8014" cy="-1445.2327" rx="3.2" ry="3.2"/>
</g>
<!-- act_ru_deadletter_job -->
<g id="node6" class="node">
<title>act_ru_deadletter_job</title>
<g id="a_node6"><a xlink:href="../../tables/act_ru_deadletter_job.html" xlink:title="act_ru_deadletter_job" target="_top">
<polygon fill="#ffffff" stroke="transparent" points="443,-1171.9126 443,-1232.9126 617,-1232.9126 617,-1171.9126 443,-1171.9126"/>
<polygon fill="#f5f5f5" stroke="transparent" points="443,-1209.4126 443,-1232.4126 617,-1232.4126 617,-1209.4126 443,-1209.4126"/>
<polygon fill="none" stroke="#000000" points="443,-1209.4126 443,-1232.4126 617,-1232.4126 617,-1209.4126 443,-1209.4126"/>
<text text-anchor="start" x="448" y="-1218.0126" font-family="Helvetica,sans-Serif" font-weight="bold" font-size="11.00" fill="#000000">act_ru_deadletter_job</text>
<text text-anchor="start" x="582.5219" y="-1217.5126" font-family="Helvetica,sans-Serif" font-size="11.00" fill="#000000">[table]</text>
<polygon fill="none" stroke="#000000" points="443,-1190.4126 443,-1209.4126 617,-1209.4126 617,-1190.4126 443,-1190.4126"/>
<text text-anchor="start" x="446" y="-1196.5126" font-family="Helvetica,sans-Serif" font-size="11.00" fill="#000000">...</text>
<polygon fill="#ffffff" stroke="transparent" points="443,-1171.4126 443,-1190.4126 617,-1190.4126 617,-1171.4126 443,-1171.4126"/>
<polygon fill="none" stroke="#000000" points="443,-1171.4126 443,-1190.4126 617,-1190.4126 617,-1171.4126 443,-1171.4126"/>
<polygon fill="#ffffff" stroke="transparent" points="444,-1172.4126 444,-1189.4126 508,-1189.4126 508,-1172.4126 444,-1172.4126"/>
<text text-anchor="start" x="446" y="-1177.5126" font-family="Helvetica,sans-Serif" font-size="11.00" fill="#000000">&lt; 5</text>
<polygon fill="#ffffff" stroke="transparent" points="508,-1172.4126 508,-1189.4126 562,-1189.4126 562,-1172.4126 508,-1172.4126"/>
<text text-anchor="start" x="531.9431" y="-1177.5126" font-family="Helvetica,sans-Serif" font-size="11.00" fill="#000000"> &#160;</text>
<polygon fill="#ffffff" stroke="transparent" points="562,-1172.4126 562,-1189.4126 616,-1189.4126 616,-1172.4126 562,-1172.4126"/>
<text text-anchor="start" x="607.8862" y="-1177.5126" font-family="Helvetica,sans-Serif" font-size="11.00" fill="#000000"> &#160;</text>
<polygon fill="#000000" stroke="#000000" points="508,-1172.4126 508,-1189.4126 508,-1189.4126 508,-1172.4126 508,-1172.4126"/>
<polygon fill="#000000" stroke="#000000" points="562,-1172.4126 562,-1189.4126 562,-1189.4126 562,-1172.4126 562,-1172.4126"/>
</a>
</g>
</g>
<!-- act_ru_deadletter_job&#45;&gt;act_ge_bytearray -->
<g id="edge7" class="edge">
<title>act_ru_deadletter_job:w&#45;&gt;act_ge_bytearray:e</title>
<path fill="none" stroke="#000000" d="M429.031,-1195.3096C398.564,-1180.4771 399.6154,-1135.1157 359.5,-1140.4126"/>
<polygon fill="#000000" stroke="#000000" points="435.3243,-1197.158 441.9854,-1202.8667 439.1621,-1198.2853 443,-1199.4126 443,-1199.4126 443,-1199.4126 439.1621,-1198.2853 444.0146,-1195.9585 435.3243,-1197.158 435.3243,-1197.158"/>
<ellipse fill="none" stroke="#000000" cx="432.254" cy="-1196.2562" rx="3.2" ry="3.2"/>
</g>
<!-- act_ru_deadletter_job&#45;&gt;act_ge_bytearray -->
<g id="edge8" class="edge">
<title>act_ru_deadletter_job:w&#45;&gt;act_ge_bytearray:e</title>
<path fill="none" stroke="#000000" d="M428.2295,-1199.1743C398.5794,-1192.4751 399.2604,-1146.5376 359.5,-1140.4126"/>
<polygon fill="#000000" stroke="#000000" points="435.001,-1199.2835 442.9419,-1203.0121 439.0005,-1199.348 443,-1199.4126 443,-1199.4126 443,-1199.4126 439.0005,-1199.348 443.0581,-1195.813 435.001,-1199.2835 435.001,-1199.2835"/>
<ellipse fill="none" stroke="#000000" cx="431.8015" cy="-1199.2318" rx="3.2" ry="3.2"/>
</g>
<!-- act_ru_deadletter_job&#45;&gt;act_re_procdef -->
<g id="edge10" class="edge">
<title>act_ru_deadletter_job:w&#45;&gt;act_re_procdef:e</title>
<path fill="none" stroke="#000000" d="M428.5712,-1199.6709C333.4732,-1203.0756 291.63,-1238.1572 206,-1185.4126 143.1618,-1146.7068 109.855,-1061.8245 95.4478,-1013.9782"/>
<polygon fill="#000000" stroke="#000000" points="435.0013,-1199.5558 443.0645,-1203.012 439.0006,-1199.4842 443,-1199.4126 443,-1199.4126 443,-1199.4126 439.0006,-1199.4842 442.9355,-1195.8131 435.0013,-1199.5558 435.0013,-1199.5558"/>
<ellipse fill="none" stroke="#000000" cx="431.8018" cy="-1199.6131" rx="3.2" ry="3.2"/>
</g>
<!-- act_ru_execution -->
<g id="node7" class="node">
<title>act_ru_execution</title>
<g id="a_node7"><a xlink:href="../../tables/act_ru_execution.html" xlink:title="act_ru_execution" target="_top">
<polygon fill="#ffffff" stroke="transparent" points="214,-922.9126 214,-983.9126 359,-983.9126 359,-922.9126 214,-922.9126"/>
<polygon fill="#f5f5f5" stroke="transparent" points="214.5,-960.4126 214.5,-983.4126 359.5,-983.4126 359.5,-960.4126 214.5,-960.4126"/>
<polygon fill="none" stroke="#000000" points="214.5,-960.4126 214.5,-983.4126 359.5,-983.4126 359.5,-960.4126 214.5,-960.4126"/>
<text text-anchor="start" x="219.5" y="-969.0126" font-family="Helvetica,sans-Serif" font-weight="bold" font-size="11.00" fill="#000000">act_ru_execution</text>
<text text-anchor="start" x="325.0219" y="-968.5126" font-family="Helvetica,sans-Serif" font-size="11.00" fill="#000000">[table]</text>
<polygon fill="none" stroke="#000000" points="214.5,-941.4126 214.5,-960.4126 359.5,-960.4126 359.5,-941.4126 214.5,-941.4126"/>
<text text-anchor="start" x="217.5" y="-947.5126" font-family="Helvetica,sans-Serif" font-size="11.00" fill="#000000">...</text>
<polygon fill="#ffffff" stroke="transparent" points="214.5,-922.4126 214.5,-941.4126 359.5,-941.4126 359.5,-922.4126 214.5,-922.4126"/>
<polygon fill="none" stroke="#000000" points="214.5,-922.4126 214.5,-941.4126 359.5,-941.4126 359.5,-922.4126 214.5,-922.4126"/>
<polygon fill="#ffffff" stroke="transparent" points="215.5,-923.4126 215.5,-940.4126 264.5,-940.4126 264.5,-923.4126 215.5,-923.4126"/>
<text text-anchor="start" x="217.5" y="-928.5126" font-family="Helvetica,sans-Serif" font-size="11.00" fill="#000000">&lt; 4</text>
<polygon fill="#ffffff" stroke="transparent" points="264.5,-923.4126 264.5,-940.4126 304.5,-940.4126 304.5,-923.4126 264.5,-923.4126"/>
<text text-anchor="start" x="281.4431" y="-928.5126" font-family="Helvetica,sans-Serif" font-size="11.00" fill="#000000"> &#160;</text>
<polygon fill="#ffffff" stroke="transparent" points="304.5,-923.4126 304.5,-940.4126 358.5,-940.4126 358.5,-923.4126 304.5,-923.4126"/>
<text text-anchor="start" x="334.7904" y="-928.5126" font-family="Helvetica,sans-Serif" font-size="11.00" fill="#000000">17 &gt;</text>
<polygon fill="#000000" stroke="#000000" points="264.5,-923.4126 264.5,-940.4126 264.5,-940.4126 264.5,-923.4126 264.5,-923.4126"/>
<polygon fill="#000000" stroke="#000000" points="304.5,-923.4126 304.5,-940.4126 304.5,-940.4126 304.5,-923.4126 304.5,-923.4126"/>
</a>
</g>
</g>
<!-- act_ru_deadletter_job&#45;&gt;act_ru_execution -->
<g id="edge9" class="edge">
<title>act_ru_deadletter_job:w&#45;&gt;act_ru_execution:e</title>
<path fill="none" stroke="#000000" d="M428.7968,-1196.9344C375.9605,-1182.0269 397.3373,-1111.5138 367,-1053.4126 354.8071,-1030.061 337.5101,-1006.4868 322.0727,-988.0487"/>
<polygon fill="#000000" stroke="#000000" points="435.1191,-1198.0375 442.3812,-1202.959 439.0595,-1198.725 443,-1199.4126 443,-1199.4126 443,-1199.4126 439.0595,-1198.725 443.6188,-1195.8661 435.1191,-1198.0375 435.1191,-1198.0375"/>
<ellipse fill="none" stroke="#000000" cx="431.9667" cy="-1197.4874" rx="3.2" ry="3.2"/>
</g>
<!-- act_ru_deadletter_job&#45;&gt;act_ru_execution -->
<g id="edge11" class="edge">
<title>act_ru_deadletter_job:w&#45;&gt;act_ru_execution:e</title>
<path fill="none" stroke="#000000" d="M428.4633,-1199.5895C376.0505,-1194.7294 397.2733,-1124.3912 367,-1066.4126 352.2402,-1038.1449 330.0009,-1009.5509 312.635,-988.1002"/>
<polygon fill="#000000" stroke="#000000" points="435.0006,-1199.51 443.0438,-1203.0123 439.0003,-1199.4613 443,-1199.4126 443,-1199.4126 443,-1199.4126 439.0003,-1199.4613 442.9562,-1195.8128 435.0006,-1199.51 435.0006,-1199.51"/>
<ellipse fill="none" stroke="#000000" cx="431.8008" cy="-1199.5489" rx="3.2" ry="3.2"/>
</g>
<!-- act_ru_execution&#45;&gt;act_re_procdef -->
<g id="edge13" class="edge">
<title>act_ru_execution:w&#45;&gt;act_re_procdef:e</title>
<path fill="none" stroke="#000000" d="M191.3207,-965.7859C181.0657,-967.119 170.7428,-968.461 160.785,-969.7555"/>
<polygon fill="#000000" stroke="#000000" points="197.7956,-964.9442 206.193,-967.4828 201.7622,-964.4285 205.7288,-963.9128 205.7288,-963.9128 205.7288,-963.9128 201.7622,-964.4285 205.2647,-960.3429 197.7956,-964.9442 197.7956,-964.9442"/>
<ellipse fill="none" stroke="#000000" cx="194.6223" cy="-965.3567" rx="3.2" ry="3.2"/>
</g>
<!-- act_ru_event_subscr -->
<g id="node8" class="node">
<title>act_ru_event_subscr</title>
<g id="a_node8"><a xlink:href="../../tables/act_ru_event_subscr.html" xlink:title="act_ru_event_subscr" target="_top">
<polygon fill="#ffffff" stroke="transparent" points="445.5,-181.9126 445.5,-242.9126 614.5,-242.9126 614.5,-181.9126 445.5,-181.9126"/>
<polygon fill="#f5f5f5" stroke="transparent" points="446,-219.4126 446,-242.4126 615,-242.4126 615,-219.4126 446,-219.4126"/>
<polygon fill="none" stroke="#000000" points="446,-219.4126 446,-242.4126 615,-242.4126 615,-219.4126 446,-219.4126"/>
<text text-anchor="start" x="451" y="-228.0126" font-family="Helvetica,sans-Serif" font-weight="bold" font-size="11.00" fill="#000000">act_ru_event_subscr</text>
<text text-anchor="start" x="580.5219" y="-227.5126" font-family="Helvetica,sans-Serif" font-size="11.00" fill="#000000">[table]</text>
<polygon fill="none" stroke="#000000" points="446,-200.4126 446,-219.4126 615,-219.4126 615,-200.4126 446,-200.4126"/>
<text text-anchor="start" x="449" y="-206.5126" font-family="Helvetica,sans-Serif" font-size="11.00" fill="#000000">...</text>
<polygon fill="#ffffff" stroke="transparent" points="446,-181.4126 446,-200.4126 615,-200.4126 615,-181.4126 446,-181.4126"/>
<polygon fill="none" stroke="#000000" points="446,-181.4126 446,-200.4126 615,-200.4126 615,-181.4126 446,-181.4126"/>
<polygon fill="#ffffff" stroke="transparent" points="447,-182.4126 447,-199.4126 509,-199.4126 509,-182.4126 447,-182.4126"/>
<text text-anchor="start" x="449" y="-187.5126" font-family="Helvetica,sans-Serif" font-size="11.00" fill="#000000">&lt; 1</text>
<polygon fill="#ffffff" stroke="transparent" points="509,-182.4126 509,-199.4126 562,-199.4126 562,-182.4126 509,-182.4126"/>
<text text-anchor="start" x="532.4431" y="-187.5126" font-family="Helvetica,sans-Serif" font-size="11.00" fill="#000000"> &#160;</text>
<polygon fill="#ffffff" stroke="transparent" points="562,-182.4126 562,-199.4126 614,-199.4126 614,-182.4126 562,-182.4126"/>
<text text-anchor="start" x="605.8862" y="-187.5126" font-family="Helvetica,sans-Serif" font-size="11.00" fill="#000000"> &#160;</text>
<polygon fill="#000000" stroke="#000000" points="509,-182.4126 509,-199.4126 509,-199.4126 509,-182.4126 509,-182.4126"/>
<polygon fill="#000000" stroke="#000000" points="562,-182.4126 562,-199.4126 562,-199.4126 562,-182.4126 562,-182.4126"/>
</a>
</g>
</g>
<!-- act_ru_event_subscr&#45;&gt;act_ru_execution -->
<g id="edge12" class="edge">
<title>act_ru_event_subscr:w&#45;&gt;act_ru_execution:e</title>
<path fill="none" stroke="#000000" d="M431.4286,-211.6515C415.5085,-217.3661 410.4941,-233.4593 400,-253.4126 392.0843,-268.4632 313.2492,-779.2061 291.8406,-918.5811"/>
<polygon fill="#000000" stroke="#000000" points="438.0928,-210.6276 446.5468,-212.9708 442.0464,-210.0201 446,-209.4126 446,-209.4126 446,-209.4126 442.0464,-210.0201 445.4532,-205.8543 438.0928,-210.6276 438.0928,-210.6276"/>
<ellipse fill="none" stroke="#000000" cx="434.9299" cy="-211.1136" rx="3.2" ry="3.2"/>
</g>
<!-- act_ru_external_job -->
<g id="node9" class="node">
<title>act_ru_external_job</title>
<g id="a_node9"><a xlink:href="../../tables/act_ru_external_job.html" xlink:title="act_ru_external_job" target="_top">
<polygon fill="#ffffff" stroke="transparent" points="449.5,-1253.9126 449.5,-1314.9126 610.5,-1314.9126 610.5,-1253.9126 449.5,-1253.9126"/>
<polygon fill="#f5f5f5" stroke="transparent" points="450,-1291.4126 450,-1314.4126 611,-1314.4126 611,-1291.4126 450,-1291.4126"/>
<polygon fill="none" stroke="#000000" points="450,-1291.4126 450,-1314.4126 611,-1314.4126 611,-1291.4126 450,-1291.4126"/>
<text text-anchor="start" x="455" y="-1300.0126" font-family="Helvetica,sans-Serif" font-weight="bold" font-size="11.00" fill="#000000">act_ru_external_job</text>
<text text-anchor="start" x="576.5219" y="-1299.5126" font-family="Helvetica,sans-Serif" font-size="11.00" fill="#000000">[table]</text>
<polygon fill="none" stroke="#000000" points="450,-1272.4126 450,-1291.4126 611,-1291.4126 611,-1272.4126 450,-1272.4126"/>
<text text-anchor="start" x="453" y="-1278.5126" font-family="Helvetica,sans-Serif" font-size="11.00" fill="#000000">...</text>
<polygon fill="#ffffff" stroke="transparent" points="450,-1253.4126 450,-1272.4126 611,-1272.4126 611,-1253.4126 450,-1253.4126"/>
<polygon fill="none" stroke="#000000" points="450,-1253.4126 450,-1272.4126 611,-1272.4126 611,-1253.4126 450,-1253.4126"/>
<polygon fill="#ffffff" stroke="transparent" points="451,-1254.4126 451,-1271.4126 510,-1271.4126 510,-1254.4126 451,-1254.4126"/>
<text text-anchor="start" x="453" y="-1259.5126" font-family="Helvetica,sans-Serif" font-size="11.00" fill="#000000">&lt; 2</text>
<polygon fill="#ffffff" stroke="transparent" points="510,-1254.4126 510,-1271.4126 560,-1271.4126 560,-1254.4126 510,-1254.4126"/>
<text text-anchor="start" x="531.9431" y="-1259.5126" font-family="Helvetica,sans-Serif" font-size="11.00" fill="#000000"> &#160;</text>
<polygon fill="#ffffff" stroke="transparent" points="560,-1254.4126 560,-1271.4126 610,-1271.4126 610,-1254.4126 560,-1254.4126"/>
<text text-anchor="start" x="601.8862" y="-1259.5126" font-family="Helvetica,sans-Serif" font-size="11.00" fill="#000000"> &#160;</text>
<polygon fill="#000000" stroke="#000000" points="510,-1254.4126 510,-1271.4126 510,-1271.4126 510,-1254.4126 510,-1254.4126"/>
<polygon fill="#000000" stroke="#000000" points="560,-1254.4126 560,-1271.4126 560,-1271.4126 560,-1254.4126 560,-1254.4126"/>
</a>
</g>
</g>
<!-- act_ru_external_job&#45;&gt;act_ge_bytearray -->
<g id="edge14" class="edge">
<title>act_ru_external_job:w&#45;&gt;act_ge_bytearray:e</title>
<path fill="none" stroke="#000000" d="M435.9841,-1276.8061C419.5968,-1269.0146 413.5529,-1255.3229 400,-1237.4126 370.3182,-1198.1876 408.6895,-1134.4126 359.5,-1140.4126"/>
<polygon fill="#000000" stroke="#000000" points="442.4,-1278.9147 448.8759,-1284.8326 446.2,-1280.1636 450,-1281.4126 450,-1281.4126 450,-1281.4126 446.2,-1280.1636 451.1241,-1277.9926 442.4,-1278.9147 442.4,-1278.9147"/>
<ellipse fill="none" stroke="#000000" cx="439.3599" cy="-1277.9155" rx="3.2" ry="3.2"/>
</g>
<!-- act_ru_external_job&#45;&gt;act_ge_bytearray -->
<g id="edge15" class="edge">
<title>act_ru_external_job:w&#45;&gt;act_ge_bytearray:e</title>
<path fill="none" stroke="#000000" d="M435.5097,-1282.9991C419.4787,-1281.7484 413.4213,-1268.149 400,-1250.4126 370.3182,-1211.1876 408.6895,-1147.4126 359.5,-1140.4126"/>
<polygon fill="#000000" stroke="#000000" points="442.0475,-1282.2834 450.3919,-1284.9912 446.0238,-1281.848 450,-1281.4126 450,-1281.4126 450,-1281.4126 446.0238,-1281.848 449.6081,-1277.834 442.0475,-1282.2834 442.0475,-1282.2834"/>
<ellipse fill="none" stroke="#000000" cx="438.8665" cy="-1282.6317" rx="3.2" ry="3.2"/>
</g>
<!-- act_ru_identitylink -->
<g id="node10" class="node">
<title>act_ru_identitylink</title>
<g id="a_node10"><a xlink:href="../../tables/act_ru_identitylink.html" xlink:title="act_ru_identitylink" target="_top">
<polygon fill="#ffffff" stroke="transparent" points="701,-71.9126 701,-132.9126 854,-132.9126 854,-71.9126 701,-71.9126"/>
<polygon fill="#f5f5f5" stroke="transparent" points="701.5,-109.4126 701.5,-132.4126 854.5,-132.4126 854.5,-109.4126 701.5,-109.4126"/>
<polygon fill="none" stroke="#000000" points="701.5,-109.4126 701.5,-132.4126 854.5,-132.4126 854.5,-109.4126 701.5,-109.4126"/>
<text text-anchor="start" x="706.5" y="-118.0126" font-family="Helvetica,sans-Serif" font-weight="bold" font-size="11.00" fill="#000000">act_ru_identitylink</text>
<text text-anchor="start" x="820.0219" y="-117.5126" font-family="Helvetica,sans-Serif" font-size="11.00" fill="#000000">[table]</text>
<polygon fill="none" stroke="#000000" points="701.5,-90.4126 701.5,-109.4126 854.5,-109.4126 854.5,-90.4126 701.5,-90.4126"/>
<text text-anchor="start" x="704.5" y="-96.5126" font-family="Helvetica,sans-Serif" font-size="11.00" fill="#000000">...</text>
<polygon fill="#ffffff" stroke="transparent" points="701.5,-71.4126 701.5,-90.4126 854.5,-90.4126 854.5,-71.4126 701.5,-71.4126"/>
<polygon fill="none" stroke="#000000" points="701.5,-71.4126 701.5,-90.4126 854.5,-90.4126 854.5,-71.4126 701.5,-71.4126"/>
<polygon fill="#ffffff" stroke="transparent" points="702.5,-72.4126 702.5,-89.4126 759.5,-89.4126 759.5,-72.4126 702.5,-72.4126"/>
<text text-anchor="start" x="704.5" y="-77.5126" font-family="Helvetica,sans-Serif" font-size="11.00" fill="#000000">&lt; 3</text>
<polygon fill="#ffffff" stroke="transparent" points="759.5,-72.4126 759.5,-89.4126 806.5,-89.4126 806.5,-72.4126 759.5,-72.4126"/>
<text text-anchor="start" x="779.9431" y="-77.5126" font-family="Helvetica,sans-Serif" font-size="11.00" fill="#000000"> &#160;</text>
<polygon fill="#ffffff" stroke="transparent" points="806.5,-72.4126 806.5,-89.4126 853.5,-89.4126 853.5,-72.4126 806.5,-72.4126"/>
<text text-anchor="start" x="845.3862" y="-77.5126" font-family="Helvetica,sans-Serif" font-size="11.00" fill="#000000"> &#160;</text>
<polygon fill="#000000" stroke="#000000" points="759.5,-72.4126 759.5,-89.4126 759.5,-89.4126 759.5,-72.4126 759.5,-72.4126"/>
<polygon fill="#000000" stroke="#000000" points="806.5,-72.4126 806.5,-89.4126 806.5,-89.4126 806.5,-72.4126 806.5,-72.4126"/>
</a>
</g>
</g>
<!-- act_ru_identitylink&#45;&gt;act_re_procdef -->
<g id="edge16" class="edge">
<title>act_ru_identitylink:w&#45;&gt;act_re_procdef:e</title>
<path fill="none" stroke="#000000" d="M687.7431,-94.7491C678.0176,-86.185 677.4824,-68.2075 660,-61.4126 552.2937,-19.5504 511.6762,-31.7222 400,-61.4126 303.9969,-86.9361 262.0128,-90.3723 206,-172.4126 117.9536,-301.3715 92.9255,-806.8806 87.6772,-944.6006"/>
<polygon fill="#000000" stroke="#000000" points="693.9235,-96.8442 700.3442,-102.822 697.7117,-98.1284 701.5,-99.4126 701.5,-99.4126 701.5,-99.4126 697.7117,-98.1284 702.6558,-96.0031 693.9235,-96.8442 693.9235,-96.8442"/>
<ellipse fill="none" stroke="#000000" cx="690.8929" cy="-95.8168" rx="3.2" ry="3.2"/>
</g>
<!-- act_ru_identitylink&#45;&gt;act_ru_execution -->
<g id="edge17" class="edge">
<title>act_ru_identitylink:w&#45;&gt;act_ru_execution:e</title>
<path fill="none" stroke="#000000" d="M687.6878,-104.022C677.2096,-113.3294 678.4331,-134.258 660,-143.4126 607.9534,-169.2609 441.4124,-130.645 400,-171.4126 357.3954,-213.3538 375.2842,-379.2045 367,-438.4126 341.6386,-619.6739 306.1052,-835.9715 292.3019,-918.8089"/>
<polygon fill="#000000" stroke="#000000" points="693.9114,-101.9451 702.6396,-102.8274 697.7057,-100.6788 701.5,-99.4126 701.5,-99.4126 701.5,-99.4126 697.7057,-100.6788 700.3604,-95.9977 693.9114,-101.9451 693.9114,-101.9451"/>
<ellipse fill="none" stroke="#000000" cx="690.876" cy="-102.9581" rx="3.2" ry="3.2"/>
</g>
<!-- act_ru_task -->
<g id="node11" class="node">
<title>act_ru_task</title>
<g id="a_node11"><a xlink:href="../../tables/act_ru_task.html" xlink:title="act_ru_task" target="_top">
<polygon fill="#ffffff" stroke="transparent" points="474.5,-71.9126 474.5,-132.9126 585.5,-132.9126 585.5,-71.9126 474.5,-71.9126"/>
<polygon fill="#f5f5f5" stroke="transparent" points="475,-109.4126 475,-132.4126 586,-132.4126 586,-109.4126 475,-109.4126"/>
<polygon fill="none" stroke="#000000" points="475,-109.4126 475,-132.4126 586,-132.4126 586,-109.4126 475,-109.4126"/>
<text text-anchor="start" x="480" y="-118.0126" font-family="Helvetica,sans-Serif" font-weight="bold" font-size="11.00" fill="#000000">act_ru_task</text>
<text text-anchor="start" x="551.5219" y="-117.5126" font-family="Helvetica,sans-Serif" font-size="11.00" fill="#000000">[table]</text>
<polygon fill="none" stroke="#000000" points="475,-90.4126 475,-109.4126 586,-109.4126 586,-90.4126 475,-90.4126"/>
<text text-anchor="start" x="478" y="-96.5126" font-family="Helvetica,sans-Serif" font-size="11.00" fill="#000000">...</text>
<polygon fill="#ffffff" stroke="transparent" points="475,-71.4126 475,-90.4126 586,-90.4126 586,-71.4126 475,-71.4126"/>
<polygon fill="none" stroke="#000000" points="475,-71.4126 475,-90.4126 586,-90.4126 586,-71.4126 475,-71.4126"/>
<polygon fill="#ffffff" stroke="transparent" points="476,-72.4126 476,-89.4126 516,-89.4126 516,-72.4126 476,-72.4126"/>
<text text-anchor="start" x="478" y="-77.5126" font-family="Helvetica,sans-Serif" font-size="11.00" fill="#000000">&lt; 3</text>
<polygon fill="#ffffff" stroke="transparent" points="516,-72.4126 516,-89.4126 546,-89.4126 546,-72.4126 516,-72.4126"/>
<text text-anchor="start" x="527.9431" y="-77.5126" font-family="Helvetica,sans-Serif" font-size="11.00" fill="#000000"> &#160;</text>
<polygon fill="#ffffff" stroke="transparent" points="546,-72.4126 546,-89.4126 585,-89.4126 585,-72.4126 546,-72.4126"/>
<text text-anchor="start" x="567.4053" y="-77.5126" font-family="Helvetica,sans-Serif" font-size="11.00" fill="#000000">1 &gt;</text>
<polygon fill="#000000" stroke="#000000" points="516,-72.4126 516,-89.4126 516,-89.4126 516,-72.4126 516,-72.4126"/>
<polygon fill="#000000" stroke="#000000" points="546,-72.4126 546,-89.4126 546,-89.4126 546,-72.4126 546,-72.4126"/>
</a>
</g>
</g>
<!-- act_ru_identitylink&#45;&gt;act_ru_task -->
<g id="edge18" class="edge">
<title>act_ru_identitylink:w&#45;&gt;act_ru_task:e</title>
<path fill="none" stroke="#000000" d="M686.9701,-99.4126C647.1628,-99.4126 632.1198,-99.4126 586,-99.4126"/>
<polygon fill="#000000" stroke="#000000" points="693.5,-99.4126 701.5,-103.0126 697.5,-99.4126 701.5,-99.4126 701.5,-99.4126 701.5,-99.4126 697.5,-99.4126 701.5,-95.8126 693.5,-99.4126 693.5,-99.4126"/>
<ellipse fill="none" stroke="#000000" cx="690.3" cy="-99.4126" rx="3.2" ry="3.2"/>
</g>
<!-- act_ru_task&#45;&gt;act_re_procdef -->
<g id="edge30" class="edge">
<title>act_ru_task:w&#45;&gt;act_re_procdef:e</title>
<path fill="none" stroke="#000000" d="M460.4517,-100.7621C278.7151,-134.3663 127.9571,-785.6825 93.7696,-944.6445"/>
<polygon fill="#000000" stroke="#000000" points="467.0342,-100.1515 475.3325,-102.9972 471.0171,-99.7821 475,-99.4126 475,-99.4126 475,-99.4126 471.0171,-99.7821 474.6675,-95.828 467.0342,-100.1515 467.0342,-100.1515"/>
<ellipse fill="none" stroke="#000000" cx="463.8479" cy="-100.4471" rx="3.2" ry="3.2"/>
</g>
<!-- act_ru_task&#45;&gt;act_ru_execution -->
<g id="edge29" class="edge">
<title>act_ru_task:w&#45;&gt;act_ru_execution:e</title>
<path fill="none" stroke="#000000" d="M460.4849,-98.0991C431.4604,-97.5787 418.1485,-112.2844 400,-141.4126 365.5842,-196.6494 375.694,-367.9147 367,-432.4126 342.2477,-616.0412 305.5946,-835.3748 291.911,-918.9042"/>
<polygon fill="#000000" stroke="#000000" points="467.0326,-98.6916 474.6755,-102.9979 471.0163,-99.0521 475,-99.4126 475,-99.4126 475,-99.4126 471.0163,-99.0521 475.3245,-95.8272 467.0326,-98.6916 467.0326,-98.6916"/>
<ellipse fill="none" stroke="#000000" cx="463.8456" cy="-98.4032" rx="3.2" ry="3.2"/>
</g>
<!-- act_ru_task&#45;&gt;act_ru_execution -->
<g id="edge31" class="edge">
<title>act_ru_task:w&#45;&gt;act_ru_execution:e</title>
<path fill="none" stroke="#000000" d="M460.8781,-102.5142C431.5802,-110.4465 418.2303,-125.1532 400,-154.4126 365.5842,-209.6494 375.694,-380.9147 367,-445.4126 342.9126,-624.1085 307.5551,-836.6171 293.0628,-918.7529"/>
<polygon fill="#000000" stroke="#000000" points="467.1862,-101.1288 475.7723,-102.9288 471.0931,-100.2707 475,-99.4126 475,-99.4126 475,-99.4126 471.0931,-100.2707 474.2277,-95.8964 467.1862,-101.1288 467.1862,-101.1288"/>
<ellipse fill="none" stroke="#000000" cx="464.0607" cy="-101.8153" rx="3.2" ry="3.2"/>
</g>
<!-- act_ru_job -->
<g id="node12" class="node">
<title>act_ru_job</title>
<g id="a_node12"><a xlink:href="../../tables/act_ru_job.html" xlink:title="act_ru_job" target="_top">
<polygon fill="#ffffff" stroke="transparent" points="478,-1089.9126 478,-1150.9126 582,-1150.9126 582,-1089.9126 478,-1089.9126"/>
<polygon fill="#f5f5f5" stroke="transparent" points="478,-1127.4126 478,-1150.4126 582,-1150.4126 582,-1127.4126 478,-1127.4126"/>
<polygon fill="none" stroke="#000000" points="478,-1127.4126 478,-1150.4126 582,-1150.4126 582,-1127.4126 478,-1127.4126"/>
<text text-anchor="start" x="483" y="-1136.0126" font-family="Helvetica,sans-Serif" font-weight="bold" font-size="11.00" fill="#000000">act_ru_job</text>
<text text-anchor="start" x="547.5219" y="-1135.5126" font-family="Helvetica,sans-Serif" font-size="11.00" fill="#000000">[table]</text>
<polygon fill="none" stroke="#000000" points="478,-1108.4126 478,-1127.4126 582,-1127.4126 582,-1108.4126 478,-1108.4126"/>
<text text-anchor="start" x="481" y="-1114.5126" font-family="Helvetica,sans-Serif" font-size="11.00" fill="#000000">...</text>
<polygon fill="#ffffff" stroke="transparent" points="478,-1089.4126 478,-1108.4126 582,-1108.4126 582,-1089.4126 478,-1089.4126"/>
<polygon fill="none" stroke="#000000" points="478,-1089.4126 478,-1108.4126 582,-1108.4126 582,-1089.4126 478,-1089.4126"/>
<polygon fill="#ffffff" stroke="transparent" points="479,-1090.4126 479,-1107.4126 519,-1107.4126 519,-1090.4126 479,-1090.4126"/>
<text text-anchor="start" x="481" y="-1095.5126" font-family="Helvetica,sans-Serif" font-size="11.00" fill="#000000">&lt; 5</text>
<polygon fill="#ffffff" stroke="transparent" points="519,-1090.4126 519,-1107.4126 550,-1107.4126 550,-1090.4126 519,-1090.4126"/>
<text text-anchor="start" x="531.4431" y="-1095.5126" font-family="Helvetica,sans-Serif" font-size="11.00" fill="#000000"> &#160;</text>
<polygon fill="#ffffff" stroke="transparent" points="550,-1090.4126 550,-1107.4126 581,-1107.4126 581,-1090.4126 550,-1090.4126"/>
<text text-anchor="start" x="572.8862" y="-1095.5126" font-family="Helvetica,sans-Serif" font-size="11.00" fill="#000000"> &#160;</text>
<polygon fill="#000000" stroke="#000000" points="519,-1090.4126 519,-1107.4126 519,-1107.4126 519,-1090.4126 519,-1090.4126"/>
<polygon fill="#000000" stroke="#000000" points="550,-1090.4126 550,-1107.4126 550,-1107.4126 550,-1090.4126 550,-1090.4126"/>
</a>
</g>
</g>
<!-- act_ru_job&#45;&gt;act_ge_bytearray -->
<g id="edge19" class="edge">
<title>act_ru_job:w&#45;&gt;act_ge_bytearray:e</title>
<path fill="none" stroke="#000000" d="M463.4178,-1116.4416C421.758,-1115.7426 407.9103,-1134.9985 359.5,-1140.4126"/>
<polygon fill="#000000" stroke="#000000" points="470.0177,-1116.881 477.7608,-1121.0046 474.0088,-1117.1468 478,-1117.4126 478,-1117.4126 478,-1117.4126 474.0088,-1117.1468 478.2392,-1113.8205 470.0177,-1116.881 470.0177,-1116.881"/>
<ellipse fill="none" stroke="#000000" cx="466.8247" cy="-1116.6684" rx="3.2" ry="3.2"/>
</g>
<!-- act_ru_job&#45;&gt;act_ge_bytearray -->
<g id="edge20" class="edge">
<title>act_ru_job:w&#45;&gt;act_ge_bytearray:e</title>
<path fill="none" stroke="#000000" d="M463.6887,-1119.8217C421.8178,-1128.5401 408.0151,-1146.7427 359.5,-1140.4126"/>
<polygon fill="#000000" stroke="#000000" points="470.111,-1118.7406 478.5976,-1120.9626 474.0555,-1118.0766 478,-1117.4126 478,-1117.4126 478,-1117.4126 474.0555,-1118.0766 477.4024,-1113.8625 470.111,-1118.7406 470.111,-1118.7406"/>
<ellipse fill="none" stroke="#000000" cx="466.9554" cy="-1119.2718" rx="3.2" ry="3.2"/>
</g>
<!-- act_ru_job&#45;&gt;act_re_procdef -->
<g id="edge22" class="edge">
<title>act_ru_job:w&#45;&gt;act_re_procdef:e</title>
<path fill="none" stroke="#000000" d="M463.518,-1116.3105C437.3095,-1111.9376 429.0965,-1095.2741 400,-1079.4126 384.9421,-1071.2039 383.023,-1065.5269 367,-1059.4126 298.9959,-1033.4623 275.7427,-1050.2436 206,-1029.4126 191.0237,-1024.9394 175.3714,-1019.2098 160.5141,-1013.2357"/>
<polygon fill="#000000" stroke="#000000" points="470.0231,-1116.8055 477.7268,-1121.0022 474.0115,-1117.109 478,-1117.4126 478,-1117.4126 478,-1117.4126 474.0115,-1117.109 478.2732,-1113.823 470.0231,-1116.8055 470.0231,-1116.8055"/>
<ellipse fill="none" stroke="#000000" cx="466.8323" cy="-1116.5627" rx="3.2" ry="3.2"/>
</g>
<!-- act_ru_job&#45;&gt;act_ru_execution -->
<g id="edge21" class="edge">
<title>act_ru_job:w&#45;&gt;act_ru_execution:e</title>
<path fill="none" stroke="#000000" d="M463.6642,-1114.54C436.3482,-1107.6027 425.4417,-1094.8817 400,-1073.4126 380.7705,-1057.1857 383.3131,-1046.569 367,-1027.4126 355.5029,-1013.9116 342.1402,-1000.0158 329.6447,-987.9322"/>
<polygon fill="#000000" stroke="#000000" points="470.1559,-1115.8407 477.2927,-1120.9424 474.078,-1116.6267 478,-1117.4126 478,-1117.4126 478,-1117.4126 474.078,-1116.6267 478.7073,-1113.8827 470.1559,-1115.8407 470.1559,-1115.8407"/>
<ellipse fill="none" stroke="#000000" cx="467.0183" cy="-1115.212" rx="3.2" ry="3.2"/>
</g>
<!-- act_ru_job&#45;&gt;act_ru_execution -->
<g id="edge23" class="edge">
<title>act_ru_job:w&#45;&gt;act_ru_execution:e</title>
<path fill="none" stroke="#000000" d="M463.6642,-1119.1763C436.3482,-1120.6027 425.4417,-1107.8817 400,-1086.4126 380.7705,-1070.1857 383.3131,-1059.569 367,-1040.4126 351.6705,-1022.4113 333.0245,-1003.7081 317.5394,-988.1954"/>
<polygon fill="#000000" stroke="#000000" points="470.0599,-1118.3895 478.4396,-1120.9856 474.0299,-1117.901 478,-1117.4126 478,-1117.4126 478,-1117.4126 474.0299,-1117.901 477.5604,-1113.8395 470.0599,-1118.3895 470.0599,-1118.3895"/>
<ellipse fill="none" stroke="#000000" cx="466.8838" cy="-1118.7802" rx="3.2" ry="3.2"/>
</g>
<!-- act_ru_suspended_job -->
<g id="node13" class="node">
<title>act_ru_suspended_job</title>
<g id="a_node13"><a xlink:href="../../tables/act_ru_suspended_job.html" xlink:title="act_ru_suspended_job" target="_top">
<polygon fill="#ffffff" stroke="transparent" points="440,-1007.9126 440,-1068.9126 620,-1068.9126 620,-1007.9126 440,-1007.9126"/>
<polygon fill="#f5f5f5" stroke="transparent" points="440,-1045.4126 440,-1068.4126 620,-1068.4126 620,-1045.4126 440,-1045.4126"/>
<polygon fill="none" stroke="#000000" points="440,-1045.4126 440,-1068.4126 620,-1068.4126 620,-1045.4126 440,-1045.4126"/>
<text text-anchor="start" x="445" y="-1054.0126" font-family="Helvetica,sans-Serif" font-weight="bold" font-size="11.00" fill="#000000">act_ru_suspended_job</text>
<text text-anchor="start" x="585.5219" y="-1053.5126" font-family="Helvetica,sans-Serif" font-size="11.00" fill="#000000">[table]</text>
<polygon fill="none" stroke="#000000" points="440,-1026.4126 440,-1045.4126 620,-1045.4126 620,-1026.4126 440,-1026.4126"/>
<text text-anchor="start" x="443" y="-1032.5126" font-family="Helvetica,sans-Serif" font-size="11.00" fill="#000000">...</text>
<polygon fill="#ffffff" stroke="transparent" points="440,-1007.4126 440,-1026.4126 620,-1026.4126 620,-1007.4126 440,-1007.4126"/>
<polygon fill="none" stroke="#000000" points="440,-1007.4126 440,-1026.4126 620,-1026.4126 620,-1007.4126 440,-1007.4126"/>
<polygon fill="#ffffff" stroke="transparent" points="441,-1008.4126 441,-1025.4126 507,-1025.4126 507,-1008.4126 441,-1008.4126"/>
<text text-anchor="start" x="443" y="-1013.5126" font-family="Helvetica,sans-Serif" font-size="11.00" fill="#000000">&lt; 5</text>
<polygon fill="#ffffff" stroke="transparent" points="507,-1008.4126 507,-1025.4126 563,-1025.4126 563,-1008.4126 507,-1008.4126"/>
<text text-anchor="start" x="531.9431" y="-1013.5126" font-family="Helvetica,sans-Serif" font-size="11.00" fill="#000000"> &#160;</text>
<polygon fill="#ffffff" stroke="transparent" points="563,-1008.4126 563,-1025.4126 619,-1025.4126 619,-1008.4126 563,-1008.4126"/>
<text text-anchor="start" x="610.8862" y="-1013.5126" font-family="Helvetica,sans-Serif" font-size="11.00" fill="#000000"> &#160;</text>
<polygon fill="#000000" stroke="#000000" points="507,-1008.4126 507,-1025.4126 507,-1025.4126 507,-1008.4126 507,-1008.4126"/>
<polygon fill="#000000" stroke="#000000" points="563,-1008.4126 563,-1025.4126 563,-1025.4126 563,-1008.4126 563,-1008.4126"/>
</a>
</g>
</g>
<!-- act_ru_suspended_job&#45;&gt;act_ge_bytearray -->
<g id="edge24" class="edge">
<title>act_ru_suspended_job:w&#45;&gt;act_ge_bytearray:e</title>
<path fill="none" stroke="#000000" d="M425.595,-1035.5931C413.7853,-1040.139 412.4374,-1057.4519 400,-1073.4126 379.9973,-1099.0817 392.0425,-1134.4126 359.5,-1140.4126"/>
<polygon fill="#000000" stroke="#000000" points="432.0006,-1035.5129 440.0451,-1039.0123 436.0003,-1035.4627 440,-1035.4126 440,-1035.4126 440,-1035.4126 436.0003,-1035.4627 439.9549,-1031.8129 432.0006,-1035.5129 432.0006,-1035.5129"/>
<ellipse fill="none" stroke="#000000" cx="428.8009" cy="-1035.553" rx="3.2" ry="3.2"/>
</g>
<!-- act_ru_suspended_job&#45;&gt;act_ge_bytearray -->
<g id="edge25" class="edge">
<title>act_ru_suspended_job:w&#45;&gt;act_ge_bytearray:e</title>
<path fill="none" stroke="#000000" d="M426.7096,-1041.8252C413.8575,-1052.0778 412.8181,-1069.9634 400,-1086.4126 379.9973,-1112.0817 392.0425,-1147.4126 359.5,-1140.4126"/>
<polygon fill="#000000" stroke="#000000" points="432.7949,-1038.8891 441.5644,-1038.6549 436.3974,-1037.1508 440,-1035.4126 440,-1035.4126 440,-1035.4126 436.3974,-1037.1508 438.4356,-1032.1703 432.7949,-1038.8891 432.7949,-1038.8891"/>
<ellipse fill="none" stroke="#000000" cx="429.9128" cy="-1040.2797" rx="3.2" ry="3.2"/>
</g>
<!-- act_ru_suspended_job&#45;&gt;act_re_procdef -->
<g id="edge27" class="edge">
<title>act_ru_suspended_job:w&#45;&gt;act_re_procdef:e</title>
<path fill="none" stroke="#000000" d="M425.355,-1035.2595C331.6761,-1033.3329 228.4,-1013.6064 160.7822,-998.1376"/>
<polygon fill="#000000" stroke="#000000" points="432.0004,-1035.3289 439.9624,-1039.0124 436.0002,-1035.3707 440,-1035.4126 440,-1035.4126 440,-1035.4126 436.0002,-1035.3707 440.0376,-1031.8128 432.0004,-1035.3289 432.0004,-1035.3289"/>
<ellipse fill="none" stroke="#000000" cx="428.8006" cy="-1035.2954" rx="3.2" ry="3.2"/>
</g>
<!-- act_ru_suspended_job&#45;&gt;act_ru_execution -->
<g id="edge26" class="edge">
<title>act_ru_suspended_job:w&#45;&gt;act_ru_execution:e</title>
<path fill="none" stroke="#000000" d="M426.7859,-1029.3759C409.3867,-1020.4562 380.0184,-1003.5989 352.6357,-987.9957"/>
<polygon fill="#000000" stroke="#000000" points="432.7234,-1032.0883 438.5041,-1038.6871 436.3617,-1033.7504 440,-1035.4126 440,-1035.4126 440,-1035.4126 436.3617,-1033.7504 441.4959,-1032.1381 432.7234,-1032.0883 432.7234,-1032.0883"/>
<ellipse fill="none" stroke="#000000" cx="429.8127" cy="-1030.7586" rx="3.2" ry="3.2"/>
</g>
<!-- act_ru_suspended_job&#45;&gt;act_ru_execution -->
<g id="edge28" class="edge">
<title>act_ru_suspended_job:w&#45;&gt;act_ru_execution:e</title>
<path fill="none" stroke="#000000" d="M425.6026,-1033.5037C404.4165,-1026.7646 366.9483,-1006.5667 336.2325,-988.0819"/>
<polygon fill="#000000" stroke="#000000" points="432.0694,-1034.361 439.5268,-1038.9813 436.0347,-1034.8868 440,-1035.4126 440,-1035.4126 440,-1035.4126 436.0347,-1034.8868 440.4732,-1031.8438 432.0694,-1034.361 432.0694,-1034.361"/>
<ellipse fill="none" stroke="#000000" cx="428.8972" cy="-1033.9404" rx="3.2" ry="3.2"/>
</g>
<!-- act_ru_timer_job -->
<g id="node14" class="node">
<title>act_ru_timer_job</title>
<g id="a_node14"><a xlink:href="../../tables/act_ru_timer_job.html" xlink:title="act_ru_timer_job" target="_top">
<polygon fill="#ffffff" stroke="transparent" points="408,-264.4126 408,-904.4126 652,-904.4126 652,-264.4126 408,-264.4126"/>
<polygon fill="#f5f5f5" stroke="transparent" points="410,-879.4126 410,-902.4126 650,-902.4126 650,-879.4126 410,-879.4126"/>
<polygon fill="none" stroke="#000000" points="410,-879.4126 410,-902.4126 650,-902.4126 650,-879.4126 410,-879.4126"/>
<text text-anchor="start" x="415" y="-888.0126" font-family="Helvetica,sans-Serif" font-weight="bold" font-size="11.00" fill="#000000">act_ru_timer_job</text>
<text text-anchor="start" x="615.0437" y="-887.5126" font-family="Helvetica,sans-Serif" font-size="11.00" fill="#000000">[table]</text>
<polygon fill="none" stroke="#000000" points="410,-857.4126 410,-879.4126 566,-879.4126 566,-857.4126 410,-857.4126"/>
<image xlink:href="../../images/primaryKeys.png" width="11px" height="12px" preserveAspectRatio="xMinYMin meet" x="415" y="-874.413"/>
<text text-anchor="start" x="430" y="-864.5126" font-family="Helvetica,sans-Serif" font-size="11.00" fill="#000000">id_</text>
<polygon fill="none" stroke="#000000" points="566,-857.4126 566,-879.4126 650,-879.4126 650,-857.4126 566,-857.4126"/>
<text text-anchor="start" x="569" y="-865.1126" font-family="Helvetica,sans-Serif" font-size="11.00" fill="#000000">varchar[64]</text>
<polygon fill="none" stroke="#000000" points="410,-835.4126 410,-857.4126 566,-857.4126 566,-835.4126 410,-835.4126"/>
<text text-anchor="start" x="430" y="-842.5126" font-family="Helvetica,sans-Serif" font-size="11.00" fill="#000000">rev_</text>
<polygon fill="none" stroke="#000000" points="566,-835.4126 566,-857.4126 650,-857.4126 650,-835.4126 566,-835.4126"/>
<text text-anchor="start" x="569" y="-843.1126" font-family="Helvetica,sans-Serif" font-size="11.00" fill="#000000">int4[10]</text>
<polygon fill="none" stroke="#000000" points="410,-813.4126 410,-835.4126 566,-835.4126 566,-813.4126 410,-813.4126"/>
<text text-anchor="start" x="430" y="-820.5126" font-family="Helvetica,sans-Serif" font-size="11.00" fill="#000000">category_</text>
<polygon fill="none" stroke="#000000" points="566,-813.4126 566,-835.4126 650,-835.4126 650,-813.4126 566,-813.4126"/>
<text text-anchor="start" x="569" y="-821.1126" font-family="Helvetica,sans-Serif" font-size="11.00" fill="#000000">varchar[255]</text>
<polygon fill="none" stroke="#000000" points="410,-791.4126 410,-813.4126 566,-813.4126 566,-791.4126 410,-791.4126"/>
<text text-anchor="start" x="430" y="-798.5126" font-family="Helvetica,sans-Serif" font-size="11.00" fill="#000000">type_</text>
<polygon fill="none" stroke="#000000" points="566,-791.4126 566,-813.4126 650,-813.4126 650,-791.4126 566,-791.4126"/>
<text text-anchor="start" x="569" y="-799.1126" font-family="Helvetica,sans-Serif" font-size="11.00" fill="#000000">varchar[255]</text>
<polygon fill="none" stroke="#000000" points="410,-769.4126 410,-791.4126 566,-791.4126 566,-769.4126 410,-769.4126"/>
<text text-anchor="start" x="430" y="-776.5126" font-family="Helvetica,sans-Serif" font-size="11.00" fill="#000000">lock_exp_time_</text>
<polygon fill="none" stroke="#000000" points="566,-769.4126 566,-791.4126 650,-791.4126 650,-769.4126 566,-769.4126"/>
<text text-anchor="start" x="568.8807" y="-777.1126" font-family="Helvetica,sans-Serif" font-size="11.00" fill="#000000">timestamp[29,6]</text>
<polygon fill="none" stroke="#000000" points="410,-747.4126 410,-769.4126 566,-769.4126 566,-747.4126 410,-747.4126"/>
<text text-anchor="start" x="430" y="-754.5126" font-family="Helvetica,sans-Serif" font-size="11.00" fill="#000000">lock_owner_</text>
<polygon fill="none" stroke="#000000" points="566,-747.4126 566,-769.4126 650,-769.4126 650,-747.4126 566,-747.4126"/>
<text text-anchor="start" x="569" y="-755.1126" font-family="Helvetica,sans-Serif" font-size="11.00" fill="#000000">varchar[255]</text>
<polygon fill="none" stroke="#000000" points="410,-725.4126 410,-747.4126 566,-747.4126 566,-725.4126 410,-725.4126"/>
<text text-anchor="start" x="430" y="-732.5126" font-family="Helvetica,sans-Serif" font-size="11.00" fill="#000000">exclusive_</text>
<polygon fill="none" stroke="#000000" points="566,-725.4126 566,-747.4126 650,-747.4126 650,-725.4126 566,-725.4126"/>
<text text-anchor="start" x="569" y="-733.1126" font-family="Helvetica,sans-Serif" font-size="11.00" fill="#000000">bool[1]</text>
<polygon fill="#ffffff" stroke="transparent" points="410,-703.4126 410,-725.4126 566,-725.4126 566,-703.4126 410,-703.4126"/>
<polygon fill="none" stroke="#000000" points="410,-703.4126 410,-725.4126 566,-725.4126 566,-703.4126 410,-703.4126"/>
<image xlink:href="../../images/foreignKeys.png" width="11px" height="12px" preserveAspectRatio="xMinYMin meet" x="415" y="-720.413"/>
<text text-anchor="start" x="430" y="-710.5126" font-family="Helvetica,sans-Serif" font-size="11.00" fill="#000000">execution_id_</text>
<polygon fill="none" stroke="#000000" points="566,-703.4126 566,-725.4126 650,-725.4126 650,-703.4126 566,-703.4126"/>
<text text-anchor="start" x="569" y="-711.1126" font-family="Helvetica,sans-Serif" font-size="11.00" fill="#000000">varchar[64]</text>
<polygon fill="#ffffff" stroke="transparent" points="410,-681.4126 410,-703.4126 566,-703.4126 566,-681.4126 410,-681.4126"/>
<polygon fill="none" stroke="#000000" points="410,-681.4126 410,-703.4126 566,-703.4126 566,-681.4126 410,-681.4126"/>
<image xlink:href="../../images/foreignKeys.png" width="11px" height="12px" preserveAspectRatio="xMinYMin meet" x="415" y="-698.413"/>
<text text-anchor="start" x="430" y="-688.5126" font-family="Helvetica,sans-Serif" font-size="11.00" fill="#000000">process_instance_id_</text>
<polygon fill="none" stroke="#000000" points="566,-681.4126 566,-703.4126 650,-703.4126 650,-681.4126 566,-681.4126"/>
<text text-anchor="start" x="569" y="-689.1126" font-family="Helvetica,sans-Serif" font-size="11.00" fill="#000000">varchar[64]</text>
<polygon fill="#ffffff" stroke="transparent" points="410,-659.4126 410,-681.4126 566,-681.4126 566,-659.4126 410,-659.4126"/>
<polygon fill="none" stroke="#000000" points="410,-659.4126 410,-681.4126 566,-681.4126 566,-659.4126 410,-659.4126"/>
<image xlink:href="../../images/foreignKeys.png" width="11px" height="12px" preserveAspectRatio="xMinYMin meet" x="415" y="-676.413"/>
<text text-anchor="start" x="430" y="-666.5126" font-family="Helvetica,sans-Serif" font-size="11.00" fill="#000000">proc_def_id_</text>
<polygon fill="none" stroke="#000000" points="566,-659.4126 566,-681.4126 650,-681.4126 650,-659.4126 566,-659.4126"/>
<text text-anchor="start" x="569" y="-667.1126" font-family="Helvetica,sans-Serif" font-size="11.00" fill="#000000">varchar[64]</text>
<polygon fill="none" stroke="#000000" points="410,-637.4126 410,-659.4126 566,-659.4126 566,-637.4126 410,-637.4126"/>
<text text-anchor="start" x="430" y="-644.5126" font-family="Helvetica,sans-Serif" font-size="11.00" fill="#000000">element_id_</text>
<polygon fill="none" stroke="#000000" points="566,-637.4126 566,-659.4126 650,-659.4126 650,-637.4126 566,-637.4126"/>
<text text-anchor="start" x="569" y="-645.1126" font-family="Helvetica,sans-Serif" font-size="11.00" fill="#000000">varchar[255]</text>
<polygon fill="none" stroke="#000000" points="410,-615.4126 410,-637.4126 566,-637.4126 566,-615.4126 410,-615.4126"/>
<text text-anchor="start" x="430" y="-622.5126" font-family="Helvetica,sans-Serif" font-size="11.00" fill="#000000">element_name_</text>
<polygon fill="none" stroke="#000000" points="566,-615.4126 566,-637.4126 650,-637.4126 650,-615.4126 566,-615.4126"/>
<text text-anchor="start" x="569" y="-623.1126" font-family="Helvetica,sans-Serif" font-size="11.00" fill="#000000">varchar[255]</text>
<polygon fill="#ffffff" stroke="transparent" points="410,-593.4126 410,-615.4126 566,-615.4126 566,-593.4126 410,-593.4126"/>
<polygon fill="none" stroke="#000000" points="410,-593.4126 410,-615.4126 566,-615.4126 566,-593.4126 410,-593.4126"/>
<text text-anchor="start" x="430" y="-600.5126" font-family="Helvetica,sans-Serif" font-size="11.00" fill="#000000">scope_id_</text>
<polygon fill="none" stroke="#000000" points="566,-593.4126 566,-615.4126 650,-615.4126 650,-593.4126 566,-593.4126"/>
<text text-anchor="start" x="569" y="-601.1126" font-family="Helvetica,sans-Serif" font-size="11.00" fill="#000000">varchar[255]</text>
<polygon fill="#ffffff" stroke="transparent" points="410,-571.4126 410,-593.4126 566,-593.4126 566,-571.4126 410,-571.4126"/>
<polygon fill="none" stroke="#000000" points="410,-571.4126 410,-593.4126 566,-593.4126 566,-571.4126 410,-571.4126"/>
<text text-anchor="start" x="430" y="-578.5126" font-family="Helvetica,sans-Serif" font-size="11.00" fill="#000000">sub_scope_id_</text>
<polygon fill="none" stroke="#000000" points="566,-571.4126 566,-593.4126 650,-593.4126 650,-571.4126 566,-571.4126"/>
<text text-anchor="start" x="569" y="-579.1126" font-family="Helvetica,sans-Serif" font-size="11.00" fill="#000000">varchar[255]</text>
<polygon fill="#ffffff" stroke="transparent" points="410,-549.4126 410,-571.4126 566,-571.4126 566,-549.4126 410,-549.4126"/>
<polygon fill="none" stroke="#000000" points="410,-549.4126 410,-571.4126 566,-571.4126 566,-549.4126 410,-549.4126"/>
<text text-anchor="start" x="430" y="-556.5126" font-family="Helvetica,sans-Serif" font-size="11.00" fill="#000000">scope_type_</text>
<polygon fill="none" stroke="#000000" points="566,-549.4126 566,-571.4126 650,-571.4126 650,-549.4126 566,-549.4126"/>
<text text-anchor="start" x="569" y="-557.1126" font-family="Helvetica,sans-Serif" font-size="11.00" fill="#000000">varchar[255]</text>
<polygon fill="#ffffff" stroke="transparent" points="410,-527.4126 410,-549.4126 566,-549.4126 566,-527.4126 410,-527.4126"/>
<polygon fill="none" stroke="#000000" points="410,-527.4126 410,-549.4126 566,-549.4126 566,-527.4126 410,-527.4126"/>
<text text-anchor="start" x="430" y="-534.5126" font-family="Helvetica,sans-Serif" font-size="11.00" fill="#000000">scope_definition_id_</text>
<polygon fill="none" stroke="#000000" points="566,-527.4126 566,-549.4126 650,-549.4126 650,-527.4126 566,-527.4126"/>
<text text-anchor="start" x="569" y="-535.1126" font-family="Helvetica,sans-Serif" font-size="11.00" fill="#000000">varchar[255]</text>
<polygon fill="#ffffff" stroke="transparent" points="410,-505.4126 410,-527.4126 566,-527.4126 566,-505.4126 410,-505.4126"/>
<polygon fill="none" stroke="#000000" points="410,-505.4126 410,-527.4126 566,-527.4126 566,-505.4126 410,-505.4126"/>
<text text-anchor="start" x="430" y="-512.5126" font-family="Helvetica,sans-Serif" font-size="11.00" fill="#000000">correlation_id_</text>
<polygon fill="none" stroke="#000000" points="566,-505.4126 566,-527.4126 650,-527.4126 650,-505.4126 566,-505.4126"/>
<text text-anchor="start" x="569" y="-513.1126" font-family="Helvetica,sans-Serif" font-size="11.00" fill="#000000">varchar[255]</text>
<polygon fill="none" stroke="#000000" points="410,-483.4126 410,-505.4126 566,-505.4126 566,-483.4126 410,-483.4126"/>
<text text-anchor="start" x="430" y="-490.5126" font-family="Helvetica,sans-Serif" font-size="11.00" fill="#000000">retries_</text>
<polygon fill="none" stroke="#000000" points="566,-483.4126 566,-505.4126 650,-505.4126 650,-483.4126 566,-483.4126"/>
<text text-anchor="start" x="569" y="-491.1126" font-family="Helvetica,sans-Serif" font-size="11.00" fill="#000000">int4[10]</text>
<polygon fill="#ffffff" stroke="transparent" points="410,-461.4126 410,-483.4126 566,-483.4126 566,-461.4126 410,-461.4126"/>
<polygon fill="none" stroke="#000000" points="410,-461.4126 410,-483.4126 566,-483.4126 566,-461.4126 410,-461.4126"/>
<image xlink:href="../../images/foreignKeys.png" width="11px" height="12px" preserveAspectRatio="xMinYMin meet" x="415" y="-478.413"/>
<text text-anchor="start" x="430" y="-468.5126" font-family="Helvetica,sans-Serif" font-size="11.00" fill="#000000">exception_stack_id_</text>
<polygon fill="none" stroke="#000000" points="566,-461.4126 566,-483.4126 650,-483.4126 650,-461.4126 566,-461.4126"/>
<text text-anchor="start" x="569" y="-469.1126" font-family="Helvetica,sans-Serif" font-size="11.00" fill="#000000">varchar[64]</text>
<polygon fill="none" stroke="#000000" points="410,-439.4126 410,-461.4126 566,-461.4126 566,-439.4126 410,-439.4126"/>
<text text-anchor="start" x="430" y="-446.5126" font-family="Helvetica,sans-Serif" font-size="11.00" fill="#000000">exception_msg_</text>
<polygon fill="none" stroke="#000000" points="566,-439.4126 566,-461.4126 650,-461.4126 650,-439.4126 566,-439.4126"/>
<text text-anchor="start" x="569" y="-447.1126" font-family="Helvetica,sans-Serif" font-size="11.00" fill="#000000">varchar[4000]</text>
<polygon fill="#ffffff" stroke="transparent" points="410,-417.4126 410,-439.4126 566,-439.4126 566,-417.4126 410,-417.4126"/>
<polygon fill="none" stroke="#000000" points="410,-417.4126 410,-439.4126 566,-439.4126 566,-417.4126 410,-417.4126"/>
<text text-anchor="start" x="430" y="-424.5126" font-family="Helvetica,sans-Serif" font-size="11.00" fill="#000000">duedate_</text>
<polygon fill="none" stroke="#000000" points="566,-417.4126 566,-439.4126 650,-439.4126 650,-417.4126 566,-417.4126"/>
<text text-anchor="start" x="568.8807" y="-425.1126" font-family="Helvetica,sans-Serif" font-size="11.00" fill="#000000">timestamp[29,6]</text>
<polygon fill="none" stroke="#000000" points="410,-395.4126 410,-417.4126 566,-417.4126 566,-395.4126 410,-395.4126"/>
<text text-anchor="start" x="430" y="-402.5126" font-family="Helvetica,sans-Serif" font-size="11.00" fill="#000000">repeat_</text>
<polygon fill="none" stroke="#000000" points="566,-395.4126 566,-417.4126 650,-417.4126 650,-395.4126 566,-395.4126"/>
<text text-anchor="start" x="569" y="-403.1126" font-family="Helvetica,sans-Serif" font-size="11.00" fill="#000000">varchar[255]</text>
<polygon fill="none" stroke="#000000" points="410,-373.4126 410,-395.4126 566,-395.4126 566,-373.4126 410,-373.4126"/>
<text text-anchor="start" x="430" y="-380.5126" font-family="Helvetica,sans-Serif" font-size="11.00" fill="#000000">handler_type_</text>
<polygon fill="none" stroke="#000000" points="566,-373.4126 566,-395.4126 650,-395.4126 650,-373.4126 566,-373.4126"/>
<text text-anchor="start" x="569" y="-381.1126" font-family="Helvetica,sans-Serif" font-size="11.00" fill="#000000">varchar[255]</text>
<polygon fill="none" stroke="#000000" points="410,-351.4126 410,-373.4126 566,-373.4126 566,-351.4126 410,-351.4126"/>
<text text-anchor="start" x="430" y="-358.5126" font-family="Helvetica,sans-Serif" font-size="11.00" fill="#000000">handler_cfg_</text>
<polygon fill="none" stroke="#000000" points="566,-351.4126 566,-373.4126 650,-373.4126 650,-351.4126 566,-351.4126"/>
<text text-anchor="start" x="569" y="-359.1126" font-family="Helvetica,sans-Serif" font-size="11.00" fill="#000000">varchar[4000]</text>
<polygon fill="#ffffff" stroke="transparent" points="410,-329.4126 410,-351.4126 566,-351.4126 566,-329.4126 410,-329.4126"/>
<polygon fill="none" stroke="#000000" points="410,-329.4126 410,-351.4126 566,-351.4126 566,-329.4126 410,-329.4126"/>
<image xlink:href="../../images/foreignKeys.png" width="11px" height="12px" preserveAspectRatio="xMinYMin meet" x="415" y="-346.413"/>
<text text-anchor="start" x="430" y="-336.5126" font-family="Helvetica,sans-Serif" font-size="11.00" fill="#000000">custom_values_id_</text>
<polygon fill="none" stroke="#000000" points="566,-329.4126 566,-351.4126 650,-351.4126 650,-329.4126 566,-329.4126"/>
<text text-anchor="start" x="569" y="-337.1126" font-family="Helvetica,sans-Serif" font-size="11.00" fill="#000000">varchar[64]</text>
<polygon fill="none" stroke="#000000" points="410,-307.4126 410,-329.4126 566,-329.4126 566,-307.4126 410,-307.4126"/>
<text text-anchor="start" x="430" y="-314.5126" font-family="Helvetica,sans-Serif" font-size="11.00" fill="#000000">create_time_</text>
<polygon fill="none" stroke="#000000" points="566,-307.4126 566,-329.4126 650,-329.4126 650,-307.4126 566,-307.4126"/>
<text text-anchor="start" x="568.8807" y="-315.1126" font-family="Helvetica,sans-Serif" font-size="11.00" fill="#000000">timestamp[29,6]</text>
<polygon fill="none" stroke="#000000" points="410,-285.4126 410,-307.4126 566,-307.4126 566,-285.4126 410,-285.4126"/>
<text text-anchor="start" x="430" y="-292.5126" font-family="Helvetica,sans-Serif" font-size="11.00" fill="#000000">tenant_id_</text>
<polygon fill="none" stroke="#000000" points="566,-285.4126 566,-307.4126 650,-307.4126 650,-285.4126 566,-285.4126"/>
<text text-anchor="start" x="569" y="-293.1126" font-family="Helvetica,sans-Serif" font-size="11.00" fill="#000000">varchar[255]</text>
<polygon fill="#ffffff" stroke="transparent" points="410,-266.4126 410,-285.4126 650,-285.4126 650,-266.4126 410,-266.4126"/>
<polygon fill="none" stroke="#000000" points="410,-266.4126 410,-285.4126 650,-285.4126 650,-266.4126 410,-266.4126"/>
<polygon fill="#ffffff" stroke="transparent" points="411,-267.4126 411,-284.4126 494,-284.4126 494,-267.4126 411,-267.4126"/>
<text text-anchor="start" x="413" y="-272.5126" font-family="Helvetica,sans-Serif" font-size="11.00" fill="#000000">&lt; 5</text>
<polygon fill="#ffffff" stroke="transparent" points="494,-267.4126 494,-284.4126 567,-284.4126 567,-267.4126 494,-267.4126"/>
<text text-anchor="start" x="527.4431" y="-272.5126" font-family="Helvetica,sans-Serif" font-size="11.00" fill="#000000"> &#160;</text>
<polygon fill="#ffffff" stroke="transparent" points="567,-267.4126 567,-284.4126 649,-284.4126 649,-267.4126 567,-267.4126"/>
<text text-anchor="start" x="631.4053" y="-272.5126" font-family="Helvetica,sans-Serif" font-size="11.00" fill="#000000">0 &gt;</text>
<polygon fill="#000000" stroke="#000000" points="494,-267.4126 494,-284.4126 494,-284.4126 494,-267.4126 494,-267.4126"/>
<polygon fill="#000000" stroke="#000000" points="567,-267.4126 567,-284.4126 567,-284.4126 567,-267.4126 567,-267.4126"/>
<polygon fill="none" stroke="#000000" stroke-width="2" points="409,-265.4126 409,-903.4126 651,-903.4126 651,-265.4126 409,-265.4126"/>
</a>
</g>
</g>
<!-- act_ru_timer_job&#45;&gt;act_ge_bytearray -->
<g id="edge32" class="edge">
<title>act_ru_timer_job:w&#45;&gt;act_ge_bytearray:e</title>
<path fill="none" stroke="#000000" d="M397.261,-347.3286C334.2458,-425.52 443.695,-1140.4126 359.5,-1140.4126"/>
<polygon fill="#000000" stroke="#000000" points="402.9693,-344.2296 411.7177,-343.5764 406.4847,-342.3211 410,-340.4126 410,-340.4126 410,-340.4126 406.4847,-342.3211 408.2823,-337.2488 402.9693,-344.2296 402.9693,-344.2296"/>
<ellipse fill="none" stroke="#000000" cx="400.157" cy="-345.7564" rx="3.2" ry="3.2"/>
</g>
<!-- act_ru_timer_job&#45;&gt;act_ge_bytearray -->
<g id="edge33" class="edge">
<title>act_ru_timer_job:w&#45;&gt;act_ge_bytearray:e</title>
<path fill="none" stroke="#000000" d="M397.6685,-480.3799C347.5284,-555.7469 429.1365,-1140.4126 359.5,-1140.4126"/>
<polygon fill="#000000" stroke="#000000" points="403.2805,-476.754 411.9537,-475.4364 406.6402,-474.5833 410,-472.4126 410,-472.4126 410,-472.4126 406.6402,-474.5833 408.0463,-469.3888 403.2805,-476.754 403.2805,-476.754"/>
<ellipse fill="none" stroke="#000000" cx="400.5927" cy="-478.4906" rx="3.2" ry="3.2"/>
</g>
<!-- act_ru_timer_job&#45;&gt;act_re_procdef -->
<g id="edge35" class="edge">
<title>act_ru_timer_job:w&#45;&gt;act_re_procdef:e</title>
<path fill="none" stroke="#000000" d="M395.3742,-670.971C245.6651,-682.4158 140.3445,-866.7531 102.228,-944.8658"/>
<polygon fill="#000000" stroke="#000000" points="402.0058,-670.7179 410.1374,-674.01 406.0029,-670.5652 410,-670.4126 410,-670.4126 410,-670.4126 406.0029,-670.5652 409.8626,-666.8152 402.0058,-670.7179 402.0058,-670.7179"/>
<ellipse fill="none" stroke="#000000" cx="398.8082" cy="-670.84" rx="3.2" ry="3.2"/>
</g>
<!-- act_ru_timer_job&#45;&gt;act_ru_execution -->
<g id="edge34" class="edge">
<title>act_ru_timer_job:w&#45;&gt;act_ru_execution:e</title>
<path fill="none" stroke="#000000" d="M402.4435,-726.8116C383.0009,-762.1665 331.2833,-864.4141 303.9665,-918.6599"/>
<polygon fill="#000000" stroke="#000000" points="405.8367,-721.2439 413.0741,-716.2861 407.9183,-717.8282 410,-714.4126 410,-714.4126 410,-714.4126 407.9183,-717.8282 406.9259,-712.5391 405.8367,-721.2439 405.8367,-721.2439"/>
<ellipse fill="none" stroke="#000000" cx="404.1714" cy="-723.9764" rx="3.2" ry="3.2"/>
</g>
<!-- act_ru_timer_job&#45;&gt;act_ru_execution -->
<g id="edge36" class="edge">
<title>act_ru_timer_job:w&#45;&gt;act_ru_execution:e</title>
<path fill="none" stroke="#000000" d="M395.6393,-694.663C366.449,-705.6817 385.2558,-755.0039 367,-794.4126 346.9068,-837.7875 321.7461,-886.7203 304.9531,-918.7039"/>
<polygon fill="#000000" stroke="#000000" points="402.0965,-693.6511 410.5574,-695.9692 406.0482,-693.0319 410,-692.4126 410,-692.4126 410,-692.4126 406.0482,-693.0319 409.4426,-688.856 402.0965,-693.6511 402.0965,-693.6511"/>
<ellipse fill="none" stroke="#000000" cx="398.935" cy="-694.1466" rx="3.2" ry="3.2"/>
</g>
<!-- act_ru_variable -->
<g id="node15" class="node">
<title>act_ru_variable</title>
<g id="a_node15"><a xlink:href="../../tables/act_ru_variable.html" xlink:title="act_ru_variable" target="_top">
<polygon fill="#ffffff" stroke="transparent" points="463,-925.9126 463,-986.9126 597,-986.9126 597,-925.9126 463,-925.9126"/>
<polygon fill="#f5f5f5" stroke="transparent" points="463,-963.4126 463,-986.4126 597,-986.4126 597,-963.4126 463,-963.4126"/>
<polygon fill="none" stroke="#000000" points="463,-963.4126 463,-986.4126 597,-986.4126 597,-963.4126 463,-963.4126"/>
<text text-anchor="start" x="468" y="-972.0126" font-family="Helvetica,sans-Serif" font-weight="bold" font-size="11.00" fill="#000000">act_ru_variable</text>
<text text-anchor="start" x="562.5219" y="-971.5126" font-family="Helvetica,sans-Serif" font-size="11.00" fill="#000000">[table]</text>
<polygon fill="none" stroke="#000000" points="463,-944.4126 463,-963.4126 597,-963.4126 597,-944.4126 463,-944.4126"/>
<text text-anchor="start" x="466" y="-950.5126" font-family="Helvetica,sans-Serif" font-size="11.00" fill="#000000">...</text>
<polygon fill="#ffffff" stroke="transparent" points="463,-925.4126 463,-944.4126 597,-944.4126 597,-925.4126 463,-925.4126"/>
<polygon fill="none" stroke="#000000" points="463,-925.4126 463,-944.4126 597,-944.4126 597,-925.4126 463,-925.4126"/>
<polygon fill="#ffffff" stroke="transparent" points="464,-926.4126 464,-943.4126 514,-943.4126 514,-926.4126 464,-926.4126"/>
<text text-anchor="start" x="466" y="-931.5126" font-family="Helvetica,sans-Serif" font-size="11.00" fill="#000000">&lt; 3</text>
<polygon fill="#ffffff" stroke="transparent" points="514,-926.4126 514,-943.4126 555,-943.4126 555,-926.4126 514,-926.4126"/>
<text text-anchor="start" x="531.4431" y="-931.5126" font-family="Helvetica,sans-Serif" font-size="11.00" fill="#000000"> &#160;</text>
<polygon fill="#ffffff" stroke="transparent" points="555,-926.4126 555,-943.4126 596,-943.4126 596,-926.4126 555,-926.4126"/>
<text text-anchor="start" x="587.8862" y="-931.5126" font-family="Helvetica,sans-Serif" font-size="11.00" fill="#000000"> &#160;</text>
<polygon fill="#000000" stroke="#000000" points="514,-926.4126 514,-943.4126 514,-943.4126 514,-926.4126 514,-926.4126"/>
<polygon fill="#000000" stroke="#000000" points="555,-926.4126 555,-943.4126 555,-943.4126 555,-926.4126 555,-926.4126"/>
</a>
</g>
</g>
<!-- act_ru_variable&#45;&gt;act_ge_bytearray -->
<g id="edge37" class="edge">
<title>act_ru_variable:w&#45;&gt;act_ge_bytearray:e</title>
<path fill="none" stroke="#000000" d="M448.3755,-954.6387C425.6745,-958.8925 416.6323,-974.0441 400,-997.4126 361.6968,-1051.2287 425.5553,-1140.4126 359.5,-1140.4126"/>
<polygon fill="#000000" stroke="#000000" points="455.028,-954.081 463.3008,-957 459.014,-953.7468 463,-953.4126 463,-953.4126 463,-953.4126 459.014,-953.7468 462.6992,-949.8252 455.028,-954.081 455.028,-954.081"/>
<ellipse fill="none" stroke="#000000" cx="451.8392" cy="-954.3483" rx="3.2" ry="3.2"/>
</g>
<!-- act_ru_variable&#45;&gt;act_ru_execution -->
<g id="edge38" class="edge">
<title>act_ru_variable:w&#45;&gt;act_ru_execution:e</title>
<path fill="none" stroke="#000000" d="M448.5249,-952.3863C421.3736,-950.6059 392.8,-949.5099 367.3372,-949.0982"/>
<polygon fill="#000000" stroke="#000000" points="455.02,-952.8467 462.7454,-957.0036 459.01,-953.1297 463,-953.4126 463,-953.4126 463,-953.4126 459.01,-953.1297 463.2546,-949.8216 455.02,-952.8467 455.02,-952.8467"/>
<ellipse fill="none" stroke="#000000" cx="451.828" cy="-952.6204" rx="3.2" ry="3.2"/>
</g>
<!-- act_ru_variable&#45;&gt;act_ru_execution -->
<g id="edge39" class="edge">
<title>act_ru_variable:w&#45;&gt;act_ru_execution:e</title>
<path fill="none" stroke="#000000" d="M448.5249,-954.6099C421.3736,-956.687 392.8,-957.9657 367.3372,-958.446"/>
<polygon fill="#000000" stroke="#000000" points="455.0272,-954.0721 463.2968,-957.0003 459.0136,-953.7423 463,-953.4126 463,-953.4126 463,-953.4126 459.0136,-953.7423 462.7032,-949.8248 455.0272,-954.0721 455.0272,-954.0721"/>
<ellipse fill="none" stroke="#000000" cx="451.8381" cy="-954.3359" rx="3.2" ry="3.2"/>
</g>
</g>
</svg>
