<?xml version="1.0" encoding="UTF-8" standalone="no"?>
<!DOCTYPE svg PUBLIC "-//W3C//DTD SVG 1.1//EN"
 "http://www.w3.org/Graphics/SVG/1.1/DTD/svg11.dtd">
<!-- Generated by graphviz version 2.40.1 (20161225.0304)
 -->
<!-- Title: oneDegreeRelationshipsDiagram Pages: 1 -->
<svg width="247pt" height="338pt"
 viewBox="0.00 0.00 247.00 338.20" xmlns="http://www.w3.org/2000/svg" xmlns:xlink="http://www.w3.org/1999/xlink">
<g id="graph0" class="graph" transform="scale(1 1) rotate(0) translate(4 334.2)">
<title>oneDegreeRelationshipsDiagram</title>
<polygon fill="#ffffff" stroke="transparent" points="-4,4 -4,-334.2 243,-334.2 243,4 -4,4"/>
<text text-anchor="middle" x="72.4936" y="-7.3" font-family="Helvetica,sans-Serif" font-size="11.00" fill="#000000">Generated by SchemaSpy</text>
<!-- act_hi_attachment -->
<g id="node1" class="node">
<title>act_hi_attachment</title>
<g id="a_node1"><a xlink:href="../../tables/act_hi_attachment.html" xlink:title="act_hi_attachment" target="_top">
<polygon fill="#ffffff" stroke="transparent" points="8,-38.2 8,-326.2 231,-326.2 231,-38.2 8,-38.2"/>
<polygon fill="#f5f5f5" stroke="transparent" points="10.5,-301.2 10.5,-324.2 229.5,-324.2 229.5,-301.2 10.5,-301.2"/>
<polygon fill="none" stroke="#000000" points="10.5,-301.2 10.5,-324.2 229.5,-324.2 229.5,-301.2 10.5,-301.2"/>
<text text-anchor="start" x="15.5" y="-309.8" font-family="Helvetica,sans-Serif" font-weight="bold" font-size="11.00" fill="#000000">act_hi_attachment</text>
<text text-anchor="start" x="194.5437" y="-309.3" font-family="Helvetica,sans-Serif" font-size="11.00" fill="#000000">[table]</text>
<polygon fill="none" stroke="#000000" points="10.5,-279.2 10.5,-301.2 145.5,-301.2 145.5,-279.2 10.5,-279.2"/>
<image xlink:href="../../images/primaryKeys.png" width="11px" height="12px" preserveAspectRatio="xMinYMin meet" x="15.5" y="-296.2"/>
<text text-anchor="start" x="30.5" y="-286.3" font-family="Helvetica,sans-Serif" font-size="11.00" fill="#000000">id_</text>
<polygon fill="none" stroke="#000000" points="145.5,-279.2 145.5,-301.2 229.5,-301.2 229.5,-279.2 145.5,-279.2"/>
<text text-anchor="start" x="148.5" y="-286.9" font-family="Helvetica,sans-Serif" font-size="11.00" fill="#000000">varchar[64]</text>
<polygon fill="none" stroke="#000000" points="10.5,-257.2 10.5,-279.2 145.5,-279.2 145.5,-257.2 10.5,-257.2"/>
<text text-anchor="start" x="30.5" y="-264.3" font-family="Helvetica,sans-Serif" font-size="11.00" fill="#000000">rev_</text>
<polygon fill="none" stroke="#000000" points="145.5,-257.2 145.5,-279.2 229.5,-279.2 229.5,-257.2 145.5,-257.2"/>
<text text-anchor="start" x="148.5" y="-264.9" font-family="Helvetica,sans-Serif" font-size="11.00" fill="#000000">int4[10]</text>
<polygon fill="none" stroke="#000000" points="10.5,-235.2 10.5,-257.2 145.5,-257.2 145.5,-235.2 10.5,-235.2"/>
<text text-anchor="start" x="30.5" y="-242.3" font-family="Helvetica,sans-Serif" font-size="11.00" fill="#000000">user_id_</text>
<polygon fill="none" stroke="#000000" points="145.5,-235.2 145.5,-257.2 229.5,-257.2 229.5,-235.2 145.5,-235.2"/>
<text text-anchor="start" x="148.5" y="-242.9" font-family="Helvetica,sans-Serif" font-size="11.00" fill="#000000">varchar[255]</text>
<polygon fill="none" stroke="#000000" points="10.5,-213.2 10.5,-235.2 145.5,-235.2 145.5,-213.2 10.5,-213.2"/>
<text text-anchor="start" x="30.5" y="-220.3" font-family="Helvetica,sans-Serif" font-size="11.00" fill="#000000">name_</text>
<polygon fill="none" stroke="#000000" points="145.5,-213.2 145.5,-235.2 229.5,-235.2 229.5,-213.2 145.5,-213.2"/>
<text text-anchor="start" x="148.5" y="-220.9" font-family="Helvetica,sans-Serif" font-size="11.00" fill="#000000">varchar[255]</text>
<polygon fill="none" stroke="#000000" points="10.5,-191.2 10.5,-213.2 145.5,-213.2 145.5,-191.2 10.5,-191.2"/>
<text text-anchor="start" x="30.5" y="-198.3" font-family="Helvetica,sans-Serif" font-size="11.00" fill="#000000">description_</text>
<polygon fill="none" stroke="#000000" points="145.5,-191.2 145.5,-213.2 229.5,-213.2 229.5,-191.2 145.5,-191.2"/>
<text text-anchor="start" x="148.5" y="-198.9" font-family="Helvetica,sans-Serif" font-size="11.00" fill="#000000">varchar[4000]</text>
<polygon fill="none" stroke="#000000" points="10.5,-169.2 10.5,-191.2 145.5,-191.2 145.5,-169.2 10.5,-169.2"/>
<text text-anchor="start" x="30.5" y="-176.3" font-family="Helvetica,sans-Serif" font-size="11.00" fill="#000000">type_</text>
<polygon fill="none" stroke="#000000" points="145.5,-169.2 145.5,-191.2 229.5,-191.2 229.5,-169.2 145.5,-169.2"/>
<text text-anchor="start" x="148.5" y="-176.9" font-family="Helvetica,sans-Serif" font-size="11.00" fill="#000000">varchar[255]</text>
<polygon fill="none" stroke="#000000" points="10.5,-147.2 10.5,-169.2 145.5,-169.2 145.5,-147.2 10.5,-147.2"/>
<text text-anchor="start" x="30.5" y="-154.3" font-family="Helvetica,sans-Serif" font-size="11.00" fill="#000000">task_id_</text>
<polygon fill="none" stroke="#000000" points="145.5,-147.2 145.5,-169.2 229.5,-169.2 229.5,-147.2 145.5,-147.2"/>
<text text-anchor="start" x="148.5" y="-154.9" font-family="Helvetica,sans-Serif" font-size="11.00" fill="#000000">varchar[64]</text>
<polygon fill="none" stroke="#000000" points="10.5,-125.2 10.5,-147.2 145.5,-147.2 145.5,-125.2 10.5,-125.2"/>
<text text-anchor="start" x="30.5" y="-132.3" font-family="Helvetica,sans-Serif" font-size="11.00" fill="#000000">proc_inst_id_</text>
<polygon fill="none" stroke="#000000" points="145.5,-125.2 145.5,-147.2 229.5,-147.2 229.5,-125.2 145.5,-125.2"/>
<text text-anchor="start" x="148.5" y="-132.9" font-family="Helvetica,sans-Serif" font-size="11.00" fill="#000000">varchar[64]</text>
<polygon fill="none" stroke="#000000" points="10.5,-103.2 10.5,-125.2 145.5,-125.2 145.5,-103.2 10.5,-103.2"/>
<text text-anchor="start" x="30.5" y="-110.3" font-family="Helvetica,sans-Serif" font-size="11.00" fill="#000000">url_</text>
<polygon fill="none" stroke="#000000" points="145.5,-103.2 145.5,-125.2 229.5,-125.2 229.5,-103.2 145.5,-103.2"/>
<text text-anchor="start" x="148.5" y="-110.9" font-family="Helvetica,sans-Serif" font-size="11.00" fill="#000000">varchar[4000]</text>
<polygon fill="none" stroke="#000000" points="10.5,-81.2 10.5,-103.2 145.5,-103.2 145.5,-81.2 10.5,-81.2"/>
<text text-anchor="start" x="30.5" y="-88.3" font-family="Helvetica,sans-Serif" font-size="11.00" fill="#000000">content_id_</text>
<polygon fill="none" stroke="#000000" points="145.5,-81.2 145.5,-103.2 229.5,-103.2 229.5,-81.2 145.5,-81.2"/>
<text text-anchor="start" x="148.5" y="-88.9" font-family="Helvetica,sans-Serif" font-size="11.00" fill="#000000">varchar[64]</text>
<polygon fill="none" stroke="#000000" points="10.5,-59.2 10.5,-81.2 145.5,-81.2 145.5,-59.2 10.5,-59.2"/>
<text text-anchor="start" x="30.5" y="-66.3" font-family="Helvetica,sans-Serif" font-size="11.00" fill="#000000">time_</text>
<polygon fill="none" stroke="#000000" points="145.5,-59.2 145.5,-81.2 229.5,-81.2 229.5,-59.2 145.5,-59.2"/>
<text text-anchor="start" x="148.3807" y="-66.9" font-family="Helvetica,sans-Serif" font-size="11.00" fill="#000000">timestamp[29,6]</text>
<polygon fill="#ffffff" stroke="transparent" points="10.5,-40.2 10.5,-59.2 229.5,-59.2 229.5,-40.2 10.5,-40.2"/>
<polygon fill="none" stroke="#000000" points="10.5,-40.2 10.5,-59.2 229.5,-59.2 229.5,-40.2 10.5,-40.2"/>
<polygon fill="#ffffff" stroke="transparent" points="11.5,-41.2 11.5,-58.2 87.5,-58.2 87.5,-41.2 11.5,-41.2"/>
<text text-anchor="start" x="13.5" y="-46.3" font-family="Helvetica,sans-Serif" font-size="11.00" fill="#000000">&lt; 0</text>
<polygon fill="#ffffff" stroke="transparent" points="87.5,-41.2 87.5,-58.2 153.5,-58.2 153.5,-41.2 87.5,-41.2"/>
<text text-anchor="start" x="117.4431" y="-46.3" font-family="Helvetica,sans-Serif" font-size="11.00" fill="#000000"> &#160;</text>
<polygon fill="#ffffff" stroke="transparent" points="153.5,-41.2 153.5,-58.2 228.5,-58.2 228.5,-41.2 153.5,-41.2"/>
<text text-anchor="start" x="210.9053" y="-46.3" font-family="Helvetica,sans-Serif" font-size="11.00" fill="#000000">0 &gt;</text>
<polygon fill="#000000" stroke="#000000" points="87.5,-41.2 87.5,-58.2 87.5,-58.2 87.5,-41.2 87.5,-41.2"/>
<polygon fill="#000000" stroke="#000000" points="153.5,-41.2 153.5,-58.2 153.5,-58.2 153.5,-41.2 153.5,-41.2"/>
<polygon fill="none" stroke="#000000" stroke-width="2" points="9,-39.2 9,-325.2 230,-325.2 230,-39.2 9,-39.2"/>
</a>
</g>
</g>
</g>
</svg>
