<?xml version="1.0" encoding="UTF-8" standalone="no"?>
<!DOCTYPE svg PUBLIC "-//W3C//DTD SVG 1.1//EN"
 "http://www.w3.org/Graphics/SVG/1.1/DTD/svg11.dtd">
<!-- Generated by graphviz version 2.40.1 (20161225.0304)
 -->
<!-- Title: twoDegreesRelationshipsDiagram Pages: 1 -->
<svg width="557pt" height="267pt"
 viewBox="0.00 0.00 557.00 266.70" xmlns="http://www.w3.org/2000/svg" xmlns:xlink="http://www.w3.org/1999/xlink">
<g id="graph0" class="graph" transform="scale(1 1) rotate(0) translate(4 262.7)">
<title>twoDegreesRelationshipsDiagram</title>
<polygon fill="#ffffff" stroke="transparent" points="-4,4 -4,-262.7 553,-262.7 553,4 -4,4"/>
<text text-anchor="middle" x="72.4936" y="-7.3" font-family="Helvetica,sans-Serif" font-size="11.00" fill="#000000">Generated by SchemaSpy</text>
<!-- act_app_appdef -->
<g id="node1" class="node">
<title>act_app_appdef</title>
<g id="a_node1"><a xlink:href="../../tables/act_app_appdef.html" xlink:title="act_app_appdef" target="_top">
<polygon fill="#ffffff" stroke="transparent" points="314.5,-193.7 314.5,-254.7 451.5,-254.7 451.5,-193.7 314.5,-193.7"/>
<polygon fill="#f5f5f5" stroke="transparent" points="315,-231.2 315,-254.2 452,-254.2 452,-231.2 315,-231.2"/>
<polygon fill="none" stroke="#000000" points="315,-231.2 315,-254.2 452,-254.2 452,-231.2 315,-231.2"/>
<text text-anchor="start" x="320" y="-239.8" font-family="Helvetica,sans-Serif" font-weight="bold" font-size="11.00" fill="#000000">act_app_appdef</text>
<text text-anchor="start" x="417.5219" y="-239.3" font-family="Helvetica,sans-Serif" font-size="11.00" fill="#000000">[table]</text>
<polygon fill="none" stroke="#000000" points="315,-212.2 315,-231.2 452,-231.2 452,-212.2 315,-212.2"/>
<text text-anchor="start" x="318" y="-218.3" font-family="Helvetica,sans-Serif" font-size="11.00" fill="#000000">...</text>
<polygon fill="#ffffff" stroke="transparent" points="315,-193.2 315,-212.2 452,-212.2 452,-193.2 315,-193.2"/>
<polygon fill="none" stroke="#000000" points="315,-193.2 315,-212.2 452,-212.2 452,-193.2 315,-193.2"/>
<polygon fill="#ffffff" stroke="transparent" points="316,-194.2 316,-211.2 367,-211.2 367,-194.2 316,-194.2"/>
<text text-anchor="start" x="318" y="-199.3" font-family="Helvetica,sans-Serif" font-size="11.00" fill="#000000">&lt; 1</text>
<polygon fill="#ffffff" stroke="transparent" points="367,-194.2 367,-211.2 409,-211.2 409,-194.2 367,-194.2"/>
<text text-anchor="start" x="384.9431" y="-199.3" font-family="Helvetica,sans-Serif" font-size="11.00" fill="#000000"> &#160;</text>
<polygon fill="#ffffff" stroke="transparent" points="409,-194.2 409,-211.2 451,-211.2 451,-194.2 409,-194.2"/>
<text text-anchor="start" x="442.8862" y="-199.3" font-family="Helvetica,sans-Serif" font-size="11.00" fill="#000000"> &#160;</text>
<polygon fill="#000000" stroke="#000000" points="367,-194.2 367,-211.2 367,-211.2 367,-194.2 367,-194.2"/>
<polygon fill="#000000" stroke="#000000" points="409,-194.2 409,-211.2 409,-211.2 409,-194.2 409,-194.2"/>
</a>
</g>
</g>
<!-- act_app_deployment -->
<g id="node2" class="node">
<title>act_app_deployment</title>
<g id="a_node2"><a xlink:href="../../tables/act_app_deployment.html" xlink:title="act_app_deployment" target="_top">
<polygon fill="#ffffff" stroke="transparent" points="8,-107.7 8,-190.7 176,-190.7 176,-107.7 8,-107.7"/>
<polygon fill="#f5f5f5" stroke="transparent" points="8,-167.2 8,-190.2 176,-190.2 176,-167.2 8,-167.2"/>
<polygon fill="none" stroke="#000000" points="8,-167.2 8,-190.2 176,-190.2 176,-167.2 8,-167.2"/>
<text text-anchor="start" x="13" y="-175.8" font-family="Helvetica,sans-Serif" font-weight="bold" font-size="11.00" fill="#000000">act_app_deployment</text>
<text text-anchor="start" x="141.5219" y="-175.3" font-family="Helvetica,sans-Serif" font-size="11.00" fill="#000000">[table]</text>
<polygon fill="none" stroke="#000000" points="8,-145.2 8,-167.2 176,-167.2 176,-145.2 8,-145.2"/>
<image xlink:href="../../images/primaryKeys.png" width="11px" height="12px" preserveAspectRatio="xMinYMin meet" x="13" y="-162.2"/>
<text text-anchor="start" x="37" y="-152.3" font-family="Helvetica,sans-Serif" font-size="11.00" fill="#000000">id_</text>
<polygon fill="none" stroke="#000000" points="8,-126.2 8,-145.2 176,-145.2 176,-126.2 8,-126.2"/>
<text text-anchor="start" x="11" y="-132.3" font-family="Helvetica,sans-Serif" font-size="11.00" fill="#000000">...</text>
<polygon fill="#ffffff" stroke="transparent" points="8,-107.2 8,-126.2 176,-126.2 176,-107.2 8,-107.2"/>
<polygon fill="none" stroke="#000000" points="8,-107.2 8,-126.2 176,-126.2 176,-107.2 8,-107.2"/>
<polygon fill="#ffffff" stroke="transparent" points="9,-108.2 9,-125.2 62,-125.2 62,-108.2 9,-108.2"/>
<text text-anchor="start" x="11" y="-113.3" font-family="Helvetica,sans-Serif" font-size="11.00" fill="#000000"> &#160;</text>
<polygon fill="#ffffff" stroke="transparent" points="62,-108.2 62,-125.2 114,-125.2 114,-108.2 62,-108.2"/>
<text text-anchor="start" x="84.9431" y="-113.3" font-family="Helvetica,sans-Serif" font-size="11.00" fill="#000000"> &#160;</text>
<polygon fill="#ffffff" stroke="transparent" points="114,-108.2 114,-125.2 175,-125.2 175,-108.2 114,-108.2"/>
<text text-anchor="start" x="157.4053" y="-113.3" font-family="Helvetica,sans-Serif" font-size="11.00" fill="#000000">2 &gt;</text>
<polygon fill="#000000" stroke="#000000" points="62,-108.2 62,-125.2 62,-125.2 62,-108.2 62,-108.2"/>
<polygon fill="#000000" stroke="#000000" points="114,-108.2 114,-125.2 114,-125.2 114,-108.2 114,-108.2"/>
</a>
</g>
</g>
<!-- act_app_appdef&#45;&gt;act_app_deployment -->
<g id="edge1" class="edge">
<title>act_app_appdef:w&#45;&gt;act_app_deployment:e</title>
<path fill="none" stroke="#000000" d="M300.4467,-220.5785C265.6648,-217.3798 253.8161,-202.1861 217,-183.2 197.6082,-173.1996 197.8186,-156.2 176,-156.2"/>
<polygon fill="#000000" stroke="#000000" points="307.0073,-220.8586 314.8464,-224.7967 311.0036,-221.0293 315,-221.2 315,-221.2 315,-221.2 311.0036,-221.0293 315.1536,-217.6033 307.0073,-220.8586 307.0073,-220.8586"/>
<ellipse fill="none" stroke="#000000" cx="303.8102" cy="-220.7221" rx="3.2" ry="3.2"/>
</g>
<!-- act_app_deployment_resource -->
<g id="node3" class="node">
<title>act_app_deployment_resource</title>
<g id="a_node3"><a xlink:href="../../tables/act_app_deployment_resource.html" xlink:title="act_app_deployment_resource" target="_top">
<polygon fill="#ffffff" stroke="transparent" points="225,-38.2 225,-172.2 541,-172.2 541,-38.2 225,-38.2"/>
<polygon fill="#f5f5f5" stroke="transparent" points="227,-147.2 227,-170.2 539,-170.2 539,-147.2 227,-147.2"/>
<polygon fill="none" stroke="#000000" points="227,-147.2 227,-170.2 539,-170.2 539,-147.2 227,-147.2"/>
<text text-anchor="start" x="232" y="-155.8" font-family="Helvetica,sans-Serif" font-weight="bold" font-size="11.00" fill="#000000">act_app_deployment_resource</text>
<text text-anchor="start" x="504.0437" y="-155.3" font-family="Helvetica,sans-Serif" font-size="11.00" fill="#000000">[table]</text>
<polygon fill="none" stroke="#000000" points="227,-125.2 227,-147.2 439,-147.2 439,-125.2 227,-125.2"/>
<image xlink:href="../../images/primaryKeys.png" width="11px" height="12px" preserveAspectRatio="xMinYMin meet" x="232" y="-142.2"/>
<text text-anchor="start" x="247" y="-132.3" font-family="Helvetica,sans-Serif" font-size="11.00" fill="#000000">id_</text>
<polygon fill="none" stroke="#000000" points="439,-125.2 439,-147.2 539,-147.2 539,-125.2 439,-125.2"/>
<text text-anchor="start" x="442" y="-132.9" font-family="Helvetica,sans-Serif" font-size="11.00" fill="#000000">varchar[255]</text>
<polygon fill="none" stroke="#000000" points="227,-103.2 227,-125.2 439,-125.2 439,-103.2 227,-103.2"/>
<text text-anchor="start" x="247" y="-110.3" font-family="Helvetica,sans-Serif" font-size="11.00" fill="#000000">name_</text>
<polygon fill="none" stroke="#000000" points="439,-103.2 439,-125.2 539,-125.2 539,-103.2 439,-103.2"/>
<text text-anchor="start" x="442" y="-110.9" font-family="Helvetica,sans-Serif" font-size="11.00" fill="#000000">varchar[255]</text>
<polygon fill="#ffffff" stroke="transparent" points="227,-81.2 227,-103.2 439,-103.2 439,-81.2 227,-81.2"/>
<polygon fill="none" stroke="#000000" points="227,-81.2 227,-103.2 439,-103.2 439,-81.2 227,-81.2"/>
<image xlink:href="../../images/foreignKeys.png" width="11px" height="12px" preserveAspectRatio="xMinYMin meet" x="232" y="-98.2"/>
<text text-anchor="start" x="247" y="-88.3" font-family="Helvetica,sans-Serif" font-size="11.00" fill="#000000">deployment_id_</text>
<polygon fill="none" stroke="#000000" points="439,-81.2 439,-103.2 539,-103.2 539,-81.2 439,-81.2"/>
<text text-anchor="start" x="442" y="-88.9" font-family="Helvetica,sans-Serif" font-size="11.00" fill="#000000">varchar[255]</text>
<polygon fill="none" stroke="#000000" points="227,-59.2 227,-81.2 439,-81.2 439,-59.2 227,-59.2"/>
<text text-anchor="start" x="247" y="-66.3" font-family="Helvetica,sans-Serif" font-size="11.00" fill="#000000">resource_bytes_</text>
<polygon fill="none" stroke="#000000" points="439,-59.2 439,-81.2 539,-81.2 539,-59.2 439,-59.2"/>
<text text-anchor="start" x="441.9178" y="-66.9" font-family="Helvetica,sans-Serif" font-size="11.00" fill="#000000">bytea[2147483647]</text>
<polygon fill="#ffffff" stroke="transparent" points="227,-40.2 227,-59.2 539,-59.2 539,-40.2 227,-40.2"/>
<polygon fill="none" stroke="#000000" points="227,-40.2 227,-59.2 539,-59.2 539,-40.2 227,-40.2"/>
<polygon fill="#ffffff" stroke="transparent" points="228,-41.2 228,-58.2 335,-58.2 335,-41.2 228,-41.2"/>
<text text-anchor="start" x="230" y="-46.3" font-family="Helvetica,sans-Serif" font-size="11.00" fill="#000000">&lt; 1</text>
<polygon fill="#ffffff" stroke="transparent" points="335,-41.2 335,-58.2 432,-58.2 432,-41.2 335,-41.2"/>
<text text-anchor="start" x="380.4431" y="-46.3" font-family="Helvetica,sans-Serif" font-size="11.00" fill="#000000"> &#160;</text>
<polygon fill="#ffffff" stroke="transparent" points="432,-41.2 432,-58.2 538,-58.2 538,-41.2 432,-41.2"/>
<text text-anchor="start" x="520.4053" y="-46.3" font-family="Helvetica,sans-Serif" font-size="11.00" fill="#000000">0 &gt;</text>
<polygon fill="#000000" stroke="#000000" points="335,-41.2 335,-58.2 335,-58.2 335,-41.2 335,-41.2"/>
<polygon fill="#000000" stroke="#000000" points="432,-41.2 432,-58.2 432,-58.2 432,-41.2 432,-41.2"/>
<polygon fill="none" stroke="#000000" stroke-width="2" points="226,-39.2 226,-171.2 540,-171.2 540,-39.2 226,-39.2"/>
</a>
</g>
</g>
<!-- act_app_deployment_resource&#45;&gt;act_app_deployment -->
<g id="edge2" class="edge">
<title>act_app_deployment_resource:w&#45;&gt;act_app_deployment:e</title>
<path fill="none" stroke="#000000" d="M213.2779,-96.8027C196.1988,-111.4773 206.4041,-156.2 176,-156.2"/>
<polygon fill="#000000" stroke="#000000" points="219.4153,-94.7441 228.1449,-95.6131 223.2077,-93.4721 227,-92.2 227,-92.2 227,-92.2 223.2077,-93.4721 225.8551,-88.7869 219.4153,-94.7441 219.4153,-94.7441"/>
<ellipse fill="none" stroke="#000000" cx="216.3814" cy="-95.7618" rx="3.2" ry="3.2"/>
</g>
</g>
</svg>
