<?xml version="1.0" encoding="UTF-8" standalone="no"?>
<!DOCTYPE svg PUBLIC "-//W3C//DTD SVG 1.1//EN"
 "http://www.w3.org/Graphics/SVG/1.1/DTD/svg11.dtd">
<!-- Generated by graphviz version 2.40.1 (20161225.0304)
 -->
<!-- Title: oneDegreeRelationshipsDiagram Pages: 1 -->
<svg width="587pt" height="206pt"
 viewBox="0.00 0.00 587.00 206.20" xmlns="http://www.w3.org/2000/svg" xmlns:xlink="http://www.w3.org/1999/xlink">
<g id="graph0" class="graph" transform="scale(1 1) rotate(0) translate(4 202.2)">
<title>oneDegreeRelationshipsDiagram</title>
<polygon fill="#ffffff" stroke="transparent" points="-4,4 -4,-202.2 583,-202.2 583,4 -4,4"/>
<text text-anchor="middle" x="72.4936" y="-7.3" font-family="Helvetica,sans-Serif" font-size="11.00" fill="#000000">Generated by SchemaSpy</text>
<!-- act_cmmn_deployment_resource -->
<g id="node1" class="node">
<title>act_cmmn_deployment_resource</title>
<g id="a_node1"><a xlink:href="../../tables/act_cmmn_deployment_resource.html" xlink:title="act_cmmn_deployment_resource" target="_top">
<polygon fill="#ffffff" stroke="transparent" points="240,-38.2 240,-194.2 571,-194.2 571,-38.2 240,-38.2"/>
<polygon fill="#f5f5f5" stroke="transparent" points="242.5,-169.2 242.5,-192.2 569.5,-192.2 569.5,-169.2 242.5,-169.2"/>
<polygon fill="none" stroke="#000000" points="242.5,-169.2 242.5,-192.2 569.5,-192.2 569.5,-169.2 242.5,-169.2"/>
<text text-anchor="start" x="247.5" y="-177.8" font-family="Helvetica,sans-Serif" font-weight="bold" font-size="11.00" fill="#000000">act_cmmn_deployment_resource</text>
<text text-anchor="start" x="534.5437" y="-177.3" font-family="Helvetica,sans-Serif" font-size="11.00" fill="#000000">[table]</text>
<polygon fill="none" stroke="#000000" points="242.5,-147.2 242.5,-169.2 469.5,-169.2 469.5,-147.2 242.5,-147.2"/>
<image xlink:href="../../images/primaryKeys.png" width="11px" height="12px" preserveAspectRatio="xMinYMin meet" x="247.5" y="-164.2"/>
<text text-anchor="start" x="262.5" y="-154.3" font-family="Helvetica,sans-Serif" font-size="11.00" fill="#000000">id_</text>
<polygon fill="none" stroke="#000000" points="469.5,-147.2 469.5,-169.2 569.5,-169.2 569.5,-147.2 469.5,-147.2"/>
<text text-anchor="start" x="472.5" y="-154.9" font-family="Helvetica,sans-Serif" font-size="11.00" fill="#000000">varchar[255]</text>
<polygon fill="none" stroke="#000000" points="242.5,-125.2 242.5,-147.2 469.5,-147.2 469.5,-125.2 242.5,-125.2"/>
<text text-anchor="start" x="262.5" y="-132.3" font-family="Helvetica,sans-Serif" font-size="11.00" fill="#000000">name_</text>
<polygon fill="none" stroke="#000000" points="469.5,-125.2 469.5,-147.2 569.5,-147.2 569.5,-125.2 469.5,-125.2"/>
<text text-anchor="start" x="472.5" y="-132.9" font-family="Helvetica,sans-Serif" font-size="11.00" fill="#000000">varchar[255]</text>
<polygon fill="#ffffff" stroke="transparent" points="242.5,-103.2 242.5,-125.2 469.5,-125.2 469.5,-103.2 242.5,-103.2"/>
<polygon fill="none" stroke="#000000" points="242.5,-103.2 242.5,-125.2 469.5,-125.2 469.5,-103.2 242.5,-103.2"/>
<image xlink:href="../../images/foreignKeys.png" width="11px" height="12px" preserveAspectRatio="xMinYMin meet" x="247.5" y="-120.2"/>
<text text-anchor="start" x="262.5" y="-110.3" font-family="Helvetica,sans-Serif" font-size="11.00" fill="#000000">deployment_id_</text>
<polygon fill="none" stroke="#000000" points="469.5,-103.2 469.5,-125.2 569.5,-125.2 569.5,-103.2 469.5,-103.2"/>
<text text-anchor="start" x="472.5" y="-110.9" font-family="Helvetica,sans-Serif" font-size="11.00" fill="#000000">varchar[255]</text>
<polygon fill="none" stroke="#000000" points="242.5,-81.2 242.5,-103.2 469.5,-103.2 469.5,-81.2 242.5,-81.2"/>
<text text-anchor="start" x="262.5" y="-88.3" font-family="Helvetica,sans-Serif" font-size="11.00" fill="#000000">resource_bytes_</text>
<polygon fill="none" stroke="#000000" points="469.5,-81.2 469.5,-103.2 569.5,-103.2 569.5,-81.2 469.5,-81.2"/>
<text text-anchor="start" x="472.4178" y="-88.9" font-family="Helvetica,sans-Serif" font-size="11.00" fill="#000000">bytea[2147483647]</text>
<polygon fill="none" stroke="#000000" points="242.5,-59.2 242.5,-81.2 469.5,-81.2 469.5,-59.2 242.5,-59.2"/>
<text text-anchor="start" x="262.5" y="-66.3" font-family="Helvetica,sans-Serif" font-size="11.00" fill="#000000">generated_</text>
<polygon fill="none" stroke="#000000" points="469.5,-59.2 469.5,-81.2 569.5,-81.2 569.5,-59.2 469.5,-59.2"/>
<text text-anchor="start" x="472.5" y="-66.9" font-family="Helvetica,sans-Serif" font-size="11.00" fill="#000000">bool[1]</text>
<polygon fill="#ffffff" stroke="transparent" points="242.5,-40.2 242.5,-59.2 569.5,-59.2 569.5,-40.2 242.5,-40.2"/>
<polygon fill="none" stroke="#000000" points="242.5,-40.2 242.5,-59.2 569.5,-59.2 569.5,-40.2 242.5,-40.2"/>
<polygon fill="#ffffff" stroke="transparent" points="243.5,-41.2 243.5,-58.2 355.5,-58.2 355.5,-41.2 243.5,-41.2"/>
<text text-anchor="start" x="245.5" y="-46.3" font-family="Helvetica,sans-Serif" font-size="11.00" fill="#000000">&lt; 1</text>
<polygon fill="#ffffff" stroke="transparent" points="355.5,-41.2 355.5,-58.2 457.5,-58.2 457.5,-41.2 355.5,-41.2"/>
<text text-anchor="start" x="403.4431" y="-46.3" font-family="Helvetica,sans-Serif" font-size="11.00" fill="#000000"> &#160;</text>
<polygon fill="#ffffff" stroke="transparent" points="457.5,-41.2 457.5,-58.2 568.5,-58.2 568.5,-41.2 457.5,-41.2"/>
<text text-anchor="start" x="550.9053" y="-46.3" font-family="Helvetica,sans-Serif" font-size="11.00" fill="#000000">0 &gt;</text>
<polygon fill="#000000" stroke="#000000" points="355.5,-41.2 355.5,-58.2 355.5,-58.2 355.5,-41.2 355.5,-41.2"/>
<polygon fill="#000000" stroke="#000000" points="457.5,-41.2 457.5,-58.2 457.5,-58.2 457.5,-41.2 457.5,-41.2"/>
<polygon fill="none" stroke="#000000" stroke-width="2" points="241,-39.2 241,-193.2 570,-193.2 570,-39.2 241,-39.2"/>
</a>
</g>
</g>
<!-- act_cmmn_deployment -->
<g id="node2" class="node">
<title>act_cmmn_deployment</title>
<g id="a_node2"><a xlink:href="../../tables/act_cmmn_deployment.html" xlink:title="act_cmmn_deployment" target="_top">
<polygon fill="#ffffff" stroke="transparent" points="8,-65.7 8,-148.7 191,-148.7 191,-65.7 8,-65.7"/>
<polygon fill="#f5f5f5" stroke="transparent" points="8.5,-125.2 8.5,-148.2 191.5,-148.2 191.5,-125.2 8.5,-125.2"/>
<polygon fill="none" stroke="#000000" points="8.5,-125.2 8.5,-148.2 191.5,-148.2 191.5,-125.2 8.5,-125.2"/>
<text text-anchor="start" x="13.5" y="-133.8" font-family="Helvetica,sans-Serif" font-weight="bold" font-size="11.00" fill="#000000">act_cmmn_deployment</text>
<text text-anchor="start" x="157.0219" y="-133.3" font-family="Helvetica,sans-Serif" font-size="11.00" fill="#000000">[table]</text>
<polygon fill="none" stroke="#000000" points="8.5,-103.2 8.5,-125.2 191.5,-125.2 191.5,-103.2 8.5,-103.2"/>
<image xlink:href="../../images/primaryKeys.png" width="11px" height="12px" preserveAspectRatio="xMinYMin meet" x="13.5" y="-120.2"/>
<text text-anchor="start" x="37.5" y="-110.3" font-family="Helvetica,sans-Serif" font-size="11.00" fill="#000000">id_</text>
<polygon fill="none" stroke="#000000" points="8.5,-84.2 8.5,-103.2 191.5,-103.2 191.5,-84.2 8.5,-84.2"/>
<text text-anchor="start" x="11.5" y="-90.3" font-family="Helvetica,sans-Serif" font-size="11.00" fill="#000000">...</text>
<polygon fill="#ffffff" stroke="transparent" points="8.5,-65.2 8.5,-84.2 191.5,-84.2 191.5,-65.2 8.5,-65.2"/>
<polygon fill="none" stroke="#000000" points="8.5,-65.2 8.5,-84.2 191.5,-84.2 191.5,-65.2 8.5,-65.2"/>
<polygon fill="#ffffff" stroke="transparent" points="9.5,-66.2 9.5,-83.2 67.5,-83.2 67.5,-66.2 9.5,-66.2"/>
<text text-anchor="start" x="11.5" y="-71.3" font-family="Helvetica,sans-Serif" font-size="11.00" fill="#000000"> &#160;</text>
<polygon fill="#ffffff" stroke="transparent" points="67.5,-66.2 67.5,-83.2 124.5,-83.2 124.5,-66.2 67.5,-66.2"/>
<text text-anchor="start" x="92.9431" y="-71.3" font-family="Helvetica,sans-Serif" font-size="11.00" fill="#000000"> &#160;</text>
<polygon fill="#ffffff" stroke="transparent" points="124.5,-66.2 124.5,-83.2 190.5,-83.2 190.5,-66.2 124.5,-66.2"/>
<text text-anchor="start" x="172.9053" y="-71.3" font-family="Helvetica,sans-Serif" font-size="11.00" fill="#000000">2 &gt;</text>
<polygon fill="#000000" stroke="#000000" points="67.5,-66.2 67.5,-83.2 67.5,-83.2 67.5,-66.2 67.5,-66.2"/>
<polygon fill="#000000" stroke="#000000" points="124.5,-66.2 124.5,-83.2 124.5,-83.2 124.5,-66.2 124.5,-66.2"/>
</a>
</g>
</g>
<!-- act_cmmn_deployment_resource&#45;&gt;act_cmmn_deployment -->
<g id="edge1" class="edge">
<title>act_cmmn_deployment_resource:w&#45;&gt;act_cmmn_deployment:e</title>
<path fill="none" stroke="#000000" d="M227.776,-114.2C215.7815,-114.2 208.3229,-114.2 191.5,-114.2"/>
<polygon fill="#000000" stroke="#000000" points="234.5,-114.2001 242.5,-117.8 238.5,-114.2 242.5,-114.2 242.5,-114.2 242.5,-114.2 238.5,-114.2 242.5,-110.6 234.5,-114.2001 234.5,-114.2001"/>
<ellipse fill="none" stroke="#000000" cx="231.3" cy="-114.2001" rx="3.2" ry="3.2"/>
</g>
</g>
</svg>
