<?xml version="1.0" encoding="UTF-8" standalone="no"?>
<!DOCTYPE svg PUBLIC "-//W3C//DTD SVG 1.1//EN"
 "http://www.w3.org/Graphics/SVG/1.1/DTD/svg11.dtd">
<!-- Generated by graphviz version 2.40.1 (20161225.0304)
 -->
<!-- Title: oneDegreeRelationshipsDiagram Pages: 1 -->
<svg width="301pt" height="888pt"
 viewBox="0.00 0.00 301.00 888.20" xmlns="http://www.w3.org/2000/svg" xmlns:xlink="http://www.w3.org/1999/xlink">
<g id="graph0" class="graph" transform="scale(1 1) rotate(0) translate(4 884.2)">
<title>oneDegreeRelationshipsDiagram</title>
<polygon fill="#ffffff" stroke="transparent" points="-4,4 -4,-884.2 297,-884.2 297,4 -4,4"/>
<text text-anchor="middle" x="72.4936" y="-7.3" font-family="Helvetica,sans-Serif" font-size="11.00" fill="#000000">Generated by SchemaSpy</text>
<!-- act_hi_taskinst -->
<g id="node1" class="node">
<title>act_hi_taskinst</title>
<g id="a_node1"><a xlink:href="../../tables/act_hi_taskinst.html" xlink:title="act_hi_taskinst" target="_top">
<polygon fill="#ffffff" stroke="transparent" points="8,-38.2 8,-876.2 285,-876.2 285,-38.2 8,-38.2"/>
<polygon fill="#f5f5f5" stroke="transparent" points="10.5,-851.2 10.5,-874.2 283.5,-874.2 283.5,-851.2 10.5,-851.2"/>
<polygon fill="none" stroke="#000000" points="10.5,-851.2 10.5,-874.2 283.5,-874.2 283.5,-851.2 10.5,-851.2"/>
<text text-anchor="start" x="15.5" y="-859.8" font-family="Helvetica,sans-Serif" font-weight="bold" font-size="11.00" fill="#000000">act_hi_taskinst</text>
<text text-anchor="start" x="248.5437" y="-859.3" font-family="Helvetica,sans-Serif" font-size="11.00" fill="#000000">[table]</text>
<polygon fill="none" stroke="#000000" points="10.5,-829.2 10.5,-851.2 199.5,-851.2 199.5,-829.2 10.5,-829.2"/>
<image xlink:href="../../images/primaryKeys.png" width="11px" height="12px" preserveAspectRatio="xMinYMin meet" x="15.5" y="-846.2"/>
<text text-anchor="start" x="30.5" y="-836.3" font-family="Helvetica,sans-Serif" font-size="11.00" fill="#000000">id_</text>
<polygon fill="none" stroke="#000000" points="199.5,-829.2 199.5,-851.2 283.5,-851.2 283.5,-829.2 199.5,-829.2"/>
<text text-anchor="start" x="202.5" y="-836.9" font-family="Helvetica,sans-Serif" font-size="11.00" fill="#000000">varchar[64]</text>
<polygon fill="none" stroke="#000000" points="10.5,-807.2 10.5,-829.2 199.5,-829.2 199.5,-807.2 10.5,-807.2"/>
<text text-anchor="start" x="30.5" y="-814.3" font-family="Helvetica,sans-Serif" font-size="11.00" fill="#000000">rev_</text>
<polygon fill="none" stroke="#000000" points="199.5,-807.2 199.5,-829.2 283.5,-829.2 283.5,-807.2 199.5,-807.2"/>
<text text-anchor="start" x="202.5" y="-814.9" font-family="Helvetica,sans-Serif" font-size="11.00" fill="#000000">int4[10]</text>
<polygon fill="none" stroke="#000000" points="10.5,-785.2 10.5,-807.2 199.5,-807.2 199.5,-785.2 10.5,-785.2"/>
<text text-anchor="start" x="30.5" y="-792.3" font-family="Helvetica,sans-Serif" font-size="11.00" fill="#000000">proc_def_id_</text>
<polygon fill="none" stroke="#000000" points="199.5,-785.2 199.5,-807.2 283.5,-807.2 283.5,-785.2 199.5,-785.2"/>
<text text-anchor="start" x="202.5" y="-792.9" font-family="Helvetica,sans-Serif" font-size="11.00" fill="#000000">varchar[64]</text>
<polygon fill="none" stroke="#000000" points="10.5,-763.2 10.5,-785.2 199.5,-785.2 199.5,-763.2 10.5,-763.2"/>
<text text-anchor="start" x="30.5" y="-770.3" font-family="Helvetica,sans-Serif" font-size="11.00" fill="#000000">task_def_id_</text>
<polygon fill="none" stroke="#000000" points="199.5,-763.2 199.5,-785.2 283.5,-785.2 283.5,-763.2 199.5,-763.2"/>
<text text-anchor="start" x="202.5" y="-770.9" font-family="Helvetica,sans-Serif" font-size="11.00" fill="#000000">varchar[64]</text>
<polygon fill="none" stroke="#000000" points="10.5,-741.2 10.5,-763.2 199.5,-763.2 199.5,-741.2 10.5,-741.2"/>
<text text-anchor="start" x="30.5" y="-748.3" font-family="Helvetica,sans-Serif" font-size="11.00" fill="#000000">task_def_key_</text>
<polygon fill="none" stroke="#000000" points="199.5,-741.2 199.5,-763.2 283.5,-763.2 283.5,-741.2 199.5,-741.2"/>
<text text-anchor="start" x="202.5" y="-748.9" font-family="Helvetica,sans-Serif" font-size="11.00" fill="#000000">varchar[255]</text>
<polygon fill="#ffffff" stroke="transparent" points="10.5,-719.2 10.5,-741.2 199.5,-741.2 199.5,-719.2 10.5,-719.2"/>
<polygon fill="none" stroke="#000000" points="10.5,-719.2 10.5,-741.2 199.5,-741.2 199.5,-719.2 10.5,-719.2"/>
<text text-anchor="start" x="30.5" y="-726.3" font-family="Helvetica,sans-Serif" font-size="11.00" fill="#000000">proc_inst_id_</text>
<polygon fill="none" stroke="#000000" points="199.5,-719.2 199.5,-741.2 283.5,-741.2 283.5,-719.2 199.5,-719.2"/>
<text text-anchor="start" x="202.5" y="-726.9" font-family="Helvetica,sans-Serif" font-size="11.00" fill="#000000">varchar[64]</text>
<polygon fill="none" stroke="#000000" points="10.5,-697.2 10.5,-719.2 199.5,-719.2 199.5,-697.2 10.5,-697.2"/>
<text text-anchor="start" x="30.5" y="-704.3" font-family="Helvetica,sans-Serif" font-size="11.00" fill="#000000">execution_id_</text>
<polygon fill="none" stroke="#000000" points="199.5,-697.2 199.5,-719.2 283.5,-719.2 283.5,-697.2 199.5,-697.2"/>
<text text-anchor="start" x="202.5" y="-704.9" font-family="Helvetica,sans-Serif" font-size="11.00" fill="#000000">varchar[64]</text>
<polygon fill="#ffffff" stroke="transparent" points="10.5,-675.2 10.5,-697.2 199.5,-697.2 199.5,-675.2 10.5,-675.2"/>
<polygon fill="none" stroke="#000000" points="10.5,-675.2 10.5,-697.2 199.5,-697.2 199.5,-675.2 10.5,-675.2"/>
<text text-anchor="start" x="30.5" y="-682.3" font-family="Helvetica,sans-Serif" font-size="11.00" fill="#000000">scope_id_</text>
<polygon fill="none" stroke="#000000" points="199.5,-675.2 199.5,-697.2 283.5,-697.2 283.5,-675.2 199.5,-675.2"/>
<text text-anchor="start" x="202.5" y="-682.9" font-family="Helvetica,sans-Serif" font-size="11.00" fill="#000000">varchar[255]</text>
<polygon fill="#ffffff" stroke="transparent" points="10.5,-653.2 10.5,-675.2 199.5,-675.2 199.5,-653.2 10.5,-653.2"/>
<polygon fill="none" stroke="#000000" points="10.5,-653.2 10.5,-675.2 199.5,-675.2 199.5,-653.2 10.5,-653.2"/>
<text text-anchor="start" x="30.5" y="-660.3" font-family="Helvetica,sans-Serif" font-size="11.00" fill="#000000">sub_scope_id_</text>
<polygon fill="none" stroke="#000000" points="199.5,-653.2 199.5,-675.2 283.5,-675.2 283.5,-653.2 199.5,-653.2"/>
<text text-anchor="start" x="202.5" y="-660.9" font-family="Helvetica,sans-Serif" font-size="11.00" fill="#000000">varchar[255]</text>
<polygon fill="#ffffff" stroke="transparent" points="10.5,-631.2 10.5,-653.2 199.5,-653.2 199.5,-631.2 10.5,-631.2"/>
<polygon fill="none" stroke="#000000" points="10.5,-631.2 10.5,-653.2 199.5,-653.2 199.5,-631.2 10.5,-631.2"/>
<text text-anchor="start" x="30.5" y="-638.3" font-family="Helvetica,sans-Serif" font-size="11.00" fill="#000000">scope_type_</text>
<polygon fill="none" stroke="#000000" points="199.5,-631.2 199.5,-653.2 283.5,-653.2 283.5,-631.2 199.5,-631.2"/>
<text text-anchor="start" x="202.5" y="-638.9" font-family="Helvetica,sans-Serif" font-size="11.00" fill="#000000">varchar[255]</text>
<polygon fill="#ffffff" stroke="transparent" points="10.5,-609.2 10.5,-631.2 199.5,-631.2 199.5,-609.2 10.5,-609.2"/>
<polygon fill="none" stroke="#000000" points="10.5,-609.2 10.5,-631.2 199.5,-631.2 199.5,-609.2 10.5,-609.2"/>
<text text-anchor="start" x="30.5" y="-616.3" font-family="Helvetica,sans-Serif" font-size="11.00" fill="#000000">scope_definition_id_</text>
<polygon fill="none" stroke="#000000" points="199.5,-609.2 199.5,-631.2 283.5,-631.2 283.5,-609.2 199.5,-609.2"/>
<text text-anchor="start" x="202.5" y="-616.9" font-family="Helvetica,sans-Serif" font-size="11.00" fill="#000000">varchar[255]</text>
<polygon fill="none" stroke="#000000" points="10.5,-587.2 10.5,-609.2 199.5,-609.2 199.5,-587.2 10.5,-587.2"/>
<text text-anchor="start" x="30.5" y="-594.3" font-family="Helvetica,sans-Serif" font-size="11.00" fill="#000000">propagated_stage_inst_id_</text>
<polygon fill="none" stroke="#000000" points="199.5,-587.2 199.5,-609.2 283.5,-609.2 283.5,-587.2 199.5,-587.2"/>
<text text-anchor="start" x="202.5" y="-594.9" font-family="Helvetica,sans-Serif" font-size="11.00" fill="#000000">varchar[255]</text>
<polygon fill="none" stroke="#000000" points="10.5,-565.2 10.5,-587.2 199.5,-587.2 199.5,-565.2 10.5,-565.2"/>
<text text-anchor="start" x="30.5" y="-572.3" font-family="Helvetica,sans-Serif" font-size="11.00" fill="#000000">state_</text>
<polygon fill="none" stroke="#000000" points="199.5,-565.2 199.5,-587.2 283.5,-587.2 283.5,-565.2 199.5,-565.2"/>
<text text-anchor="start" x="202.5" y="-572.9" font-family="Helvetica,sans-Serif" font-size="11.00" fill="#000000">varchar[255]</text>
<polygon fill="none" stroke="#000000" points="10.5,-543.2 10.5,-565.2 199.5,-565.2 199.5,-543.2 10.5,-543.2"/>
<text text-anchor="start" x="30.5" y="-550.3" font-family="Helvetica,sans-Serif" font-size="11.00" fill="#000000">name_</text>
<polygon fill="none" stroke="#000000" points="199.5,-543.2 199.5,-565.2 283.5,-565.2 283.5,-543.2 199.5,-543.2"/>
<text text-anchor="start" x="202.5" y="-550.9" font-family="Helvetica,sans-Serif" font-size="11.00" fill="#000000">varchar[255]</text>
<polygon fill="none" stroke="#000000" points="10.5,-521.2 10.5,-543.2 199.5,-543.2 199.5,-521.2 10.5,-521.2"/>
<text text-anchor="start" x="30.5" y="-528.3" font-family="Helvetica,sans-Serif" font-size="11.00" fill="#000000">parent_task_id_</text>
<polygon fill="none" stroke="#000000" points="199.5,-521.2 199.5,-543.2 283.5,-543.2 283.5,-521.2 199.5,-521.2"/>
<text text-anchor="start" x="202.5" y="-528.9" font-family="Helvetica,sans-Serif" font-size="11.00" fill="#000000">varchar[64]</text>
<polygon fill="none" stroke="#000000" points="10.5,-499.2 10.5,-521.2 199.5,-521.2 199.5,-499.2 10.5,-499.2"/>
<text text-anchor="start" x="30.5" y="-506.3" font-family="Helvetica,sans-Serif" font-size="11.00" fill="#000000">description_</text>
<polygon fill="none" stroke="#000000" points="199.5,-499.2 199.5,-521.2 283.5,-521.2 283.5,-499.2 199.5,-499.2"/>
<text text-anchor="start" x="202.5" y="-506.9" font-family="Helvetica,sans-Serif" font-size="11.00" fill="#000000">varchar[4000]</text>
<polygon fill="none" stroke="#000000" points="10.5,-477.2 10.5,-499.2 199.5,-499.2 199.5,-477.2 10.5,-477.2"/>
<text text-anchor="start" x="30.5" y="-484.3" font-family="Helvetica,sans-Serif" font-size="11.00" fill="#000000">owner_</text>
<polygon fill="none" stroke="#000000" points="199.5,-477.2 199.5,-499.2 283.5,-499.2 283.5,-477.2 199.5,-477.2"/>
<text text-anchor="start" x="202.5" y="-484.9" font-family="Helvetica,sans-Serif" font-size="11.00" fill="#000000">varchar[255]</text>
<polygon fill="none" stroke="#000000" points="10.5,-455.2 10.5,-477.2 199.5,-477.2 199.5,-455.2 10.5,-455.2"/>
<text text-anchor="start" x="30.5" y="-462.3" font-family="Helvetica,sans-Serif" font-size="11.00" fill="#000000">assignee_</text>
<polygon fill="none" stroke="#000000" points="199.5,-455.2 199.5,-477.2 283.5,-477.2 283.5,-455.2 199.5,-455.2"/>
<text text-anchor="start" x="202.5" y="-462.9" font-family="Helvetica,sans-Serif" font-size="11.00" fill="#000000">varchar[255]</text>
<polygon fill="none" stroke="#000000" points="10.5,-433.2 10.5,-455.2 199.5,-455.2 199.5,-433.2 10.5,-433.2"/>
<text text-anchor="start" x="30.5" y="-440.3" font-family="Helvetica,sans-Serif" font-size="11.00" fill="#000000">start_time_</text>
<polygon fill="none" stroke="#000000" points="199.5,-433.2 199.5,-455.2 283.5,-455.2 283.5,-433.2 199.5,-433.2"/>
<text text-anchor="start" x="202.3807" y="-440.9" font-family="Helvetica,sans-Serif" font-size="11.00" fill="#000000">timestamp[29,6]</text>
<polygon fill="none" stroke="#000000" points="10.5,-411.2 10.5,-433.2 199.5,-433.2 199.5,-411.2 10.5,-411.2"/>
<text text-anchor="start" x="30.5" y="-418.3" font-family="Helvetica,sans-Serif" font-size="11.00" fill="#000000">in_progress_time_</text>
<polygon fill="none" stroke="#000000" points="199.5,-411.2 199.5,-433.2 283.5,-433.2 283.5,-411.2 199.5,-411.2"/>
<text text-anchor="start" x="202.3807" y="-418.9" font-family="Helvetica,sans-Serif" font-size="11.00" fill="#000000">timestamp[29,6]</text>
<polygon fill="none" stroke="#000000" points="10.5,-389.2 10.5,-411.2 199.5,-411.2 199.5,-389.2 10.5,-389.2"/>
<text text-anchor="start" x="30.5" y="-396.3" font-family="Helvetica,sans-Serif" font-size="11.00" fill="#000000">in_progress_started_by_</text>
<polygon fill="none" stroke="#000000" points="199.5,-389.2 199.5,-411.2 283.5,-411.2 283.5,-389.2 199.5,-389.2"/>
<text text-anchor="start" x="202.5" y="-396.9" font-family="Helvetica,sans-Serif" font-size="11.00" fill="#000000">varchar[255]</text>
<polygon fill="none" stroke="#000000" points="10.5,-367.2 10.5,-389.2 199.5,-389.2 199.5,-367.2 10.5,-367.2"/>
<text text-anchor="start" x="30.5" y="-374.3" font-family="Helvetica,sans-Serif" font-size="11.00" fill="#000000">claim_time_</text>
<polygon fill="none" stroke="#000000" points="199.5,-367.2 199.5,-389.2 283.5,-389.2 283.5,-367.2 199.5,-367.2"/>
<text text-anchor="start" x="202.3807" y="-374.9" font-family="Helvetica,sans-Serif" font-size="11.00" fill="#000000">timestamp[29,6]</text>
<polygon fill="none" stroke="#000000" points="10.5,-345.2 10.5,-367.2 199.5,-367.2 199.5,-345.2 10.5,-345.2"/>
<text text-anchor="start" x="30.5" y="-352.3" font-family="Helvetica,sans-Serif" font-size="11.00" fill="#000000">claimed_by_</text>
<polygon fill="none" stroke="#000000" points="199.5,-345.2 199.5,-367.2 283.5,-367.2 283.5,-345.2 199.5,-345.2"/>
<text text-anchor="start" x="202.5" y="-352.9" font-family="Helvetica,sans-Serif" font-size="11.00" fill="#000000">varchar[255]</text>
<polygon fill="none" stroke="#000000" points="10.5,-323.2 10.5,-345.2 199.5,-345.2 199.5,-323.2 10.5,-323.2"/>
<text text-anchor="start" x="30.5" y="-330.3" font-family="Helvetica,sans-Serif" font-size="11.00" fill="#000000">suspended_time_</text>
<polygon fill="none" stroke="#000000" points="199.5,-323.2 199.5,-345.2 283.5,-345.2 283.5,-323.2 199.5,-323.2"/>
<text text-anchor="start" x="202.3807" y="-330.9" font-family="Helvetica,sans-Serif" font-size="11.00" fill="#000000">timestamp[29,6]</text>
<polygon fill="none" stroke="#000000" points="10.5,-301.2 10.5,-323.2 199.5,-323.2 199.5,-301.2 10.5,-301.2"/>
<text text-anchor="start" x="30.5" y="-308.3" font-family="Helvetica,sans-Serif" font-size="11.00" fill="#000000">suspended_by_</text>
<polygon fill="none" stroke="#000000" points="199.5,-301.2 199.5,-323.2 283.5,-323.2 283.5,-301.2 199.5,-301.2"/>
<text text-anchor="start" x="202.5" y="-308.9" font-family="Helvetica,sans-Serif" font-size="11.00" fill="#000000">varchar[255]</text>
<polygon fill="none" stroke="#000000" points="10.5,-279.2 10.5,-301.2 199.5,-301.2 199.5,-279.2 10.5,-279.2"/>
<text text-anchor="start" x="30.5" y="-286.3" font-family="Helvetica,sans-Serif" font-size="11.00" fill="#000000">end_time_</text>
<polygon fill="none" stroke="#000000" points="199.5,-279.2 199.5,-301.2 283.5,-301.2 283.5,-279.2 199.5,-279.2"/>
<text text-anchor="start" x="202.3807" y="-286.9" font-family="Helvetica,sans-Serif" font-size="11.00" fill="#000000">timestamp[29,6]</text>
<polygon fill="none" stroke="#000000" points="10.5,-257.2 10.5,-279.2 199.5,-279.2 199.5,-257.2 10.5,-257.2"/>
<text text-anchor="start" x="30.5" y="-264.3" font-family="Helvetica,sans-Serif" font-size="11.00" fill="#000000">completed_by_</text>
<polygon fill="none" stroke="#000000" points="199.5,-257.2 199.5,-279.2 283.5,-279.2 283.5,-257.2 199.5,-257.2"/>
<text text-anchor="start" x="202.5" y="-264.9" font-family="Helvetica,sans-Serif" font-size="11.00" fill="#000000">varchar[255]</text>
<polygon fill="none" stroke="#000000" points="10.5,-235.2 10.5,-257.2 199.5,-257.2 199.5,-235.2 10.5,-235.2"/>
<text text-anchor="start" x="30.5" y="-242.3" font-family="Helvetica,sans-Serif" font-size="11.00" fill="#000000">duration_</text>
<polygon fill="none" stroke="#000000" points="199.5,-235.2 199.5,-257.2 283.5,-257.2 283.5,-235.2 199.5,-235.2"/>
<text text-anchor="start" x="202.5" y="-242.9" font-family="Helvetica,sans-Serif" font-size="11.00" fill="#000000">int8[19]</text>
<polygon fill="none" stroke="#000000" points="10.5,-213.2 10.5,-235.2 199.5,-235.2 199.5,-213.2 10.5,-213.2"/>
<text text-anchor="start" x="30.5" y="-220.3" font-family="Helvetica,sans-Serif" font-size="11.00" fill="#000000">delete_reason_</text>
<polygon fill="none" stroke="#000000" points="199.5,-213.2 199.5,-235.2 283.5,-235.2 283.5,-213.2 199.5,-213.2"/>
<text text-anchor="start" x="202.5" y="-220.9" font-family="Helvetica,sans-Serif" font-size="11.00" fill="#000000">varchar[4000]</text>
<polygon fill="none" stroke="#000000" points="10.5,-191.2 10.5,-213.2 199.5,-213.2 199.5,-191.2 10.5,-191.2"/>
<text text-anchor="start" x="30.5" y="-198.3" font-family="Helvetica,sans-Serif" font-size="11.00" fill="#000000">priority_</text>
<polygon fill="none" stroke="#000000" points="199.5,-191.2 199.5,-213.2 283.5,-213.2 283.5,-191.2 199.5,-191.2"/>
<text text-anchor="start" x="202.5" y="-198.9" font-family="Helvetica,sans-Serif" font-size="11.00" fill="#000000">int4[10]</text>
<polygon fill="none" stroke="#000000" points="10.5,-169.2 10.5,-191.2 199.5,-191.2 199.5,-169.2 10.5,-169.2"/>
<text text-anchor="start" x="30.5" y="-176.3" font-family="Helvetica,sans-Serif" font-size="11.00" fill="#000000">in_progress_due_date_</text>
<polygon fill="none" stroke="#000000" points="199.5,-169.2 199.5,-191.2 283.5,-191.2 283.5,-169.2 199.5,-169.2"/>
<text text-anchor="start" x="202.3807" y="-176.9" font-family="Helvetica,sans-Serif" font-size="11.00" fill="#000000">timestamp[29,6]</text>
<polygon fill="none" stroke="#000000" points="10.5,-147.2 10.5,-169.2 199.5,-169.2 199.5,-147.2 10.5,-147.2"/>
<text text-anchor="start" x="30.5" y="-154.3" font-family="Helvetica,sans-Serif" font-size="11.00" fill="#000000">due_date_</text>
<polygon fill="none" stroke="#000000" points="199.5,-147.2 199.5,-169.2 283.5,-169.2 283.5,-147.2 199.5,-147.2"/>
<text text-anchor="start" x="202.3807" y="-154.9" font-family="Helvetica,sans-Serif" font-size="11.00" fill="#000000">timestamp[29,6]</text>
<polygon fill="none" stroke="#000000" points="10.5,-125.2 10.5,-147.2 199.5,-147.2 199.5,-125.2 10.5,-125.2"/>
<text text-anchor="start" x="30.5" y="-132.3" font-family="Helvetica,sans-Serif" font-size="11.00" fill="#000000">form_key_</text>
<polygon fill="none" stroke="#000000" points="199.5,-125.2 199.5,-147.2 283.5,-147.2 283.5,-125.2 199.5,-125.2"/>
<text text-anchor="start" x="202.5" y="-132.9" font-family="Helvetica,sans-Serif" font-size="11.00" fill="#000000">varchar[255]</text>
<polygon fill="none" stroke="#000000" points="10.5,-103.2 10.5,-125.2 199.5,-125.2 199.5,-103.2 10.5,-103.2"/>
<text text-anchor="start" x="30.5" y="-110.3" font-family="Helvetica,sans-Serif" font-size="11.00" fill="#000000">category_</text>
<polygon fill="none" stroke="#000000" points="199.5,-103.2 199.5,-125.2 283.5,-125.2 283.5,-103.2 199.5,-103.2"/>
<text text-anchor="start" x="202.5" y="-110.9" font-family="Helvetica,sans-Serif" font-size="11.00" fill="#000000">varchar[255]</text>
<polygon fill="none" stroke="#000000" points="10.5,-81.2 10.5,-103.2 199.5,-103.2 199.5,-81.2 10.5,-81.2"/>
<text text-anchor="start" x="30.5" y="-88.3" font-family="Helvetica,sans-Serif" font-size="11.00" fill="#000000">tenant_id_</text>
<polygon fill="none" stroke="#000000" points="199.5,-81.2 199.5,-103.2 283.5,-103.2 283.5,-81.2 199.5,-81.2"/>
<text text-anchor="start" x="202.5" y="-88.9" font-family="Helvetica,sans-Serif" font-size="11.00" fill="#000000">varchar[255]</text>
<polygon fill="none" stroke="#000000" points="10.5,-59.2 10.5,-81.2 199.5,-81.2 199.5,-59.2 10.5,-59.2"/>
<text text-anchor="start" x="30.5" y="-66.3" font-family="Helvetica,sans-Serif" font-size="11.00" fill="#000000">last_updated_time_</text>
<polygon fill="none" stroke="#000000" points="199.5,-59.2 199.5,-81.2 283.5,-81.2 283.5,-59.2 199.5,-59.2"/>
<text text-anchor="start" x="202.3807" y="-66.9" font-family="Helvetica,sans-Serif" font-size="11.00" fill="#000000">timestamp[29,6]</text>
<polygon fill="#ffffff" stroke="transparent" points="10.5,-40.2 10.5,-59.2 283.5,-59.2 283.5,-40.2 10.5,-40.2"/>
<polygon fill="none" stroke="#000000" points="10.5,-40.2 10.5,-59.2 283.5,-59.2 283.5,-40.2 10.5,-40.2"/>
<polygon fill="#ffffff" stroke="transparent" points="11.5,-41.2 11.5,-58.2 105.5,-58.2 105.5,-41.2 11.5,-41.2"/>
<text text-anchor="start" x="13.5" y="-46.3" font-family="Helvetica,sans-Serif" font-size="11.00" fill="#000000">&lt; 0</text>
<polygon fill="#ffffff" stroke="transparent" points="105.5,-41.2 105.5,-58.2 189.5,-58.2 189.5,-41.2 105.5,-41.2"/>
<text text-anchor="start" x="144.4431" y="-46.3" font-family="Helvetica,sans-Serif" font-size="11.00" fill="#000000"> &#160;</text>
<polygon fill="#ffffff" stroke="transparent" points="189.5,-41.2 189.5,-58.2 282.5,-58.2 282.5,-41.2 189.5,-41.2"/>
<text text-anchor="start" x="264.9053" y="-46.3" font-family="Helvetica,sans-Serif" font-size="11.00" fill="#000000">0 &gt;</text>
<polygon fill="#000000" stroke="#000000" points="105.5,-41.2 105.5,-58.2 105.5,-58.2 105.5,-41.2 105.5,-41.2"/>
<polygon fill="#000000" stroke="#000000" points="189.5,-41.2 189.5,-58.2 189.5,-58.2 189.5,-41.2 189.5,-41.2"/>
<polygon fill="none" stroke="#000000" stroke-width="2" points="9,-39.2 9,-875.2 284,-875.2 284,-39.2 9,-39.2"/>
</a>
</g>
</g>
</g>
</svg>
