<?xml version="1.0" encoding="UTF-8" standalone="no"?>
<!DOCTYPE svg PUBLIC "-//W3C//DTD SVG 1.1//EN"
 "http://www.w3.org/Graphics/SVG/1.1/DTD/svg11.dtd">
<!-- Generated by graphviz version 2.40.1 (20161225.0304)
 -->
<!-- Title: oneDegreeRelationshipsDiagram Pages: 1 -->
<svg width="239pt" height="360pt"
 viewBox="0.00 0.00 239.00 360.20" xmlns="http://www.w3.org/2000/svg" xmlns:xlink="http://www.w3.org/1999/xlink">
<g id="graph0" class="graph" transform="scale(1 1) rotate(0) translate(4 356.2)">
<title>oneDegreeRelationshipsDiagram</title>
<polygon fill="#ffffff" stroke="transparent" points="-4,4 -4,-356.2 235,-356.2 235,4 -4,4"/>
<text text-anchor="middle" x="72.4936" y="-7.3" font-family="Helvetica,sans-Serif" font-size="11.00" fill="#000000">Generated by SchemaSpy</text>
<!-- act_evt_log -->
<g id="node1" class="node">
<title>act_evt_log</title>
<g id="a_node1"><a xlink:href="../../tables/act_evt_log.html" xlink:title="act_evt_log" target="_top">
<polygon fill="#ffffff" stroke="transparent" points="8,-38.2 8,-348.2 223,-348.2 223,-38.2 8,-38.2"/>
<polygon fill="#f5f5f5" stroke="transparent" points="10.5,-323.2 10.5,-346.2 221.5,-346.2 221.5,-323.2 10.5,-323.2"/>
<polygon fill="none" stroke="#000000" points="10.5,-323.2 10.5,-346.2 221.5,-346.2 221.5,-323.2 10.5,-323.2"/>
<text text-anchor="start" x="15.5" y="-331.8" font-family="Helvetica,sans-Serif" font-weight="bold" font-size="11.00" fill="#000000">act_evt_log</text>
<text text-anchor="start" x="186.5437" y="-331.3" font-family="Helvetica,sans-Serif" font-size="11.00" fill="#000000">[table]</text>
<polygon fill="none" stroke="#000000" points="10.5,-301.2 10.5,-323.2 121.5,-323.2 121.5,-301.2 10.5,-301.2"/>
<image xlink:href="../../images/primaryKeys.png" width="11px" height="12px" preserveAspectRatio="xMinYMin meet" x="15.5" y="-318.2"/>
<text text-anchor="start" x="30.5" y="-308.3" font-family="Helvetica,sans-Serif" font-size="11.00" fill="#000000">log_nr_</text>
<polygon fill="none" stroke="#000000" points="121.5,-301.2 121.5,-323.2 221.5,-323.2 221.5,-301.2 121.5,-301.2"/>
<text text-anchor="start" x="124.5" y="-308.9" font-family="Helvetica,sans-Serif" font-size="11.00" fill="#000000">serial[10]</text>
<polygon fill="none" stroke="#000000" points="10.5,-279.2 10.5,-301.2 121.5,-301.2 121.5,-279.2 10.5,-279.2"/>
<text text-anchor="start" x="30.5" y="-286.3" font-family="Helvetica,sans-Serif" font-size="11.00" fill="#000000">type_</text>
<polygon fill="none" stroke="#000000" points="121.5,-279.2 121.5,-301.2 221.5,-301.2 221.5,-279.2 121.5,-279.2"/>
<text text-anchor="start" x="124.5" y="-286.9" font-family="Helvetica,sans-Serif" font-size="11.00" fill="#000000">varchar[64]</text>
<polygon fill="none" stroke="#000000" points="10.5,-257.2 10.5,-279.2 121.5,-279.2 121.5,-257.2 10.5,-257.2"/>
<text text-anchor="start" x="30.5" y="-264.3" font-family="Helvetica,sans-Serif" font-size="11.00" fill="#000000">proc_def_id_</text>
<polygon fill="none" stroke="#000000" points="121.5,-257.2 121.5,-279.2 221.5,-279.2 221.5,-257.2 121.5,-257.2"/>
<text text-anchor="start" x="124.5" y="-264.9" font-family="Helvetica,sans-Serif" font-size="11.00" fill="#000000">varchar[64]</text>
<polygon fill="none" stroke="#000000" points="10.5,-235.2 10.5,-257.2 121.5,-257.2 121.5,-235.2 10.5,-235.2"/>
<text text-anchor="start" x="30.5" y="-242.3" font-family="Helvetica,sans-Serif" font-size="11.00" fill="#000000">proc_inst_id_</text>
<polygon fill="none" stroke="#000000" points="121.5,-235.2 121.5,-257.2 221.5,-257.2 221.5,-235.2 121.5,-235.2"/>
<text text-anchor="start" x="124.5" y="-242.9" font-family="Helvetica,sans-Serif" font-size="11.00" fill="#000000">varchar[64]</text>
<polygon fill="none" stroke="#000000" points="10.5,-213.2 10.5,-235.2 121.5,-235.2 121.5,-213.2 10.5,-213.2"/>
<text text-anchor="start" x="30.5" y="-220.3" font-family="Helvetica,sans-Serif" font-size="11.00" fill="#000000">execution_id_</text>
<polygon fill="none" stroke="#000000" points="121.5,-213.2 121.5,-235.2 221.5,-235.2 221.5,-213.2 121.5,-213.2"/>
<text text-anchor="start" x="124.5" y="-220.9" font-family="Helvetica,sans-Serif" font-size="11.00" fill="#000000">varchar[64]</text>
<polygon fill="none" stroke="#000000" points="10.5,-191.2 10.5,-213.2 121.5,-213.2 121.5,-191.2 10.5,-191.2"/>
<text text-anchor="start" x="30.5" y="-198.3" font-family="Helvetica,sans-Serif" font-size="11.00" fill="#000000">task_id_</text>
<polygon fill="none" stroke="#000000" points="121.5,-191.2 121.5,-213.2 221.5,-213.2 221.5,-191.2 121.5,-191.2"/>
<text text-anchor="start" x="124.5" y="-198.9" font-family="Helvetica,sans-Serif" font-size="11.00" fill="#000000">varchar[64]</text>
<polygon fill="none" stroke="#000000" points="10.5,-169.2 10.5,-191.2 121.5,-191.2 121.5,-169.2 10.5,-169.2"/>
<text text-anchor="start" x="30.5" y="-176.3" font-family="Helvetica,sans-Serif" font-size="11.00" fill="#000000">time_stamp_</text>
<polygon fill="none" stroke="#000000" points="121.5,-169.2 121.5,-191.2 221.5,-191.2 221.5,-169.2 121.5,-169.2"/>
<text text-anchor="start" x="124.5" y="-176.9" font-family="Helvetica,sans-Serif" font-size="11.00" fill="#000000">timestamp[29,6]</text>
<polygon fill="none" stroke="#000000" points="10.5,-147.2 10.5,-169.2 121.5,-169.2 121.5,-147.2 10.5,-147.2"/>
<text text-anchor="start" x="30.5" y="-154.3" font-family="Helvetica,sans-Serif" font-size="11.00" fill="#000000">user_id_</text>
<polygon fill="none" stroke="#000000" points="121.5,-147.2 121.5,-169.2 221.5,-169.2 221.5,-147.2 121.5,-147.2"/>
<text text-anchor="start" x="124.5" y="-154.9" font-family="Helvetica,sans-Serif" font-size="11.00" fill="#000000">varchar[255]</text>
<polygon fill="none" stroke="#000000" points="10.5,-125.2 10.5,-147.2 121.5,-147.2 121.5,-125.2 10.5,-125.2"/>
<text text-anchor="start" x="30.5" y="-132.3" font-family="Helvetica,sans-Serif" font-size="11.00" fill="#000000">data_</text>
<polygon fill="none" stroke="#000000" points="121.5,-125.2 121.5,-147.2 221.5,-147.2 221.5,-125.2 121.5,-125.2"/>
<text text-anchor="start" x="124.4178" y="-132.9" font-family="Helvetica,sans-Serif" font-size="11.00" fill="#000000">bytea[2147483647]</text>
<polygon fill="none" stroke="#000000" points="10.5,-103.2 10.5,-125.2 121.5,-125.2 121.5,-103.2 10.5,-103.2"/>
<text text-anchor="start" x="30.5" y="-110.3" font-family="Helvetica,sans-Serif" font-size="11.00" fill="#000000">lock_owner_</text>
<polygon fill="none" stroke="#000000" points="121.5,-103.2 121.5,-125.2 221.5,-125.2 221.5,-103.2 121.5,-103.2"/>
<text text-anchor="start" x="124.5" y="-110.9" font-family="Helvetica,sans-Serif" font-size="11.00" fill="#000000">varchar[255]</text>
<polygon fill="none" stroke="#000000" points="10.5,-81.2 10.5,-103.2 121.5,-103.2 121.5,-81.2 10.5,-81.2"/>
<text text-anchor="start" x="30.5" y="-88.3" font-family="Helvetica,sans-Serif" font-size="11.00" fill="#000000">lock_time_</text>
<polygon fill="none" stroke="#000000" points="121.5,-81.2 121.5,-103.2 221.5,-103.2 221.5,-81.2 121.5,-81.2"/>
<text text-anchor="start" x="124.5" y="-88.9" font-family="Helvetica,sans-Serif" font-size="11.00" fill="#000000">timestamp[29,6]</text>
<polygon fill="none" stroke="#000000" points="10.5,-59.2 10.5,-81.2 121.5,-81.2 121.5,-59.2 10.5,-59.2"/>
<text text-anchor="start" x="30.5" y="-66.3" font-family="Helvetica,sans-Serif" font-size="11.00" fill="#000000">is_processed_</text>
<polygon fill="none" stroke="#000000" points="121.5,-59.2 121.5,-81.2 221.5,-81.2 221.5,-59.2 121.5,-59.2"/>
<text text-anchor="start" x="124.5" y="-66.9" font-family="Helvetica,sans-Serif" font-size="11.00" fill="#000000">int2[5]</text>
<polygon fill="#ffffff" stroke="transparent" points="10.5,-40.2 10.5,-59.2 221.5,-59.2 221.5,-40.2 10.5,-40.2"/>
<polygon fill="none" stroke="#000000" points="10.5,-40.2 10.5,-59.2 221.5,-59.2 221.5,-40.2 10.5,-40.2"/>
<polygon fill="#ffffff" stroke="transparent" points="11.5,-41.2 11.5,-58.2 84.5,-58.2 84.5,-41.2 11.5,-41.2"/>
<text text-anchor="start" x="13.5" y="-46.3" font-family="Helvetica,sans-Serif" font-size="11.00" fill="#000000">&lt; 0</text>
<polygon fill="#ffffff" stroke="transparent" points="84.5,-41.2 84.5,-58.2 148.5,-58.2 148.5,-41.2 84.5,-41.2"/>
<text text-anchor="start" x="113.4431" y="-46.3" font-family="Helvetica,sans-Serif" font-size="11.00" fill="#000000"> &#160;</text>
<polygon fill="#ffffff" stroke="transparent" points="148.5,-41.2 148.5,-58.2 220.5,-58.2 220.5,-41.2 148.5,-41.2"/>
<text text-anchor="start" x="202.9053" y="-46.3" font-family="Helvetica,sans-Serif" font-size="11.00" fill="#000000">0 &gt;</text>
<polygon fill="#000000" stroke="#000000" points="84.5,-41.2 84.5,-58.2 84.5,-58.2 84.5,-41.2 84.5,-41.2"/>
<polygon fill="#000000" stroke="#000000" points="148.5,-41.2 148.5,-58.2 148.5,-58.2 148.5,-41.2 148.5,-41.2"/>
<polygon fill="none" stroke="#000000" stroke-width="2" points="9,-39.2 9,-347.2 222,-347.2 222,-39.2 9,-39.2"/>
</a>
</g>
</g>
</g>
</svg>
