<?xml version="1.0" encoding="UTF-8" standalone="no"?>
<!DOCTYPE svg PUBLIC "-//W3C//DTD SVG 1.1//EN"
 "http://www.w3.org/Graphics/SVG/1.1/DTD/svg11.dtd">
<!-- Generated by graphviz version 2.40.1 (20161225.0304)
 -->
<!-- Title: oneDegreeRelationshipsDiagram Pages: 1 -->
<svg width="518pt" height="492pt"
 viewBox="0.00 0.00 518.00 492.20" xmlns="http://www.w3.org/2000/svg" xmlns:xlink="http://www.w3.org/1999/xlink">
<g id="graph0" class="graph" transform="scale(1 1) rotate(0) translate(4 488.2)">
<title>oneDegreeRelationshipsDiagram</title>
<polygon fill="#ffffff" stroke="transparent" points="-4,4 -4,-488.2 514,-488.2 514,4 -4,4"/>
<text text-anchor="middle" x="72.4936" y="-7.3" font-family="Helvetica,sans-Serif" font-size="11.00" fill="#000000">Generated by SchemaSpy</text>
<!-- act_ru_event_subscr -->
<g id="node1" class="node">
<title>act_ru_event_subscr</title>
<g id="a_node1"><a xlink:href="../../tables/act_ru_event_subscr.html" xlink:title="act_ru_event_subscr" target="_top">
<polygon fill="#ffffff" stroke="transparent" points="254,-38.2 254,-480.2 502,-480.2 502,-38.2 254,-38.2"/>
<polygon fill="#f5f5f5" stroke="transparent" points="256,-455.2 256,-478.2 500,-478.2 500,-455.2 256,-455.2"/>
<polygon fill="none" stroke="#000000" points="256,-455.2 256,-478.2 500,-478.2 500,-455.2 256,-455.2"/>
<text text-anchor="start" x="261" y="-463.8" font-family="Helvetica,sans-Serif" font-weight="bold" font-size="11.00" fill="#000000">act_ru_event_subscr</text>
<text text-anchor="start" x="465.0437" y="-463.3" font-family="Helvetica,sans-Serif" font-size="11.00" fill="#000000">[table]</text>
<polygon fill="none" stroke="#000000" points="256,-433.2 256,-455.2 416,-455.2 416,-433.2 256,-433.2"/>
<image xlink:href="../../images/primaryKeys.png" width="11px" height="12px" preserveAspectRatio="xMinYMin meet" x="261" y="-450.2"/>
<text text-anchor="start" x="276" y="-440.3" font-family="Helvetica,sans-Serif" font-size="11.00" fill="#000000">id_</text>
<polygon fill="none" stroke="#000000" points="416,-433.2 416,-455.2 500,-455.2 500,-433.2 416,-433.2"/>
<text text-anchor="start" x="419" y="-440.9" font-family="Helvetica,sans-Serif" font-size="11.00" fill="#000000">varchar[64]</text>
<polygon fill="none" stroke="#000000" points="256,-411.2 256,-433.2 416,-433.2 416,-411.2 256,-411.2"/>
<text text-anchor="start" x="276" y="-418.3" font-family="Helvetica,sans-Serif" font-size="11.00" fill="#000000">rev_</text>
<polygon fill="none" stroke="#000000" points="416,-411.2 416,-433.2 500,-433.2 500,-411.2 416,-411.2"/>
<text text-anchor="start" x="419" y="-418.9" font-family="Helvetica,sans-Serif" font-size="11.00" fill="#000000">int4[10]</text>
<polygon fill="none" stroke="#000000" points="256,-389.2 256,-411.2 416,-411.2 416,-389.2 256,-389.2"/>
<text text-anchor="start" x="276" y="-396.3" font-family="Helvetica,sans-Serif" font-size="11.00" fill="#000000">event_type_</text>
<polygon fill="none" stroke="#000000" points="416,-389.2 416,-411.2 500,-411.2 500,-389.2 416,-389.2"/>
<text text-anchor="start" x="419" y="-396.9" font-family="Helvetica,sans-Serif" font-size="11.00" fill="#000000">varchar[255]</text>
<polygon fill="none" stroke="#000000" points="256,-367.2 256,-389.2 416,-389.2 416,-367.2 256,-367.2"/>
<text text-anchor="start" x="276" y="-374.3" font-family="Helvetica,sans-Serif" font-size="11.00" fill="#000000">event_name_</text>
<polygon fill="none" stroke="#000000" points="416,-367.2 416,-389.2 500,-389.2 500,-367.2 416,-367.2"/>
<text text-anchor="start" x="419" y="-374.9" font-family="Helvetica,sans-Serif" font-size="11.00" fill="#000000">varchar[255]</text>
<polygon fill="#ffffff" stroke="transparent" points="256,-345.2 256,-367.2 416,-367.2 416,-345.2 256,-345.2"/>
<polygon fill="none" stroke="#000000" points="256,-345.2 256,-367.2 416,-367.2 416,-345.2 256,-345.2"/>
<image xlink:href="../../images/foreignKeys.png" width="11px" height="12px" preserveAspectRatio="xMinYMin meet" x="261" y="-362.2"/>
<text text-anchor="start" x="276" y="-352.3" font-family="Helvetica,sans-Serif" font-size="11.00" fill="#000000">execution_id_</text>
<polygon fill="none" stroke="#000000" points="416,-345.2 416,-367.2 500,-367.2 500,-345.2 416,-345.2"/>
<text text-anchor="start" x="419" y="-352.9" font-family="Helvetica,sans-Serif" font-size="11.00" fill="#000000">varchar[64]</text>
<polygon fill="#ffffff" stroke="transparent" points="256,-323.2 256,-345.2 416,-345.2 416,-323.2 256,-323.2"/>
<polygon fill="none" stroke="#000000" points="256,-323.2 256,-345.2 416,-345.2 416,-323.2 256,-323.2"/>
<text text-anchor="start" x="276" y="-330.3" font-family="Helvetica,sans-Serif" font-size="11.00" fill="#000000">proc_inst_id_</text>
<polygon fill="none" stroke="#000000" points="416,-323.2 416,-345.2 500,-345.2 500,-323.2 416,-323.2"/>
<text text-anchor="start" x="419" y="-330.9" font-family="Helvetica,sans-Serif" font-size="11.00" fill="#000000">varchar[64]</text>
<polygon fill="none" stroke="#000000" points="256,-301.2 256,-323.2 416,-323.2 416,-301.2 256,-301.2"/>
<text text-anchor="start" x="276" y="-308.3" font-family="Helvetica,sans-Serif" font-size="11.00" fill="#000000">activity_id_</text>
<polygon fill="none" stroke="#000000" points="416,-301.2 416,-323.2 500,-323.2 500,-301.2 416,-301.2"/>
<text text-anchor="start" x="419" y="-308.9" font-family="Helvetica,sans-Serif" font-size="11.00" fill="#000000">varchar[64]</text>
<polygon fill="#ffffff" stroke="transparent" points="256,-279.2 256,-301.2 416,-301.2 416,-279.2 256,-279.2"/>
<polygon fill="none" stroke="#000000" points="256,-279.2 256,-301.2 416,-301.2 416,-279.2 256,-279.2"/>
<text text-anchor="start" x="276" y="-286.3" font-family="Helvetica,sans-Serif" font-size="11.00" fill="#000000">configuration_</text>
<polygon fill="none" stroke="#000000" points="416,-279.2 416,-301.2 500,-301.2 500,-279.2 416,-279.2"/>
<text text-anchor="start" x="419" y="-286.9" font-family="Helvetica,sans-Serif" font-size="11.00" fill="#000000">varchar[255]</text>
<polygon fill="none" stroke="#000000" points="256,-257.2 256,-279.2 416,-279.2 416,-257.2 256,-257.2"/>
<text text-anchor="start" x="276" y="-264.3" font-family="Helvetica,sans-Serif" font-size="11.00" fill="#000000">created_</text>
<polygon fill="none" stroke="#000000" points="416,-257.2 416,-279.2 500,-279.2 500,-257.2 416,-257.2"/>
<text text-anchor="start" x="418.8807" y="-264.9" font-family="Helvetica,sans-Serif" font-size="11.00" fill="#000000">timestamp[29,6]</text>
<polygon fill="none" stroke="#000000" points="256,-235.2 256,-257.2 416,-257.2 416,-235.2 256,-235.2"/>
<text text-anchor="start" x="276" y="-242.3" font-family="Helvetica,sans-Serif" font-size="11.00" fill="#000000">proc_def_id_</text>
<polygon fill="none" stroke="#000000" points="416,-235.2 416,-257.2 500,-257.2 500,-235.2 416,-235.2"/>
<text text-anchor="start" x="419" y="-242.9" font-family="Helvetica,sans-Serif" font-size="11.00" fill="#000000">varchar[64]</text>
<polygon fill="none" stroke="#000000" points="256,-213.2 256,-235.2 416,-235.2 416,-213.2 256,-213.2"/>
<text text-anchor="start" x="276" y="-220.3" font-family="Helvetica,sans-Serif" font-size="11.00" fill="#000000">sub_scope_id_</text>
<polygon fill="none" stroke="#000000" points="416,-213.2 416,-235.2 500,-235.2 500,-213.2 416,-213.2"/>
<text text-anchor="start" x="419" y="-220.9" font-family="Helvetica,sans-Serif" font-size="11.00" fill="#000000">varchar[64]</text>
<polygon fill="#ffffff" stroke="transparent" points="256,-191.2 256,-213.2 416,-213.2 416,-191.2 256,-191.2"/>
<polygon fill="none" stroke="#000000" points="256,-191.2 256,-213.2 416,-213.2 416,-191.2 256,-191.2"/>
<text text-anchor="start" x="276" y="-198.3" font-family="Helvetica,sans-Serif" font-size="11.00" fill="#000000">scope_id_</text>
<polygon fill="none" stroke="#000000" points="416,-191.2 416,-213.2 500,-213.2 500,-191.2 416,-191.2"/>
<text text-anchor="start" x="419" y="-198.9" font-family="Helvetica,sans-Serif" font-size="11.00" fill="#000000">varchar[64]</text>
<polygon fill="none" stroke="#000000" points="256,-169.2 256,-191.2 416,-191.2 416,-169.2 256,-169.2"/>
<text text-anchor="start" x="276" y="-176.3" font-family="Helvetica,sans-Serif" font-size="11.00" fill="#000000">scope_definition_id_</text>
<polygon fill="none" stroke="#000000" points="416,-169.2 416,-191.2 500,-191.2 500,-169.2 416,-169.2"/>
<text text-anchor="start" x="419" y="-176.9" font-family="Helvetica,sans-Serif" font-size="11.00" fill="#000000">varchar[64]</text>
<polygon fill="none" stroke="#000000" points="256,-147.2 256,-169.2 416,-169.2 416,-147.2 256,-147.2"/>
<text text-anchor="start" x="276" y="-154.3" font-family="Helvetica,sans-Serif" font-size="11.00" fill="#000000">scope_definition_key_</text>
<polygon fill="none" stroke="#000000" points="416,-147.2 416,-169.2 500,-169.2 500,-147.2 416,-147.2"/>
<text text-anchor="start" x="419" y="-154.9" font-family="Helvetica,sans-Serif" font-size="11.00" fill="#000000">varchar[255]</text>
<polygon fill="#ffffff" stroke="transparent" points="256,-125.2 256,-147.2 416,-147.2 416,-125.2 256,-125.2"/>
<polygon fill="none" stroke="#000000" points="256,-125.2 256,-147.2 416,-147.2 416,-125.2 256,-125.2"/>
<text text-anchor="start" x="276" y="-132.3" font-family="Helvetica,sans-Serif" font-size="11.00" fill="#000000">scope_type_</text>
<polygon fill="none" stroke="#000000" points="416,-125.2 416,-147.2 500,-147.2 500,-125.2 416,-125.2"/>
<text text-anchor="start" x="419" y="-132.9" font-family="Helvetica,sans-Serif" font-size="11.00" fill="#000000">varchar[64]</text>
<polygon fill="none" stroke="#000000" points="256,-103.2 256,-125.2 416,-125.2 416,-103.2 256,-103.2"/>
<text text-anchor="start" x="276" y="-110.3" font-family="Helvetica,sans-Serif" font-size="11.00" fill="#000000">lock_time_</text>
<polygon fill="none" stroke="#000000" points="416,-103.2 416,-125.2 500,-125.2 500,-103.2 416,-103.2"/>
<text text-anchor="start" x="418.8807" y="-110.9" font-family="Helvetica,sans-Serif" font-size="11.00" fill="#000000">timestamp[29,6]</text>
<polygon fill="none" stroke="#000000" points="256,-81.2 256,-103.2 416,-103.2 416,-81.2 256,-81.2"/>
<text text-anchor="start" x="276" y="-88.3" font-family="Helvetica,sans-Serif" font-size="11.00" fill="#000000">lock_owner_</text>
<polygon fill="none" stroke="#000000" points="416,-81.2 416,-103.2 500,-103.2 500,-81.2 416,-81.2"/>
<text text-anchor="start" x="419" y="-88.9" font-family="Helvetica,sans-Serif" font-size="11.00" fill="#000000">varchar[255]</text>
<polygon fill="none" stroke="#000000" points="256,-59.2 256,-81.2 416,-81.2 416,-59.2 256,-59.2"/>
<text text-anchor="start" x="276" y="-66.3" font-family="Helvetica,sans-Serif" font-size="11.00" fill="#000000">tenant_id_</text>
<polygon fill="none" stroke="#000000" points="416,-59.2 416,-81.2 500,-81.2 500,-59.2 416,-59.2"/>
<text text-anchor="start" x="419" y="-66.9" font-family="Helvetica,sans-Serif" font-size="11.00" fill="#000000">varchar[255]</text>
<polygon fill="#ffffff" stroke="transparent" points="256,-40.2 256,-59.2 500,-59.2 500,-40.2 256,-40.2"/>
<polygon fill="none" stroke="#000000" points="256,-40.2 256,-59.2 500,-59.2 500,-40.2 256,-40.2"/>
<polygon fill="#ffffff" stroke="transparent" points="257,-41.2 257,-58.2 341,-58.2 341,-41.2 257,-41.2"/>
<text text-anchor="start" x="259" y="-46.3" font-family="Helvetica,sans-Serif" font-size="11.00" fill="#000000">&lt; 1</text>
<polygon fill="#ffffff" stroke="transparent" points="341,-41.2 341,-58.2 416,-58.2 416,-41.2 341,-41.2"/>
<text text-anchor="start" x="375.4431" y="-46.3" font-family="Helvetica,sans-Serif" font-size="11.00" fill="#000000"> &#160;</text>
<polygon fill="#ffffff" stroke="transparent" points="416,-41.2 416,-58.2 499,-58.2 499,-41.2 416,-41.2"/>
<text text-anchor="start" x="481.4053" y="-46.3" font-family="Helvetica,sans-Serif" font-size="11.00" fill="#000000">0 &gt;</text>
<polygon fill="#000000" stroke="#000000" points="341,-41.2 341,-58.2 341,-58.2 341,-41.2 341,-41.2"/>
<polygon fill="#000000" stroke="#000000" points="416,-41.2 416,-58.2 416,-58.2 416,-41.2 416,-41.2"/>
<polygon fill="none" stroke="#000000" stroke-width="2" points="255,-39.2 255,-479.2 501,-479.2 501,-39.2 255,-39.2"/>
</a>
</g>
</g>
<!-- act_ru_execution -->
<g id="node2" class="node">
<title>act_ru_execution</title>
<g id="a_node2"><a xlink:href="../../tables/act_ru_execution.html" xlink:title="act_ru_execution" target="_top">
<polygon fill="#ffffff" stroke="transparent" points="8,-153.7 8,-390.7 205,-390.7 205,-153.7 8,-153.7"/>
<polygon fill="#f5f5f5" stroke="transparent" points="8.5,-367.2 8.5,-390.2 205.5,-390.2 205.5,-367.2 8.5,-367.2"/>
<polygon fill="none" stroke="#000000" points="8.5,-367.2 8.5,-390.2 205.5,-390.2 205.5,-367.2 8.5,-367.2"/>
<text text-anchor="start" x="13.5" y="-375.8" font-family="Helvetica,sans-Serif" font-weight="bold" font-size="11.00" fill="#000000">act_ru_execution</text>
<text text-anchor="start" x="170.5437" y="-375.3" font-family="Helvetica,sans-Serif" font-size="11.00" fill="#000000">[table]</text>
<polygon fill="none" stroke="#000000" points="8.5,-345.2 8.5,-367.2 205.5,-367.2 205.5,-345.2 8.5,-345.2"/>
<image xlink:href="../../images/primaryKeys.png" width="11px" height="12px" preserveAspectRatio="xMinYMin meet" x="13.5" y="-362.2"/>
<text text-anchor="start" x="28.5" y="-352.3" font-family="Helvetica,sans-Serif" font-size="11.00" fill="#000000">id_</text>
<polygon fill="#ffffff" stroke="transparent" points="8.5,-323.2 8.5,-345.2 205.5,-345.2 205.5,-323.2 8.5,-323.2"/>
<polygon fill="none" stroke="#000000" points="8.5,-323.2 8.5,-345.2 205.5,-345.2 205.5,-323.2 8.5,-323.2"/>
<image xlink:href="../../images/foreignKeys.png" width="11px" height="12px" preserveAspectRatio="xMinYMin meet" x="13.5" y="-340.2"/>
<text text-anchor="start" x="28.5" y="-330.3" font-family="Helvetica,sans-Serif" font-size="11.00" fill="#000000">proc_inst_id_</text>
<polygon fill="#ffffff" stroke="transparent" points="8.5,-301.2 8.5,-323.2 205.5,-323.2 205.5,-301.2 8.5,-301.2"/>
<polygon fill="none" stroke="#000000" points="8.5,-301.2 8.5,-323.2 205.5,-323.2 205.5,-301.2 8.5,-301.2"/>
<text text-anchor="start" x="28.5" y="-308.3" font-family="Helvetica,sans-Serif" font-size="11.00" fill="#000000">business_key_</text>
<polygon fill="#ffffff" stroke="transparent" points="8.5,-279.2 8.5,-301.2 205.5,-301.2 205.5,-279.2 8.5,-279.2"/>
<polygon fill="none" stroke="#000000" points="8.5,-279.2 8.5,-301.2 205.5,-301.2 205.5,-279.2 8.5,-279.2"/>
<image xlink:href="../../images/foreignKeys.png" width="11px" height="12px" preserveAspectRatio="xMinYMin meet" x="13.5" y="-296.2"/>
<text text-anchor="start" x="28.5" y="-286.3" font-family="Helvetica,sans-Serif" font-size="11.00" fill="#000000">parent_id_</text>
<polygon fill="#ffffff" stroke="transparent" points="8.5,-257.2 8.5,-279.2 205.5,-279.2 205.5,-257.2 8.5,-257.2"/>
<polygon fill="none" stroke="#000000" points="8.5,-257.2 8.5,-279.2 205.5,-279.2 205.5,-257.2 8.5,-257.2"/>
<image xlink:href="../../images/foreignKeys.png" width="11px" height="12px" preserveAspectRatio="xMinYMin meet" x="13.5" y="-274.2"/>
<text text-anchor="start" x="28.5" y="-264.3" font-family="Helvetica,sans-Serif" font-size="11.00" fill="#000000">proc_def_id_</text>
<polygon fill="#ffffff" stroke="transparent" points="8.5,-235.2 8.5,-257.2 205.5,-257.2 205.5,-235.2 8.5,-235.2"/>
<polygon fill="none" stroke="#000000" points="8.5,-235.2 8.5,-257.2 205.5,-257.2 205.5,-235.2 8.5,-235.2"/>
<image xlink:href="../../images/foreignKeys.png" width="11px" height="12px" preserveAspectRatio="xMinYMin meet" x="13.5" y="-252.2"/>
<text text-anchor="start" x="28.5" y="-242.3" font-family="Helvetica,sans-Serif" font-size="11.00" fill="#000000">super_exec_</text>
<polygon fill="#ffffff" stroke="transparent" points="8.5,-213.2 8.5,-235.2 205.5,-235.2 205.5,-213.2 8.5,-213.2"/>
<polygon fill="none" stroke="#000000" points="8.5,-213.2 8.5,-235.2 205.5,-235.2 205.5,-213.2 8.5,-213.2"/>
<text text-anchor="start" x="28.5" y="-220.3" font-family="Helvetica,sans-Serif" font-size="11.00" fill="#000000">root_proc_inst_id_</text>
<polygon fill="#ffffff" stroke="transparent" points="8.5,-191.2 8.5,-213.2 205.5,-213.2 205.5,-191.2 8.5,-191.2"/>
<polygon fill="none" stroke="#000000" points="8.5,-191.2 8.5,-213.2 205.5,-213.2 205.5,-191.2 8.5,-191.2"/>
<text text-anchor="start" x="28.5" y="-198.3" font-family="Helvetica,sans-Serif" font-size="11.00" fill="#000000">reference_id_</text>
<polygon fill="none" stroke="#000000" points="8.5,-172.2 8.5,-191.2 205.5,-191.2 205.5,-172.2 8.5,-172.2"/>
<text text-anchor="start" x="11.5" y="-178.3" font-family="Helvetica,sans-Serif" font-size="11.00" fill="#000000">...</text>
<polygon fill="#ffffff" stroke="transparent" points="8.5,-153.2 8.5,-172.2 205.5,-172.2 205.5,-153.2 8.5,-153.2"/>
<polygon fill="none" stroke="#000000" points="8.5,-153.2 8.5,-172.2 205.5,-172.2 205.5,-153.2 8.5,-153.2"/>
<polygon fill="#ffffff" stroke="transparent" points="9.5,-154.2 9.5,-171.2 75.5,-171.2 75.5,-154.2 9.5,-154.2"/>
<text text-anchor="start" x="11.5" y="-159.3" font-family="Helvetica,sans-Serif" font-size="11.00" fill="#000000">&lt; 4</text>
<polygon fill="#ffffff" stroke="transparent" points="75.5,-154.2 75.5,-171.2 132.5,-171.2 132.5,-154.2 75.5,-154.2"/>
<text text-anchor="start" x="100.9431" y="-159.3" font-family="Helvetica,sans-Serif" font-size="11.00" fill="#000000"> &#160;</text>
<polygon fill="#ffffff" stroke="transparent" points="132.5,-154.2 132.5,-171.2 204.5,-171.2 204.5,-154.2 132.5,-154.2"/>
<text text-anchor="start" x="180.7904" y="-159.3" font-family="Helvetica,sans-Serif" font-size="11.00" fill="#000000">17 &gt;</text>
<polygon fill="#000000" stroke="#000000" points="75.5,-154.2 75.5,-171.2 75.5,-171.2 75.5,-154.2 75.5,-154.2"/>
<polygon fill="#000000" stroke="#000000" points="132.5,-154.2 132.5,-171.2 132.5,-171.2 132.5,-154.2 132.5,-154.2"/>
</a>
</g>
</g>
<!-- act_ru_event_subscr&#45;&gt;act_ru_execution -->
<g id="edge1" class="edge">
<title>act_ru_event_subscr:w&#45;&gt;act_ru_execution:e</title>
<path fill="none" stroke="#000000" d="M241.4203,-356.2C229.5435,-356.2 222.158,-356.2 205.5,-356.2"/>
<polygon fill="#000000" stroke="#000000" points="248,-356.2001 256,-359.8 252,-356.2 256,-356.2 256,-356.2 256,-356.2 252,-356.2 256,-352.6 248,-356.2001 248,-356.2001"/>
<ellipse fill="none" stroke="#000000" cx="244.8" cy="-356.2001" rx="3.2" ry="3.2"/>
</g>
</g>
</svg>
