<?xml version="1.0" encoding="UTF-8" standalone="no"?>
<!DOCTYPE svg PUBLIC "-//W3C//DTD SVG 1.1//EN"
 "http://www.w3.org/Graphics/SVG/1.1/DTD/svg11.dtd">
<!-- Generated by graphviz version 2.40.1 (20161225.0304)
 -->
<!-- Title: twoDegreesRelationshipsDiagram Pages: 1 -->
<svg width="701pt" height="685pt"
 viewBox="0.00 0.00 701.00 685.20" xmlns="http://www.w3.org/2000/svg" xmlns:xlink="http://www.w3.org/1999/xlink">
<g id="graph0" class="graph" transform="scale(1 1) rotate(0) translate(4 681.2)">
<title>twoDegreesRelationshipsDiagram</title>
<polygon fill="#ffffff" stroke="transparent" points="-4,4 -4,-681.2 697,-681.2 697,4 -4,4"/>
<text text-anchor="middle" x="72.4936" y="-7.3" font-family="Helvetica,sans-Serif" font-size="11.00" fill="#000000">Generated by SchemaSpy</text>
<!-- act_ge_bytearray -->
<g id="node1" class="node">
<title>act_ge_bytearray</title>
<g id="a_node1"><a xlink:href="../../tables/act_ge_bytearray.html" xlink:title="act_ge_bytearray" target="_top">
<polygon fill="#ffffff" stroke="transparent" points="311,-363.2 311,-424.2 456,-424.2 456,-363.2 311,-363.2"/>
<polygon fill="#f5f5f5" stroke="transparent" points="311.5,-400.7 311.5,-423.7 456.5,-423.7 456.5,-400.7 311.5,-400.7"/>
<polygon fill="none" stroke="#000000" points="311.5,-400.7 311.5,-423.7 456.5,-423.7 456.5,-400.7 311.5,-400.7"/>
<text text-anchor="start" x="316.5" y="-409.3" font-family="Helvetica,sans-Serif" font-weight="bold" font-size="11.00" fill="#000000">act_ge_bytearray</text>
<text text-anchor="start" x="422.0219" y="-408.8" font-family="Helvetica,sans-Serif" font-size="11.00" fill="#000000">[table]</text>
<polygon fill="none" stroke="#000000" points="311.5,-381.7 311.5,-400.7 456.5,-400.7 456.5,-381.7 311.5,-381.7"/>
<text text-anchor="start" x="314.5" y="-387.8" font-family="Helvetica,sans-Serif" font-size="11.00" fill="#000000">...</text>
<polygon fill="#ffffff" stroke="transparent" points="311.5,-362.7 311.5,-381.7 456.5,-381.7 456.5,-362.7 311.5,-362.7"/>
<polygon fill="none" stroke="#000000" points="311.5,-362.7 311.5,-381.7 456.5,-381.7 456.5,-362.7 311.5,-362.7"/>
<polygon fill="#ffffff" stroke="transparent" points="312.5,-363.7 312.5,-380.7 361.5,-380.7 361.5,-363.7 312.5,-363.7"/>
<text text-anchor="start" x="314.5" y="-368.8" font-family="Helvetica,sans-Serif" font-size="11.00" fill="#000000">&lt; 1</text>
<polygon fill="#ffffff" stroke="transparent" points="361.5,-363.7 361.5,-380.7 401.5,-380.7 401.5,-363.7 361.5,-363.7"/>
<text text-anchor="start" x="378.4431" y="-368.8" font-family="Helvetica,sans-Serif" font-size="11.00" fill="#000000"> &#160;</text>
<polygon fill="#ffffff" stroke="transparent" points="401.5,-363.7 401.5,-380.7 455.5,-380.7 455.5,-363.7 401.5,-363.7"/>
<text text-anchor="start" x="431.7904" y="-368.8" font-family="Helvetica,sans-Serif" font-size="11.00" fill="#000000">14 &gt;</text>
<polygon fill="#000000" stroke="#000000" points="361.5,-363.7 361.5,-380.7 361.5,-380.7 361.5,-363.7 361.5,-363.7"/>
<polygon fill="#000000" stroke="#000000" points="401.5,-363.7 401.5,-380.7 401.5,-380.7 401.5,-363.7 401.5,-363.7"/>
</a>
</g>
</g>
<!-- act_re_deployment -->
<g id="node2" class="node">
<title>act_re_deployment</title>
<g id="a_node2"><a xlink:href="../../tables/act_re_deployment.html" xlink:title="act_re_deployment" target="_top">
<polygon fill="#ffffff" stroke="transparent" points="8,-190.7 8,-456.7 262,-456.7 262,-190.7 8,-190.7"/>
<polygon fill="#f5f5f5" stroke="transparent" points="10,-431.7 10,-454.7 260,-454.7 260,-431.7 10,-431.7"/>
<polygon fill="none" stroke="#000000" points="10,-431.7 10,-454.7 260,-454.7 260,-431.7 10,-431.7"/>
<text text-anchor="start" x="15" y="-440.3" font-family="Helvetica,sans-Serif" font-weight="bold" font-size="11.00" fill="#000000">act_re_deployment</text>
<text text-anchor="start" x="225.0437" y="-439.8" font-family="Helvetica,sans-Serif" font-size="11.00" fill="#000000">[table]</text>
<polygon fill="none" stroke="#000000" points="10,-409.7 10,-431.7 176,-431.7 176,-409.7 10,-409.7"/>
<image xlink:href="../../images/primaryKeys.png" width="11px" height="12px" preserveAspectRatio="xMinYMin meet" x="15" y="-426.7"/>
<text text-anchor="start" x="30" y="-416.8" font-family="Helvetica,sans-Serif" font-size="11.00" fill="#000000">id_</text>
<polygon fill="none" stroke="#000000" points="176,-409.7 176,-431.7 260,-431.7 260,-409.7 176,-409.7"/>
<text text-anchor="start" x="179" y="-417.4" font-family="Helvetica,sans-Serif" font-size="11.00" fill="#000000">varchar[64]</text>
<polygon fill="none" stroke="#000000" points="10,-387.7 10,-409.7 176,-409.7 176,-387.7 10,-387.7"/>
<text text-anchor="start" x="30" y="-394.8" font-family="Helvetica,sans-Serif" font-size="11.00" fill="#000000">name_</text>
<polygon fill="none" stroke="#000000" points="176,-387.7 176,-409.7 260,-409.7 260,-387.7 176,-387.7"/>
<text text-anchor="start" x="179" y="-395.4" font-family="Helvetica,sans-Serif" font-size="11.00" fill="#000000">varchar[255]</text>
<polygon fill="none" stroke="#000000" points="10,-365.7 10,-387.7 176,-387.7 176,-365.7 10,-365.7"/>
<text text-anchor="start" x="30" y="-372.8" font-family="Helvetica,sans-Serif" font-size="11.00" fill="#000000">category_</text>
<polygon fill="none" stroke="#000000" points="176,-365.7 176,-387.7 260,-387.7 260,-365.7 176,-365.7"/>
<text text-anchor="start" x="179" y="-373.4" font-family="Helvetica,sans-Serif" font-size="11.00" fill="#000000">varchar[255]</text>
<polygon fill="none" stroke="#000000" points="10,-343.7 10,-365.7 176,-365.7 176,-343.7 10,-343.7"/>
<text text-anchor="start" x="30" y="-350.8" font-family="Helvetica,sans-Serif" font-size="11.00" fill="#000000">key_</text>
<polygon fill="none" stroke="#000000" points="176,-343.7 176,-365.7 260,-365.7 260,-343.7 176,-343.7"/>
<text text-anchor="start" x="179" y="-351.4" font-family="Helvetica,sans-Serif" font-size="11.00" fill="#000000">varchar[255]</text>
<polygon fill="none" stroke="#000000" points="10,-321.7 10,-343.7 176,-343.7 176,-321.7 10,-321.7"/>
<text text-anchor="start" x="30" y="-328.8" font-family="Helvetica,sans-Serif" font-size="11.00" fill="#000000">tenant_id_</text>
<polygon fill="none" stroke="#000000" points="176,-321.7 176,-343.7 260,-343.7 260,-321.7 176,-321.7"/>
<text text-anchor="start" x="179" y="-329.4" font-family="Helvetica,sans-Serif" font-size="11.00" fill="#000000">varchar[255]</text>
<polygon fill="none" stroke="#000000" points="10,-299.7 10,-321.7 176,-321.7 176,-299.7 10,-299.7"/>
<text text-anchor="start" x="30" y="-306.8" font-family="Helvetica,sans-Serif" font-size="11.00" fill="#000000">deploy_time_</text>
<polygon fill="none" stroke="#000000" points="176,-299.7 176,-321.7 260,-321.7 260,-299.7 176,-299.7"/>
<text text-anchor="start" x="178.8807" y="-307.4" font-family="Helvetica,sans-Serif" font-size="11.00" fill="#000000">timestamp[29,6]</text>
<polygon fill="none" stroke="#000000" points="10,-277.7 10,-299.7 176,-299.7 176,-277.7 10,-277.7"/>
<text text-anchor="start" x="30" y="-284.8" font-family="Helvetica,sans-Serif" font-size="11.00" fill="#000000">derived_from_</text>
<polygon fill="none" stroke="#000000" points="176,-277.7 176,-299.7 260,-299.7 260,-277.7 176,-277.7"/>
<text text-anchor="start" x="179" y="-285.4" font-family="Helvetica,sans-Serif" font-size="11.00" fill="#000000">varchar[64]</text>
<polygon fill="none" stroke="#000000" points="10,-255.7 10,-277.7 176,-277.7 176,-255.7 10,-255.7"/>
<text text-anchor="start" x="30" y="-262.8" font-family="Helvetica,sans-Serif" font-size="11.00" fill="#000000">derived_from_root_</text>
<polygon fill="none" stroke="#000000" points="176,-255.7 176,-277.7 260,-277.7 260,-255.7 176,-255.7"/>
<text text-anchor="start" x="179" y="-263.4" font-family="Helvetica,sans-Serif" font-size="11.00" fill="#000000">varchar[64]</text>
<polygon fill="none" stroke="#000000" points="10,-233.7 10,-255.7 176,-255.7 176,-233.7 10,-233.7"/>
<text text-anchor="start" x="30" y="-240.8" font-family="Helvetica,sans-Serif" font-size="11.00" fill="#000000">parent_deployment_id_</text>
<polygon fill="none" stroke="#000000" points="176,-233.7 176,-255.7 260,-255.7 260,-233.7 176,-233.7"/>
<text text-anchor="start" x="179" y="-241.4" font-family="Helvetica,sans-Serif" font-size="11.00" fill="#000000">varchar[255]</text>
<polygon fill="none" stroke="#000000" points="10,-211.7 10,-233.7 176,-233.7 176,-211.7 10,-211.7"/>
<text text-anchor="start" x="30" y="-218.8" font-family="Helvetica,sans-Serif" font-size="11.00" fill="#000000">engine_version_</text>
<polygon fill="none" stroke="#000000" points="176,-211.7 176,-233.7 260,-233.7 260,-211.7 176,-211.7"/>
<text text-anchor="start" x="179" y="-219.4" font-family="Helvetica,sans-Serif" font-size="11.00" fill="#000000">varchar[255]</text>
<polygon fill="#ffffff" stroke="transparent" points="10,-192.7 10,-211.7 260,-211.7 260,-192.7 10,-192.7"/>
<polygon fill="none" stroke="#000000" points="10,-192.7 10,-211.7 260,-211.7 260,-192.7 10,-192.7"/>
<polygon fill="#ffffff" stroke="transparent" points="11,-193.7 11,-210.7 97,-210.7 97,-193.7 11,-193.7"/>
<text text-anchor="start" x="13" y="-198.8" font-family="Helvetica,sans-Serif" font-size="11.00" fill="#000000">&lt; 0</text>
<polygon fill="#ffffff" stroke="transparent" points="97,-193.7 97,-210.7 174,-210.7 174,-193.7 97,-193.7"/>
<text text-anchor="start" x="132.4431" y="-198.8" font-family="Helvetica,sans-Serif" font-size="11.00" fill="#000000"> &#160;</text>
<polygon fill="#ffffff" stroke="transparent" points="174,-193.7 174,-210.7 259,-210.7 259,-193.7 174,-193.7"/>
<text text-anchor="start" x="241.4053" y="-198.8" font-family="Helvetica,sans-Serif" font-size="11.00" fill="#000000">2 &gt;</text>
<polygon fill="#000000" stroke="#000000" points="97,-193.7 97,-210.7 97,-210.7 97,-193.7 97,-193.7"/>
<polygon fill="#000000" stroke="#000000" points="174,-193.7 174,-210.7 174,-210.7 174,-193.7 174,-193.7"/>
<polygon fill="none" stroke="#000000" stroke-width="2" points="9,-191.7 9,-455.7 261,-455.7 261,-191.7 9,-191.7"/>
</a>
</g>
</g>
<!-- act_ge_bytearray&#45;&gt;act_re_deployment -->
<g id="edge1" class="edge">
<title>act_ge_bytearray:w&#45;&gt;act_re_deployment:e</title>
<path fill="none" stroke="#000000" d="M288.3196,-418.7436C278.8115,-419.9674 269.2548,-420.7 260,-420.7"/>
<polygon fill="#000000" stroke="#000000" points="294.7596,-417.7547 303.2133,-420.0987 298.7132,-417.1476 302.6669,-416.5404 302.6669,-416.5404 302.6669,-416.5404 298.7132,-417.1476 302.1204,-412.9821 294.7596,-417.7547 294.7596,-417.7547"/>
<ellipse fill="none" stroke="#000000" cx="291.5966" cy="-418.2405" rx="3.2" ry="3.2"/>
</g>
<!-- act_procdef_info -->
<g id="node3" class="node">
<title>act_procdef_info</title>
<g id="a_node3"><a xlink:href="../../tables/act_procdef_info.html" xlink:title="act_procdef_info" target="_top">
<polygon fill="#ffffff" stroke="transparent" points="523.5,-530.2 523.5,-591.2 666.5,-591.2 666.5,-530.2 523.5,-530.2"/>
<polygon fill="#f5f5f5" stroke="transparent" points="524,-567.7 524,-590.7 667,-590.7 667,-567.7 524,-567.7"/>
<polygon fill="none" stroke="#000000" points="524,-567.7 524,-590.7 667,-590.7 667,-567.7 524,-567.7"/>
<text text-anchor="start" x="529" y="-576.3" font-family="Helvetica,sans-Serif" font-weight="bold" font-size="11.00" fill="#000000">act_procdef_info</text>
<text text-anchor="start" x="632.5219" y="-575.8" font-family="Helvetica,sans-Serif" font-size="11.00" fill="#000000">[table]</text>
<polygon fill="none" stroke="#000000" points="524,-548.7 524,-567.7 667,-567.7 667,-548.7 524,-548.7"/>
<text text-anchor="start" x="527" y="-554.8" font-family="Helvetica,sans-Serif" font-size="11.00" fill="#000000">...</text>
<polygon fill="#ffffff" stroke="transparent" points="524,-529.7 524,-548.7 667,-548.7 667,-529.7 524,-529.7"/>
<polygon fill="none" stroke="#000000" points="524,-529.7 524,-548.7 667,-548.7 667,-529.7 524,-529.7"/>
<polygon fill="#ffffff" stroke="transparent" points="525,-530.7 525,-547.7 578,-547.7 578,-530.7 525,-530.7"/>
<text text-anchor="start" x="527" y="-535.8" font-family="Helvetica,sans-Serif" font-size="11.00" fill="#000000">&lt; 2</text>
<polygon fill="#ffffff" stroke="transparent" points="578,-530.7 578,-547.7 622,-547.7 622,-530.7 578,-530.7"/>
<text text-anchor="start" x="596.9431" y="-535.8" font-family="Helvetica,sans-Serif" font-size="11.00" fill="#000000"> &#160;</text>
<polygon fill="#ffffff" stroke="transparent" points="622,-530.7 622,-547.7 666,-547.7 666,-530.7 622,-530.7"/>
<text text-anchor="start" x="657.8862" y="-535.8" font-family="Helvetica,sans-Serif" font-size="11.00" fill="#000000"> &#160;</text>
<polygon fill="#000000" stroke="#000000" points="578,-530.7 578,-547.7 578,-547.7 578,-530.7 578,-530.7"/>
<polygon fill="#000000" stroke="#000000" points="622,-530.7 622,-547.7 622,-547.7 622,-530.7 622,-530.7"/>
</a>
</g>
</g>
<!-- act_procdef_info&#45;&gt;act_ge_bytearray -->
<g id="edge2" class="edge">
<title>act_procdef_info:w&#45;&gt;act_ge_bytearray:e</title>
<path fill="none" stroke="#000000" d="M509.3933,-556.4068C450.4001,-545.8463 413.0579,-473.048 395.4529,-428.4802"/>
<polygon fill="#000000" stroke="#000000" points="516.0312,-556.9944 523.6825,-561.286 520.0156,-557.3472 524,-557.7 524,-557.7 524,-557.7 520.0156,-557.3472 524.3175,-554.114 516.0312,-556.9944 516.0312,-556.9944"/>
<ellipse fill="none" stroke="#000000" cx="512.8436" cy="-556.7122" rx="3.2" ry="3.2"/>
</g>
<!-- act_re_model -->
<g id="node4" class="node">
<title>act_re_model</title>
<g id="a_node4"><a xlink:href="../../tables/act_re_model.html" xlink:title="act_re_model" target="_top">
<polygon fill="#ffffff" stroke="transparent" points="534,-612.2 534,-673.2 656,-673.2 656,-612.2 534,-612.2"/>
<polygon fill="#f5f5f5" stroke="transparent" points="534,-649.7 534,-672.7 656,-672.7 656,-649.7 534,-649.7"/>
<polygon fill="none" stroke="#000000" points="534,-649.7 534,-672.7 656,-672.7 656,-649.7 534,-649.7"/>
<text text-anchor="start" x="539" y="-658.3" font-family="Helvetica,sans-Serif" font-weight="bold" font-size="11.00" fill="#000000">act_re_model</text>
<text text-anchor="start" x="621.5219" y="-657.8" font-family="Helvetica,sans-Serif" font-size="11.00" fill="#000000">[table]</text>
<polygon fill="none" stroke="#000000" points="534,-630.7 534,-649.7 656,-649.7 656,-630.7 534,-630.7"/>
<text text-anchor="start" x="537" y="-636.8" font-family="Helvetica,sans-Serif" font-size="11.00" fill="#000000">...</text>
<polygon fill="#ffffff" stroke="transparent" points="534,-611.7 534,-630.7 656,-630.7 656,-611.7 534,-611.7"/>
<polygon fill="none" stroke="#000000" points="534,-611.7 534,-630.7 656,-630.7 656,-611.7 534,-611.7"/>
<polygon fill="#ffffff" stroke="transparent" points="535,-612.7 535,-629.7 581,-629.7 581,-612.7 535,-612.7"/>
<text text-anchor="start" x="537" y="-617.8" font-family="Helvetica,sans-Serif" font-size="11.00" fill="#000000">&lt; 3</text>
<polygon fill="#ffffff" stroke="transparent" points="581,-612.7 581,-629.7 618,-629.7 618,-612.7 581,-612.7"/>
<text text-anchor="start" x="596.4431" y="-617.8" font-family="Helvetica,sans-Serif" font-size="11.00" fill="#000000"> &#160;</text>
<polygon fill="#ffffff" stroke="transparent" points="618,-612.7 618,-629.7 655,-629.7 655,-612.7 618,-612.7"/>
<text text-anchor="start" x="646.8862" y="-617.8" font-family="Helvetica,sans-Serif" font-size="11.00" fill="#000000"> &#160;</text>
<polygon fill="#000000" stroke="#000000" points="581,-612.7 581,-629.7 581,-629.7 581,-612.7 581,-612.7"/>
<polygon fill="#000000" stroke="#000000" points="618,-612.7 618,-629.7 618,-629.7 618,-612.7 618,-612.7"/>
</a>
</g>
</g>
<!-- act_re_model&#45;&gt;act_ge_bytearray -->
<g id="edge4" class="edge">
<title>act_re_model:w&#45;&gt;act_ge_bytearray:e</title>
<path fill="none" stroke="#000000" d="M512.9404,-607.9185C507.2274,-604.2681 501.8293,-600.2142 497,-595.7 473.0417,-573.3046 479.4254,-558.6415 464,-529.7 445.4059,-494.8134 423.1728,-455.7823 406.788,-428.4536"/>
<polygon fill="#000000" stroke="#000000" points="518.9037,-611.322 524.0672,-618.4142 522.3777,-613.3048 525.8517,-615.2876 525.8517,-615.2876 525.8517,-615.2876 522.3777,-613.3048 527.6362,-612.161 518.9037,-611.322 518.9037,-611.322"/>
<ellipse fill="none" stroke="#000000" cx="516.1245" cy="-609.7358" rx="3.2" ry="3.2"/>
</g>
<!-- act_re_model&#45;&gt;act_ge_bytearray -->
<g id="edge5" class="edge">
<title>act_re_model:w&#45;&gt;act_ge_bytearray:e</title>
<path fill="none" stroke="#000000" d="M512.9404,-620.8829C507.2274,-617.2681 501.8293,-613.2142 497,-608.7 473.0417,-586.3046 479.4254,-571.6415 464,-542.7 443.0067,-503.3119 417.3747,-458.6408 400.758,-428.466"/>
<polygon fill="#000000" stroke="#000000" points="518.8693,-624.1983 524.0946,-631.245 522.3605,-626.1506 525.8517,-628.1029 525.8517,-628.1029 525.8517,-628.1029 522.3605,-626.1506 527.6088,-624.9608 518.8693,-624.1983 518.8693,-624.1983"/>
<ellipse fill="none" stroke="#000000" cx="516.0763" cy="-622.6364" rx="3.2" ry="3.2"/>
</g>
<!-- act_re_model&#45;&gt;act_re_deployment -->
<g id="edge3" class="edge">
<title>act_re_model:w&#45;&gt;act_re_deployment:e</title>
<path fill="none" stroke="#000000" d="M512.5213,-610.0342C507.1949,-607.3624 501.977,-604.5776 497,-601.7 439.6301,-568.5292 326.2692,-420.7 260,-420.7"/>
<polygon fill="#000000" stroke="#000000" points="518.6912,-612.9823 524.3573,-619.6797 522.3003,-614.7069 525.9095,-616.4315 525.9095,-616.4315 525.9095,-616.4315 522.3003,-614.7069 527.4616,-613.1833 518.6912,-612.9823 518.6912,-612.9823"/>
<ellipse fill="none" stroke="#000000" cx="515.8039" cy="-611.6027" rx="3.2" ry="3.2"/>
</g>
<!-- act_ru_deadletter_job -->
<g id="node5" class="node">
<title>act_ru_deadletter_job</title>
<g id="a_node5"><a xlink:href="../../tables/act_ru_deadletter_job.html" xlink:title="act_ru_deadletter_job" target="_top">
<polygon fill="#ffffff" stroke="transparent" points="508,-448.2 508,-509.2 682,-509.2 682,-448.2 508,-448.2"/>
<polygon fill="#f5f5f5" stroke="transparent" points="508,-485.7 508,-508.7 682,-508.7 682,-485.7 508,-485.7"/>
<polygon fill="none" stroke="#000000" points="508,-485.7 508,-508.7 682,-508.7 682,-485.7 508,-485.7"/>
<text text-anchor="start" x="513" y="-494.3" font-family="Helvetica,sans-Serif" font-weight="bold" font-size="11.00" fill="#000000">act_ru_deadletter_job</text>
<text text-anchor="start" x="647.5219" y="-493.8" font-family="Helvetica,sans-Serif" font-size="11.00" fill="#000000">[table]</text>
<polygon fill="none" stroke="#000000" points="508,-466.7 508,-485.7 682,-485.7 682,-466.7 508,-466.7"/>
<text text-anchor="start" x="511" y="-472.8" font-family="Helvetica,sans-Serif" font-size="11.00" fill="#000000">...</text>
<polygon fill="#ffffff" stroke="transparent" points="508,-447.7 508,-466.7 682,-466.7 682,-447.7 508,-447.7"/>
<polygon fill="none" stroke="#000000" points="508,-447.7 508,-466.7 682,-466.7 682,-447.7 508,-447.7"/>
<polygon fill="#ffffff" stroke="transparent" points="509,-448.7 509,-465.7 573,-465.7 573,-448.7 509,-448.7"/>
<text text-anchor="start" x="511" y="-453.8" font-family="Helvetica,sans-Serif" font-size="11.00" fill="#000000">&lt; 5</text>
<polygon fill="#ffffff" stroke="transparent" points="573,-448.7 573,-465.7 627,-465.7 627,-448.7 573,-448.7"/>
<text text-anchor="start" x="596.9431" y="-453.8" font-family="Helvetica,sans-Serif" font-size="11.00" fill="#000000"> &#160;</text>
<polygon fill="#ffffff" stroke="transparent" points="627,-448.7 627,-465.7 681,-465.7 681,-448.7 627,-448.7"/>
<text text-anchor="start" x="672.8862" y="-453.8" font-family="Helvetica,sans-Serif" font-size="11.00" fill="#000000"> &#160;</text>
<polygon fill="#000000" stroke="#000000" points="573,-448.7 573,-465.7 573,-465.7 573,-448.7 573,-448.7"/>
<polygon fill="#000000" stroke="#000000" points="627,-448.7 627,-465.7 627,-465.7 627,-448.7 627,-448.7"/>
</a>
</g>
</g>
<!-- act_ru_deadletter_job&#45;&gt;act_ge_bytearray -->
<g id="edge6" class="edge">
<title>act_ru_deadletter_job:w&#45;&gt;act_ge_bytearray:e</title>
<path fill="none" stroke="#000000" d="M493.7327,-473.2586C465.0053,-466.0982 438.5665,-446.35 418.7866,-428.2831"/>
<polygon fill="#000000" stroke="#000000" points="500.1146,-474.3506 507.3928,-479.2484 504.0573,-475.0253 508,-475.7 508,-475.7 508,-475.7 504.0573,-475.0253 508.6072,-472.1516 500.1146,-474.3506 500.1146,-474.3506"/>
<ellipse fill="none" stroke="#000000" cx="496.9605" cy="-473.8109" rx="3.2" ry="3.2"/>
</g>
<!-- act_ru_deadletter_job&#45;&gt;act_ge_bytearray -->
<g id="edge7" class="edge">
<title>act_ru_deadletter_job:w&#45;&gt;act_ge_bytearray:e</title>
<path fill="none" stroke="#000000" d="M493.4005,-475.8549C459.7397,-473.0975 429.2482,-449.6031 408.9694,-428.3693"/>
<polygon fill="#000000" stroke="#000000" points="500.0005,-475.7849 508.0382,-479.2998 504.0002,-475.7425 508,-475.7 508,-475.7 508,-475.7 504.0002,-475.7425 507.9618,-472.1002 500.0005,-475.7849 500.0005,-475.7849"/>
<ellipse fill="none" stroke="#000000" cx="496.8006" cy="-475.8189" rx="3.2" ry="3.2"/>
</g>
<!-- act_ru_external_job -->
<g id="node6" class="node">
<title>act_ru_external_job</title>
<g id="a_node6"><a xlink:href="../../tables/act_ru_external_job.html" xlink:title="act_ru_external_job" target="_top">
<polygon fill="#ffffff" stroke="transparent" points="514.5,-366.2 514.5,-427.2 675.5,-427.2 675.5,-366.2 514.5,-366.2"/>
<polygon fill="#f5f5f5" stroke="transparent" points="515,-403.7 515,-426.7 676,-426.7 676,-403.7 515,-403.7"/>
<polygon fill="none" stroke="#000000" points="515,-403.7 515,-426.7 676,-426.7 676,-403.7 515,-403.7"/>
<text text-anchor="start" x="520" y="-412.3" font-family="Helvetica,sans-Serif" font-weight="bold" font-size="11.00" fill="#000000">act_ru_external_job</text>
<text text-anchor="start" x="641.5219" y="-411.8" font-family="Helvetica,sans-Serif" font-size="11.00" fill="#000000">[table]</text>
<polygon fill="none" stroke="#000000" points="515,-384.7 515,-403.7 676,-403.7 676,-384.7 515,-384.7"/>
<text text-anchor="start" x="518" y="-390.8" font-family="Helvetica,sans-Serif" font-size="11.00" fill="#000000">...</text>
<polygon fill="#ffffff" stroke="transparent" points="515,-365.7 515,-384.7 676,-384.7 676,-365.7 515,-365.7"/>
<polygon fill="none" stroke="#000000" points="515,-365.7 515,-384.7 676,-384.7 676,-365.7 515,-365.7"/>
<polygon fill="#ffffff" stroke="transparent" points="516,-366.7 516,-383.7 575,-383.7 575,-366.7 516,-366.7"/>
<text text-anchor="start" x="518" y="-371.8" font-family="Helvetica,sans-Serif" font-size="11.00" fill="#000000">&lt; 2</text>
<polygon fill="#ffffff" stroke="transparent" points="575,-366.7 575,-383.7 625,-383.7 625,-366.7 575,-366.7"/>
<text text-anchor="start" x="596.9431" y="-371.8" font-family="Helvetica,sans-Serif" font-size="11.00" fill="#000000"> &#160;</text>
<polygon fill="#ffffff" stroke="transparent" points="625,-366.7 625,-383.7 675,-383.7 675,-366.7 625,-366.7"/>
<text text-anchor="start" x="666.8862" y="-371.8" font-family="Helvetica,sans-Serif" font-size="11.00" fill="#000000"> &#160;</text>
<polygon fill="#000000" stroke="#000000" points="575,-366.7 575,-383.7 575,-383.7 575,-366.7 575,-366.7"/>
<polygon fill="#000000" stroke="#000000" points="625,-366.7 625,-383.7 625,-383.7 625,-366.7 625,-366.7"/>
</a>
</g>
</g>
<!-- act_ru_external_job&#45;&gt;act_ge_bytearray -->
<g id="edge8" class="edge">
<title>act_ru_external_job:w&#45;&gt;act_ge_bytearray:e</title>
<path fill="none" stroke="#000000" d="M500.503,-392.3556C488.4578,-391.351 476.1134,-390.5862 464.1706,-390.0613"/>
<polygon fill="#000000" stroke="#000000" points="507.0342,-392.9612 514.6676,-397.2846 511.0171,-393.3306 515,-393.7 515,-393.7 515,-393.7 511.0171,-393.3306 515.3324,-390.1154 507.0342,-392.9612 507.0342,-392.9612"/>
<ellipse fill="none" stroke="#000000" cx="503.8479" cy="-392.6657" rx="3.2" ry="3.2"/>
</g>
<!-- act_ru_external_job&#45;&gt;act_ge_bytearray -->
<g id="edge9" class="edge">
<title>act_ru_external_job:w&#45;&gt;act_ge_bytearray:e</title>
<path fill="none" stroke="#000000" d="M500.503,-395.2685C488.4578,-396.4406 476.1134,-397.3328 464.1706,-397.9451"/>
<polygon fill="#000000" stroke="#000000" points="507.0464,-394.5606 515.3873,-397.2791 511.0232,-394.1303 515,-393.7 515,-393.7 515,-393.7 511.0232,-394.1303 514.6127,-390.1209 507.0464,-394.5606 507.0464,-394.5606"/>
<ellipse fill="none" stroke="#000000" cx="503.865" cy="-394.9048" rx="3.2" ry="3.2"/>
</g>
<!-- act_ru_job -->
<g id="node7" class="node">
<title>act_ru_job</title>
<g id="a_node7"><a xlink:href="../../tables/act_ru_job.html" xlink:title="act_ru_job" target="_top">
<polygon fill="#ffffff" stroke="transparent" points="543,-284.2 543,-345.2 647,-345.2 647,-284.2 543,-284.2"/>
<polygon fill="#f5f5f5" stroke="transparent" points="543,-321.7 543,-344.7 647,-344.7 647,-321.7 543,-321.7"/>
<polygon fill="none" stroke="#000000" points="543,-321.7 543,-344.7 647,-344.7 647,-321.7 543,-321.7"/>
<text text-anchor="start" x="548" y="-330.3" font-family="Helvetica,sans-Serif" font-weight="bold" font-size="11.00" fill="#000000">act_ru_job</text>
<text text-anchor="start" x="612.5219" y="-329.8" font-family="Helvetica,sans-Serif" font-size="11.00" fill="#000000">[table]</text>
<polygon fill="none" stroke="#000000" points="543,-302.7 543,-321.7 647,-321.7 647,-302.7 543,-302.7"/>
<text text-anchor="start" x="546" y="-308.8" font-family="Helvetica,sans-Serif" font-size="11.00" fill="#000000">...</text>
<polygon fill="#ffffff" stroke="transparent" points="543,-283.7 543,-302.7 647,-302.7 647,-283.7 543,-283.7"/>
<polygon fill="none" stroke="#000000" points="543,-283.7 543,-302.7 647,-302.7 647,-283.7 543,-283.7"/>
<polygon fill="#ffffff" stroke="transparent" points="544,-284.7 544,-301.7 584,-301.7 584,-284.7 544,-284.7"/>
<text text-anchor="start" x="546" y="-289.8" font-family="Helvetica,sans-Serif" font-size="11.00" fill="#000000">&lt; 5</text>
<polygon fill="#ffffff" stroke="transparent" points="584,-284.7 584,-301.7 615,-301.7 615,-284.7 584,-284.7"/>
<text text-anchor="start" x="596.4431" y="-289.8" font-family="Helvetica,sans-Serif" font-size="11.00" fill="#000000"> &#160;</text>
<polygon fill="#ffffff" stroke="transparent" points="615,-284.7 615,-301.7 646,-301.7 646,-284.7 615,-284.7"/>
<text text-anchor="start" x="637.8862" y="-289.8" font-family="Helvetica,sans-Serif" font-size="11.00" fill="#000000"> &#160;</text>
<polygon fill="#000000" stroke="#000000" points="584,-284.7 584,-301.7 584,-301.7 584,-284.7 584,-284.7"/>
<polygon fill="#000000" stroke="#000000" points="615,-284.7 615,-301.7 615,-301.7 615,-284.7 615,-284.7"/>
</a>
</g>
</g>
<!-- act_ru_job&#45;&gt;act_ge_bytearray -->
<g id="edge10" class="edge">
<title>act_ru_job:w&#45;&gt;act_ge_bytearray:e</title>
<path fill="none" stroke="#000000" d="M528.4649,-311.5453C486.6064,-313.7079 446.0749,-337.5416 418.5636,-359.0382"/>
<polygon fill="#000000" stroke="#000000" points="535.0005,-311.6148 542.9617,-315.2998 539.0002,-311.6574 543,-311.7 543,-311.7 543,-311.7 539.0002,-311.6574 543.0383,-308.1002 535.0005,-311.6148 535.0005,-311.6148"/>
<ellipse fill="none" stroke="#000000" cx="531.8006" cy="-311.5808" rx="3.2" ry="3.2"/>
</g>
<!-- act_ru_job&#45;&gt;act_ge_bytearray -->
<g id="edge11" class="edge">
<title>act_ru_job:w&#45;&gt;act_ge_bytearray:e</title>
<path fill="none" stroke="#000000" d="M528.7312,-313.7225C492.9841,-320.6419 458.1864,-340.7665 431.6182,-359.149"/>
<polygon fill="#000000" stroke="#000000" points="535.0792,-312.8228 543.5052,-315.2644 539.0396,-312.2614 543,-311.7 543,-311.7 543,-311.7 539.0396,-312.2614 542.4948,-308.1356 535.0792,-312.8228 535.0792,-312.8228"/>
<ellipse fill="none" stroke="#000000" cx="531.9108" cy="-313.2719" rx="3.2" ry="3.2"/>
</g>
<!-- act_ru_suspended_job -->
<g id="node8" class="node">
<title>act_ru_suspended_job</title>
<g id="a_node8"><a xlink:href="../../tables/act_ru_suspended_job.html" xlink:title="act_ru_suspended_job" target="_top">
<polygon fill="#ffffff" stroke="transparent" points="505,-202.2 505,-263.2 685,-263.2 685,-202.2 505,-202.2"/>
<polygon fill="#f5f5f5" stroke="transparent" points="505,-239.7 505,-262.7 685,-262.7 685,-239.7 505,-239.7"/>
<polygon fill="none" stroke="#000000" points="505,-239.7 505,-262.7 685,-262.7 685,-239.7 505,-239.7"/>
<text text-anchor="start" x="510" y="-248.3" font-family="Helvetica,sans-Serif" font-weight="bold" font-size="11.00" fill="#000000">act_ru_suspended_job</text>
<text text-anchor="start" x="650.5219" y="-247.8" font-family="Helvetica,sans-Serif" font-size="11.00" fill="#000000">[table]</text>
<polygon fill="none" stroke="#000000" points="505,-220.7 505,-239.7 685,-239.7 685,-220.7 505,-220.7"/>
<text text-anchor="start" x="508" y="-226.8" font-family="Helvetica,sans-Serif" font-size="11.00" fill="#000000">...</text>
<polygon fill="#ffffff" stroke="transparent" points="505,-201.7 505,-220.7 685,-220.7 685,-201.7 505,-201.7"/>
<polygon fill="none" stroke="#000000" points="505,-201.7 505,-220.7 685,-220.7 685,-201.7 505,-201.7"/>
<polygon fill="#ffffff" stroke="transparent" points="506,-202.7 506,-219.7 572,-219.7 572,-202.7 506,-202.7"/>
<text text-anchor="start" x="508" y="-207.8" font-family="Helvetica,sans-Serif" font-size="11.00" fill="#000000">&lt; 5</text>
<polygon fill="#ffffff" stroke="transparent" points="572,-202.7 572,-219.7 628,-219.7 628,-202.7 572,-202.7"/>
<text text-anchor="start" x="596.9431" y="-207.8" font-family="Helvetica,sans-Serif" font-size="11.00" fill="#000000"> &#160;</text>
<polygon fill="#ffffff" stroke="transparent" points="628,-202.7 628,-219.7 684,-219.7 684,-202.7 628,-202.7"/>
<text text-anchor="start" x="675.8862" y="-207.8" font-family="Helvetica,sans-Serif" font-size="11.00" fill="#000000"> &#160;</text>
<polygon fill="#000000" stroke="#000000" points="572,-202.7 572,-219.7 572,-219.7 572,-202.7 572,-202.7"/>
<polygon fill="#000000" stroke="#000000" points="628,-202.7 628,-219.7 628,-219.7 628,-202.7 628,-202.7"/>
</a>
</g>
</g>
<!-- act_ru_suspended_job&#45;&gt;act_ge_bytearray -->
<g id="edge12" class="edge">
<title>act_ru_suspended_job:w&#45;&gt;act_ge_bytearray:e</title>
<path fill="none" stroke="#000000" d="M490.5973,-230.1946C434.5225,-237.9689 404.3033,-313.1217 391.3397,-358.8436"/>
<polygon fill="#000000" stroke="#000000" points="497.0047,-229.9746 505.1236,-233.2979 501.0024,-229.8373 505,-229.7 505,-229.7 505,-229.7 501.0024,-229.8373 504.8764,-226.1021 497.0047,-229.9746 497.0047,-229.9746"/>
<ellipse fill="none" stroke="#000000" cx="493.8066" cy="-230.0844" rx="3.2" ry="3.2"/>
</g>
<!-- act_ru_suspended_job&#45;&gt;act_ge_bytearray -->
<g id="edge13" class="edge">
<title>act_ru_suspended_job:w&#45;&gt;act_ge_bytearray:e</title>
<path fill="none" stroke="#000000" d="M490.6764,-232.1963C437.8422,-246.7203 407.9452,-315.9369 393.8013,-358.9751"/>
<polygon fill="#000000" stroke="#000000" points="497.1188,-231.0735 505.6181,-233.2465 501.0594,-230.3868 505,-229.7 505,-229.7 505,-229.7 501.0594,-230.3868 504.3819,-226.1535 497.1188,-231.0735 497.1188,-231.0735"/>
<ellipse fill="none" stroke="#000000" cx="493.9663" cy="-231.623" rx="3.2" ry="3.2"/>
</g>
<!-- act_ru_timer_job -->
<g id="node9" class="node">
<title>act_ru_timer_job</title>
<g id="a_node9"><a xlink:href="../../tables/act_ru_timer_job.html" xlink:title="act_ru_timer_job" target="_top">
<polygon fill="#ffffff" stroke="transparent" points="523.5,-120.2 523.5,-181.2 666.5,-181.2 666.5,-120.2 523.5,-120.2"/>
<polygon fill="#f5f5f5" stroke="transparent" points="524,-157.7 524,-180.7 667,-180.7 667,-157.7 524,-157.7"/>
<polygon fill="none" stroke="#000000" points="524,-157.7 524,-180.7 667,-180.7 667,-157.7 524,-157.7"/>
<text text-anchor="start" x="529" y="-166.3" font-family="Helvetica,sans-Serif" font-weight="bold" font-size="11.00" fill="#000000">act_ru_timer_job</text>
<text text-anchor="start" x="632.5219" y="-165.8" font-family="Helvetica,sans-Serif" font-size="11.00" fill="#000000">[table]</text>
<polygon fill="none" stroke="#000000" points="524,-138.7 524,-157.7 667,-157.7 667,-138.7 524,-138.7"/>
<text text-anchor="start" x="527" y="-144.8" font-family="Helvetica,sans-Serif" font-size="11.00" fill="#000000">...</text>
<polygon fill="#ffffff" stroke="transparent" points="524,-119.7 524,-138.7 667,-138.7 667,-119.7 524,-119.7"/>
<polygon fill="none" stroke="#000000" points="524,-119.7 524,-138.7 667,-138.7 667,-119.7 524,-119.7"/>
<polygon fill="#ffffff" stroke="transparent" points="525,-120.7 525,-137.7 578,-137.7 578,-120.7 525,-120.7"/>
<text text-anchor="start" x="527" y="-125.8" font-family="Helvetica,sans-Serif" font-size="11.00" fill="#000000">&lt; 5</text>
<polygon fill="#ffffff" stroke="transparent" points="578,-120.7 578,-137.7 622,-137.7 622,-120.7 578,-120.7"/>
<text text-anchor="start" x="596.9431" y="-125.8" font-family="Helvetica,sans-Serif" font-size="11.00" fill="#000000"> &#160;</text>
<polygon fill="#ffffff" stroke="transparent" points="622,-120.7 622,-137.7 666,-137.7 666,-120.7 622,-120.7"/>
<text text-anchor="start" x="657.8862" y="-125.8" font-family="Helvetica,sans-Serif" font-size="11.00" fill="#000000"> &#160;</text>
<polygon fill="#000000" stroke="#000000" points="578,-120.7 578,-137.7 578,-137.7 578,-120.7 578,-120.7"/>
<polygon fill="#000000" stroke="#000000" points="622,-120.7 622,-137.7 622,-137.7 622,-120.7 622,-120.7"/>
</a>
</g>
</g>
<!-- act_ru_timer_job&#45;&gt;act_ge_bytearray -->
<g id="edge14" class="edge">
<title>act_ru_timer_job:w&#45;&gt;act_ge_bytearray:e</title>
<path fill="none" stroke="#000000" d="M509.3547,-148.1655C423.1336,-158.0729 395.1366,-293.8414 386.771,-359.1689"/>
<polygon fill="#000000" stroke="#000000" points="516.004,-147.9542 524.1144,-151.2982 520.002,-147.8271 524,-147.7 524,-147.7 524,-147.7 520.002,-147.8271 523.8856,-144.1018 516.004,-147.9542 516.004,-147.9542"/>
<ellipse fill="none" stroke="#000000" cx="512.8057" cy="-148.0559" rx="3.2" ry="3.2"/>
</g>
<!-- act_ru_timer_job&#45;&gt;act_ge_bytearray -->
<g id="edge15" class="edge">
<title>act_ru_timer_job:w&#45;&gt;act_ge_bytearray:e</title>
<path fill="none" stroke="#000000" d="M509.5951,-149.6178C426.3921,-167.4361 397.3059,-295.7895 387.7864,-358.9396"/>
<polygon fill="#000000" stroke="#000000" points="516.07,-148.7558 524.4751,-151.2685 520.035,-148.2279 524,-147.7 524,-147.7 524,-147.7 520.035,-148.2279 523.5249,-144.1315 516.07,-148.7558 516.07,-148.7558"/>
<ellipse fill="none" stroke="#000000" cx="512.898" cy="-149.1782" rx="3.2" ry="3.2"/>
</g>
<!-- act_ru_variable -->
<g id="node10" class="node">
<title>act_ru_variable</title>
<g id="a_node10"><a xlink:href="../../tables/act_ru_variable.html" xlink:title="act_ru_variable" target="_top">
<polygon fill="#ffffff" stroke="transparent" points="528,-38.2 528,-99.2 662,-99.2 662,-38.2 528,-38.2"/>
<polygon fill="#f5f5f5" stroke="transparent" points="528,-75.7 528,-98.7 662,-98.7 662,-75.7 528,-75.7"/>
<polygon fill="none" stroke="#000000" points="528,-75.7 528,-98.7 662,-98.7 662,-75.7 528,-75.7"/>
<text text-anchor="start" x="533" y="-84.3" font-family="Helvetica,sans-Serif" font-weight="bold" font-size="11.00" fill="#000000">act_ru_variable</text>
<text text-anchor="start" x="627.5219" y="-83.8" font-family="Helvetica,sans-Serif" font-size="11.00" fill="#000000">[table]</text>
<polygon fill="none" stroke="#000000" points="528,-56.7 528,-75.7 662,-75.7 662,-56.7 528,-56.7"/>
<text text-anchor="start" x="531" y="-62.8" font-family="Helvetica,sans-Serif" font-size="11.00" fill="#000000">...</text>
<polygon fill="#ffffff" stroke="transparent" points="528,-37.7 528,-56.7 662,-56.7 662,-37.7 528,-37.7"/>
<polygon fill="none" stroke="#000000" points="528,-37.7 528,-56.7 662,-56.7 662,-37.7 528,-37.7"/>
<polygon fill="#ffffff" stroke="transparent" points="529,-38.7 529,-55.7 579,-55.7 579,-38.7 529,-38.7"/>
<text text-anchor="start" x="531" y="-43.8" font-family="Helvetica,sans-Serif" font-size="11.00" fill="#000000">&lt; 3</text>
<polygon fill="#ffffff" stroke="transparent" points="579,-38.7 579,-55.7 620,-55.7 620,-38.7 579,-38.7"/>
<text text-anchor="start" x="596.4431" y="-43.8" font-family="Helvetica,sans-Serif" font-size="11.00" fill="#000000"> &#160;</text>
<polygon fill="#ffffff" stroke="transparent" points="620,-38.7 620,-55.7 661,-55.7 661,-38.7 620,-38.7"/>
<text text-anchor="start" x="652.8862" y="-43.8" font-family="Helvetica,sans-Serif" font-size="11.00" fill="#000000"> &#160;</text>
<polygon fill="#000000" stroke="#000000" points="579,-38.7 579,-55.7 579,-55.7 579,-38.7 579,-38.7"/>
<polygon fill="#000000" stroke="#000000" points="620,-38.7 620,-55.7 620,-55.7 620,-38.7 620,-38.7"/>
</a>
</g>
</g>
<!-- act_ru_variable&#45;&gt;act_ge_bytearray -->
<g id="edge16" class="edge">
<title>act_ru_variable:w&#45;&gt;act_ge_bytearray:e</title>
<path fill="none" stroke="#000000" d="M513.6535,-69.1871C456.4082,-96.7868 408.8547,-280.924 391.0368,-358.9088"/>
<polygon fill="#000000" stroke="#000000" points="520.2263,-67.5895 528.8503,-69.1981 524.1132,-66.6448 528,-65.7 528,-65.7 528,-65.7 524.1132,-66.6448 527.1497,-62.2019 520.2263,-67.5895 520.2263,-67.5895"/>
<ellipse fill="none" stroke="#000000" cx="517.1169" cy="-68.3454" rx="3.2" ry="3.2"/>
</g>
</g>
</svg>
