<?xml version="1.0" encoding="UTF-8" standalone="no"?>
<!DOCTYPE svg PUBLIC "-//W3C//DTD SVG 1.1//EN"
 "http://www.w3.org/Graphics/SVG/1.1/DTD/svg11.dtd">
<!-- Generated by graphviz version 2.40.1 (20161225.0304)
 -->
<!-- Title: oneDegreeRelationshipsDiagram Pages: 1 -->
<svg width="296pt" height="492pt"
 viewBox="0.00 0.00 296.00 492.20" xmlns="http://www.w3.org/2000/svg" xmlns:xlink="http://www.w3.org/1999/xlink">
<g id="graph0" class="graph" transform="scale(1 1) rotate(0) translate(4 488.2)">
<title>oneDegreeRelationshipsDiagram</title>
<polygon fill="#ffffff" stroke="transparent" points="-4,4 -4,-488.2 292,-488.2 292,4 -4,4"/>
<text text-anchor="middle" x="72.4936" y="-7.3" font-family="Helvetica,sans-Serif" font-size="11.00" fill="#000000">Generated by SchemaSpy</text>
<!-- act_cmmn_hi_case_inst -->
<g id="node1" class="node">
<title>act_cmmn_hi_case_inst</title>
<g id="a_node1"><a xlink:href="../../tables/act_cmmn_hi_case_inst.html" xlink:title="act_cmmn_hi_case_inst" target="_top">
<polygon fill="#ffffff" stroke="transparent" points="8,-38.2 8,-480.2 280,-480.2 280,-38.2 8,-38.2"/>
<polygon fill="#f5f5f5" stroke="transparent" points="10,-455.2 10,-478.2 278,-478.2 278,-455.2 10,-455.2"/>
<polygon fill="none" stroke="#000000" points="10,-455.2 10,-478.2 278,-478.2 278,-455.2 10,-455.2"/>
<text text-anchor="start" x="15" y="-463.8" font-family="Helvetica,sans-Serif" font-weight="bold" font-size="11.00" fill="#000000">act_cmmn_hi_case_inst</text>
<text text-anchor="start" x="243.0437" y="-463.3" font-family="Helvetica,sans-Serif" font-size="11.00" fill="#000000">[table]</text>
<polygon fill="none" stroke="#000000" points="10,-433.2 10,-455.2 194,-455.2 194,-433.2 10,-433.2"/>
<image xlink:href="../../images/primaryKeys.png" width="11px" height="12px" preserveAspectRatio="xMinYMin meet" x="15" y="-450.2"/>
<text text-anchor="start" x="30" y="-440.3" font-family="Helvetica,sans-Serif" font-size="11.00" fill="#000000">id_</text>
<polygon fill="none" stroke="#000000" points="194,-433.2 194,-455.2 278,-455.2 278,-433.2 194,-433.2"/>
<text text-anchor="start" x="197" y="-440.9" font-family="Helvetica,sans-Serif" font-size="11.00" fill="#000000">varchar[255]</text>
<polygon fill="none" stroke="#000000" points="10,-411.2 10,-433.2 194,-433.2 194,-411.2 10,-411.2"/>
<text text-anchor="start" x="30" y="-418.3" font-family="Helvetica,sans-Serif" font-size="11.00" fill="#000000">rev_</text>
<polygon fill="none" stroke="#000000" points="194,-411.2 194,-433.2 278,-433.2 278,-411.2 194,-411.2"/>
<text text-anchor="start" x="197" y="-418.9" font-family="Helvetica,sans-Serif" font-size="11.00" fill="#000000">int4[10]</text>
<polygon fill="none" stroke="#000000" points="10,-389.2 10,-411.2 194,-411.2 194,-389.2 10,-389.2"/>
<text text-anchor="start" x="30" y="-396.3" font-family="Helvetica,sans-Serif" font-size="11.00" fill="#000000">business_key_</text>
<polygon fill="none" stroke="#000000" points="194,-389.2 194,-411.2 278,-411.2 278,-389.2 194,-389.2"/>
<text text-anchor="start" x="197" y="-396.9" font-family="Helvetica,sans-Serif" font-size="11.00" fill="#000000">varchar[255]</text>
<polygon fill="none" stroke="#000000" points="10,-367.2 10,-389.2 194,-389.2 194,-367.2 10,-367.2"/>
<text text-anchor="start" x="30" y="-374.3" font-family="Helvetica,sans-Serif" font-size="11.00" fill="#000000">name_</text>
<polygon fill="none" stroke="#000000" points="194,-367.2 194,-389.2 278,-389.2 278,-367.2 194,-367.2"/>
<text text-anchor="start" x="197" y="-374.9" font-family="Helvetica,sans-Serif" font-size="11.00" fill="#000000">varchar[255]</text>
<polygon fill="none" stroke="#000000" points="10,-345.2 10,-367.2 194,-367.2 194,-345.2 10,-345.2"/>
<text text-anchor="start" x="30" y="-352.3" font-family="Helvetica,sans-Serif" font-size="11.00" fill="#000000">parent_id_</text>
<polygon fill="none" stroke="#000000" points="194,-345.2 194,-367.2 278,-367.2 278,-345.2 194,-345.2"/>
<text text-anchor="start" x="197" y="-352.9" font-family="Helvetica,sans-Serif" font-size="11.00" fill="#000000">varchar[255]</text>
<polygon fill="none" stroke="#000000" points="10,-323.2 10,-345.2 194,-345.2 194,-323.2 10,-323.2"/>
<text text-anchor="start" x="30" y="-330.3" font-family="Helvetica,sans-Serif" font-size="11.00" fill="#000000">case_def_id_</text>
<polygon fill="none" stroke="#000000" points="194,-323.2 194,-345.2 278,-345.2 278,-323.2 194,-323.2"/>
<text text-anchor="start" x="197" y="-330.9" font-family="Helvetica,sans-Serif" font-size="11.00" fill="#000000">varchar[255]</text>
<polygon fill="none" stroke="#000000" points="10,-301.2 10,-323.2 194,-323.2 194,-301.2 10,-301.2"/>
<text text-anchor="start" x="30" y="-308.3" font-family="Helvetica,sans-Serif" font-size="11.00" fill="#000000">state_</text>
<polygon fill="none" stroke="#000000" points="194,-301.2 194,-323.2 278,-323.2 278,-301.2 194,-301.2"/>
<text text-anchor="start" x="197" y="-308.9" font-family="Helvetica,sans-Serif" font-size="11.00" fill="#000000">varchar[255]</text>
<polygon fill="none" stroke="#000000" points="10,-279.2 10,-301.2 194,-301.2 194,-279.2 10,-279.2"/>
<text text-anchor="start" x="30" y="-286.3" font-family="Helvetica,sans-Serif" font-size="11.00" fill="#000000">start_time_</text>
<polygon fill="none" stroke="#000000" points="194,-279.2 194,-301.2 278,-301.2 278,-279.2 194,-279.2"/>
<text text-anchor="start" x="196.8807" y="-286.9" font-family="Helvetica,sans-Serif" font-size="11.00" fill="#000000">timestamp[29,6]</text>
<polygon fill="#ffffff" stroke="transparent" points="10,-257.2 10,-279.2 194,-279.2 194,-257.2 10,-257.2"/>
<polygon fill="none" stroke="#000000" points="10,-257.2 10,-279.2 194,-279.2 194,-257.2 10,-257.2"/>
<text text-anchor="start" x="30" y="-264.3" font-family="Helvetica,sans-Serif" font-size="11.00" fill="#000000">end_time_</text>
<polygon fill="none" stroke="#000000" points="194,-257.2 194,-279.2 278,-279.2 278,-257.2 194,-257.2"/>
<text text-anchor="start" x="196.8807" y="-264.9" font-family="Helvetica,sans-Serif" font-size="11.00" fill="#000000">timestamp[29,6]</text>
<polygon fill="none" stroke="#000000" points="10,-235.2 10,-257.2 194,-257.2 194,-235.2 10,-235.2"/>
<text text-anchor="start" x="30" y="-242.3" font-family="Helvetica,sans-Serif" font-size="11.00" fill="#000000">start_user_id_</text>
<polygon fill="none" stroke="#000000" points="194,-235.2 194,-257.2 278,-257.2 278,-235.2 194,-235.2"/>
<text text-anchor="start" x="197" y="-242.9" font-family="Helvetica,sans-Serif" font-size="11.00" fill="#000000">varchar[255]</text>
<polygon fill="none" stroke="#000000" points="10,-213.2 10,-235.2 194,-235.2 194,-213.2 10,-213.2"/>
<text text-anchor="start" x="30" y="-220.3" font-family="Helvetica,sans-Serif" font-size="11.00" fill="#000000">callback_id_</text>
<polygon fill="none" stroke="#000000" points="194,-213.2 194,-235.2 278,-235.2 278,-213.2 194,-213.2"/>
<text text-anchor="start" x="197" y="-220.9" font-family="Helvetica,sans-Serif" font-size="11.00" fill="#000000">varchar[255]</text>
<polygon fill="none" stroke="#000000" points="10,-191.2 10,-213.2 194,-213.2 194,-191.2 10,-191.2"/>
<text text-anchor="start" x="30" y="-198.3" font-family="Helvetica,sans-Serif" font-size="11.00" fill="#000000">callback_type_</text>
<polygon fill="none" stroke="#000000" points="194,-191.2 194,-213.2 278,-213.2 278,-191.2 194,-191.2"/>
<text text-anchor="start" x="197" y="-198.9" font-family="Helvetica,sans-Serif" font-size="11.00" fill="#000000">varchar[255]</text>
<polygon fill="none" stroke="#000000" points="10,-169.2 10,-191.2 194,-191.2 194,-169.2 10,-169.2"/>
<text text-anchor="start" x="30" y="-176.3" font-family="Helvetica,sans-Serif" font-size="11.00" fill="#000000">reference_id_</text>
<polygon fill="none" stroke="#000000" points="194,-169.2 194,-191.2 278,-191.2 278,-169.2 194,-169.2"/>
<text text-anchor="start" x="197" y="-176.9" font-family="Helvetica,sans-Serif" font-size="11.00" fill="#000000">varchar[255]</text>
<polygon fill="none" stroke="#000000" points="10,-147.2 10,-169.2 194,-169.2 194,-147.2 10,-147.2"/>
<text text-anchor="start" x="30" y="-154.3" font-family="Helvetica,sans-Serif" font-size="11.00" fill="#000000">reference_type_</text>
<polygon fill="none" stroke="#000000" points="194,-147.2 194,-169.2 278,-169.2 278,-147.2 194,-147.2"/>
<text text-anchor="start" x="197" y="-154.9" font-family="Helvetica,sans-Serif" font-size="11.00" fill="#000000">varchar[255]</text>
<polygon fill="none" stroke="#000000" points="10,-125.2 10,-147.2 194,-147.2 194,-125.2 10,-125.2"/>
<text text-anchor="start" x="30" y="-132.3" font-family="Helvetica,sans-Serif" font-size="11.00" fill="#000000">last_reactivation_time_</text>
<polygon fill="none" stroke="#000000" points="194,-125.2 194,-147.2 278,-147.2 278,-125.2 194,-125.2"/>
<text text-anchor="start" x="196.8807" y="-132.9" font-family="Helvetica,sans-Serif" font-size="11.00" fill="#000000">timestamp[26,3]</text>
<polygon fill="none" stroke="#000000" points="10,-103.2 10,-125.2 194,-125.2 194,-103.2 10,-103.2"/>
<text text-anchor="start" x="30" y="-110.3" font-family="Helvetica,sans-Serif" font-size="11.00" fill="#000000">last_reactivation_user_id_</text>
<polygon fill="none" stroke="#000000" points="194,-103.2 194,-125.2 278,-125.2 278,-103.2 194,-103.2"/>
<text text-anchor="start" x="197" y="-110.9" font-family="Helvetica,sans-Serif" font-size="11.00" fill="#000000">varchar[255]</text>
<polygon fill="none" stroke="#000000" points="10,-81.2 10,-103.2 194,-103.2 194,-81.2 10,-81.2"/>
<text text-anchor="start" x="30" y="-88.3" font-family="Helvetica,sans-Serif" font-size="11.00" fill="#000000">business_status_</text>
<polygon fill="none" stroke="#000000" points="194,-81.2 194,-103.2 278,-103.2 278,-81.2 194,-81.2"/>
<text text-anchor="start" x="197" y="-88.9" font-family="Helvetica,sans-Serif" font-size="11.00" fill="#000000">varchar[255]</text>
<polygon fill="none" stroke="#000000" points="10,-59.2 10,-81.2 194,-81.2 194,-59.2 10,-59.2"/>
<text text-anchor="start" x="30" y="-66.3" font-family="Helvetica,sans-Serif" font-size="11.00" fill="#000000">tenant_id_</text>
<polygon fill="none" stroke="#000000" points="194,-59.2 194,-81.2 278,-81.2 278,-59.2 194,-59.2"/>
<text text-anchor="start" x="197" y="-66.9" font-family="Helvetica,sans-Serif" font-size="11.00" fill="#000000">varchar[255]</text>
<polygon fill="#ffffff" stroke="transparent" points="10,-40.2 10,-59.2 278,-59.2 278,-40.2 10,-40.2"/>
<polygon fill="none" stroke="#000000" points="10,-40.2 10,-59.2 278,-59.2 278,-40.2 10,-40.2"/>
<polygon fill="#ffffff" stroke="transparent" points="11,-41.2 11,-58.2 103,-58.2 103,-41.2 11,-41.2"/>
<text text-anchor="start" x="13" y="-46.3" font-family="Helvetica,sans-Serif" font-size="11.00" fill="#000000">&lt; 0</text>
<polygon fill="#ffffff" stroke="transparent" points="103,-41.2 103,-58.2 186,-58.2 186,-41.2 103,-41.2"/>
<text text-anchor="start" x="141.4431" y="-46.3" font-family="Helvetica,sans-Serif" font-size="11.00" fill="#000000"> &#160;</text>
<polygon fill="#ffffff" stroke="transparent" points="186,-41.2 186,-58.2 277,-58.2 277,-41.2 186,-41.2"/>
<text text-anchor="start" x="259.4053" y="-46.3" font-family="Helvetica,sans-Serif" font-size="11.00" fill="#000000">0 &gt;</text>
<polygon fill="#000000" stroke="#000000" points="103,-41.2 103,-58.2 103,-58.2 103,-41.2 103,-41.2"/>
<polygon fill="#000000" stroke="#000000" points="186,-41.2 186,-58.2 186,-58.2 186,-41.2 186,-41.2"/>
<polygon fill="none" stroke="#000000" stroke-width="2" points="9,-39.2 9,-479.2 279,-479.2 279,-39.2 9,-39.2"/>
</a>
</g>
</g>
</g>
</svg>
