<?xml version="1.0" encoding="UTF-8" standalone="no"?>
<!DOCTYPE svg PUBLIC "-//W3C//DTD SVG 1.1//EN"
 "http://www.w3.org/Graphics/SVG/1.1/DTD/svg11.dtd">
<!-- Generated by graphviz version 2.40.1 (20161225.0304)
 -->
<!-- Title: oneDegreeRelationshipsDiagram Pages: 1 -->
<svg width="572pt" height="389pt"
 viewBox="0.00 0.00 572.00 388.70" xmlns="http://www.w3.org/2000/svg" xmlns:xlink="http://www.w3.org/1999/xlink">
<g id="graph0" class="graph" transform="scale(1 1) rotate(0) translate(4 384.7)">
<title>oneDegreeRelationshipsDiagram</title>
<polygon fill="#ffffff" stroke="transparent" points="-4,4 -4,-384.7 568,-384.7 568,4 -4,4"/>
<text text-anchor="middle" x="72.4936" y="-7.3" font-family="Helvetica,sans-Serif" font-size="11.00" fill="#000000">Generated by SchemaSpy</text>
<!-- act_cmmn_casedef -->
<g id="node1" class="node">
<title>act_cmmn_casedef</title>
<g id="a_node1"><a xlink:href="../../tables/act_cmmn_casedef.html" xlink:title="act_cmmn_casedef" target="_top">
<polygon fill="#ffffff" stroke="transparent" points="346.5,-205.7 346.5,-376.7 520.5,-376.7 520.5,-205.7 346.5,-205.7"/>
<polygon fill="#f5f5f5" stroke="transparent" points="346.5,-353.2 346.5,-376.2 520.5,-376.2 520.5,-353.2 346.5,-353.2"/>
<polygon fill="none" stroke="#000000" points="346.5,-353.2 346.5,-376.2 520.5,-376.2 520.5,-353.2 346.5,-353.2"/>
<text text-anchor="start" x="351.5" y="-361.8" font-family="Helvetica,sans-Serif" font-weight="bold" font-size="11.00" fill="#000000">act_cmmn_casedef</text>
<text text-anchor="start" x="485.5437" y="-361.3" font-family="Helvetica,sans-Serif" font-size="11.00" fill="#000000">[table]</text>
<polygon fill="none" stroke="#000000" points="346.5,-331.2 346.5,-353.2 520.5,-353.2 520.5,-331.2 346.5,-331.2"/>
<image xlink:href="../../images/primaryKeys.png" width="11px" height="12px" preserveAspectRatio="xMinYMin meet" x="351.5" y="-348.2"/>
<text text-anchor="start" x="366.5" y="-338.3" font-family="Helvetica,sans-Serif" font-size="11.00" fill="#000000">id_</text>
<polygon fill="#ffffff" stroke="transparent" points="346.5,-309.2 346.5,-331.2 520.5,-331.2 520.5,-309.2 346.5,-309.2"/>
<polygon fill="none" stroke="#000000" points="346.5,-309.2 346.5,-331.2 520.5,-331.2 520.5,-309.2 346.5,-309.2"/>
<text text-anchor="start" x="366.5" y="-316.3" font-family="Helvetica,sans-Serif" font-size="11.00" fill="#000000">key_</text>
<polygon fill="#ffffff" stroke="transparent" points="346.5,-287.2 346.5,-309.2 520.5,-309.2 520.5,-287.2 346.5,-287.2"/>
<polygon fill="none" stroke="#000000" points="346.5,-287.2 346.5,-309.2 520.5,-309.2 520.5,-287.2 346.5,-287.2"/>
<text text-anchor="start" x="366.5" y="-294.3" font-family="Helvetica,sans-Serif" font-size="11.00" fill="#000000">version_</text>
<polygon fill="#ffffff" stroke="transparent" points="346.5,-265.2 346.5,-287.2 520.5,-287.2 520.5,-265.2 346.5,-265.2"/>
<polygon fill="none" stroke="#000000" points="346.5,-265.2 346.5,-287.2 520.5,-287.2 520.5,-265.2 346.5,-265.2"/>
<image xlink:href="../../images/foreignKeys.png" width="11px" height="12px" preserveAspectRatio="xMinYMin meet" x="351.5" y="-282.2"/>
<text text-anchor="start" x="366.5" y="-272.3" font-family="Helvetica,sans-Serif" font-size="11.00" fill="#000000">deployment_id_</text>
<polygon fill="#ffffff" stroke="transparent" points="346.5,-243.2 346.5,-265.2 520.5,-265.2 520.5,-243.2 346.5,-243.2"/>
<polygon fill="none" stroke="#000000" points="346.5,-243.2 346.5,-265.2 520.5,-265.2 520.5,-243.2 346.5,-243.2"/>
<text text-anchor="start" x="366.5" y="-250.3" font-family="Helvetica,sans-Serif" font-size="11.00" fill="#000000">tenant_id_</text>
<polygon fill="none" stroke="#000000" points="346.5,-224.2 346.5,-243.2 520.5,-243.2 520.5,-224.2 346.5,-224.2"/>
<text text-anchor="start" x="349.5" y="-230.3" font-family="Helvetica,sans-Serif" font-size="11.00" fill="#000000">...</text>
<polygon fill="#ffffff" stroke="transparent" points="346.5,-205.2 346.5,-224.2 520.5,-224.2 520.5,-205.2 346.5,-205.2"/>
<polygon fill="none" stroke="#000000" points="346.5,-205.2 346.5,-224.2 520.5,-224.2 520.5,-205.2 346.5,-205.2"/>
<polygon fill="#ffffff" stroke="transparent" points="347.5,-206.2 347.5,-223.2 408.5,-223.2 408.5,-206.2 347.5,-206.2"/>
<text text-anchor="start" x="349.5" y="-211.3" font-family="Helvetica,sans-Serif" font-size="11.00" fill="#000000">&lt; 1</text>
<polygon fill="#ffffff" stroke="transparent" points="408.5,-206.2 408.5,-223.2 459.5,-223.2 459.5,-206.2 408.5,-206.2"/>
<text text-anchor="start" x="430.9431" y="-211.3" font-family="Helvetica,sans-Serif" font-size="11.00" fill="#000000"> &#160;</text>
<polygon fill="#ffffff" stroke="transparent" points="459.5,-206.2 459.5,-223.2 519.5,-223.2 519.5,-206.2 459.5,-206.2"/>
<text text-anchor="start" x="501.9053" y="-211.3" font-family="Helvetica,sans-Serif" font-size="11.00" fill="#000000">4 &gt;</text>
<polygon fill="#000000" stroke="#000000" points="408.5,-206.2 408.5,-223.2 408.5,-223.2 408.5,-206.2 408.5,-206.2"/>
<polygon fill="#000000" stroke="#000000" points="459.5,-206.2 459.5,-223.2 459.5,-223.2 459.5,-206.2 459.5,-206.2"/>
</a>
</g>
</g>
<!-- act_cmmn_deployment -->
<g id="node2" class="node">
<title>act_cmmn_deployment</title>
<g id="a_node2"><a xlink:href="../../tables/act_cmmn_deployment.html" xlink:title="act_cmmn_deployment" target="_top">
<polygon fill="#ffffff" stroke="transparent" points="8,-38.2 8,-238.2 262,-238.2 262,-38.2 8,-38.2"/>
<polygon fill="#f5f5f5" stroke="transparent" points="10,-213.2 10,-236.2 260,-236.2 260,-213.2 10,-213.2"/>
<polygon fill="none" stroke="#000000" points="10,-213.2 10,-236.2 260,-236.2 260,-213.2 10,-213.2"/>
<text text-anchor="start" x="15" y="-221.8" font-family="Helvetica,sans-Serif" font-weight="bold" font-size="11.00" fill="#000000">act_cmmn_deployment</text>
<text text-anchor="start" x="225.0437" y="-221.3" font-family="Helvetica,sans-Serif" font-size="11.00" fill="#000000">[table]</text>
<polygon fill="none" stroke="#000000" points="10,-191.2 10,-213.2 176,-213.2 176,-191.2 10,-191.2"/>
<image xlink:href="../../images/primaryKeys.png" width="11px" height="12px" preserveAspectRatio="xMinYMin meet" x="15" y="-208.2"/>
<text text-anchor="start" x="30" y="-198.3" font-family="Helvetica,sans-Serif" font-size="11.00" fill="#000000">id_</text>
<polygon fill="none" stroke="#000000" points="176,-191.2 176,-213.2 260,-213.2 260,-191.2 176,-191.2"/>
<text text-anchor="start" x="179" y="-198.9" font-family="Helvetica,sans-Serif" font-size="11.00" fill="#000000">varchar[255]</text>
<polygon fill="none" stroke="#000000" points="10,-169.2 10,-191.2 176,-191.2 176,-169.2 10,-169.2"/>
<text text-anchor="start" x="30" y="-176.3" font-family="Helvetica,sans-Serif" font-size="11.00" fill="#000000">name_</text>
<polygon fill="none" stroke="#000000" points="176,-169.2 176,-191.2 260,-191.2 260,-169.2 176,-169.2"/>
<text text-anchor="start" x="179" y="-176.9" font-family="Helvetica,sans-Serif" font-size="11.00" fill="#000000">varchar[255]</text>
<polygon fill="none" stroke="#000000" points="10,-147.2 10,-169.2 176,-169.2 176,-147.2 10,-147.2"/>
<text text-anchor="start" x="30" y="-154.3" font-family="Helvetica,sans-Serif" font-size="11.00" fill="#000000">category_</text>
<polygon fill="none" stroke="#000000" points="176,-147.2 176,-169.2 260,-169.2 260,-147.2 176,-147.2"/>
<text text-anchor="start" x="179" y="-154.9" font-family="Helvetica,sans-Serif" font-size="11.00" fill="#000000">varchar[255]</text>
<polygon fill="none" stroke="#000000" points="10,-125.2 10,-147.2 176,-147.2 176,-125.2 10,-125.2"/>
<text text-anchor="start" x="30" y="-132.3" font-family="Helvetica,sans-Serif" font-size="11.00" fill="#000000">key_</text>
<polygon fill="none" stroke="#000000" points="176,-125.2 176,-147.2 260,-147.2 260,-125.2 176,-125.2"/>
<text text-anchor="start" x="179" y="-132.9" font-family="Helvetica,sans-Serif" font-size="11.00" fill="#000000">varchar[255]</text>
<polygon fill="none" stroke="#000000" points="10,-103.2 10,-125.2 176,-125.2 176,-103.2 10,-103.2"/>
<text text-anchor="start" x="30" y="-110.3" font-family="Helvetica,sans-Serif" font-size="11.00" fill="#000000">deploy_time_</text>
<polygon fill="none" stroke="#000000" points="176,-103.2 176,-125.2 260,-125.2 260,-103.2 176,-103.2"/>
<text text-anchor="start" x="178.8807" y="-110.9" font-family="Helvetica,sans-Serif" font-size="11.00" fill="#000000">timestamp[29,6]</text>
<polygon fill="none" stroke="#000000" points="10,-81.2 10,-103.2 176,-103.2 176,-81.2 10,-81.2"/>
<text text-anchor="start" x="30" y="-88.3" font-family="Helvetica,sans-Serif" font-size="11.00" fill="#000000">parent_deployment_id_</text>
<polygon fill="none" stroke="#000000" points="176,-81.2 176,-103.2 260,-103.2 260,-81.2 176,-81.2"/>
<text text-anchor="start" x="179" y="-88.9" font-family="Helvetica,sans-Serif" font-size="11.00" fill="#000000">varchar[255]</text>
<polygon fill="none" stroke="#000000" points="10,-59.2 10,-81.2 176,-81.2 176,-59.2 10,-59.2"/>
<text text-anchor="start" x="30" y="-66.3" font-family="Helvetica,sans-Serif" font-size="11.00" fill="#000000">tenant_id_</text>
<polygon fill="none" stroke="#000000" points="176,-59.2 176,-81.2 260,-81.2 260,-59.2 176,-59.2"/>
<text text-anchor="start" x="179" y="-66.9" font-family="Helvetica,sans-Serif" font-size="11.00" fill="#000000">varchar[255]</text>
<polygon fill="#ffffff" stroke="transparent" points="10,-40.2 10,-59.2 260,-59.2 260,-40.2 10,-40.2"/>
<polygon fill="none" stroke="#000000" points="10,-40.2 10,-59.2 260,-59.2 260,-40.2 10,-40.2"/>
<polygon fill="#ffffff" stroke="transparent" points="11,-41.2 11,-58.2 97,-58.2 97,-41.2 11,-41.2"/>
<text text-anchor="start" x="13" y="-46.3" font-family="Helvetica,sans-Serif" font-size="11.00" fill="#000000">&lt; 0</text>
<polygon fill="#ffffff" stroke="transparent" points="97,-41.2 97,-58.2 174,-58.2 174,-41.2 97,-41.2"/>
<text text-anchor="start" x="132.4431" y="-46.3" font-family="Helvetica,sans-Serif" font-size="11.00" fill="#000000"> &#160;</text>
<polygon fill="#ffffff" stroke="transparent" points="174,-41.2 174,-58.2 259,-58.2 259,-41.2 174,-41.2"/>
<text text-anchor="start" x="241.4053" y="-46.3" font-family="Helvetica,sans-Serif" font-size="11.00" fill="#000000">2 &gt;</text>
<polygon fill="#000000" stroke="#000000" points="97,-41.2 97,-58.2 97,-58.2 97,-41.2 97,-41.2"/>
<polygon fill="#000000" stroke="#000000" points="174,-41.2 174,-58.2 174,-58.2 174,-41.2 174,-41.2"/>
<polygon fill="none" stroke="#000000" stroke-width="2" points="9,-39.2 9,-237.2 261,-237.2 261,-39.2 9,-39.2"/>
</a>
</g>
</g>
<!-- act_cmmn_casedef&#45;&gt;act_cmmn_deployment -->
<g id="edge1" class="edge">
<title>act_cmmn_casedef:w&#45;&gt;act_cmmn_deployment:e</title>
<path fill="none" stroke="#000000" d="M332.0711,-273.7379C298.3386,-260.8978 305.0594,-202.2 260,-202.2"/>
<polygon fill="#000000" stroke="#000000" points="338.614,-274.8543 345.8944,-279.7487 342.557,-275.5272 346.5,-276.2 346.5,-276.2 346.5,-276.2 342.557,-275.5272 347.1056,-272.6513 338.614,-274.8543 338.614,-274.8543"/>
<ellipse fill="none" stroke="#000000" cx="335.4596" cy="-274.316" rx="3.2" ry="3.2"/>
</g>
<!-- act_cmmn_deployment_resource -->
<g id="node3" class="node">
<title>act_cmmn_deployment_resource</title>
<g id="a_node3"><a xlink:href="../../tables/act_cmmn_deployment_resource.html" xlink:title="act_cmmn_deployment_resource" target="_top">
<polygon fill="#ffffff" stroke="transparent" points="311,-79.7 311,-184.7 556,-184.7 556,-79.7 311,-79.7"/>
<polygon fill="#f5f5f5" stroke="transparent" points="311.5,-161.2 311.5,-184.2 556.5,-184.2 556.5,-161.2 311.5,-161.2"/>
<polygon fill="none" stroke="#000000" points="311.5,-161.2 311.5,-184.2 556.5,-184.2 556.5,-161.2 311.5,-161.2"/>
<text text-anchor="start" x="316.5" y="-169.8" font-family="Helvetica,sans-Serif" font-weight="bold" font-size="11.00" fill="#000000">act_cmmn_deployment_resource</text>
<text text-anchor="start" x="522.0219" y="-169.3" font-family="Helvetica,sans-Serif" font-size="11.00" fill="#000000">[table]</text>
<polygon fill="none" stroke="#000000" points="311.5,-139.2 311.5,-161.2 556.5,-161.2 556.5,-139.2 311.5,-139.2"/>
<image xlink:href="../../images/primaryKeys.png" width="11px" height="12px" preserveAspectRatio="xMinYMin meet" x="316.5" y="-156.2"/>
<text text-anchor="start" x="340.5" y="-146.3" font-family="Helvetica,sans-Serif" font-size="11.00" fill="#000000">id_</text>
<polygon fill="#ffffff" stroke="transparent" points="311.5,-117.2 311.5,-139.2 556.5,-139.2 556.5,-117.2 311.5,-117.2"/>
<polygon fill="none" stroke="#000000" points="311.5,-117.2 311.5,-139.2 556.5,-139.2 556.5,-117.2 311.5,-117.2"/>
<image xlink:href="../../images/foreignKeys.png" width="11px" height="12px" preserveAspectRatio="xMinYMin meet" x="316.5" y="-134.2"/>
<text text-anchor="start" x="340.5" y="-124.3" font-family="Helvetica,sans-Serif" font-size="11.00" fill="#000000">deployment_id_</text>
<polygon fill="none" stroke="#000000" points="311.5,-98.2 311.5,-117.2 556.5,-117.2 556.5,-98.2 311.5,-98.2"/>
<text text-anchor="start" x="314.5" y="-104.3" font-family="Helvetica,sans-Serif" font-size="11.00" fill="#000000">...</text>
<polygon fill="#ffffff" stroke="transparent" points="311.5,-79.2 311.5,-98.2 556.5,-98.2 556.5,-79.2 311.5,-79.2"/>
<polygon fill="none" stroke="#000000" points="311.5,-79.2 311.5,-98.2 556.5,-98.2 556.5,-79.2 311.5,-79.2"/>
<polygon fill="#ffffff" stroke="transparent" points="312.5,-80.2 312.5,-97.2 399.5,-97.2 399.5,-80.2 312.5,-80.2"/>
<text text-anchor="start" x="314.5" y="-85.3" font-family="Helvetica,sans-Serif" font-size="11.00" fill="#000000">&lt; 1</text>
<polygon fill="#ffffff" stroke="transparent" points="399.5,-80.2 399.5,-97.2 477.5,-97.2 477.5,-80.2 399.5,-80.2"/>
<text text-anchor="start" x="435.4431" y="-85.3" font-family="Helvetica,sans-Serif" font-size="11.00" fill="#000000"> &#160;</text>
<polygon fill="#ffffff" stroke="transparent" points="477.5,-80.2 477.5,-97.2 555.5,-97.2 555.5,-80.2 477.5,-80.2"/>
<text text-anchor="start" x="547.3862" y="-85.3" font-family="Helvetica,sans-Serif" font-size="11.00" fill="#000000"> &#160;</text>
<polygon fill="#000000" stroke="#000000" points="399.5,-80.2 399.5,-97.2 399.5,-97.2 399.5,-80.2 399.5,-80.2"/>
<polygon fill="#000000" stroke="#000000" points="477.5,-80.2 477.5,-97.2 477.5,-97.2 477.5,-80.2 477.5,-80.2"/>
</a>
</g>
</g>
<!-- act_cmmn_deployment_resource&#45;&gt;act_cmmn_deployment -->
<g id="edge2" class="edge">
<title>act_cmmn_deployment_resource:w&#45;&gt;act_cmmn_deployment:e</title>
<path fill="none" stroke="#000000" d="M297.7488,-132.6074C278.4187,-148.5383 294.1218,-202.2 260,-202.2"/>
<polygon fill="#000000" stroke="#000000" points="303.8817,-130.6418 312.5988,-131.6282 307.6909,-129.4209 311.5,-128.2 311.5,-128.2 311.5,-128.2 307.6909,-129.4209 310.4012,-124.7718 303.8817,-130.6418 303.8817,-130.6418"/>
<ellipse fill="none" stroke="#000000" cx="300.8344" cy="-131.6185" rx="3.2" ry="3.2"/>
</g>
</g>
</svg>
