<?xml version="1.0" encoding="UTF-8" standalone="no"?>
<!DOCTYPE svg PUBLIC "-//W3C//DTD SVG 1.1//EN"
 "http://www.w3.org/Graphics/SVG/1.1/DTD/svg11.dtd">
<!-- Generated by graphviz version 2.40.1 (20161225.0304)
 -->
<!-- Title: oneDegreeRelationshipsDiagram Pages: 1 -->
<svg width="442pt" height="316pt"
 viewBox="0.00 0.00 442.00 316.20" xmlns="http://www.w3.org/2000/svg" xmlns:xlink="http://www.w3.org/1999/xlink">
<g id="graph0" class="graph" transform="scale(1 1) rotate(0) translate(4 312.2)">
<title>oneDegreeRelationshipsDiagram</title>
<polygon fill="#ffffff" stroke="transparent" points="-4,4 -4,-312.2 438,-312.2 438,4 -4,4"/>
<text text-anchor="middle" x="72.4936" y="-7.3" font-family="Helvetica,sans-Serif" font-size="11.00" fill="#000000">Generated by SchemaSpy</text>
<!-- act_app_appdef -->
<g id="node1" class="node">
<title>act_app_appdef</title>
<g id="a_node1"><a xlink:href="../../tables/act_app_appdef.html" xlink:title="act_app_appdef" target="_top">
<polygon fill="#ffffff" stroke="transparent" points="225,-38.2 225,-304.2 426,-304.2 426,-38.2 225,-38.2"/>
<polygon fill="#f5f5f5" stroke="transparent" points="227.5,-279.2 227.5,-302.2 424.5,-302.2 424.5,-279.2 227.5,-279.2"/>
<polygon fill="none" stroke="#000000" points="227.5,-279.2 227.5,-302.2 424.5,-302.2 424.5,-279.2 227.5,-279.2"/>
<text text-anchor="start" x="232.5" y="-287.8" font-family="Helvetica,sans-Serif" font-weight="bold" font-size="11.00" fill="#000000">act_app_appdef</text>
<text text-anchor="start" x="389.5437" y="-287.3" font-family="Helvetica,sans-Serif" font-size="11.00" fill="#000000">[table]</text>
<polygon fill="none" stroke="#000000" points="227.5,-257.2 227.5,-279.2 351.5,-279.2 351.5,-257.2 227.5,-257.2"/>
<image xlink:href="../../images/primaryKeys.png" width="11px" height="12px" preserveAspectRatio="xMinYMin meet" x="232.5" y="-274.2"/>
<text text-anchor="start" x="247.5" y="-264.3" font-family="Helvetica,sans-Serif" font-size="11.00" fill="#000000">id_</text>
<polygon fill="none" stroke="#000000" points="351.5,-257.2 351.5,-279.2 424.5,-279.2 424.5,-257.2 351.5,-257.2"/>
<text text-anchor="start" x="354.5" y="-264.9" font-family="Helvetica,sans-Serif" font-size="11.00" fill="#000000">varchar[255]</text>
<polygon fill="none" stroke="#000000" points="227.5,-235.2 227.5,-257.2 351.5,-257.2 351.5,-235.2 227.5,-235.2"/>
<text text-anchor="start" x="247.5" y="-242.3" font-family="Helvetica,sans-Serif" font-size="11.00" fill="#000000">rev_</text>
<polygon fill="none" stroke="#000000" points="351.5,-235.2 351.5,-257.2 424.5,-257.2 424.5,-235.2 351.5,-235.2"/>
<text text-anchor="start" x="354.5" y="-242.9" font-family="Helvetica,sans-Serif" font-size="11.00" fill="#000000">int4[10]</text>
<polygon fill="none" stroke="#000000" points="227.5,-213.2 227.5,-235.2 351.5,-235.2 351.5,-213.2 227.5,-213.2"/>
<text text-anchor="start" x="247.5" y="-220.3" font-family="Helvetica,sans-Serif" font-size="11.00" fill="#000000">name_</text>
<polygon fill="none" stroke="#000000" points="351.5,-213.2 351.5,-235.2 424.5,-235.2 424.5,-213.2 351.5,-213.2"/>
<text text-anchor="start" x="354.5" y="-220.9" font-family="Helvetica,sans-Serif" font-size="11.00" fill="#000000">varchar[255]</text>
<polygon fill="#ffffff" stroke="transparent" points="227.5,-191.2 227.5,-213.2 351.5,-213.2 351.5,-191.2 227.5,-191.2"/>
<polygon fill="none" stroke="#000000" points="227.5,-191.2 227.5,-213.2 351.5,-213.2 351.5,-191.2 227.5,-191.2"/>
<text text-anchor="start" x="247.5" y="-198.3" font-family="Helvetica,sans-Serif" font-size="11.00" fill="#000000">key_</text>
<polygon fill="none" stroke="#000000" points="351.5,-191.2 351.5,-213.2 424.5,-213.2 424.5,-191.2 351.5,-191.2"/>
<text text-anchor="start" x="354.5" y="-198.9" font-family="Helvetica,sans-Serif" font-size="11.00" fill="#000000">varchar[255]</text>
<polygon fill="#ffffff" stroke="transparent" points="227.5,-169.2 227.5,-191.2 351.5,-191.2 351.5,-169.2 227.5,-169.2"/>
<polygon fill="none" stroke="#000000" points="227.5,-169.2 227.5,-191.2 351.5,-191.2 351.5,-169.2 227.5,-169.2"/>
<text text-anchor="start" x="247.5" y="-176.3" font-family="Helvetica,sans-Serif" font-size="11.00" fill="#000000">version_</text>
<polygon fill="none" stroke="#000000" points="351.5,-169.2 351.5,-191.2 424.5,-191.2 424.5,-169.2 351.5,-169.2"/>
<text text-anchor="start" x="354.5" y="-176.9" font-family="Helvetica,sans-Serif" font-size="11.00" fill="#000000">int4[10]</text>
<polygon fill="none" stroke="#000000" points="227.5,-147.2 227.5,-169.2 351.5,-169.2 351.5,-147.2 227.5,-147.2"/>
<text text-anchor="start" x="247.5" y="-154.3" font-family="Helvetica,sans-Serif" font-size="11.00" fill="#000000">category_</text>
<polygon fill="none" stroke="#000000" points="351.5,-147.2 351.5,-169.2 424.5,-169.2 424.5,-147.2 351.5,-147.2"/>
<text text-anchor="start" x="354.5" y="-154.9" font-family="Helvetica,sans-Serif" font-size="11.00" fill="#000000">varchar[255]</text>
<polygon fill="#ffffff" stroke="transparent" points="227.5,-125.2 227.5,-147.2 351.5,-147.2 351.5,-125.2 227.5,-125.2"/>
<polygon fill="none" stroke="#000000" points="227.5,-125.2 227.5,-147.2 351.5,-147.2 351.5,-125.2 227.5,-125.2"/>
<image xlink:href="../../images/foreignKeys.png" width="11px" height="12px" preserveAspectRatio="xMinYMin meet" x="232.5" y="-142.2"/>
<text text-anchor="start" x="247.5" y="-132.3" font-family="Helvetica,sans-Serif" font-size="11.00" fill="#000000">deployment_id_</text>
<polygon fill="none" stroke="#000000" points="351.5,-125.2 351.5,-147.2 424.5,-147.2 424.5,-125.2 351.5,-125.2"/>
<text text-anchor="start" x="354.5" y="-132.9" font-family="Helvetica,sans-Serif" font-size="11.00" fill="#000000">varchar[255]</text>
<polygon fill="none" stroke="#000000" points="227.5,-103.2 227.5,-125.2 351.5,-125.2 351.5,-103.2 227.5,-103.2"/>
<text text-anchor="start" x="247.5" y="-110.3" font-family="Helvetica,sans-Serif" font-size="11.00" fill="#000000">resource_name_</text>
<polygon fill="none" stroke="#000000" points="351.5,-103.2 351.5,-125.2 424.5,-125.2 424.5,-103.2 351.5,-103.2"/>
<text text-anchor="start" x="354.3791" y="-110.9" font-family="Helvetica,sans-Serif" font-size="11.00" fill="#000000">varchar[4000]</text>
<polygon fill="none" stroke="#000000" points="227.5,-81.2 227.5,-103.2 351.5,-103.2 351.5,-81.2 227.5,-81.2"/>
<text text-anchor="start" x="247.5" y="-88.3" font-family="Helvetica,sans-Serif" font-size="11.00" fill="#000000">description_</text>
<polygon fill="none" stroke="#000000" points="351.5,-81.2 351.5,-103.2 424.5,-103.2 424.5,-81.2 351.5,-81.2"/>
<text text-anchor="start" x="354.3791" y="-88.9" font-family="Helvetica,sans-Serif" font-size="11.00" fill="#000000">varchar[4000]</text>
<polygon fill="#ffffff" stroke="transparent" points="227.5,-59.2 227.5,-81.2 351.5,-81.2 351.5,-59.2 227.5,-59.2"/>
<polygon fill="none" stroke="#000000" points="227.5,-59.2 227.5,-81.2 351.5,-81.2 351.5,-59.2 227.5,-59.2"/>
<text text-anchor="start" x="247.5" y="-66.3" font-family="Helvetica,sans-Serif" font-size="11.00" fill="#000000">tenant_id_</text>
<polygon fill="none" stroke="#000000" points="351.5,-59.2 351.5,-81.2 424.5,-81.2 424.5,-59.2 351.5,-59.2"/>
<text text-anchor="start" x="354.5" y="-66.9" font-family="Helvetica,sans-Serif" font-size="11.00" fill="#000000">varchar[255]</text>
<polygon fill="#ffffff" stroke="transparent" points="227.5,-40.2 227.5,-59.2 424.5,-59.2 424.5,-40.2 227.5,-40.2"/>
<polygon fill="none" stroke="#000000" points="227.5,-40.2 227.5,-59.2 424.5,-59.2 424.5,-40.2 227.5,-40.2"/>
<polygon fill="#ffffff" stroke="transparent" points="228.5,-41.2 228.5,-58.2 296.5,-58.2 296.5,-41.2 228.5,-41.2"/>
<text text-anchor="start" x="230.5" y="-46.3" font-family="Helvetica,sans-Serif" font-size="11.00" fill="#000000">&lt; 1</text>
<polygon fill="#ffffff" stroke="transparent" points="296.5,-41.2 296.5,-58.2 355.5,-58.2 355.5,-41.2 296.5,-41.2"/>
<text text-anchor="start" x="322.9431" y="-46.3" font-family="Helvetica,sans-Serif" font-size="11.00" fill="#000000"> &#160;</text>
<polygon fill="#ffffff" stroke="transparent" points="355.5,-41.2 355.5,-58.2 423.5,-58.2 423.5,-41.2 355.5,-41.2"/>
<text text-anchor="start" x="405.9053" y="-46.3" font-family="Helvetica,sans-Serif" font-size="11.00" fill="#000000">0 &gt;</text>
<polygon fill="#000000" stroke="#000000" points="296.5,-41.2 296.5,-58.2 296.5,-58.2 296.5,-41.2 296.5,-41.2"/>
<polygon fill="#000000" stroke="#000000" points="355.5,-41.2 355.5,-58.2 355.5,-58.2 355.5,-41.2 355.5,-41.2"/>
<polygon fill="none" stroke="#000000" stroke-width="2" points="226,-39.2 226,-303.2 425,-303.2 425,-39.2 226,-39.2"/>
</a>
</g>
</g>
<!-- act_app_deployment -->
<g id="node2" class="node">
<title>act_app_deployment</title>
<g id="a_node2"><a xlink:href="../../tables/act_app_deployment.html" xlink:title="act_app_deployment" target="_top">
<polygon fill="#ffffff" stroke="transparent" points="8,-87.7 8,-170.7 176,-170.7 176,-87.7 8,-87.7"/>
<polygon fill="#f5f5f5" stroke="transparent" points="8,-147.2 8,-170.2 176,-170.2 176,-147.2 8,-147.2"/>
<polygon fill="none" stroke="#000000" points="8,-147.2 8,-170.2 176,-170.2 176,-147.2 8,-147.2"/>
<text text-anchor="start" x="13" y="-155.8" font-family="Helvetica,sans-Serif" font-weight="bold" font-size="11.00" fill="#000000">act_app_deployment</text>
<text text-anchor="start" x="141.5219" y="-155.3" font-family="Helvetica,sans-Serif" font-size="11.00" fill="#000000">[table]</text>
<polygon fill="none" stroke="#000000" points="8,-125.2 8,-147.2 176,-147.2 176,-125.2 8,-125.2"/>
<image xlink:href="../../images/primaryKeys.png" width="11px" height="12px" preserveAspectRatio="xMinYMin meet" x="13" y="-142.2"/>
<text text-anchor="start" x="37" y="-132.3" font-family="Helvetica,sans-Serif" font-size="11.00" fill="#000000">id_</text>
<polygon fill="none" stroke="#000000" points="8,-106.2 8,-125.2 176,-125.2 176,-106.2 8,-106.2"/>
<text text-anchor="start" x="11" y="-112.3" font-family="Helvetica,sans-Serif" font-size="11.00" fill="#000000">...</text>
<polygon fill="#ffffff" stroke="transparent" points="8,-87.2 8,-106.2 176,-106.2 176,-87.2 8,-87.2"/>
<polygon fill="none" stroke="#000000" points="8,-87.2 8,-106.2 176,-106.2 176,-87.2 8,-87.2"/>
<polygon fill="#ffffff" stroke="transparent" points="9,-88.2 9,-105.2 62,-105.2 62,-88.2 9,-88.2"/>
<text text-anchor="start" x="11" y="-93.3" font-family="Helvetica,sans-Serif" font-size="11.00" fill="#000000"> &#160;</text>
<polygon fill="#ffffff" stroke="transparent" points="62,-88.2 62,-105.2 114,-105.2 114,-88.2 62,-88.2"/>
<text text-anchor="start" x="84.9431" y="-93.3" font-family="Helvetica,sans-Serif" font-size="11.00" fill="#000000"> &#160;</text>
<polygon fill="#ffffff" stroke="transparent" points="114,-88.2 114,-105.2 175,-105.2 175,-88.2 114,-88.2"/>
<text text-anchor="start" x="157.4053" y="-93.3" font-family="Helvetica,sans-Serif" font-size="11.00" fill="#000000">2 &gt;</text>
<polygon fill="#000000" stroke="#000000" points="62,-88.2 62,-105.2 62,-105.2 62,-88.2 62,-88.2"/>
<polygon fill="#000000" stroke="#000000" points="114,-88.2 114,-105.2 114,-105.2 114,-88.2 114,-88.2"/>
</a>
</g>
</g>
<!-- act_app_appdef&#45;&gt;act_app_deployment -->
<g id="edge1" class="edge">
<title>act_app_appdef:w&#45;&gt;act_app_deployment:e</title>
<path fill="none" stroke="#000000" d="M213.0156,-136.2C200.6771,-136.2 193.1667,-136.2 176,-136.2"/>
<polygon fill="#000000" stroke="#000000" points="219.5,-136.2001 227.5,-139.8 223.5,-136.2 227.5,-136.2 227.5,-136.2 227.5,-136.2 223.5,-136.2 227.5,-132.6 219.5,-136.2001 219.5,-136.2001"/>
<ellipse fill="none" stroke="#000000" cx="216.3" cy="-136.2001" rx="3.2" ry="3.2"/>
</g>
</g>
</svg>
