<?xml version="1.0" encoding="UTF-8" standalone="no"?>
<!DOCTYPE svg PUBLIC "-//W3C//DTD SVG 1.1//EN"
 "http://www.w3.org/Graphics/SVG/1.1/DTD/svg11.dtd">
<!-- Generated by graphviz version 2.40.1 (20161225.0304)
 -->
<!-- Title: oneDegreeRelationshipsDiagram Pages: 1 -->
<svg width="541pt" height="367pt"
 viewBox="0.00 0.00 541.00 366.70" xmlns="http://www.w3.org/2000/svg" xmlns:xlink="http://www.w3.org/1999/xlink">
<g id="graph0" class="graph" transform="scale(1 1) rotate(0) translate(4 362.7)">
<title>oneDegreeRelationshipsDiagram</title>
<polygon fill="#ffffff" stroke="transparent" points="-4,4 -4,-362.7 537,-362.7 537,4 -4,4"/>
<text text-anchor="middle" x="72.4936" y="-7.3" font-family="Helvetica,sans-Serif" font-size="11.00" fill="#000000">Generated by SchemaSpy</text>
<!-- act_app_appdef -->
<g id="node1" class="node">
<title>act_app_appdef</title>
<g id="a_node1"><a xlink:href="../../tables/act_app_appdef.html" xlink:title="act_app_appdef" target="_top">
<polygon fill="#ffffff" stroke="transparent" points="341.5,-183.7 341.5,-354.7 478.5,-354.7 478.5,-183.7 341.5,-183.7"/>
<polygon fill="#f5f5f5" stroke="transparent" points="342,-331.2 342,-354.2 479,-354.2 479,-331.2 342,-331.2"/>
<polygon fill="none" stroke="#000000" points="342,-331.2 342,-354.2 479,-354.2 479,-331.2 342,-331.2"/>
<text text-anchor="start" x="347" y="-339.8" font-family="Helvetica,sans-Serif" font-weight="bold" font-size="11.00" fill="#000000">act_app_appdef</text>
<text text-anchor="start" x="444.5219" y="-339.3" font-family="Helvetica,sans-Serif" font-size="11.00" fill="#000000">[table]</text>
<polygon fill="none" stroke="#000000" points="342,-309.2 342,-331.2 479,-331.2 479,-309.2 342,-309.2"/>
<image xlink:href="../../images/primaryKeys.png" width="11px" height="12px" preserveAspectRatio="xMinYMin meet" x="347" y="-326.2"/>
<text text-anchor="start" x="369" y="-316.3" font-family="Helvetica,sans-Serif" font-size="11.00" fill="#000000">id_</text>
<polygon fill="#ffffff" stroke="transparent" points="342,-287.2 342,-309.2 479,-309.2 479,-287.2 342,-287.2"/>
<polygon fill="none" stroke="#000000" points="342,-287.2 342,-309.2 479,-309.2 479,-287.2 342,-287.2"/>
<text text-anchor="start" x="369" y="-294.3" font-family="Helvetica,sans-Serif" font-size="11.00" fill="#000000">key_</text>
<polygon fill="#ffffff" stroke="transparent" points="342,-265.2 342,-287.2 479,-287.2 479,-265.2 342,-265.2"/>
<polygon fill="none" stroke="#000000" points="342,-265.2 342,-287.2 479,-287.2 479,-265.2 342,-265.2"/>
<text text-anchor="start" x="369" y="-272.3" font-family="Helvetica,sans-Serif" font-size="11.00" fill="#000000">version_</text>
<polygon fill="#ffffff" stroke="transparent" points="342,-243.2 342,-265.2 479,-265.2 479,-243.2 342,-243.2"/>
<polygon fill="none" stroke="#000000" points="342,-243.2 342,-265.2 479,-265.2 479,-243.2 342,-243.2"/>
<image xlink:href="../../images/foreignKeys.png" width="11px" height="12px" preserveAspectRatio="xMinYMin meet" x="347" y="-260.2"/>
<text text-anchor="start" x="369" y="-250.3" font-family="Helvetica,sans-Serif" font-size="11.00" fill="#000000">deployment_id_</text>
<polygon fill="#ffffff" stroke="transparent" points="342,-221.2 342,-243.2 479,-243.2 479,-221.2 342,-221.2"/>
<polygon fill="none" stroke="#000000" points="342,-221.2 342,-243.2 479,-243.2 479,-221.2 342,-221.2"/>
<text text-anchor="start" x="369" y="-228.3" font-family="Helvetica,sans-Serif" font-size="11.00" fill="#000000">tenant_id_</text>
<polygon fill="none" stroke="#000000" points="342,-202.2 342,-221.2 479,-221.2 479,-202.2 342,-202.2"/>
<text text-anchor="start" x="345" y="-208.3" font-family="Helvetica,sans-Serif" font-size="11.00" fill="#000000">...</text>
<polygon fill="#ffffff" stroke="transparent" points="342,-183.2 342,-202.2 479,-202.2 479,-183.2 342,-183.2"/>
<polygon fill="none" stroke="#000000" points="342,-183.2 342,-202.2 479,-202.2 479,-183.2 342,-183.2"/>
<polygon fill="#ffffff" stroke="transparent" points="343,-184.2 343,-201.2 394,-201.2 394,-184.2 343,-184.2"/>
<text text-anchor="start" x="345" y="-189.3" font-family="Helvetica,sans-Serif" font-size="11.00" fill="#000000">&lt; 1</text>
<polygon fill="#ffffff" stroke="transparent" points="394,-184.2 394,-201.2 436,-201.2 436,-184.2 394,-184.2"/>
<text text-anchor="start" x="411.9431" y="-189.3" font-family="Helvetica,sans-Serif" font-size="11.00" fill="#000000"> &#160;</text>
<polygon fill="#ffffff" stroke="transparent" points="436,-184.2 436,-201.2 478,-201.2 478,-184.2 436,-184.2"/>
<text text-anchor="start" x="469.8862" y="-189.3" font-family="Helvetica,sans-Serif" font-size="11.00" fill="#000000"> &#160;</text>
<polygon fill="#000000" stroke="#000000" points="394,-184.2 394,-201.2 394,-201.2 394,-184.2 394,-184.2"/>
<polygon fill="#000000" stroke="#000000" points="436,-184.2 436,-201.2 436,-201.2 436,-184.2 436,-184.2"/>
</a>
</g>
</g>
<!-- act_app_deployment -->
<g id="node2" class="node">
<title>act_app_deployment</title>
<g id="a_node2"><a xlink:href="../../tables/act_app_deployment.html" xlink:title="act_app_deployment" target="_top">
<polygon fill="#ffffff" stroke="transparent" points="8,-38.2 8,-216.2 246,-216.2 246,-38.2 8,-38.2"/>
<polygon fill="#f5f5f5" stroke="transparent" points="10,-191.2 10,-214.2 244,-214.2 244,-191.2 10,-191.2"/>
<polygon fill="none" stroke="#000000" points="10,-191.2 10,-214.2 244,-214.2 244,-191.2 10,-191.2"/>
<text text-anchor="start" x="15" y="-199.8" font-family="Helvetica,sans-Serif" font-weight="bold" font-size="11.00" fill="#000000">act_app_deployment</text>
<text text-anchor="start" x="209.0437" y="-199.3" font-family="Helvetica,sans-Serif" font-size="11.00" fill="#000000">[table]</text>
<polygon fill="none" stroke="#000000" points="10,-169.2 10,-191.2 160,-191.2 160,-169.2 10,-169.2"/>
<image xlink:href="../../images/primaryKeys.png" width="11px" height="12px" preserveAspectRatio="xMinYMin meet" x="15" y="-186.2"/>
<text text-anchor="start" x="30" y="-176.3" font-family="Helvetica,sans-Serif" font-size="11.00" fill="#000000">id_</text>
<polygon fill="none" stroke="#000000" points="160,-169.2 160,-191.2 244,-191.2 244,-169.2 160,-169.2"/>
<text text-anchor="start" x="163" y="-176.9" font-family="Helvetica,sans-Serif" font-size="11.00" fill="#000000">varchar[255]</text>
<polygon fill="none" stroke="#000000" points="10,-147.2 10,-169.2 160,-169.2 160,-147.2 10,-147.2"/>
<text text-anchor="start" x="30" y="-154.3" font-family="Helvetica,sans-Serif" font-size="11.00" fill="#000000">name_</text>
<polygon fill="none" stroke="#000000" points="160,-147.2 160,-169.2 244,-169.2 244,-147.2 160,-147.2"/>
<text text-anchor="start" x="163" y="-154.9" font-family="Helvetica,sans-Serif" font-size="11.00" fill="#000000">varchar[255]</text>
<polygon fill="none" stroke="#000000" points="10,-125.2 10,-147.2 160,-147.2 160,-125.2 10,-125.2"/>
<text text-anchor="start" x="30" y="-132.3" font-family="Helvetica,sans-Serif" font-size="11.00" fill="#000000">category_</text>
<polygon fill="none" stroke="#000000" points="160,-125.2 160,-147.2 244,-147.2 244,-125.2 160,-125.2"/>
<text text-anchor="start" x="163" y="-132.9" font-family="Helvetica,sans-Serif" font-size="11.00" fill="#000000">varchar[255]</text>
<polygon fill="none" stroke="#000000" points="10,-103.2 10,-125.2 160,-125.2 160,-103.2 10,-103.2"/>
<text text-anchor="start" x="30" y="-110.3" font-family="Helvetica,sans-Serif" font-size="11.00" fill="#000000">key_</text>
<polygon fill="none" stroke="#000000" points="160,-103.2 160,-125.2 244,-125.2 244,-103.2 160,-103.2"/>
<text text-anchor="start" x="163" y="-110.9" font-family="Helvetica,sans-Serif" font-size="11.00" fill="#000000">varchar[255]</text>
<polygon fill="none" stroke="#000000" points="10,-81.2 10,-103.2 160,-103.2 160,-81.2 10,-81.2"/>
<text text-anchor="start" x="30" y="-88.3" font-family="Helvetica,sans-Serif" font-size="11.00" fill="#000000">deploy_time_</text>
<polygon fill="none" stroke="#000000" points="160,-81.2 160,-103.2 244,-103.2 244,-81.2 160,-81.2"/>
<text text-anchor="start" x="162.8807" y="-88.9" font-family="Helvetica,sans-Serif" font-size="11.00" fill="#000000">timestamp[29,6]</text>
<polygon fill="none" stroke="#000000" points="10,-59.2 10,-81.2 160,-81.2 160,-59.2 10,-59.2"/>
<text text-anchor="start" x="30" y="-66.3" font-family="Helvetica,sans-Serif" font-size="11.00" fill="#000000">tenant_id_</text>
<polygon fill="none" stroke="#000000" points="160,-59.2 160,-81.2 244,-81.2 244,-59.2 160,-59.2"/>
<text text-anchor="start" x="163" y="-66.9" font-family="Helvetica,sans-Serif" font-size="11.00" fill="#000000">varchar[255]</text>
<polygon fill="#ffffff" stroke="transparent" points="10,-40.2 10,-59.2 244,-59.2 244,-40.2 10,-40.2"/>
<polygon fill="none" stroke="#000000" points="10,-40.2 10,-59.2 244,-59.2 244,-40.2 10,-40.2"/>
<polygon fill="#ffffff" stroke="transparent" points="11,-41.2 11,-58.2 92,-58.2 92,-41.2 11,-41.2"/>
<text text-anchor="start" x="13" y="-46.3" font-family="Helvetica,sans-Serif" font-size="11.00" fill="#000000">&lt; 0</text>
<polygon fill="#ffffff" stroke="transparent" points="92,-41.2 92,-58.2 163,-58.2 163,-41.2 92,-41.2"/>
<text text-anchor="start" x="124.4431" y="-46.3" font-family="Helvetica,sans-Serif" font-size="11.00" fill="#000000"> &#160;</text>
<polygon fill="#ffffff" stroke="transparent" points="163,-41.2 163,-58.2 243,-58.2 243,-41.2 163,-41.2"/>
<text text-anchor="start" x="225.4053" y="-46.3" font-family="Helvetica,sans-Serif" font-size="11.00" fill="#000000">2 &gt;</text>
<polygon fill="#000000" stroke="#000000" points="92,-41.2 92,-58.2 92,-58.2 92,-41.2 92,-41.2"/>
<polygon fill="#000000" stroke="#000000" points="163,-41.2 163,-58.2 163,-58.2 163,-41.2 163,-41.2"/>
<polygon fill="none" stroke="#000000" stroke-width="2" points="9,-39.2 9,-215.2 245,-215.2 245,-39.2 9,-39.2"/>
</a>
</g>
</g>
<!-- act_app_appdef&#45;&gt;act_app_deployment -->
<g id="edge1" class="edge">
<title>act_app_appdef:w&#45;&gt;act_app_deployment:e</title>
<path fill="none" stroke="#000000" d="M327.5173,-252.1436C288.9922,-240.192 293.1416,-180.2 244,-180.2"/>
<polygon fill="#000000" stroke="#000000" points="334.0794,-253.0753 341.4939,-257.7642 338.0397,-253.6377 342,-254.2 342,-254.2 342,-254.2 338.0397,-253.6377 342.5061,-250.6358 334.0794,-253.0753 334.0794,-253.0753"/>
<ellipse fill="none" stroke="#000000" cx="330.9112" cy="-252.6254" rx="3.2" ry="3.2"/>
</g>
<!-- act_app_deployment_resource -->
<g id="node3" class="node">
<title>act_app_deployment_resource</title>
<g id="a_node3"><a xlink:href="../../tables/act_app_deployment_resource.html" xlink:title="act_app_deployment_resource" target="_top">
<polygon fill="#ffffff" stroke="transparent" points="295,-57.7 295,-162.7 525,-162.7 525,-57.7 295,-57.7"/>
<polygon fill="#f5f5f5" stroke="transparent" points="295,-139.2 295,-162.2 525,-162.2 525,-139.2 295,-139.2"/>
<polygon fill="none" stroke="#000000" points="295,-139.2 295,-162.2 525,-162.2 525,-139.2 295,-139.2"/>
<text text-anchor="start" x="300" y="-147.8" font-family="Helvetica,sans-Serif" font-weight="bold" font-size="11.00" fill="#000000">act_app_deployment_resource</text>
<text text-anchor="start" x="490.5219" y="-147.3" font-family="Helvetica,sans-Serif" font-size="11.00" fill="#000000">[table]</text>
<polygon fill="none" stroke="#000000" points="295,-117.2 295,-139.2 525,-139.2 525,-117.2 295,-117.2"/>
<image xlink:href="../../images/primaryKeys.png" width="11px" height="12px" preserveAspectRatio="xMinYMin meet" x="300" y="-134.2"/>
<text text-anchor="start" x="324" y="-124.3" font-family="Helvetica,sans-Serif" font-size="11.00" fill="#000000">id_</text>
<polygon fill="#ffffff" stroke="transparent" points="295,-95.2 295,-117.2 525,-117.2 525,-95.2 295,-95.2"/>
<polygon fill="none" stroke="#000000" points="295,-95.2 295,-117.2 525,-117.2 525,-95.2 295,-95.2"/>
<image xlink:href="../../images/foreignKeys.png" width="11px" height="12px" preserveAspectRatio="xMinYMin meet" x="300" y="-112.2"/>
<text text-anchor="start" x="324" y="-102.3" font-family="Helvetica,sans-Serif" font-size="11.00" fill="#000000">deployment_id_</text>
<polygon fill="none" stroke="#000000" points="295,-76.2 295,-95.2 525,-95.2 525,-76.2 295,-76.2"/>
<text text-anchor="start" x="298" y="-82.3" font-family="Helvetica,sans-Serif" font-size="11.00" fill="#000000">...</text>
<polygon fill="#ffffff" stroke="transparent" points="295,-57.2 295,-76.2 525,-76.2 525,-57.2 295,-57.2"/>
<polygon fill="none" stroke="#000000" points="295,-57.2 295,-76.2 525,-76.2 525,-57.2 295,-57.2"/>
<polygon fill="#ffffff" stroke="transparent" points="296,-58.2 296,-75.2 378,-75.2 378,-58.2 296,-58.2"/>
<text text-anchor="start" x="298" y="-63.3" font-family="Helvetica,sans-Serif" font-size="11.00" fill="#000000">&lt; 1</text>
<polygon fill="#ffffff" stroke="transparent" points="378,-58.2 378,-75.2 451,-75.2 451,-58.2 378,-58.2"/>
<text text-anchor="start" x="411.4431" y="-63.3" font-family="Helvetica,sans-Serif" font-size="11.00" fill="#000000"> &#160;</text>
<polygon fill="#ffffff" stroke="transparent" points="451,-58.2 451,-75.2 524,-75.2 524,-58.2 451,-58.2"/>
<text text-anchor="start" x="515.8862" y="-63.3" font-family="Helvetica,sans-Serif" font-size="11.00" fill="#000000"> &#160;</text>
<polygon fill="#000000" stroke="#000000" points="378,-58.2 378,-75.2 378,-75.2 378,-58.2 378,-58.2"/>
<polygon fill="#000000" stroke="#000000" points="451,-58.2 451,-75.2 451,-75.2 451,-58.2 451,-58.2"/>
</a>
</g>
</g>
<!-- act_app_deployment_resource&#45;&gt;act_app_deployment -->
<g id="edge2" class="edge">
<title>act_app_deployment_resource:w&#45;&gt;act_app_deployment:e</title>
<path fill="none" stroke="#000000" d="M281.0503,-110.829C262.2607,-127.0294 277.8581,-180.2 244,-180.2"/>
<polygon fill="#000000" stroke="#000000" points="287.4071,-108.7196 296.1338,-109.6168 291.2036,-107.4598 295,-106.2 295,-106.2 295,-106.2 291.2036,-107.4598 293.8662,-102.7832 287.4071,-108.7196 287.4071,-108.7196"/>
<ellipse fill="none" stroke="#000000" cx="284.37" cy="-109.7275" rx="3.2" ry="3.2"/>
</g>
</g>
</svg>
