<?xml version="1.0" encoding="UTF-8" standalone="no"?>
<!DOCTYPE svg PUBLIC "-//W3C//DTD SVG 1.1//EN"
 "http://www.w3.org/Graphics/SVG/1.1/DTD/svg11.dtd">
<!-- Generated by graphviz version 2.40.1 (20161225.0304)
 -->
<!-- Title: oneDegreeRelationshipsDiagram Pages: 1 -->
<svg width="565pt" height="184pt"
 viewBox="0.00 0.00 565.00 184.20" xmlns="http://www.w3.org/2000/svg" xmlns:xlink="http://www.w3.org/1999/xlink">
<g id="graph0" class="graph" transform="scale(1 1) rotate(0) translate(4 180.2)">
<title>oneDegreeRelationshipsDiagram</title>
<polygon fill="#ffffff" stroke="transparent" points="-4,4 -4,-180.2 561,-180.2 561,4 -4,4"/>
<text text-anchor="middle" x="72.4936" y="-7.3" font-family="Helvetica,sans-Serif" font-size="11.00" fill="#000000">Generated by SchemaSpy</text>
<!-- act_dmn_deployment_resource -->
<g id="node1" class="node">
<title>act_dmn_deployment_resource</title>
<g id="a_node1"><a xlink:href="../../tables/act_dmn_deployment_resource.html" xlink:title="act_dmn_deployment_resource" target="_top">
<polygon fill="#ffffff" stroke="transparent" points="229,-38.2 229,-172.2 549,-172.2 549,-38.2 229,-38.2"/>
<polygon fill="#f5f5f5" stroke="transparent" points="231,-147.2 231,-170.2 547,-170.2 547,-147.2 231,-147.2"/>
<polygon fill="none" stroke="#000000" points="231,-147.2 231,-170.2 547,-170.2 547,-147.2 231,-147.2"/>
<text text-anchor="start" x="236" y="-155.8" font-family="Helvetica,sans-Serif" font-weight="bold" font-size="11.00" fill="#000000">act_dmn_deployment_resource</text>
<text text-anchor="start" x="512.0437" y="-155.3" font-family="Helvetica,sans-Serif" font-size="11.00" fill="#000000">[table]</text>
<polygon fill="none" stroke="#000000" points="231,-125.2 231,-147.2 447,-147.2 447,-125.2 231,-125.2"/>
<image xlink:href="../../images/primaryKeys.png" width="11px" height="12px" preserveAspectRatio="xMinYMin meet" x="236" y="-142.2"/>
<text text-anchor="start" x="251" y="-132.3" font-family="Helvetica,sans-Serif" font-size="11.00" fill="#000000">id_</text>
<polygon fill="none" stroke="#000000" points="447,-125.2 447,-147.2 547,-147.2 547,-125.2 447,-125.2"/>
<text text-anchor="start" x="450" y="-132.9" font-family="Helvetica,sans-Serif" font-size="11.00" fill="#000000">varchar[255]</text>
<polygon fill="none" stroke="#000000" points="231,-103.2 231,-125.2 447,-125.2 447,-103.2 231,-103.2"/>
<text text-anchor="start" x="251" y="-110.3" font-family="Helvetica,sans-Serif" font-size="11.00" fill="#000000">name_</text>
<polygon fill="none" stroke="#000000" points="447,-103.2 447,-125.2 547,-125.2 547,-103.2 447,-103.2"/>
<text text-anchor="start" x="450" y="-110.9" font-family="Helvetica,sans-Serif" font-size="11.00" fill="#000000">varchar[255]</text>
<polygon fill="#ffffff" stroke="transparent" points="231,-81.2 231,-103.2 447,-103.2 447,-81.2 231,-81.2"/>
<polygon fill="none" stroke="#000000" points="231,-81.2 231,-103.2 447,-103.2 447,-81.2 231,-81.2"/>
<image xlink:href="../../images/foreignKeys.png" width="11px" height="12px" preserveAspectRatio="xMinYMin meet" x="236" y="-98.2"/>
<text text-anchor="start" x="251" y="-88.3" font-family="Helvetica,sans-Serif" font-size="11.00" fill="#000000">deployment_id_</text>
<polygon fill="none" stroke="#000000" points="447,-81.2 447,-103.2 547,-103.2 547,-81.2 447,-81.2"/>
<text text-anchor="start" x="450" y="-88.9" font-family="Helvetica,sans-Serif" font-size="11.00" fill="#000000">varchar[255]</text>
<polygon fill="none" stroke="#000000" points="231,-59.2 231,-81.2 447,-81.2 447,-59.2 231,-59.2"/>
<text text-anchor="start" x="251" y="-66.3" font-family="Helvetica,sans-Serif" font-size="11.00" fill="#000000">resource_bytes_</text>
<polygon fill="none" stroke="#000000" points="447,-59.2 447,-81.2 547,-81.2 547,-59.2 447,-59.2"/>
<text text-anchor="start" x="449.9178" y="-66.9" font-family="Helvetica,sans-Serif" font-size="11.00" fill="#000000">bytea[2147483647]</text>
<polygon fill="#ffffff" stroke="transparent" points="231,-40.2 231,-59.2 547,-59.2 547,-40.2 231,-40.2"/>
<polygon fill="none" stroke="#000000" points="231,-40.2 231,-59.2 547,-59.2 547,-40.2 231,-40.2"/>
<polygon fill="#ffffff" stroke="transparent" points="232,-41.2 232,-58.2 340,-58.2 340,-41.2 232,-41.2"/>
<text text-anchor="start" x="234" y="-46.3" font-family="Helvetica,sans-Serif" font-size="11.00" fill="#000000">&lt; 1</text>
<polygon fill="#ffffff" stroke="transparent" points="340,-41.2 340,-58.2 439,-58.2 439,-41.2 340,-41.2"/>
<text text-anchor="start" x="386.4431" y="-46.3" font-family="Helvetica,sans-Serif" font-size="11.00" fill="#000000"> &#160;</text>
<polygon fill="#ffffff" stroke="transparent" points="439,-41.2 439,-58.2 546,-58.2 546,-41.2 439,-41.2"/>
<text text-anchor="start" x="528.4053" y="-46.3" font-family="Helvetica,sans-Serif" font-size="11.00" fill="#000000">0 &gt;</text>
<polygon fill="#000000" stroke="#000000" points="340,-41.2 340,-58.2 340,-58.2 340,-41.2 340,-41.2"/>
<polygon fill="#000000" stroke="#000000" points="439,-41.2 439,-58.2 439,-58.2 439,-41.2 439,-41.2"/>
<polygon fill="none" stroke="#000000" stroke-width="2" points="230,-39.2 230,-171.2 548,-171.2 548,-39.2 230,-39.2"/>
</a>
</g>
</g>
<!-- act_dmn_deployment -->
<g id="node2" class="node">
<title>act_dmn_deployment</title>
<g id="a_node2"><a xlink:href="../../tables/act_dmn_deployment.html" xlink:title="act_dmn_deployment" target="_top">
<polygon fill="#ffffff" stroke="transparent" points="8,-43.7 8,-126.7 180,-126.7 180,-43.7 8,-43.7"/>
<polygon fill="#f5f5f5" stroke="transparent" points="8,-103.2 8,-126.2 180,-126.2 180,-103.2 8,-103.2"/>
<polygon fill="none" stroke="#000000" points="8,-103.2 8,-126.2 180,-126.2 180,-103.2 8,-103.2"/>
<text text-anchor="start" x="13" y="-111.8" font-family="Helvetica,sans-Serif" font-weight="bold" font-size="11.00" fill="#000000">act_dmn_deployment</text>
<text text-anchor="start" x="145.5219" y="-111.3" font-family="Helvetica,sans-Serif" font-size="11.00" fill="#000000">[table]</text>
<polygon fill="none" stroke="#000000" points="8,-81.2 8,-103.2 180,-103.2 180,-81.2 8,-81.2"/>
<image xlink:href="../../images/primaryKeys.png" width="11px" height="12px" preserveAspectRatio="xMinYMin meet" x="13" y="-98.2"/>
<text text-anchor="start" x="31" y="-88.3" font-family="Helvetica,sans-Serif" font-size="11.00" fill="#000000">id_</text>
<polygon fill="none" stroke="#000000" points="8,-62.2 8,-81.2 180,-81.2 180,-62.2 8,-62.2"/>
<text text-anchor="start" x="11" y="-68.3" font-family="Helvetica,sans-Serif" font-size="11.00" fill="#000000">...</text>
<polygon fill="#ffffff" stroke="transparent" points="8,-43.2 8,-62.2 180,-62.2 180,-43.2 8,-43.2"/>
<polygon fill="none" stroke="#000000" points="8,-43.2 8,-62.2 180,-62.2 180,-43.2 8,-43.2"/>
<polygon fill="#ffffff" stroke="transparent" points="9,-44.2 9,-61.2 63,-61.2 63,-44.2 9,-44.2"/>
<text text-anchor="start" x="11" y="-49.3" font-family="Helvetica,sans-Serif" font-size="11.00" fill="#000000"> &#160;</text>
<polygon fill="#ffffff" stroke="transparent" points="63,-44.2 63,-61.2 117,-61.2 117,-44.2 63,-44.2"/>
<text text-anchor="start" x="86.9431" y="-49.3" font-family="Helvetica,sans-Serif" font-size="11.00" fill="#000000"> &#160;</text>
<polygon fill="#ffffff" stroke="transparent" points="117,-44.2 117,-61.2 179,-61.2 179,-44.2 117,-44.2"/>
<text text-anchor="start" x="161.4053" y="-49.3" font-family="Helvetica,sans-Serif" font-size="11.00" fill="#000000">1 &gt;</text>
<polygon fill="#000000" stroke="#000000" points="63,-44.2 63,-61.2 63,-61.2 63,-44.2 63,-44.2"/>
<polygon fill="#000000" stroke="#000000" points="117,-44.2 117,-61.2 117,-61.2 117,-44.2 117,-44.2"/>
</a>
</g>
</g>
<!-- act_dmn_deployment_resource&#45;&gt;act_dmn_deployment -->
<g id="edge1" class="edge">
<title>act_dmn_deployment_resource:w&#45;&gt;act_dmn_deployment:e</title>
<path fill="none" stroke="#000000" d="M216.276,-92.2C204.2815,-92.2 196.8229,-92.2 180,-92.2"/>
<polygon fill="#000000" stroke="#000000" points="223,-92.2001 231,-95.8 227,-92.2 231,-92.2 231,-92.2 231,-92.2 227,-92.2 231,-88.6 223,-92.2001 223,-92.2001"/>
<ellipse fill="none" stroke="#000000" cx="219.8" cy="-92.2001" rx="3.2" ry="3.2"/>
</g>
</g>
</svg>
