<?xml version="1.0" encoding="UTF-8" standalone="no"?>
<!DOCTYPE svg PUBLIC "-//W3C//DTD SVG 1.1//EN"
 "http://www.w3.org/Graphics/SVG/1.1/DTD/svg11.dtd">
<!-- Generated by graphviz version 2.40.1 (20161225.0304)
 -->
<!-- Title: twoDegreesRelationshipsDiagram Pages: 1 -->
<svg width="668pt" height="1265pt"
 viewBox="0.00 0.00 668.00 1265.20" xmlns="http://www.w3.org/2000/svg" xmlns:xlink="http://www.w3.org/1999/xlink">
<g id="graph0" class="graph" transform="scale(1 1) rotate(0) translate(4 1261.2)">
<title>twoDegreesRelationshipsDiagram</title>
<polygon fill="#ffffff" stroke="transparent" points="-4,4 -4,-1261.2 664,-1261.2 664,4 -4,4"/>
<text text-anchor="middle" x="72.4936" y="-7.3" font-family="Helvetica,sans-Serif" font-size="11.00" fill="#000000">Generated by SchemaSpy</text>
<!-- act_ge_bytearray -->
<g id="node1" class="node">
<title>act_ge_bytearray</title>
<g id="a_node1"><a xlink:href="../../tables/act_ge_bytearray.html" xlink:title="act_ge_bytearray" target="_top">
<polygon fill="#ffffff" stroke="transparent" points="214,-372.2 214,-477.2 359,-477.2 359,-372.2 214,-372.2"/>
<polygon fill="#f5f5f5" stroke="transparent" points="214.5,-453.7 214.5,-476.7 359.5,-476.7 359.5,-453.7 214.5,-453.7"/>
<polygon fill="none" stroke="#000000" points="214.5,-453.7 214.5,-476.7 359.5,-476.7 359.5,-453.7 214.5,-453.7"/>
<text text-anchor="start" x="219.5" y="-462.3" font-family="Helvetica,sans-Serif" font-weight="bold" font-size="11.00" fill="#000000">act_ge_bytearray</text>
<text text-anchor="start" x="325.0219" y="-461.8" font-family="Helvetica,sans-Serif" font-size="11.00" fill="#000000">[table]</text>
<polygon fill="none" stroke="#000000" points="214.5,-431.7 214.5,-453.7 359.5,-453.7 359.5,-431.7 214.5,-431.7"/>
<image xlink:href="../../images/primaryKeys.png" width="11px" height="12px" preserveAspectRatio="xMinYMin meet" x="219.5" y="-448.7"/>
<text text-anchor="start" x="243.5" y="-438.8" font-family="Helvetica,sans-Serif" font-size="11.00" fill="#000000">id_</text>
<polygon fill="#ffffff" stroke="transparent" points="214.5,-409.7 214.5,-431.7 359.5,-431.7 359.5,-409.7 214.5,-409.7"/>
<polygon fill="none" stroke="#000000" points="214.5,-409.7 214.5,-431.7 359.5,-431.7 359.5,-409.7 214.5,-409.7"/>
<image xlink:href="../../images/foreignKeys.png" width="11px" height="12px" preserveAspectRatio="xMinYMin meet" x="219.5" y="-426.7"/>
<text text-anchor="start" x="243.5" y="-416.8" font-family="Helvetica,sans-Serif" font-size="11.00" fill="#000000">deployment_id_</text>
<polygon fill="none" stroke="#000000" points="214.5,-390.7 214.5,-409.7 359.5,-409.7 359.5,-390.7 214.5,-390.7"/>
<text text-anchor="start" x="217.5" y="-396.8" font-family="Helvetica,sans-Serif" font-size="11.00" fill="#000000">...</text>
<polygon fill="#ffffff" stroke="transparent" points="214.5,-371.7 214.5,-390.7 359.5,-390.7 359.5,-371.7 214.5,-371.7"/>
<polygon fill="none" stroke="#000000" points="214.5,-371.7 214.5,-390.7 359.5,-390.7 359.5,-371.7 214.5,-371.7"/>
<polygon fill="#ffffff" stroke="transparent" points="215.5,-372.7 215.5,-389.7 264.5,-389.7 264.5,-372.7 215.5,-372.7"/>
<text text-anchor="start" x="217.5" y="-377.8" font-family="Helvetica,sans-Serif" font-size="11.00" fill="#000000">&lt; 1</text>
<polygon fill="#ffffff" stroke="transparent" points="264.5,-372.7 264.5,-389.7 304.5,-389.7 304.5,-372.7 264.5,-372.7"/>
<text text-anchor="start" x="281.4431" y="-377.8" font-family="Helvetica,sans-Serif" font-size="11.00" fill="#000000"> &#160;</text>
<polygon fill="#ffffff" stroke="transparent" points="304.5,-372.7 304.5,-389.7 358.5,-389.7 358.5,-372.7 304.5,-372.7"/>
<text text-anchor="start" x="334.7904" y="-377.8" font-family="Helvetica,sans-Serif" font-size="11.00" fill="#000000">14 &gt;</text>
<polygon fill="#000000" stroke="#000000" points="264.5,-372.7 264.5,-389.7 264.5,-389.7 264.5,-372.7 264.5,-372.7"/>
<polygon fill="#000000" stroke="#000000" points="304.5,-372.7 304.5,-389.7 304.5,-389.7 304.5,-372.7 304.5,-372.7"/>
</a>
</g>
</g>
<!-- act_re_deployment -->
<g id="node2" class="node">
<title>act_re_deployment</title>
<g id="a_node2"><a xlink:href="../../tables/act_re_deployment.html" xlink:title="act_re_deployment" target="_top">
<polygon fill="#ffffff" stroke="transparent" points="8,-613.2 8,-674.2 165,-674.2 165,-613.2 8,-613.2"/>
<polygon fill="#f5f5f5" stroke="transparent" points="8.5,-650.7 8.5,-673.7 165.5,-673.7 165.5,-650.7 8.5,-650.7"/>
<polygon fill="none" stroke="#000000" points="8.5,-650.7 8.5,-673.7 165.5,-673.7 165.5,-650.7 8.5,-650.7"/>
<text text-anchor="start" x="13.5" y="-659.3" font-family="Helvetica,sans-Serif" font-weight="bold" font-size="11.00" fill="#000000">act_re_deployment</text>
<text text-anchor="start" x="131.0219" y="-658.8" font-family="Helvetica,sans-Serif" font-size="11.00" fill="#000000">[table]</text>
<polygon fill="none" stroke="#000000" points="8.5,-631.7 8.5,-650.7 165.5,-650.7 165.5,-631.7 8.5,-631.7"/>
<text text-anchor="start" x="11.5" y="-637.8" font-family="Helvetica,sans-Serif" font-size="11.00" fill="#000000">...</text>
<polygon fill="#ffffff" stroke="transparent" points="8.5,-612.7 8.5,-631.7 165.5,-631.7 165.5,-612.7 8.5,-612.7"/>
<polygon fill="none" stroke="#000000" points="8.5,-612.7 8.5,-631.7 165.5,-631.7 165.5,-612.7 8.5,-612.7"/>
<polygon fill="#ffffff" stroke="transparent" points="9.5,-613.7 9.5,-630.7 58.5,-630.7 58.5,-613.7 9.5,-613.7"/>
<text text-anchor="start" x="11.5" y="-618.8" font-family="Helvetica,sans-Serif" font-size="11.00" fill="#000000"> &#160;</text>
<polygon fill="#ffffff" stroke="transparent" points="58.5,-613.7 58.5,-630.7 107.5,-630.7 107.5,-613.7 58.5,-613.7"/>
<text text-anchor="start" x="79.9431" y="-618.8" font-family="Helvetica,sans-Serif" font-size="11.00" fill="#000000"> &#160;</text>
<polygon fill="#ffffff" stroke="transparent" points="107.5,-613.7 107.5,-630.7 164.5,-630.7 164.5,-613.7 107.5,-613.7"/>
<text text-anchor="start" x="146.9053" y="-618.8" font-family="Helvetica,sans-Serif" font-size="11.00" fill="#000000">2 &gt;</text>
<polygon fill="#000000" stroke="#000000" points="58.5,-613.7 58.5,-630.7 58.5,-630.7 58.5,-613.7 58.5,-613.7"/>
<polygon fill="#000000" stroke="#000000" points="107.5,-613.7 107.5,-630.7 107.5,-630.7 107.5,-613.7 107.5,-613.7"/>
</a>
</g>
</g>
<!-- act_ge_bytearray&#45;&gt;act_re_deployment -->
<g id="edge1" class="edge">
<title>act_ge_bytearray:w&#45;&gt;act_re_deployment:e</title>
<path fill="none" stroke="#000000" d="M199.8077,-422.7374C130.6642,-444.9161 259.9998,-640.7 165.5,-640.7"/>
<polygon fill="#000000" stroke="#000000" points="206.5758,-421.7989 214.9945,-424.2659 210.5379,-421.2495 214.5,-420.7 214.5,-420.7 214.5,-420.7 210.5379,-421.2495 214.0055,-417.1341 206.5758,-421.7989 206.5758,-421.7989"/>
<ellipse fill="none" stroke="#000000" cx="203.4062" cy="-422.2385" rx="3.2" ry="3.2"/>
</g>
<!-- act_procdef_info -->
<g id="node3" class="node">
<title>act_procdef_info</title>
<g id="a_node3"><a xlink:href="../../tables/act_procdef_info.html" xlink:title="act_procdef_info" target="_top">
<polygon fill="#ffffff" stroke="transparent" points="458.5,-1110.2 458.5,-1171.2 601.5,-1171.2 601.5,-1110.2 458.5,-1110.2"/>
<polygon fill="#f5f5f5" stroke="transparent" points="459,-1147.7 459,-1170.7 602,-1170.7 602,-1147.7 459,-1147.7"/>
<polygon fill="none" stroke="#000000" points="459,-1147.7 459,-1170.7 602,-1170.7 602,-1147.7 459,-1147.7"/>
<text text-anchor="start" x="464" y="-1156.3" font-family="Helvetica,sans-Serif" font-weight="bold" font-size="11.00" fill="#000000">act_procdef_info</text>
<text text-anchor="start" x="567.5219" y="-1155.8" font-family="Helvetica,sans-Serif" font-size="11.00" fill="#000000">[table]</text>
<polygon fill="none" stroke="#000000" points="459,-1128.7 459,-1147.7 602,-1147.7 602,-1128.7 459,-1128.7"/>
<text text-anchor="start" x="462" y="-1134.8" font-family="Helvetica,sans-Serif" font-size="11.00" fill="#000000">...</text>
<polygon fill="#ffffff" stroke="transparent" points="459,-1109.7 459,-1128.7 602,-1128.7 602,-1109.7 459,-1109.7"/>
<polygon fill="none" stroke="#000000" points="459,-1109.7 459,-1128.7 602,-1128.7 602,-1109.7 459,-1109.7"/>
<polygon fill="#ffffff" stroke="transparent" points="460,-1110.7 460,-1127.7 513,-1127.7 513,-1110.7 460,-1110.7"/>
<text text-anchor="start" x="462" y="-1115.8" font-family="Helvetica,sans-Serif" font-size="11.00" fill="#000000">&lt; 2</text>
<polygon fill="#ffffff" stroke="transparent" points="513,-1110.7 513,-1127.7 557,-1127.7 557,-1110.7 513,-1110.7"/>
<text text-anchor="start" x="531.9431" y="-1115.8" font-family="Helvetica,sans-Serif" font-size="11.00" fill="#000000"> &#160;</text>
<polygon fill="#ffffff" stroke="transparent" points="557,-1110.7 557,-1127.7 601,-1127.7 601,-1110.7 557,-1110.7"/>
<text text-anchor="start" x="592.8862" y="-1115.8" font-family="Helvetica,sans-Serif" font-size="11.00" fill="#000000"> &#160;</text>
<polygon fill="#000000" stroke="#000000" points="513,-1110.7 513,-1127.7 513,-1127.7 513,-1110.7 513,-1110.7"/>
<polygon fill="#000000" stroke="#000000" points="557,-1110.7 557,-1127.7 557,-1127.7 557,-1110.7 557,-1110.7"/>
</a>
</g>
</g>
<!-- act_procdef_info&#45;&gt;act_ge_bytearray -->
<g id="edge2" class="edge">
<title>act_procdef_info:w&#45;&gt;act_ge_bytearray:e</title>
<path fill="none" stroke="#000000" d="M444.4985,-1136.6932C423.5608,-1133.4205 413.0596,-1121.9848 400,-1099.7 363.0207,-1036.5986 432.6386,-442.7 359.5,-442.7"/>
<polygon fill="#000000" stroke="#000000" points="451.0192,-1137.1458 458.7506,-1141.2914 455.0096,-1137.4229 459,-1137.7 459,-1137.7 459,-1137.7 455.0096,-1137.4229 459.2494,-1134.1086 451.0192,-1137.1458 451.0192,-1137.1458"/>
<ellipse fill="none" stroke="#000000" cx="447.8269" cy="-1136.9242" rx="3.2" ry="3.2"/>
</g>
<!-- act_re_model -->
<g id="node4" class="node">
<title>act_re_model</title>
<g id="a_node4"><a xlink:href="../../tables/act_re_model.html" xlink:title="act_re_model" target="_top">
<polygon fill="#ffffff" stroke="transparent" points="469,-1192.2 469,-1253.2 591,-1253.2 591,-1192.2 469,-1192.2"/>
<polygon fill="#f5f5f5" stroke="transparent" points="469,-1229.7 469,-1252.7 591,-1252.7 591,-1229.7 469,-1229.7"/>
<polygon fill="none" stroke="#000000" points="469,-1229.7 469,-1252.7 591,-1252.7 591,-1229.7 469,-1229.7"/>
<text text-anchor="start" x="474" y="-1238.3" font-family="Helvetica,sans-Serif" font-weight="bold" font-size="11.00" fill="#000000">act_re_model</text>
<text text-anchor="start" x="556.5219" y="-1237.8" font-family="Helvetica,sans-Serif" font-size="11.00" fill="#000000">[table]</text>
<polygon fill="none" stroke="#000000" points="469,-1210.7 469,-1229.7 591,-1229.7 591,-1210.7 469,-1210.7"/>
<text text-anchor="start" x="472" y="-1216.8" font-family="Helvetica,sans-Serif" font-size="11.00" fill="#000000">...</text>
<polygon fill="#ffffff" stroke="transparent" points="469,-1191.7 469,-1210.7 591,-1210.7 591,-1191.7 469,-1191.7"/>
<polygon fill="none" stroke="#000000" points="469,-1191.7 469,-1210.7 591,-1210.7 591,-1191.7 469,-1191.7"/>
<polygon fill="#ffffff" stroke="transparent" points="470,-1192.7 470,-1209.7 516,-1209.7 516,-1192.7 470,-1192.7"/>
<text text-anchor="start" x="472" y="-1197.8" font-family="Helvetica,sans-Serif" font-size="11.00" fill="#000000">&lt; 3</text>
<polygon fill="#ffffff" stroke="transparent" points="516,-1192.7 516,-1209.7 553,-1209.7 553,-1192.7 516,-1192.7"/>
<text text-anchor="start" x="531.4431" y="-1197.8" font-family="Helvetica,sans-Serif" font-size="11.00" fill="#000000"> &#160;</text>
<polygon fill="#ffffff" stroke="transparent" points="553,-1192.7 553,-1209.7 590,-1209.7 590,-1192.7 553,-1192.7"/>
<text text-anchor="start" x="581.8862" y="-1197.8" font-family="Helvetica,sans-Serif" font-size="11.00" fill="#000000"> &#160;</text>
<polygon fill="#000000" stroke="#000000" points="516,-1192.7 516,-1209.7 516,-1209.7 516,-1192.7 516,-1192.7"/>
<polygon fill="#000000" stroke="#000000" points="553,-1192.7 553,-1209.7 553,-1209.7 553,-1192.7 553,-1192.7"/>
</a>
</g>
</g>
<!-- act_re_model&#45;&gt;act_ge_bytearray -->
<g id="edge4" class="edge">
<title>act_re_model:w&#45;&gt;act_ge_bytearray:e</title>
<path fill="none" stroke="#000000" d="M454.6335,-1216.8104C429.3578,-1210.7498 415.8633,-1200.9422 400,-1175.7 356.2435,-1106.0735 441.7343,-436.7 359.5,-442.7"/>
<polygon fill="#000000" stroke="#000000" points="461.1571,-1218.1225 468.2901,-1223.2293 465.0785,-1218.9112 469,-1219.7 469,-1219.7 469,-1219.7 465.0785,-1218.9112 469.7099,-1216.1707 461.1571,-1218.1225 461.1571,-1218.1225"/>
<ellipse fill="none" stroke="#000000" cx="458.0199" cy="-1217.4914" rx="3.2" ry="3.2"/>
</g>
<!-- act_re_model&#45;&gt;act_ge_bytearray -->
<g id="edge5" class="edge">
<title>act_re_model:w&#45;&gt;act_ge_bytearray:e</title>
<path fill="none" stroke="#000000" d="M454.6335,-1221.7826C429.3578,-1223.7498 415.8633,-1213.9422 400,-1188.7 356.2435,-1119.0735 441.7343,-449.7 359.5,-442.7"/>
<polygon fill="#000000" stroke="#000000" points="461.0828,-1220.8478 469.5165,-1223.2628 465.0414,-1220.2739 469,-1219.7 469,-1219.7 469,-1219.7 465.0414,-1220.2739 468.4835,-1216.1372 461.0828,-1220.8478 461.0828,-1220.8478"/>
<ellipse fill="none" stroke="#000000" cx="457.9159" cy="-1221.3069" rx="3.2" ry="3.2"/>
</g>
<!-- act_re_model&#45;&gt;act_re_deployment -->
<g id="edge3" class="edge">
<title>act_re_model:w&#45;&gt;act_re_deployment:e</title>
<path fill="none" stroke="#000000" d="M454.5961,-1219.1985C187.7785,-1200.0791 451.078,-640.7 165.5,-640.7"/>
<polygon fill="#000000" stroke="#000000" points="461.0048,-1219.4216 468.8747,-1223.2978 465.0024,-1219.5608 469,-1219.7 469,-1219.7 469,-1219.7 465.0024,-1219.5608 469.1253,-1216.1022 461.0048,-1219.4216 461.0048,-1219.4216"/>
<ellipse fill="none" stroke="#000000" cx="457.8068" cy="-1219.3102" rx="3.2" ry="3.2"/>
</g>
<!-- act_ru_deadletter_job -->
<g id="node5" class="node">
<title>act_ru_deadletter_job</title>
<g id="a_node5"><a xlink:href="../../tables/act_ru_deadletter_job.html" xlink:title="act_ru_deadletter_job" target="_top">
<polygon fill="#ffffff" stroke="transparent" points="443,-1028.2 443,-1089.2 617,-1089.2 617,-1028.2 443,-1028.2"/>
<polygon fill="#f5f5f5" stroke="transparent" points="443,-1065.7 443,-1088.7 617,-1088.7 617,-1065.7 443,-1065.7"/>
<polygon fill="none" stroke="#000000" points="443,-1065.7 443,-1088.7 617,-1088.7 617,-1065.7 443,-1065.7"/>
<text text-anchor="start" x="448" y="-1074.3" font-family="Helvetica,sans-Serif" font-weight="bold" font-size="11.00" fill="#000000">act_ru_deadletter_job</text>
<text text-anchor="start" x="582.5219" y="-1073.8" font-family="Helvetica,sans-Serif" font-size="11.00" fill="#000000">[table]</text>
<polygon fill="none" stroke="#000000" points="443,-1046.7 443,-1065.7 617,-1065.7 617,-1046.7 443,-1046.7"/>
<text text-anchor="start" x="446" y="-1052.8" font-family="Helvetica,sans-Serif" font-size="11.00" fill="#000000">...</text>
<polygon fill="#ffffff" stroke="transparent" points="443,-1027.7 443,-1046.7 617,-1046.7 617,-1027.7 443,-1027.7"/>
<polygon fill="none" stroke="#000000" points="443,-1027.7 443,-1046.7 617,-1046.7 617,-1027.7 443,-1027.7"/>
<polygon fill="#ffffff" stroke="transparent" points="444,-1028.7 444,-1045.7 508,-1045.7 508,-1028.7 444,-1028.7"/>
<text text-anchor="start" x="446" y="-1033.8" font-family="Helvetica,sans-Serif" font-size="11.00" fill="#000000">&lt; 5</text>
<polygon fill="#ffffff" stroke="transparent" points="508,-1028.7 508,-1045.7 562,-1045.7 562,-1028.7 508,-1028.7"/>
<text text-anchor="start" x="531.9431" y="-1033.8" font-family="Helvetica,sans-Serif" font-size="11.00" fill="#000000"> &#160;</text>
<polygon fill="#ffffff" stroke="transparent" points="562,-1028.7 562,-1045.7 616,-1045.7 616,-1028.7 562,-1028.7"/>
<text text-anchor="start" x="607.8862" y="-1033.8" font-family="Helvetica,sans-Serif" font-size="11.00" fill="#000000"> &#160;</text>
<polygon fill="#000000" stroke="#000000" points="508,-1028.7 508,-1045.7 508,-1045.7 508,-1028.7 508,-1028.7"/>
<polygon fill="#000000" stroke="#000000" points="562,-1028.7 562,-1045.7 562,-1045.7 562,-1028.7 562,-1028.7"/>
</a>
</g>
</g>
<!-- act_ru_deadletter_job&#45;&gt;act_ge_bytearray -->
<g id="edge6" class="edge">
<title>act_ru_deadletter_job:w&#45;&gt;act_ge_bytearray:e</title>
<path fill="none" stroke="#000000" d="M429.208,-1050.6973C414.6523,-1042.972 408.9105,-1029.7443 400,-1011.7 371.642,-954.273 423.5472,-436.7 359.5,-442.7"/>
<polygon fill="#000000" stroke="#000000" points="435.4795,-1052.9721 441.7724,-1059.0842 439.2397,-1054.336 443,-1055.7 443,-1055.7 443,-1055.7 439.2397,-1054.336 444.2276,-1052.3158 435.4795,-1052.9721 435.4795,-1052.9721"/>
<ellipse fill="none" stroke="#000000" cx="432.4712" cy="-1051.8809" rx="3.2" ry="3.2"/>
</g>
<!-- act_ru_deadletter_job&#45;&gt;act_ge_bytearray -->
<g id="edge7" class="edge">
<title>act_ru_deadletter_job:w&#45;&gt;act_ge_bytearray:e</title>
<path fill="none" stroke="#000000" d="M428.3536,-1057.2171C414.4236,-1055.4462 408.734,-1042.387 400,-1024.7 371.642,-967.273 423.5472,-449.7 359.5,-442.7"/>
<polygon fill="#000000" stroke="#000000" points="435.0426,-1056.5243 443.3709,-1059.2808 439.0213,-1056.1121 443,-1055.7 443,-1055.7 443,-1055.7 439.0213,-1056.1121 442.6291,-1052.1192 435.0426,-1056.5243 435.0426,-1056.5243"/>
<ellipse fill="none" stroke="#000000" cx="431.8596" cy="-1056.854" rx="3.2" ry="3.2"/>
</g>
<!-- act_ru_external_job -->
<g id="node6" class="node">
<title>act_ru_external_job</title>
<g id="a_node6"><a xlink:href="../../tables/act_ru_external_job.html" xlink:title="act_ru_external_job" target="_top">
<polygon fill="#ffffff" stroke="transparent" points="408,-366.7 408,-1006.7 652,-1006.7 652,-366.7 408,-366.7"/>
<polygon fill="#f5f5f5" stroke="transparent" points="410,-981.7 410,-1004.7 650,-1004.7 650,-981.7 410,-981.7"/>
<polygon fill="none" stroke="#000000" points="410,-981.7 410,-1004.7 650,-1004.7 650,-981.7 410,-981.7"/>
<text text-anchor="start" x="415" y="-990.3" font-family="Helvetica,sans-Serif" font-weight="bold" font-size="11.00" fill="#000000">act_ru_external_job</text>
<text text-anchor="start" x="615.0437" y="-989.8" font-family="Helvetica,sans-Serif" font-size="11.00" fill="#000000">[table]</text>
<polygon fill="none" stroke="#000000" points="410,-959.7 410,-981.7 566,-981.7 566,-959.7 410,-959.7"/>
<image xlink:href="../../images/primaryKeys.png" width="11px" height="12px" preserveAspectRatio="xMinYMin meet" x="415" y="-976.7"/>
<text text-anchor="start" x="430" y="-966.8" font-family="Helvetica,sans-Serif" font-size="11.00" fill="#000000">id_</text>
<polygon fill="none" stroke="#000000" points="566,-959.7 566,-981.7 650,-981.7 650,-959.7 566,-959.7"/>
<text text-anchor="start" x="569" y="-967.4" font-family="Helvetica,sans-Serif" font-size="11.00" fill="#000000">varchar[64]</text>
<polygon fill="none" stroke="#000000" points="410,-937.7 410,-959.7 566,-959.7 566,-937.7 410,-937.7"/>
<text text-anchor="start" x="430" y="-944.8" font-family="Helvetica,sans-Serif" font-size="11.00" fill="#000000">rev_</text>
<polygon fill="none" stroke="#000000" points="566,-937.7 566,-959.7 650,-959.7 650,-937.7 566,-937.7"/>
<text text-anchor="start" x="569" y="-945.4" font-family="Helvetica,sans-Serif" font-size="11.00" fill="#000000">int4[10]</text>
<polygon fill="none" stroke="#000000" points="410,-915.7 410,-937.7 566,-937.7 566,-915.7 410,-915.7"/>
<text text-anchor="start" x="430" y="-922.8" font-family="Helvetica,sans-Serif" font-size="11.00" fill="#000000">category_</text>
<polygon fill="none" stroke="#000000" points="566,-915.7 566,-937.7 650,-937.7 650,-915.7 566,-915.7"/>
<text text-anchor="start" x="569" y="-923.4" font-family="Helvetica,sans-Serif" font-size="11.00" fill="#000000">varchar[255]</text>
<polygon fill="none" stroke="#000000" points="410,-893.7 410,-915.7 566,-915.7 566,-893.7 410,-893.7"/>
<text text-anchor="start" x="430" y="-900.8" font-family="Helvetica,sans-Serif" font-size="11.00" fill="#000000">type_</text>
<polygon fill="none" stroke="#000000" points="566,-893.7 566,-915.7 650,-915.7 650,-893.7 566,-893.7"/>
<text text-anchor="start" x="569" y="-901.4" font-family="Helvetica,sans-Serif" font-size="11.00" fill="#000000">varchar[255]</text>
<polygon fill="none" stroke="#000000" points="410,-871.7 410,-893.7 566,-893.7 566,-871.7 410,-871.7"/>
<text text-anchor="start" x="430" y="-878.8" font-family="Helvetica,sans-Serif" font-size="11.00" fill="#000000">lock_exp_time_</text>
<polygon fill="none" stroke="#000000" points="566,-871.7 566,-893.7 650,-893.7 650,-871.7 566,-871.7"/>
<text text-anchor="start" x="568.8807" y="-879.4" font-family="Helvetica,sans-Serif" font-size="11.00" fill="#000000">timestamp[29,6]</text>
<polygon fill="none" stroke="#000000" points="410,-849.7 410,-871.7 566,-871.7 566,-849.7 410,-849.7"/>
<text text-anchor="start" x="430" y="-856.8" font-family="Helvetica,sans-Serif" font-size="11.00" fill="#000000">lock_owner_</text>
<polygon fill="none" stroke="#000000" points="566,-849.7 566,-871.7 650,-871.7 650,-849.7 566,-849.7"/>
<text text-anchor="start" x="569" y="-857.4" font-family="Helvetica,sans-Serif" font-size="11.00" fill="#000000">varchar[255]</text>
<polygon fill="none" stroke="#000000" points="410,-827.7 410,-849.7 566,-849.7 566,-827.7 410,-827.7"/>
<text text-anchor="start" x="430" y="-834.8" font-family="Helvetica,sans-Serif" font-size="11.00" fill="#000000">exclusive_</text>
<polygon fill="none" stroke="#000000" points="566,-827.7 566,-849.7 650,-849.7 650,-827.7 566,-827.7"/>
<text text-anchor="start" x="569" y="-835.4" font-family="Helvetica,sans-Serif" font-size="11.00" fill="#000000">bool[1]</text>
<polygon fill="none" stroke="#000000" points="410,-805.7 410,-827.7 566,-827.7 566,-805.7 410,-805.7"/>
<text text-anchor="start" x="430" y="-812.8" font-family="Helvetica,sans-Serif" font-size="11.00" fill="#000000">execution_id_</text>
<polygon fill="none" stroke="#000000" points="566,-805.7 566,-827.7 650,-827.7 650,-805.7 566,-805.7"/>
<text text-anchor="start" x="569" y="-813.4" font-family="Helvetica,sans-Serif" font-size="11.00" fill="#000000">varchar[64]</text>
<polygon fill="none" stroke="#000000" points="410,-783.7 410,-805.7 566,-805.7 566,-783.7 410,-783.7"/>
<text text-anchor="start" x="430" y="-790.8" font-family="Helvetica,sans-Serif" font-size="11.00" fill="#000000">process_instance_id_</text>
<polygon fill="none" stroke="#000000" points="566,-783.7 566,-805.7 650,-805.7 650,-783.7 566,-783.7"/>
<text text-anchor="start" x="569" y="-791.4" font-family="Helvetica,sans-Serif" font-size="11.00" fill="#000000">varchar[64]</text>
<polygon fill="none" stroke="#000000" points="410,-761.7 410,-783.7 566,-783.7 566,-761.7 410,-761.7"/>
<text text-anchor="start" x="430" y="-768.8" font-family="Helvetica,sans-Serif" font-size="11.00" fill="#000000">proc_def_id_</text>
<polygon fill="none" stroke="#000000" points="566,-761.7 566,-783.7 650,-783.7 650,-761.7 566,-761.7"/>
<text text-anchor="start" x="569" y="-769.4" font-family="Helvetica,sans-Serif" font-size="11.00" fill="#000000">varchar[64]</text>
<polygon fill="none" stroke="#000000" points="410,-739.7 410,-761.7 566,-761.7 566,-739.7 410,-739.7"/>
<text text-anchor="start" x="430" y="-746.8" font-family="Helvetica,sans-Serif" font-size="11.00" fill="#000000">element_id_</text>
<polygon fill="none" stroke="#000000" points="566,-739.7 566,-761.7 650,-761.7 650,-739.7 566,-739.7"/>
<text text-anchor="start" x="569" y="-747.4" font-family="Helvetica,sans-Serif" font-size="11.00" fill="#000000">varchar[255]</text>
<polygon fill="none" stroke="#000000" points="410,-717.7 410,-739.7 566,-739.7 566,-717.7 410,-717.7"/>
<text text-anchor="start" x="430" y="-724.8" font-family="Helvetica,sans-Serif" font-size="11.00" fill="#000000">element_name_</text>
<polygon fill="none" stroke="#000000" points="566,-717.7 566,-739.7 650,-739.7 650,-717.7 566,-717.7"/>
<text text-anchor="start" x="569" y="-725.4" font-family="Helvetica,sans-Serif" font-size="11.00" fill="#000000">varchar[255]</text>
<polygon fill="#ffffff" stroke="transparent" points="410,-695.7 410,-717.7 566,-717.7 566,-695.7 410,-695.7"/>
<polygon fill="none" stroke="#000000" points="410,-695.7 410,-717.7 566,-717.7 566,-695.7 410,-695.7"/>
<text text-anchor="start" x="430" y="-702.8" font-family="Helvetica,sans-Serif" font-size="11.00" fill="#000000">scope_id_</text>
<polygon fill="none" stroke="#000000" points="566,-695.7 566,-717.7 650,-717.7 650,-695.7 566,-695.7"/>
<text text-anchor="start" x="569" y="-703.4" font-family="Helvetica,sans-Serif" font-size="11.00" fill="#000000">varchar[255]</text>
<polygon fill="#ffffff" stroke="transparent" points="410,-673.7 410,-695.7 566,-695.7 566,-673.7 410,-673.7"/>
<polygon fill="none" stroke="#000000" points="410,-673.7 410,-695.7 566,-695.7 566,-673.7 410,-673.7"/>
<text text-anchor="start" x="430" y="-680.8" font-family="Helvetica,sans-Serif" font-size="11.00" fill="#000000">sub_scope_id_</text>
<polygon fill="none" stroke="#000000" points="566,-673.7 566,-695.7 650,-695.7 650,-673.7 566,-673.7"/>
<text text-anchor="start" x="569" y="-681.4" font-family="Helvetica,sans-Serif" font-size="11.00" fill="#000000">varchar[255]</text>
<polygon fill="#ffffff" stroke="transparent" points="410,-651.7 410,-673.7 566,-673.7 566,-651.7 410,-651.7"/>
<polygon fill="none" stroke="#000000" points="410,-651.7 410,-673.7 566,-673.7 566,-651.7 410,-651.7"/>
<text text-anchor="start" x="430" y="-658.8" font-family="Helvetica,sans-Serif" font-size="11.00" fill="#000000">scope_type_</text>
<polygon fill="none" stroke="#000000" points="566,-651.7 566,-673.7 650,-673.7 650,-651.7 566,-651.7"/>
<text text-anchor="start" x="569" y="-659.4" font-family="Helvetica,sans-Serif" font-size="11.00" fill="#000000">varchar[255]</text>
<polygon fill="#ffffff" stroke="transparent" points="410,-629.7 410,-651.7 566,-651.7 566,-629.7 410,-629.7"/>
<polygon fill="none" stroke="#000000" points="410,-629.7 410,-651.7 566,-651.7 566,-629.7 410,-629.7"/>
<text text-anchor="start" x="430" y="-636.8" font-family="Helvetica,sans-Serif" font-size="11.00" fill="#000000">scope_definition_id_</text>
<polygon fill="none" stroke="#000000" points="566,-629.7 566,-651.7 650,-651.7 650,-629.7 566,-629.7"/>
<text text-anchor="start" x="569" y="-637.4" font-family="Helvetica,sans-Serif" font-size="11.00" fill="#000000">varchar[255]</text>
<polygon fill="#ffffff" stroke="transparent" points="410,-607.7 410,-629.7 566,-629.7 566,-607.7 410,-607.7"/>
<polygon fill="none" stroke="#000000" points="410,-607.7 410,-629.7 566,-629.7 566,-607.7 410,-607.7"/>
<text text-anchor="start" x="430" y="-614.8" font-family="Helvetica,sans-Serif" font-size="11.00" fill="#000000">correlation_id_</text>
<polygon fill="none" stroke="#000000" points="566,-607.7 566,-629.7 650,-629.7 650,-607.7 566,-607.7"/>
<text text-anchor="start" x="569" y="-615.4" font-family="Helvetica,sans-Serif" font-size="11.00" fill="#000000">varchar[255]</text>
<polygon fill="none" stroke="#000000" points="410,-585.7 410,-607.7 566,-607.7 566,-585.7 410,-585.7"/>
<text text-anchor="start" x="430" y="-592.8" font-family="Helvetica,sans-Serif" font-size="11.00" fill="#000000">retries_</text>
<polygon fill="none" stroke="#000000" points="566,-585.7 566,-607.7 650,-607.7 650,-585.7 566,-585.7"/>
<text text-anchor="start" x="569" y="-593.4" font-family="Helvetica,sans-Serif" font-size="11.00" fill="#000000">int4[10]</text>
<polygon fill="#ffffff" stroke="transparent" points="410,-563.7 410,-585.7 566,-585.7 566,-563.7 410,-563.7"/>
<polygon fill="none" stroke="#000000" points="410,-563.7 410,-585.7 566,-585.7 566,-563.7 410,-563.7"/>
<image xlink:href="../../images/foreignKeys.png" width="11px" height="12px" preserveAspectRatio="xMinYMin meet" x="415" y="-580.7"/>
<text text-anchor="start" x="430" y="-570.8" font-family="Helvetica,sans-Serif" font-size="11.00" fill="#000000">exception_stack_id_</text>
<polygon fill="none" stroke="#000000" points="566,-563.7 566,-585.7 650,-585.7 650,-563.7 566,-563.7"/>
<text text-anchor="start" x="569" y="-571.4" font-family="Helvetica,sans-Serif" font-size="11.00" fill="#000000">varchar[64]</text>
<polygon fill="none" stroke="#000000" points="410,-541.7 410,-563.7 566,-563.7 566,-541.7 410,-541.7"/>
<text text-anchor="start" x="430" y="-548.8" font-family="Helvetica,sans-Serif" font-size="11.00" fill="#000000">exception_msg_</text>
<polygon fill="none" stroke="#000000" points="566,-541.7 566,-563.7 650,-563.7 650,-541.7 566,-541.7"/>
<text text-anchor="start" x="569" y="-549.4" font-family="Helvetica,sans-Serif" font-size="11.00" fill="#000000">varchar[4000]</text>
<polygon fill="none" stroke="#000000" points="410,-519.7 410,-541.7 566,-541.7 566,-519.7 410,-519.7"/>
<text text-anchor="start" x="430" y="-526.8" font-family="Helvetica,sans-Serif" font-size="11.00" fill="#000000">duedate_</text>
<polygon fill="none" stroke="#000000" points="566,-519.7 566,-541.7 650,-541.7 650,-519.7 566,-519.7"/>
<text text-anchor="start" x="568.8807" y="-527.4" font-family="Helvetica,sans-Serif" font-size="11.00" fill="#000000">timestamp[29,6]</text>
<polygon fill="none" stroke="#000000" points="410,-497.7 410,-519.7 566,-519.7 566,-497.7 410,-497.7"/>
<text text-anchor="start" x="430" y="-504.8" font-family="Helvetica,sans-Serif" font-size="11.00" fill="#000000">repeat_</text>
<polygon fill="none" stroke="#000000" points="566,-497.7 566,-519.7 650,-519.7 650,-497.7 566,-497.7"/>
<text text-anchor="start" x="569" y="-505.4" font-family="Helvetica,sans-Serif" font-size="11.00" fill="#000000">varchar[255]</text>
<polygon fill="none" stroke="#000000" points="410,-475.7 410,-497.7 566,-497.7 566,-475.7 410,-475.7"/>
<text text-anchor="start" x="430" y="-482.8" font-family="Helvetica,sans-Serif" font-size="11.00" fill="#000000">handler_type_</text>
<polygon fill="none" stroke="#000000" points="566,-475.7 566,-497.7 650,-497.7 650,-475.7 566,-475.7"/>
<text text-anchor="start" x="569" y="-483.4" font-family="Helvetica,sans-Serif" font-size="11.00" fill="#000000">varchar[255]</text>
<polygon fill="none" stroke="#000000" points="410,-453.7 410,-475.7 566,-475.7 566,-453.7 410,-453.7"/>
<text text-anchor="start" x="430" y="-460.8" font-family="Helvetica,sans-Serif" font-size="11.00" fill="#000000">handler_cfg_</text>
<polygon fill="none" stroke="#000000" points="566,-453.7 566,-475.7 650,-475.7 650,-453.7 566,-453.7"/>
<text text-anchor="start" x="569" y="-461.4" font-family="Helvetica,sans-Serif" font-size="11.00" fill="#000000">varchar[4000]</text>
<polygon fill="#ffffff" stroke="transparent" points="410,-431.7 410,-453.7 566,-453.7 566,-431.7 410,-431.7"/>
<polygon fill="none" stroke="#000000" points="410,-431.7 410,-453.7 566,-453.7 566,-431.7 410,-431.7"/>
<image xlink:href="../../images/foreignKeys.png" width="11px" height="12px" preserveAspectRatio="xMinYMin meet" x="415" y="-448.7"/>
<text text-anchor="start" x="430" y="-438.8" font-family="Helvetica,sans-Serif" font-size="11.00" fill="#000000">custom_values_id_</text>
<polygon fill="none" stroke="#000000" points="566,-431.7 566,-453.7 650,-453.7 650,-431.7 566,-431.7"/>
<text text-anchor="start" x="569" y="-439.4" font-family="Helvetica,sans-Serif" font-size="11.00" fill="#000000">varchar[64]</text>
<polygon fill="none" stroke="#000000" points="410,-409.7 410,-431.7 566,-431.7 566,-409.7 410,-409.7"/>
<text text-anchor="start" x="430" y="-416.8" font-family="Helvetica,sans-Serif" font-size="11.00" fill="#000000">create_time_</text>
<polygon fill="none" stroke="#000000" points="566,-409.7 566,-431.7 650,-431.7 650,-409.7 566,-409.7"/>
<text text-anchor="start" x="568.8807" y="-417.4" font-family="Helvetica,sans-Serif" font-size="11.00" fill="#000000">timestamp[29,6]</text>
<polygon fill="none" stroke="#000000" points="410,-387.7 410,-409.7 566,-409.7 566,-387.7 410,-387.7"/>
<text text-anchor="start" x="430" y="-394.8" font-family="Helvetica,sans-Serif" font-size="11.00" fill="#000000">tenant_id_</text>
<polygon fill="none" stroke="#000000" points="566,-387.7 566,-409.7 650,-409.7 650,-387.7 566,-387.7"/>
<text text-anchor="start" x="569" y="-395.4" font-family="Helvetica,sans-Serif" font-size="11.00" fill="#000000">varchar[255]</text>
<polygon fill="#ffffff" stroke="transparent" points="410,-368.7 410,-387.7 650,-387.7 650,-368.7 410,-368.7"/>
<polygon fill="none" stroke="#000000" points="410,-368.7 410,-387.7 650,-387.7 650,-368.7 410,-368.7"/>
<polygon fill="#ffffff" stroke="transparent" points="411,-369.7 411,-386.7 494,-386.7 494,-369.7 411,-369.7"/>
<text text-anchor="start" x="413" y="-374.8" font-family="Helvetica,sans-Serif" font-size="11.00" fill="#000000">&lt; 2</text>
<polygon fill="#ffffff" stroke="transparent" points="494,-369.7 494,-386.7 567,-386.7 567,-369.7 494,-369.7"/>
<text text-anchor="start" x="527.4431" y="-374.8" font-family="Helvetica,sans-Serif" font-size="11.00" fill="#000000"> &#160;</text>
<polygon fill="#ffffff" stroke="transparent" points="567,-369.7 567,-386.7 649,-386.7 649,-369.7 567,-369.7"/>
<text text-anchor="start" x="631.4053" y="-374.8" font-family="Helvetica,sans-Serif" font-size="11.00" fill="#000000">0 &gt;</text>
<polygon fill="#000000" stroke="#000000" points="494,-369.7 494,-386.7 494,-386.7 494,-369.7 494,-369.7"/>
<polygon fill="#000000" stroke="#000000" points="567,-369.7 567,-386.7 567,-386.7 567,-369.7 567,-369.7"/>
<polygon fill="none" stroke="#000000" stroke-width="2" points="409,-367.7 409,-1005.7 651,-1005.7 651,-367.7 409,-367.7"/>
</a>
</g>
</g>
<!-- act_ru_external_job&#45;&gt;act_ge_bytearray -->
<g id="edge8" class="edge">
<title>act_ru_external_job:w&#45;&gt;act_ge_bytearray:e</title>
<path fill="none" stroke="#000000" d="M395.4203,-442.7C383.5435,-442.7 376.158,-442.7 359.5,-442.7"/>
<polygon fill="#000000" stroke="#000000" points="402,-442.7001 410,-446.3 406,-442.7 410,-442.7 410,-442.7 410,-442.7 406,-442.7 410,-439.1 402,-442.7001 402,-442.7001"/>
<ellipse fill="none" stroke="#000000" cx="398.8" cy="-442.7001" rx="3.2" ry="3.2"/>
</g>
<!-- act_ru_external_job&#45;&gt;act_ge_bytearray -->
<g id="edge9" class="edge">
<title>act_ru_external_job:w&#45;&gt;act_ge_bytearray:e</title>
<path fill="none" stroke="#000000" d="M395.7435,-571.4371C360.0605,-551.1102 416.4247,-442.7 359.5,-442.7"/>
<polygon fill="#000000" stroke="#000000" points="402.2016,-572.9151 409.1968,-578.2093 406.1008,-573.8076 410,-574.7 410,-574.7 410,-574.7 406.1008,-573.8076 410.8032,-571.1907 402.2016,-572.9151 402.2016,-572.9151"/>
<ellipse fill="none" stroke="#000000" cx="399.0823" cy="-572.2012" rx="3.2" ry="3.2"/>
</g>
<!-- act_ru_job -->
<g id="node7" class="node">
<title>act_ru_job</title>
<g id="a_node7"><a xlink:href="../../tables/act_ru_job.html" xlink:title="act_ru_job" target="_top">
<polygon fill="#ffffff" stroke="transparent" points="478,-284.2 478,-345.2 582,-345.2 582,-284.2 478,-284.2"/>
<polygon fill="#f5f5f5" stroke="transparent" points="478,-321.7 478,-344.7 582,-344.7 582,-321.7 478,-321.7"/>
<polygon fill="none" stroke="#000000" points="478,-321.7 478,-344.7 582,-344.7 582,-321.7 478,-321.7"/>
<text text-anchor="start" x="483" y="-330.3" font-family="Helvetica,sans-Serif" font-weight="bold" font-size="11.00" fill="#000000">act_ru_job</text>
<text text-anchor="start" x="547.5219" y="-329.8" font-family="Helvetica,sans-Serif" font-size="11.00" fill="#000000">[table]</text>
<polygon fill="none" stroke="#000000" points="478,-302.7 478,-321.7 582,-321.7 582,-302.7 478,-302.7"/>
<text text-anchor="start" x="481" y="-308.8" font-family="Helvetica,sans-Serif" font-size="11.00" fill="#000000">...</text>
<polygon fill="#ffffff" stroke="transparent" points="478,-283.7 478,-302.7 582,-302.7 582,-283.7 478,-283.7"/>
<polygon fill="none" stroke="#000000" points="478,-283.7 478,-302.7 582,-302.7 582,-283.7 478,-283.7"/>
<polygon fill="#ffffff" stroke="transparent" points="479,-284.7 479,-301.7 519,-301.7 519,-284.7 479,-284.7"/>
<text text-anchor="start" x="481" y="-289.8" font-family="Helvetica,sans-Serif" font-size="11.00" fill="#000000">&lt; 5</text>
<polygon fill="#ffffff" stroke="transparent" points="519,-284.7 519,-301.7 550,-301.7 550,-284.7 519,-284.7"/>
<text text-anchor="start" x="531.4431" y="-289.8" font-family="Helvetica,sans-Serif" font-size="11.00" fill="#000000"> &#160;</text>
<polygon fill="#ffffff" stroke="transparent" points="550,-284.7 550,-301.7 581,-301.7 581,-284.7 550,-284.7"/>
<text text-anchor="start" x="572.8862" y="-289.8" font-family="Helvetica,sans-Serif" font-size="11.00" fill="#000000"> &#160;</text>
<polygon fill="#000000" stroke="#000000" points="519,-284.7 519,-301.7 519,-301.7 519,-284.7 519,-284.7"/>
<polygon fill="#000000" stroke="#000000" points="550,-284.7 550,-301.7 550,-301.7 550,-284.7 550,-284.7"/>
</a>
</g>
</g>
<!-- act_ru_job&#45;&gt;act_ge_bytearray -->
<g id="edge10" class="edge">
<title>act_ru_job:w&#45;&gt;act_ge_bytearray:e</title>
<path fill="none" stroke="#000000" d="M463.4896,-310.4317C434.802,-310.0752 423.5001,-325.1597 400,-350.7 371.3933,-381.7902 401.7485,-436.7 359.5,-442.7"/>
<polygon fill="#000000" stroke="#000000" points="470.0304,-311.0034 477.6865,-315.2863 474.0152,-311.3517 478,-311.7 478,-311.7 478,-311.7 474.0152,-311.3517 478.3135,-308.1137 470.0304,-311.0034 470.0304,-311.0034"/>
<ellipse fill="none" stroke="#000000" cx="466.8425" cy="-310.7247" rx="3.2" ry="3.2"/>
</g>
<!-- act_ru_job&#45;&gt;act_ge_bytearray -->
<g id="edge11" class="edge">
<title>act_ru_job:w&#45;&gt;act_ge_bytearray:e</title>
<path fill="none" stroke="#000000" d="M463.8783,-314.8446C434.9036,-322.9395 423.606,-338.0447 400,-363.7 371.3933,-394.7902 401.7485,-449.7 359.5,-442.7"/>
<polygon fill="#000000" stroke="#000000" points="470.1913,-313.4389 478.7825,-315.2139 474.0956,-312.5695 478,-311.7 478,-311.7 478,-311.7 474.0956,-312.5695 477.2175,-308.1861 470.1913,-313.4389 470.1913,-313.4389"/>
<ellipse fill="none" stroke="#000000" cx="467.0678" cy="-314.1345" rx="3.2" ry="3.2"/>
</g>
<!-- act_ru_suspended_job -->
<g id="node8" class="node">
<title>act_ru_suspended_job</title>
<g id="a_node8"><a xlink:href="../../tables/act_ru_suspended_job.html" xlink:title="act_ru_suspended_job" target="_top">
<polygon fill="#ffffff" stroke="transparent" points="440,-202.2 440,-263.2 620,-263.2 620,-202.2 440,-202.2"/>
<polygon fill="#f5f5f5" stroke="transparent" points="440,-239.7 440,-262.7 620,-262.7 620,-239.7 440,-239.7"/>
<polygon fill="none" stroke="#000000" points="440,-239.7 440,-262.7 620,-262.7 620,-239.7 440,-239.7"/>
<text text-anchor="start" x="445" y="-248.3" font-family="Helvetica,sans-Serif" font-weight="bold" font-size="11.00" fill="#000000">act_ru_suspended_job</text>
<text text-anchor="start" x="585.5219" y="-247.8" font-family="Helvetica,sans-Serif" font-size="11.00" fill="#000000">[table]</text>
<polygon fill="none" stroke="#000000" points="440,-220.7 440,-239.7 620,-239.7 620,-220.7 440,-220.7"/>
<text text-anchor="start" x="443" y="-226.8" font-family="Helvetica,sans-Serif" font-size="11.00" fill="#000000">...</text>
<polygon fill="#ffffff" stroke="transparent" points="440,-201.7 440,-220.7 620,-220.7 620,-201.7 440,-201.7"/>
<polygon fill="none" stroke="#000000" points="440,-201.7 440,-220.7 620,-220.7 620,-201.7 440,-201.7"/>
<polygon fill="#ffffff" stroke="transparent" points="441,-202.7 441,-219.7 507,-219.7 507,-202.7 441,-202.7"/>
<text text-anchor="start" x="443" y="-207.8" font-family="Helvetica,sans-Serif" font-size="11.00" fill="#000000">&lt; 5</text>
<polygon fill="#ffffff" stroke="transparent" points="507,-202.7 507,-219.7 563,-219.7 563,-202.7 507,-202.7"/>
<text text-anchor="start" x="531.9431" y="-207.8" font-family="Helvetica,sans-Serif" font-size="11.00" fill="#000000"> &#160;</text>
<polygon fill="#ffffff" stroke="transparent" points="563,-202.7 563,-219.7 619,-219.7 619,-202.7 563,-202.7"/>
<text text-anchor="start" x="610.8862" y="-207.8" font-family="Helvetica,sans-Serif" font-size="11.00" fill="#000000"> &#160;</text>
<polygon fill="#000000" stroke="#000000" points="507,-202.7 507,-219.7 507,-219.7 507,-202.7 507,-202.7"/>
<polygon fill="#000000" stroke="#000000" points="563,-202.7 563,-219.7 563,-219.7 563,-202.7 563,-202.7"/>
</a>
</g>
</g>
<!-- act_ru_suspended_job&#45;&gt;act_ge_bytearray -->
<g id="edge12" class="edge">
<title>act_ru_suspended_job:w&#45;&gt;act_ge_bytearray:e</title>
<path fill="none" stroke="#000000" d="M425.4967,-229.4458C412.449,-233.1914 409.557,-249.6309 400,-267.7 363.8878,-335.9758 436.7378,-436.7 359.5,-442.7"/>
<polygon fill="#000000" stroke="#000000" points="432.0012,-229.5597 439.9369,-233.2994 436.0006,-229.6299 440,-229.7 440,-229.7 440,-229.7 436.0006,-229.6299 440.0631,-226.1006 432.0012,-229.5597 432.0012,-229.5597"/>
<ellipse fill="none" stroke="#000000" cx="428.8017" cy="-229.5036" rx="3.2" ry="3.2"/>
</g>
<!-- act_ru_suspended_job&#45;&gt;act_ge_bytearray -->
<g id="edge13" class="edge">
<title>act_ru_suspended_job:w&#45;&gt;act_ge_bytearray:e</title>
<path fill="none" stroke="#000000" d="M426.7113,-235.5623C412.6182,-245.1966 409.8466,-262.0834 400,-280.7 363.8878,-348.9758 436.7378,-449.7 359.5,-442.7"/>
<polygon fill="#000000" stroke="#000000" points="432.6806,-232.929 441.453,-232.9937 436.3403,-231.3145 440,-229.7 440,-229.7 440,-229.7 436.3403,-231.3145 438.547,-226.4063 432.6806,-232.929 432.6806,-232.929"/>
<ellipse fill="none" stroke="#000000" cx="429.7528" cy="-234.2206" rx="3.2" ry="3.2"/>
</g>
<!-- act_ru_timer_job -->
<g id="node9" class="node">
<title>act_ru_timer_job</title>
<g id="a_node9"><a xlink:href="../../tables/act_ru_timer_job.html" xlink:title="act_ru_timer_job" target="_top">
<polygon fill="#ffffff" stroke="transparent" points="458.5,-120.2 458.5,-181.2 601.5,-181.2 601.5,-120.2 458.5,-120.2"/>
<polygon fill="#f5f5f5" stroke="transparent" points="459,-157.7 459,-180.7 602,-180.7 602,-157.7 459,-157.7"/>
<polygon fill="none" stroke="#000000" points="459,-157.7 459,-180.7 602,-180.7 602,-157.7 459,-157.7"/>
<text text-anchor="start" x="464" y="-166.3" font-family="Helvetica,sans-Serif" font-weight="bold" font-size="11.00" fill="#000000">act_ru_timer_job</text>
<text text-anchor="start" x="567.5219" y="-165.8" font-family="Helvetica,sans-Serif" font-size="11.00" fill="#000000">[table]</text>
<polygon fill="none" stroke="#000000" points="459,-138.7 459,-157.7 602,-157.7 602,-138.7 459,-138.7"/>
<text text-anchor="start" x="462" y="-144.8" font-family="Helvetica,sans-Serif" font-size="11.00" fill="#000000">...</text>
<polygon fill="#ffffff" stroke="transparent" points="459,-119.7 459,-138.7 602,-138.7 602,-119.7 459,-119.7"/>
<polygon fill="none" stroke="#000000" points="459,-119.7 459,-138.7 602,-138.7 602,-119.7 459,-119.7"/>
<polygon fill="#ffffff" stroke="transparent" points="460,-120.7 460,-137.7 513,-137.7 513,-120.7 460,-120.7"/>
<text text-anchor="start" x="462" y="-125.8" font-family="Helvetica,sans-Serif" font-size="11.00" fill="#000000">&lt; 5</text>
<polygon fill="#ffffff" stroke="transparent" points="513,-120.7 513,-137.7 557,-137.7 557,-120.7 513,-120.7"/>
<text text-anchor="start" x="531.9431" y="-125.8" font-family="Helvetica,sans-Serif" font-size="11.00" fill="#000000"> &#160;</text>
<polygon fill="#ffffff" stroke="transparent" points="557,-120.7 557,-137.7 601,-137.7 601,-120.7 557,-120.7"/>
<text text-anchor="start" x="592.8862" y="-125.8" font-family="Helvetica,sans-Serif" font-size="11.00" fill="#000000"> &#160;</text>
<polygon fill="#000000" stroke="#000000" points="513,-120.7 513,-137.7 513,-137.7 513,-120.7 513,-120.7"/>
<polygon fill="#000000" stroke="#000000" points="557,-120.7 557,-137.7 557,-137.7 557,-120.7 557,-120.7"/>
</a>
</g>
</g>
<!-- act_ru_timer_job&#45;&gt;act_ge_bytearray -->
<g id="edge14" class="edge">
<title>act_ru_timer_job:w&#45;&gt;act_ge_bytearray:e</title>
<path fill="none" stroke="#000000" d="M444.651,-146.4811C423.0218,-147.2806 414.1758,-162.3169 400,-185.7 370.7101,-234.0142 415.9992,-436.7 359.5,-442.7"/>
<polygon fill="#000000" stroke="#000000" points="451.0287,-147.0228 458.6953,-151.2871 455.0144,-147.3614 459,-147.7 459,-147.7 459,-147.7 455.0144,-147.3614 459.3047,-144.1129 451.0287,-147.0228 451.0287,-147.0228"/>
<ellipse fill="none" stroke="#000000" cx="447.8402" cy="-146.7519" rx="3.2" ry="3.2"/>
</g>
<!-- act_ru_timer_job&#45;&gt;act_ge_bytearray -->
<g id="edge15" class="edge">
<title>act_ru_timer_job:w&#45;&gt;act_ge_bytearray:e</title>
<path fill="none" stroke="#000000" d="M444.955,-151.7699C423.1043,-160.1402 414.242,-175.2076 400,-198.7 370.7101,-247.0142 415.9992,-449.7 359.5,-442.7"/>
<polygon fill="#000000" stroke="#000000" points="451.3161,-149.9267 460.002,-151.1578 455.1581,-148.8133 459,-147.7 459,-147.7 459,-147.7 455.1581,-148.8133 457.998,-144.2422 451.3161,-149.9267 451.3161,-149.9267"/>
<ellipse fill="none" stroke="#000000" cx="448.2426" cy="-150.8173" rx="3.2" ry="3.2"/>
</g>
<!-- act_ru_variable -->
<g id="node10" class="node">
<title>act_ru_variable</title>
<g id="a_node10"><a xlink:href="../../tables/act_ru_variable.html" xlink:title="act_ru_variable" target="_top">
<polygon fill="#ffffff" stroke="transparent" points="463,-38.2 463,-99.2 597,-99.2 597,-38.2 463,-38.2"/>
<polygon fill="#f5f5f5" stroke="transparent" points="463,-75.7 463,-98.7 597,-98.7 597,-75.7 463,-75.7"/>
<polygon fill="none" stroke="#000000" points="463,-75.7 463,-98.7 597,-98.7 597,-75.7 463,-75.7"/>
<text text-anchor="start" x="468" y="-84.3" font-family="Helvetica,sans-Serif" font-weight="bold" font-size="11.00" fill="#000000">act_ru_variable</text>
<text text-anchor="start" x="562.5219" y="-83.8" font-family="Helvetica,sans-Serif" font-size="11.00" fill="#000000">[table]</text>
<polygon fill="none" stroke="#000000" points="463,-56.7 463,-75.7 597,-75.7 597,-56.7 463,-56.7"/>
<text text-anchor="start" x="466" y="-62.8" font-family="Helvetica,sans-Serif" font-size="11.00" fill="#000000">...</text>
<polygon fill="#ffffff" stroke="transparent" points="463,-37.7 463,-56.7 597,-56.7 597,-37.7 463,-37.7"/>
<polygon fill="none" stroke="#000000" points="463,-37.7 463,-56.7 597,-56.7 597,-37.7 463,-37.7"/>
<polygon fill="#ffffff" stroke="transparent" points="464,-38.7 464,-55.7 514,-55.7 514,-38.7 464,-38.7"/>
<text text-anchor="start" x="466" y="-43.8" font-family="Helvetica,sans-Serif" font-size="11.00" fill="#000000">&lt; 3</text>
<polygon fill="#ffffff" stroke="transparent" points="514,-38.7 514,-55.7 555,-55.7 555,-38.7 514,-38.7"/>
<text text-anchor="start" x="531.4431" y="-43.8" font-family="Helvetica,sans-Serif" font-size="11.00" fill="#000000"> &#160;</text>
<polygon fill="#ffffff" stroke="transparent" points="555,-38.7 555,-55.7 596,-55.7 596,-38.7 555,-38.7"/>
<text text-anchor="start" x="587.8862" y="-43.8" font-family="Helvetica,sans-Serif" font-size="11.00" fill="#000000"> &#160;</text>
<polygon fill="#000000" stroke="#000000" points="514,-38.7 514,-55.7 514,-55.7 514,-38.7 514,-38.7"/>
<polygon fill="#000000" stroke="#000000" points="555,-38.7 555,-55.7 555,-55.7 555,-38.7 555,-38.7"/>
</a>
</g>
</g>
<!-- act_ru_variable&#45;&gt;act_ge_bytearray -->
<g id="edge16" class="edge">
<title>act_ru_variable:w&#45;&gt;act_ge_bytearray:e</title>
<path fill="none" stroke="#000000" d="M448.5563,-66.7779C425.1749,-70.657 414.8423,-84.9999 400,-109.7 361.6044,-173.5966 434.0453,-442.7 359.5,-442.7"/>
<polygon fill="#000000" stroke="#000000" points="455.0222,-66.2954 463.2679,-69.29 459.0111,-65.9977 463,-65.7 463,-65.7 463,-65.7 459.0111,-65.9977 462.7321,-62.11 455.0222,-66.2954 455.0222,-66.2954"/>
<ellipse fill="none" stroke="#000000" cx="451.8311" cy="-66.5336" rx="3.2" ry="3.2"/>
</g>
</g>
</svg>
