<?xml version="1.0" encoding="UTF-8" standalone="no"?>
<!DOCTYPE svg PUBLIC "-//W3C//DTD SVG 1.1//EN"
 "http://www.w3.org/Graphics/SVG/1.1/DTD/svg11.dtd">
<!-- Generated by graphviz version 2.40.1 (20161225.0304)
 -->
<!-- Title: twoDegreesRelationshipsDiagram Pages: 1 -->
<svg width="901pt" height="1097pt"
 viewBox="0.00 0.00 901.00 1096.80" xmlns="http://www.w3.org/2000/svg" xmlns:xlink="http://www.w3.org/1999/xlink">
<g id="graph0" class="graph" transform="scale(1 1) rotate(0) translate(4 1092.7994)">
<title>twoDegreesRelationshipsDiagram</title>
<polygon fill="#ffffff" stroke="transparent" points="-4,4 -4,-1092.7994 897,-1092.7994 897,4 -4,4"/>
<text text-anchor="middle" x="72.4936" y="-7.3" font-family="Helvetica,sans-Serif" font-size="11.00" fill="#000000">Generated by SchemaSpy</text>
<!-- act_ru_deadletter_job -->
<g id="node1" class="node">
<title>act_ru_deadletter_job</title>
<g id="a_node1"><a xlink:href="../../tables/act_ru_deadletter_job.html" xlink:title="act_ru_deadletter_job" target="_top">
<polygon fill="#ffffff" stroke="transparent" points="472,-984.3229 472,-1045.3229 646,-1045.3229 646,-984.3229 472,-984.3229"/>
<polygon fill="#f5f5f5" stroke="transparent" points="472,-1021.8229 472,-1044.8229 646,-1044.8229 646,-1021.8229 472,-1021.8229"/>
<polygon fill="none" stroke="#000000" points="472,-1021.8229 472,-1044.8229 646,-1044.8229 646,-1021.8229 472,-1021.8229"/>
<text text-anchor="start" x="477" y="-1030.4229" font-family="Helvetica,sans-Serif" font-weight="bold" font-size="11.00" fill="#000000">act_ru_deadletter_job</text>
<text text-anchor="start" x="611.5219" y="-1029.9229" font-family="Helvetica,sans-Serif" font-size="11.00" fill="#000000">[table]</text>
<polygon fill="none" stroke="#000000" points="472,-1002.8229 472,-1021.8229 646,-1021.8229 646,-1002.8229 472,-1002.8229"/>
<text text-anchor="start" x="475" y="-1008.9229" font-family="Helvetica,sans-Serif" font-size="11.00" fill="#000000">...</text>
<polygon fill="#ffffff" stroke="transparent" points="472,-983.8229 472,-1002.8229 646,-1002.8229 646,-983.8229 472,-983.8229"/>
<polygon fill="none" stroke="#000000" points="472,-983.8229 472,-1002.8229 646,-1002.8229 646,-983.8229 472,-983.8229"/>
<polygon fill="#ffffff" stroke="transparent" points="473,-984.8229 473,-1001.8229 537,-1001.8229 537,-984.8229 473,-984.8229"/>
<text text-anchor="start" x="475" y="-989.9229" font-family="Helvetica,sans-Serif" font-size="11.00" fill="#000000">&lt; 5</text>
<polygon fill="#ffffff" stroke="transparent" points="537,-984.8229 537,-1001.8229 591,-1001.8229 591,-984.8229 537,-984.8229"/>
<text text-anchor="start" x="560.9431" y="-989.9229" font-family="Helvetica,sans-Serif" font-size="11.00" fill="#000000"> &#160;</text>
<polygon fill="#ffffff" stroke="transparent" points="591,-984.8229 591,-1001.8229 645,-1001.8229 645,-984.8229 591,-984.8229"/>
<text text-anchor="start" x="636.8862" y="-989.9229" font-family="Helvetica,sans-Serif" font-size="11.00" fill="#000000"> &#160;</text>
<polygon fill="#000000" stroke="#000000" points="537,-984.8229 537,-1001.8229 537,-1001.8229 537,-984.8229 537,-984.8229"/>
<polygon fill="#000000" stroke="#000000" points="591,-984.8229 591,-1001.8229 591,-1001.8229 591,-984.8229 591,-984.8229"/>
</a>
</g>
</g>
<!-- act_ru_execution -->
<g id="node2" class="node">
<title>act_ru_execution</title>
<g id="a_node2"><a xlink:href="../../tables/act_ru_execution.html" xlink:title="act_ru_execution" target="_top">
<polygon fill="#ffffff" stroke="transparent" points="189,-206.3229 189,-443.3229 386,-443.3229 386,-206.3229 189,-206.3229"/>
<polygon fill="#f5f5f5" stroke="transparent" points="189.5,-419.8229 189.5,-442.8229 386.5,-442.8229 386.5,-419.8229 189.5,-419.8229"/>
<polygon fill="none" stroke="#000000" points="189.5,-419.8229 189.5,-442.8229 386.5,-442.8229 386.5,-419.8229 189.5,-419.8229"/>
<text text-anchor="start" x="194.5" y="-428.4229" font-family="Helvetica,sans-Serif" font-weight="bold" font-size="11.00" fill="#000000">act_ru_execution</text>
<text text-anchor="start" x="351.5437" y="-427.9229" font-family="Helvetica,sans-Serif" font-size="11.00" fill="#000000">[table]</text>
<polygon fill="none" stroke="#000000" points="189.5,-397.8229 189.5,-419.8229 386.5,-419.8229 386.5,-397.8229 189.5,-397.8229"/>
<image xlink:href="../../images/primaryKeys.png" width="11px" height="12px" preserveAspectRatio="xMinYMin meet" x="194.5" y="-414.823"/>
<text text-anchor="start" x="209.5" y="-404.9229" font-family="Helvetica,sans-Serif" font-size="11.00" fill="#000000">id_</text>
<polygon fill="#ffffff" stroke="transparent" points="189.5,-375.8229 189.5,-397.8229 386.5,-397.8229 386.5,-375.8229 189.5,-375.8229"/>
<polygon fill="none" stroke="#000000" points="189.5,-375.8229 189.5,-397.8229 386.5,-397.8229 386.5,-375.8229 189.5,-375.8229"/>
<image xlink:href="../../images/foreignKeys.png" width="11px" height="12px" preserveAspectRatio="xMinYMin meet" x="194.5" y="-392.823"/>
<text text-anchor="start" x="209.5" y="-382.9229" font-family="Helvetica,sans-Serif" font-size="11.00" fill="#000000">proc_inst_id_</text>
<polygon fill="#ffffff" stroke="transparent" points="189.5,-353.8229 189.5,-375.8229 386.5,-375.8229 386.5,-353.8229 189.5,-353.8229"/>
<polygon fill="none" stroke="#000000" points="189.5,-353.8229 189.5,-375.8229 386.5,-375.8229 386.5,-353.8229 189.5,-353.8229"/>
<text text-anchor="start" x="209.5" y="-360.9229" font-family="Helvetica,sans-Serif" font-size="11.00" fill="#000000">business_key_</text>
<polygon fill="#ffffff" stroke="transparent" points="189.5,-331.8229 189.5,-353.8229 386.5,-353.8229 386.5,-331.8229 189.5,-331.8229"/>
<polygon fill="none" stroke="#000000" points="189.5,-331.8229 189.5,-353.8229 386.5,-353.8229 386.5,-331.8229 189.5,-331.8229"/>
<image xlink:href="../../images/foreignKeys.png" width="11px" height="12px" preserveAspectRatio="xMinYMin meet" x="194.5" y="-348.823"/>
<text text-anchor="start" x="209.5" y="-338.9229" font-family="Helvetica,sans-Serif" font-size="11.00" fill="#000000">parent_id_</text>
<polygon fill="#ffffff" stroke="transparent" points="189.5,-309.8229 189.5,-331.8229 386.5,-331.8229 386.5,-309.8229 189.5,-309.8229"/>
<polygon fill="none" stroke="#000000" points="189.5,-309.8229 189.5,-331.8229 386.5,-331.8229 386.5,-309.8229 189.5,-309.8229"/>
<image xlink:href="../../images/foreignKeys.png" width="11px" height="12px" preserveAspectRatio="xMinYMin meet" x="194.5" y="-326.823"/>
<text text-anchor="start" x="209.5" y="-316.9229" font-family="Helvetica,sans-Serif" font-size="11.00" fill="#000000">proc_def_id_</text>
<polygon fill="#ffffff" stroke="transparent" points="189.5,-287.8229 189.5,-309.8229 386.5,-309.8229 386.5,-287.8229 189.5,-287.8229"/>
<polygon fill="none" stroke="#000000" points="189.5,-287.8229 189.5,-309.8229 386.5,-309.8229 386.5,-287.8229 189.5,-287.8229"/>
<image xlink:href="../../images/foreignKeys.png" width="11px" height="12px" preserveAspectRatio="xMinYMin meet" x="194.5" y="-304.823"/>
<text text-anchor="start" x="209.5" y="-294.9229" font-family="Helvetica,sans-Serif" font-size="11.00" fill="#000000">super_exec_</text>
<polygon fill="#ffffff" stroke="transparent" points="189.5,-265.8229 189.5,-287.8229 386.5,-287.8229 386.5,-265.8229 189.5,-265.8229"/>
<polygon fill="none" stroke="#000000" points="189.5,-265.8229 189.5,-287.8229 386.5,-287.8229 386.5,-265.8229 189.5,-265.8229"/>
<text text-anchor="start" x="209.5" y="-272.9229" font-family="Helvetica,sans-Serif" font-size="11.00" fill="#000000">root_proc_inst_id_</text>
<polygon fill="#ffffff" stroke="transparent" points="189.5,-243.8229 189.5,-265.8229 386.5,-265.8229 386.5,-243.8229 189.5,-243.8229"/>
<polygon fill="none" stroke="#000000" points="189.5,-243.8229 189.5,-265.8229 386.5,-265.8229 386.5,-243.8229 189.5,-243.8229"/>
<text text-anchor="start" x="209.5" y="-250.9229" font-family="Helvetica,sans-Serif" font-size="11.00" fill="#000000">reference_id_</text>
<polygon fill="none" stroke="#000000" points="189.5,-224.8229 189.5,-243.8229 386.5,-243.8229 386.5,-224.8229 189.5,-224.8229"/>
<text text-anchor="start" x="192.5" y="-230.9229" font-family="Helvetica,sans-Serif" font-size="11.00" fill="#000000">...</text>
<polygon fill="#ffffff" stroke="transparent" points="189.5,-205.8229 189.5,-224.8229 386.5,-224.8229 386.5,-205.8229 189.5,-205.8229"/>
<polygon fill="none" stroke="#000000" points="189.5,-205.8229 189.5,-224.8229 386.5,-224.8229 386.5,-205.8229 189.5,-205.8229"/>
<polygon fill="#ffffff" stroke="transparent" points="190.5,-206.8229 190.5,-223.8229 256.5,-223.8229 256.5,-206.8229 190.5,-206.8229"/>
<text text-anchor="start" x="192.5" y="-211.9229" font-family="Helvetica,sans-Serif" font-size="11.00" fill="#000000">&lt; 4</text>
<polygon fill="#ffffff" stroke="transparent" points="256.5,-206.8229 256.5,-223.8229 313.5,-223.8229 313.5,-206.8229 256.5,-206.8229"/>
<text text-anchor="start" x="281.9431" y="-211.9229" font-family="Helvetica,sans-Serif" font-size="11.00" fill="#000000"> &#160;</text>
<polygon fill="#ffffff" stroke="transparent" points="313.5,-206.8229 313.5,-223.8229 385.5,-223.8229 385.5,-206.8229 313.5,-206.8229"/>
<text text-anchor="start" x="361.7904" y="-211.9229" font-family="Helvetica,sans-Serif" font-size="11.00" fill="#000000">17 &gt;</text>
<polygon fill="#000000" stroke="#000000" points="256.5,-206.8229 256.5,-223.8229 256.5,-223.8229 256.5,-206.8229 256.5,-206.8229"/>
<polygon fill="#000000" stroke="#000000" points="313.5,-206.8229 313.5,-223.8229 313.5,-223.8229 313.5,-206.8229 313.5,-206.8229"/>
</a>
</g>
</g>
<!-- act_ru_deadletter_job&#45;&gt;act_ru_execution -->
<g id="edge1" class="edge">
<title>act_ru_deadletter_job:w&#45;&gt;act_ru_execution:e</title>
<path fill="none" stroke="#000000" d="M458.2254,-1007.0938C442.7948,-999.5066 436.4573,-986.4157 427,-967.8229 398.4651,-911.7242 449.4389,-402.8229 386.5,-408.8229"/>
<polygon fill="#000000" stroke="#000000" points="464.4335,-1009.2251 470.831,-1015.2278 468.2168,-1010.524 472,-1011.8229 472,-1011.8229 472,-1011.8229 468.2168,-1010.524 473.169,-1008.418 464.4335,-1009.2251 464.4335,-1009.2251"/>
<ellipse fill="none" stroke="#000000" cx="461.4069" cy="-1008.186" rx="3.2" ry="3.2"/>
</g>
<!-- act_ru_deadletter_job&#45;&gt;act_ru_execution -->
<g id="edge3" class="edge">
<title>act_ru_deadletter_job:w&#45;&gt;act_ru_execution:e</title>
<path fill="none" stroke="#000000" d="M457.3281,-1013.4423C442.5451,-1011.9911 436.2719,-999.0511 427,-980.8229 398.4651,-924.7242 449.4389,-415.8229 386.5,-408.8229"/>
<polygon fill="#000000" stroke="#000000" points="464.0483,-1012.7006 472.395,-1015.4012 468.0241,-1012.2618 472,-1011.8229 472,-1011.8229 472,-1011.8229 468.0241,-1012.2618 471.605,-1008.2446 464.0483,-1012.7006 464.0483,-1012.7006"/>
<ellipse fill="none" stroke="#000000" cx="460.8676" cy="-1013.0517" rx="3.2" ry="3.2"/>
</g>
<!-- act_re_procdef -->
<g id="node3" class="node">
<title>act_re_procdef</title>
<g id="a_node3"><a xlink:href="../../tables/act_re_procdef.html" xlink:title="act_re_procdef" target="_top">
<polygon fill="#ffffff" stroke="transparent" points="8,-154.3229 8,-215.3229 140,-215.3229 140,-154.3229 8,-154.3229"/>
<polygon fill="#f5f5f5" stroke="transparent" points="8,-191.8229 8,-214.8229 140,-214.8229 140,-191.8229 8,-191.8229"/>
<polygon fill="none" stroke="#000000" points="8,-191.8229 8,-214.8229 140,-214.8229 140,-191.8229 8,-191.8229"/>
<text text-anchor="start" x="13" y="-200.4229" font-family="Helvetica,sans-Serif" font-weight="bold" font-size="11.00" fill="#000000">act_re_procdef</text>
<text text-anchor="start" x="105.5219" y="-199.9229" font-family="Helvetica,sans-Serif" font-size="11.00" fill="#000000">[table]</text>
<polygon fill="none" stroke="#000000" points="8,-172.8229 8,-191.8229 140,-191.8229 140,-172.8229 8,-172.8229"/>
<text text-anchor="start" x="11" y="-178.9229" font-family="Helvetica,sans-Serif" font-size="11.00" fill="#000000">...</text>
<polygon fill="#ffffff" stroke="transparent" points="8,-153.8229 8,-172.8229 140,-172.8229 140,-153.8229 8,-153.8229"/>
<polygon fill="none" stroke="#000000" points="8,-153.8229 8,-172.8229 140,-172.8229 140,-153.8229 8,-153.8229"/>
<polygon fill="#ffffff" stroke="transparent" points="9,-154.8229 9,-171.8229 50,-171.8229 50,-154.8229 9,-154.8229"/>
<text text-anchor="start" x="11" y="-159.9229" font-family="Helvetica,sans-Serif" font-size="11.00" fill="#000000"> &#160;</text>
<polygon fill="#ffffff" stroke="transparent" points="50,-154.8229 50,-171.8229 90,-171.8229 90,-154.8229 50,-154.8229"/>
<text text-anchor="start" x="66.9431" y="-159.9229" font-family="Helvetica,sans-Serif" font-size="11.00" fill="#000000"> &#160;</text>
<polygon fill="#ffffff" stroke="transparent" points="90,-154.8229 90,-171.8229 139,-171.8229 139,-154.8229 90,-154.8229"/>
<text text-anchor="start" x="121.4053" y="-159.9229" font-family="Helvetica,sans-Serif" font-size="11.00" fill="#000000">8 &gt;</text>
<polygon fill="#000000" stroke="#000000" points="50,-154.8229 50,-171.8229 50,-171.8229 50,-154.8229 50,-154.8229"/>
<polygon fill="#000000" stroke="#000000" points="90,-154.8229 90,-171.8229 90,-171.8229 90,-154.8229 90,-154.8229"/>
</a>
</g>
</g>
<!-- act_ru_deadletter_job&#45;&gt;act_re_procdef -->
<g id="edge2" class="edge">
<title>act_ru_deadletter_job:w&#45;&gt;act_re_procdef:e</title>
<path fill="none" stroke="#000000" d="M457.6024,-1014.1256C375.7472,-1041.7545 432.7073,-1297.7234 181,-664.8229 161.0961,-614.7759 193.8597,-181.8229 140,-181.8229"/>
<polygon fill="#000000" stroke="#000000" points="464.1004,-1013.0864 472.5686,-1015.3777 468.0502,-1012.4546 472,-1011.8229 472,-1011.8229 472,-1011.8229 468.0502,-1012.4546 471.4314,-1008.2681 464.1004,-1013.0864 464.1004,-1013.0864"/>
<ellipse fill="none" stroke="#000000" cx="460.9405" cy="-1013.5918" rx="3.2" ry="3.2"/>
</g>
<!-- act_ru_execution&#45;&gt;act_re_procdef -->
<g id="edge5" class="edge">
<title>act_ru_execution:w&#45;&gt;act_re_procdef:e</title>
<path fill="none" stroke="#000000" d="M175.1765,-317.6585C137.406,-296.9683 199.6864,-181.8229 140,-181.8229"/>
<polygon fill="#000000" stroke="#000000" points="181.6884,-319.0971 188.7234,-324.3382 185.5942,-319.96 189.5,-320.8229 189.5,-320.8229 189.5,-320.8229 185.5942,-319.96 190.2766,-317.3077 181.6884,-319.0971 181.6884,-319.0971"/>
<ellipse fill="none" stroke="#000000" cx="178.5637" cy="-318.4068" rx="3.2" ry="3.2"/>
</g>
<!-- act_ru_event_subscr -->
<g id="node4" class="node">
<title>act_ru_event_subscr</title>
<g id="a_node4"><a xlink:href="../../tables/act_ru_event_subscr.html" xlink:title="act_ru_event_subscr" target="_top">
<polygon fill="#ffffff" stroke="transparent" points="435,-438.8229 435,-880.8229 683,-880.8229 683,-438.8229 435,-438.8229"/>
<polygon fill="#f5f5f5" stroke="transparent" points="437,-855.8229 437,-878.8229 681,-878.8229 681,-855.8229 437,-855.8229"/>
<polygon fill="none" stroke="#000000" points="437,-855.8229 437,-878.8229 681,-878.8229 681,-855.8229 437,-855.8229"/>
<text text-anchor="start" x="442" y="-864.4229" font-family="Helvetica,sans-Serif" font-weight="bold" font-size="11.00" fill="#000000">act_ru_event_subscr</text>
<text text-anchor="start" x="646.0437" y="-863.9229" font-family="Helvetica,sans-Serif" font-size="11.00" fill="#000000">[table]</text>
<polygon fill="none" stroke="#000000" points="437,-833.8229 437,-855.8229 597,-855.8229 597,-833.8229 437,-833.8229"/>
<image xlink:href="../../images/primaryKeys.png" width="11px" height="12px" preserveAspectRatio="xMinYMin meet" x="442" y="-850.823"/>
<text text-anchor="start" x="457" y="-840.9229" font-family="Helvetica,sans-Serif" font-size="11.00" fill="#000000">id_</text>
<polygon fill="none" stroke="#000000" points="597,-833.8229 597,-855.8229 681,-855.8229 681,-833.8229 597,-833.8229"/>
<text text-anchor="start" x="600" y="-841.5229" font-family="Helvetica,sans-Serif" font-size="11.00" fill="#000000">varchar[64]</text>
<polygon fill="none" stroke="#000000" points="437,-811.8229 437,-833.8229 597,-833.8229 597,-811.8229 437,-811.8229"/>
<text text-anchor="start" x="457" y="-818.9229" font-family="Helvetica,sans-Serif" font-size="11.00" fill="#000000">rev_</text>
<polygon fill="none" stroke="#000000" points="597,-811.8229 597,-833.8229 681,-833.8229 681,-811.8229 597,-811.8229"/>
<text text-anchor="start" x="600" y="-819.5229" font-family="Helvetica,sans-Serif" font-size="11.00" fill="#000000">int4[10]</text>
<polygon fill="none" stroke="#000000" points="437,-789.8229 437,-811.8229 597,-811.8229 597,-789.8229 437,-789.8229"/>
<text text-anchor="start" x="457" y="-796.9229" font-family="Helvetica,sans-Serif" font-size="11.00" fill="#000000">event_type_</text>
<polygon fill="none" stroke="#000000" points="597,-789.8229 597,-811.8229 681,-811.8229 681,-789.8229 597,-789.8229"/>
<text text-anchor="start" x="600" y="-797.5229" font-family="Helvetica,sans-Serif" font-size="11.00" fill="#000000">varchar[255]</text>
<polygon fill="none" stroke="#000000" points="437,-767.8229 437,-789.8229 597,-789.8229 597,-767.8229 437,-767.8229"/>
<text text-anchor="start" x="457" y="-774.9229" font-family="Helvetica,sans-Serif" font-size="11.00" fill="#000000">event_name_</text>
<polygon fill="none" stroke="#000000" points="597,-767.8229 597,-789.8229 681,-789.8229 681,-767.8229 597,-767.8229"/>
<text text-anchor="start" x="600" y="-775.5229" font-family="Helvetica,sans-Serif" font-size="11.00" fill="#000000">varchar[255]</text>
<polygon fill="#ffffff" stroke="transparent" points="437,-745.8229 437,-767.8229 597,-767.8229 597,-745.8229 437,-745.8229"/>
<polygon fill="none" stroke="#000000" points="437,-745.8229 437,-767.8229 597,-767.8229 597,-745.8229 437,-745.8229"/>
<image xlink:href="../../images/foreignKeys.png" width="11px" height="12px" preserveAspectRatio="xMinYMin meet" x="442" y="-762.823"/>
<text text-anchor="start" x="457" y="-752.9229" font-family="Helvetica,sans-Serif" font-size="11.00" fill="#000000">execution_id_</text>
<polygon fill="none" stroke="#000000" points="597,-745.8229 597,-767.8229 681,-767.8229 681,-745.8229 597,-745.8229"/>
<text text-anchor="start" x="600" y="-753.5229" font-family="Helvetica,sans-Serif" font-size="11.00" fill="#000000">varchar[64]</text>
<polygon fill="#ffffff" stroke="transparent" points="437,-723.8229 437,-745.8229 597,-745.8229 597,-723.8229 437,-723.8229"/>
<polygon fill="none" stroke="#000000" points="437,-723.8229 437,-745.8229 597,-745.8229 597,-723.8229 437,-723.8229"/>
<text text-anchor="start" x="457" y="-730.9229" font-family="Helvetica,sans-Serif" font-size="11.00" fill="#000000">proc_inst_id_</text>
<polygon fill="none" stroke="#000000" points="597,-723.8229 597,-745.8229 681,-745.8229 681,-723.8229 597,-723.8229"/>
<text text-anchor="start" x="600" y="-731.5229" font-family="Helvetica,sans-Serif" font-size="11.00" fill="#000000">varchar[64]</text>
<polygon fill="none" stroke="#000000" points="437,-701.8229 437,-723.8229 597,-723.8229 597,-701.8229 437,-701.8229"/>
<text text-anchor="start" x="457" y="-708.9229" font-family="Helvetica,sans-Serif" font-size="11.00" fill="#000000">activity_id_</text>
<polygon fill="none" stroke="#000000" points="597,-701.8229 597,-723.8229 681,-723.8229 681,-701.8229 597,-701.8229"/>
<text text-anchor="start" x="600" y="-709.5229" font-family="Helvetica,sans-Serif" font-size="11.00" fill="#000000">varchar[64]</text>
<polygon fill="#ffffff" stroke="transparent" points="437,-679.8229 437,-701.8229 597,-701.8229 597,-679.8229 437,-679.8229"/>
<polygon fill="none" stroke="#000000" points="437,-679.8229 437,-701.8229 597,-701.8229 597,-679.8229 437,-679.8229"/>
<text text-anchor="start" x="457" y="-686.9229" font-family="Helvetica,sans-Serif" font-size="11.00" fill="#000000">configuration_</text>
<polygon fill="none" stroke="#000000" points="597,-679.8229 597,-701.8229 681,-701.8229 681,-679.8229 597,-679.8229"/>
<text text-anchor="start" x="600" y="-687.5229" font-family="Helvetica,sans-Serif" font-size="11.00" fill="#000000">varchar[255]</text>
<polygon fill="none" stroke="#000000" points="437,-657.8229 437,-679.8229 597,-679.8229 597,-657.8229 437,-657.8229"/>
<text text-anchor="start" x="457" y="-664.9229" font-family="Helvetica,sans-Serif" font-size="11.00" fill="#000000">created_</text>
<polygon fill="none" stroke="#000000" points="597,-657.8229 597,-679.8229 681,-679.8229 681,-657.8229 597,-657.8229"/>
<text text-anchor="start" x="599.8807" y="-665.5229" font-family="Helvetica,sans-Serif" font-size="11.00" fill="#000000">timestamp[29,6]</text>
<polygon fill="none" stroke="#000000" points="437,-635.8229 437,-657.8229 597,-657.8229 597,-635.8229 437,-635.8229"/>
<text text-anchor="start" x="457" y="-642.9229" font-family="Helvetica,sans-Serif" font-size="11.00" fill="#000000">proc_def_id_</text>
<polygon fill="none" stroke="#000000" points="597,-635.8229 597,-657.8229 681,-657.8229 681,-635.8229 597,-635.8229"/>
<text text-anchor="start" x="600" y="-643.5229" font-family="Helvetica,sans-Serif" font-size="11.00" fill="#000000">varchar[64]</text>
<polygon fill="none" stroke="#000000" points="437,-613.8229 437,-635.8229 597,-635.8229 597,-613.8229 437,-613.8229"/>
<text text-anchor="start" x="457" y="-620.9229" font-family="Helvetica,sans-Serif" font-size="11.00" fill="#000000">sub_scope_id_</text>
<polygon fill="none" stroke="#000000" points="597,-613.8229 597,-635.8229 681,-635.8229 681,-613.8229 597,-613.8229"/>
<text text-anchor="start" x="600" y="-621.5229" font-family="Helvetica,sans-Serif" font-size="11.00" fill="#000000">varchar[64]</text>
<polygon fill="#ffffff" stroke="transparent" points="437,-591.8229 437,-613.8229 597,-613.8229 597,-591.8229 437,-591.8229"/>
<polygon fill="none" stroke="#000000" points="437,-591.8229 437,-613.8229 597,-613.8229 597,-591.8229 437,-591.8229"/>
<text text-anchor="start" x="457" y="-598.9229" font-family="Helvetica,sans-Serif" font-size="11.00" fill="#000000">scope_id_</text>
<polygon fill="none" stroke="#000000" points="597,-591.8229 597,-613.8229 681,-613.8229 681,-591.8229 597,-591.8229"/>
<text text-anchor="start" x="600" y="-599.5229" font-family="Helvetica,sans-Serif" font-size="11.00" fill="#000000">varchar[64]</text>
<polygon fill="none" stroke="#000000" points="437,-569.8229 437,-591.8229 597,-591.8229 597,-569.8229 437,-569.8229"/>
<text text-anchor="start" x="457" y="-576.9229" font-family="Helvetica,sans-Serif" font-size="11.00" fill="#000000">scope_definition_id_</text>
<polygon fill="none" stroke="#000000" points="597,-569.8229 597,-591.8229 681,-591.8229 681,-569.8229 597,-569.8229"/>
<text text-anchor="start" x="600" y="-577.5229" font-family="Helvetica,sans-Serif" font-size="11.00" fill="#000000">varchar[64]</text>
<polygon fill="none" stroke="#000000" points="437,-547.8229 437,-569.8229 597,-569.8229 597,-547.8229 437,-547.8229"/>
<text text-anchor="start" x="457" y="-554.9229" font-family="Helvetica,sans-Serif" font-size="11.00" fill="#000000">scope_definition_key_</text>
<polygon fill="none" stroke="#000000" points="597,-547.8229 597,-569.8229 681,-569.8229 681,-547.8229 597,-547.8229"/>
<text text-anchor="start" x="600" y="-555.5229" font-family="Helvetica,sans-Serif" font-size="11.00" fill="#000000">varchar[255]</text>
<polygon fill="#ffffff" stroke="transparent" points="437,-525.8229 437,-547.8229 597,-547.8229 597,-525.8229 437,-525.8229"/>
<polygon fill="none" stroke="#000000" points="437,-525.8229 437,-547.8229 597,-547.8229 597,-525.8229 437,-525.8229"/>
<text text-anchor="start" x="457" y="-532.9229" font-family="Helvetica,sans-Serif" font-size="11.00" fill="#000000">scope_type_</text>
<polygon fill="none" stroke="#000000" points="597,-525.8229 597,-547.8229 681,-547.8229 681,-525.8229 597,-525.8229"/>
<text text-anchor="start" x="600" y="-533.5229" font-family="Helvetica,sans-Serif" font-size="11.00" fill="#000000">varchar[64]</text>
<polygon fill="none" stroke="#000000" points="437,-503.8229 437,-525.8229 597,-525.8229 597,-503.8229 437,-503.8229"/>
<text text-anchor="start" x="457" y="-510.9229" font-family="Helvetica,sans-Serif" font-size="11.00" fill="#000000">lock_time_</text>
<polygon fill="none" stroke="#000000" points="597,-503.8229 597,-525.8229 681,-525.8229 681,-503.8229 597,-503.8229"/>
<text text-anchor="start" x="599.8807" y="-511.5229" font-family="Helvetica,sans-Serif" font-size="11.00" fill="#000000">timestamp[29,6]</text>
<polygon fill="none" stroke="#000000" points="437,-481.8229 437,-503.8229 597,-503.8229 597,-481.8229 437,-481.8229"/>
<text text-anchor="start" x="457" y="-488.9229" font-family="Helvetica,sans-Serif" font-size="11.00" fill="#000000">lock_owner_</text>
<polygon fill="none" stroke="#000000" points="597,-481.8229 597,-503.8229 681,-503.8229 681,-481.8229 597,-481.8229"/>
<text text-anchor="start" x="600" y="-489.5229" font-family="Helvetica,sans-Serif" font-size="11.00" fill="#000000">varchar[255]</text>
<polygon fill="none" stroke="#000000" points="437,-459.8229 437,-481.8229 597,-481.8229 597,-459.8229 437,-459.8229"/>
<text text-anchor="start" x="457" y="-466.9229" font-family="Helvetica,sans-Serif" font-size="11.00" fill="#000000">tenant_id_</text>
<polygon fill="none" stroke="#000000" points="597,-459.8229 597,-481.8229 681,-481.8229 681,-459.8229 597,-459.8229"/>
<text text-anchor="start" x="600" y="-467.5229" font-family="Helvetica,sans-Serif" font-size="11.00" fill="#000000">varchar[255]</text>
<polygon fill="#ffffff" stroke="transparent" points="437,-440.8229 437,-459.8229 681,-459.8229 681,-440.8229 437,-440.8229"/>
<polygon fill="none" stroke="#000000" points="437,-440.8229 437,-459.8229 681,-459.8229 681,-440.8229 437,-440.8229"/>
<polygon fill="#ffffff" stroke="transparent" points="438,-441.8229 438,-458.8229 522,-458.8229 522,-441.8229 438,-441.8229"/>
<text text-anchor="start" x="440" y="-446.9229" font-family="Helvetica,sans-Serif" font-size="11.00" fill="#000000">&lt; 1</text>
<polygon fill="#ffffff" stroke="transparent" points="522,-441.8229 522,-458.8229 597,-458.8229 597,-441.8229 522,-441.8229"/>
<text text-anchor="start" x="556.4431" y="-446.9229" font-family="Helvetica,sans-Serif" font-size="11.00" fill="#000000"> &#160;</text>
<polygon fill="#ffffff" stroke="transparent" points="597,-441.8229 597,-458.8229 680,-458.8229 680,-441.8229 597,-441.8229"/>
<text text-anchor="start" x="662.4053" y="-446.9229" font-family="Helvetica,sans-Serif" font-size="11.00" fill="#000000">0 &gt;</text>
<polygon fill="#000000" stroke="#000000" points="522,-441.8229 522,-458.8229 522,-458.8229 522,-441.8229 522,-441.8229"/>
<polygon fill="#000000" stroke="#000000" points="597,-441.8229 597,-458.8229 597,-458.8229 597,-441.8229 597,-441.8229"/>
<polygon fill="none" stroke="#000000" stroke-width="2" points="436,-439.8229 436,-879.8229 682,-879.8229 682,-439.8229 436,-439.8229"/>
</a>
</g>
</g>
<!-- act_ru_event_subscr&#45;&gt;act_ru_execution -->
<g id="edge4" class="edge">
<title>act_ru_event_subscr:w&#45;&gt;act_ru_execution:e</title>
<path fill="none" stroke="#000000" d="M423.1167,-751.9035C372.8236,-709.6059 459.1489,-408.8229 386.5,-408.8229"/>
<polygon fill="#000000" stroke="#000000" points="429.4594,-754.1509 435.7976,-760.2162 433.2297,-755.4869 437,-756.8229 437,-756.8229 437,-756.8229 433.2297,-755.4869 438.2024,-753.4296 429.4594,-754.1509 429.4594,-754.1509"/>
<ellipse fill="none" stroke="#000000" cx="426.4432" cy="-753.0821" rx="3.2" ry="3.2"/>
</g>
<!-- act_ru_identitylink -->
<g id="node5" class="node">
<title>act_ru_identitylink</title>
<g id="a_node5"><a xlink:href="../../tables/act_ru_identitylink.html" xlink:title="act_ru_identitylink" target="_top">
<polygon fill="#ffffff" stroke="transparent" points="732,-387.3229 732,-448.3229 885,-448.3229 885,-387.3229 732,-387.3229"/>
<polygon fill="#f5f5f5" stroke="transparent" points="732.5,-424.8229 732.5,-447.8229 885.5,-447.8229 885.5,-424.8229 732.5,-424.8229"/>
<polygon fill="none" stroke="#000000" points="732.5,-424.8229 732.5,-447.8229 885.5,-447.8229 885.5,-424.8229 732.5,-424.8229"/>
<text text-anchor="start" x="737.5" y="-433.4229" font-family="Helvetica,sans-Serif" font-weight="bold" font-size="11.00" fill="#000000">act_ru_identitylink</text>
<text text-anchor="start" x="851.0219" y="-432.9229" font-family="Helvetica,sans-Serif" font-size="11.00" fill="#000000">[table]</text>
<polygon fill="none" stroke="#000000" points="732.5,-405.8229 732.5,-424.8229 885.5,-424.8229 885.5,-405.8229 732.5,-405.8229"/>
<text text-anchor="start" x="735.5" y="-411.9229" font-family="Helvetica,sans-Serif" font-size="11.00" fill="#000000">...</text>
<polygon fill="#ffffff" stroke="transparent" points="732.5,-386.8229 732.5,-405.8229 885.5,-405.8229 885.5,-386.8229 732.5,-386.8229"/>
<polygon fill="none" stroke="#000000" points="732.5,-386.8229 732.5,-405.8229 885.5,-405.8229 885.5,-386.8229 732.5,-386.8229"/>
<polygon fill="#ffffff" stroke="transparent" points="733.5,-387.8229 733.5,-404.8229 790.5,-404.8229 790.5,-387.8229 733.5,-387.8229"/>
<text text-anchor="start" x="735.5" y="-392.9229" font-family="Helvetica,sans-Serif" font-size="11.00" fill="#000000">&lt; 3</text>
<polygon fill="#ffffff" stroke="transparent" points="790.5,-387.8229 790.5,-404.8229 837.5,-404.8229 837.5,-387.8229 790.5,-387.8229"/>
<text text-anchor="start" x="810.9431" y="-392.9229" font-family="Helvetica,sans-Serif" font-size="11.00" fill="#000000"> &#160;</text>
<polygon fill="#ffffff" stroke="transparent" points="837.5,-387.8229 837.5,-404.8229 884.5,-404.8229 884.5,-387.8229 837.5,-387.8229"/>
<text text-anchor="start" x="876.3862" y="-392.9229" font-family="Helvetica,sans-Serif" font-size="11.00" fill="#000000"> &#160;</text>
<polygon fill="#000000" stroke="#000000" points="790.5,-387.8229 790.5,-404.8229 790.5,-404.8229 790.5,-387.8229 790.5,-387.8229"/>
<polygon fill="#000000" stroke="#000000" points="837.5,-387.8229 837.5,-404.8229 837.5,-404.8229 837.5,-387.8229 837.5,-387.8229"/>
</a>
</g>
</g>
<!-- act_ru_identitylink&#45;&gt;act_ru_execution -->
<g id="edge7" class="edge">
<title>act_ru_identitylink:w&#45;&gt;act_ru_execution:e</title>
<path fill="none" stroke="#000000" d="M717.9824,-414.8046C576.1044,-414.4424 535.3444,-408.8229 386.5,-408.8229"/>
<polygon fill="#000000" stroke="#000000" points="724.5,-414.8128 732.4954,-418.4229 728.5,-414.8178 732.5,-414.8229 732.5,-414.8229 732.5,-414.8229 728.5,-414.8178 732.5046,-411.2229 724.5,-414.8128 724.5,-414.8128"/>
<ellipse fill="none" stroke="#000000" cx="721.3" cy="-414.8087" rx="3.2" ry="3.2"/>
</g>
<!-- act_ru_identitylink&#45;&gt;act_re_procdef -->
<g id="edge6" class="edge">
<title>act_ru_identitylink:w&#45;&gt;act_re_procdef:e</title>
<path fill="none" stroke="#000000" d="M718.4288,-410.4609C668.5098,-373.9867 744.1612,-119.9232 691,-72.8229 605.9487,2.5317 274.7057,-45.5478 181,-109.8229 150.6327,-130.6526 176.8246,-181.8229 140,-181.8229"/>
<polygon fill="#000000" stroke="#000000" points="724.8587,-412.4541 731.434,-418.2615 728.6794,-413.6385 732.5,-414.8229 732.5,-414.8229 732.5,-414.8229 728.6794,-413.6385 733.566,-411.3843 724.8587,-412.4541 724.8587,-412.4541"/>
<ellipse fill="none" stroke="#000000" cx="721.8022" cy="-411.5066" rx="3.2" ry="3.2"/>
</g>
<!-- act_ru_task -->
<g id="node6" class="node">
<title>act_ru_task</title>
<g id="a_node6"><a xlink:href="../../tables/act_ru_task.html" xlink:title="act_ru_task" target="_top">
<polygon fill="#ffffff" stroke="transparent" points="503.5,-902.3229 503.5,-963.3229 614.5,-963.3229 614.5,-902.3229 503.5,-902.3229"/>
<polygon fill="#f5f5f5" stroke="transparent" points="504,-939.8229 504,-962.8229 615,-962.8229 615,-939.8229 504,-939.8229"/>
<polygon fill="none" stroke="#000000" points="504,-939.8229 504,-962.8229 615,-962.8229 615,-939.8229 504,-939.8229"/>
<text text-anchor="start" x="509" y="-948.4229" font-family="Helvetica,sans-Serif" font-weight="bold" font-size="11.00" fill="#000000">act_ru_task</text>
<text text-anchor="start" x="580.5219" y="-947.9229" font-family="Helvetica,sans-Serif" font-size="11.00" fill="#000000">[table]</text>
<polygon fill="none" stroke="#000000" points="504,-920.8229 504,-939.8229 615,-939.8229 615,-920.8229 504,-920.8229"/>
<text text-anchor="start" x="507" y="-926.9229" font-family="Helvetica,sans-Serif" font-size="11.00" fill="#000000">...</text>
<polygon fill="#ffffff" stroke="transparent" points="504,-901.8229 504,-920.8229 615,-920.8229 615,-901.8229 504,-901.8229"/>
<polygon fill="none" stroke="#000000" points="504,-901.8229 504,-920.8229 615,-920.8229 615,-901.8229 504,-901.8229"/>
<polygon fill="#ffffff" stroke="transparent" points="505,-902.8229 505,-919.8229 545,-919.8229 545,-902.8229 505,-902.8229"/>
<text text-anchor="start" x="507" y="-907.9229" font-family="Helvetica,sans-Serif" font-size="11.00" fill="#000000">&lt; 3</text>
<polygon fill="#ffffff" stroke="transparent" points="545,-902.8229 545,-919.8229 575,-919.8229 575,-902.8229 545,-902.8229"/>
<text text-anchor="start" x="556.9431" y="-907.9229" font-family="Helvetica,sans-Serif" font-size="11.00" fill="#000000"> &#160;</text>
<polygon fill="#ffffff" stroke="transparent" points="575,-902.8229 575,-919.8229 614,-919.8229 614,-902.8229 575,-902.8229"/>
<text text-anchor="start" x="596.4053" y="-907.9229" font-family="Helvetica,sans-Serif" font-size="11.00" fill="#000000">1 &gt;</text>
<polygon fill="#000000" stroke="#000000" points="545,-902.8229 545,-919.8229 545,-919.8229 545,-902.8229 545,-902.8229"/>
<polygon fill="#000000" stroke="#000000" points="575,-902.8229 575,-919.8229 575,-919.8229 575,-902.8229 575,-902.8229"/>
</a>
</g>
</g>
<!-- act_ru_identitylink&#45;&gt;act_ru_task -->
<g id="edge8" class="edge">
<title>act_ru_identitylink:w&#45;&gt;act_ru_task:e</title>
<path fill="none" stroke="#000000" d="M721.0036,-423.4983C685.7839,-484.8098 718.3941,-851.5192 691,-891.8229 669.7711,-923.056 652.7647,-929.8229 615,-929.8229"/>
<polygon fill="#000000" stroke="#000000" points="726.1142,-419.6418 734.6685,-417.6965 729.3071,-417.2324 732.5,-414.8229 732.5,-414.8229 732.5,-414.8229 729.3071,-417.2324 730.3315,-411.9493 726.1142,-419.6418 726.1142,-419.6418"/>
<ellipse fill="none" stroke="#000000" cx="723.5599" cy="-421.5694" rx="3.2" ry="3.2"/>
</g>
<!-- act_ru_task&#45;&gt;act_ru_execution -->
<g id="edge15" class="edge">
<title>act_ru_task:w&#45;&gt;act_ru_execution:e</title>
<path fill="none" stroke="#000000" d="M489.4506,-927.2733C461.0154,-921.5877 445.548,-913.0508 427,-885.8229 396.6799,-841.3139 440.355,-402.8229 386.5,-408.8229"/>
<polygon fill="#000000" stroke="#000000" points="496.1201,-928.442 503.3786,-933.3689 500.06,-929.1325 504,-929.8229 504,-929.8229 504,-929.8229 500.06,-929.1325 504.6214,-926.277 496.1201,-928.442 496.1201,-928.442"/>
<ellipse fill="none" stroke="#000000" cx="492.9681" cy="-927.8896" rx="3.2" ry="3.2"/>
</g>
<!-- act_ru_task&#45;&gt;act_ru_execution -->
<g id="edge17" class="edge">
<title>act_ru_task:w&#45;&gt;act_ru_execution:e</title>
<path fill="none" stroke="#000000" d="M489.4506,-931.9095C461.0154,-934.5877 445.548,-926.0508 427,-898.8229 396.6799,-854.3139 440.355,-415.8229 386.5,-408.8229"/>
<polygon fill="#000000" stroke="#000000" points="496.081,-930.9587 504.5111,-933.3865 500.0405,-930.3908 504,-929.8229 504,-929.8229 504,-929.8229 500.0405,-930.3908 503.4889,-926.2594 496.081,-930.9587 496.081,-930.9587"/>
<ellipse fill="none" stroke="#000000" cx="492.9134" cy="-931.413" rx="3.2" ry="3.2"/>
</g>
<!-- act_ru_task&#45;&gt;act_re_procdef -->
<g id="edge16" class="edge">
<title>act_ru_task:w&#45;&gt;act_re_procdef:e</title>
<path fill="none" stroke="#000000" d="M489.3819,-929.1185C462.3761,-926.2331 450.8001,-914.3871 427,-891.8229 264.9745,-738.211 253.491,-664.9957 181,-453.8229 161.1532,-396.0073 201.1273,-181.8229 140,-181.8229"/>
<polygon fill="#000000" stroke="#000000" points="496.0093,-929.4378 503.8267,-933.4187 500.0046,-929.6304 504,-929.8229 504,-929.8229 504,-929.8229 500.0046,-929.6304 504.1733,-926.2271 496.0093,-929.4378 496.0093,-929.4378"/>
<ellipse fill="none" stroke="#000000" cx="492.813" cy="-929.2838" rx="3.2" ry="3.2"/>
</g>
<!-- act_ru_job -->
<g id="node7" class="node">
<title>act_ru_job</title>
<g id="a_node7"><a xlink:href="../../tables/act_ru_job.html" xlink:title="act_ru_job" target="_top">
<polygon fill="#ffffff" stroke="transparent" points="507,-247.3229 507,-308.3229 611,-308.3229 611,-247.3229 507,-247.3229"/>
<polygon fill="#f5f5f5" stroke="transparent" points="507,-284.8229 507,-307.8229 611,-307.8229 611,-284.8229 507,-284.8229"/>
<polygon fill="none" stroke="#000000" points="507,-284.8229 507,-307.8229 611,-307.8229 611,-284.8229 507,-284.8229"/>
<text text-anchor="start" x="512" y="-293.4229" font-family="Helvetica,sans-Serif" font-weight="bold" font-size="11.00" fill="#000000">act_ru_job</text>
<text text-anchor="start" x="576.5219" y="-292.9229" font-family="Helvetica,sans-Serif" font-size="11.00" fill="#000000">[table]</text>
<polygon fill="none" stroke="#000000" points="507,-265.8229 507,-284.8229 611,-284.8229 611,-265.8229 507,-265.8229"/>
<text text-anchor="start" x="510" y="-271.9229" font-family="Helvetica,sans-Serif" font-size="11.00" fill="#000000">...</text>
<polygon fill="#ffffff" stroke="transparent" points="507,-246.8229 507,-265.8229 611,-265.8229 611,-246.8229 507,-246.8229"/>
<polygon fill="none" stroke="#000000" points="507,-246.8229 507,-265.8229 611,-265.8229 611,-246.8229 507,-246.8229"/>
<polygon fill="#ffffff" stroke="transparent" points="508,-247.8229 508,-264.8229 548,-264.8229 548,-247.8229 508,-247.8229"/>
<text text-anchor="start" x="510" y="-252.9229" font-family="Helvetica,sans-Serif" font-size="11.00" fill="#000000">&lt; 5</text>
<polygon fill="#ffffff" stroke="transparent" points="548,-247.8229 548,-264.8229 579,-264.8229 579,-247.8229 548,-247.8229"/>
<text text-anchor="start" x="560.4431" y="-252.9229" font-family="Helvetica,sans-Serif" font-size="11.00" fill="#000000"> &#160;</text>
<polygon fill="#ffffff" stroke="transparent" points="579,-247.8229 579,-264.8229 610,-264.8229 610,-247.8229 579,-247.8229"/>
<text text-anchor="start" x="601.8862" y="-252.9229" font-family="Helvetica,sans-Serif" font-size="11.00" fill="#000000"> &#160;</text>
<polygon fill="#000000" stroke="#000000" points="548,-247.8229 548,-264.8229 548,-264.8229 548,-247.8229 548,-247.8229"/>
<polygon fill="#000000" stroke="#000000" points="579,-247.8229 579,-264.8229 579,-264.8229 579,-247.8229 579,-247.8229"/>
</a>
</g>
</g>
<!-- act_ru_job&#45;&gt;act_ru_execution -->
<g id="edge9" class="edge">
<title>act_ru_job:w&#45;&gt;act_ru_execution:e</title>
<path fill="none" stroke="#000000" d="M492.6423,-273.499C463.0943,-272.7391 450.9752,-286.8489 427,-312.8229 397.2488,-345.0544 430.3634,-402.8229 386.5,-408.8229"/>
<polygon fill="#000000" stroke="#000000" points="499.0338,-274.0883 506.6694,-278.4077 503.0169,-274.4556 507,-274.8229 507,-274.8229 507,-274.8229 503.0169,-274.4556 507.3306,-271.2381 499.0338,-274.0883 499.0338,-274.0883"/>
<ellipse fill="none" stroke="#000000" cx="495.8473" cy="-273.7944" rx="3.2" ry="3.2"/>
</g>
<!-- act_ru_job&#45;&gt;act_ru_execution -->
<g id="edge11" class="edge">
<title>act_ru_job:w&#45;&gt;act_ru_execution:e</title>
<path fill="none" stroke="#000000" d="M492.6423,-277.9061C463.0943,-285.7391 450.9752,-299.8489 427,-325.8229 397.2488,-358.0544 430.3634,-415.8229 386.5,-408.8229"/>
<polygon fill="#000000" stroke="#000000" points="499.1783,-276.5026 507.7559,-278.3427 503.0892,-275.6628 507,-274.8229 507,-274.8229 507,-274.8229 503.0892,-275.6628 506.2441,-271.3032 499.1783,-276.5026 499.1783,-276.5026"/>
<ellipse fill="none" stroke="#000000" cx="496.0496" cy="-277.1745" rx="3.2" ry="3.2"/>
</g>
<!-- act_ru_job&#45;&gt;act_re_procdef -->
<g id="edge10" class="edge">
<title>act_ru_job:w&#45;&gt;act_re_procdef:e</title>
<path fill="none" stroke="#000000" d="M492.3864,-274.067C464.5781,-270.9 453.6717,-257.8786 427,-236.8229 408.6401,-222.3289 414.8117,-206.5015 394,-195.8229 343.7043,-170.016 196.5301,-181.8229 140,-181.8229"/>
<polygon fill="#000000" stroke="#000000" points="499.0107,-274.4096 506.814,-278.4181 503.0053,-274.6162 507,-274.8229 507,-274.8229 507,-274.8229 503.0053,-274.6162 507.186,-271.2277 499.0107,-274.4096 499.0107,-274.4096"/>
<ellipse fill="none" stroke="#000000" cx="495.815" cy="-274.2443" rx="3.2" ry="3.2"/>
</g>
<!-- act_ru_suspended_job -->
<g id="node8" class="node">
<title>act_ru_suspended_job</title>
<g id="a_node8"><a xlink:href="../../tables/act_ru_suspended_job.html" xlink:title="act_ru_suspended_job" target="_top">
<polygon fill="#ffffff" stroke="transparent" points="469,-165.3229 469,-226.3229 649,-226.3229 649,-165.3229 469,-165.3229"/>
<polygon fill="#f5f5f5" stroke="transparent" points="469,-202.8229 469,-225.8229 649,-225.8229 649,-202.8229 469,-202.8229"/>
<polygon fill="none" stroke="#000000" points="469,-202.8229 469,-225.8229 649,-225.8229 649,-202.8229 469,-202.8229"/>
<text text-anchor="start" x="474" y="-211.4229" font-family="Helvetica,sans-Serif" font-weight="bold" font-size="11.00" fill="#000000">act_ru_suspended_job</text>
<text text-anchor="start" x="614.5219" y="-210.9229" font-family="Helvetica,sans-Serif" font-size="11.00" fill="#000000">[table]</text>
<polygon fill="none" stroke="#000000" points="469,-183.8229 469,-202.8229 649,-202.8229 649,-183.8229 469,-183.8229"/>
<text text-anchor="start" x="472" y="-189.9229" font-family="Helvetica,sans-Serif" font-size="11.00" fill="#000000">...</text>
<polygon fill="#ffffff" stroke="transparent" points="469,-164.8229 469,-183.8229 649,-183.8229 649,-164.8229 469,-164.8229"/>
<polygon fill="none" stroke="#000000" points="469,-164.8229 469,-183.8229 649,-183.8229 649,-164.8229 469,-164.8229"/>
<polygon fill="#ffffff" stroke="transparent" points="470,-165.8229 470,-182.8229 536,-182.8229 536,-165.8229 470,-165.8229"/>
<text text-anchor="start" x="472" y="-170.9229" font-family="Helvetica,sans-Serif" font-size="11.00" fill="#000000">&lt; 5</text>
<polygon fill="#ffffff" stroke="transparent" points="536,-165.8229 536,-182.8229 592,-182.8229 592,-165.8229 536,-165.8229"/>
<text text-anchor="start" x="560.9431" y="-170.9229" font-family="Helvetica,sans-Serif" font-size="11.00" fill="#000000"> &#160;</text>
<polygon fill="#ffffff" stroke="transparent" points="592,-165.8229 592,-182.8229 648,-182.8229 648,-165.8229 592,-165.8229"/>
<text text-anchor="start" x="639.8862" y="-170.9229" font-family="Helvetica,sans-Serif" font-size="11.00" fill="#000000"> &#160;</text>
<polygon fill="#000000" stroke="#000000" points="536,-165.8229 536,-182.8229 536,-182.8229 536,-165.8229 536,-165.8229"/>
<polygon fill="#000000" stroke="#000000" points="592,-165.8229 592,-182.8229 592,-182.8229 592,-165.8229 592,-165.8229"/>
</a>
</g>
</g>
<!-- act_ru_suspended_job&#45;&gt;act_ru_execution -->
<g id="edge12" class="edge">
<title>act_ru_suspended_job:w&#45;&gt;act_ru_execution:e</title>
<path fill="none" stroke="#000000" d="M454.4663,-192.4136C440.5375,-195.8437 437.0646,-212.2544 427,-230.8229 389.576,-299.8678 465.035,-402.8229 386.5,-408.8229"/>
<polygon fill="#000000" stroke="#000000" points="461.0032,-192.5977 468.8986,-196.4215 465.0016,-192.7103 469,-192.8229 469,-192.8229 469,-192.8229 465.0016,-192.7103 469.1014,-189.2243 461.0032,-192.5977 461.0032,-192.5977"/>
<ellipse fill="none" stroke="#000000" cx="457.8044" cy="-192.5075" rx="3.2" ry="3.2"/>
</g>
<!-- act_ru_suspended_job&#45;&gt;act_ru_execution -->
<g id="edge14" class="edge">
<title>act_ru_suspended_job:w&#45;&gt;act_ru_execution:e</title>
<path fill="none" stroke="#000000" d="M455.3147,-198.6452C440.6737,-208.1882 437.2659,-224.8831 427,-243.8229 389.576,-312.8678 465.035,-415.8229 386.5,-408.8229"/>
<polygon fill="#000000" stroke="#000000" points="461.6385,-195.9548 470.4094,-196.1356 465.3193,-194.3889 469,-192.8229 469,-192.8229 469,-192.8229 465.3193,-194.3889 467.5906,-189.5102 461.6385,-195.9548 461.6385,-195.9548"/>
<ellipse fill="none" stroke="#000000" cx="458.6939" cy="-197.2076" rx="3.2" ry="3.2"/>
</g>
<!-- act_ru_suspended_job&#45;&gt;act_re_procdef -->
<g id="edge13" class="edge">
<title>act_ru_suspended_job:w&#45;&gt;act_re_procdef:e</title>
<path fill="none" stroke="#000000" d="M454.3303,-191.6839C431.7101,-187.9022 422.8011,-175.779 394,-171.8229 300.2139,-158.9406 274.9902,-160.5263 181,-171.8229 162.3776,-174.0611 158.7564,-181.8229 140,-181.8229"/>
<polygon fill="#000000" stroke="#000000" points="461.024,-192.2036 468.7213,-196.4121 465.012,-192.5133 469,-192.8229 469,-192.8229 469,-192.8229 465.012,-192.5133 469.2787,-189.2337 461.024,-192.2036 461.024,-192.2036"/>
<ellipse fill="none" stroke="#000000" cx="457.8336" cy="-191.9559" rx="3.2" ry="3.2"/>
</g>
<!-- act_ru_timer_job -->
<g id="node9" class="node">
<title>act_ru_timer_job</title>
<g id="a_node9"><a xlink:href="../../tables/act_ru_timer_job.html" xlink:title="act_ru_timer_job" target="_top">
<polygon fill="#ffffff" stroke="transparent" points="487.5,-83.3229 487.5,-144.3229 630.5,-144.3229 630.5,-83.3229 487.5,-83.3229"/>
<polygon fill="#f5f5f5" stroke="transparent" points="488,-120.8229 488,-143.8229 631,-143.8229 631,-120.8229 488,-120.8229"/>
<polygon fill="none" stroke="#000000" points="488,-120.8229 488,-143.8229 631,-143.8229 631,-120.8229 488,-120.8229"/>
<text text-anchor="start" x="493" y="-129.4229" font-family="Helvetica,sans-Serif" font-weight="bold" font-size="11.00" fill="#000000">act_ru_timer_job</text>
<text text-anchor="start" x="596.5219" y="-128.9229" font-family="Helvetica,sans-Serif" font-size="11.00" fill="#000000">[table]</text>
<polygon fill="none" stroke="#000000" points="488,-101.8229 488,-120.8229 631,-120.8229 631,-101.8229 488,-101.8229"/>
<text text-anchor="start" x="491" y="-107.9229" font-family="Helvetica,sans-Serif" font-size="11.00" fill="#000000">...</text>
<polygon fill="#ffffff" stroke="transparent" points="488,-82.8229 488,-101.8229 631,-101.8229 631,-82.8229 488,-82.8229"/>
<polygon fill="none" stroke="#000000" points="488,-82.8229 488,-101.8229 631,-101.8229 631,-82.8229 488,-82.8229"/>
<polygon fill="#ffffff" stroke="transparent" points="489,-83.8229 489,-100.8229 542,-100.8229 542,-83.8229 489,-83.8229"/>
<text text-anchor="start" x="491" y="-88.9229" font-family="Helvetica,sans-Serif" font-size="11.00" fill="#000000">&lt; 5</text>
<polygon fill="#ffffff" stroke="transparent" points="542,-83.8229 542,-100.8229 586,-100.8229 586,-83.8229 542,-83.8229"/>
<text text-anchor="start" x="560.9431" y="-88.9229" font-family="Helvetica,sans-Serif" font-size="11.00" fill="#000000"> &#160;</text>
<polygon fill="#ffffff" stroke="transparent" points="586,-83.8229 586,-100.8229 630,-100.8229 630,-83.8229 586,-83.8229"/>
<text text-anchor="start" x="621.8862" y="-88.9229" font-family="Helvetica,sans-Serif" font-size="11.00" fill="#000000"> &#160;</text>
<polygon fill="#000000" stroke="#000000" points="542,-83.8229 542,-100.8229 542,-100.8229 542,-83.8229 542,-83.8229"/>
<polygon fill="#000000" stroke="#000000" points="586,-83.8229 586,-100.8229 586,-100.8229 586,-83.8229 586,-83.8229"/>
</a>
</g>
</g>
<!-- act_ru_timer_job&#45;&gt;act_ru_execution -->
<g id="edge18" class="edge">
<title>act_ru_timer_job:w&#45;&gt;act_ru_execution:e</title>
<path fill="none" stroke="#000000" d="M473.6116,-109.562C451.1633,-110.1312 441.7223,-124.9185 427,-148.8229 397.0265,-197.4908 443.6575,-402.8229 386.5,-408.8229"/>
<polygon fill="#000000" stroke="#000000" points="480.0305,-110.1245 487.6857,-114.4092 484.0153,-110.4737 488,-110.8229 488,-110.8229 488,-110.8229 484.0153,-110.4737 488.3143,-107.2367 480.0305,-110.1245 480.0305,-110.1245"/>
<ellipse fill="none" stroke="#000000" cx="476.8428" cy="-109.8451" rx="3.2" ry="3.2"/>
</g>
<!-- act_ru_timer_job&#45;&gt;act_ru_execution -->
<g id="edge20" class="edge">
<title>act_ru_timer_job:w&#45;&gt;act_ru_execution:e</title>
<path fill="none" stroke="#000000" d="M473.9257,-114.7462C451.251,-122.9938 441.7907,-137.8073 427,-161.8229 397.0265,-210.4908 443.6575,-415.8229 386.5,-408.8229"/>
<polygon fill="#000000" stroke="#000000" points="480.2938,-112.9711 488.9667,-114.2907 484.1469,-111.897 488,-110.8229 488,-110.8229 488,-110.8229 484.1469,-111.897 487.0333,-107.3551 480.2938,-112.9711 480.2938,-112.9711"/>
<ellipse fill="none" stroke="#000000" cx="477.2113" cy="-113.8304" rx="3.2" ry="3.2"/>
</g>
<!-- act_ru_timer_job&#45;&gt;act_re_procdef -->
<g id="edge19" class="edge">
<title>act_ru_timer_job:w&#45;&gt;act_re_procdef:e</title>
<path fill="none" stroke="#000000" d="M473.406,-110.8435C346.9677,-111.2234 307.191,-117.2498 181,-159.8229 161.4053,-166.4336 160.6798,-181.8229 140,-181.8229"/>
<polygon fill="#000000" stroke="#000000" points="480,-110.8342 488.0051,-114.4229 484,-110.8286 488,-110.8229 488,-110.8229 488,-110.8229 484,-110.8286 487.9949,-107.2229 480,-110.8342 480,-110.8342"/>
<ellipse fill="none" stroke="#000000" cx="476.8" cy="-110.8388" rx="3.2" ry="3.2"/>
</g>
<!-- act_ru_variable -->
<g id="node10" class="node">
<title>act_ru_variable</title>
<g id="a_node10"><a xlink:href="../../tables/act_ru_variable.html" xlink:title="act_ru_variable" target="_top">
<polygon fill="#ffffff" stroke="transparent" points="492,-329.3229 492,-390.3229 626,-390.3229 626,-329.3229 492,-329.3229"/>
<polygon fill="#f5f5f5" stroke="transparent" points="492,-366.8229 492,-389.8229 626,-389.8229 626,-366.8229 492,-366.8229"/>
<polygon fill="none" stroke="#000000" points="492,-366.8229 492,-389.8229 626,-389.8229 626,-366.8229 492,-366.8229"/>
<text text-anchor="start" x="497" y="-375.4229" font-family="Helvetica,sans-Serif" font-weight="bold" font-size="11.00" fill="#000000">act_ru_variable</text>
<text text-anchor="start" x="591.5219" y="-374.9229" font-family="Helvetica,sans-Serif" font-size="11.00" fill="#000000">[table]</text>
<polygon fill="none" stroke="#000000" points="492,-347.8229 492,-366.8229 626,-366.8229 626,-347.8229 492,-347.8229"/>
<text text-anchor="start" x="495" y="-353.9229" font-family="Helvetica,sans-Serif" font-size="11.00" fill="#000000">...</text>
<polygon fill="#ffffff" stroke="transparent" points="492,-328.8229 492,-347.8229 626,-347.8229 626,-328.8229 492,-328.8229"/>
<polygon fill="none" stroke="#000000" points="492,-328.8229 492,-347.8229 626,-347.8229 626,-328.8229 492,-328.8229"/>
<polygon fill="#ffffff" stroke="transparent" points="493,-329.8229 493,-346.8229 543,-346.8229 543,-329.8229 493,-329.8229"/>
<text text-anchor="start" x="495" y="-334.9229" font-family="Helvetica,sans-Serif" font-size="11.00" fill="#000000">&lt; 3</text>
<polygon fill="#ffffff" stroke="transparent" points="543,-329.8229 543,-346.8229 584,-346.8229 584,-329.8229 543,-329.8229"/>
<text text-anchor="start" x="560.4431" y="-334.9229" font-family="Helvetica,sans-Serif" font-size="11.00" fill="#000000"> &#160;</text>
<polygon fill="#ffffff" stroke="transparent" points="584,-329.8229 584,-346.8229 625,-346.8229 625,-329.8229 584,-329.8229"/>
<text text-anchor="start" x="616.8862" y="-334.9229" font-family="Helvetica,sans-Serif" font-size="11.00" fill="#000000"> &#160;</text>
<polygon fill="#000000" stroke="#000000" points="543,-329.8229 543,-346.8229 543,-346.8229 543,-329.8229 543,-329.8229"/>
<polygon fill="#000000" stroke="#000000" points="584,-329.8229 584,-346.8229 584,-346.8229 584,-329.8229 584,-329.8229"/>
</a>
</g>
</g>
<!-- act_ru_variable&#45;&gt;act_ru_execution -->
<g id="edge21" class="edge">
<title>act_ru_variable:w&#45;&gt;act_ru_execution:e</title>
<path fill="none" stroke="#000000" d="M477.5531,-356.6806C439.0025,-360.9109 433.466,-403.4323 386.5,-408.8229"/>
<polygon fill="#000000" stroke="#000000" points="484.0004,-356.7441 491.9645,-360.4227 488.0002,-356.7835 492,-356.8229 492,-356.8229 492,-356.8229 488.0002,-356.7835 492.0355,-353.2231 484.0004,-356.7441 484.0004,-356.7441"/>
<ellipse fill="none" stroke="#000000" cx="480.8005" cy="-356.7125" rx="3.2" ry="3.2"/>
</g>
<!-- act_ru_variable&#45;&gt;act_ru_execution -->
<g id="edge22" class="edge">
<title>act_ru_variable:w&#45;&gt;act_ru_execution:e</title>
<path fill="none" stroke="#000000" d="M477.805,-360.1514C439.0264,-373.5969 433.5681,-415.1257 386.5,-408.8229"/>
<polygon fill="#000000" stroke="#000000" points="484.2113,-358.6493 492.8219,-360.3279 488.1056,-357.7361 492,-356.8229 492,-356.8229 492,-356.8229 488.1056,-357.7361 491.1781,-353.318 484.2113,-358.6493 484.2113,-358.6493"/>
<ellipse fill="none" stroke="#000000" cx="481.0958" cy="-359.3798" rx="3.2" ry="3.2"/>
</g>
</g>
</svg>
