<?xml version="1.0" encoding="UTF-8" standalone="no"?>
<!DOCTYPE svg PUBLIC "-//W3C//DTD SVG 1.1//EN"
 "http://www.w3.org/Graphics/SVG/1.1/DTD/svg11.dtd">
<!-- Generated by graphviz version 2.40.1 (20161225.0304)
 -->
<!-- Title: oneDegreeRelationshipsDiagram Pages: 1 -->
<svg width="961pt" height="1720pt"
 viewBox="0.00 0.00 961.00 1719.70" xmlns="http://www.w3.org/2000/svg" xmlns:xlink="http://www.w3.org/1999/xlink">
<g id="graph0" class="graph" transform="scale(1 1) rotate(0) translate(4 1715.7005)">
<title>oneDegreeRelationshipsDiagram</title>
<polygon fill="#ffffff" stroke="transparent" points="-4,4 -4,-1715.7005 957,-1715.7005 957,4 -4,4"/>
<text text-anchor="middle" x="72.4936" y="-7.3" font-family="Helvetica,sans-Serif" font-size="11.00" fill="#000000">Generated by SchemaSpy</text>
<!-- act_procdef_info -->
<g id="node1" class="node">
<title>act_procdef_info</title>
<g id="a_node1"><a xlink:href="../../tables/act_procdef_info.html" xlink:title="act_procdef_info" target="_top">
<polygon fill="#ffffff" stroke="transparent" points="335,-1129.7005 335,-1256.7005 478,-1256.7005 478,-1129.7005 335,-1129.7005"/>
<polygon fill="#f5f5f5" stroke="transparent" points="335.5,-1233.2005 335.5,-1256.2005 478.5,-1256.2005 478.5,-1233.2005 335.5,-1233.2005"/>
<polygon fill="none" stroke="#000000" points="335.5,-1233.2005 335.5,-1256.2005 478.5,-1256.2005 478.5,-1233.2005 335.5,-1233.2005"/>
<text text-anchor="start" x="340.5" y="-1241.8005" font-family="Helvetica,sans-Serif" font-weight="bold" font-size="11.00" fill="#000000">act_procdef_info</text>
<text text-anchor="start" x="444.0219" y="-1241.3005" font-family="Helvetica,sans-Serif" font-size="11.00" fill="#000000">[table]</text>
<polygon fill="none" stroke="#000000" points="335.5,-1211.2005 335.5,-1233.2005 478.5,-1233.2005 478.5,-1211.2005 335.5,-1211.2005"/>
<image xlink:href="../../images/primaryKeys.png" width="11px" height="12px" preserveAspectRatio="xMinYMin meet" x="340.5" y="-1228.2"/>
<text text-anchor="start" x="364.5" y="-1218.3005" font-family="Helvetica,sans-Serif" font-size="11.00" fill="#000000">id_</text>
<polygon fill="#ffffff" stroke="transparent" points="335.5,-1189.2005 335.5,-1211.2005 478.5,-1211.2005 478.5,-1189.2005 335.5,-1189.2005"/>
<polygon fill="none" stroke="#000000" points="335.5,-1189.2005 335.5,-1211.2005 478.5,-1211.2005 478.5,-1189.2005 335.5,-1189.2005"/>
<image xlink:href="../../images/foreignKeys.png" width="11px" height="12px" preserveAspectRatio="xMinYMin meet" x="340.5" y="-1206.2"/>
<text text-anchor="start" x="364.5" y="-1196.3005" font-family="Helvetica,sans-Serif" font-size="11.00" fill="#000000">proc_def_id_</text>
<polygon fill="#ffffff" stroke="transparent" points="335.5,-1167.2005 335.5,-1189.2005 478.5,-1189.2005 478.5,-1167.2005 335.5,-1167.2005"/>
<polygon fill="none" stroke="#000000" points="335.5,-1167.2005 335.5,-1189.2005 478.5,-1189.2005 478.5,-1167.2005 335.5,-1167.2005"/>
<image xlink:href="../../images/foreignKeys.png" width="11px" height="12px" preserveAspectRatio="xMinYMin meet" x="340.5" y="-1184.2"/>
<text text-anchor="start" x="364.5" y="-1174.3005" font-family="Helvetica,sans-Serif" font-size="11.00" fill="#000000">info_json_id_</text>
<polygon fill="none" stroke="#000000" points="335.5,-1148.2005 335.5,-1167.2005 478.5,-1167.2005 478.5,-1148.2005 335.5,-1148.2005"/>
<text text-anchor="start" x="338.5" y="-1154.3005" font-family="Helvetica,sans-Serif" font-size="11.00" fill="#000000">...</text>
<polygon fill="#ffffff" stroke="transparent" points="335.5,-1129.2005 335.5,-1148.2005 478.5,-1148.2005 478.5,-1129.2005 335.5,-1129.2005"/>
<polygon fill="none" stroke="#000000" points="335.5,-1129.2005 335.5,-1148.2005 478.5,-1148.2005 478.5,-1129.2005 335.5,-1129.2005"/>
<polygon fill="#ffffff" stroke="transparent" points="336.5,-1130.2005 336.5,-1147.2005 389.5,-1147.2005 389.5,-1130.2005 336.5,-1130.2005"/>
<text text-anchor="start" x="338.5" y="-1135.3005" font-family="Helvetica,sans-Serif" font-size="11.00" fill="#000000">&lt; 2</text>
<polygon fill="#ffffff" stroke="transparent" points="389.5,-1130.2005 389.5,-1147.2005 433.5,-1147.2005 433.5,-1130.2005 389.5,-1130.2005"/>
<text text-anchor="start" x="408.4431" y="-1135.3005" font-family="Helvetica,sans-Serif" font-size="11.00" fill="#000000"> &#160;</text>
<polygon fill="#ffffff" stroke="transparent" points="433.5,-1130.2005 433.5,-1147.2005 477.5,-1147.2005 477.5,-1130.2005 433.5,-1130.2005"/>
<text text-anchor="start" x="469.3862" y="-1135.3005" font-family="Helvetica,sans-Serif" font-size="11.00" fill="#000000"> &#160;</text>
<polygon fill="#000000" stroke="#000000" points="389.5,-1130.2005 389.5,-1147.2005 389.5,-1147.2005 389.5,-1130.2005 389.5,-1130.2005"/>
<polygon fill="#000000" stroke="#000000" points="433.5,-1130.2005 433.5,-1147.2005 433.5,-1147.2005 433.5,-1130.2005 433.5,-1130.2005"/>
</a>
</g>
</g>
<!-- act_re_procdef -->
<g id="node2" class="node">
<title>act_re_procdef</title>
<g id="a_node2"><a xlink:href="../../tables/act_re_procdef.html" xlink:title="act_re_procdef" target="_top">
<polygon fill="#ffffff" stroke="transparent" points="8,-455.2005 8,-897.2005 259,-897.2005 259,-455.2005 8,-455.2005"/>
<polygon fill="#f5f5f5" stroke="transparent" points="10.5,-872.2005 10.5,-895.2005 257.5,-895.2005 257.5,-872.2005 10.5,-872.2005"/>
<polygon fill="none" stroke="#000000" points="10.5,-872.2005 10.5,-895.2005 257.5,-895.2005 257.5,-872.2005 10.5,-872.2005"/>
<text text-anchor="start" x="15.5" y="-880.8005" font-family="Helvetica,sans-Serif" font-weight="bold" font-size="11.00" fill="#000000">act_re_procdef</text>
<text text-anchor="start" x="222.5437" y="-880.3005" font-family="Helvetica,sans-Serif" font-size="11.00" fill="#000000">[table]</text>
<polygon fill="none" stroke="#000000" points="10.5,-850.2005 10.5,-872.2005 184.5,-872.2005 184.5,-850.2005 10.5,-850.2005"/>
<image xlink:href="../../images/primaryKeys.png" width="11px" height="12px" preserveAspectRatio="xMinYMin meet" x="15.5" y="-867.2"/>
<text text-anchor="start" x="30.5" y="-857.3005" font-family="Helvetica,sans-Serif" font-size="11.00" fill="#000000">id_</text>
<polygon fill="none" stroke="#000000" points="184.5,-850.2005 184.5,-872.2005 257.5,-872.2005 257.5,-850.2005 184.5,-850.2005"/>
<text text-anchor="start" x="187.5" y="-857.9005" font-family="Helvetica,sans-Serif" font-size="11.00" fill="#000000">varchar[64]</text>
<polygon fill="none" stroke="#000000" points="10.5,-828.2005 10.5,-850.2005 184.5,-850.2005 184.5,-828.2005 10.5,-828.2005"/>
<text text-anchor="start" x="30.5" y="-835.3005" font-family="Helvetica,sans-Serif" font-size="11.00" fill="#000000">rev_</text>
<polygon fill="none" stroke="#000000" points="184.5,-828.2005 184.5,-850.2005 257.5,-850.2005 257.5,-828.2005 184.5,-828.2005"/>
<text text-anchor="start" x="187.5" y="-835.9005" font-family="Helvetica,sans-Serif" font-size="11.00" fill="#000000">int4[10]</text>
<polygon fill="none" stroke="#000000" points="10.5,-806.2005 10.5,-828.2005 184.5,-828.2005 184.5,-806.2005 10.5,-806.2005"/>
<text text-anchor="start" x="30.5" y="-813.3005" font-family="Helvetica,sans-Serif" font-size="11.00" fill="#000000">category_</text>
<polygon fill="none" stroke="#000000" points="184.5,-806.2005 184.5,-828.2005 257.5,-828.2005 257.5,-806.2005 184.5,-806.2005"/>
<text text-anchor="start" x="187.5" y="-813.9005" font-family="Helvetica,sans-Serif" font-size="11.00" fill="#000000">varchar[255]</text>
<polygon fill="none" stroke="#000000" points="10.5,-784.2005 10.5,-806.2005 184.5,-806.2005 184.5,-784.2005 10.5,-784.2005"/>
<text text-anchor="start" x="30.5" y="-791.3005" font-family="Helvetica,sans-Serif" font-size="11.00" fill="#000000">name_</text>
<polygon fill="none" stroke="#000000" points="184.5,-784.2005 184.5,-806.2005 257.5,-806.2005 257.5,-784.2005 184.5,-784.2005"/>
<text text-anchor="start" x="187.5" y="-791.9005" font-family="Helvetica,sans-Serif" font-size="11.00" fill="#000000">varchar[255]</text>
<polygon fill="#ffffff" stroke="transparent" points="10.5,-762.2005 10.5,-784.2005 184.5,-784.2005 184.5,-762.2005 10.5,-762.2005"/>
<polygon fill="none" stroke="#000000" points="10.5,-762.2005 10.5,-784.2005 184.5,-784.2005 184.5,-762.2005 10.5,-762.2005"/>
<text text-anchor="start" x="30.5" y="-769.3005" font-family="Helvetica,sans-Serif" font-size="11.00" fill="#000000">key_</text>
<polygon fill="none" stroke="#000000" points="184.5,-762.2005 184.5,-784.2005 257.5,-784.2005 257.5,-762.2005 184.5,-762.2005"/>
<text text-anchor="start" x="187.5" y="-769.9005" font-family="Helvetica,sans-Serif" font-size="11.00" fill="#000000">varchar[255]</text>
<polygon fill="#ffffff" stroke="transparent" points="10.5,-740.2005 10.5,-762.2005 184.5,-762.2005 184.5,-740.2005 10.5,-740.2005"/>
<polygon fill="none" stroke="#000000" points="10.5,-740.2005 10.5,-762.2005 184.5,-762.2005 184.5,-740.2005 10.5,-740.2005"/>
<text text-anchor="start" x="30.5" y="-747.3005" font-family="Helvetica,sans-Serif" font-size="11.00" fill="#000000">version_</text>
<polygon fill="none" stroke="#000000" points="184.5,-740.2005 184.5,-762.2005 257.5,-762.2005 257.5,-740.2005 184.5,-740.2005"/>
<text text-anchor="start" x="187.5" y="-747.9005" font-family="Helvetica,sans-Serif" font-size="11.00" fill="#000000">int4[10]</text>
<polygon fill="none" stroke="#000000" points="10.5,-718.2005 10.5,-740.2005 184.5,-740.2005 184.5,-718.2005 10.5,-718.2005"/>
<text text-anchor="start" x="30.5" y="-725.3005" font-family="Helvetica,sans-Serif" font-size="11.00" fill="#000000">deployment_id_</text>
<polygon fill="none" stroke="#000000" points="184.5,-718.2005 184.5,-740.2005 257.5,-740.2005 257.5,-718.2005 184.5,-718.2005"/>
<text text-anchor="start" x="187.5" y="-725.9005" font-family="Helvetica,sans-Serif" font-size="11.00" fill="#000000">varchar[64]</text>
<polygon fill="none" stroke="#000000" points="10.5,-696.2005 10.5,-718.2005 184.5,-718.2005 184.5,-696.2005 10.5,-696.2005"/>
<text text-anchor="start" x="30.5" y="-703.3005" font-family="Helvetica,sans-Serif" font-size="11.00" fill="#000000">resource_name_</text>
<polygon fill="none" stroke="#000000" points="184.5,-696.2005 184.5,-718.2005 257.5,-718.2005 257.5,-696.2005 184.5,-696.2005"/>
<text text-anchor="start" x="187.3791" y="-703.9005" font-family="Helvetica,sans-Serif" font-size="11.00" fill="#000000">varchar[4000]</text>
<polygon fill="none" stroke="#000000" points="10.5,-674.2005 10.5,-696.2005 184.5,-696.2005 184.5,-674.2005 10.5,-674.2005"/>
<text text-anchor="start" x="30.5" y="-681.3005" font-family="Helvetica,sans-Serif" font-size="11.00" fill="#000000">dgrm_resource_name_</text>
<polygon fill="none" stroke="#000000" points="184.5,-674.2005 184.5,-696.2005 257.5,-696.2005 257.5,-674.2005 184.5,-674.2005"/>
<text text-anchor="start" x="187.3791" y="-681.9005" font-family="Helvetica,sans-Serif" font-size="11.00" fill="#000000">varchar[4000]</text>
<polygon fill="none" stroke="#000000" points="10.5,-652.2005 10.5,-674.2005 184.5,-674.2005 184.5,-652.2005 10.5,-652.2005"/>
<text text-anchor="start" x="30.5" y="-659.3005" font-family="Helvetica,sans-Serif" font-size="11.00" fill="#000000">description_</text>
<polygon fill="none" stroke="#000000" points="184.5,-652.2005 184.5,-674.2005 257.5,-674.2005 257.5,-652.2005 184.5,-652.2005"/>
<text text-anchor="start" x="187.3791" y="-659.9005" font-family="Helvetica,sans-Serif" font-size="11.00" fill="#000000">varchar[4000]</text>
<polygon fill="none" stroke="#000000" points="10.5,-630.2005 10.5,-652.2005 184.5,-652.2005 184.5,-630.2005 10.5,-630.2005"/>
<text text-anchor="start" x="30.5" y="-637.3005" font-family="Helvetica,sans-Serif" font-size="11.00" fill="#000000">has_start_form_key_</text>
<polygon fill="none" stroke="#000000" points="184.5,-630.2005 184.5,-652.2005 257.5,-652.2005 257.5,-630.2005 184.5,-630.2005"/>
<text text-anchor="start" x="187.5" y="-637.9005" font-family="Helvetica,sans-Serif" font-size="11.00" fill="#000000">bool[1]</text>
<polygon fill="none" stroke="#000000" points="10.5,-608.2005 10.5,-630.2005 184.5,-630.2005 184.5,-608.2005 10.5,-608.2005"/>
<text text-anchor="start" x="30.5" y="-615.3005" font-family="Helvetica,sans-Serif" font-size="11.00" fill="#000000">has_graphical_notation_</text>
<polygon fill="none" stroke="#000000" points="184.5,-608.2005 184.5,-630.2005 257.5,-630.2005 257.5,-608.2005 184.5,-608.2005"/>
<text text-anchor="start" x="187.5" y="-615.9005" font-family="Helvetica,sans-Serif" font-size="11.00" fill="#000000">bool[1]</text>
<polygon fill="none" stroke="#000000" points="10.5,-586.2005 10.5,-608.2005 184.5,-608.2005 184.5,-586.2005 10.5,-586.2005"/>
<text text-anchor="start" x="30.5" y="-593.3005" font-family="Helvetica,sans-Serif" font-size="11.00" fill="#000000">suspension_state_</text>
<polygon fill="none" stroke="#000000" points="184.5,-586.2005 184.5,-608.2005 257.5,-608.2005 257.5,-586.2005 184.5,-586.2005"/>
<text text-anchor="start" x="187.5" y="-593.9005" font-family="Helvetica,sans-Serif" font-size="11.00" fill="#000000">int4[10]</text>
<polygon fill="#ffffff" stroke="transparent" points="10.5,-564.2005 10.5,-586.2005 184.5,-586.2005 184.5,-564.2005 10.5,-564.2005"/>
<polygon fill="none" stroke="#000000" points="10.5,-564.2005 10.5,-586.2005 184.5,-586.2005 184.5,-564.2005 10.5,-564.2005"/>
<text text-anchor="start" x="30.5" y="-571.3005" font-family="Helvetica,sans-Serif" font-size="11.00" fill="#000000">tenant_id_</text>
<polygon fill="none" stroke="#000000" points="184.5,-564.2005 184.5,-586.2005 257.5,-586.2005 257.5,-564.2005 184.5,-564.2005"/>
<text text-anchor="start" x="187.5" y="-571.9005" font-family="Helvetica,sans-Serif" font-size="11.00" fill="#000000">varchar[255]</text>
<polygon fill="none" stroke="#000000" points="10.5,-542.2005 10.5,-564.2005 184.5,-564.2005 184.5,-542.2005 10.5,-542.2005"/>
<text text-anchor="start" x="30.5" y="-549.3005" font-family="Helvetica,sans-Serif" font-size="11.00" fill="#000000">derived_from_</text>
<polygon fill="none" stroke="#000000" points="184.5,-542.2005 184.5,-564.2005 257.5,-564.2005 257.5,-542.2005 184.5,-542.2005"/>
<text text-anchor="start" x="187.5" y="-549.9005" font-family="Helvetica,sans-Serif" font-size="11.00" fill="#000000">varchar[64]</text>
<polygon fill="none" stroke="#000000" points="10.5,-520.2005 10.5,-542.2005 184.5,-542.2005 184.5,-520.2005 10.5,-520.2005"/>
<text text-anchor="start" x="30.5" y="-527.3005" font-family="Helvetica,sans-Serif" font-size="11.00" fill="#000000">derived_from_root_</text>
<polygon fill="none" stroke="#000000" points="184.5,-520.2005 184.5,-542.2005 257.5,-542.2005 257.5,-520.2005 184.5,-520.2005"/>
<text text-anchor="start" x="187.5" y="-527.9005" font-family="Helvetica,sans-Serif" font-size="11.00" fill="#000000">varchar[64]</text>
<polygon fill="#ffffff" stroke="transparent" points="10.5,-498.2005 10.5,-520.2005 184.5,-520.2005 184.5,-498.2005 10.5,-498.2005"/>
<polygon fill="none" stroke="#000000" points="10.5,-498.2005 10.5,-520.2005 184.5,-520.2005 184.5,-498.2005 10.5,-498.2005"/>
<text text-anchor="start" x="30.5" y="-505.3005" font-family="Helvetica,sans-Serif" font-size="11.00" fill="#000000">derived_version_</text>
<polygon fill="none" stroke="#000000" points="184.5,-498.2005 184.5,-520.2005 257.5,-520.2005 257.5,-498.2005 184.5,-498.2005"/>
<text text-anchor="start" x="187.5" y="-505.9005" font-family="Helvetica,sans-Serif" font-size="11.00" fill="#000000">int4[10]</text>
<polygon fill="none" stroke="#000000" points="10.5,-476.2005 10.5,-498.2005 184.5,-498.2005 184.5,-476.2005 10.5,-476.2005"/>
<text text-anchor="start" x="30.5" y="-483.3005" font-family="Helvetica,sans-Serif" font-size="11.00" fill="#000000">engine_version_</text>
<polygon fill="none" stroke="#000000" points="184.5,-476.2005 184.5,-498.2005 257.5,-498.2005 257.5,-476.2005 184.5,-476.2005"/>
<text text-anchor="start" x="187.5" y="-483.9005" font-family="Helvetica,sans-Serif" font-size="11.00" fill="#000000">varchar[255]</text>
<polygon fill="#ffffff" stroke="transparent" points="10.5,-457.2005 10.5,-476.2005 257.5,-476.2005 257.5,-457.2005 10.5,-457.2005"/>
<polygon fill="none" stroke="#000000" points="10.5,-457.2005 10.5,-476.2005 257.5,-476.2005 257.5,-457.2005 10.5,-457.2005"/>
<polygon fill="#ffffff" stroke="transparent" points="11.5,-458.2005 11.5,-475.2005 96.5,-475.2005 96.5,-458.2005 11.5,-458.2005"/>
<text text-anchor="start" x="13.5" y="-463.3005" font-family="Helvetica,sans-Serif" font-size="11.00" fill="#000000">&lt; 0</text>
<polygon fill="#ffffff" stroke="transparent" points="96.5,-458.2005 96.5,-475.2005 172.5,-475.2005 172.5,-458.2005 96.5,-458.2005"/>
<text text-anchor="start" x="131.4431" y="-463.3005" font-family="Helvetica,sans-Serif" font-size="11.00" fill="#000000"> &#160;</text>
<polygon fill="#ffffff" stroke="transparent" points="172.5,-458.2005 172.5,-475.2005 256.5,-475.2005 256.5,-458.2005 172.5,-458.2005"/>
<text text-anchor="start" x="238.9053" y="-463.3005" font-family="Helvetica,sans-Serif" font-size="11.00" fill="#000000">8 &gt;</text>
<polygon fill="#000000" stroke="#000000" points="96.5,-458.2005 96.5,-475.2005 96.5,-475.2005 96.5,-458.2005 96.5,-458.2005"/>
<polygon fill="#000000" stroke="#000000" points="172.5,-458.2005 172.5,-475.2005 172.5,-475.2005 172.5,-458.2005 172.5,-458.2005"/>
<polygon fill="none" stroke="#000000" stroke-width="2" points="9,-456.2005 9,-896.2005 258,-896.2005 258,-456.2005 9,-456.2005"/>
</a>
</g>
</g>
<!-- act_procdef_info&#45;&gt;act_re_procdef -->
<g id="edge1" class="edge">
<title>act_procdef_info:w&#45;&gt;act_re_procdef:e</title>
<path fill="none" stroke="#000000" d="M325.2415,-1197.8547C265.3121,-1167.9032 331.0272,-861.2005 257.5,-861.2005"/>
<polygon fill="#000000" stroke="#000000" points="335.6118,-1196.1228 333.8284,-1203.9215 332.2687,-1203.5648 334.0521,-1195.7661 335.6118,-1196.1228"/>
<polyline fill="none" stroke="#000000" points="335.5,-1200.2005 331.6006,-1199.3088 "/>
<ellipse fill="none" stroke="#000000" cx="328.4812" cy="-1198.5954" rx="3.2" ry="3.2"/>
</g>
<!-- act_ru_deadletter_job -->
<g id="node3" class="node">
<title>act_ru_deadletter_job</title>
<g id="a_node3"><a xlink:href="../../tables/act_ru_deadletter_job.html" xlink:title="act_ru_deadletter_job" target="_top">
<polygon fill="#ffffff" stroke="transparent" points="561.5,-1404.7005 561.5,-1707.7005 735.5,-1707.7005 735.5,-1404.7005 561.5,-1404.7005"/>
<polygon fill="#f5f5f5" stroke="transparent" points="561.5,-1684.2005 561.5,-1707.2005 735.5,-1707.2005 735.5,-1684.2005 561.5,-1684.2005"/>
<polygon fill="none" stroke="#000000" points="561.5,-1684.2005 561.5,-1707.2005 735.5,-1707.2005 735.5,-1684.2005 561.5,-1684.2005"/>
<text text-anchor="start" x="566.5" y="-1692.8005" font-family="Helvetica,sans-Serif" font-weight="bold" font-size="11.00" fill="#000000">act_ru_deadletter_job</text>
<text text-anchor="start" x="701.0219" y="-1692.3005" font-family="Helvetica,sans-Serif" font-size="11.00" fill="#000000">[table]</text>
<polygon fill="none" stroke="#000000" points="561.5,-1662.2005 561.5,-1684.2005 735.5,-1684.2005 735.5,-1662.2005 561.5,-1662.2005"/>
<image xlink:href="../../images/primaryKeys.png" width="11px" height="12px" preserveAspectRatio="xMinYMin meet" x="566.5" y="-1679.2"/>
<text text-anchor="start" x="590.5" y="-1669.3005" font-family="Helvetica,sans-Serif" font-size="11.00" fill="#000000">id_</text>
<polygon fill="#ffffff" stroke="transparent" points="561.5,-1640.2005 561.5,-1662.2005 735.5,-1662.2005 735.5,-1640.2005 561.5,-1640.2005"/>
<polygon fill="none" stroke="#000000" points="561.5,-1640.2005 561.5,-1662.2005 735.5,-1662.2005 735.5,-1640.2005 561.5,-1640.2005"/>
<image xlink:href="../../images/foreignKeys.png" width="11px" height="12px" preserveAspectRatio="xMinYMin meet" x="566.5" y="-1657.2"/>
<text text-anchor="start" x="590.5" y="-1647.3005" font-family="Helvetica,sans-Serif" font-size="11.00" fill="#000000">execution_id_</text>
<polygon fill="#ffffff" stroke="transparent" points="561.5,-1618.2005 561.5,-1640.2005 735.5,-1640.2005 735.5,-1618.2005 561.5,-1618.2005"/>
<polygon fill="none" stroke="#000000" points="561.5,-1618.2005 561.5,-1640.2005 735.5,-1640.2005 735.5,-1618.2005 561.5,-1618.2005"/>
<image xlink:href="../../images/foreignKeys.png" width="11px" height="12px" preserveAspectRatio="xMinYMin meet" x="566.5" y="-1635.2"/>
<text text-anchor="start" x="590.5" y="-1625.3005" font-family="Helvetica,sans-Serif" font-size="11.00" fill="#000000">process_instance_id_</text>
<polygon fill="#ffffff" stroke="transparent" points="561.5,-1596.2005 561.5,-1618.2005 735.5,-1618.2005 735.5,-1596.2005 561.5,-1596.2005"/>
<polygon fill="none" stroke="#000000" points="561.5,-1596.2005 561.5,-1618.2005 735.5,-1618.2005 735.5,-1596.2005 561.5,-1596.2005"/>
<image xlink:href="../../images/foreignKeys.png" width="11px" height="12px" preserveAspectRatio="xMinYMin meet" x="566.5" y="-1613.2"/>
<text text-anchor="start" x="590.5" y="-1603.3005" font-family="Helvetica,sans-Serif" font-size="11.00" fill="#000000">proc_def_id_</text>
<polygon fill="#ffffff" stroke="transparent" points="561.5,-1574.2005 561.5,-1596.2005 735.5,-1596.2005 735.5,-1574.2005 561.5,-1574.2005"/>
<polygon fill="none" stroke="#000000" points="561.5,-1574.2005 561.5,-1596.2005 735.5,-1596.2005 735.5,-1574.2005 561.5,-1574.2005"/>
<text text-anchor="start" x="590.5" y="-1581.3005" font-family="Helvetica,sans-Serif" font-size="11.00" fill="#000000">scope_id_</text>
<polygon fill="#ffffff" stroke="transparent" points="561.5,-1552.2005 561.5,-1574.2005 735.5,-1574.2005 735.5,-1552.2005 561.5,-1552.2005"/>
<polygon fill="none" stroke="#000000" points="561.5,-1552.2005 561.5,-1574.2005 735.5,-1574.2005 735.5,-1552.2005 561.5,-1552.2005"/>
<text text-anchor="start" x="590.5" y="-1559.3005" font-family="Helvetica,sans-Serif" font-size="11.00" fill="#000000">sub_scope_id_</text>
<polygon fill="#ffffff" stroke="transparent" points="561.5,-1530.2005 561.5,-1552.2005 735.5,-1552.2005 735.5,-1530.2005 561.5,-1530.2005"/>
<polygon fill="none" stroke="#000000" points="561.5,-1530.2005 561.5,-1552.2005 735.5,-1552.2005 735.5,-1530.2005 561.5,-1530.2005"/>
<text text-anchor="start" x="590.5" y="-1537.3005" font-family="Helvetica,sans-Serif" font-size="11.00" fill="#000000">scope_type_</text>
<polygon fill="#ffffff" stroke="transparent" points="561.5,-1508.2005 561.5,-1530.2005 735.5,-1530.2005 735.5,-1508.2005 561.5,-1508.2005"/>
<polygon fill="none" stroke="#000000" points="561.5,-1508.2005 561.5,-1530.2005 735.5,-1530.2005 735.5,-1508.2005 561.5,-1508.2005"/>
<text text-anchor="start" x="590.5" y="-1515.3005" font-family="Helvetica,sans-Serif" font-size="11.00" fill="#000000">scope_definition_id_</text>
<polygon fill="#ffffff" stroke="transparent" points="561.5,-1486.2005 561.5,-1508.2005 735.5,-1508.2005 735.5,-1486.2005 561.5,-1486.2005"/>
<polygon fill="none" stroke="#000000" points="561.5,-1486.2005 561.5,-1508.2005 735.5,-1508.2005 735.5,-1486.2005 561.5,-1486.2005"/>
<text text-anchor="start" x="590.5" y="-1493.3005" font-family="Helvetica,sans-Serif" font-size="11.00" fill="#000000">correlation_id_</text>
<polygon fill="#ffffff" stroke="transparent" points="561.5,-1464.2005 561.5,-1486.2005 735.5,-1486.2005 735.5,-1464.2005 561.5,-1464.2005"/>
<polygon fill="none" stroke="#000000" points="561.5,-1464.2005 561.5,-1486.2005 735.5,-1486.2005 735.5,-1464.2005 561.5,-1464.2005"/>
<image xlink:href="../../images/foreignKeys.png" width="11px" height="12px" preserveAspectRatio="xMinYMin meet" x="566.5" y="-1481.2"/>
<text text-anchor="start" x="590.5" y="-1471.3005" font-family="Helvetica,sans-Serif" font-size="11.00" fill="#000000">exception_stack_id_</text>
<polygon fill="#ffffff" stroke="transparent" points="561.5,-1442.2005 561.5,-1464.2005 735.5,-1464.2005 735.5,-1442.2005 561.5,-1442.2005"/>
<polygon fill="none" stroke="#000000" points="561.5,-1442.2005 561.5,-1464.2005 735.5,-1464.2005 735.5,-1442.2005 561.5,-1442.2005"/>
<image xlink:href="../../images/foreignKeys.png" width="11px" height="12px" preserveAspectRatio="xMinYMin meet" x="566.5" y="-1459.2"/>
<text text-anchor="start" x="590.5" y="-1449.3005" font-family="Helvetica,sans-Serif" font-size="11.00" fill="#000000">custom_values_id_</text>
<polygon fill="none" stroke="#000000" points="561.5,-1423.2005 561.5,-1442.2005 735.5,-1442.2005 735.5,-1423.2005 561.5,-1423.2005"/>
<text text-anchor="start" x="564.5" y="-1429.3005" font-family="Helvetica,sans-Serif" font-size="11.00" fill="#000000">...</text>
<polygon fill="#ffffff" stroke="transparent" points="561.5,-1404.2005 561.5,-1423.2005 735.5,-1423.2005 735.5,-1404.2005 561.5,-1404.2005"/>
<polygon fill="none" stroke="#000000" points="561.5,-1404.2005 561.5,-1423.2005 735.5,-1423.2005 735.5,-1404.2005 561.5,-1404.2005"/>
<polygon fill="#ffffff" stroke="transparent" points="562.5,-1405.2005 562.5,-1422.2005 626.5,-1422.2005 626.5,-1405.2005 562.5,-1405.2005"/>
<text text-anchor="start" x="564.5" y="-1410.3005" font-family="Helvetica,sans-Serif" font-size="11.00" fill="#000000">&lt; 5</text>
<polygon fill="#ffffff" stroke="transparent" points="626.5,-1405.2005 626.5,-1422.2005 680.5,-1422.2005 680.5,-1405.2005 626.5,-1405.2005"/>
<text text-anchor="start" x="650.4431" y="-1410.3005" font-family="Helvetica,sans-Serif" font-size="11.00" fill="#000000"> &#160;</text>
<polygon fill="#ffffff" stroke="transparent" points="680.5,-1405.2005 680.5,-1422.2005 734.5,-1422.2005 734.5,-1405.2005 680.5,-1405.2005"/>
<text text-anchor="start" x="726.3862" y="-1410.3005" font-family="Helvetica,sans-Serif" font-size="11.00" fill="#000000"> &#160;</text>
<polygon fill="#000000" stroke="#000000" points="626.5,-1405.2005 626.5,-1422.2005 626.5,-1422.2005 626.5,-1405.2005 626.5,-1405.2005"/>
<polygon fill="#000000" stroke="#000000" points="680.5,-1405.2005 680.5,-1422.2005 680.5,-1422.2005 680.5,-1405.2005 680.5,-1405.2005"/>
</a>
</g>
</g>
<!-- act_ru_deadletter_job&#45;&gt;act_re_procdef -->
<g id="edge3" class="edge">
<title>act_ru_deadletter_job:w&#45;&gt;act_re_procdef:e</title>
<path fill="none" stroke="#000000" d="M547.235,-1604.3585C465.2934,-1568.0103 584.7841,-1193.9796 513,-1119.2005 446.7951,-1050.2333 369.0829,-1155.2846 300,-1089.2005 225.5136,-1017.9473 360.5788,-861.2005 257.5,-861.2005"/>
<polygon fill="#000000" stroke="#000000" points="553.6542,-1605.6373 560.7966,-1610.7311 557.5771,-1606.4189 561.5,-1607.2005 561.5,-1607.2005 561.5,-1607.2005 557.5771,-1606.4189 562.2034,-1603.6698 553.6542,-1605.6373 553.6542,-1605.6373"/>
<ellipse fill="none" stroke="#000000" cx="550.5159" cy="-1605.0121" rx="3.2" ry="3.2"/>
</g>
<!-- act_ru_execution -->
<g id="node4" class="node">
<title>act_ru_execution</title>
<g id="a_node4"><a xlink:href="../../tables/act_ru_execution.html" xlink:title="act_ru_execution" target="_top">
<polygon fill="#ffffff" stroke="transparent" points="308,-816.7005 308,-1053.7005 505,-1053.7005 505,-816.7005 308,-816.7005"/>
<polygon fill="#f5f5f5" stroke="transparent" points="308.5,-1030.2005 308.5,-1053.2005 505.5,-1053.2005 505.5,-1030.2005 308.5,-1030.2005"/>
<polygon fill="none" stroke="#000000" points="308.5,-1030.2005 308.5,-1053.2005 505.5,-1053.2005 505.5,-1030.2005 308.5,-1030.2005"/>
<text text-anchor="start" x="313.5" y="-1038.8005" font-family="Helvetica,sans-Serif" font-weight="bold" font-size="11.00" fill="#000000">act_ru_execution</text>
<text text-anchor="start" x="470.5437" y="-1038.3005" font-family="Helvetica,sans-Serif" font-size="11.00" fill="#000000">[table]</text>
<polygon fill="none" stroke="#000000" points="308.5,-1008.2005 308.5,-1030.2005 505.5,-1030.2005 505.5,-1008.2005 308.5,-1008.2005"/>
<image xlink:href="../../images/primaryKeys.png" width="11px" height="12px" preserveAspectRatio="xMinYMin meet" x="313.5" y="-1025.2"/>
<text text-anchor="start" x="328.5" y="-1015.3005" font-family="Helvetica,sans-Serif" font-size="11.00" fill="#000000">id_</text>
<polygon fill="#ffffff" stroke="transparent" points="308.5,-986.2005 308.5,-1008.2005 505.5,-1008.2005 505.5,-986.2005 308.5,-986.2005"/>
<polygon fill="none" stroke="#000000" points="308.5,-986.2005 308.5,-1008.2005 505.5,-1008.2005 505.5,-986.2005 308.5,-986.2005"/>
<image xlink:href="../../images/foreignKeys.png" width="11px" height="12px" preserveAspectRatio="xMinYMin meet" x="313.5" y="-1003.2"/>
<text text-anchor="start" x="328.5" y="-993.3005" font-family="Helvetica,sans-Serif" font-size="11.00" fill="#000000">proc_inst_id_</text>
<polygon fill="#ffffff" stroke="transparent" points="308.5,-964.2005 308.5,-986.2005 505.5,-986.2005 505.5,-964.2005 308.5,-964.2005"/>
<polygon fill="none" stroke="#000000" points="308.5,-964.2005 308.5,-986.2005 505.5,-986.2005 505.5,-964.2005 308.5,-964.2005"/>
<text text-anchor="start" x="328.5" y="-971.3005" font-family="Helvetica,sans-Serif" font-size="11.00" fill="#000000">business_key_</text>
<polygon fill="#ffffff" stroke="transparent" points="308.5,-942.2005 308.5,-964.2005 505.5,-964.2005 505.5,-942.2005 308.5,-942.2005"/>
<polygon fill="none" stroke="#000000" points="308.5,-942.2005 308.5,-964.2005 505.5,-964.2005 505.5,-942.2005 308.5,-942.2005"/>
<image xlink:href="../../images/foreignKeys.png" width="11px" height="12px" preserveAspectRatio="xMinYMin meet" x="313.5" y="-959.2"/>
<text text-anchor="start" x="328.5" y="-949.3005" font-family="Helvetica,sans-Serif" font-size="11.00" fill="#000000">parent_id_</text>
<polygon fill="#ffffff" stroke="transparent" points="308.5,-920.2005 308.5,-942.2005 505.5,-942.2005 505.5,-920.2005 308.5,-920.2005"/>
<polygon fill="none" stroke="#000000" points="308.5,-920.2005 308.5,-942.2005 505.5,-942.2005 505.5,-920.2005 308.5,-920.2005"/>
<image xlink:href="../../images/foreignKeys.png" width="11px" height="12px" preserveAspectRatio="xMinYMin meet" x="313.5" y="-937.2"/>
<text text-anchor="start" x="328.5" y="-927.3005" font-family="Helvetica,sans-Serif" font-size="11.00" fill="#000000">proc_def_id_</text>
<polygon fill="#ffffff" stroke="transparent" points="308.5,-898.2005 308.5,-920.2005 505.5,-920.2005 505.5,-898.2005 308.5,-898.2005"/>
<polygon fill="none" stroke="#000000" points="308.5,-898.2005 308.5,-920.2005 505.5,-920.2005 505.5,-898.2005 308.5,-898.2005"/>
<image xlink:href="../../images/foreignKeys.png" width="11px" height="12px" preserveAspectRatio="xMinYMin meet" x="313.5" y="-915.2"/>
<text text-anchor="start" x="328.5" y="-905.3005" font-family="Helvetica,sans-Serif" font-size="11.00" fill="#000000">super_exec_</text>
<polygon fill="#ffffff" stroke="transparent" points="308.5,-876.2005 308.5,-898.2005 505.5,-898.2005 505.5,-876.2005 308.5,-876.2005"/>
<polygon fill="none" stroke="#000000" points="308.5,-876.2005 308.5,-898.2005 505.5,-898.2005 505.5,-876.2005 308.5,-876.2005"/>
<text text-anchor="start" x="328.5" y="-883.3005" font-family="Helvetica,sans-Serif" font-size="11.00" fill="#000000">root_proc_inst_id_</text>
<polygon fill="#ffffff" stroke="transparent" points="308.5,-854.2005 308.5,-876.2005 505.5,-876.2005 505.5,-854.2005 308.5,-854.2005"/>
<polygon fill="none" stroke="#000000" points="308.5,-854.2005 308.5,-876.2005 505.5,-876.2005 505.5,-854.2005 308.5,-854.2005"/>
<text text-anchor="start" x="328.5" y="-861.3005" font-family="Helvetica,sans-Serif" font-size="11.00" fill="#000000">reference_id_</text>
<polygon fill="none" stroke="#000000" points="308.5,-835.2005 308.5,-854.2005 505.5,-854.2005 505.5,-835.2005 308.5,-835.2005"/>
<text text-anchor="start" x="311.5" y="-841.3005" font-family="Helvetica,sans-Serif" font-size="11.00" fill="#000000">...</text>
<polygon fill="#ffffff" stroke="transparent" points="308.5,-816.2005 308.5,-835.2005 505.5,-835.2005 505.5,-816.2005 308.5,-816.2005"/>
<polygon fill="none" stroke="#000000" points="308.5,-816.2005 308.5,-835.2005 505.5,-835.2005 505.5,-816.2005 308.5,-816.2005"/>
<polygon fill="#ffffff" stroke="transparent" points="309.5,-817.2005 309.5,-834.2005 375.5,-834.2005 375.5,-817.2005 309.5,-817.2005"/>
<text text-anchor="start" x="311.5" y="-822.3005" font-family="Helvetica,sans-Serif" font-size="11.00" fill="#000000">&lt; 4</text>
<polygon fill="#ffffff" stroke="transparent" points="375.5,-817.2005 375.5,-834.2005 432.5,-834.2005 432.5,-817.2005 375.5,-817.2005"/>
<text text-anchor="start" x="400.9431" y="-822.3005" font-family="Helvetica,sans-Serif" font-size="11.00" fill="#000000"> &#160;</text>
<polygon fill="#ffffff" stroke="transparent" points="432.5,-817.2005 432.5,-834.2005 504.5,-834.2005 504.5,-817.2005 432.5,-817.2005"/>
<text text-anchor="start" x="480.7904" y="-822.3005" font-family="Helvetica,sans-Serif" font-size="11.00" fill="#000000">17 &gt;</text>
<polygon fill="#000000" stroke="#000000" points="375.5,-817.2005 375.5,-834.2005 375.5,-834.2005 375.5,-817.2005 375.5,-817.2005"/>
<polygon fill="#000000" stroke="#000000" points="432.5,-817.2005 432.5,-834.2005 432.5,-834.2005 432.5,-817.2005 432.5,-817.2005"/>
</a>
</g>
</g>
<!-- act_ru_deadletter_job&#45;&gt;act_ru_execution -->
<g id="edge2" class="edge">
<title>act_ru_deadletter_job:w&#45;&gt;act_ru_execution:e</title>
<path fill="none" stroke="#000000" d="M549.4216,-1643.2096C501.6053,-1570.0499 571.3159,-1019.2005 505.5,-1019.2005"/>
<polygon fill="#000000" stroke="#000000" points="554.828,-1646.7864 559.5137,-1654.2029 558.164,-1648.9934 561.5,-1651.2005 561.5,-1651.2005 561.5,-1651.2005 558.164,-1648.9934 563.4863,-1648.198 554.828,-1646.7864 554.828,-1646.7864"/>
<ellipse fill="none" stroke="#000000" cx="552.1591" cy="-1645.0207" rx="3.2" ry="3.2"/>
</g>
<!-- act_ru_deadletter_job&#45;&gt;act_ru_execution -->
<g id="edge4" class="edge">
<title>act_ru_deadletter_job:w&#45;&gt;act_ru_execution:e</title>
<path fill="none" stroke="#000000" d="M549.5246,-1621.0386C503.6994,-1548.6526 568.9101,-1019.2005 505.5,-1019.2005"/>
<polygon fill="#000000" stroke="#000000" points="554.8894,-1624.6949 559.4725,-1632.1753 558.1947,-1626.9477 561.5,-1629.2005 561.5,-1629.2005 561.5,-1629.2005 558.1947,-1626.9477 563.5275,-1626.2257 554.8894,-1624.6949 554.8894,-1624.6949"/>
<ellipse fill="none" stroke="#000000" cx="552.2451" cy="-1622.8927" rx="3.2" ry="3.2"/>
</g>
<!-- act_ru_execution&#45;&gt;act_re_procdef -->
<g id="edge5" class="edge">
<title>act_ru_execution:w&#45;&gt;act_re_procdef:e</title>
<path fill="none" stroke="#000000" d="M294.6872,-926.6076C276.5536,-911.0344 289.9781,-861.2005 257.5,-861.2005"/>
<polygon fill="#000000" stroke="#000000" points="300.9087,-928.6762 307.3641,-934.6166 304.7043,-929.9383 308.5,-931.2005 308.5,-931.2005 308.5,-931.2005 304.7043,-929.9383 309.6359,-927.7844 300.9087,-928.6762 300.9087,-928.6762"/>
<ellipse fill="none" stroke="#000000" cx="297.8721" cy="-927.6665" rx="3.2" ry="3.2"/>
</g>
<!-- act_ru_identitylink -->
<g id="node5" class="node">
<title>act_ru_identitylink</title>
<g id="a_node5"><a xlink:href="../../tables/act_ru_identitylink.html" xlink:title="act_ru_identitylink" target="_top">
<polygon fill="#ffffff" stroke="transparent" points="792,-941.7005 792,-1222.7005 945,-1222.7005 945,-941.7005 792,-941.7005"/>
<polygon fill="#f5f5f5" stroke="transparent" points="792.5,-1199.2005 792.5,-1222.2005 945.5,-1222.2005 945.5,-1199.2005 792.5,-1199.2005"/>
<polygon fill="none" stroke="#000000" points="792.5,-1199.2005 792.5,-1222.2005 945.5,-1222.2005 945.5,-1199.2005 792.5,-1199.2005"/>
<text text-anchor="start" x="797.5" y="-1207.8005" font-family="Helvetica,sans-Serif" font-weight="bold" font-size="11.00" fill="#000000">act_ru_identitylink</text>
<text text-anchor="start" x="911.0219" y="-1207.3005" font-family="Helvetica,sans-Serif" font-size="11.00" fill="#000000">[table]</text>
<polygon fill="none" stroke="#000000" points="792.5,-1177.2005 792.5,-1199.2005 945.5,-1199.2005 945.5,-1177.2005 792.5,-1177.2005"/>
<image xlink:href="../../images/primaryKeys.png" width="11px" height="12px" preserveAspectRatio="xMinYMin meet" x="797.5" y="-1194.2"/>
<text text-anchor="start" x="814.5" y="-1184.3005" font-family="Helvetica,sans-Serif" font-size="11.00" fill="#000000">id_</text>
<polygon fill="#ffffff" stroke="transparent" points="792.5,-1155.2005 792.5,-1177.2005 945.5,-1177.2005 945.5,-1155.2005 792.5,-1155.2005"/>
<polygon fill="none" stroke="#000000" points="792.5,-1155.2005 792.5,-1177.2005 945.5,-1177.2005 945.5,-1155.2005 792.5,-1155.2005"/>
<text text-anchor="start" x="814.5" y="-1162.3005" font-family="Helvetica,sans-Serif" font-size="11.00" fill="#000000">group_id_</text>
<polygon fill="#ffffff" stroke="transparent" points="792.5,-1133.2005 792.5,-1155.2005 945.5,-1155.2005 945.5,-1133.2005 792.5,-1133.2005"/>
<polygon fill="none" stroke="#000000" points="792.5,-1133.2005 792.5,-1155.2005 945.5,-1155.2005 945.5,-1133.2005 792.5,-1133.2005"/>
<text text-anchor="start" x="814.5" y="-1140.3005" font-family="Helvetica,sans-Serif" font-size="11.00" fill="#000000">user_id_</text>
<polygon fill="#ffffff" stroke="transparent" points="792.5,-1111.2005 792.5,-1133.2005 945.5,-1133.2005 945.5,-1111.2005 792.5,-1111.2005"/>
<polygon fill="none" stroke="#000000" points="792.5,-1111.2005 792.5,-1133.2005 945.5,-1133.2005 945.5,-1111.2005 792.5,-1111.2005"/>
<image xlink:href="../../images/foreignKeys.png" width="11px" height="12px" preserveAspectRatio="xMinYMin meet" x="797.5" y="-1128.2"/>
<text text-anchor="start" x="814.5" y="-1118.3005" font-family="Helvetica,sans-Serif" font-size="11.00" fill="#000000">task_id_</text>
<polygon fill="#ffffff" stroke="transparent" points="792.5,-1089.2005 792.5,-1111.2005 945.5,-1111.2005 945.5,-1089.2005 792.5,-1089.2005"/>
<polygon fill="none" stroke="#000000" points="792.5,-1089.2005 792.5,-1111.2005 945.5,-1111.2005 945.5,-1089.2005 792.5,-1089.2005"/>
<image xlink:href="../../images/foreignKeys.png" width="11px" height="12px" preserveAspectRatio="xMinYMin meet" x="797.5" y="-1106.2"/>
<text text-anchor="start" x="814.5" y="-1096.3005" font-family="Helvetica,sans-Serif" font-size="11.00" fill="#000000">proc_inst_id_</text>
<polygon fill="#ffffff" stroke="transparent" points="792.5,-1067.2005 792.5,-1089.2005 945.5,-1089.2005 945.5,-1067.2005 792.5,-1067.2005"/>
<polygon fill="none" stroke="#000000" points="792.5,-1067.2005 792.5,-1089.2005 945.5,-1089.2005 945.5,-1067.2005 792.5,-1067.2005"/>
<image xlink:href="../../images/foreignKeys.png" width="11px" height="12px" preserveAspectRatio="xMinYMin meet" x="797.5" y="-1084.2"/>
<text text-anchor="start" x="814.5" y="-1074.3005" font-family="Helvetica,sans-Serif" font-size="11.00" fill="#000000">proc_def_id_</text>
<polygon fill="#ffffff" stroke="transparent" points="792.5,-1045.2005 792.5,-1067.2005 945.5,-1067.2005 945.5,-1045.2005 792.5,-1045.2005"/>
<polygon fill="none" stroke="#000000" points="792.5,-1045.2005 792.5,-1067.2005 945.5,-1067.2005 945.5,-1045.2005 792.5,-1045.2005"/>
<text text-anchor="start" x="814.5" y="-1052.3005" font-family="Helvetica,sans-Serif" font-size="11.00" fill="#000000">scope_id_</text>
<polygon fill="#ffffff" stroke="transparent" points="792.5,-1023.2005 792.5,-1045.2005 945.5,-1045.2005 945.5,-1023.2005 792.5,-1023.2005"/>
<polygon fill="none" stroke="#000000" points="792.5,-1023.2005 792.5,-1045.2005 945.5,-1045.2005 945.5,-1023.2005 792.5,-1023.2005"/>
<text text-anchor="start" x="814.5" y="-1030.3005" font-family="Helvetica,sans-Serif" font-size="11.00" fill="#000000">sub_scope_id_</text>
<polygon fill="#ffffff" stroke="transparent" points="792.5,-1001.2005 792.5,-1023.2005 945.5,-1023.2005 945.5,-1001.2005 792.5,-1001.2005"/>
<polygon fill="none" stroke="#000000" points="792.5,-1001.2005 792.5,-1023.2005 945.5,-1023.2005 945.5,-1001.2005 792.5,-1001.2005"/>
<text text-anchor="start" x="814.5" y="-1008.3005" font-family="Helvetica,sans-Serif" font-size="11.00" fill="#000000">scope_type_</text>
<polygon fill="#ffffff" stroke="transparent" points="792.5,-979.2005 792.5,-1001.2005 945.5,-1001.2005 945.5,-979.2005 792.5,-979.2005"/>
<polygon fill="none" stroke="#000000" points="792.5,-979.2005 792.5,-1001.2005 945.5,-1001.2005 945.5,-979.2005 792.5,-979.2005"/>
<text text-anchor="start" x="814.5" y="-986.3005" font-family="Helvetica,sans-Serif" font-size="11.00" fill="#000000">scope_definition_id_</text>
<polygon fill="none" stroke="#000000" points="792.5,-960.2005 792.5,-979.2005 945.5,-979.2005 945.5,-960.2005 792.5,-960.2005"/>
<text text-anchor="start" x="795.5" y="-966.3005" font-family="Helvetica,sans-Serif" font-size="11.00" fill="#000000">...</text>
<polygon fill="#ffffff" stroke="transparent" points="792.5,-941.2005 792.5,-960.2005 945.5,-960.2005 945.5,-941.2005 792.5,-941.2005"/>
<polygon fill="none" stroke="#000000" points="792.5,-941.2005 792.5,-960.2005 945.5,-960.2005 945.5,-941.2005 792.5,-941.2005"/>
<polygon fill="#ffffff" stroke="transparent" points="793.5,-942.2005 793.5,-959.2005 850.5,-959.2005 850.5,-942.2005 793.5,-942.2005"/>
<text text-anchor="start" x="795.5" y="-947.3005" font-family="Helvetica,sans-Serif" font-size="11.00" fill="#000000">&lt; 3</text>
<polygon fill="#ffffff" stroke="transparent" points="850.5,-942.2005 850.5,-959.2005 897.5,-959.2005 897.5,-942.2005 850.5,-942.2005"/>
<text text-anchor="start" x="870.9431" y="-947.3005" font-family="Helvetica,sans-Serif" font-size="11.00" fill="#000000"> &#160;</text>
<polygon fill="#ffffff" stroke="transparent" points="897.5,-942.2005 897.5,-959.2005 944.5,-959.2005 944.5,-942.2005 897.5,-942.2005"/>
<text text-anchor="start" x="936.3862" y="-947.3005" font-family="Helvetica,sans-Serif" font-size="11.00" fill="#000000"> &#160;</text>
<polygon fill="#000000" stroke="#000000" points="850.5,-942.2005 850.5,-959.2005 850.5,-959.2005 850.5,-942.2005 850.5,-942.2005"/>
<polygon fill="#000000" stroke="#000000" points="897.5,-942.2005 897.5,-959.2005 897.5,-959.2005 897.5,-942.2005 897.5,-942.2005"/>
</a>
</g>
</g>
<!-- act_ru_identitylink&#45;&gt;act_re_procdef -->
<g id="edge6" class="edge">
<title>act_ru_identitylink:w&#45;&gt;act_re_procdef:e</title>
<path fill="none" stroke="#000000" d="M783.1878,-1066.8827C744.1088,-959.7709 788.0241,-127.699 751,-92.2005 587.2545,64.7981 396.6089,-125.9498 300,-331.2005 274.8405,-384.6532 316.5779,-861.2005 257.5,-861.2005"/>
<polygon fill="#000000" stroke="#000000" points="787.417,-1072.0228 789.72,-1080.4878 789.9585,-1075.1116 792.5,-1078.2005 792.5,-1078.2005 792.5,-1078.2005 789.9585,-1075.1116 795.28,-1075.9131 787.417,-1072.0228 787.417,-1072.0228"/>
<ellipse fill="none" stroke="#000000" cx="785.3838" cy="-1069.5517" rx="3.2" ry="3.2"/>
</g>
<!-- act_ru_identitylink&#45;&gt;act_ru_execution -->
<g id="edge7" class="edge">
<title>act_ru_identitylink:w&#45;&gt;act_ru_execution:e</title>
<path fill="none" stroke="#000000" d="M778.0865,-1100.4351C715.6315,-1102.1746 589.3328,-1112.2882 546,-1086.2005 516.19,-1068.2539 540.2953,-1019.2005 505.5,-1019.2005"/>
<polygon fill="#000000" stroke="#000000" points="784.5011,-1100.3308 792.5586,-1103.8 788.5005,-1100.2656 792.5,-1100.2005 792.5,-1100.2005 792.5,-1100.2005 788.5005,-1100.2656 792.4414,-1096.6009 784.5011,-1100.3308 784.5011,-1100.3308"/>
<ellipse fill="none" stroke="#000000" cx="781.3015" cy="-1100.3829" rx="3.2" ry="3.2"/>
</g>
<!-- act_ru_task -->
<g id="node6" class="node">
<title>act_ru_task</title>
<g id="a_node6"><a xlink:href="../../tables/act_ru_task.html" xlink:title="act_ru_task" target="_top">
<polygon fill="#ffffff" stroke="transparent" points="554,-1124.7005 554,-1383.7005 743,-1383.7005 743,-1124.7005 554,-1124.7005"/>
<polygon fill="#f5f5f5" stroke="transparent" points="554.5,-1360.2005 554.5,-1383.2005 743.5,-1383.2005 743.5,-1360.2005 554.5,-1360.2005"/>
<polygon fill="none" stroke="#000000" points="554.5,-1360.2005 554.5,-1383.2005 743.5,-1383.2005 743.5,-1360.2005 554.5,-1360.2005"/>
<text text-anchor="start" x="559.5" y="-1368.8005" font-family="Helvetica,sans-Serif" font-weight="bold" font-size="11.00" fill="#000000">act_ru_task</text>
<text text-anchor="start" x="708.5437" y="-1368.3005" font-family="Helvetica,sans-Serif" font-size="11.00" fill="#000000">[table]</text>
<polygon fill="none" stroke="#000000" points="554.5,-1338.2005 554.5,-1360.2005 743.5,-1360.2005 743.5,-1338.2005 554.5,-1338.2005"/>
<image xlink:href="../../images/primaryKeys.png" width="11px" height="12px" preserveAspectRatio="xMinYMin meet" x="559.5" y="-1355.2"/>
<text text-anchor="start" x="574.5" y="-1345.3005" font-family="Helvetica,sans-Serif" font-size="11.00" fill="#000000">id_</text>
<polygon fill="#ffffff" stroke="transparent" points="554.5,-1316.2005 554.5,-1338.2005 743.5,-1338.2005 743.5,-1316.2005 554.5,-1316.2005"/>
<polygon fill="none" stroke="#000000" points="554.5,-1316.2005 554.5,-1338.2005 743.5,-1338.2005 743.5,-1316.2005 554.5,-1316.2005"/>
<image xlink:href="../../images/foreignKeys.png" width="11px" height="12px" preserveAspectRatio="xMinYMin meet" x="559.5" y="-1333.2"/>
<text text-anchor="start" x="574.5" y="-1323.3005" font-family="Helvetica,sans-Serif" font-size="11.00" fill="#000000">execution_id_</text>
<polygon fill="#ffffff" stroke="transparent" points="554.5,-1294.2005 554.5,-1316.2005 743.5,-1316.2005 743.5,-1294.2005 554.5,-1294.2005"/>
<polygon fill="none" stroke="#000000" points="554.5,-1294.2005 554.5,-1316.2005 743.5,-1316.2005 743.5,-1294.2005 554.5,-1294.2005"/>
<image xlink:href="../../images/foreignKeys.png" width="11px" height="12px" preserveAspectRatio="xMinYMin meet" x="559.5" y="-1311.2"/>
<text text-anchor="start" x="574.5" y="-1301.3005" font-family="Helvetica,sans-Serif" font-size="11.00" fill="#000000">proc_inst_id_</text>
<polygon fill="#ffffff" stroke="transparent" points="554.5,-1272.2005 554.5,-1294.2005 743.5,-1294.2005 743.5,-1272.2005 554.5,-1272.2005"/>
<polygon fill="none" stroke="#000000" points="554.5,-1272.2005 554.5,-1294.2005 743.5,-1294.2005 743.5,-1272.2005 554.5,-1272.2005"/>
<image xlink:href="../../images/foreignKeys.png" width="11px" height="12px" preserveAspectRatio="xMinYMin meet" x="559.5" y="-1289.2"/>
<text text-anchor="start" x="574.5" y="-1279.3005" font-family="Helvetica,sans-Serif" font-size="11.00" fill="#000000">proc_def_id_</text>
<polygon fill="#ffffff" stroke="transparent" points="554.5,-1250.2005 554.5,-1272.2005 743.5,-1272.2005 743.5,-1250.2005 554.5,-1250.2005"/>
<polygon fill="none" stroke="#000000" points="554.5,-1250.2005 554.5,-1272.2005 743.5,-1272.2005 743.5,-1250.2005 554.5,-1250.2005"/>
<text text-anchor="start" x="574.5" y="-1257.3005" font-family="Helvetica,sans-Serif" font-size="11.00" fill="#000000">scope_id_</text>
<polygon fill="#ffffff" stroke="transparent" points="554.5,-1228.2005 554.5,-1250.2005 743.5,-1250.2005 743.5,-1228.2005 554.5,-1228.2005"/>
<polygon fill="none" stroke="#000000" points="554.5,-1228.2005 554.5,-1250.2005 743.5,-1250.2005 743.5,-1228.2005 554.5,-1228.2005"/>
<text text-anchor="start" x="574.5" y="-1235.3005" font-family="Helvetica,sans-Serif" font-size="11.00" fill="#000000">sub_scope_id_</text>
<polygon fill="#ffffff" stroke="transparent" points="554.5,-1206.2005 554.5,-1228.2005 743.5,-1228.2005 743.5,-1206.2005 554.5,-1206.2005"/>
<polygon fill="none" stroke="#000000" points="554.5,-1206.2005 554.5,-1228.2005 743.5,-1228.2005 743.5,-1206.2005 554.5,-1206.2005"/>
<text text-anchor="start" x="574.5" y="-1213.3005" font-family="Helvetica,sans-Serif" font-size="11.00" fill="#000000">scope_type_</text>
<polygon fill="#ffffff" stroke="transparent" points="554.5,-1184.2005 554.5,-1206.2005 743.5,-1206.2005 743.5,-1184.2005 554.5,-1184.2005"/>
<polygon fill="none" stroke="#000000" points="554.5,-1184.2005 554.5,-1206.2005 743.5,-1206.2005 743.5,-1184.2005 554.5,-1184.2005"/>
<text text-anchor="start" x="574.5" y="-1191.3005" font-family="Helvetica,sans-Serif" font-size="11.00" fill="#000000">scope_definition_id_</text>
<polygon fill="#ffffff" stroke="transparent" points="554.5,-1162.2005 554.5,-1184.2005 743.5,-1184.2005 743.5,-1162.2005 554.5,-1162.2005"/>
<polygon fill="none" stroke="#000000" points="554.5,-1162.2005 554.5,-1184.2005 743.5,-1184.2005 743.5,-1162.2005 554.5,-1162.2005"/>
<text text-anchor="start" x="574.5" y="-1169.3005" font-family="Helvetica,sans-Serif" font-size="11.00" fill="#000000">create_time_</text>
<polygon fill="none" stroke="#000000" points="554.5,-1143.2005 554.5,-1162.2005 743.5,-1162.2005 743.5,-1143.2005 554.5,-1143.2005"/>
<text text-anchor="start" x="557.5" y="-1149.3005" font-family="Helvetica,sans-Serif" font-size="11.00" fill="#000000">...</text>
<polygon fill="#ffffff" stroke="transparent" points="554.5,-1124.2005 554.5,-1143.2005 743.5,-1143.2005 743.5,-1124.2005 554.5,-1124.2005"/>
<polygon fill="none" stroke="#000000" points="554.5,-1124.2005 554.5,-1143.2005 743.5,-1143.2005 743.5,-1124.2005 554.5,-1124.2005"/>
<polygon fill="#ffffff" stroke="transparent" points="555.5,-1125.2005 555.5,-1142.2005 621.5,-1142.2005 621.5,-1125.2005 555.5,-1125.2005"/>
<text text-anchor="start" x="557.5" y="-1130.3005" font-family="Helvetica,sans-Serif" font-size="11.00" fill="#000000">&lt; 3</text>
<polygon fill="#ffffff" stroke="transparent" points="621.5,-1125.2005 621.5,-1142.2005 677.5,-1142.2005 677.5,-1125.2005 621.5,-1125.2005"/>
<text text-anchor="start" x="646.4431" y="-1130.3005" font-family="Helvetica,sans-Serif" font-size="11.00" fill="#000000"> &#160;</text>
<polygon fill="#ffffff" stroke="transparent" points="677.5,-1125.2005 677.5,-1142.2005 742.5,-1142.2005 742.5,-1125.2005 677.5,-1125.2005"/>
<text text-anchor="start" x="724.9053" y="-1130.3005" font-family="Helvetica,sans-Serif" font-size="11.00" fill="#000000">1 &gt;</text>
<polygon fill="#000000" stroke="#000000" points="621.5,-1125.2005 621.5,-1142.2005 621.5,-1142.2005 621.5,-1125.2005 621.5,-1125.2005"/>
<polygon fill="#000000" stroke="#000000" points="677.5,-1125.2005 677.5,-1142.2005 677.5,-1142.2005 677.5,-1125.2005 677.5,-1125.2005"/>
</a>
</g>
</g>
<!-- act_ru_identitylink&#45;&gt;act_ru_task -->
<g id="edge8" class="edge">
<title>act_ru_identitylink:w&#45;&gt;act_ru_task:e</title>
<path fill="none" stroke="#000000" d="M777.8199,-1124.1629C705.7263,-1146.3497 841.0682,-1349.2005 743.5,-1349.2005"/>
<polygon fill="#000000" stroke="#000000" points="784.5705,-1123.2605 792.977,-1125.7687 788.5353,-1122.7305 792.5,-1122.2005 792.5,-1122.2005 792.5,-1122.2005 788.5353,-1122.7305 792.023,-1118.6322 784.5705,-1123.2605 784.5705,-1123.2605"/>
<ellipse fill="none" stroke="#000000" cx="781.3988" cy="-1123.6845" rx="3.2" ry="3.2"/>
</g>
<!-- act_ru_task&#45;&gt;act_re_procdef -->
<g id="edge16" class="edge">
<title>act_ru_task:w&#45;&gt;act_re_procdef:e</title>
<path fill="none" stroke="#000000" d="M539.8915,-1281.5431C482.3613,-1266.2852 571.5037,-1149.5964 513,-1095.2005 442.9405,-1030.06 369.704,-1129.7211 300,-1064.2005 232.8358,-1001.0672 349.6783,-861.2005 257.5,-861.2005"/>
<polygon fill="#000000" stroke="#000000" points="546.551,-1282.2986 554.0941,-1286.7775 550.5255,-1282.7495 554.5,-1283.2005 554.5,-1283.2005 554.5,-1283.2005 550.5255,-1282.7495 554.9059,-1279.6234 546.551,-1282.2986 546.551,-1282.2986"/>
<ellipse fill="none" stroke="#000000" cx="543.3714" cy="-1281.9378" rx="3.2" ry="3.2"/>
</g>
<!-- act_ru_task&#45;&gt;act_ru_execution -->
<g id="edge15" class="edge">
<title>act_ru_task:w&#45;&gt;act_ru_execution:e</title>
<path fill="none" stroke="#000000" d="M541.0149,-1321.8545C498.2265,-1280.9553 569.3907,-1019.2005 505.5,-1019.2005"/>
<polygon fill="#000000" stroke="#000000" points="547.0631,-1324.2522 553.1733,-1330.5471 550.7815,-1325.7263 554.5,-1327.2005 554.5,-1327.2005 554.5,-1327.2005 550.7815,-1325.7263 555.8267,-1323.8538 547.0631,-1324.2522 547.0631,-1324.2522"/>
<ellipse fill="none" stroke="#000000" cx="544.0883" cy="-1323.0729" rx="3.2" ry="3.2"/>
</g>
<!-- act_ru_task&#45;&gt;act_ru_execution -->
<g id="edge17" class="edge">
<title>act_ru_task:w&#45;&gt;act_ru_execution:e</title>
<path fill="none" stroke="#000000" d="M541.139,-1299.4875C502.4309,-1259.1787 564.5662,-1019.2005 505.5,-1019.2005"/>
<polygon fill="#000000" stroke="#000000" points="547.1442,-1302.0552 553.0846,-1308.5106 550.8221,-1303.6278 554.5,-1305.2005 554.5,-1305.2005 554.5,-1305.2005 550.8221,-1303.6278 555.9154,-1301.8904 547.1442,-1302.0552 547.1442,-1302.0552"/>
<ellipse fill="none" stroke="#000000" cx="544.2019" cy="-1300.7971" rx="3.2" ry="3.2"/>
</g>
<!-- act_ru_job -->
<g id="node7" class="node">
<title>act_ru_job</title>
<g id="a_node7"><a xlink:href="../../tables/act_ru_job.html" xlink:title="act_ru_job" target="_top">
<polygon fill="#ffffff" stroke="transparent" points="570.5,-772.7005 570.5,-1075.7005 726.5,-1075.7005 726.5,-772.7005 570.5,-772.7005"/>
<polygon fill="#f5f5f5" stroke="transparent" points="570.5,-1052.2005 570.5,-1075.2005 726.5,-1075.2005 726.5,-1052.2005 570.5,-1052.2005"/>
<polygon fill="none" stroke="#000000" points="570.5,-1052.2005 570.5,-1075.2005 726.5,-1075.2005 726.5,-1052.2005 570.5,-1052.2005"/>
<text text-anchor="start" x="575.5" y="-1060.8005" font-family="Helvetica,sans-Serif" font-weight="bold" font-size="11.00" fill="#000000">act_ru_job</text>
<text text-anchor="start" x="691.5437" y="-1060.3005" font-family="Helvetica,sans-Serif" font-size="11.00" fill="#000000">[table]</text>
<polygon fill="none" stroke="#000000" points="570.5,-1030.2005 570.5,-1052.2005 726.5,-1052.2005 726.5,-1030.2005 570.5,-1030.2005"/>
<image xlink:href="../../images/primaryKeys.png" width="11px" height="12px" preserveAspectRatio="xMinYMin meet" x="575.5" y="-1047.2"/>
<text text-anchor="start" x="590.5" y="-1037.3005" font-family="Helvetica,sans-Serif" font-size="11.00" fill="#000000">id_</text>
<polygon fill="#ffffff" stroke="transparent" points="570.5,-1008.2005 570.5,-1030.2005 726.5,-1030.2005 726.5,-1008.2005 570.5,-1008.2005"/>
<polygon fill="none" stroke="#000000" points="570.5,-1008.2005 570.5,-1030.2005 726.5,-1030.2005 726.5,-1008.2005 570.5,-1008.2005"/>
<image xlink:href="../../images/foreignKeys.png" width="11px" height="12px" preserveAspectRatio="xMinYMin meet" x="575.5" y="-1025.2"/>
<text text-anchor="start" x="590.5" y="-1015.3005" font-family="Helvetica,sans-Serif" font-size="11.00" fill="#000000">execution_id_</text>
<polygon fill="#ffffff" stroke="transparent" points="570.5,-986.2005 570.5,-1008.2005 726.5,-1008.2005 726.5,-986.2005 570.5,-986.2005"/>
<polygon fill="none" stroke="#000000" points="570.5,-986.2005 570.5,-1008.2005 726.5,-1008.2005 726.5,-986.2005 570.5,-986.2005"/>
<image xlink:href="../../images/foreignKeys.png" width="11px" height="12px" preserveAspectRatio="xMinYMin meet" x="575.5" y="-1003.2"/>
<text text-anchor="start" x="590.5" y="-993.3005" font-family="Helvetica,sans-Serif" font-size="11.00" fill="#000000">process_instance_id_</text>
<polygon fill="#ffffff" stroke="transparent" points="570.5,-964.2005 570.5,-986.2005 726.5,-986.2005 726.5,-964.2005 570.5,-964.2005"/>
<polygon fill="none" stroke="#000000" points="570.5,-964.2005 570.5,-986.2005 726.5,-986.2005 726.5,-964.2005 570.5,-964.2005"/>
<image xlink:href="../../images/foreignKeys.png" width="11px" height="12px" preserveAspectRatio="xMinYMin meet" x="575.5" y="-981.2"/>
<text text-anchor="start" x="590.5" y="-971.3005" font-family="Helvetica,sans-Serif" font-size="11.00" fill="#000000">proc_def_id_</text>
<polygon fill="#ffffff" stroke="transparent" points="570.5,-942.2005 570.5,-964.2005 726.5,-964.2005 726.5,-942.2005 570.5,-942.2005"/>
<polygon fill="none" stroke="#000000" points="570.5,-942.2005 570.5,-964.2005 726.5,-964.2005 726.5,-942.2005 570.5,-942.2005"/>
<text text-anchor="start" x="590.5" y="-949.3005" font-family="Helvetica,sans-Serif" font-size="11.00" fill="#000000">scope_id_</text>
<polygon fill="#ffffff" stroke="transparent" points="570.5,-920.2005 570.5,-942.2005 726.5,-942.2005 726.5,-920.2005 570.5,-920.2005"/>
<polygon fill="none" stroke="#000000" points="570.5,-920.2005 570.5,-942.2005 726.5,-942.2005 726.5,-920.2005 570.5,-920.2005"/>
<text text-anchor="start" x="590.5" y="-927.3005" font-family="Helvetica,sans-Serif" font-size="11.00" fill="#000000">sub_scope_id_</text>
<polygon fill="#ffffff" stroke="transparent" points="570.5,-898.2005 570.5,-920.2005 726.5,-920.2005 726.5,-898.2005 570.5,-898.2005"/>
<polygon fill="none" stroke="#000000" points="570.5,-898.2005 570.5,-920.2005 726.5,-920.2005 726.5,-898.2005 570.5,-898.2005"/>
<text text-anchor="start" x="590.5" y="-905.3005" font-family="Helvetica,sans-Serif" font-size="11.00" fill="#000000">scope_type_</text>
<polygon fill="#ffffff" stroke="transparent" points="570.5,-876.2005 570.5,-898.2005 726.5,-898.2005 726.5,-876.2005 570.5,-876.2005"/>
<polygon fill="none" stroke="#000000" points="570.5,-876.2005 570.5,-898.2005 726.5,-898.2005 726.5,-876.2005 570.5,-876.2005"/>
<text text-anchor="start" x="590.5" y="-883.3005" font-family="Helvetica,sans-Serif" font-size="11.00" fill="#000000">scope_definition_id_</text>
<polygon fill="#ffffff" stroke="transparent" points="570.5,-854.2005 570.5,-876.2005 726.5,-876.2005 726.5,-854.2005 570.5,-854.2005"/>
<polygon fill="none" stroke="#000000" points="570.5,-854.2005 570.5,-876.2005 726.5,-876.2005 726.5,-854.2005 570.5,-854.2005"/>
<text text-anchor="start" x="590.5" y="-861.3005" font-family="Helvetica,sans-Serif" font-size="11.00" fill="#000000">correlation_id_</text>
<polygon fill="#ffffff" stroke="transparent" points="570.5,-832.2005 570.5,-854.2005 726.5,-854.2005 726.5,-832.2005 570.5,-832.2005"/>
<polygon fill="none" stroke="#000000" points="570.5,-832.2005 570.5,-854.2005 726.5,-854.2005 726.5,-832.2005 570.5,-832.2005"/>
<image xlink:href="../../images/foreignKeys.png" width="11px" height="12px" preserveAspectRatio="xMinYMin meet" x="575.5" y="-849.2"/>
<text text-anchor="start" x="590.5" y="-839.3005" font-family="Helvetica,sans-Serif" font-size="11.00" fill="#000000">exception_stack_id_</text>
<polygon fill="#ffffff" stroke="transparent" points="570.5,-810.2005 570.5,-832.2005 726.5,-832.2005 726.5,-810.2005 570.5,-810.2005"/>
<polygon fill="none" stroke="#000000" points="570.5,-810.2005 570.5,-832.2005 726.5,-832.2005 726.5,-810.2005 570.5,-810.2005"/>
<image xlink:href="../../images/foreignKeys.png" width="11px" height="12px" preserveAspectRatio="xMinYMin meet" x="575.5" y="-827.2"/>
<text text-anchor="start" x="590.5" y="-817.3005" font-family="Helvetica,sans-Serif" font-size="11.00" fill="#000000">custom_values_id_</text>
<polygon fill="none" stroke="#000000" points="570.5,-791.2005 570.5,-810.2005 726.5,-810.2005 726.5,-791.2005 570.5,-791.2005"/>
<text text-anchor="start" x="573.5" y="-797.3005" font-family="Helvetica,sans-Serif" font-size="11.00" fill="#000000">...</text>
<polygon fill="#ffffff" stroke="transparent" points="570.5,-772.2005 570.5,-791.2005 726.5,-791.2005 726.5,-772.2005 570.5,-772.2005"/>
<polygon fill="none" stroke="#000000" points="570.5,-772.2005 570.5,-791.2005 726.5,-791.2005 726.5,-772.2005 570.5,-772.2005"/>
<polygon fill="#ffffff" stroke="transparent" points="571.5,-773.2005 571.5,-790.2005 629.5,-790.2005 629.5,-773.2005 571.5,-773.2005"/>
<text text-anchor="start" x="573.5" y="-778.3005" font-family="Helvetica,sans-Serif" font-size="11.00" fill="#000000">&lt; 5</text>
<polygon fill="#ffffff" stroke="transparent" points="629.5,-773.2005 629.5,-790.2005 677.5,-790.2005 677.5,-773.2005 629.5,-773.2005"/>
<text text-anchor="start" x="650.4431" y="-778.3005" font-family="Helvetica,sans-Serif" font-size="11.00" fill="#000000"> &#160;</text>
<polygon fill="#ffffff" stroke="transparent" points="677.5,-773.2005 677.5,-790.2005 725.5,-790.2005 725.5,-773.2005 677.5,-773.2005"/>
<text text-anchor="start" x="717.3862" y="-778.3005" font-family="Helvetica,sans-Serif" font-size="11.00" fill="#000000"> &#160;</text>
<polygon fill="#000000" stroke="#000000" points="629.5,-773.2005 629.5,-790.2005 629.5,-790.2005 629.5,-773.2005 629.5,-773.2005"/>
<polygon fill="#000000" stroke="#000000" points="677.5,-773.2005 677.5,-790.2005 677.5,-790.2005 677.5,-773.2005 677.5,-773.2005"/>
</a>
</g>
</g>
<!-- act_ru_job&#45;&gt;act_re_procdef -->
<g id="edge10" class="edge">
<title>act_ru_job:w&#45;&gt;act_re_procdef:e</title>
<path fill="none" stroke="#000000" d="M556.1117,-973.4483C502.5571,-958.3092 572.9714,-849.1436 513,-806.2005 436.0312,-751.0862 384.9748,-764.4744 300,-806.2005 272.2706,-819.8167 288.3921,-861.2005 257.5,-861.2005"/>
<polygon fill="#000000" stroke="#000000" points="562.5587,-974.2334 570.0648,-978.7741 566.5293,-974.7169 570.5,-975.2005 570.5,-975.2005 570.5,-975.2005 566.5293,-974.7169 570.9352,-971.6269 562.5587,-974.2334 562.5587,-974.2334"/>
<ellipse fill="none" stroke="#000000" cx="559.3821" cy="-973.8465" rx="3.2" ry="3.2"/>
</g>
<!-- act_ru_job&#45;&gt;act_ru_execution -->
<g id="edge9" class="edge">
<title>act_ru_job:w&#45;&gt;act_ru_execution:e</title>
<path fill="none" stroke="#000000" d="M555.9889,-1019.2005C538.0526,-1019.2005 528.8594,-1019.2005 505.5,-1019.2005"/>
<polygon fill="#000000" stroke="#000000" points="562.5,-1019.2005 570.5,-1022.8005 566.5,-1019.2005 570.5,-1019.2005 570.5,-1019.2005 570.5,-1019.2005 566.5,-1019.2005 570.5,-1015.6005 562.5,-1019.2005 562.5,-1019.2005"/>
<ellipse fill="none" stroke="#000000" cx="559.3" cy="-1019.2005" rx="3.2" ry="3.2"/>
</g>
<!-- act_ru_job&#45;&gt;act_ru_execution -->
<g id="edge11" class="edge">
<title>act_ru_job:w&#45;&gt;act_ru_execution:e</title>
<path fill="none" stroke="#000000" d="M556.0532,-999.1528C537.6385,-1004.537 530.3994,-1019.2005 505.5,-1019.2005"/>
<polygon fill="#000000" stroke="#000000" points="562.5721,-998.2719 570.9821,-1000.768 566.536,-997.7362 570.5,-997.2005 570.5,-997.2005 570.5,-997.2005 566.536,-997.7362 570.0179,-993.6329 562.5721,-998.2719 562.5721,-998.2719"/>
<ellipse fill="none" stroke="#000000" cx="559.4009" cy="-998.7005" rx="3.2" ry="3.2"/>
</g>
<!-- act_ru_suspended_job -->
<g id="node8" class="node">
<title>act_ru_suspended_job</title>
<g id="a_node8"><a xlink:href="../../tables/act_ru_suspended_job.html" xlink:title="act_ru_suspended_job" target="_top">
<polygon fill="#ffffff" stroke="transparent" points="558.5,-448.7005 558.5,-751.7005 738.5,-751.7005 738.5,-448.7005 558.5,-448.7005"/>
<polygon fill="#f5f5f5" stroke="transparent" points="558.5,-728.2005 558.5,-751.2005 738.5,-751.2005 738.5,-728.2005 558.5,-728.2005"/>
<polygon fill="none" stroke="#000000" points="558.5,-728.2005 558.5,-751.2005 738.5,-751.2005 738.5,-728.2005 558.5,-728.2005"/>
<text text-anchor="start" x="563.5" y="-736.8005" font-family="Helvetica,sans-Serif" font-weight="bold" font-size="11.00" fill="#000000">act_ru_suspended_job</text>
<text text-anchor="start" x="704.0219" y="-736.3005" font-family="Helvetica,sans-Serif" font-size="11.00" fill="#000000">[table]</text>
<polygon fill="none" stroke="#000000" points="558.5,-706.2005 558.5,-728.2005 738.5,-728.2005 738.5,-706.2005 558.5,-706.2005"/>
<image xlink:href="../../images/primaryKeys.png" width="11px" height="12px" preserveAspectRatio="xMinYMin meet" x="563.5" y="-723.2"/>
<text text-anchor="start" x="587.5" y="-713.3005" font-family="Helvetica,sans-Serif" font-size="11.00" fill="#000000">id_</text>
<polygon fill="#ffffff" stroke="transparent" points="558.5,-684.2005 558.5,-706.2005 738.5,-706.2005 738.5,-684.2005 558.5,-684.2005"/>
<polygon fill="none" stroke="#000000" points="558.5,-684.2005 558.5,-706.2005 738.5,-706.2005 738.5,-684.2005 558.5,-684.2005"/>
<image xlink:href="../../images/foreignKeys.png" width="11px" height="12px" preserveAspectRatio="xMinYMin meet" x="563.5" y="-701.2"/>
<text text-anchor="start" x="587.5" y="-691.3005" font-family="Helvetica,sans-Serif" font-size="11.00" fill="#000000">execution_id_</text>
<polygon fill="#ffffff" stroke="transparent" points="558.5,-662.2005 558.5,-684.2005 738.5,-684.2005 738.5,-662.2005 558.5,-662.2005"/>
<polygon fill="none" stroke="#000000" points="558.5,-662.2005 558.5,-684.2005 738.5,-684.2005 738.5,-662.2005 558.5,-662.2005"/>
<image xlink:href="../../images/foreignKeys.png" width="11px" height="12px" preserveAspectRatio="xMinYMin meet" x="563.5" y="-679.2"/>
<text text-anchor="start" x="587.5" y="-669.3005" font-family="Helvetica,sans-Serif" font-size="11.00" fill="#000000">process_instance_id_</text>
<polygon fill="#ffffff" stroke="transparent" points="558.5,-640.2005 558.5,-662.2005 738.5,-662.2005 738.5,-640.2005 558.5,-640.2005"/>
<polygon fill="none" stroke="#000000" points="558.5,-640.2005 558.5,-662.2005 738.5,-662.2005 738.5,-640.2005 558.5,-640.2005"/>
<image xlink:href="../../images/foreignKeys.png" width="11px" height="12px" preserveAspectRatio="xMinYMin meet" x="563.5" y="-657.2"/>
<text text-anchor="start" x="587.5" y="-647.3005" font-family="Helvetica,sans-Serif" font-size="11.00" fill="#000000">proc_def_id_</text>
<polygon fill="#ffffff" stroke="transparent" points="558.5,-618.2005 558.5,-640.2005 738.5,-640.2005 738.5,-618.2005 558.5,-618.2005"/>
<polygon fill="none" stroke="#000000" points="558.5,-618.2005 558.5,-640.2005 738.5,-640.2005 738.5,-618.2005 558.5,-618.2005"/>
<text text-anchor="start" x="587.5" y="-625.3005" font-family="Helvetica,sans-Serif" font-size="11.00" fill="#000000">scope_id_</text>
<polygon fill="#ffffff" stroke="transparent" points="558.5,-596.2005 558.5,-618.2005 738.5,-618.2005 738.5,-596.2005 558.5,-596.2005"/>
<polygon fill="none" stroke="#000000" points="558.5,-596.2005 558.5,-618.2005 738.5,-618.2005 738.5,-596.2005 558.5,-596.2005"/>
<text text-anchor="start" x="587.5" y="-603.3005" font-family="Helvetica,sans-Serif" font-size="11.00" fill="#000000">sub_scope_id_</text>
<polygon fill="#ffffff" stroke="transparent" points="558.5,-574.2005 558.5,-596.2005 738.5,-596.2005 738.5,-574.2005 558.5,-574.2005"/>
<polygon fill="none" stroke="#000000" points="558.5,-574.2005 558.5,-596.2005 738.5,-596.2005 738.5,-574.2005 558.5,-574.2005"/>
<text text-anchor="start" x="587.5" y="-581.3005" font-family="Helvetica,sans-Serif" font-size="11.00" fill="#000000">scope_type_</text>
<polygon fill="#ffffff" stroke="transparent" points="558.5,-552.2005 558.5,-574.2005 738.5,-574.2005 738.5,-552.2005 558.5,-552.2005"/>
<polygon fill="none" stroke="#000000" points="558.5,-552.2005 558.5,-574.2005 738.5,-574.2005 738.5,-552.2005 558.5,-552.2005"/>
<text text-anchor="start" x="587.5" y="-559.3005" font-family="Helvetica,sans-Serif" font-size="11.00" fill="#000000">scope_definition_id_</text>
<polygon fill="#ffffff" stroke="transparent" points="558.5,-530.2005 558.5,-552.2005 738.5,-552.2005 738.5,-530.2005 558.5,-530.2005"/>
<polygon fill="none" stroke="#000000" points="558.5,-530.2005 558.5,-552.2005 738.5,-552.2005 738.5,-530.2005 558.5,-530.2005"/>
<text text-anchor="start" x="587.5" y="-537.3005" font-family="Helvetica,sans-Serif" font-size="11.00" fill="#000000">correlation_id_</text>
<polygon fill="#ffffff" stroke="transparent" points="558.5,-508.2005 558.5,-530.2005 738.5,-530.2005 738.5,-508.2005 558.5,-508.2005"/>
<polygon fill="none" stroke="#000000" points="558.5,-508.2005 558.5,-530.2005 738.5,-530.2005 738.5,-508.2005 558.5,-508.2005"/>
<image xlink:href="../../images/foreignKeys.png" width="11px" height="12px" preserveAspectRatio="xMinYMin meet" x="563.5" y="-525.2"/>
<text text-anchor="start" x="587.5" y="-515.3005" font-family="Helvetica,sans-Serif" font-size="11.00" fill="#000000">exception_stack_id_</text>
<polygon fill="#ffffff" stroke="transparent" points="558.5,-486.2005 558.5,-508.2005 738.5,-508.2005 738.5,-486.2005 558.5,-486.2005"/>
<polygon fill="none" stroke="#000000" points="558.5,-486.2005 558.5,-508.2005 738.5,-508.2005 738.5,-486.2005 558.5,-486.2005"/>
<image xlink:href="../../images/foreignKeys.png" width="11px" height="12px" preserveAspectRatio="xMinYMin meet" x="563.5" y="-503.2"/>
<text text-anchor="start" x="587.5" y="-493.3005" font-family="Helvetica,sans-Serif" font-size="11.00" fill="#000000">custom_values_id_</text>
<polygon fill="none" stroke="#000000" points="558.5,-467.2005 558.5,-486.2005 738.5,-486.2005 738.5,-467.2005 558.5,-467.2005"/>
<text text-anchor="start" x="561.5" y="-473.3005" font-family="Helvetica,sans-Serif" font-size="11.00" fill="#000000">...</text>
<polygon fill="#ffffff" stroke="transparent" points="558.5,-448.2005 558.5,-467.2005 738.5,-467.2005 738.5,-448.2005 558.5,-448.2005"/>
<polygon fill="none" stroke="#000000" points="558.5,-448.2005 558.5,-467.2005 738.5,-467.2005 738.5,-448.2005 558.5,-448.2005"/>
<polygon fill="#ffffff" stroke="transparent" points="559.5,-449.2005 559.5,-466.2005 625.5,-466.2005 625.5,-449.2005 559.5,-449.2005"/>
<text text-anchor="start" x="561.5" y="-454.3005" font-family="Helvetica,sans-Serif" font-size="11.00" fill="#000000">&lt; 5</text>
<polygon fill="#ffffff" stroke="transparent" points="625.5,-449.2005 625.5,-466.2005 681.5,-466.2005 681.5,-449.2005 625.5,-449.2005"/>
<text text-anchor="start" x="650.4431" y="-454.3005" font-family="Helvetica,sans-Serif" font-size="11.00" fill="#000000"> &#160;</text>
<polygon fill="#ffffff" stroke="transparent" points="681.5,-449.2005 681.5,-466.2005 737.5,-466.2005 737.5,-449.2005 681.5,-449.2005"/>
<text text-anchor="start" x="729.3862" y="-454.3005" font-family="Helvetica,sans-Serif" font-size="11.00" fill="#000000"> &#160;</text>
<polygon fill="#000000" stroke="#000000" points="625.5,-449.2005 625.5,-466.2005 625.5,-466.2005 625.5,-449.2005 625.5,-449.2005"/>
<polygon fill="#000000" stroke="#000000" points="681.5,-449.2005 681.5,-466.2005 681.5,-466.2005 681.5,-449.2005 681.5,-449.2005"/>
</a>
</g>
</g>
<!-- act_ru_suspended_job&#45;&gt;act_re_procdef -->
<g id="edge13" class="edge">
<title>act_ru_suspended_job:w&#45;&gt;act_re_procdef:e</title>
<path fill="none" stroke="#000000" d="M543.8155,-651.3888C426.6862,-654.482 388.5835,-695.7624 300,-782.2005 271.4645,-810.0448 297.3695,-861.2005 257.5,-861.2005"/>
<polygon fill="#000000" stroke="#000000" points="550.5007,-651.3031 558.5462,-654.8002 554.5003,-651.2518 558.5,-651.2005 558.5,-651.2005 558.5,-651.2005 554.5003,-651.2518 558.4538,-647.6008 550.5007,-651.3031 550.5007,-651.3031"/>
<ellipse fill="none" stroke="#000000" cx="547.3009" cy="-651.3442" rx="3.2" ry="3.2"/>
</g>
<!-- act_ru_suspended_job&#45;&gt;act_ru_execution -->
<g id="edge12" class="edge">
<title>act_ru_suspended_job:w&#45;&gt;act_ru_execution:e</title>
<path fill="none" stroke="#000000" d="M544.8611,-700.2897C498.4213,-741.5095 573.0422,-1019.2005 505.5,-1019.2005"/>
<polygon fill="#000000" stroke="#000000" points="551.0048,-697.9973 559.7586,-698.5733 554.7524,-696.5989 558.5,-695.2005 558.5,-695.2005 558.5,-695.2005 554.7524,-696.5989 557.2414,-691.8276 551.0048,-697.9973 551.0048,-697.9973"/>
<ellipse fill="none" stroke="#000000" cx="548.0067" cy="-699.116" rx="3.2" ry="3.2"/>
</g>
<!-- act_ru_suspended_job&#45;&gt;act_ru_execution -->
<g id="edge14" class="edge">
<title>act_ru_suspended_job:w&#45;&gt;act_ru_execution:e</title>
<path fill="none" stroke="#000000" d="M544.6417,-678.0916C494.2467,-720.1461 577.8164,-1019.2005 505.5,-1019.2005"/>
<polygon fill="#000000" stroke="#000000" points="550.9561,-675.8631 559.6982,-676.5952 554.728,-674.5318 558.5,-673.2005 558.5,-673.2005 558.5,-673.2005 554.728,-674.5318 557.3018,-669.8057 550.9561,-675.8631 550.9561,-675.8631"/>
<ellipse fill="none" stroke="#000000" cx="547.9385" cy="-676.9281" rx="3.2" ry="3.2"/>
</g>
<!-- act_ru_timer_job -->
<g id="node9" class="node">
<title>act_ru_timer_job</title>
<g id="a_node9"><a xlink:href="../../tables/act_ru_timer_job.html" xlink:title="act_ru_timer_job" target="_top">
<polygon fill="#ffffff" stroke="transparent" points="570.5,-102.7005 570.5,-427.7005 726.5,-427.7005 726.5,-102.7005 570.5,-102.7005"/>
<polygon fill="#f5f5f5" stroke="transparent" points="570.5,-404.2005 570.5,-427.2005 726.5,-427.2005 726.5,-404.2005 570.5,-404.2005"/>
<polygon fill="none" stroke="#000000" points="570.5,-404.2005 570.5,-427.2005 726.5,-427.2005 726.5,-404.2005 570.5,-404.2005"/>
<text text-anchor="start" x="575.5" y="-412.8005" font-family="Helvetica,sans-Serif" font-weight="bold" font-size="11.00" fill="#000000">act_ru_timer_job</text>
<text text-anchor="start" x="691.5437" y="-412.3005" font-family="Helvetica,sans-Serif" font-size="11.00" fill="#000000">[table]</text>
<polygon fill="none" stroke="#000000" points="570.5,-382.2005 570.5,-404.2005 726.5,-404.2005 726.5,-382.2005 570.5,-382.2005"/>
<image xlink:href="../../images/primaryKeys.png" width="11px" height="12px" preserveAspectRatio="xMinYMin meet" x="575.5" y="-399.2"/>
<text text-anchor="start" x="590.5" y="-389.3005" font-family="Helvetica,sans-Serif" font-size="11.00" fill="#000000">id_</text>
<polygon fill="#ffffff" stroke="transparent" points="570.5,-360.2005 570.5,-382.2005 726.5,-382.2005 726.5,-360.2005 570.5,-360.2005"/>
<polygon fill="none" stroke="#000000" points="570.5,-360.2005 570.5,-382.2005 726.5,-382.2005 726.5,-360.2005 570.5,-360.2005"/>
<image xlink:href="../../images/foreignKeys.png" width="11px" height="12px" preserveAspectRatio="xMinYMin meet" x="575.5" y="-377.2"/>
<text text-anchor="start" x="590.5" y="-367.3005" font-family="Helvetica,sans-Serif" font-size="11.00" fill="#000000">execution_id_</text>
<polygon fill="#ffffff" stroke="transparent" points="570.5,-338.2005 570.5,-360.2005 726.5,-360.2005 726.5,-338.2005 570.5,-338.2005"/>
<polygon fill="none" stroke="#000000" points="570.5,-338.2005 570.5,-360.2005 726.5,-360.2005 726.5,-338.2005 570.5,-338.2005"/>
<image xlink:href="../../images/foreignKeys.png" width="11px" height="12px" preserveAspectRatio="xMinYMin meet" x="575.5" y="-355.2"/>
<text text-anchor="start" x="590.5" y="-345.3005" font-family="Helvetica,sans-Serif" font-size="11.00" fill="#000000">process_instance_id_</text>
<polygon fill="#ffffff" stroke="transparent" points="570.5,-316.2005 570.5,-338.2005 726.5,-338.2005 726.5,-316.2005 570.5,-316.2005"/>
<polygon fill="none" stroke="#000000" points="570.5,-316.2005 570.5,-338.2005 726.5,-338.2005 726.5,-316.2005 570.5,-316.2005"/>
<image xlink:href="../../images/foreignKeys.png" width="11px" height="12px" preserveAspectRatio="xMinYMin meet" x="575.5" y="-333.2"/>
<text text-anchor="start" x="590.5" y="-323.3005" font-family="Helvetica,sans-Serif" font-size="11.00" fill="#000000">proc_def_id_</text>
<polygon fill="#ffffff" stroke="transparent" points="570.5,-294.2005 570.5,-316.2005 726.5,-316.2005 726.5,-294.2005 570.5,-294.2005"/>
<polygon fill="none" stroke="#000000" points="570.5,-294.2005 570.5,-316.2005 726.5,-316.2005 726.5,-294.2005 570.5,-294.2005"/>
<text text-anchor="start" x="590.5" y="-301.3005" font-family="Helvetica,sans-Serif" font-size="11.00" fill="#000000">scope_id_</text>
<polygon fill="#ffffff" stroke="transparent" points="570.5,-272.2005 570.5,-294.2005 726.5,-294.2005 726.5,-272.2005 570.5,-272.2005"/>
<polygon fill="none" stroke="#000000" points="570.5,-272.2005 570.5,-294.2005 726.5,-294.2005 726.5,-272.2005 570.5,-272.2005"/>
<text text-anchor="start" x="590.5" y="-279.3005" font-family="Helvetica,sans-Serif" font-size="11.00" fill="#000000">sub_scope_id_</text>
<polygon fill="#ffffff" stroke="transparent" points="570.5,-250.2005 570.5,-272.2005 726.5,-272.2005 726.5,-250.2005 570.5,-250.2005"/>
<polygon fill="none" stroke="#000000" points="570.5,-250.2005 570.5,-272.2005 726.5,-272.2005 726.5,-250.2005 570.5,-250.2005"/>
<text text-anchor="start" x="590.5" y="-257.3005" font-family="Helvetica,sans-Serif" font-size="11.00" fill="#000000">scope_type_</text>
<polygon fill="#ffffff" stroke="transparent" points="570.5,-228.2005 570.5,-250.2005 726.5,-250.2005 726.5,-228.2005 570.5,-228.2005"/>
<polygon fill="none" stroke="#000000" points="570.5,-228.2005 570.5,-250.2005 726.5,-250.2005 726.5,-228.2005 570.5,-228.2005"/>
<text text-anchor="start" x="590.5" y="-235.3005" font-family="Helvetica,sans-Serif" font-size="11.00" fill="#000000">scope_definition_id_</text>
<polygon fill="#ffffff" stroke="transparent" points="570.5,-206.2005 570.5,-228.2005 726.5,-228.2005 726.5,-206.2005 570.5,-206.2005"/>
<polygon fill="none" stroke="#000000" points="570.5,-206.2005 570.5,-228.2005 726.5,-228.2005 726.5,-206.2005 570.5,-206.2005"/>
<text text-anchor="start" x="590.5" y="-213.3005" font-family="Helvetica,sans-Serif" font-size="11.00" fill="#000000">correlation_id_</text>
<polygon fill="#ffffff" stroke="transparent" points="570.5,-184.2005 570.5,-206.2005 726.5,-206.2005 726.5,-184.2005 570.5,-184.2005"/>
<polygon fill="none" stroke="#000000" points="570.5,-184.2005 570.5,-206.2005 726.5,-206.2005 726.5,-184.2005 570.5,-184.2005"/>
<image xlink:href="../../images/foreignKeys.png" width="11px" height="12px" preserveAspectRatio="xMinYMin meet" x="575.5" y="-201.2"/>
<text text-anchor="start" x="590.5" y="-191.3005" font-family="Helvetica,sans-Serif" font-size="11.00" fill="#000000">exception_stack_id_</text>
<polygon fill="#ffffff" stroke="transparent" points="570.5,-162.2005 570.5,-184.2005 726.5,-184.2005 726.5,-162.2005 570.5,-162.2005"/>
<polygon fill="none" stroke="#000000" points="570.5,-162.2005 570.5,-184.2005 726.5,-184.2005 726.5,-162.2005 570.5,-162.2005"/>
<text text-anchor="start" x="590.5" y="-169.3005" font-family="Helvetica,sans-Serif" font-size="11.00" fill="#000000">duedate_</text>
<polygon fill="#ffffff" stroke="transparent" points="570.5,-140.2005 570.5,-162.2005 726.5,-162.2005 726.5,-140.2005 570.5,-140.2005"/>
<polygon fill="none" stroke="#000000" points="570.5,-140.2005 570.5,-162.2005 726.5,-162.2005 726.5,-140.2005 570.5,-140.2005"/>
<image xlink:href="../../images/foreignKeys.png" width="11px" height="12px" preserveAspectRatio="xMinYMin meet" x="575.5" y="-157.2"/>
<text text-anchor="start" x="590.5" y="-147.3005" font-family="Helvetica,sans-Serif" font-size="11.00" fill="#000000">custom_values_id_</text>
<polygon fill="none" stroke="#000000" points="570.5,-121.2005 570.5,-140.2005 726.5,-140.2005 726.5,-121.2005 570.5,-121.2005"/>
<text text-anchor="start" x="573.5" y="-127.3005" font-family="Helvetica,sans-Serif" font-size="11.00" fill="#000000">...</text>
<polygon fill="#ffffff" stroke="transparent" points="570.5,-102.2005 570.5,-121.2005 726.5,-121.2005 726.5,-102.2005 570.5,-102.2005"/>
<polygon fill="none" stroke="#000000" points="570.5,-102.2005 570.5,-121.2005 726.5,-121.2005 726.5,-102.2005 570.5,-102.2005"/>
<polygon fill="#ffffff" stroke="transparent" points="571.5,-103.2005 571.5,-120.2005 629.5,-120.2005 629.5,-103.2005 571.5,-103.2005"/>
<text text-anchor="start" x="573.5" y="-108.3005" font-family="Helvetica,sans-Serif" font-size="11.00" fill="#000000">&lt; 5</text>
<polygon fill="#ffffff" stroke="transparent" points="629.5,-103.2005 629.5,-120.2005 677.5,-120.2005 677.5,-103.2005 629.5,-103.2005"/>
<text text-anchor="start" x="650.4431" y="-108.3005" font-family="Helvetica,sans-Serif" font-size="11.00" fill="#000000"> &#160;</text>
<polygon fill="#ffffff" stroke="transparent" points="677.5,-103.2005 677.5,-120.2005 725.5,-120.2005 725.5,-103.2005 677.5,-103.2005"/>
<text text-anchor="start" x="717.3862" y="-108.3005" font-family="Helvetica,sans-Serif" font-size="11.00" fill="#000000"> &#160;</text>
<polygon fill="#000000" stroke="#000000" points="629.5,-103.2005 629.5,-120.2005 629.5,-120.2005 629.5,-103.2005 629.5,-103.2005"/>
<polygon fill="#000000" stroke="#000000" points="677.5,-103.2005 677.5,-120.2005 677.5,-120.2005 677.5,-103.2005 677.5,-103.2005"/>
</a>
</g>
</g>
<!-- act_ru_timer_job&#45;&gt;act_re_procdef -->
<g id="edge19" class="edge">
<title>act_ru_timer_job:w&#45;&gt;act_re_procdef:e</title>
<path fill="none" stroke="#000000" d="M556.0443,-327.5209C382.7661,-335.3787 379.059,-486.5559 300,-651.2005 279.3902,-694.1215 305.1128,-861.2005 257.5,-861.2005"/>
<polygon fill="#000000" stroke="#000000" points="562.502,-327.3778 570.5798,-330.7996 566.501,-327.2891 570.5,-327.2005 570.5,-327.2005 570.5,-327.2005 566.501,-327.2891 570.4202,-323.6013 562.502,-327.3778 562.502,-327.3778"/>
<ellipse fill="none" stroke="#000000" cx="559.3028" cy="-327.4488" rx="3.2" ry="3.2"/>
</g>
<!-- act_ru_timer_job&#45;&gt;act_ru_execution -->
<g id="edge18" class="edge">
<title>act_ru_timer_job:w&#45;&gt;act_ru_execution:e</title>
<path fill="none" stroke="#000000" d="M558.3222,-378.9292C507.7836,-452.0398 573.1974,-1019.2005 505.5,-1019.2005"/>
<polygon fill="#000000" stroke="#000000" points="563.7455,-375.4873 572.4291,-374.24 567.1227,-373.3439 570.5,-371.2005 570.5,-371.2005 570.5,-371.2005 567.1227,-373.3439 568.5709,-368.1609 563.7455,-375.4873 563.7455,-375.4873"/>
<ellipse fill="none" stroke="#000000" cx="561.0437" cy="-377.202" rx="3.2" ry="3.2"/>
</g>
<!-- act_ru_timer_job&#45;&gt;act_ru_execution -->
<g id="edge20" class="edge">
<title>act_ru_timer_job:w&#45;&gt;act_ru_execution:e</title>
<path fill="none" stroke="#000000" d="M557.9389,-357.1916C505.9478,-432.7843 575.4733,-1019.2005 505.5,-1019.2005"/>
<polygon fill="#000000" stroke="#000000" points="563.7501,-353.4946 572.4324,-352.2379 567.1251,-351.3475 570.5,-349.2005 570.5,-349.2005 570.5,-349.2005 567.1251,-351.3475 568.5676,-346.163 563.7501,-353.4946 563.7501,-353.4946"/>
<ellipse fill="none" stroke="#000000" cx="561.0502" cy="-355.2123" rx="3.2" ry="3.2"/>
</g>
</g>
</svg>
