<?xml version="1.0" encoding="UTF-8" standalone="no"?>
<!DOCTYPE svg PUBLIC "-//W3C//DTD SVG 1.1//EN"
 "http://www.w3.org/Graphics/SVG/1.1/DTD/svg11.dtd">
<!-- Generated by graphviz version 2.40.1 (20161225.0304)
 -->
<!-- Title: oneDegreeRelationshipsDiagram Pages: 1 -->
<svg width="213pt" height="162pt"
 viewBox="0.00 0.00 213.00 162.20" xmlns="http://www.w3.org/2000/svg" xmlns:xlink="http://www.w3.org/1999/xlink">
<g id="graph0" class="graph" transform="scale(1 1) rotate(0) translate(4 158.2)">
<title>oneDegreeRelationshipsDiagram</title>
<polygon fill="#ffffff" stroke="transparent" points="-4,4 -4,-158.2 209,-158.2 209,4 -4,4"/>
<text text-anchor="middle" x="72.4936" y="-7.3" font-family="Helvetica,sans-Serif" font-size="11.00" fill="#000000">Generated by SchemaSpy</text>
<!-- act_id_property -->
<g id="node1" class="node">
<title>act_id_property</title>
<g id="a_node1"><a xlink:href="../../tables/act_id_property.html" xlink:title="act_id_property" target="_top">
<polygon fill="#ffffff" stroke="transparent" points="8,-38.2 8,-150.2 197,-150.2 197,-38.2 8,-38.2"/>
<polygon fill="#f5f5f5" stroke="transparent" points="10.5,-125.2 10.5,-148.2 195.5,-148.2 195.5,-125.2 10.5,-125.2"/>
<polygon fill="none" stroke="#000000" points="10.5,-125.2 10.5,-148.2 195.5,-148.2 195.5,-125.2 10.5,-125.2"/>
<text text-anchor="start" x="15.5" y="-133.8" font-family="Helvetica,sans-Serif" font-weight="bold" font-size="11.00" fill="#000000">act_id_property</text>
<text text-anchor="start" x="160.5437" y="-133.3" font-family="Helvetica,sans-Serif" font-size="11.00" fill="#000000">[table]</text>
<polygon fill="none" stroke="#000000" points="10.5,-103.2 10.5,-125.2 128.5,-125.2 128.5,-103.2 10.5,-103.2"/>
<image xlink:href="../../images/primaryKeys.png" width="11px" height="12px" preserveAspectRatio="xMinYMin meet" x="15.5" y="-120.2"/>
<text text-anchor="start" x="30.5" y="-110.3" font-family="Helvetica,sans-Serif" font-size="11.00" fill="#000000">name_</text>
<polygon fill="none" stroke="#000000" points="128.5,-103.2 128.5,-125.2 195.5,-125.2 195.5,-103.2 128.5,-103.2"/>
<text text-anchor="start" x="131.5" y="-110.9" font-family="Helvetica,sans-Serif" font-size="11.00" fill="#000000">varchar[64]</text>
<polygon fill="none" stroke="#000000" points="10.5,-81.2 10.5,-103.2 128.5,-103.2 128.5,-81.2 10.5,-81.2"/>
<text text-anchor="start" x="30.5" y="-88.3" font-family="Helvetica,sans-Serif" font-size="11.00" fill="#000000">value_</text>
<polygon fill="none" stroke="#000000" points="128.5,-81.2 128.5,-103.2 195.5,-103.2 195.5,-81.2 128.5,-81.2"/>
<text text-anchor="start" x="131.4365" y="-88.9" font-family="Helvetica,sans-Serif" font-size="11.00" fill="#000000">varchar[300]</text>
<polygon fill="none" stroke="#000000" points="10.5,-59.2 10.5,-81.2 128.5,-81.2 128.5,-59.2 10.5,-59.2"/>
<text text-anchor="start" x="30.5" y="-66.3" font-family="Helvetica,sans-Serif" font-size="11.00" fill="#000000">rev_</text>
<polygon fill="none" stroke="#000000" points="128.5,-59.2 128.5,-81.2 195.5,-81.2 195.5,-59.2 128.5,-59.2"/>
<text text-anchor="start" x="131.5" y="-66.9" font-family="Helvetica,sans-Serif" font-size="11.00" fill="#000000">int4[10]</text>
<polygon fill="#ffffff" stroke="transparent" points="10.5,-40.2 10.5,-59.2 195.5,-59.2 195.5,-40.2 10.5,-40.2"/>
<polygon fill="none" stroke="#000000" points="10.5,-40.2 10.5,-59.2 195.5,-59.2 195.5,-40.2 10.5,-40.2"/>
<polygon fill="#ffffff" stroke="transparent" points="11.5,-41.2 11.5,-58.2 75.5,-58.2 75.5,-41.2 11.5,-41.2"/>
<text text-anchor="start" x="13.5" y="-46.3" font-family="Helvetica,sans-Serif" font-size="11.00" fill="#000000">&lt; 0</text>
<polygon fill="#ffffff" stroke="transparent" points="75.5,-41.2 75.5,-58.2 130.5,-58.2 130.5,-41.2 75.5,-41.2"/>
<text text-anchor="start" x="99.9431" y="-46.3" font-family="Helvetica,sans-Serif" font-size="11.00" fill="#000000"> &#160;</text>
<polygon fill="#ffffff" stroke="transparent" points="130.5,-41.2 130.5,-58.2 194.5,-58.2 194.5,-41.2 130.5,-41.2"/>
<text text-anchor="start" x="176.9053" y="-46.3" font-family="Helvetica,sans-Serif" font-size="11.00" fill="#000000">0 &gt;</text>
<polygon fill="#000000" stroke="#000000" points="75.5,-41.2 75.5,-58.2 75.5,-58.2 75.5,-41.2 75.5,-41.2"/>
<polygon fill="#000000" stroke="#000000" points="130.5,-41.2 130.5,-58.2 130.5,-58.2 130.5,-41.2 130.5,-41.2"/>
<polygon fill="none" stroke="#000000" stroke-width="2" points="9,-39.2 9,-149.2 196,-149.2 196,-39.2 9,-39.2"/>
</a>
</g>
</g>
</g>
</svg>
