<?xml version="1.0" encoding="UTF-8" standalone="no"?>
<!DOCTYPE svg PUBLIC "-//W3C//DTD SVG 1.1//EN"
 "http://www.w3.org/Graphics/SVG/1.1/DTD/svg11.dtd">
<!-- Generated by graphviz version 2.40.1 (20161225.0304)
 -->
<!-- Title: oneDegreeRelationshipsDiagram Pages: 1 -->
<svg width="737pt" height="624pt"
 viewBox="0.00 0.00 737.00 624.20" xmlns="http://www.w3.org/2000/svg" xmlns:xlink="http://www.w3.org/1999/xlink">
<g id="graph0" class="graph" transform="scale(1 1) rotate(0) translate(4 620.2)">
<title>oneDegreeRelationshipsDiagram</title>
<polygon fill="#ffffff" stroke="transparent" points="-4,4 -4,-620.2 733,-620.2 733,4 -4,4"/>
<text text-anchor="middle" x="72.4936" y="-7.3" font-family="Helvetica,sans-Serif" font-size="11.00" fill="#000000">Generated by SchemaSpy</text>
<!-- act_ru_deadletter_job -->
<g id="node1" class="node">
<title>act_ru_deadletter_job</title>
<g id="a_node1"><a xlink:href="../../tables/act_ru_deadletter_job.html" xlink:title="act_ru_deadletter_job" target="_top">
<polygon fill="#ffffff" stroke="transparent" points="477,-38.2 477,-612.2 721,-612.2 721,-38.2 477,-38.2"/>
<polygon fill="#f5f5f5" stroke="transparent" points="479,-587.2 479,-610.2 719,-610.2 719,-587.2 479,-587.2"/>
<polygon fill="none" stroke="#000000" points="479,-587.2 479,-610.2 719,-610.2 719,-587.2 479,-587.2"/>
<text text-anchor="start" x="484" y="-595.8" font-family="Helvetica,sans-Serif" font-weight="bold" font-size="11.00" fill="#000000">act_ru_deadletter_job</text>
<text text-anchor="start" x="684.0437" y="-595.3" font-family="Helvetica,sans-Serif" font-size="11.00" fill="#000000">[table]</text>
<polygon fill="none" stroke="#000000" points="479,-565.2 479,-587.2 635,-587.2 635,-565.2 479,-565.2"/>
<image xlink:href="../../images/primaryKeys.png" width="11px" height="12px" preserveAspectRatio="xMinYMin meet" x="484" y="-582.2"/>
<text text-anchor="start" x="499" y="-572.3" font-family="Helvetica,sans-Serif" font-size="11.00" fill="#000000">id_</text>
<polygon fill="none" stroke="#000000" points="635,-565.2 635,-587.2 719,-587.2 719,-565.2 635,-565.2"/>
<text text-anchor="start" x="638" y="-572.9" font-family="Helvetica,sans-Serif" font-size="11.00" fill="#000000">varchar[64]</text>
<polygon fill="none" stroke="#000000" points="479,-543.2 479,-565.2 635,-565.2 635,-543.2 479,-543.2"/>
<text text-anchor="start" x="499" y="-550.3" font-family="Helvetica,sans-Serif" font-size="11.00" fill="#000000">rev_</text>
<polygon fill="none" stroke="#000000" points="635,-543.2 635,-565.2 719,-565.2 719,-543.2 635,-543.2"/>
<text text-anchor="start" x="638" y="-550.9" font-family="Helvetica,sans-Serif" font-size="11.00" fill="#000000">int4[10]</text>
<polygon fill="none" stroke="#000000" points="479,-521.2 479,-543.2 635,-543.2 635,-521.2 479,-521.2"/>
<text text-anchor="start" x="499" y="-528.3" font-family="Helvetica,sans-Serif" font-size="11.00" fill="#000000">category_</text>
<polygon fill="none" stroke="#000000" points="635,-521.2 635,-543.2 719,-543.2 719,-521.2 635,-521.2"/>
<text text-anchor="start" x="638" y="-528.9" font-family="Helvetica,sans-Serif" font-size="11.00" fill="#000000">varchar[255]</text>
<polygon fill="none" stroke="#000000" points="479,-499.2 479,-521.2 635,-521.2 635,-499.2 479,-499.2"/>
<text text-anchor="start" x="499" y="-506.3" font-family="Helvetica,sans-Serif" font-size="11.00" fill="#000000">type_</text>
<polygon fill="none" stroke="#000000" points="635,-499.2 635,-521.2 719,-521.2 719,-499.2 635,-499.2"/>
<text text-anchor="start" x="638" y="-506.9" font-family="Helvetica,sans-Serif" font-size="11.00" fill="#000000">varchar[255]</text>
<polygon fill="none" stroke="#000000" points="479,-477.2 479,-499.2 635,-499.2 635,-477.2 479,-477.2"/>
<text text-anchor="start" x="499" y="-484.3" font-family="Helvetica,sans-Serif" font-size="11.00" fill="#000000">exclusive_</text>
<polygon fill="none" stroke="#000000" points="635,-477.2 635,-499.2 719,-499.2 719,-477.2 635,-477.2"/>
<text text-anchor="start" x="638" y="-484.9" font-family="Helvetica,sans-Serif" font-size="11.00" fill="#000000">bool[1]</text>
<polygon fill="#ffffff" stroke="transparent" points="479,-455.2 479,-477.2 635,-477.2 635,-455.2 479,-455.2"/>
<polygon fill="none" stroke="#000000" points="479,-455.2 479,-477.2 635,-477.2 635,-455.2 479,-455.2"/>
<image xlink:href="../../images/foreignKeys.png" width="11px" height="12px" preserveAspectRatio="xMinYMin meet" x="484" y="-472.2"/>
<text text-anchor="start" x="499" y="-462.3" font-family="Helvetica,sans-Serif" font-size="11.00" fill="#000000">execution_id_</text>
<polygon fill="none" stroke="#000000" points="635,-455.2 635,-477.2 719,-477.2 719,-455.2 635,-455.2"/>
<text text-anchor="start" x="638" y="-462.9" font-family="Helvetica,sans-Serif" font-size="11.00" fill="#000000">varchar[64]</text>
<polygon fill="#ffffff" stroke="transparent" points="479,-433.2 479,-455.2 635,-455.2 635,-433.2 479,-433.2"/>
<polygon fill="none" stroke="#000000" points="479,-433.2 479,-455.2 635,-455.2 635,-433.2 479,-433.2"/>
<image xlink:href="../../images/foreignKeys.png" width="11px" height="12px" preserveAspectRatio="xMinYMin meet" x="484" y="-450.2"/>
<text text-anchor="start" x="499" y="-440.3" font-family="Helvetica,sans-Serif" font-size="11.00" fill="#000000">process_instance_id_</text>
<polygon fill="none" stroke="#000000" points="635,-433.2 635,-455.2 719,-455.2 719,-433.2 635,-433.2"/>
<text text-anchor="start" x="638" y="-440.9" font-family="Helvetica,sans-Serif" font-size="11.00" fill="#000000">varchar[64]</text>
<polygon fill="#ffffff" stroke="transparent" points="479,-411.2 479,-433.2 635,-433.2 635,-411.2 479,-411.2"/>
<polygon fill="none" stroke="#000000" points="479,-411.2 479,-433.2 635,-433.2 635,-411.2 479,-411.2"/>
<image xlink:href="../../images/foreignKeys.png" width="11px" height="12px" preserveAspectRatio="xMinYMin meet" x="484" y="-428.2"/>
<text text-anchor="start" x="499" y="-418.3" font-family="Helvetica,sans-Serif" font-size="11.00" fill="#000000">proc_def_id_</text>
<polygon fill="none" stroke="#000000" points="635,-411.2 635,-433.2 719,-433.2 719,-411.2 635,-411.2"/>
<text text-anchor="start" x="638" y="-418.9" font-family="Helvetica,sans-Serif" font-size="11.00" fill="#000000">varchar[64]</text>
<polygon fill="none" stroke="#000000" points="479,-389.2 479,-411.2 635,-411.2 635,-389.2 479,-389.2"/>
<text text-anchor="start" x="499" y="-396.3" font-family="Helvetica,sans-Serif" font-size="11.00" fill="#000000">element_id_</text>
<polygon fill="none" stroke="#000000" points="635,-389.2 635,-411.2 719,-411.2 719,-389.2 635,-389.2"/>
<text text-anchor="start" x="638" y="-396.9" font-family="Helvetica,sans-Serif" font-size="11.00" fill="#000000">varchar[255]</text>
<polygon fill="none" stroke="#000000" points="479,-367.2 479,-389.2 635,-389.2 635,-367.2 479,-367.2"/>
<text text-anchor="start" x="499" y="-374.3" font-family="Helvetica,sans-Serif" font-size="11.00" fill="#000000">element_name_</text>
<polygon fill="none" stroke="#000000" points="635,-367.2 635,-389.2 719,-389.2 719,-367.2 635,-367.2"/>
<text text-anchor="start" x="638" y="-374.9" font-family="Helvetica,sans-Serif" font-size="11.00" fill="#000000">varchar[255]</text>
<polygon fill="#ffffff" stroke="transparent" points="479,-345.2 479,-367.2 635,-367.2 635,-345.2 479,-345.2"/>
<polygon fill="none" stroke="#000000" points="479,-345.2 479,-367.2 635,-367.2 635,-345.2 479,-345.2"/>
<text text-anchor="start" x="499" y="-352.3" font-family="Helvetica,sans-Serif" font-size="11.00" fill="#000000">scope_id_</text>
<polygon fill="none" stroke="#000000" points="635,-345.2 635,-367.2 719,-367.2 719,-345.2 635,-345.2"/>
<text text-anchor="start" x="638" y="-352.9" font-family="Helvetica,sans-Serif" font-size="11.00" fill="#000000">varchar[255]</text>
<polygon fill="#ffffff" stroke="transparent" points="479,-323.2 479,-345.2 635,-345.2 635,-323.2 479,-323.2"/>
<polygon fill="none" stroke="#000000" points="479,-323.2 479,-345.2 635,-345.2 635,-323.2 479,-323.2"/>
<text text-anchor="start" x="499" y="-330.3" font-family="Helvetica,sans-Serif" font-size="11.00" fill="#000000">sub_scope_id_</text>
<polygon fill="none" stroke="#000000" points="635,-323.2 635,-345.2 719,-345.2 719,-323.2 635,-323.2"/>
<text text-anchor="start" x="638" y="-330.9" font-family="Helvetica,sans-Serif" font-size="11.00" fill="#000000">varchar[255]</text>
<polygon fill="#ffffff" stroke="transparent" points="479,-301.2 479,-323.2 635,-323.2 635,-301.2 479,-301.2"/>
<polygon fill="none" stroke="#000000" points="479,-301.2 479,-323.2 635,-323.2 635,-301.2 479,-301.2"/>
<text text-anchor="start" x="499" y="-308.3" font-family="Helvetica,sans-Serif" font-size="11.00" fill="#000000">scope_type_</text>
<polygon fill="none" stroke="#000000" points="635,-301.2 635,-323.2 719,-323.2 719,-301.2 635,-301.2"/>
<text text-anchor="start" x="638" y="-308.9" font-family="Helvetica,sans-Serif" font-size="11.00" fill="#000000">varchar[255]</text>
<polygon fill="#ffffff" stroke="transparent" points="479,-279.2 479,-301.2 635,-301.2 635,-279.2 479,-279.2"/>
<polygon fill="none" stroke="#000000" points="479,-279.2 479,-301.2 635,-301.2 635,-279.2 479,-279.2"/>
<text text-anchor="start" x="499" y="-286.3" font-family="Helvetica,sans-Serif" font-size="11.00" fill="#000000">scope_definition_id_</text>
<polygon fill="none" stroke="#000000" points="635,-279.2 635,-301.2 719,-301.2 719,-279.2 635,-279.2"/>
<text text-anchor="start" x="638" y="-286.9" font-family="Helvetica,sans-Serif" font-size="11.00" fill="#000000">varchar[255]</text>
<polygon fill="#ffffff" stroke="transparent" points="479,-257.2 479,-279.2 635,-279.2 635,-257.2 479,-257.2"/>
<polygon fill="none" stroke="#000000" points="479,-257.2 479,-279.2 635,-279.2 635,-257.2 479,-257.2"/>
<text text-anchor="start" x="499" y="-264.3" font-family="Helvetica,sans-Serif" font-size="11.00" fill="#000000">correlation_id_</text>
<polygon fill="none" stroke="#000000" points="635,-257.2 635,-279.2 719,-279.2 719,-257.2 635,-257.2"/>
<text text-anchor="start" x="638" y="-264.9" font-family="Helvetica,sans-Serif" font-size="11.00" fill="#000000">varchar[255]</text>
<polygon fill="#ffffff" stroke="transparent" points="479,-235.2 479,-257.2 635,-257.2 635,-235.2 479,-235.2"/>
<polygon fill="none" stroke="#000000" points="479,-235.2 479,-257.2 635,-257.2 635,-235.2 479,-235.2"/>
<image xlink:href="../../images/foreignKeys.png" width="11px" height="12px" preserveAspectRatio="xMinYMin meet" x="484" y="-252.2"/>
<text text-anchor="start" x="499" y="-242.3" font-family="Helvetica,sans-Serif" font-size="11.00" fill="#000000">exception_stack_id_</text>
<polygon fill="none" stroke="#000000" points="635,-235.2 635,-257.2 719,-257.2 719,-235.2 635,-235.2"/>
<text text-anchor="start" x="638" y="-242.9" font-family="Helvetica,sans-Serif" font-size="11.00" fill="#000000">varchar[64]</text>
<polygon fill="none" stroke="#000000" points="479,-213.2 479,-235.2 635,-235.2 635,-213.2 479,-213.2"/>
<text text-anchor="start" x="499" y="-220.3" font-family="Helvetica,sans-Serif" font-size="11.00" fill="#000000">exception_msg_</text>
<polygon fill="none" stroke="#000000" points="635,-213.2 635,-235.2 719,-235.2 719,-213.2 635,-213.2"/>
<text text-anchor="start" x="638" y="-220.9" font-family="Helvetica,sans-Serif" font-size="11.00" fill="#000000">varchar[4000]</text>
<polygon fill="none" stroke="#000000" points="479,-191.2 479,-213.2 635,-213.2 635,-191.2 479,-191.2"/>
<text text-anchor="start" x="499" y="-198.3" font-family="Helvetica,sans-Serif" font-size="11.00" fill="#000000">duedate_</text>
<polygon fill="none" stroke="#000000" points="635,-191.2 635,-213.2 719,-213.2 719,-191.2 635,-191.2"/>
<text text-anchor="start" x="637.8807" y="-198.9" font-family="Helvetica,sans-Serif" font-size="11.00" fill="#000000">timestamp[29,6]</text>
<polygon fill="none" stroke="#000000" points="479,-169.2 479,-191.2 635,-191.2 635,-169.2 479,-169.2"/>
<text text-anchor="start" x="499" y="-176.3" font-family="Helvetica,sans-Serif" font-size="11.00" fill="#000000">repeat_</text>
<polygon fill="none" stroke="#000000" points="635,-169.2 635,-191.2 719,-191.2 719,-169.2 635,-169.2"/>
<text text-anchor="start" x="638" y="-176.9" font-family="Helvetica,sans-Serif" font-size="11.00" fill="#000000">varchar[255]</text>
<polygon fill="none" stroke="#000000" points="479,-147.2 479,-169.2 635,-169.2 635,-147.2 479,-147.2"/>
<text text-anchor="start" x="499" y="-154.3" font-family="Helvetica,sans-Serif" font-size="11.00" fill="#000000">handler_type_</text>
<polygon fill="none" stroke="#000000" points="635,-147.2 635,-169.2 719,-169.2 719,-147.2 635,-147.2"/>
<text text-anchor="start" x="638" y="-154.9" font-family="Helvetica,sans-Serif" font-size="11.00" fill="#000000">varchar[255]</text>
<polygon fill="none" stroke="#000000" points="479,-125.2 479,-147.2 635,-147.2 635,-125.2 479,-125.2"/>
<text text-anchor="start" x="499" y="-132.3" font-family="Helvetica,sans-Serif" font-size="11.00" fill="#000000">handler_cfg_</text>
<polygon fill="none" stroke="#000000" points="635,-125.2 635,-147.2 719,-147.2 719,-125.2 635,-125.2"/>
<text text-anchor="start" x="638" y="-132.9" font-family="Helvetica,sans-Serif" font-size="11.00" fill="#000000">varchar[4000]</text>
<polygon fill="#ffffff" stroke="transparent" points="479,-103.2 479,-125.2 635,-125.2 635,-103.2 479,-103.2"/>
<polygon fill="none" stroke="#000000" points="479,-103.2 479,-125.2 635,-125.2 635,-103.2 479,-103.2"/>
<image xlink:href="../../images/foreignKeys.png" width="11px" height="12px" preserveAspectRatio="xMinYMin meet" x="484" y="-120.2"/>
<text text-anchor="start" x="499" y="-110.3" font-family="Helvetica,sans-Serif" font-size="11.00" fill="#000000">custom_values_id_</text>
<polygon fill="none" stroke="#000000" points="635,-103.2 635,-125.2 719,-125.2 719,-103.2 635,-103.2"/>
<text text-anchor="start" x="638" y="-110.9" font-family="Helvetica,sans-Serif" font-size="11.00" fill="#000000">varchar[64]</text>
<polygon fill="none" stroke="#000000" points="479,-81.2 479,-103.2 635,-103.2 635,-81.2 479,-81.2"/>
<text text-anchor="start" x="499" y="-88.3" font-family="Helvetica,sans-Serif" font-size="11.00" fill="#000000">create_time_</text>
<polygon fill="none" stroke="#000000" points="635,-81.2 635,-103.2 719,-103.2 719,-81.2 635,-81.2"/>
<text text-anchor="start" x="637.8807" y="-88.9" font-family="Helvetica,sans-Serif" font-size="11.00" fill="#000000">timestamp[29,6]</text>
<polygon fill="none" stroke="#000000" points="479,-59.2 479,-81.2 635,-81.2 635,-59.2 479,-59.2"/>
<text text-anchor="start" x="499" y="-66.3" font-family="Helvetica,sans-Serif" font-size="11.00" fill="#000000">tenant_id_</text>
<polygon fill="none" stroke="#000000" points="635,-59.2 635,-81.2 719,-81.2 719,-59.2 635,-59.2"/>
<text text-anchor="start" x="638" y="-66.9" font-family="Helvetica,sans-Serif" font-size="11.00" fill="#000000">varchar[255]</text>
<polygon fill="#ffffff" stroke="transparent" points="479,-40.2 479,-59.2 719,-59.2 719,-40.2 479,-40.2"/>
<polygon fill="none" stroke="#000000" points="479,-40.2 479,-59.2 719,-59.2 719,-40.2 479,-40.2"/>
<polygon fill="#ffffff" stroke="transparent" points="480,-41.2 480,-58.2 563,-58.2 563,-41.2 480,-41.2"/>
<text text-anchor="start" x="482" y="-46.3" font-family="Helvetica,sans-Serif" font-size="11.00" fill="#000000">&lt; 5</text>
<polygon fill="#ffffff" stroke="transparent" points="563,-41.2 563,-58.2 636,-58.2 636,-41.2 563,-41.2"/>
<text text-anchor="start" x="596.4431" y="-46.3" font-family="Helvetica,sans-Serif" font-size="11.00" fill="#000000"> &#160;</text>
<polygon fill="#ffffff" stroke="transparent" points="636,-41.2 636,-58.2 718,-58.2 718,-41.2 636,-41.2"/>
<text text-anchor="start" x="700.4053" y="-46.3" font-family="Helvetica,sans-Serif" font-size="11.00" fill="#000000">0 &gt;</text>
<polygon fill="#000000" stroke="#000000" points="563,-41.2 563,-58.2 563,-58.2 563,-41.2 563,-41.2"/>
<polygon fill="#000000" stroke="#000000" points="636,-41.2 636,-58.2 636,-58.2 636,-41.2 636,-41.2"/>
<polygon fill="none" stroke="#000000" stroke-width="2" points="478,-39.2 478,-611.2 720,-611.2 720,-39.2 478,-39.2"/>
</a>
</g>
</g>
<!-- act_ge_bytearray -->
<g id="node2" class="node">
<title>act_ge_bytearray</title>
<g id="a_node2"><a xlink:href="../../tables/act_ge_bytearray.html" xlink:title="act_ge_bytearray" target="_top">
<polygon fill="#ffffff" stroke="transparent" points="257,-76.7 257,-181.7 402,-181.7 402,-76.7 257,-76.7"/>
<polygon fill="#f5f5f5" stroke="transparent" points="257.5,-158.2 257.5,-181.2 402.5,-181.2 402.5,-158.2 257.5,-158.2"/>
<polygon fill="none" stroke="#000000" points="257.5,-158.2 257.5,-181.2 402.5,-181.2 402.5,-158.2 257.5,-158.2"/>
<text text-anchor="start" x="262.5" y="-166.8" font-family="Helvetica,sans-Serif" font-weight="bold" font-size="11.00" fill="#000000">act_ge_bytearray</text>
<text text-anchor="start" x="368.0219" y="-166.3" font-family="Helvetica,sans-Serif" font-size="11.00" fill="#000000">[table]</text>
<polygon fill="none" stroke="#000000" points="257.5,-136.2 257.5,-158.2 402.5,-158.2 402.5,-136.2 257.5,-136.2"/>
<image xlink:href="../../images/primaryKeys.png" width="11px" height="12px" preserveAspectRatio="xMinYMin meet" x="262.5" y="-153.2"/>
<text text-anchor="start" x="286.5" y="-143.3" font-family="Helvetica,sans-Serif" font-size="11.00" fill="#000000">id_</text>
<polygon fill="#ffffff" stroke="transparent" points="257.5,-114.2 257.5,-136.2 402.5,-136.2 402.5,-114.2 257.5,-114.2"/>
<polygon fill="none" stroke="#000000" points="257.5,-114.2 257.5,-136.2 402.5,-136.2 402.5,-114.2 257.5,-114.2"/>
<image xlink:href="../../images/foreignKeys.png" width="11px" height="12px" preserveAspectRatio="xMinYMin meet" x="262.5" y="-131.2"/>
<text text-anchor="start" x="286.5" y="-121.3" font-family="Helvetica,sans-Serif" font-size="11.00" fill="#000000">deployment_id_</text>
<polygon fill="none" stroke="#000000" points="257.5,-95.2 257.5,-114.2 402.5,-114.2 402.5,-95.2 257.5,-95.2"/>
<text text-anchor="start" x="260.5" y="-101.3" font-family="Helvetica,sans-Serif" font-size="11.00" fill="#000000">...</text>
<polygon fill="#ffffff" stroke="transparent" points="257.5,-76.2 257.5,-95.2 402.5,-95.2 402.5,-76.2 257.5,-76.2"/>
<polygon fill="none" stroke="#000000" points="257.5,-76.2 257.5,-95.2 402.5,-95.2 402.5,-76.2 257.5,-76.2"/>
<polygon fill="#ffffff" stroke="transparent" points="258.5,-77.2 258.5,-94.2 307.5,-94.2 307.5,-77.2 258.5,-77.2"/>
<text text-anchor="start" x="260.5" y="-82.3" font-family="Helvetica,sans-Serif" font-size="11.00" fill="#000000">&lt; 1</text>
<polygon fill="#ffffff" stroke="transparent" points="307.5,-77.2 307.5,-94.2 347.5,-94.2 347.5,-77.2 307.5,-77.2"/>
<text text-anchor="start" x="324.4431" y="-82.3" font-family="Helvetica,sans-Serif" font-size="11.00" fill="#000000"> &#160;</text>
<polygon fill="#ffffff" stroke="transparent" points="347.5,-77.2 347.5,-94.2 401.5,-94.2 401.5,-77.2 347.5,-77.2"/>
<text text-anchor="start" x="377.7904" y="-82.3" font-family="Helvetica,sans-Serif" font-size="11.00" fill="#000000">14 &gt;</text>
<polygon fill="#000000" stroke="#000000" points="307.5,-77.2 307.5,-94.2 307.5,-94.2 307.5,-77.2 307.5,-77.2"/>
<polygon fill="#000000" stroke="#000000" points="347.5,-77.2 347.5,-94.2 347.5,-94.2 347.5,-77.2 347.5,-77.2"/>
</a>
</g>
</g>
<!-- act_ru_deadletter_job&#45;&gt;act_ge_bytearray -->
<g id="edge1" class="edge">
<title>act_ru_deadletter_job:w&#45;&gt;act_ge_bytearray:e</title>
<path fill="none" stroke="#000000" d="M464.5706,-116.1655C440.4842,-123.2698 434.0321,-147.2 402.5,-147.2"/>
<polygon fill="#000000" stroke="#000000" points="471.0732,-115.2798 479.4859,-117.7671 475.0366,-114.7399 479,-114.2 479,-114.2 479,-114.2 475.0366,-114.7399 478.5141,-110.6329 471.0732,-115.2798 471.0732,-115.2798"/>
<ellipse fill="none" stroke="#000000" cx="467.9025" cy="-115.7117" rx="3.2" ry="3.2"/>
</g>
<!-- act_ru_deadletter_job&#45;&gt;act_ge_bytearray -->
<g id="edge2" class="edge">
<title>act_ru_deadletter_job:w&#45;&gt;act_ge_bytearray:e</title>
<path fill="none" stroke="#000000" d="M464.6632,-243.3439C429.5134,-227.1118 452.4583,-147.2 402.5,-147.2"/>
<polygon fill="#000000" stroke="#000000" points="471.1542,-244.6369 478.2966,-249.7306 475.0771,-245.4185 479,-246.2 479,-246.2 479,-246.2 475.0771,-245.4185 479.7034,-242.6694 471.1542,-244.6369 471.1542,-244.6369"/>
<ellipse fill="none" stroke="#000000" cx="468.0158" cy="-244.0117" rx="3.2" ry="3.2"/>
</g>
<!-- act_ru_execution -->
<g id="node3" class="node">
<title>act_ru_execution</title>
<g id="a_node3"><a xlink:href="../../tables/act_ru_execution.html" xlink:title="act_ru_execution" target="_top">
<polygon fill="#ffffff" stroke="transparent" points="231,-263.7 231,-500.7 428,-500.7 428,-263.7 231,-263.7"/>
<polygon fill="#f5f5f5" stroke="transparent" points="231.5,-477.2 231.5,-500.2 428.5,-500.2 428.5,-477.2 231.5,-477.2"/>
<polygon fill="none" stroke="#000000" points="231.5,-477.2 231.5,-500.2 428.5,-500.2 428.5,-477.2 231.5,-477.2"/>
<text text-anchor="start" x="236.5" y="-485.8" font-family="Helvetica,sans-Serif" font-weight="bold" font-size="11.00" fill="#000000">act_ru_execution</text>
<text text-anchor="start" x="393.5437" y="-485.3" font-family="Helvetica,sans-Serif" font-size="11.00" fill="#000000">[table]</text>
<polygon fill="none" stroke="#000000" points="231.5,-455.2 231.5,-477.2 428.5,-477.2 428.5,-455.2 231.5,-455.2"/>
<image xlink:href="../../images/primaryKeys.png" width="11px" height="12px" preserveAspectRatio="xMinYMin meet" x="236.5" y="-472.2"/>
<text text-anchor="start" x="251.5" y="-462.3" font-family="Helvetica,sans-Serif" font-size="11.00" fill="#000000">id_</text>
<polygon fill="#ffffff" stroke="transparent" points="231.5,-433.2 231.5,-455.2 428.5,-455.2 428.5,-433.2 231.5,-433.2"/>
<polygon fill="none" stroke="#000000" points="231.5,-433.2 231.5,-455.2 428.5,-455.2 428.5,-433.2 231.5,-433.2"/>
<image xlink:href="../../images/foreignKeys.png" width="11px" height="12px" preserveAspectRatio="xMinYMin meet" x="236.5" y="-450.2"/>
<text text-anchor="start" x="251.5" y="-440.3" font-family="Helvetica,sans-Serif" font-size="11.00" fill="#000000">proc_inst_id_</text>
<polygon fill="#ffffff" stroke="transparent" points="231.5,-411.2 231.5,-433.2 428.5,-433.2 428.5,-411.2 231.5,-411.2"/>
<polygon fill="none" stroke="#000000" points="231.5,-411.2 231.5,-433.2 428.5,-433.2 428.5,-411.2 231.5,-411.2"/>
<text text-anchor="start" x="251.5" y="-418.3" font-family="Helvetica,sans-Serif" font-size="11.00" fill="#000000">business_key_</text>
<polygon fill="#ffffff" stroke="transparent" points="231.5,-389.2 231.5,-411.2 428.5,-411.2 428.5,-389.2 231.5,-389.2"/>
<polygon fill="none" stroke="#000000" points="231.5,-389.2 231.5,-411.2 428.5,-411.2 428.5,-389.2 231.5,-389.2"/>
<image xlink:href="../../images/foreignKeys.png" width="11px" height="12px" preserveAspectRatio="xMinYMin meet" x="236.5" y="-406.2"/>
<text text-anchor="start" x="251.5" y="-396.3" font-family="Helvetica,sans-Serif" font-size="11.00" fill="#000000">parent_id_</text>
<polygon fill="#ffffff" stroke="transparent" points="231.5,-367.2 231.5,-389.2 428.5,-389.2 428.5,-367.2 231.5,-367.2"/>
<polygon fill="none" stroke="#000000" points="231.5,-367.2 231.5,-389.2 428.5,-389.2 428.5,-367.2 231.5,-367.2"/>
<image xlink:href="../../images/foreignKeys.png" width="11px" height="12px" preserveAspectRatio="xMinYMin meet" x="236.5" y="-384.2"/>
<text text-anchor="start" x="251.5" y="-374.3" font-family="Helvetica,sans-Serif" font-size="11.00" fill="#000000">proc_def_id_</text>
<polygon fill="#ffffff" stroke="transparent" points="231.5,-345.2 231.5,-367.2 428.5,-367.2 428.5,-345.2 231.5,-345.2"/>
<polygon fill="none" stroke="#000000" points="231.5,-345.2 231.5,-367.2 428.5,-367.2 428.5,-345.2 231.5,-345.2"/>
<image xlink:href="../../images/foreignKeys.png" width="11px" height="12px" preserveAspectRatio="xMinYMin meet" x="236.5" y="-362.2"/>
<text text-anchor="start" x="251.5" y="-352.3" font-family="Helvetica,sans-Serif" font-size="11.00" fill="#000000">super_exec_</text>
<polygon fill="#ffffff" stroke="transparent" points="231.5,-323.2 231.5,-345.2 428.5,-345.2 428.5,-323.2 231.5,-323.2"/>
<polygon fill="none" stroke="#000000" points="231.5,-323.2 231.5,-345.2 428.5,-345.2 428.5,-323.2 231.5,-323.2"/>
<text text-anchor="start" x="251.5" y="-330.3" font-family="Helvetica,sans-Serif" font-size="11.00" fill="#000000">root_proc_inst_id_</text>
<polygon fill="#ffffff" stroke="transparent" points="231.5,-301.2 231.5,-323.2 428.5,-323.2 428.5,-301.2 231.5,-301.2"/>
<polygon fill="none" stroke="#000000" points="231.5,-301.2 231.5,-323.2 428.5,-323.2 428.5,-301.2 231.5,-301.2"/>
<text text-anchor="start" x="251.5" y="-308.3" font-family="Helvetica,sans-Serif" font-size="11.00" fill="#000000">reference_id_</text>
<polygon fill="none" stroke="#000000" points="231.5,-282.2 231.5,-301.2 428.5,-301.2 428.5,-282.2 231.5,-282.2"/>
<text text-anchor="start" x="234.5" y="-288.3" font-family="Helvetica,sans-Serif" font-size="11.00" fill="#000000">...</text>
<polygon fill="#ffffff" stroke="transparent" points="231.5,-263.2 231.5,-282.2 428.5,-282.2 428.5,-263.2 231.5,-263.2"/>
<polygon fill="none" stroke="#000000" points="231.5,-263.2 231.5,-282.2 428.5,-282.2 428.5,-263.2 231.5,-263.2"/>
<polygon fill="#ffffff" stroke="transparent" points="232.5,-264.2 232.5,-281.2 298.5,-281.2 298.5,-264.2 232.5,-264.2"/>
<text text-anchor="start" x="234.5" y="-269.3" font-family="Helvetica,sans-Serif" font-size="11.00" fill="#000000">&lt; 4</text>
<polygon fill="#ffffff" stroke="transparent" points="298.5,-264.2 298.5,-281.2 355.5,-281.2 355.5,-264.2 298.5,-264.2"/>
<text text-anchor="start" x="323.9431" y="-269.3" font-family="Helvetica,sans-Serif" font-size="11.00" fill="#000000"> &#160;</text>
<polygon fill="#ffffff" stroke="transparent" points="355.5,-264.2 355.5,-281.2 427.5,-281.2 427.5,-264.2 355.5,-264.2"/>
<text text-anchor="start" x="403.7904" y="-269.3" font-family="Helvetica,sans-Serif" font-size="11.00" fill="#000000">17 &gt;</text>
<polygon fill="#000000" stroke="#000000" points="298.5,-264.2 298.5,-281.2 298.5,-281.2 298.5,-264.2 298.5,-264.2"/>
<polygon fill="#000000" stroke="#000000" points="355.5,-264.2 355.5,-281.2 355.5,-281.2 355.5,-264.2 355.5,-264.2"/>
</a>
</g>
</g>
<!-- act_ru_deadletter_job&#45;&gt;act_ru_execution -->
<g id="edge3" class="edge">
<title>act_ru_deadletter_job:w&#45;&gt;act_ru_execution:e</title>
<path fill="none" stroke="#000000" d="M464.4203,-466.2C452.5435,-466.2 445.158,-466.2 428.5,-466.2"/>
<polygon fill="#000000" stroke="#000000" points="471,-466.2001 479,-469.8 475,-466.2 479,-466.2 479,-466.2 479,-466.2 475,-466.2 479,-462.6 471,-466.2001 471,-466.2001"/>
<ellipse fill="none" stroke="#000000" cx="467.8" cy="-466.2001" rx="3.2" ry="3.2"/>
</g>
<!-- act_ru_deadletter_job&#45;&gt;act_ru_execution -->
<g id="edge5" class="edge">
<title>act_ru_deadletter_job:w&#45;&gt;act_ru_execution:e</title>
<path fill="none" stroke="#000000" d="M464.5981,-447.4462C452.4282,-453.5658 447.0526,-466.2 428.5,-466.2"/>
<polygon fill="#000000" stroke="#000000" points="471.1958,-445.9591 479.7916,-447.7119 475.0979,-445.0796 479,-444.2 479,-444.2 479,-444.2 475.0979,-445.0796 478.2084,-440.6881 471.1958,-445.9591 471.1958,-445.9591"/>
<ellipse fill="none" stroke="#000000" cx="468.0741" cy="-446.6627" rx="3.2" ry="3.2"/>
</g>
<!-- act_re_procdef -->
<g id="node4" class="node">
<title>act_re_procdef</title>
<g id="a_node4"><a xlink:href="../../tables/act_re_procdef.html" xlink:title="act_re_procdef" target="_top">
<polygon fill="#ffffff" stroke="transparent" points="8,-171.7 8,-342.7 182,-342.7 182,-171.7 8,-171.7"/>
<polygon fill="#f5f5f5" stroke="transparent" points="8,-319.2 8,-342.2 182,-342.2 182,-319.2 8,-319.2"/>
<polygon fill="none" stroke="#000000" points="8,-319.2 8,-342.2 182,-342.2 182,-319.2 8,-319.2"/>
<text text-anchor="start" x="13" y="-327.8" font-family="Helvetica,sans-Serif" font-weight="bold" font-size="11.00" fill="#000000">act_re_procdef</text>
<text text-anchor="start" x="147.0437" y="-327.3" font-family="Helvetica,sans-Serif" font-size="11.00" fill="#000000">[table]</text>
<polygon fill="none" stroke="#000000" points="8,-297.2 8,-319.2 182,-319.2 182,-297.2 8,-297.2"/>
<image xlink:href="../../images/primaryKeys.png" width="11px" height="12px" preserveAspectRatio="xMinYMin meet" x="13" y="-314.2"/>
<text text-anchor="start" x="28" y="-304.3" font-family="Helvetica,sans-Serif" font-size="11.00" fill="#000000">id_</text>
<polygon fill="#ffffff" stroke="transparent" points="8,-275.2 8,-297.2 182,-297.2 182,-275.2 8,-275.2"/>
<polygon fill="none" stroke="#000000" points="8,-275.2 8,-297.2 182,-297.2 182,-275.2 8,-275.2"/>
<text text-anchor="start" x="28" y="-282.3" font-family="Helvetica,sans-Serif" font-size="11.00" fill="#000000">key_</text>
<polygon fill="#ffffff" stroke="transparent" points="8,-253.2 8,-275.2 182,-275.2 182,-253.2 8,-253.2"/>
<polygon fill="none" stroke="#000000" points="8,-253.2 8,-275.2 182,-275.2 182,-253.2 8,-253.2"/>
<text text-anchor="start" x="28" y="-260.3" font-family="Helvetica,sans-Serif" font-size="11.00" fill="#000000">version_</text>
<polygon fill="#ffffff" stroke="transparent" points="8,-231.2 8,-253.2 182,-253.2 182,-231.2 8,-231.2"/>
<polygon fill="none" stroke="#000000" points="8,-231.2 8,-253.2 182,-253.2 182,-231.2 8,-231.2"/>
<text text-anchor="start" x="28" y="-238.3" font-family="Helvetica,sans-Serif" font-size="11.00" fill="#000000">tenant_id_</text>
<polygon fill="#ffffff" stroke="transparent" points="8,-209.2 8,-231.2 182,-231.2 182,-209.2 8,-209.2"/>
<polygon fill="none" stroke="#000000" points="8,-209.2 8,-231.2 182,-231.2 182,-209.2 8,-209.2"/>
<text text-anchor="start" x="28" y="-216.3" font-family="Helvetica,sans-Serif" font-size="11.00" fill="#000000">derived_version_</text>
<polygon fill="none" stroke="#000000" points="8,-190.2 8,-209.2 182,-209.2 182,-190.2 8,-190.2"/>
<text text-anchor="start" x="11" y="-196.3" font-family="Helvetica,sans-Serif" font-size="11.00" fill="#000000">...</text>
<polygon fill="#ffffff" stroke="transparent" points="8,-171.2 8,-190.2 182,-190.2 182,-171.2 8,-171.2"/>
<polygon fill="none" stroke="#000000" points="8,-171.2 8,-190.2 182,-190.2 182,-171.2 8,-171.2"/>
<polygon fill="#ffffff" stroke="transparent" points="9,-172.2 9,-189.2 64,-189.2 64,-172.2 9,-172.2"/>
<text text-anchor="start" x="11" y="-177.3" font-family="Helvetica,sans-Serif" font-size="11.00" fill="#000000"> &#160;</text>
<polygon fill="#ffffff" stroke="transparent" points="64,-172.2 64,-189.2 118,-189.2 118,-172.2 64,-172.2"/>
<text text-anchor="start" x="87.9431" y="-177.3" font-family="Helvetica,sans-Serif" font-size="11.00" fill="#000000"> &#160;</text>
<polygon fill="#ffffff" stroke="transparent" points="118,-172.2 118,-189.2 181,-189.2 181,-172.2 118,-172.2"/>
<text text-anchor="start" x="163.4053" y="-177.3" font-family="Helvetica,sans-Serif" font-size="11.00" fill="#000000">8 &gt;</text>
<polygon fill="#000000" stroke="#000000" points="64,-172.2 64,-189.2 64,-189.2 64,-172.2 64,-172.2"/>
<polygon fill="#000000" stroke="#000000" points="118,-172.2 118,-189.2 118,-189.2 118,-172.2 118,-172.2"/>
</a>
</g>
</g>
<!-- act_ru_deadletter_job&#45;&gt;act_re_procdef -->
<g id="edge4" class="edge">
<title>act_ru_deadletter_job:w&#45;&gt;act_re_procdef:e</title>
<path fill="none" stroke="#000000" d="M464.4704,-420.2732C414.836,-404.582 492.6473,-297.239 436,-253.2 361.2618,-195.0968 307.6106,-210.7404 223,-253.2 195.7497,-266.8748 212.489,-308.2 182,-308.2"/>
<polygon fill="#000000" stroke="#000000" points="471.0694,-421.1482 478.5267,-425.7688 475.0347,-421.6741 479,-422.2 479,-422.2 479,-422.2 475.0347,-421.6741 479.4733,-418.6312 471.0694,-421.1482 471.0694,-421.1482"/>
<ellipse fill="none" stroke="#000000" cx="467.8972" cy="-420.7275" rx="3.2" ry="3.2"/>
</g>
<!-- act_ru_execution&#45;&gt;act_re_procdef -->
<g id="edge6" class="edge">
<title>act_ru_execution:w&#45;&gt;act_re_procdef:e</title>
<path fill="none" stroke="#000000" d="M217.4069,-373.1658C200.4151,-357.1154 213.8524,-308.2 182,-308.2"/>
<polygon fill="#000000" stroke="#000000" points="223.9662,-375.5088 230.289,-381.5902 227.7331,-376.8544 231.5,-378.2 231.5,-378.2 231.5,-378.2 227.7331,-376.8544 232.711,-374.8098 223.9662,-375.5088 223.9662,-375.5088"/>
<ellipse fill="none" stroke="#000000" cx="220.9527" cy="-374.4323" rx="3.2" ry="3.2"/>
</g>
</g>
</svg>
