<?xml version="1.0" encoding="UTF-8" standalone="no"?>
<!DOCTYPE svg PUBLIC "-//W3C//DTD SVG 1.1//EN"
 "http://www.w3.org/Graphics/SVG/1.1/DTD/svg11.dtd">
<!-- Generated by graphviz version 2.40.1 (20161225.0304)
 -->
<!-- Title: oneDegreeRelationshipsDiagram Pages: 1 -->
<svg width="732pt" height="399pt"
 viewBox="0.00 0.00 732.00 398.70" xmlns="http://www.w3.org/2000/svg" xmlns:xlink="http://www.w3.org/1999/xlink">
<g id="graph0" class="graph" transform="scale(1 1) rotate(0) translate(4 394.7)">
<title>oneDegreeRelationshipsDiagram</title>
<polygon fill="#ffffff" stroke="transparent" points="-4,4 -4,-394.7 728,-394.7 728,4 -4,4"/>
<text text-anchor="middle" x="72.4936" y="-7.3" font-family="Helvetica,sans-Serif" font-size="11.00" fill="#000000">Generated by SchemaSpy</text>
<!-- act_ge_bytearray -->
<g id="node1" class="node">
<title>act_ge_bytearray</title>
<g id="a_node1"><a xlink:href="../../tables/act_ge_bytearray.html" xlink:title="act_ge_bytearray" target="_top">
<polygon fill="#ffffff" stroke="transparent" points="223,-38.2 223,-143.2 368,-143.2 368,-38.2 223,-38.2"/>
<polygon fill="#f5f5f5" stroke="transparent" points="223.5,-119.7 223.5,-142.7 368.5,-142.7 368.5,-119.7 223.5,-119.7"/>
<polygon fill="none" stroke="#000000" points="223.5,-119.7 223.5,-142.7 368.5,-142.7 368.5,-119.7 223.5,-119.7"/>
<text text-anchor="start" x="228.5" y="-128.3" font-family="Helvetica,sans-Serif" font-weight="bold" font-size="11.00" fill="#000000">act_ge_bytearray</text>
<text text-anchor="start" x="334.0219" y="-127.8" font-family="Helvetica,sans-Serif" font-size="11.00" fill="#000000">[table]</text>
<polygon fill="none" stroke="#000000" points="223.5,-97.7 223.5,-119.7 368.5,-119.7 368.5,-97.7 223.5,-97.7"/>
<image xlink:href="../../images/primaryKeys.png" width="11px" height="12px" preserveAspectRatio="xMinYMin meet" x="228.5" y="-114.7"/>
<text text-anchor="start" x="252.5" y="-104.8" font-family="Helvetica,sans-Serif" font-size="11.00" fill="#000000">id_</text>
<polygon fill="#ffffff" stroke="transparent" points="223.5,-75.7 223.5,-97.7 368.5,-97.7 368.5,-75.7 223.5,-75.7"/>
<polygon fill="none" stroke="#000000" points="223.5,-75.7 223.5,-97.7 368.5,-97.7 368.5,-75.7 223.5,-75.7"/>
<image xlink:href="../../images/foreignKeys.png" width="11px" height="12px" preserveAspectRatio="xMinYMin meet" x="228.5" y="-92.7"/>
<text text-anchor="start" x="252.5" y="-82.8" font-family="Helvetica,sans-Serif" font-size="11.00" fill="#000000">deployment_id_</text>
<polygon fill="none" stroke="#000000" points="223.5,-56.7 223.5,-75.7 368.5,-75.7 368.5,-56.7 223.5,-56.7"/>
<text text-anchor="start" x="226.5" y="-62.8" font-family="Helvetica,sans-Serif" font-size="11.00" fill="#000000">...</text>
<polygon fill="#ffffff" stroke="transparent" points="223.5,-37.7 223.5,-56.7 368.5,-56.7 368.5,-37.7 223.5,-37.7"/>
<polygon fill="none" stroke="#000000" points="223.5,-37.7 223.5,-56.7 368.5,-56.7 368.5,-37.7 223.5,-37.7"/>
<polygon fill="#ffffff" stroke="transparent" points="224.5,-38.7 224.5,-55.7 273.5,-55.7 273.5,-38.7 224.5,-38.7"/>
<text text-anchor="start" x="226.5" y="-43.8" font-family="Helvetica,sans-Serif" font-size="11.00" fill="#000000">&lt; 1</text>
<polygon fill="#ffffff" stroke="transparent" points="273.5,-38.7 273.5,-55.7 313.5,-55.7 313.5,-38.7 273.5,-38.7"/>
<text text-anchor="start" x="290.4431" y="-43.8" font-family="Helvetica,sans-Serif" font-size="11.00" fill="#000000"> &#160;</text>
<polygon fill="#ffffff" stroke="transparent" points="313.5,-38.7 313.5,-55.7 367.5,-55.7 367.5,-38.7 313.5,-38.7"/>
<text text-anchor="start" x="343.7904" y="-43.8" font-family="Helvetica,sans-Serif" font-size="11.00" fill="#000000">14 &gt;</text>
<polygon fill="#000000" stroke="#000000" points="273.5,-38.7 273.5,-55.7 273.5,-55.7 273.5,-38.7 273.5,-38.7"/>
<polygon fill="#000000" stroke="#000000" points="313.5,-38.7 313.5,-55.7 313.5,-55.7 313.5,-38.7 313.5,-38.7"/>
</a>
</g>
</g>
<!-- act_re_deployment -->
<g id="node2" class="node">
<title>act_re_deployment</title>
<g id="a_node2"><a xlink:href="../../tables/act_re_deployment.html" xlink:title="act_re_deployment" target="_top">
<polygon fill="#ffffff" stroke="transparent" points="8,-78.2 8,-161.2 174,-161.2 174,-78.2 8,-78.2"/>
<polygon fill="#f5f5f5" stroke="transparent" points="8,-137.7 8,-160.7 174,-160.7 174,-137.7 8,-137.7"/>
<polygon fill="none" stroke="#000000" points="8,-137.7 8,-160.7 174,-160.7 174,-137.7 8,-137.7"/>
<text text-anchor="start" x="13" y="-146.3" font-family="Helvetica,sans-Serif" font-weight="bold" font-size="11.00" fill="#000000">act_re_deployment</text>
<text text-anchor="start" x="139.0437" y="-145.8" font-family="Helvetica,sans-Serif" font-size="11.00" fill="#000000">[table]</text>
<polygon fill="none" stroke="#000000" points="8,-115.7 8,-137.7 174,-137.7 174,-115.7 8,-115.7"/>
<image xlink:href="../../images/primaryKeys.png" width="11px" height="12px" preserveAspectRatio="xMinYMin meet" x="13" y="-132.7"/>
<text text-anchor="start" x="28" y="-122.8" font-family="Helvetica,sans-Serif" font-size="11.00" fill="#000000">id_</text>
<polygon fill="none" stroke="#000000" points="8,-96.7 8,-115.7 174,-115.7 174,-96.7 8,-96.7"/>
<text text-anchor="start" x="11" y="-102.8" font-family="Helvetica,sans-Serif" font-size="11.00" fill="#000000">...</text>
<polygon fill="#ffffff" stroke="transparent" points="8,-77.7 8,-96.7 174,-96.7 174,-77.7 8,-77.7"/>
<polygon fill="none" stroke="#000000" points="8,-77.7 8,-96.7 174,-96.7 174,-77.7 8,-77.7"/>
<polygon fill="#ffffff" stroke="transparent" points="9,-78.7 9,-95.7 61,-95.7 61,-78.7 9,-78.7"/>
<text text-anchor="start" x="11" y="-83.8" font-family="Helvetica,sans-Serif" font-size="11.00" fill="#000000"> &#160;</text>
<polygon fill="#ffffff" stroke="transparent" points="61,-78.7 61,-95.7 113,-95.7 113,-78.7 61,-78.7"/>
<text text-anchor="start" x="83.9431" y="-83.8" font-family="Helvetica,sans-Serif" font-size="11.00" fill="#000000"> &#160;</text>
<polygon fill="#ffffff" stroke="transparent" points="113,-78.7 113,-95.7 173,-95.7 173,-78.7 113,-78.7"/>
<text text-anchor="start" x="155.4053" y="-83.8" font-family="Helvetica,sans-Serif" font-size="11.00" fill="#000000">2 &gt;</text>
<polygon fill="#000000" stroke="#000000" points="61,-78.7 61,-95.7 61,-95.7 61,-78.7 61,-78.7"/>
<polygon fill="#000000" stroke="#000000" points="113,-78.7 113,-95.7 113,-95.7 113,-78.7 113,-78.7"/>
</a>
</g>
</g>
<!-- act_ge_bytearray&#45;&gt;act_re_deployment -->
<g id="edge1" class="edge">
<title>act_ge_bytearray:w&#45;&gt;act_re_deployment:e</title>
<path fill="none" stroke="#000000" d="M209.6565,-91.2885C196.6245,-101.7952 196.3187,-126.7 174,-126.7"/>
<polygon fill="#000000" stroke="#000000" points="215.9063,-89.217 224.6327,-90.1172 219.7031,-87.9585 223.5,-86.7 223.5,-86.7 223.5,-86.7 219.7031,-87.9585 222.3673,-83.2828 215.9063,-89.217 215.9063,-89.217"/>
<ellipse fill="none" stroke="#000000" cx="212.8688" cy="-90.2238" rx="3.2" ry="3.2"/>
</g>
<!-- act_re_model -->
<g id="node3" class="node">
<title>act_re_model</title>
<g id="a_node3"><a xlink:href="../../tables/act_re_model.html" xlink:title="act_re_model" target="_top">
<polygon fill="#ffffff" stroke="transparent" points="417,-54.7 417,-386.7 716,-386.7 716,-54.7 417,-54.7"/>
<polygon fill="#f5f5f5" stroke="transparent" points="419.5,-361.7 419.5,-384.7 714.5,-384.7 714.5,-361.7 419.5,-361.7"/>
<polygon fill="none" stroke="#000000" points="419.5,-361.7 419.5,-384.7 714.5,-384.7 714.5,-361.7 419.5,-361.7"/>
<text text-anchor="start" x="424.5" y="-370.3" font-family="Helvetica,sans-Serif" font-weight="bold" font-size="11.00" fill="#000000">act_re_model</text>
<text text-anchor="start" x="679.5437" y="-369.8" font-family="Helvetica,sans-Serif" font-size="11.00" fill="#000000">[table]</text>
<polygon fill="none" stroke="#000000" points="419.5,-339.7 419.5,-361.7 630.5,-361.7 630.5,-339.7 419.5,-339.7"/>
<image xlink:href="../../images/primaryKeys.png" width="11px" height="12px" preserveAspectRatio="xMinYMin meet" x="424.5" y="-356.7"/>
<text text-anchor="start" x="439.5" y="-346.8" font-family="Helvetica,sans-Serif" font-size="11.00" fill="#000000">id_</text>
<polygon fill="none" stroke="#000000" points="630.5,-339.7 630.5,-361.7 714.5,-361.7 714.5,-339.7 630.5,-339.7"/>
<text text-anchor="start" x="633.5" y="-347.4" font-family="Helvetica,sans-Serif" font-size="11.00" fill="#000000">varchar[64]</text>
<polygon fill="none" stroke="#000000" points="419.5,-317.7 419.5,-339.7 630.5,-339.7 630.5,-317.7 419.5,-317.7"/>
<text text-anchor="start" x="439.5" y="-324.8" font-family="Helvetica,sans-Serif" font-size="11.00" fill="#000000">rev_</text>
<polygon fill="none" stroke="#000000" points="630.5,-317.7 630.5,-339.7 714.5,-339.7 714.5,-317.7 630.5,-317.7"/>
<text text-anchor="start" x="633.5" y="-325.4" font-family="Helvetica,sans-Serif" font-size="11.00" fill="#000000">int4[10]</text>
<polygon fill="none" stroke="#000000" points="419.5,-295.7 419.5,-317.7 630.5,-317.7 630.5,-295.7 419.5,-295.7"/>
<text text-anchor="start" x="439.5" y="-302.8" font-family="Helvetica,sans-Serif" font-size="11.00" fill="#000000">name_</text>
<polygon fill="none" stroke="#000000" points="630.5,-295.7 630.5,-317.7 714.5,-317.7 714.5,-295.7 630.5,-295.7"/>
<text text-anchor="start" x="633.5" y="-303.4" font-family="Helvetica,sans-Serif" font-size="11.00" fill="#000000">varchar[255]</text>
<polygon fill="none" stroke="#000000" points="419.5,-273.7 419.5,-295.7 630.5,-295.7 630.5,-273.7 419.5,-273.7"/>
<text text-anchor="start" x="439.5" y="-280.8" font-family="Helvetica,sans-Serif" font-size="11.00" fill="#000000">key_</text>
<polygon fill="none" stroke="#000000" points="630.5,-273.7 630.5,-295.7 714.5,-295.7 714.5,-273.7 630.5,-273.7"/>
<text text-anchor="start" x="633.5" y="-281.4" font-family="Helvetica,sans-Serif" font-size="11.00" fill="#000000">varchar[255]</text>
<polygon fill="none" stroke="#000000" points="419.5,-251.7 419.5,-273.7 630.5,-273.7 630.5,-251.7 419.5,-251.7"/>
<text text-anchor="start" x="439.5" y="-258.8" font-family="Helvetica,sans-Serif" font-size="11.00" fill="#000000">category_</text>
<polygon fill="none" stroke="#000000" points="630.5,-251.7 630.5,-273.7 714.5,-273.7 714.5,-251.7 630.5,-251.7"/>
<text text-anchor="start" x="633.5" y="-259.4" font-family="Helvetica,sans-Serif" font-size="11.00" fill="#000000">varchar[255]</text>
<polygon fill="none" stroke="#000000" points="419.5,-229.7 419.5,-251.7 630.5,-251.7 630.5,-229.7 419.5,-229.7"/>
<text text-anchor="start" x="439.5" y="-236.8" font-family="Helvetica,sans-Serif" font-size="11.00" fill="#000000">create_time_</text>
<polygon fill="none" stroke="#000000" points="630.5,-229.7 630.5,-251.7 714.5,-251.7 714.5,-229.7 630.5,-229.7"/>
<text text-anchor="start" x="633.3807" y="-237.4" font-family="Helvetica,sans-Serif" font-size="11.00" fill="#000000">timestamp[29,6]</text>
<polygon fill="none" stroke="#000000" points="419.5,-207.7 419.5,-229.7 630.5,-229.7 630.5,-207.7 419.5,-207.7"/>
<text text-anchor="start" x="439.5" y="-214.8" font-family="Helvetica,sans-Serif" font-size="11.00" fill="#000000">last_update_time_</text>
<polygon fill="none" stroke="#000000" points="630.5,-207.7 630.5,-229.7 714.5,-229.7 714.5,-207.7 630.5,-207.7"/>
<text text-anchor="start" x="633.3807" y="-215.4" font-family="Helvetica,sans-Serif" font-size="11.00" fill="#000000">timestamp[29,6]</text>
<polygon fill="none" stroke="#000000" points="419.5,-185.7 419.5,-207.7 630.5,-207.7 630.5,-185.7 419.5,-185.7"/>
<text text-anchor="start" x="439.5" y="-192.8" font-family="Helvetica,sans-Serif" font-size="11.00" fill="#000000">version_</text>
<polygon fill="none" stroke="#000000" points="630.5,-185.7 630.5,-207.7 714.5,-207.7 714.5,-185.7 630.5,-185.7"/>
<text text-anchor="start" x="633.5" y="-193.4" font-family="Helvetica,sans-Serif" font-size="11.00" fill="#000000">int4[10]</text>
<polygon fill="none" stroke="#000000" points="419.5,-163.7 419.5,-185.7 630.5,-185.7 630.5,-163.7 419.5,-163.7"/>
<text text-anchor="start" x="439.5" y="-170.8" font-family="Helvetica,sans-Serif" font-size="11.00" fill="#000000">meta_info_</text>
<polygon fill="none" stroke="#000000" points="630.5,-163.7 630.5,-185.7 714.5,-185.7 714.5,-163.7 630.5,-163.7"/>
<text text-anchor="start" x="633.5" y="-171.4" font-family="Helvetica,sans-Serif" font-size="11.00" fill="#000000">varchar[4000]</text>
<polygon fill="#ffffff" stroke="transparent" points="419.5,-141.7 419.5,-163.7 630.5,-163.7 630.5,-141.7 419.5,-141.7"/>
<polygon fill="none" stroke="#000000" points="419.5,-141.7 419.5,-163.7 630.5,-163.7 630.5,-141.7 419.5,-141.7"/>
<image xlink:href="../../images/foreignKeys.png" width="11px" height="12px" preserveAspectRatio="xMinYMin meet" x="424.5" y="-158.7"/>
<text text-anchor="start" x="439.5" y="-148.8" font-family="Helvetica,sans-Serif" font-size="11.00" fill="#000000">deployment_id_</text>
<polygon fill="none" stroke="#000000" points="630.5,-141.7 630.5,-163.7 714.5,-163.7 714.5,-141.7 630.5,-141.7"/>
<text text-anchor="start" x="633.5" y="-149.4" font-family="Helvetica,sans-Serif" font-size="11.00" fill="#000000">varchar[64]</text>
<polygon fill="#ffffff" stroke="transparent" points="419.5,-119.7 419.5,-141.7 630.5,-141.7 630.5,-119.7 419.5,-119.7"/>
<polygon fill="none" stroke="#000000" points="419.5,-119.7 419.5,-141.7 630.5,-141.7 630.5,-119.7 419.5,-119.7"/>
<image xlink:href="../../images/foreignKeys.png" width="11px" height="12px" preserveAspectRatio="xMinYMin meet" x="424.5" y="-136.7"/>
<text text-anchor="start" x="439.5" y="-126.8" font-family="Helvetica,sans-Serif" font-size="11.00" fill="#000000">editor_source_value_id_</text>
<polygon fill="none" stroke="#000000" points="630.5,-119.7 630.5,-141.7 714.5,-141.7 714.5,-119.7 630.5,-119.7"/>
<text text-anchor="start" x="633.5" y="-127.4" font-family="Helvetica,sans-Serif" font-size="11.00" fill="#000000">varchar[64]</text>
<polygon fill="#ffffff" stroke="transparent" points="419.5,-97.7 419.5,-119.7 630.5,-119.7 630.5,-97.7 419.5,-97.7"/>
<polygon fill="none" stroke="#000000" points="419.5,-97.7 419.5,-119.7 630.5,-119.7 630.5,-97.7 419.5,-97.7"/>
<image xlink:href="../../images/foreignKeys.png" width="11px" height="12px" preserveAspectRatio="xMinYMin meet" x="424.5" y="-114.7"/>
<text text-anchor="start" x="439.5" y="-104.8" font-family="Helvetica,sans-Serif" font-size="11.00" fill="#000000">editor_source_extra_value_id_</text>
<polygon fill="none" stroke="#000000" points="630.5,-97.7 630.5,-119.7 714.5,-119.7 714.5,-97.7 630.5,-97.7"/>
<text text-anchor="start" x="633.5" y="-105.4" font-family="Helvetica,sans-Serif" font-size="11.00" fill="#000000">varchar[64]</text>
<polygon fill="none" stroke="#000000" points="419.5,-75.7 419.5,-97.7 630.5,-97.7 630.5,-75.7 419.5,-75.7"/>
<text text-anchor="start" x="439.5" y="-82.8" font-family="Helvetica,sans-Serif" font-size="11.00" fill="#000000">tenant_id_</text>
<polygon fill="none" stroke="#000000" points="630.5,-75.7 630.5,-97.7 714.5,-97.7 714.5,-75.7 630.5,-75.7"/>
<text text-anchor="start" x="633.5" y="-83.4" font-family="Helvetica,sans-Serif" font-size="11.00" fill="#000000">varchar[255]</text>
<polygon fill="#ffffff" stroke="transparent" points="419.5,-56.7 419.5,-75.7 714.5,-75.7 714.5,-56.7 419.5,-56.7"/>
<polygon fill="none" stroke="#000000" points="419.5,-56.7 419.5,-75.7 714.5,-75.7 714.5,-56.7 419.5,-56.7"/>
<polygon fill="#ffffff" stroke="transparent" points="420.5,-57.7 420.5,-74.7 521.5,-74.7 521.5,-57.7 420.5,-57.7"/>
<text text-anchor="start" x="422.5" y="-62.8" font-family="Helvetica,sans-Serif" font-size="11.00" fill="#000000">&lt; 3</text>
<polygon fill="#ffffff" stroke="transparent" points="521.5,-57.7 521.5,-74.7 613.5,-74.7 613.5,-57.7 521.5,-57.7"/>
<text text-anchor="start" x="564.4431" y="-62.8" font-family="Helvetica,sans-Serif" font-size="11.00" fill="#000000"> &#160;</text>
<polygon fill="#ffffff" stroke="transparent" points="613.5,-57.7 613.5,-74.7 713.5,-74.7 713.5,-57.7 613.5,-57.7"/>
<text text-anchor="start" x="695.9053" y="-62.8" font-family="Helvetica,sans-Serif" font-size="11.00" fill="#000000">0 &gt;</text>
<polygon fill="#000000" stroke="#000000" points="521.5,-57.7 521.5,-74.7 521.5,-74.7 521.5,-57.7 521.5,-57.7"/>
<polygon fill="#000000" stroke="#000000" points="613.5,-57.7 613.5,-74.7 613.5,-74.7 613.5,-57.7 613.5,-57.7"/>
<polygon fill="none" stroke="#000000" stroke-width="2" points="418,-55.7 418,-385.7 715,-385.7 715,-55.7 418,-55.7"/>
</a>
</g>
</g>
<!-- act_re_model&#45;&gt;act_ge_bytearray -->
<g id="edge3" class="edge">
<title>act_re_model:w&#45;&gt;act_ge_bytearray:e</title>
<path fill="none" stroke="#000000" d="M404.776,-108.7C392.7815,-108.7 385.3229,-108.7 368.5,-108.7"/>
<polygon fill="#000000" stroke="#000000" points="411.5,-108.7001 419.5,-112.3 415.5,-108.7 419.5,-108.7 419.5,-108.7 419.5,-108.7 415.5,-108.7 419.5,-105.1 411.5,-108.7001 411.5,-108.7001"/>
<ellipse fill="none" stroke="#000000" cx="408.3" cy="-108.7001" rx="3.2" ry="3.2"/>
</g>
<!-- act_re_model&#45;&gt;act_ge_bytearray -->
<g id="edge4" class="edge">
<title>act_re_model:w&#45;&gt;act_ge_bytearray:e</title>
<path fill="none" stroke="#000000" d="M405.3489,-127.641C392.7843,-121.596 387.4,-108.7 368.5,-108.7"/>
<polygon fill="#000000" stroke="#000000" points="411.6806,-129.0097 418.7393,-134.2187 415.5903,-129.8548 419.5,-130.7 419.5,-130.7 419.5,-130.7 415.5903,-129.8548 420.2607,-127.1813 411.6806,-129.0097 411.6806,-129.0097"/>
<ellipse fill="none" stroke="#000000" cx="408.5528" cy="-128.3335" rx="3.2" ry="3.2"/>
</g>
<!-- act_re_model&#45;&gt;act_re_deployment -->
<g id="edge2" class="edge">
<title>act_re_model:w&#45;&gt;act_re_deployment:e</title>
<path fill="none" stroke="#000000" d="M404.6524,-152.9462C325.4087,-155.5985 297.1328,-178.3147 215,-153.7 194.0999,-147.4363 195.8186,-126.7 174,-126.7"/>
<polygon fill="#000000" stroke="#000000" points="411.5011,-152.8327 419.5597,-156.2995 415.5005,-152.7663 419.5,-152.7 419.5,-152.7 419.5,-152.7 415.5005,-152.7663 419.4403,-149.1005 411.5011,-152.8327 411.5011,-152.8327"/>
<ellipse fill="none" stroke="#000000" cx="408.3015" cy="-152.8857" rx="3.2" ry="3.2"/>
</g>
</g>
</svg>
