<?xml version="1.0" encoding="UTF-8" standalone="no"?>
<!DOCTYPE svg PUBLIC "-//W3C//DTD SVG 1.1//EN"
 "http://www.w3.org/Graphics/SVG/1.1/DTD/svg11.dtd">
<!-- Generated by graphviz version 2.40.1 (20161225.0304)
 -->
<!-- Title: oneDegreeRelationshipsDiagram Pages: 1 -->
<svg width="311pt" height="558pt"
 viewBox="0.00 0.00 311.00 558.20" xmlns="http://www.w3.org/2000/svg" xmlns:xlink="http://www.w3.org/1999/xlink">
<g id="graph0" class="graph" transform="scale(1 1) rotate(0) translate(4 554.2)">
<title>oneDegreeRelationshipsDiagram</title>
<polygon fill="#ffffff" stroke="transparent" points="-4,4 -4,-554.2 307,-554.2 307,4 -4,4"/>
<text text-anchor="middle" x="72.4936" y="-7.3" font-family="Helvetica,sans-Serif" font-size="11.00" fill="#000000">Generated by SchemaSpy</text>
<!-- act_hi_procinst -->
<g id="node1" class="node">
<title>act_hi_procinst</title>
<g id="a_node1"><a xlink:href="../../tables/act_hi_procinst.html" xlink:title="act_hi_procinst" target="_top">
<polygon fill="#ffffff" stroke="transparent" points="8,-38.2 8,-546.2 295,-546.2 295,-38.2 8,-38.2"/>
<polygon fill="#f5f5f5" stroke="transparent" points="10.5,-521.2 10.5,-544.2 293.5,-544.2 293.5,-521.2 10.5,-521.2"/>
<polygon fill="none" stroke="#000000" points="10.5,-521.2 10.5,-544.2 293.5,-544.2 293.5,-521.2 10.5,-521.2"/>
<text text-anchor="start" x="15.5" y="-529.8" font-family="Helvetica,sans-Serif" font-weight="bold" font-size="11.00" fill="#000000">act_hi_procinst</text>
<text text-anchor="start" x="258.5437" y="-529.3" font-family="Helvetica,sans-Serif" font-size="11.00" fill="#000000">[table]</text>
<polygon fill="none" stroke="#000000" points="10.5,-499.2 10.5,-521.2 209.5,-521.2 209.5,-499.2 10.5,-499.2"/>
<image xlink:href="../../images/primaryKeys.png" width="11px" height="12px" preserveAspectRatio="xMinYMin meet" x="15.5" y="-516.2"/>
<text text-anchor="start" x="30.5" y="-506.3" font-family="Helvetica,sans-Serif" font-size="11.00" fill="#000000">id_</text>
<polygon fill="none" stroke="#000000" points="209.5,-499.2 209.5,-521.2 293.5,-521.2 293.5,-499.2 209.5,-499.2"/>
<text text-anchor="start" x="212.5" y="-506.9" font-family="Helvetica,sans-Serif" font-size="11.00" fill="#000000">varchar[64]</text>
<polygon fill="none" stroke="#000000" points="10.5,-477.2 10.5,-499.2 209.5,-499.2 209.5,-477.2 10.5,-477.2"/>
<text text-anchor="start" x="30.5" y="-484.3" font-family="Helvetica,sans-Serif" font-size="11.00" fill="#000000">rev_</text>
<polygon fill="none" stroke="#000000" points="209.5,-477.2 209.5,-499.2 293.5,-499.2 293.5,-477.2 209.5,-477.2"/>
<text text-anchor="start" x="212.5" y="-484.9" font-family="Helvetica,sans-Serif" font-size="11.00" fill="#000000">int4[10]</text>
<polygon fill="#ffffff" stroke="transparent" points="10.5,-455.2 10.5,-477.2 209.5,-477.2 209.5,-455.2 10.5,-455.2"/>
<polygon fill="none" stroke="#000000" points="10.5,-455.2 10.5,-477.2 209.5,-477.2 209.5,-455.2 10.5,-455.2"/>
<text text-anchor="start" x="30.5" y="-462.3" font-family="Helvetica,sans-Serif" font-size="11.00" fill="#000000">proc_inst_id_</text>
<polygon fill="none" stroke="#000000" points="209.5,-455.2 209.5,-477.2 293.5,-477.2 293.5,-455.2 209.5,-455.2"/>
<text text-anchor="start" x="212.5" y="-462.9" font-family="Helvetica,sans-Serif" font-size="11.00" fill="#000000">varchar[64]</text>
<polygon fill="#ffffff" stroke="transparent" points="10.5,-433.2 10.5,-455.2 209.5,-455.2 209.5,-433.2 10.5,-433.2"/>
<polygon fill="none" stroke="#000000" points="10.5,-433.2 10.5,-455.2 209.5,-455.2 209.5,-433.2 10.5,-433.2"/>
<text text-anchor="start" x="30.5" y="-440.3" font-family="Helvetica,sans-Serif" font-size="11.00" fill="#000000">business_key_</text>
<polygon fill="none" stroke="#000000" points="209.5,-433.2 209.5,-455.2 293.5,-455.2 293.5,-433.2 209.5,-433.2"/>
<text text-anchor="start" x="212.5" y="-440.9" font-family="Helvetica,sans-Serif" font-size="11.00" fill="#000000">varchar[255]</text>
<polygon fill="none" stroke="#000000" points="10.5,-411.2 10.5,-433.2 209.5,-433.2 209.5,-411.2 10.5,-411.2"/>
<text text-anchor="start" x="30.5" y="-418.3" font-family="Helvetica,sans-Serif" font-size="11.00" fill="#000000">proc_def_id_</text>
<polygon fill="none" stroke="#000000" points="209.5,-411.2 209.5,-433.2 293.5,-433.2 293.5,-411.2 209.5,-411.2"/>
<text text-anchor="start" x="212.5" y="-418.9" font-family="Helvetica,sans-Serif" font-size="11.00" fill="#000000">varchar[64]</text>
<polygon fill="none" stroke="#000000" points="10.5,-389.2 10.5,-411.2 209.5,-411.2 209.5,-389.2 10.5,-389.2"/>
<text text-anchor="start" x="30.5" y="-396.3" font-family="Helvetica,sans-Serif" font-size="11.00" fill="#000000">start_time_</text>
<polygon fill="none" stroke="#000000" points="209.5,-389.2 209.5,-411.2 293.5,-411.2 293.5,-389.2 209.5,-389.2"/>
<text text-anchor="start" x="212.3807" y="-396.9" font-family="Helvetica,sans-Serif" font-size="11.00" fill="#000000">timestamp[29,6]</text>
<polygon fill="#ffffff" stroke="transparent" points="10.5,-367.2 10.5,-389.2 209.5,-389.2 209.5,-367.2 10.5,-367.2"/>
<polygon fill="none" stroke="#000000" points="10.5,-367.2 10.5,-389.2 209.5,-389.2 209.5,-367.2 10.5,-367.2"/>
<text text-anchor="start" x="30.5" y="-374.3" font-family="Helvetica,sans-Serif" font-size="11.00" fill="#000000">end_time_</text>
<polygon fill="none" stroke="#000000" points="209.5,-367.2 209.5,-389.2 293.5,-389.2 293.5,-367.2 209.5,-367.2"/>
<text text-anchor="start" x="212.3807" y="-374.9" font-family="Helvetica,sans-Serif" font-size="11.00" fill="#000000">timestamp[29,6]</text>
<polygon fill="none" stroke="#000000" points="10.5,-345.2 10.5,-367.2 209.5,-367.2 209.5,-345.2 10.5,-345.2"/>
<text text-anchor="start" x="30.5" y="-352.3" font-family="Helvetica,sans-Serif" font-size="11.00" fill="#000000">duration_</text>
<polygon fill="none" stroke="#000000" points="209.5,-345.2 209.5,-367.2 293.5,-367.2 293.5,-345.2 209.5,-345.2"/>
<text text-anchor="start" x="212.5" y="-352.9" font-family="Helvetica,sans-Serif" font-size="11.00" fill="#000000">int8[19]</text>
<polygon fill="none" stroke="#000000" points="10.5,-323.2 10.5,-345.2 209.5,-345.2 209.5,-323.2 10.5,-323.2"/>
<text text-anchor="start" x="30.5" y="-330.3" font-family="Helvetica,sans-Serif" font-size="11.00" fill="#000000">start_user_id_</text>
<polygon fill="none" stroke="#000000" points="209.5,-323.2 209.5,-345.2 293.5,-345.2 293.5,-323.2 209.5,-323.2"/>
<text text-anchor="start" x="212.5" y="-330.9" font-family="Helvetica,sans-Serif" font-size="11.00" fill="#000000">varchar[255]</text>
<polygon fill="none" stroke="#000000" points="10.5,-301.2 10.5,-323.2 209.5,-323.2 209.5,-301.2 10.5,-301.2"/>
<text text-anchor="start" x="30.5" y="-308.3" font-family="Helvetica,sans-Serif" font-size="11.00" fill="#000000">start_act_id_</text>
<polygon fill="none" stroke="#000000" points="209.5,-301.2 209.5,-323.2 293.5,-323.2 293.5,-301.2 209.5,-301.2"/>
<text text-anchor="start" x="212.5" y="-308.9" font-family="Helvetica,sans-Serif" font-size="11.00" fill="#000000">varchar[255]</text>
<polygon fill="none" stroke="#000000" points="10.5,-279.2 10.5,-301.2 209.5,-301.2 209.5,-279.2 10.5,-279.2"/>
<text text-anchor="start" x="30.5" y="-286.3" font-family="Helvetica,sans-Serif" font-size="11.00" fill="#000000">end_act_id_</text>
<polygon fill="none" stroke="#000000" points="209.5,-279.2 209.5,-301.2 293.5,-301.2 293.5,-279.2 209.5,-279.2"/>
<text text-anchor="start" x="212.5" y="-286.9" font-family="Helvetica,sans-Serif" font-size="11.00" fill="#000000">varchar[255]</text>
<polygon fill="#ffffff" stroke="transparent" points="10.5,-257.2 10.5,-279.2 209.5,-279.2 209.5,-257.2 10.5,-257.2"/>
<polygon fill="none" stroke="#000000" points="10.5,-257.2 10.5,-279.2 209.5,-279.2 209.5,-257.2 10.5,-257.2"/>
<text text-anchor="start" x="30.5" y="-264.3" font-family="Helvetica,sans-Serif" font-size="11.00" fill="#000000">super_process_instance_id_</text>
<polygon fill="none" stroke="#000000" points="209.5,-257.2 209.5,-279.2 293.5,-279.2 293.5,-257.2 209.5,-257.2"/>
<text text-anchor="start" x="212.5" y="-264.9" font-family="Helvetica,sans-Serif" font-size="11.00" fill="#000000">varchar[64]</text>
<polygon fill="none" stroke="#000000" points="10.5,-235.2 10.5,-257.2 209.5,-257.2 209.5,-235.2 10.5,-235.2"/>
<text text-anchor="start" x="30.5" y="-242.3" font-family="Helvetica,sans-Serif" font-size="11.00" fill="#000000">delete_reason_</text>
<polygon fill="none" stroke="#000000" points="209.5,-235.2 209.5,-257.2 293.5,-257.2 293.5,-235.2 209.5,-235.2"/>
<text text-anchor="start" x="212.5" y="-242.9" font-family="Helvetica,sans-Serif" font-size="11.00" fill="#000000">varchar[4000]</text>
<polygon fill="none" stroke="#000000" points="10.5,-213.2 10.5,-235.2 209.5,-235.2 209.5,-213.2 10.5,-213.2"/>
<text text-anchor="start" x="30.5" y="-220.3" font-family="Helvetica,sans-Serif" font-size="11.00" fill="#000000">tenant_id_</text>
<polygon fill="none" stroke="#000000" points="209.5,-213.2 209.5,-235.2 293.5,-235.2 293.5,-213.2 209.5,-213.2"/>
<text text-anchor="start" x="212.5" y="-220.9" font-family="Helvetica,sans-Serif" font-size="11.00" fill="#000000">varchar[255]</text>
<polygon fill="none" stroke="#000000" points="10.5,-191.2 10.5,-213.2 209.5,-213.2 209.5,-191.2 10.5,-191.2"/>
<text text-anchor="start" x="30.5" y="-198.3" font-family="Helvetica,sans-Serif" font-size="11.00" fill="#000000">name_</text>
<polygon fill="none" stroke="#000000" points="209.5,-191.2 209.5,-213.2 293.5,-213.2 293.5,-191.2 209.5,-191.2"/>
<text text-anchor="start" x="212.5" y="-198.9" font-family="Helvetica,sans-Serif" font-size="11.00" fill="#000000">varchar[255]</text>
<polygon fill="none" stroke="#000000" points="10.5,-169.2 10.5,-191.2 209.5,-191.2 209.5,-169.2 10.5,-169.2"/>
<text text-anchor="start" x="30.5" y="-176.3" font-family="Helvetica,sans-Serif" font-size="11.00" fill="#000000">callback_id_</text>
<polygon fill="none" stroke="#000000" points="209.5,-169.2 209.5,-191.2 293.5,-191.2 293.5,-169.2 209.5,-169.2"/>
<text text-anchor="start" x="212.5" y="-176.9" font-family="Helvetica,sans-Serif" font-size="11.00" fill="#000000">varchar[255]</text>
<polygon fill="none" stroke="#000000" points="10.5,-147.2 10.5,-169.2 209.5,-169.2 209.5,-147.2 10.5,-147.2"/>
<text text-anchor="start" x="30.5" y="-154.3" font-family="Helvetica,sans-Serif" font-size="11.00" fill="#000000">callback_type_</text>
<polygon fill="none" stroke="#000000" points="209.5,-147.2 209.5,-169.2 293.5,-169.2 293.5,-147.2 209.5,-147.2"/>
<text text-anchor="start" x="212.5" y="-154.9" font-family="Helvetica,sans-Serif" font-size="11.00" fill="#000000">varchar[255]</text>
<polygon fill="none" stroke="#000000" points="10.5,-125.2 10.5,-147.2 209.5,-147.2 209.5,-125.2 10.5,-125.2"/>
<text text-anchor="start" x="30.5" y="-132.3" font-family="Helvetica,sans-Serif" font-size="11.00" fill="#000000">reference_id_</text>
<polygon fill="none" stroke="#000000" points="209.5,-125.2 209.5,-147.2 293.5,-147.2 293.5,-125.2 209.5,-125.2"/>
<text text-anchor="start" x="212.5" y="-132.9" font-family="Helvetica,sans-Serif" font-size="11.00" fill="#000000">varchar[255]</text>
<polygon fill="none" stroke="#000000" points="10.5,-103.2 10.5,-125.2 209.5,-125.2 209.5,-103.2 10.5,-103.2"/>
<text text-anchor="start" x="30.5" y="-110.3" font-family="Helvetica,sans-Serif" font-size="11.00" fill="#000000">reference_type_</text>
<polygon fill="none" stroke="#000000" points="209.5,-103.2 209.5,-125.2 293.5,-125.2 293.5,-103.2 209.5,-103.2"/>
<text text-anchor="start" x="212.5" y="-110.9" font-family="Helvetica,sans-Serif" font-size="11.00" fill="#000000">varchar[255]</text>
<polygon fill="none" stroke="#000000" points="10.5,-81.2 10.5,-103.2 209.5,-103.2 209.5,-81.2 10.5,-81.2"/>
<text text-anchor="start" x="30.5" y="-88.3" font-family="Helvetica,sans-Serif" font-size="11.00" fill="#000000">propagated_stage_inst_id_</text>
<polygon fill="none" stroke="#000000" points="209.5,-81.2 209.5,-103.2 293.5,-103.2 293.5,-81.2 209.5,-81.2"/>
<text text-anchor="start" x="212.5" y="-88.9" font-family="Helvetica,sans-Serif" font-size="11.00" fill="#000000">varchar[255]</text>
<polygon fill="none" stroke="#000000" points="10.5,-59.2 10.5,-81.2 209.5,-81.2 209.5,-59.2 10.5,-59.2"/>
<text text-anchor="start" x="30.5" y="-66.3" font-family="Helvetica,sans-Serif" font-size="11.00" fill="#000000">business_status_</text>
<polygon fill="none" stroke="#000000" points="209.5,-59.2 209.5,-81.2 293.5,-81.2 293.5,-59.2 209.5,-59.2"/>
<text text-anchor="start" x="212.5" y="-66.9" font-family="Helvetica,sans-Serif" font-size="11.00" fill="#000000">varchar[255]</text>
<polygon fill="#ffffff" stroke="transparent" points="10.5,-40.2 10.5,-59.2 293.5,-59.2 293.5,-40.2 10.5,-40.2"/>
<polygon fill="none" stroke="#000000" points="10.5,-40.2 10.5,-59.2 293.5,-59.2 293.5,-40.2 10.5,-40.2"/>
<polygon fill="#ffffff" stroke="transparent" points="11.5,-41.2 11.5,-58.2 108.5,-58.2 108.5,-41.2 11.5,-41.2"/>
<text text-anchor="start" x="13.5" y="-46.3" font-family="Helvetica,sans-Serif" font-size="11.00" fill="#000000">&lt; 0</text>
<polygon fill="#ffffff" stroke="transparent" points="108.5,-41.2 108.5,-58.2 196.5,-58.2 196.5,-41.2 108.5,-41.2"/>
<text text-anchor="start" x="149.4431" y="-46.3" font-family="Helvetica,sans-Serif" font-size="11.00" fill="#000000"> &#160;</text>
<polygon fill="#ffffff" stroke="transparent" points="196.5,-41.2 196.5,-58.2 292.5,-58.2 292.5,-41.2 196.5,-41.2"/>
<text text-anchor="start" x="274.9053" y="-46.3" font-family="Helvetica,sans-Serif" font-size="11.00" fill="#000000">0 &gt;</text>
<polygon fill="#000000" stroke="#000000" points="108.5,-41.2 108.5,-58.2 108.5,-58.2 108.5,-41.2 108.5,-41.2"/>
<polygon fill="#000000" stroke="#000000" points="196.5,-41.2 196.5,-58.2 196.5,-58.2 196.5,-41.2 196.5,-41.2"/>
<polygon fill="none" stroke="#000000" stroke-width="2" points="9,-39.2 9,-545.2 294,-545.2 294,-39.2 9,-39.2"/>
</a>
</g>
</g>
</g>
</svg>
