<?xml version="1.0" encoding="UTF-8" standalone="no"?>
<!DOCTYPE svg PUBLIC "-//W3C//DTD SVG 1.1//EN"
 "http://www.w3.org/Graphics/SVG/1.1/DTD/svg11.dtd">
<!-- Generated by graphviz version 2.40.1 (20161225.0304)
 -->
<!-- Title: twoDegreesRelationshipsDiagram Pages: 1 -->
<svg width="723pt" height="957pt"
 viewBox="0.00 0.00 723.00 956.70" xmlns="http://www.w3.org/2000/svg" xmlns:xlink="http://www.w3.org/1999/xlink">
<g id="graph0" class="graph" transform="scale(1 1) rotate(0) translate(4 952.7)">
<title>twoDegreesRelationshipsDiagram</title>
<polygon fill="#ffffff" stroke="transparent" points="-4,4 -4,-952.7 719,-952.7 719,4 -4,4"/>
<text text-anchor="middle" x="72.4936" y="-7.3" font-family="Helvetica,sans-Serif" font-size="11.00" fill="#000000">Generated by SchemaSpy</text>
<!-- act_ge_bytearray -->
<g id="node1" class="node">
<title>act_ge_bytearray</title>
<g id="a_node1"><a xlink:href="../../tables/act_ge_bytearray.html" xlink:title="act_ge_bytearray" target="_top">
<polygon fill="#ffffff" stroke="transparent" points="214,-363.2 214,-424.2 359,-424.2 359,-363.2 214,-363.2"/>
<polygon fill="#f5f5f5" stroke="transparent" points="214.5,-400.7 214.5,-423.7 359.5,-423.7 359.5,-400.7 214.5,-400.7"/>
<polygon fill="none" stroke="#000000" points="214.5,-400.7 214.5,-423.7 359.5,-423.7 359.5,-400.7 214.5,-400.7"/>
<text text-anchor="start" x="219.5" y="-409.3" font-family="Helvetica,sans-Serif" font-weight="bold" font-size="11.00" fill="#000000">act_ge_bytearray</text>
<text text-anchor="start" x="325.0219" y="-408.8" font-family="Helvetica,sans-Serif" font-size="11.00" fill="#000000">[table]</text>
<polygon fill="none" stroke="#000000" points="214.5,-381.7 214.5,-400.7 359.5,-400.7 359.5,-381.7 214.5,-381.7"/>
<text text-anchor="start" x="217.5" y="-387.8" font-family="Helvetica,sans-Serif" font-size="11.00" fill="#000000">...</text>
<polygon fill="#ffffff" stroke="transparent" points="214.5,-362.7 214.5,-381.7 359.5,-381.7 359.5,-362.7 214.5,-362.7"/>
<polygon fill="none" stroke="#000000" points="214.5,-362.7 214.5,-381.7 359.5,-381.7 359.5,-362.7 214.5,-362.7"/>
<polygon fill="#ffffff" stroke="transparent" points="215.5,-363.7 215.5,-380.7 264.5,-380.7 264.5,-363.7 215.5,-363.7"/>
<text text-anchor="start" x="217.5" y="-368.8" font-family="Helvetica,sans-Serif" font-size="11.00" fill="#000000">&lt; 1</text>
<polygon fill="#ffffff" stroke="transparent" points="264.5,-363.7 264.5,-380.7 304.5,-380.7 304.5,-363.7 264.5,-363.7"/>
<text text-anchor="start" x="281.4431" y="-368.8" font-family="Helvetica,sans-Serif" font-size="11.00" fill="#000000"> &#160;</text>
<polygon fill="#ffffff" stroke="transparent" points="304.5,-363.7 304.5,-380.7 358.5,-380.7 358.5,-363.7 304.5,-363.7"/>
<text text-anchor="start" x="334.7904" y="-368.8" font-family="Helvetica,sans-Serif" font-size="11.00" fill="#000000">14 &gt;</text>
<polygon fill="#000000" stroke="#000000" points="264.5,-363.7 264.5,-380.7 264.5,-380.7 264.5,-363.7 264.5,-363.7"/>
<polygon fill="#000000" stroke="#000000" points="304.5,-363.7 304.5,-380.7 304.5,-380.7 304.5,-363.7 304.5,-363.7"/>
</a>
</g>
</g>
<!-- act_re_deployment -->
<g id="node2" class="node">
<title>act_re_deployment</title>
<g id="a_node2"><a xlink:href="../../tables/act_re_deployment.html" xlink:title="act_re_deployment" target="_top">
<polygon fill="#ffffff" stroke="transparent" points="8,-390.2 8,-451.2 165,-451.2 165,-390.2 8,-390.2"/>
<polygon fill="#f5f5f5" stroke="transparent" points="8.5,-427.7 8.5,-450.7 165.5,-450.7 165.5,-427.7 8.5,-427.7"/>
<polygon fill="none" stroke="#000000" points="8.5,-427.7 8.5,-450.7 165.5,-450.7 165.5,-427.7 8.5,-427.7"/>
<text text-anchor="start" x="13.5" y="-436.3" font-family="Helvetica,sans-Serif" font-weight="bold" font-size="11.00" fill="#000000">act_re_deployment</text>
<text text-anchor="start" x="131.0219" y="-435.8" font-family="Helvetica,sans-Serif" font-size="11.00" fill="#000000">[table]</text>
<polygon fill="none" stroke="#000000" points="8.5,-408.7 8.5,-427.7 165.5,-427.7 165.5,-408.7 8.5,-408.7"/>
<text text-anchor="start" x="11.5" y="-414.8" font-family="Helvetica,sans-Serif" font-size="11.00" fill="#000000">...</text>
<polygon fill="#ffffff" stroke="transparent" points="8.5,-389.7 8.5,-408.7 165.5,-408.7 165.5,-389.7 8.5,-389.7"/>
<polygon fill="none" stroke="#000000" points="8.5,-389.7 8.5,-408.7 165.5,-408.7 165.5,-389.7 8.5,-389.7"/>
<polygon fill="#ffffff" stroke="transparent" points="9.5,-390.7 9.5,-407.7 58.5,-407.7 58.5,-390.7 9.5,-390.7"/>
<text text-anchor="start" x="11.5" y="-395.8" font-family="Helvetica,sans-Serif" font-size="11.00" fill="#000000"> &#160;</text>
<polygon fill="#ffffff" stroke="transparent" points="58.5,-390.7 58.5,-407.7 107.5,-407.7 107.5,-390.7 58.5,-390.7"/>
<text text-anchor="start" x="79.9431" y="-395.8" font-family="Helvetica,sans-Serif" font-size="11.00" fill="#000000"> &#160;</text>
<polygon fill="#ffffff" stroke="transparent" points="107.5,-390.7 107.5,-407.7 164.5,-407.7 164.5,-390.7 107.5,-390.7"/>
<text text-anchor="start" x="146.9053" y="-395.8" font-family="Helvetica,sans-Serif" font-size="11.00" fill="#000000">2 &gt;</text>
<polygon fill="#000000" stroke="#000000" points="58.5,-390.7 58.5,-407.7 58.5,-407.7 58.5,-390.7 58.5,-390.7"/>
<polygon fill="#000000" stroke="#000000" points="107.5,-390.7 107.5,-407.7 107.5,-407.7 107.5,-390.7 107.5,-390.7"/>
</a>
</g>
</g>
<!-- act_ge_bytearray&#45;&gt;act_re_deployment -->
<g id="edge1" class="edge">
<title>act_ge_bytearray:w&#45;&gt;act_re_deployment:e</title>
<path fill="none" stroke="#000000" d="M191.2536,-406.5583C185.2057,-407.3747 179.1346,-408.1943 173.1289,-409.0051"/>
<polygon fill="#000000" stroke="#000000" points="197.8008,-405.6744 206.2105,-408.1717 201.7648,-405.1393 205.7288,-404.6041 205.7288,-404.6041 205.7288,-404.6041 201.7648,-405.1393 205.2472,-401.0365 197.8008,-405.6744 197.8008,-405.6744"/>
<ellipse fill="none" stroke="#000000" cx="194.6295" cy="-406.1026" rx="3.2" ry="3.2"/>
</g>
<!-- act_procdef_info -->
<g id="node3" class="node">
<title>act_procdef_info</title>
<g id="a_node3"><a xlink:href="../../tables/act_procdef_info.html" xlink:title="act_procdef_info" target="_top">
<polygon fill="#ffffff" stroke="transparent" points="486,-530.2 486,-591.2 629,-591.2 629,-530.2 486,-530.2"/>
<polygon fill="#f5f5f5" stroke="transparent" points="486.5,-567.7 486.5,-590.7 629.5,-590.7 629.5,-567.7 486.5,-567.7"/>
<polygon fill="none" stroke="#000000" points="486.5,-567.7 486.5,-590.7 629.5,-590.7 629.5,-567.7 486.5,-567.7"/>
<text text-anchor="start" x="491.5" y="-576.3" font-family="Helvetica,sans-Serif" font-weight="bold" font-size="11.00" fill="#000000">act_procdef_info</text>
<text text-anchor="start" x="595.0219" y="-575.8" font-family="Helvetica,sans-Serif" font-size="11.00" fill="#000000">[table]</text>
<polygon fill="none" stroke="#000000" points="486.5,-548.7 486.5,-567.7 629.5,-567.7 629.5,-548.7 486.5,-548.7"/>
<text text-anchor="start" x="489.5" y="-554.8" font-family="Helvetica,sans-Serif" font-size="11.00" fill="#000000">...</text>
<polygon fill="#ffffff" stroke="transparent" points="486.5,-529.7 486.5,-548.7 629.5,-548.7 629.5,-529.7 486.5,-529.7"/>
<polygon fill="none" stroke="#000000" points="486.5,-529.7 486.5,-548.7 629.5,-548.7 629.5,-529.7 486.5,-529.7"/>
<polygon fill="#ffffff" stroke="transparent" points="487.5,-530.7 487.5,-547.7 540.5,-547.7 540.5,-530.7 487.5,-530.7"/>
<text text-anchor="start" x="489.5" y="-535.8" font-family="Helvetica,sans-Serif" font-size="11.00" fill="#000000">&lt; 2</text>
<polygon fill="#ffffff" stroke="transparent" points="540.5,-530.7 540.5,-547.7 584.5,-547.7 584.5,-530.7 540.5,-530.7"/>
<text text-anchor="start" x="559.4431" y="-535.8" font-family="Helvetica,sans-Serif" font-size="11.00" fill="#000000"> &#160;</text>
<polygon fill="#ffffff" stroke="transparent" points="584.5,-530.7 584.5,-547.7 628.5,-547.7 628.5,-530.7 584.5,-530.7"/>
<text text-anchor="start" x="620.3862" y="-535.8" font-family="Helvetica,sans-Serif" font-size="11.00" fill="#000000"> &#160;</text>
<polygon fill="#000000" stroke="#000000" points="540.5,-530.7 540.5,-547.7 540.5,-547.7 540.5,-530.7 540.5,-530.7"/>
<polygon fill="#000000" stroke="#000000" points="584.5,-530.7 584.5,-547.7 584.5,-547.7 584.5,-530.7 584.5,-530.7"/>
</a>
</g>
</g>
<!-- act_procdef_info&#45;&gt;act_ge_bytearray -->
<g id="edge2" class="edge">
<title>act_procdef_info:w&#45;&gt;act_ge_bytearray:e</title>
<path fill="none" stroke="#000000" d="M471.9856,-556.8336C397.8014,-548.0026 337.6899,-473.7061 307.5442,-428.4802"/>
<polygon fill="#000000" stroke="#000000" points="478.5142,-557.2233 486.2855,-561.2936 482.5071,-557.4616 486.5,-557.7 486.5,-557.7 486.5,-557.7 482.5071,-557.4616 486.7145,-554.1064 478.5142,-557.2233 478.5142,-557.2233"/>
<ellipse fill="none" stroke="#000000" cx="475.3199" cy="-557.0326" rx="3.2" ry="3.2"/>
</g>
<!-- act_re_model -->
<g id="node4" class="node">
<title>act_re_model</title>
<g id="a_node4"><a xlink:href="../../tables/act_re_model.html" xlink:title="act_re_model" target="_top">
<polygon fill="#ffffff" stroke="transparent" points="408,-612.7 408,-944.7 707,-944.7 707,-612.7 408,-612.7"/>
<polygon fill="#f5f5f5" stroke="transparent" points="410.5,-919.7 410.5,-942.7 705.5,-942.7 705.5,-919.7 410.5,-919.7"/>
<polygon fill="none" stroke="#000000" points="410.5,-919.7 410.5,-942.7 705.5,-942.7 705.5,-919.7 410.5,-919.7"/>
<text text-anchor="start" x="415.5" y="-928.3" font-family="Helvetica,sans-Serif" font-weight="bold" font-size="11.00" fill="#000000">act_re_model</text>
<text text-anchor="start" x="670.5437" y="-927.8" font-family="Helvetica,sans-Serif" font-size="11.00" fill="#000000">[table]</text>
<polygon fill="none" stroke="#000000" points="410.5,-897.7 410.5,-919.7 621.5,-919.7 621.5,-897.7 410.5,-897.7"/>
<image xlink:href="../../images/primaryKeys.png" width="11px" height="12px" preserveAspectRatio="xMinYMin meet" x="415.5" y="-914.7"/>
<text text-anchor="start" x="430.5" y="-904.8" font-family="Helvetica,sans-Serif" font-size="11.00" fill="#000000">id_</text>
<polygon fill="none" stroke="#000000" points="621.5,-897.7 621.5,-919.7 705.5,-919.7 705.5,-897.7 621.5,-897.7"/>
<text text-anchor="start" x="624.5" y="-905.4" font-family="Helvetica,sans-Serif" font-size="11.00" fill="#000000">varchar[64]</text>
<polygon fill="none" stroke="#000000" points="410.5,-875.7 410.5,-897.7 621.5,-897.7 621.5,-875.7 410.5,-875.7"/>
<text text-anchor="start" x="430.5" y="-882.8" font-family="Helvetica,sans-Serif" font-size="11.00" fill="#000000">rev_</text>
<polygon fill="none" stroke="#000000" points="621.5,-875.7 621.5,-897.7 705.5,-897.7 705.5,-875.7 621.5,-875.7"/>
<text text-anchor="start" x="624.5" y="-883.4" font-family="Helvetica,sans-Serif" font-size="11.00" fill="#000000">int4[10]</text>
<polygon fill="none" stroke="#000000" points="410.5,-853.7 410.5,-875.7 621.5,-875.7 621.5,-853.7 410.5,-853.7"/>
<text text-anchor="start" x="430.5" y="-860.8" font-family="Helvetica,sans-Serif" font-size="11.00" fill="#000000">name_</text>
<polygon fill="none" stroke="#000000" points="621.5,-853.7 621.5,-875.7 705.5,-875.7 705.5,-853.7 621.5,-853.7"/>
<text text-anchor="start" x="624.5" y="-861.4" font-family="Helvetica,sans-Serif" font-size="11.00" fill="#000000">varchar[255]</text>
<polygon fill="none" stroke="#000000" points="410.5,-831.7 410.5,-853.7 621.5,-853.7 621.5,-831.7 410.5,-831.7"/>
<text text-anchor="start" x="430.5" y="-838.8" font-family="Helvetica,sans-Serif" font-size="11.00" fill="#000000">key_</text>
<polygon fill="none" stroke="#000000" points="621.5,-831.7 621.5,-853.7 705.5,-853.7 705.5,-831.7 621.5,-831.7"/>
<text text-anchor="start" x="624.5" y="-839.4" font-family="Helvetica,sans-Serif" font-size="11.00" fill="#000000">varchar[255]</text>
<polygon fill="none" stroke="#000000" points="410.5,-809.7 410.5,-831.7 621.5,-831.7 621.5,-809.7 410.5,-809.7"/>
<text text-anchor="start" x="430.5" y="-816.8" font-family="Helvetica,sans-Serif" font-size="11.00" fill="#000000">category_</text>
<polygon fill="none" stroke="#000000" points="621.5,-809.7 621.5,-831.7 705.5,-831.7 705.5,-809.7 621.5,-809.7"/>
<text text-anchor="start" x="624.5" y="-817.4" font-family="Helvetica,sans-Serif" font-size="11.00" fill="#000000">varchar[255]</text>
<polygon fill="none" stroke="#000000" points="410.5,-787.7 410.5,-809.7 621.5,-809.7 621.5,-787.7 410.5,-787.7"/>
<text text-anchor="start" x="430.5" y="-794.8" font-family="Helvetica,sans-Serif" font-size="11.00" fill="#000000">create_time_</text>
<polygon fill="none" stroke="#000000" points="621.5,-787.7 621.5,-809.7 705.5,-809.7 705.5,-787.7 621.5,-787.7"/>
<text text-anchor="start" x="624.3807" y="-795.4" font-family="Helvetica,sans-Serif" font-size="11.00" fill="#000000">timestamp[29,6]</text>
<polygon fill="none" stroke="#000000" points="410.5,-765.7 410.5,-787.7 621.5,-787.7 621.5,-765.7 410.5,-765.7"/>
<text text-anchor="start" x="430.5" y="-772.8" font-family="Helvetica,sans-Serif" font-size="11.00" fill="#000000">last_update_time_</text>
<polygon fill="none" stroke="#000000" points="621.5,-765.7 621.5,-787.7 705.5,-787.7 705.5,-765.7 621.5,-765.7"/>
<text text-anchor="start" x="624.3807" y="-773.4" font-family="Helvetica,sans-Serif" font-size="11.00" fill="#000000">timestamp[29,6]</text>
<polygon fill="none" stroke="#000000" points="410.5,-743.7 410.5,-765.7 621.5,-765.7 621.5,-743.7 410.5,-743.7"/>
<text text-anchor="start" x="430.5" y="-750.8" font-family="Helvetica,sans-Serif" font-size="11.00" fill="#000000">version_</text>
<polygon fill="none" stroke="#000000" points="621.5,-743.7 621.5,-765.7 705.5,-765.7 705.5,-743.7 621.5,-743.7"/>
<text text-anchor="start" x="624.5" y="-751.4" font-family="Helvetica,sans-Serif" font-size="11.00" fill="#000000">int4[10]</text>
<polygon fill="none" stroke="#000000" points="410.5,-721.7 410.5,-743.7 621.5,-743.7 621.5,-721.7 410.5,-721.7"/>
<text text-anchor="start" x="430.5" y="-728.8" font-family="Helvetica,sans-Serif" font-size="11.00" fill="#000000">meta_info_</text>
<polygon fill="none" stroke="#000000" points="621.5,-721.7 621.5,-743.7 705.5,-743.7 705.5,-721.7 621.5,-721.7"/>
<text text-anchor="start" x="624.5" y="-729.4" font-family="Helvetica,sans-Serif" font-size="11.00" fill="#000000">varchar[4000]</text>
<polygon fill="#ffffff" stroke="transparent" points="410.5,-699.7 410.5,-721.7 621.5,-721.7 621.5,-699.7 410.5,-699.7"/>
<polygon fill="none" stroke="#000000" points="410.5,-699.7 410.5,-721.7 621.5,-721.7 621.5,-699.7 410.5,-699.7"/>
<image xlink:href="../../images/foreignKeys.png" width="11px" height="12px" preserveAspectRatio="xMinYMin meet" x="415.5" y="-716.7"/>
<text text-anchor="start" x="430.5" y="-706.8" font-family="Helvetica,sans-Serif" font-size="11.00" fill="#000000">deployment_id_</text>
<polygon fill="none" stroke="#000000" points="621.5,-699.7 621.5,-721.7 705.5,-721.7 705.5,-699.7 621.5,-699.7"/>
<text text-anchor="start" x="624.5" y="-707.4" font-family="Helvetica,sans-Serif" font-size="11.00" fill="#000000">varchar[64]</text>
<polygon fill="#ffffff" stroke="transparent" points="410.5,-677.7 410.5,-699.7 621.5,-699.7 621.5,-677.7 410.5,-677.7"/>
<polygon fill="none" stroke="#000000" points="410.5,-677.7 410.5,-699.7 621.5,-699.7 621.5,-677.7 410.5,-677.7"/>
<image xlink:href="../../images/foreignKeys.png" width="11px" height="12px" preserveAspectRatio="xMinYMin meet" x="415.5" y="-694.7"/>
<text text-anchor="start" x="430.5" y="-684.8" font-family="Helvetica,sans-Serif" font-size="11.00" fill="#000000">editor_source_value_id_</text>
<polygon fill="none" stroke="#000000" points="621.5,-677.7 621.5,-699.7 705.5,-699.7 705.5,-677.7 621.5,-677.7"/>
<text text-anchor="start" x="624.5" y="-685.4" font-family="Helvetica,sans-Serif" font-size="11.00" fill="#000000">varchar[64]</text>
<polygon fill="#ffffff" stroke="transparent" points="410.5,-655.7 410.5,-677.7 621.5,-677.7 621.5,-655.7 410.5,-655.7"/>
<polygon fill="none" stroke="#000000" points="410.5,-655.7 410.5,-677.7 621.5,-677.7 621.5,-655.7 410.5,-655.7"/>
<image xlink:href="../../images/foreignKeys.png" width="11px" height="12px" preserveAspectRatio="xMinYMin meet" x="415.5" y="-672.7"/>
<text text-anchor="start" x="430.5" y="-662.8" font-family="Helvetica,sans-Serif" font-size="11.00" fill="#000000">editor_source_extra_value_id_</text>
<polygon fill="none" stroke="#000000" points="621.5,-655.7 621.5,-677.7 705.5,-677.7 705.5,-655.7 621.5,-655.7"/>
<text text-anchor="start" x="624.5" y="-663.4" font-family="Helvetica,sans-Serif" font-size="11.00" fill="#000000">varchar[64]</text>
<polygon fill="none" stroke="#000000" points="410.5,-633.7 410.5,-655.7 621.5,-655.7 621.5,-633.7 410.5,-633.7"/>
<text text-anchor="start" x="430.5" y="-640.8" font-family="Helvetica,sans-Serif" font-size="11.00" fill="#000000">tenant_id_</text>
<polygon fill="none" stroke="#000000" points="621.5,-633.7 621.5,-655.7 705.5,-655.7 705.5,-633.7 621.5,-633.7"/>
<text text-anchor="start" x="624.5" y="-641.4" font-family="Helvetica,sans-Serif" font-size="11.00" fill="#000000">varchar[255]</text>
<polygon fill="#ffffff" stroke="transparent" points="410.5,-614.7 410.5,-633.7 705.5,-633.7 705.5,-614.7 410.5,-614.7"/>
<polygon fill="none" stroke="#000000" points="410.5,-614.7 410.5,-633.7 705.5,-633.7 705.5,-614.7 410.5,-614.7"/>
<polygon fill="#ffffff" stroke="transparent" points="411.5,-615.7 411.5,-632.7 512.5,-632.7 512.5,-615.7 411.5,-615.7"/>
<text text-anchor="start" x="413.5" y="-620.8" font-family="Helvetica,sans-Serif" font-size="11.00" fill="#000000">&lt; 3</text>
<polygon fill="#ffffff" stroke="transparent" points="512.5,-615.7 512.5,-632.7 604.5,-632.7 604.5,-615.7 512.5,-615.7"/>
<text text-anchor="start" x="555.4431" y="-620.8" font-family="Helvetica,sans-Serif" font-size="11.00" fill="#000000"> &#160;</text>
<polygon fill="#ffffff" stroke="transparent" points="604.5,-615.7 604.5,-632.7 704.5,-632.7 704.5,-615.7 604.5,-615.7"/>
<text text-anchor="start" x="686.9053" y="-620.8" font-family="Helvetica,sans-Serif" font-size="11.00" fill="#000000">0 &gt;</text>
<polygon fill="#000000" stroke="#000000" points="512.5,-615.7 512.5,-632.7 512.5,-632.7 512.5,-615.7 512.5,-615.7"/>
<polygon fill="#000000" stroke="#000000" points="604.5,-615.7 604.5,-632.7 604.5,-632.7 604.5,-615.7 604.5,-615.7"/>
<polygon fill="none" stroke="#000000" stroke-width="2" points="409,-613.7 409,-943.7 706,-943.7 706,-613.7 409,-613.7"/>
</a>
</g>
</g>
<!-- act_re_model&#45;&gt;act_ge_bytearray -->
<g id="edge4" class="edge">
<title>act_re_model:w&#45;&gt;act_ge_bytearray:e</title>
<path fill="none" stroke="#000000" d="M396.2356,-664.4414C368.2543,-653.7915 384.1325,-607.5274 367,-569.7 344.7509,-520.5755 318.7579,-463.8682 302.461,-428.3955"/>
<polygon fill="#000000" stroke="#000000" points="402.5984,-665.4488 409.937,-670.2557 406.5492,-666.0744 410.5,-666.7 410.5,-666.7 410.5,-666.7 406.5492,-666.0744 411.063,-663.1443 402.5984,-665.4488 402.5984,-665.4488"/>
<ellipse fill="none" stroke="#000000" cx="399.4378" cy="-664.9484" rx="3.2" ry="3.2"/>
</g>
<!-- act_re_model&#45;&gt;act_ge_bytearray -->
<g id="edge5" class="edge">
<title>act_re_model:w&#45;&gt;act_ge_bytearray:e</title>
<path fill="none" stroke="#000000" d="M395.9905,-686.7151C360.5629,-675.2616 386.2215,-616.499 367,-569.7 346.5751,-519.9711 320.236,-463.6533 303.3539,-428.4081"/>
<polygon fill="#000000" stroke="#000000" points="402.5738,-687.6156 410.012,-692.2668 406.5369,-688.1578 410.5,-688.7 410.5,-688.7 410.5,-688.7 406.5369,-688.1578 410.988,-685.1332 402.5738,-687.6156 402.5738,-687.6156"/>
<ellipse fill="none" stroke="#000000" cx="399.4034" cy="-687.1819" rx="3.2" ry="3.2"/>
</g>
<!-- act_re_model&#45;&gt;act_re_deployment -->
<g id="edge3" class="edge">
<title>act_re_model:w&#45;&gt;act_re_deployment:e</title>
<path fill="none" stroke="#000000" d="M395.9692,-710.1537C251.7357,-699.3112 144.4999,-529.8874 104.0835,-455.3927"/>
<polygon fill="#000000" stroke="#000000" points="402.5056,-710.3994 410.3647,-714.2975 406.5028,-710.5497 410.5,-710.7 410.5,-710.7 410.5,-710.7 406.5028,-710.5497 410.6353,-707.1025 402.5056,-710.3994 402.5056,-710.3994"/>
<ellipse fill="none" stroke="#000000" cx="399.3079" cy="-710.2792" rx="3.2" ry="3.2"/>
</g>
<!-- act_ru_deadletter_job -->
<g id="node5" class="node">
<title>act_ru_deadletter_job</title>
<g id="a_node5"><a xlink:href="../../tables/act_ru_deadletter_job.html" xlink:title="act_ru_deadletter_job" target="_top">
<polygon fill="#ffffff" stroke="transparent" points="470.5,-448.2 470.5,-509.2 644.5,-509.2 644.5,-448.2 470.5,-448.2"/>
<polygon fill="#f5f5f5" stroke="transparent" points="470.5,-485.7 470.5,-508.7 644.5,-508.7 644.5,-485.7 470.5,-485.7"/>
<polygon fill="none" stroke="#000000" points="470.5,-485.7 470.5,-508.7 644.5,-508.7 644.5,-485.7 470.5,-485.7"/>
<text text-anchor="start" x="475.5" y="-494.3" font-family="Helvetica,sans-Serif" font-weight="bold" font-size="11.00" fill="#000000">act_ru_deadletter_job</text>
<text text-anchor="start" x="610.0219" y="-493.8" font-family="Helvetica,sans-Serif" font-size="11.00" fill="#000000">[table]</text>
<polygon fill="none" stroke="#000000" points="470.5,-466.7 470.5,-485.7 644.5,-485.7 644.5,-466.7 470.5,-466.7"/>
<text text-anchor="start" x="473.5" y="-472.8" font-family="Helvetica,sans-Serif" font-size="11.00" fill="#000000">...</text>
<polygon fill="#ffffff" stroke="transparent" points="470.5,-447.7 470.5,-466.7 644.5,-466.7 644.5,-447.7 470.5,-447.7"/>
<polygon fill="none" stroke="#000000" points="470.5,-447.7 470.5,-466.7 644.5,-466.7 644.5,-447.7 470.5,-447.7"/>
<polygon fill="#ffffff" stroke="transparent" points="471.5,-448.7 471.5,-465.7 535.5,-465.7 535.5,-448.7 471.5,-448.7"/>
<text text-anchor="start" x="473.5" y="-453.8" font-family="Helvetica,sans-Serif" font-size="11.00" fill="#000000">&lt; 5</text>
<polygon fill="#ffffff" stroke="transparent" points="535.5,-448.7 535.5,-465.7 589.5,-465.7 589.5,-448.7 535.5,-448.7"/>
<text text-anchor="start" x="559.4431" y="-453.8" font-family="Helvetica,sans-Serif" font-size="11.00" fill="#000000"> &#160;</text>
<polygon fill="#ffffff" stroke="transparent" points="589.5,-448.7 589.5,-465.7 643.5,-465.7 643.5,-448.7 589.5,-448.7"/>
<text text-anchor="start" x="635.3862" y="-453.8" font-family="Helvetica,sans-Serif" font-size="11.00" fill="#000000"> &#160;</text>
<polygon fill="#000000" stroke="#000000" points="535.5,-448.7 535.5,-465.7 535.5,-465.7 535.5,-448.7 535.5,-448.7"/>
<polygon fill="#000000" stroke="#000000" points="589.5,-448.7 589.5,-465.7 589.5,-465.7 589.5,-448.7 589.5,-448.7"/>
</a>
</g>
</g>
<!-- act_ru_deadletter_job&#45;&gt;act_ge_bytearray -->
<g id="edge6" class="edge">
<title>act_ru_deadletter_job:w&#45;&gt;act_ge_bytearray:e</title>
<path fill="none" stroke="#000000" d="M456.1367,-474.1146C414.6382,-467.8069 373.2184,-447.1302 341.6957,-428.2831"/>
<polygon fill="#000000" stroke="#000000" points="462.5483,-474.8223 470.105,-479.2783 466.5241,-475.2611 470.5,-475.7 470.5,-475.7 470.5,-475.7 466.5241,-475.2611 470.895,-472.1217 462.5483,-474.8223 462.5483,-474.8223"/>
<ellipse fill="none" stroke="#000000" cx="459.3676" cy="-474.4712" rx="3.2" ry="3.2"/>
</g>
<!-- act_ru_deadletter_job&#45;&gt;act_ge_bytearray -->
<g id="edge7" class="edge">
<title>act_ru_deadletter_job:w&#45;&gt;act_ge_bytearray:e</title>
<path fill="none" stroke="#000000" d="M455.8326,-476.078C407.4224,-474.8838 359.1518,-450.4089 326.6083,-428.3693"/>
<polygon fill="#000000" stroke="#000000" points="462.5027,-475.9061 470.5928,-479.2988 466.5013,-475.8031 470.5,-475.7 470.5,-475.7 470.5,-475.7 466.5013,-475.8031 470.4072,-472.1012 462.5027,-475.9061 462.5027,-475.9061"/>
<ellipse fill="none" stroke="#000000" cx="459.3037" cy="-475.9886" rx="3.2" ry="3.2"/>
</g>
<!-- act_ru_external_job -->
<g id="node6" class="node">
<title>act_ru_external_job</title>
<g id="a_node6"><a xlink:href="../../tables/act_ru_external_job.html" xlink:title="act_ru_external_job" target="_top">
<polygon fill="#ffffff" stroke="transparent" points="477,-366.2 477,-427.2 638,-427.2 638,-366.2 477,-366.2"/>
<polygon fill="#f5f5f5" stroke="transparent" points="477.5,-403.7 477.5,-426.7 638.5,-426.7 638.5,-403.7 477.5,-403.7"/>
<polygon fill="none" stroke="#000000" points="477.5,-403.7 477.5,-426.7 638.5,-426.7 638.5,-403.7 477.5,-403.7"/>
<text text-anchor="start" x="482.5" y="-412.3" font-family="Helvetica,sans-Serif" font-weight="bold" font-size="11.00" fill="#000000">act_ru_external_job</text>
<text text-anchor="start" x="604.0219" y="-411.8" font-family="Helvetica,sans-Serif" font-size="11.00" fill="#000000">[table]</text>
<polygon fill="none" stroke="#000000" points="477.5,-384.7 477.5,-403.7 638.5,-403.7 638.5,-384.7 477.5,-384.7"/>
<text text-anchor="start" x="480.5" y="-390.8" font-family="Helvetica,sans-Serif" font-size="11.00" fill="#000000">...</text>
<polygon fill="#ffffff" stroke="transparent" points="477.5,-365.7 477.5,-384.7 638.5,-384.7 638.5,-365.7 477.5,-365.7"/>
<polygon fill="none" stroke="#000000" points="477.5,-365.7 477.5,-384.7 638.5,-384.7 638.5,-365.7 477.5,-365.7"/>
<polygon fill="#ffffff" stroke="transparent" points="478.5,-366.7 478.5,-383.7 537.5,-383.7 537.5,-366.7 478.5,-366.7"/>
<text text-anchor="start" x="480.5" y="-371.8" font-family="Helvetica,sans-Serif" font-size="11.00" fill="#000000">&lt; 2</text>
<polygon fill="#ffffff" stroke="transparent" points="537.5,-366.7 537.5,-383.7 587.5,-383.7 587.5,-366.7 537.5,-366.7"/>
<text text-anchor="start" x="559.4431" y="-371.8" font-family="Helvetica,sans-Serif" font-size="11.00" fill="#000000"> &#160;</text>
<polygon fill="#ffffff" stroke="transparent" points="587.5,-366.7 587.5,-383.7 637.5,-383.7 637.5,-366.7 587.5,-366.7"/>
<text text-anchor="start" x="629.3862" y="-371.8" font-family="Helvetica,sans-Serif" font-size="11.00" fill="#000000"> &#160;</text>
<polygon fill="#000000" stroke="#000000" points="537.5,-366.7 537.5,-383.7 537.5,-383.7 537.5,-366.7 537.5,-366.7"/>
<polygon fill="#000000" stroke="#000000" points="587.5,-366.7 587.5,-383.7 587.5,-383.7 587.5,-366.7 587.5,-366.7"/>
</a>
</g>
</g>
<!-- act_ru_external_job&#45;&gt;act_ge_bytearray -->
<g id="edge8" class="edge">
<title>act_ru_external_job:w&#45;&gt;act_ge_bytearray:e</title>
<path fill="none" stroke="#000000" d="M462.9183,-392.7397C430.8387,-390.7748 396.8475,-389.628 367.3544,-389.2992"/>
<polygon fill="#000000" stroke="#000000" points="469.5173,-393.1742 477.2634,-397.2922 473.5086,-393.4371 477.5,-393.7 477.5,-393.7 477.5,-393.7 473.5086,-393.4371 477.7366,-390.1078 469.5173,-393.1742 469.5173,-393.1742"/>
<ellipse fill="none" stroke="#000000" cx="466.3242" cy="-392.9639" rx="3.2" ry="3.2"/>
</g>
<!-- act_ru_external_job&#45;&gt;act_ge_bytearray -->
<g id="edge9" class="edge">
<title>act_ru_external_job:w&#45;&gt;act_ge_bytearray:e</title>
<path fill="none" stroke="#000000" d="M462.9183,-394.8204C430.8387,-397.1127 396.8475,-398.4507 367.3544,-398.8343"/>
<polygon fill="#000000" stroke="#000000" points="469.5235,-394.3129 477.7758,-397.2894 473.5118,-394.0065 477.5,-393.7 477.5,-393.7 477.5,-393.7 473.5118,-394.0065 477.2242,-390.1106 469.5235,-394.3129 469.5235,-394.3129"/>
<ellipse fill="none" stroke="#000000" cx="466.3329" cy="-394.5581" rx="3.2" ry="3.2"/>
</g>
<!-- act_ru_job -->
<g id="node7" class="node">
<title>act_ru_job</title>
<g id="a_node7"><a xlink:href="../../tables/act_ru_job.html" xlink:title="act_ru_job" target="_top">
<polygon fill="#ffffff" stroke="transparent" points="505.5,-284.2 505.5,-345.2 609.5,-345.2 609.5,-284.2 505.5,-284.2"/>
<polygon fill="#f5f5f5" stroke="transparent" points="505.5,-321.7 505.5,-344.7 609.5,-344.7 609.5,-321.7 505.5,-321.7"/>
<polygon fill="none" stroke="#000000" points="505.5,-321.7 505.5,-344.7 609.5,-344.7 609.5,-321.7 505.5,-321.7"/>
<text text-anchor="start" x="510.5" y="-330.3" font-family="Helvetica,sans-Serif" font-weight="bold" font-size="11.00" fill="#000000">act_ru_job</text>
<text text-anchor="start" x="575.0219" y="-329.8" font-family="Helvetica,sans-Serif" font-size="11.00" fill="#000000">[table]</text>
<polygon fill="none" stroke="#000000" points="505.5,-302.7 505.5,-321.7 609.5,-321.7 609.5,-302.7 505.5,-302.7"/>
<text text-anchor="start" x="508.5" y="-308.8" font-family="Helvetica,sans-Serif" font-size="11.00" fill="#000000">...</text>
<polygon fill="#ffffff" stroke="transparent" points="505.5,-283.7 505.5,-302.7 609.5,-302.7 609.5,-283.7 505.5,-283.7"/>
<polygon fill="none" stroke="#000000" points="505.5,-283.7 505.5,-302.7 609.5,-302.7 609.5,-283.7 505.5,-283.7"/>
<polygon fill="#ffffff" stroke="transparent" points="506.5,-284.7 506.5,-301.7 546.5,-301.7 546.5,-284.7 506.5,-284.7"/>
<text text-anchor="start" x="508.5" y="-289.8" font-family="Helvetica,sans-Serif" font-size="11.00" fill="#000000">&lt; 5</text>
<polygon fill="#ffffff" stroke="transparent" points="546.5,-284.7 546.5,-301.7 577.5,-301.7 577.5,-284.7 546.5,-284.7"/>
<text text-anchor="start" x="558.9431" y="-289.8" font-family="Helvetica,sans-Serif" font-size="11.00" fill="#000000"> &#160;</text>
<polygon fill="#ffffff" stroke="transparent" points="577.5,-284.7 577.5,-301.7 608.5,-301.7 608.5,-284.7 577.5,-284.7"/>
<text text-anchor="start" x="600.3862" y="-289.8" font-family="Helvetica,sans-Serif" font-size="11.00" fill="#000000"> &#160;</text>
<polygon fill="#000000" stroke="#000000" points="546.5,-284.7 546.5,-301.7 546.5,-301.7 546.5,-284.7 546.5,-284.7"/>
<polygon fill="#000000" stroke="#000000" points="577.5,-284.7 577.5,-301.7 577.5,-301.7 577.5,-284.7 577.5,-284.7"/>
</a>
</g>
</g>
<!-- act_ru_job&#45;&gt;act_ge_bytearray -->
<g id="edge10" class="edge">
<title>act_ru_job:w&#45;&gt;act_ge_bytearray:e</title>
<path fill="none" stroke="#000000" d="M490.7606,-311.4206C434.1367,-312.4601 375.9939,-336.9796 336.2942,-359.0382"/>
<polygon fill="#000000" stroke="#000000" points="497.5014,-311.5483 505.4317,-315.2994 501.5007,-311.6242 505.5,-311.7 505.5,-311.7 505.5,-311.7 501.5007,-311.6242 505.5683,-308.1006 497.5014,-311.5483 497.5014,-311.5483"/>
<ellipse fill="none" stroke="#000000" cx="494.302" cy="-311.4877" rx="3.2" ry="3.2"/>
</g>
<!-- act_ru_job&#45;&gt;act_ge_bytearray -->
<g id="edge11" class="edge">
<title>act_ru_job:w&#45;&gt;act_ge_bytearray:e</title>
<path fill="none" stroke="#000000" d="M491.162,-313.118C442.5903,-319.3935 392.866,-340.1971 354.5935,-359.149"/>
<polygon fill="#000000" stroke="#000000" points="497.5388,-312.4874 505.8543,-315.2825 501.5194,-312.0937 505.5,-311.7 505.5,-311.7 505.5,-311.7 501.5194,-312.0937 505.1457,-308.1175 497.5388,-312.4874 497.5388,-312.4874"/>
<ellipse fill="none" stroke="#000000" cx="494.3544" cy="-312.8023" rx="3.2" ry="3.2"/>
</g>
<!-- act_ru_suspended_job -->
<g id="node8" class="node">
<title>act_ru_suspended_job</title>
<g id="a_node8"><a xlink:href="../../tables/act_ru_suspended_job.html" xlink:title="act_ru_suspended_job" target="_top">
<polygon fill="#ffffff" stroke="transparent" points="467.5,-202.2 467.5,-263.2 647.5,-263.2 647.5,-202.2 467.5,-202.2"/>
<polygon fill="#f5f5f5" stroke="transparent" points="467.5,-239.7 467.5,-262.7 647.5,-262.7 647.5,-239.7 467.5,-239.7"/>
<polygon fill="none" stroke="#000000" points="467.5,-239.7 467.5,-262.7 647.5,-262.7 647.5,-239.7 467.5,-239.7"/>
<text text-anchor="start" x="472.5" y="-248.3" font-family="Helvetica,sans-Serif" font-weight="bold" font-size="11.00" fill="#000000">act_ru_suspended_job</text>
<text text-anchor="start" x="613.0219" y="-247.8" font-family="Helvetica,sans-Serif" font-size="11.00" fill="#000000">[table]</text>
<polygon fill="none" stroke="#000000" points="467.5,-220.7 467.5,-239.7 647.5,-239.7 647.5,-220.7 467.5,-220.7"/>
<text text-anchor="start" x="470.5" y="-226.8" font-family="Helvetica,sans-Serif" font-size="11.00" fill="#000000">...</text>
<polygon fill="#ffffff" stroke="transparent" points="467.5,-201.7 467.5,-220.7 647.5,-220.7 647.5,-201.7 467.5,-201.7"/>
<polygon fill="none" stroke="#000000" points="467.5,-201.7 467.5,-220.7 647.5,-220.7 647.5,-201.7 467.5,-201.7"/>
<polygon fill="#ffffff" stroke="transparent" points="468.5,-202.7 468.5,-219.7 534.5,-219.7 534.5,-202.7 468.5,-202.7"/>
<text text-anchor="start" x="470.5" y="-207.8" font-family="Helvetica,sans-Serif" font-size="11.00" fill="#000000">&lt; 5</text>
<polygon fill="#ffffff" stroke="transparent" points="534.5,-202.7 534.5,-219.7 590.5,-219.7 590.5,-202.7 534.5,-202.7"/>
<text text-anchor="start" x="559.4431" y="-207.8" font-family="Helvetica,sans-Serif" font-size="11.00" fill="#000000"> &#160;</text>
<polygon fill="#ffffff" stroke="transparent" points="590.5,-202.7 590.5,-219.7 646.5,-219.7 646.5,-202.7 590.5,-202.7"/>
<text text-anchor="start" x="638.3862" y="-207.8" font-family="Helvetica,sans-Serif" font-size="11.00" fill="#000000"> &#160;</text>
<polygon fill="#000000" stroke="#000000" points="534.5,-202.7 534.5,-219.7 534.5,-219.7 534.5,-202.7 534.5,-202.7"/>
<polygon fill="#000000" stroke="#000000" points="590.5,-202.7 590.5,-219.7 590.5,-219.7 590.5,-202.7 590.5,-202.7"/>
</a>
</g>
</g>
<!-- act_ru_suspended_job&#45;&gt;act_ge_bytearray -->
<g id="edge12" class="edge">
<title>act_ru_suspended_job:w&#45;&gt;act_ge_bytearray:e</title>
<path fill="none" stroke="#000000" d="M453.0539,-229.894C381.9558,-235.7381 328.0892,-312.445 302.662,-358.8436"/>
<polygon fill="#000000" stroke="#000000" points="459.5007,-229.8075 467.5484,-233.2997 463.5004,-229.7537 467.5,-229.7 467.5,-229.7 467.5,-229.7 463.5004,-229.7537 467.4516,-226.1003 459.5007,-229.8075 459.5007,-229.8075"/>
<ellipse fill="none" stroke="#000000" cx="456.301" cy="-229.8505" rx="3.2" ry="3.2"/>
</g>
<!-- act_ru_suspended_job&#45;&gt;act_ge_bytearray -->
<g id="edge13" class="edge">
<title>act_ru_suspended_job:w&#45;&gt;act_ge_bytearray:e</title>
<path fill="none" stroke="#000000" d="M452.9841,-231.5852C386.0303,-244.6571 334.3659,-315.2973 307.3552,-358.9751"/>
<polygon fill="#000000" stroke="#000000" points="459.5666,-230.7304 467.9637,-233.27 463.5333,-230.2152 467.5,-229.7 467.5,-229.7 467.5,-229.7 463.5333,-230.2152 467.0363,-226.13 459.5666,-230.7304 459.5666,-230.7304"/>
<ellipse fill="none" stroke="#000000" cx="456.3933" cy="-231.1425" rx="3.2" ry="3.2"/>
</g>
<!-- act_ru_timer_job -->
<g id="node9" class="node">
<title>act_ru_timer_job</title>
<g id="a_node9"><a xlink:href="../../tables/act_ru_timer_job.html" xlink:title="act_ru_timer_job" target="_top">
<polygon fill="#ffffff" stroke="transparent" points="486,-120.2 486,-181.2 629,-181.2 629,-120.2 486,-120.2"/>
<polygon fill="#f5f5f5" stroke="transparent" points="486.5,-157.7 486.5,-180.7 629.5,-180.7 629.5,-157.7 486.5,-157.7"/>
<polygon fill="none" stroke="#000000" points="486.5,-157.7 486.5,-180.7 629.5,-180.7 629.5,-157.7 486.5,-157.7"/>
<text text-anchor="start" x="491.5" y="-166.3" font-family="Helvetica,sans-Serif" font-weight="bold" font-size="11.00" fill="#000000">act_ru_timer_job</text>
<text text-anchor="start" x="595.0219" y="-165.8" font-family="Helvetica,sans-Serif" font-size="11.00" fill="#000000">[table]</text>
<polygon fill="none" stroke="#000000" points="486.5,-138.7 486.5,-157.7 629.5,-157.7 629.5,-138.7 486.5,-138.7"/>
<text text-anchor="start" x="489.5" y="-144.8" font-family="Helvetica,sans-Serif" font-size="11.00" fill="#000000">...</text>
<polygon fill="#ffffff" stroke="transparent" points="486.5,-119.7 486.5,-138.7 629.5,-138.7 629.5,-119.7 486.5,-119.7"/>
<polygon fill="none" stroke="#000000" points="486.5,-119.7 486.5,-138.7 629.5,-138.7 629.5,-119.7 486.5,-119.7"/>
<polygon fill="#ffffff" stroke="transparent" points="487.5,-120.7 487.5,-137.7 540.5,-137.7 540.5,-120.7 487.5,-120.7"/>
<text text-anchor="start" x="489.5" y="-125.8" font-family="Helvetica,sans-Serif" font-size="11.00" fill="#000000">&lt; 5</text>
<polygon fill="#ffffff" stroke="transparent" points="540.5,-120.7 540.5,-137.7 584.5,-137.7 584.5,-120.7 540.5,-120.7"/>
<text text-anchor="start" x="559.4431" y="-125.8" font-family="Helvetica,sans-Serif" font-size="11.00" fill="#000000"> &#160;</text>
<polygon fill="#ffffff" stroke="transparent" points="584.5,-120.7 584.5,-137.7 628.5,-137.7 628.5,-120.7 584.5,-120.7"/>
<text text-anchor="start" x="620.3862" y="-125.8" font-family="Helvetica,sans-Serif" font-size="11.00" fill="#000000"> &#160;</text>
<polygon fill="#000000" stroke="#000000" points="540.5,-120.7 540.5,-137.7 540.5,-137.7 540.5,-120.7 540.5,-120.7"/>
<polygon fill="#000000" stroke="#000000" points="584.5,-120.7 584.5,-137.7 584.5,-137.7 584.5,-120.7 584.5,-120.7"/>
</a>
</g>
</g>
<!-- act_ru_timer_job&#45;&gt;act_ge_bytearray -->
<g id="edge14" class="edge">
<title>act_ru_timer_job:w&#45;&gt;act_ge_bytearray:e</title>
<path fill="none" stroke="#000000" d="M472.0547,-147.9709C371.7838,-156.1117 316.0602,-293.3704 295.62,-359.1689"/>
<polygon fill="#000000" stroke="#000000" points="478.5014,-147.8501 486.5675,-151.2994 482.5007,-147.775 486.5,-147.7 486.5,-147.7 486.5,-147.7 482.5007,-147.775 486.4325,-144.1006 478.5014,-147.8501 478.5014,-147.8501"/>
<ellipse fill="none" stroke="#000000" cx="475.302" cy="-147.9101" rx="3.2" ry="3.2"/>
</g>
<!-- act_ru_timer_job&#45;&gt;act_ge_bytearray -->
<g id="edge15" class="edge">
<title>act_ru_timer_job:w&#45;&gt;act_ge_bytearray:e</title>
<path fill="none" stroke="#000000" d="M471.9596,-149.2999C375.4452,-165.8458 320.2233,-295.3989 298.0257,-358.9396"/>
<polygon fill="#000000" stroke="#000000" points="478.548,-148.575 486.8938,-151.2784 482.524,-148.1375 486.5,-147.7 486.5,-147.7 486.5,-147.7 482.524,-148.1375 486.1062,-144.1216 478.548,-148.575 478.548,-148.575"/>
<ellipse fill="none" stroke="#000000" cx="475.3672" cy="-148.925" rx="3.2" ry="3.2"/>
</g>
<!-- act_ru_variable -->
<g id="node10" class="node">
<title>act_ru_variable</title>
<g id="a_node10"><a xlink:href="../../tables/act_ru_variable.html" xlink:title="act_ru_variable" target="_top">
<polygon fill="#ffffff" stroke="transparent" points="490.5,-38.2 490.5,-99.2 624.5,-99.2 624.5,-38.2 490.5,-38.2"/>
<polygon fill="#f5f5f5" stroke="transparent" points="490.5,-75.7 490.5,-98.7 624.5,-98.7 624.5,-75.7 490.5,-75.7"/>
<polygon fill="none" stroke="#000000" points="490.5,-75.7 490.5,-98.7 624.5,-98.7 624.5,-75.7 490.5,-75.7"/>
<text text-anchor="start" x="495.5" y="-84.3" font-family="Helvetica,sans-Serif" font-weight="bold" font-size="11.00" fill="#000000">act_ru_variable</text>
<text text-anchor="start" x="590.0219" y="-83.8" font-family="Helvetica,sans-Serif" font-size="11.00" fill="#000000">[table]</text>
<polygon fill="none" stroke="#000000" points="490.5,-56.7 490.5,-75.7 624.5,-75.7 624.5,-56.7 490.5,-56.7"/>
<text text-anchor="start" x="493.5" y="-62.8" font-family="Helvetica,sans-Serif" font-size="11.00" fill="#000000">...</text>
<polygon fill="#ffffff" stroke="transparent" points="490.5,-37.7 490.5,-56.7 624.5,-56.7 624.5,-37.7 490.5,-37.7"/>
<polygon fill="none" stroke="#000000" points="490.5,-37.7 490.5,-56.7 624.5,-56.7 624.5,-37.7 490.5,-37.7"/>
<polygon fill="#ffffff" stroke="transparent" points="491.5,-38.7 491.5,-55.7 541.5,-55.7 541.5,-38.7 491.5,-38.7"/>
<text text-anchor="start" x="493.5" y="-43.8" font-family="Helvetica,sans-Serif" font-size="11.00" fill="#000000">&lt; 3</text>
<polygon fill="#ffffff" stroke="transparent" points="541.5,-38.7 541.5,-55.7 582.5,-55.7 582.5,-38.7 541.5,-38.7"/>
<text text-anchor="start" x="558.9431" y="-43.8" font-family="Helvetica,sans-Serif" font-size="11.00" fill="#000000"> &#160;</text>
<polygon fill="#ffffff" stroke="transparent" points="582.5,-38.7 582.5,-55.7 623.5,-55.7 623.5,-38.7 582.5,-38.7"/>
<text text-anchor="start" x="615.3862" y="-43.8" font-family="Helvetica,sans-Serif" font-size="11.00" fill="#000000"> &#160;</text>
<polygon fill="#000000" stroke="#000000" points="541.5,-38.7 541.5,-55.7 541.5,-55.7 541.5,-38.7 541.5,-38.7"/>
<polygon fill="#000000" stroke="#000000" points="582.5,-38.7 582.5,-55.7 582.5,-55.7 582.5,-38.7 582.5,-38.7"/>
</a>
</g>
</g>
<!-- act_ru_variable&#45;&gt;act_ge_bytearray -->
<g id="edge16" class="edge">
<title>act_ru_variable:w&#45;&gt;act_ge_bytearray:e</title>
<path fill="none" stroke="#000000" d="M475.9976,-66.5021C350.0873,-80.6262 304.7611,-277.5442 291.3471,-358.9088"/>
<polygon fill="#000000" stroke="#000000" points="482.5122,-66.1418 490.6988,-69.2945 486.5061,-65.9209 490.5,-65.7 490.5,-65.7 490.5,-65.7 486.5061,-65.9209 490.3012,-62.1055 482.5122,-66.1418 482.5122,-66.1418"/>
<ellipse fill="none" stroke="#000000" cx="479.3171" cy="-66.3186" rx="3.2" ry="3.2"/>
</g>
</g>
</svg>
