<?xml version="1.0" encoding="UTF-8" standalone="no"?>
<!DOCTYPE svg PUBLIC "-//W3C//DTD SVG 1.1//EN"
 "http://www.w3.org/Graphics/SVG/1.1/DTD/svg11.dtd">
<!-- Generated by graphviz version 2.40.1 (20161225.0304)
 -->
<!-- Title: twoDegreesRelationshipsDiagram Pages: 1 -->
<svg width="833pt" height="926pt"
 viewBox="0.00 0.00 833.00 926.06" xmlns="http://www.w3.org/2000/svg" xmlns:xlink="http://www.w3.org/1999/xlink">
<g id="graph0" class="graph" transform="scale(1 1) rotate(0) translate(4 922.0623)">
<title>twoDegreesRelationshipsDiagram</title>
<polygon fill="#ffffff" stroke="transparent" points="-4,4 -4,-922.0623 829,-922.0623 829,4 -4,4"/>
<text text-anchor="middle" x="72.4936" y="-7.3" font-family="Helvetica,sans-Serif" font-size="11.00" fill="#000000">Generated by SchemaSpy</text>
<!-- act_ge_bytearray -->
<g id="node1" class="node">
<title>act_ge_bytearray</title>
<g id="a_node1"><a xlink:href="../../tables/act_ge_bytearray.html" xlink:title="act_ge_bytearray" target="_top">
<polygon fill="#ffffff" stroke="transparent" points="231,-431.5623 231,-536.5623 376,-536.5623 376,-431.5623 231,-431.5623"/>
<polygon fill="#f5f5f5" stroke="transparent" points="231.5,-513.0623 231.5,-536.0623 376.5,-536.0623 376.5,-513.0623 231.5,-513.0623"/>
<polygon fill="none" stroke="#000000" points="231.5,-513.0623 231.5,-536.0623 376.5,-536.0623 376.5,-513.0623 231.5,-513.0623"/>
<text text-anchor="start" x="236.5" y="-521.6623" font-family="Helvetica,sans-Serif" font-weight="bold" font-size="11.00" fill="#000000">act_ge_bytearray</text>
<text text-anchor="start" x="342.0219" y="-521.1623" font-family="Helvetica,sans-Serif" font-size="11.00" fill="#000000">[table]</text>
<polygon fill="none" stroke="#000000" points="231.5,-491.0623 231.5,-513.0623 376.5,-513.0623 376.5,-491.0623 231.5,-491.0623"/>
<image xlink:href="../../images/primaryKeys.png" width="11px" height="12px" preserveAspectRatio="xMinYMin meet" x="236.5" y="-508.062"/>
<text text-anchor="start" x="260.5" y="-498.1623" font-family="Helvetica,sans-Serif" font-size="11.00" fill="#000000">id_</text>
<polygon fill="#ffffff" stroke="transparent" points="231.5,-469.0623 231.5,-491.0623 376.5,-491.0623 376.5,-469.0623 231.5,-469.0623"/>
<polygon fill="none" stroke="#000000" points="231.5,-469.0623 231.5,-491.0623 376.5,-491.0623 376.5,-469.0623 231.5,-469.0623"/>
<image xlink:href="../../images/foreignKeys.png" width="11px" height="12px" preserveAspectRatio="xMinYMin meet" x="236.5" y="-486.062"/>
<text text-anchor="start" x="260.5" y="-476.1623" font-family="Helvetica,sans-Serif" font-size="11.00" fill="#000000">deployment_id_</text>
<polygon fill="none" stroke="#000000" points="231.5,-450.0623 231.5,-469.0623 376.5,-469.0623 376.5,-450.0623 231.5,-450.0623"/>
<text text-anchor="start" x="234.5" y="-456.1623" font-family="Helvetica,sans-Serif" font-size="11.00" fill="#000000">...</text>
<polygon fill="#ffffff" stroke="transparent" points="231.5,-431.0623 231.5,-450.0623 376.5,-450.0623 376.5,-431.0623 231.5,-431.0623"/>
<polygon fill="none" stroke="#000000" points="231.5,-431.0623 231.5,-450.0623 376.5,-450.0623 376.5,-431.0623 231.5,-431.0623"/>
<polygon fill="#ffffff" stroke="transparent" points="232.5,-432.0623 232.5,-449.0623 281.5,-449.0623 281.5,-432.0623 232.5,-432.0623"/>
<text text-anchor="start" x="234.5" y="-437.1623" font-family="Helvetica,sans-Serif" font-size="11.00" fill="#000000">&lt; 1</text>
<polygon fill="#ffffff" stroke="transparent" points="281.5,-432.0623 281.5,-449.0623 321.5,-449.0623 321.5,-432.0623 281.5,-432.0623"/>
<text text-anchor="start" x="298.4431" y="-437.1623" font-family="Helvetica,sans-Serif" font-size="11.00" fill="#000000"> &#160;</text>
<polygon fill="#ffffff" stroke="transparent" points="321.5,-432.0623 321.5,-449.0623 375.5,-449.0623 375.5,-432.0623 321.5,-432.0623"/>
<text text-anchor="start" x="351.7904" y="-437.1623" font-family="Helvetica,sans-Serif" font-size="11.00" fill="#000000">14 &gt;</text>
<polygon fill="#000000" stroke="#000000" points="281.5,-432.0623 281.5,-449.0623 281.5,-449.0623 281.5,-432.0623 281.5,-432.0623"/>
<polygon fill="#000000" stroke="#000000" points="321.5,-432.0623 321.5,-449.0623 321.5,-449.0623 321.5,-432.0623 321.5,-432.0623"/>
</a>
</g>
</g>
<!-- act_re_deployment -->
<g id="node2" class="node">
<title>act_re_deployment</title>
<g id="a_node2"><a xlink:href="../../tables/act_re_deployment.html" xlink:title="act_re_deployment" target="_top">
<polygon fill="#ffffff" stroke="transparent" points="16.5,-540.5623 16.5,-601.5623 173.5,-601.5623 173.5,-540.5623 16.5,-540.5623"/>
<polygon fill="#f5f5f5" stroke="transparent" points="17,-578.0623 17,-601.0623 174,-601.0623 174,-578.0623 17,-578.0623"/>
<polygon fill="none" stroke="#000000" points="17,-578.0623 17,-601.0623 174,-601.0623 174,-578.0623 17,-578.0623"/>
<text text-anchor="start" x="22" y="-586.6623" font-family="Helvetica,sans-Serif" font-weight="bold" font-size="11.00" fill="#000000">act_re_deployment</text>
<text text-anchor="start" x="139.5219" y="-586.1623" font-family="Helvetica,sans-Serif" font-size="11.00" fill="#000000">[table]</text>
<polygon fill="none" stroke="#000000" points="17,-559.0623 17,-578.0623 174,-578.0623 174,-559.0623 17,-559.0623"/>
<text text-anchor="start" x="20" y="-565.1623" font-family="Helvetica,sans-Serif" font-size="11.00" fill="#000000">...</text>
<polygon fill="#ffffff" stroke="transparent" points="17,-540.0623 17,-559.0623 174,-559.0623 174,-540.0623 17,-540.0623"/>
<polygon fill="none" stroke="#000000" points="17,-540.0623 17,-559.0623 174,-559.0623 174,-540.0623 17,-540.0623"/>
<polygon fill="#ffffff" stroke="transparent" points="18,-541.0623 18,-558.0623 67,-558.0623 67,-541.0623 18,-541.0623"/>
<text text-anchor="start" x="20" y="-546.1623" font-family="Helvetica,sans-Serif" font-size="11.00" fill="#000000"> &#160;</text>
<polygon fill="#ffffff" stroke="transparent" points="67,-541.0623 67,-558.0623 116,-558.0623 116,-541.0623 67,-541.0623"/>
<text text-anchor="start" x="88.4431" y="-546.1623" font-family="Helvetica,sans-Serif" font-size="11.00" fill="#000000"> &#160;</text>
<polygon fill="#ffffff" stroke="transparent" points="116,-541.0623 116,-558.0623 173,-558.0623 173,-541.0623 116,-541.0623"/>
<text text-anchor="start" x="155.4053" y="-546.1623" font-family="Helvetica,sans-Serif" font-size="11.00" fill="#000000">2 &gt;</text>
<polygon fill="#000000" stroke="#000000" points="67,-541.0623 67,-558.0623 67,-558.0623 67,-541.0623 67,-541.0623"/>
<polygon fill="#000000" stroke="#000000" points="116,-541.0623 116,-558.0623 116,-558.0623 116,-541.0623 116,-541.0623"/>
</a>
</g>
</g>
<!-- act_ge_bytearray&#45;&gt;act_re_deployment -->
<g id="edge1" class="edge">
<title>act_ge_bytearray:w&#45;&gt;act_re_deployment:e</title>
<path fill="none" stroke="#000000" d="M217.5318,-483.8435C192.4734,-500.6873 214.8801,-568.0623 174,-568.0623"/>
<polygon fill="#000000" stroke="#000000" points="223.7779,-482.1527 232.4407,-483.5372 227.639,-481.1075 231.5,-480.0623 231.5,-480.0623 231.5,-480.0623 227.639,-481.1075 230.5593,-476.5873 223.7779,-482.1527 223.7779,-482.1527"/>
<ellipse fill="none" stroke="#000000" cx="220.6891" cy="-482.9889" rx="3.2" ry="3.2"/>
</g>
<!-- act_procdef_info -->
<g id="node3" class="node">
<title>act_procdef_info</title>
<g id="a_node3"><a xlink:href="../../tables/act_procdef_info.html" xlink:title="act_procdef_info" target="_top">
<polygon fill="#ffffff" stroke="transparent" points="425,-780.0623 425,-914.0623 615,-914.0623 615,-780.0623 425,-780.0623"/>
<polygon fill="#f5f5f5" stroke="transparent" points="427,-889.0623 427,-912.0623 613,-912.0623 613,-889.0623 427,-889.0623"/>
<polygon fill="none" stroke="#000000" points="427,-889.0623 427,-912.0623 613,-912.0623 613,-889.0623 427,-889.0623"/>
<text text-anchor="start" x="432" y="-897.6623" font-family="Helvetica,sans-Serif" font-weight="bold" font-size="11.00" fill="#000000">act_procdef_info</text>
<text text-anchor="start" x="578.0437" y="-897.1623" font-family="Helvetica,sans-Serif" font-size="11.00" fill="#000000">[table]</text>
<polygon fill="none" stroke="#000000" points="427,-867.0623 427,-889.0623 552,-889.0623 552,-867.0623 427,-867.0623"/>
<image xlink:href="../../images/primaryKeys.png" width="11px" height="12px" preserveAspectRatio="xMinYMin meet" x="432" y="-884.062"/>
<text text-anchor="start" x="447" y="-874.1623" font-family="Helvetica,sans-Serif" font-size="11.00" fill="#000000">id_</text>
<polygon fill="none" stroke="#000000" points="552,-867.0623 552,-889.0623 613,-889.0623 613,-867.0623 552,-867.0623"/>
<text text-anchor="start" x="554.994" y="-874.7623" font-family="Helvetica,sans-Serif" font-size="11.00" fill="#000000">varchar[64]</text>
<polygon fill="#ffffff" stroke="transparent" points="427,-845.0623 427,-867.0623 552,-867.0623 552,-845.0623 427,-845.0623"/>
<polygon fill="none" stroke="#000000" points="427,-845.0623 427,-867.0623 552,-867.0623 552,-845.0623 427,-845.0623"/>
<image xlink:href="../../images/foreignKeys.png" width="11px" height="12px" preserveAspectRatio="xMinYMin meet" x="432" y="-862.062"/>
<text text-anchor="start" x="447" y="-852.1623" font-family="Helvetica,sans-Serif" font-size="11.00" fill="#000000">proc_def_id_</text>
<polygon fill="none" stroke="#000000" points="552,-845.0623 552,-867.0623 613,-867.0623 613,-845.0623 552,-845.0623"/>
<text text-anchor="start" x="554.994" y="-852.7623" font-family="Helvetica,sans-Serif" font-size="11.00" fill="#000000">varchar[64]</text>
<polygon fill="none" stroke="#000000" points="427,-823.0623 427,-845.0623 552,-845.0623 552,-823.0623 427,-823.0623"/>
<text text-anchor="start" x="447" y="-830.1623" font-family="Helvetica,sans-Serif" font-size="11.00" fill="#000000">rev_</text>
<polygon fill="none" stroke="#000000" points="552,-823.0623 552,-845.0623 613,-845.0623 613,-823.0623 552,-823.0623"/>
<text text-anchor="start" x="555" y="-830.7623" font-family="Helvetica,sans-Serif" font-size="11.00" fill="#000000">int4[10]</text>
<polygon fill="#ffffff" stroke="transparent" points="427,-801.0623 427,-823.0623 552,-823.0623 552,-801.0623 427,-801.0623"/>
<polygon fill="none" stroke="#000000" points="427,-801.0623 427,-823.0623 552,-823.0623 552,-801.0623 427,-801.0623"/>
<image xlink:href="../../images/foreignKeys.png" width="11px" height="12px" preserveAspectRatio="xMinYMin meet" x="432" y="-818.062"/>
<text text-anchor="start" x="447" y="-808.1623" font-family="Helvetica,sans-Serif" font-size="11.00" fill="#000000">info_json_id_</text>
<polygon fill="none" stroke="#000000" points="552,-801.0623 552,-823.0623 613,-823.0623 613,-801.0623 552,-801.0623"/>
<text text-anchor="start" x="554.994" y="-808.7623" font-family="Helvetica,sans-Serif" font-size="11.00" fill="#000000">varchar[64]</text>
<polygon fill="#ffffff" stroke="transparent" points="427,-782.0623 427,-801.0623 613,-801.0623 613,-782.0623 427,-782.0623"/>
<polygon fill="none" stroke="#000000" points="427,-782.0623 427,-801.0623 613,-801.0623 613,-782.0623 427,-782.0623"/>
<polygon fill="#ffffff" stroke="transparent" points="428,-783.0623 428,-800.0623 493,-800.0623 493,-783.0623 428,-783.0623"/>
<text text-anchor="start" x="430" y="-788.1623" font-family="Helvetica,sans-Serif" font-size="11.00" fill="#000000">&lt; 2</text>
<polygon fill="#ffffff" stroke="transparent" points="493,-783.0623 493,-800.0623 548,-800.0623 548,-783.0623 493,-783.0623"/>
<text text-anchor="start" x="517.4431" y="-788.1623" font-family="Helvetica,sans-Serif" font-size="11.00" fill="#000000"> &#160;</text>
<polygon fill="#ffffff" stroke="transparent" points="548,-783.0623 548,-800.0623 612,-800.0623 612,-783.0623 548,-783.0623"/>
<text text-anchor="start" x="594.4053" y="-788.1623" font-family="Helvetica,sans-Serif" font-size="11.00" fill="#000000">0 &gt;</text>
<polygon fill="#000000" stroke="#000000" points="493,-783.0623 493,-800.0623 493,-800.0623 493,-783.0623 493,-783.0623"/>
<polygon fill="#000000" stroke="#000000" points="548,-783.0623 548,-800.0623 548,-800.0623 548,-783.0623 548,-783.0623"/>
<polygon fill="none" stroke="#000000" stroke-width="2" points="426,-781.0623 426,-913.0623 614,-913.0623 614,-781.0623 426,-781.0623"/>
</a>
</g>
</g>
<!-- act_procdef_info&#45;&gt;act_ge_bytearray -->
<g id="edge2" class="edge">
<title>act_procdef_info:w&#45;&gt;act_ge_bytearray:e</title>
<path fill="none" stroke="#000000" d="M413.3992,-806.6816C370.1542,-765.5168 440.8441,-502.0623 376.5,-502.0623"/>
<polygon fill="#000000" stroke="#000000" points="419.561,-809.1193 425.6757,-815.4098 423.2805,-810.5908 427,-812.0623 427,-812.0623 427,-812.0623 423.2805,-810.5908 428.3243,-808.7147 419.561,-809.1193 419.561,-809.1193"/>
<ellipse fill="none" stroke="#000000" cx="416.5854" cy="-807.9421" rx="3.2" ry="3.2"/>
</g>
<!-- act_re_procdef -->
<g id="node4" class="node">
<title>act_re_procdef</title>
<g id="a_node4"><a xlink:href="../../tables/act_re_procdef.html" xlink:title="act_re_procdef" target="_top">
<polygon fill="#ffffff" stroke="transparent" points="8,-172.5623 8,-343.5623 182,-343.5623 182,-172.5623 8,-172.5623"/>
<polygon fill="#f5f5f5" stroke="transparent" points="8,-320.0623 8,-343.0623 182,-343.0623 182,-320.0623 8,-320.0623"/>
<polygon fill="none" stroke="#000000" points="8,-320.0623 8,-343.0623 182,-343.0623 182,-320.0623 8,-320.0623"/>
<text text-anchor="start" x="13" y="-328.6623" font-family="Helvetica,sans-Serif" font-weight="bold" font-size="11.00" fill="#000000">act_re_procdef</text>
<text text-anchor="start" x="147.0437" y="-328.1623" font-family="Helvetica,sans-Serif" font-size="11.00" fill="#000000">[table]</text>
<polygon fill="none" stroke="#000000" points="8,-298.0623 8,-320.0623 182,-320.0623 182,-298.0623 8,-298.0623"/>
<image xlink:href="../../images/primaryKeys.png" width="11px" height="12px" preserveAspectRatio="xMinYMin meet" x="13" y="-315.062"/>
<text text-anchor="start" x="28" y="-305.1623" font-family="Helvetica,sans-Serif" font-size="11.00" fill="#000000">id_</text>
<polygon fill="#ffffff" stroke="transparent" points="8,-276.0623 8,-298.0623 182,-298.0623 182,-276.0623 8,-276.0623"/>
<polygon fill="none" stroke="#000000" points="8,-276.0623 8,-298.0623 182,-298.0623 182,-276.0623 8,-276.0623"/>
<text text-anchor="start" x="28" y="-283.1623" font-family="Helvetica,sans-Serif" font-size="11.00" fill="#000000">key_</text>
<polygon fill="#ffffff" stroke="transparent" points="8,-254.0623 8,-276.0623 182,-276.0623 182,-254.0623 8,-254.0623"/>
<polygon fill="none" stroke="#000000" points="8,-254.0623 8,-276.0623 182,-276.0623 182,-254.0623 8,-254.0623"/>
<text text-anchor="start" x="28" y="-261.1623" font-family="Helvetica,sans-Serif" font-size="11.00" fill="#000000">version_</text>
<polygon fill="#ffffff" stroke="transparent" points="8,-232.0623 8,-254.0623 182,-254.0623 182,-232.0623 8,-232.0623"/>
<polygon fill="none" stroke="#000000" points="8,-232.0623 8,-254.0623 182,-254.0623 182,-232.0623 8,-232.0623"/>
<text text-anchor="start" x="28" y="-239.1623" font-family="Helvetica,sans-Serif" font-size="11.00" fill="#000000">tenant_id_</text>
<polygon fill="#ffffff" stroke="transparent" points="8,-210.0623 8,-232.0623 182,-232.0623 182,-210.0623 8,-210.0623"/>
<polygon fill="none" stroke="#000000" points="8,-210.0623 8,-232.0623 182,-232.0623 182,-210.0623 8,-210.0623"/>
<text text-anchor="start" x="28" y="-217.1623" font-family="Helvetica,sans-Serif" font-size="11.00" fill="#000000">derived_version_</text>
<polygon fill="none" stroke="#000000" points="8,-191.0623 8,-210.0623 182,-210.0623 182,-191.0623 8,-191.0623"/>
<text text-anchor="start" x="11" y="-197.1623" font-family="Helvetica,sans-Serif" font-size="11.00" fill="#000000">...</text>
<polygon fill="#ffffff" stroke="transparent" points="8,-172.0623 8,-191.0623 182,-191.0623 182,-172.0623 8,-172.0623"/>
<polygon fill="none" stroke="#000000" points="8,-172.0623 8,-191.0623 182,-191.0623 182,-172.0623 8,-172.0623"/>
<polygon fill="#ffffff" stroke="transparent" points="9,-173.0623 9,-190.0623 64,-190.0623 64,-173.0623 9,-173.0623"/>
<text text-anchor="start" x="11" y="-178.1623" font-family="Helvetica,sans-Serif" font-size="11.00" fill="#000000"> &#160;</text>
<polygon fill="#ffffff" stroke="transparent" points="64,-173.0623 64,-190.0623 118,-190.0623 118,-173.0623 64,-173.0623"/>
<text text-anchor="start" x="87.9431" y="-178.1623" font-family="Helvetica,sans-Serif" font-size="11.00" fill="#000000"> &#160;</text>
<polygon fill="#ffffff" stroke="transparent" points="118,-173.0623 118,-190.0623 181,-190.0623 181,-173.0623 118,-173.0623"/>
<text text-anchor="start" x="163.4053" y="-178.1623" font-family="Helvetica,sans-Serif" font-size="11.00" fill="#000000">8 &gt;</text>
<polygon fill="#000000" stroke="#000000" points="64,-173.0623 64,-190.0623 64,-190.0623 64,-173.0623 64,-173.0623"/>
<polygon fill="#000000" stroke="#000000" points="118,-173.0623 118,-190.0623 118,-190.0623 118,-173.0623 118,-173.0623"/>
</a>
</g>
</g>
<!-- act_procdef_info&#45;&gt;act_re_procdef -->
<g id="edge3" class="edge">
<title>act_procdef_info:w&#45;&gt;act_re_procdef:e</title>
<path fill="none" stroke="#000000" d="M416.1976,-855.8268C269.9788,-849.3117 280.8833,-708.6523 223,-566.0623 201.247,-512.4759 239.8333,-309.0623 182,-309.0623"/>
<polygon fill="#000000" stroke="#000000" points="426.2874,-852.0458 426.113,-860.0439 424.5134,-860.009 424.6878,-852.0109 426.2874,-852.0458"/>
<polyline fill="none" stroke="#000000" points="427,-856.0623 423.0009,-855.9751 "/>
<ellipse fill="none" stroke="#000000" cx="419.8017" cy="-855.9053" rx="3.2" ry="3.2"/>
</g>
<!-- act_re_model -->
<g id="node5" class="node">
<title>act_re_model</title>
<g id="a_node5"><a xlink:href="../../tables/act_re_model.html" xlink:title="act_re_model" target="_top">
<polygon fill="#ffffff" stroke="transparent" points="459,-697.5623 459,-758.5623 581,-758.5623 581,-697.5623 459,-697.5623"/>
<polygon fill="#f5f5f5" stroke="transparent" points="459,-735.0623 459,-758.0623 581,-758.0623 581,-735.0623 459,-735.0623"/>
<polygon fill="none" stroke="#000000" points="459,-735.0623 459,-758.0623 581,-758.0623 581,-735.0623 459,-735.0623"/>
<text text-anchor="start" x="464" y="-743.6623" font-family="Helvetica,sans-Serif" font-weight="bold" font-size="11.00" fill="#000000">act_re_model</text>
<text text-anchor="start" x="546.5219" y="-743.1623" font-family="Helvetica,sans-Serif" font-size="11.00" fill="#000000">[table]</text>
<polygon fill="none" stroke="#000000" points="459,-716.0623 459,-735.0623 581,-735.0623 581,-716.0623 459,-716.0623"/>
<text text-anchor="start" x="462" y="-722.1623" font-family="Helvetica,sans-Serif" font-size="11.00" fill="#000000">...</text>
<polygon fill="#ffffff" stroke="transparent" points="459,-697.0623 459,-716.0623 581,-716.0623 581,-697.0623 459,-697.0623"/>
<polygon fill="none" stroke="#000000" points="459,-697.0623 459,-716.0623 581,-716.0623 581,-697.0623 459,-697.0623"/>
<polygon fill="#ffffff" stroke="transparent" points="460,-698.0623 460,-715.0623 506,-715.0623 506,-698.0623 460,-698.0623"/>
<text text-anchor="start" x="462" y="-703.1623" font-family="Helvetica,sans-Serif" font-size="11.00" fill="#000000">&lt; 3</text>
<polygon fill="#ffffff" stroke="transparent" points="506,-698.0623 506,-715.0623 543,-715.0623 543,-698.0623 506,-698.0623"/>
<text text-anchor="start" x="521.4431" y="-703.1623" font-family="Helvetica,sans-Serif" font-size="11.00" fill="#000000"> &#160;</text>
<polygon fill="#ffffff" stroke="transparent" points="543,-698.0623 543,-715.0623 580,-715.0623 580,-698.0623 543,-698.0623"/>
<text text-anchor="start" x="571.8862" y="-703.1623" font-family="Helvetica,sans-Serif" font-size="11.00" fill="#000000"> &#160;</text>
<polygon fill="#000000" stroke="#000000" points="506,-698.0623 506,-715.0623 506,-715.0623 506,-698.0623 506,-698.0623"/>
<polygon fill="#000000" stroke="#000000" points="543,-698.0623 543,-715.0623 543,-715.0623 543,-698.0623 543,-698.0623"/>
</a>
</g>
</g>
<!-- act_re_model&#45;&gt;act_ge_bytearray -->
<g id="edge5" class="edge">
<title>act_re_model:w&#45;&gt;act_ge_bytearray:e</title>
<path fill="none" stroke="#000000" d="M445.1832,-719.7061C431.5861,-711.699 426.8645,-698.0757 417,-681.0623 374.7813,-608.2469 460.6694,-496.0623 376.5,-502.0623"/>
<polygon fill="#000000" stroke="#000000" points="451.5409,-722.1706 457.6988,-728.4189 455.2704,-723.6165 459,-725.0623 459,-725.0623 459,-725.0623 455.2704,-723.6165 460.3012,-721.7056 451.5409,-722.1706 451.5409,-722.1706"/>
<ellipse fill="none" stroke="#000000" cx="448.5572" cy="-721.014" rx="3.2" ry="3.2"/>
</g>
<!-- act_re_model&#45;&gt;act_ge_bytearray -->
<g id="edge6" class="edge">
<title>act_re_model:w&#45;&gt;act_ge_bytearray:e</title>
<path fill="none" stroke="#000000" d="M444.3779,-726.3846C431.3952,-724.1527 426.6672,-710.7355 417,-694.0623 374.7813,-621.2469 460.6694,-509.0623 376.5,-502.0623"/>
<polygon fill="#000000" stroke="#000000" points="451.0325,-725.7829 459.3243,-728.6476 455.0163,-725.4226 459,-725.0623 459,-725.0623 459,-725.0623 455.0163,-725.4226 458.6757,-721.4769 451.0325,-725.7829 451.0325,-725.7829"/>
<ellipse fill="none" stroke="#000000" cx="447.8455" cy="-726.0711" rx="3.2" ry="3.2"/>
</g>
<!-- act_re_model&#45;&gt;act_re_deployment -->
<g id="edge4" class="edge">
<title>act_re_model:w&#45;&gt;act_re_deployment:e</title>
<path fill="none" stroke="#000000" d="M444.2866,-724.4938C314.4988,-714.2172 313.5305,-568.0623 174,-568.0623"/>
<polygon fill="#000000" stroke="#000000" points="451.006,-724.7533 458.861,-728.6596 455.003,-724.9078 459,-725.0623 459,-725.0623 459,-725.0623 455.003,-724.9078 459.139,-721.4649 451.006,-724.7533 451.006,-724.7533"/>
<ellipse fill="none" stroke="#000000" cx="447.8084" cy="-724.6298" rx="3.2" ry="3.2"/>
</g>
<!-- act_ru_deadletter_job -->
<g id="node6" class="node">
<title>act_ru_deadletter_job</title>
<g id="a_node6"><a xlink:href="../../tables/act_ru_deadletter_job.html" xlink:title="act_ru_deadletter_job" target="_top">
<polygon fill="#ffffff" stroke="transparent" points="433,-533.5623 433,-594.5623 607,-594.5623 607,-533.5623 433,-533.5623"/>
<polygon fill="#f5f5f5" stroke="transparent" points="433,-571.0623 433,-594.0623 607,-594.0623 607,-571.0623 433,-571.0623"/>
<polygon fill="none" stroke="#000000" points="433,-571.0623 433,-594.0623 607,-594.0623 607,-571.0623 433,-571.0623"/>
<text text-anchor="start" x="438" y="-579.6623" font-family="Helvetica,sans-Serif" font-weight="bold" font-size="11.00" fill="#000000">act_ru_deadletter_job</text>
<text text-anchor="start" x="572.5219" y="-579.1623" font-family="Helvetica,sans-Serif" font-size="11.00" fill="#000000">[table]</text>
<polygon fill="none" stroke="#000000" points="433,-552.0623 433,-571.0623 607,-571.0623 607,-552.0623 433,-552.0623"/>
<text text-anchor="start" x="436" y="-558.1623" font-family="Helvetica,sans-Serif" font-size="11.00" fill="#000000">...</text>
<polygon fill="#ffffff" stroke="transparent" points="433,-533.0623 433,-552.0623 607,-552.0623 607,-533.0623 433,-533.0623"/>
<polygon fill="none" stroke="#000000" points="433,-533.0623 433,-552.0623 607,-552.0623 607,-533.0623 433,-533.0623"/>
<polygon fill="#ffffff" stroke="transparent" points="434,-534.0623 434,-551.0623 498,-551.0623 498,-534.0623 434,-534.0623"/>
<text text-anchor="start" x="436" y="-539.1623" font-family="Helvetica,sans-Serif" font-size="11.00" fill="#000000">&lt; 5</text>
<polygon fill="#ffffff" stroke="transparent" points="498,-534.0623 498,-551.0623 552,-551.0623 552,-534.0623 498,-534.0623"/>
<text text-anchor="start" x="521.9431" y="-539.1623" font-family="Helvetica,sans-Serif" font-size="11.00" fill="#000000"> &#160;</text>
<polygon fill="#ffffff" stroke="transparent" points="552,-534.0623 552,-551.0623 606,-551.0623 606,-534.0623 552,-534.0623"/>
<text text-anchor="start" x="597.8862" y="-539.1623" font-family="Helvetica,sans-Serif" font-size="11.00" fill="#000000"> &#160;</text>
<polygon fill="#000000" stroke="#000000" points="498,-534.0623 498,-551.0623 498,-551.0623 498,-534.0623 498,-534.0623"/>
<polygon fill="#000000" stroke="#000000" points="552,-534.0623 552,-551.0623 552,-551.0623 552,-534.0623 552,-534.0623"/>
</a>
</g>
</g>
<!-- act_ru_deadletter_job&#45;&gt;act_ge_bytearray -->
<g id="edge7" class="edge">
<title>act_ru_deadletter_job:w&#45;&gt;act_ge_bytearray:e</title>
<path fill="none" stroke="#000000" d="M419.6858,-555.0471C400.3863,-538.5943 407.2756,-496.9763 376.5,-502.0623"/>
<polygon fill="#000000" stroke="#000000" points="425.7095,-557.7685 431.5178,-564.343 429.3548,-559.4154 433,-561.0623 433,-561.0623 433,-561.0623 429.3548,-559.4154 434.4822,-557.7815 425.7095,-557.7685 425.7095,-557.7685"/>
<ellipse fill="none" stroke="#000000" cx="422.7933" cy="-556.451" rx="3.2" ry="3.2"/>
</g>
<!-- act_ru_deadletter_job&#45;&gt;act_ge_bytearray -->
<g id="edge8" class="edge">
<title>act_ru_deadletter_job:w&#45;&gt;act_ge_bytearray:e</title>
<path fill="none" stroke="#000000" d="M418.6449,-559.5625C400.6275,-549.709 406.7083,-507.8865 376.5,-502.0623"/>
<polygon fill="#000000" stroke="#000000" points="425.0433,-560.2309 432.6259,-564.6428 429.0217,-560.6466 433,-561.0623 433,-561.0623 433,-561.0623 429.0217,-560.6466 433.3741,-557.4817 425.0433,-560.2309 425.0433,-560.2309"/>
<ellipse fill="none" stroke="#000000" cx="421.8606" cy="-559.8984" rx="3.2" ry="3.2"/>
</g>
<!-- act_ru_deadletter_job&#45;&gt;act_re_procdef -->
<g id="edge10" class="edge">
<title>act_ru_deadletter_job:w&#45;&gt;act_re_procdef:e</title>
<path fill="none" stroke="#000000" d="M418.5424,-561.4336C363.8995,-563.7798 254.6245,-575.5569 223,-547.0623 183.1294,-511.1376 235.6679,-309.0623 182,-309.0623"/>
<polygon fill="#000000" stroke="#000000" points="425.0026,-561.2677 433.0925,-564.6611 429.0013,-561.165 433,-561.0623 433,-561.0623 433,-561.0623 429.0013,-561.165 432.9075,-557.4634 425.0026,-561.2677 425.0026,-561.2677"/>
<ellipse fill="none" stroke="#000000" cx="421.8037" cy="-561.3499" rx="3.2" ry="3.2"/>
</g>
<!-- act_ru_execution -->
<g id="node7" class="node">
<title>act_ru_execution</title>
<g id="a_node7"><a xlink:href="../../tables/act_ru_execution.html" xlink:title="act_ru_execution" target="_top">
<polygon fill="#ffffff" stroke="transparent" points="231,-307.5623 231,-368.5623 376,-368.5623 376,-307.5623 231,-307.5623"/>
<polygon fill="#f5f5f5" stroke="transparent" points="231.5,-345.0623 231.5,-368.0623 376.5,-368.0623 376.5,-345.0623 231.5,-345.0623"/>
<polygon fill="none" stroke="#000000" points="231.5,-345.0623 231.5,-368.0623 376.5,-368.0623 376.5,-345.0623 231.5,-345.0623"/>
<text text-anchor="start" x="236.5" y="-353.6623" font-family="Helvetica,sans-Serif" font-weight="bold" font-size="11.00" fill="#000000">act_ru_execution</text>
<text text-anchor="start" x="342.0219" y="-353.1623" font-family="Helvetica,sans-Serif" font-size="11.00" fill="#000000">[table]</text>
<polygon fill="none" stroke="#000000" points="231.5,-326.0623 231.5,-345.0623 376.5,-345.0623 376.5,-326.0623 231.5,-326.0623"/>
<text text-anchor="start" x="234.5" y="-332.1623" font-family="Helvetica,sans-Serif" font-size="11.00" fill="#000000">...</text>
<polygon fill="#ffffff" stroke="transparent" points="231.5,-307.0623 231.5,-326.0623 376.5,-326.0623 376.5,-307.0623 231.5,-307.0623"/>
<polygon fill="none" stroke="#000000" points="231.5,-307.0623 231.5,-326.0623 376.5,-326.0623 376.5,-307.0623 231.5,-307.0623"/>
<polygon fill="#ffffff" stroke="transparent" points="232.5,-308.0623 232.5,-325.0623 281.5,-325.0623 281.5,-308.0623 232.5,-308.0623"/>
<text text-anchor="start" x="234.5" y="-313.1623" font-family="Helvetica,sans-Serif" font-size="11.00" fill="#000000">&lt; 4</text>
<polygon fill="#ffffff" stroke="transparent" points="281.5,-308.0623 281.5,-325.0623 321.5,-325.0623 321.5,-308.0623 281.5,-308.0623"/>
<text text-anchor="start" x="298.4431" y="-313.1623" font-family="Helvetica,sans-Serif" font-size="11.00" fill="#000000"> &#160;</text>
<polygon fill="#ffffff" stroke="transparent" points="321.5,-308.0623 321.5,-325.0623 375.5,-325.0623 375.5,-308.0623 321.5,-308.0623"/>
<text text-anchor="start" x="351.7904" y="-313.1623" font-family="Helvetica,sans-Serif" font-size="11.00" fill="#000000">17 &gt;</text>
<polygon fill="#000000" stroke="#000000" points="281.5,-308.0623 281.5,-325.0623 281.5,-325.0623 281.5,-308.0623 281.5,-308.0623"/>
<polygon fill="#000000" stroke="#000000" points="321.5,-308.0623 321.5,-325.0623 321.5,-325.0623 321.5,-308.0623 321.5,-308.0623"/>
</a>
</g>
</g>
<!-- act_ru_deadletter_job&#45;&gt;act_ru_execution -->
<g id="edge9" class="edge">
<title>act_ru_deadletter_job:w&#45;&gt;act_ru_execution:e</title>
<path fill="none" stroke="#000000" d="M418.6657,-558.3439C344.6382,-531.8715 474.5759,-329.3787 376.5,-335.0623"/>
<polygon fill="#000000" stroke="#000000" points="425.1401,-559.5717 432.3292,-564.5992 429.07,-560.317 433,-561.0623 433,-561.0623 433,-561.0623 429.07,-560.317 433.6708,-557.5253 425.1401,-559.5717 425.1401,-559.5717"/>
<ellipse fill="none" stroke="#000000" cx="421.9961" cy="-558.9754" rx="3.2" ry="3.2"/>
</g>
<!-- act_ru_deadletter_job&#45;&gt;act_ru_execution -->
<g id="edge11" class="edge">
<title>act_ru_deadletter_job:w&#45;&gt;act_ru_execution:e</title>
<path fill="none" stroke="#000000" d="M418.2104,-560.1941C345.173,-543.9985 474.3737,-341.6794 376.5,-335.0623"/>
<polygon fill="#000000" stroke="#000000" points="425.0137,-560.5934 432.789,-564.6561 429.0069,-560.8278 433,-561.0623 433,-561.0623 433,-561.0623 429.0069,-560.8278 433.211,-557.4684 425.0137,-560.5934 425.0137,-560.5934"/>
<ellipse fill="none" stroke="#000000" cx="421.8192" cy="-560.4059" rx="3.2" ry="3.2"/>
</g>
<!-- act_ru_execution&#45;&gt;act_re_procdef -->
<g id="edge12" class="edge">
<title>act_ru_execution:w&#45;&gt;act_re_procdef:e</title>
<path fill="none" stroke="#000000" d="M217.5104,-331.4471C205.3677,-324.303 201.0259,-309.0623 182,-309.0623"/>
<polygon fill="#000000" stroke="#000000" points="223.7544,-333.0606 230.5993,-338.5478 227.6272,-334.0614 231.5,-335.0623 231.5,-335.0623 231.5,-335.0623 227.6272,-334.0614 232.4007,-331.5768 223.7544,-333.0606 223.7544,-333.0606"/>
<ellipse fill="none" stroke="#000000" cx="220.6562" cy="-332.26" rx="3.2" ry="3.2"/>
</g>
<!-- act_ru_external_job -->
<g id="node8" class="node">
<title>act_ru_external_job</title>
<g id="a_node8"><a xlink:href="../../tables/act_ru_external_job.html" xlink:title="act_ru_external_job" target="_top">
<polygon fill="#ffffff" stroke="transparent" points="439.5,-615.5623 439.5,-676.5623 600.5,-676.5623 600.5,-615.5623 439.5,-615.5623"/>
<polygon fill="#f5f5f5" stroke="transparent" points="440,-653.0623 440,-676.0623 601,-676.0623 601,-653.0623 440,-653.0623"/>
<polygon fill="none" stroke="#000000" points="440,-653.0623 440,-676.0623 601,-676.0623 601,-653.0623 440,-653.0623"/>
<text text-anchor="start" x="445" y="-661.6623" font-family="Helvetica,sans-Serif" font-weight="bold" font-size="11.00" fill="#000000">act_ru_external_job</text>
<text text-anchor="start" x="566.5219" y="-661.1623" font-family="Helvetica,sans-Serif" font-size="11.00" fill="#000000">[table]</text>
<polygon fill="none" stroke="#000000" points="440,-634.0623 440,-653.0623 601,-653.0623 601,-634.0623 440,-634.0623"/>
<text text-anchor="start" x="443" y="-640.1623" font-family="Helvetica,sans-Serif" font-size="11.00" fill="#000000">...</text>
<polygon fill="#ffffff" stroke="transparent" points="440,-615.0623 440,-634.0623 601,-634.0623 601,-615.0623 440,-615.0623"/>
<polygon fill="none" stroke="#000000" points="440,-615.0623 440,-634.0623 601,-634.0623 601,-615.0623 440,-615.0623"/>
<polygon fill="#ffffff" stroke="transparent" points="441,-616.0623 441,-633.0623 500,-633.0623 500,-616.0623 441,-616.0623"/>
<text text-anchor="start" x="443" y="-621.1623" font-family="Helvetica,sans-Serif" font-size="11.00" fill="#000000">&lt; 2</text>
<polygon fill="#ffffff" stroke="transparent" points="500,-616.0623 500,-633.0623 550,-633.0623 550,-616.0623 500,-616.0623"/>
<text text-anchor="start" x="521.9431" y="-621.1623" font-family="Helvetica,sans-Serif" font-size="11.00" fill="#000000"> &#160;</text>
<polygon fill="#ffffff" stroke="transparent" points="550,-616.0623 550,-633.0623 600,-633.0623 600,-616.0623 550,-616.0623"/>
<text text-anchor="start" x="591.8862" y="-621.1623" font-family="Helvetica,sans-Serif" font-size="11.00" fill="#000000"> &#160;</text>
<polygon fill="#000000" stroke="#000000" points="500,-616.0623 500,-633.0623 500,-633.0623 500,-616.0623 500,-616.0623"/>
<polygon fill="#000000" stroke="#000000" points="550,-616.0623 550,-633.0623 550,-633.0623 550,-616.0623 550,-616.0623"/>
</a>
</g>
</g>
<!-- act_ru_external_job&#45;&gt;act_ge_bytearray -->
<g id="edge13" class="edge">
<title>act_ru_external_job:w&#45;&gt;act_ge_bytearray:e</title>
<path fill="none" stroke="#000000" d="M426.0874,-639.1686C382.2012,-615.4229 439.7248,-496.5427 376.5,-502.0623"/>
<polygon fill="#000000" stroke="#000000" points="432.296,-640.9061 439.0297,-646.529 436.148,-641.9842 440,-643.0623 440,-643.0623 440,-643.0623 436.148,-641.9842 440.9703,-639.5955 432.296,-640.9061 432.296,-640.9061"/>
<ellipse fill="none" stroke="#000000" cx="429.2144" cy="-640.0437" rx="3.2" ry="3.2"/>
</g>
<!-- act_ru_external_job&#45;&gt;act_ge_bytearray -->
<g id="edge14" class="edge">
<title>act_ru_external_job:w&#45;&gt;act_ge_bytearray:e</title>
<path fill="none" stroke="#000000" d="M425.5338,-641.8613C382.6876,-627.3238 439.4564,-508.4744 376.5,-502.0623"/>
<polygon fill="#000000" stroke="#000000" points="432.0274,-642.4003 439.7021,-646.6499 436.0137,-642.7313 440,-643.0623 440,-643.0623 440,-643.0623 436.0137,-642.7313 440.2979,-639.4746 432.0274,-642.4003 432.0274,-642.4003"/>
<ellipse fill="none" stroke="#000000" cx="428.8384" cy="-642.1356" rx="3.2" ry="3.2"/>
</g>
<!-- act_ru_identitylink -->
<g id="node9" class="node">
<title>act_ru_identitylink</title>
<g id="a_node9"><a xlink:href="../../tables/act_ru_identitylink.html" xlink:title="act_ru_identitylink" target="_top">
<polygon fill="#ffffff" stroke="transparent" points="664,-95.5623 664,-156.5623 817,-156.5623 817,-95.5623 664,-95.5623"/>
<polygon fill="#f5f5f5" stroke="transparent" points="664.5,-133.0623 664.5,-156.0623 817.5,-156.0623 817.5,-133.0623 664.5,-133.0623"/>
<polygon fill="none" stroke="#000000" points="664.5,-133.0623 664.5,-156.0623 817.5,-156.0623 817.5,-133.0623 664.5,-133.0623"/>
<text text-anchor="start" x="669.5" y="-141.6623" font-family="Helvetica,sans-Serif" font-weight="bold" font-size="11.00" fill="#000000">act_ru_identitylink</text>
<text text-anchor="start" x="783.0219" y="-141.1623" font-family="Helvetica,sans-Serif" font-size="11.00" fill="#000000">[table]</text>
<polygon fill="none" stroke="#000000" points="664.5,-114.0623 664.5,-133.0623 817.5,-133.0623 817.5,-114.0623 664.5,-114.0623"/>
<text text-anchor="start" x="667.5" y="-120.1623" font-family="Helvetica,sans-Serif" font-size="11.00" fill="#000000">...</text>
<polygon fill="#ffffff" stroke="transparent" points="664.5,-95.0623 664.5,-114.0623 817.5,-114.0623 817.5,-95.0623 664.5,-95.0623"/>
<polygon fill="none" stroke="#000000" points="664.5,-95.0623 664.5,-114.0623 817.5,-114.0623 817.5,-95.0623 664.5,-95.0623"/>
<polygon fill="#ffffff" stroke="transparent" points="665.5,-96.0623 665.5,-113.0623 722.5,-113.0623 722.5,-96.0623 665.5,-96.0623"/>
<text text-anchor="start" x="667.5" y="-101.1623" font-family="Helvetica,sans-Serif" font-size="11.00" fill="#000000">&lt; 3</text>
<polygon fill="#ffffff" stroke="transparent" points="722.5,-96.0623 722.5,-113.0623 769.5,-113.0623 769.5,-96.0623 722.5,-96.0623"/>
<text text-anchor="start" x="742.9431" y="-101.1623" font-family="Helvetica,sans-Serif" font-size="11.00" fill="#000000"> &#160;</text>
<polygon fill="#ffffff" stroke="transparent" points="769.5,-96.0623 769.5,-113.0623 816.5,-113.0623 816.5,-96.0623 769.5,-96.0623"/>
<text text-anchor="start" x="808.3862" y="-101.1623" font-family="Helvetica,sans-Serif" font-size="11.00" fill="#000000"> &#160;</text>
<polygon fill="#000000" stroke="#000000" points="722.5,-96.0623 722.5,-113.0623 722.5,-113.0623 722.5,-96.0623 722.5,-96.0623"/>
<polygon fill="#000000" stroke="#000000" points="769.5,-96.0623 769.5,-113.0623 769.5,-113.0623 769.5,-96.0623 769.5,-96.0623"/>
</a>
</g>
</g>
<!-- act_ru_identitylink&#45;&gt;act_re_procdef -->
<g id="edge15" class="edge">
<title>act_ru_identitylink:w&#45;&gt;act_re_procdef:e</title>
<path fill="none" stroke="#000000" d="M650.7431,-118.3988C641.0176,-109.8347 640.4824,-91.8571 623,-85.0623 456.3433,-20.2879 349.7249,-1.9236 223,-128.0623 164.541,-186.2508 264.4825,-309.0623 182,-309.0623"/>
<polygon fill="#000000" stroke="#000000" points="656.9235,-120.4939 663.3442,-126.4717 660.7117,-121.7781 664.5,-123.0623 664.5,-123.0623 664.5,-123.0623 660.7117,-121.7781 665.6558,-119.6528 656.9235,-120.4939 656.9235,-120.4939"/>
<ellipse fill="none" stroke="#000000" cx="653.8929" cy="-119.4665" rx="3.2" ry="3.2"/>
</g>
<!-- act_ru_identitylink&#45;&gt;act_ru_execution -->
<g id="edge16" class="edge">
<title>act_ru_identitylink:w&#45;&gt;act_ru_execution:e</title>
<path fill="none" stroke="#000000" d="M650.6665,-127.6295C640.1491,-136.8593 641.304,-157.6522 623,-167.0623 540.8258,-209.3078 486.9413,-134.6843 417,-195.0623 367.969,-237.3891 441.2735,-335.0623 376.5,-335.0623"/>
<polygon fill="#000000" stroke="#000000" points="656.9033,-125.5704 665.6287,-126.4808 660.7017,-124.3163 664.5,-123.0623 664.5,-123.0623 664.5,-123.0623 660.7017,-124.3163 663.3713,-119.6438 656.9033,-125.5704 656.9033,-125.5704"/>
<ellipse fill="none" stroke="#000000" cx="653.8647" cy="-126.5737" rx="3.2" ry="3.2"/>
</g>
<!-- act_ru_task -->
<g id="node10" class="node">
<title>act_ru_task</title>
<g id="a_node10"><a xlink:href="../../tables/act_ru_task.html" xlink:title="act_ru_task" target="_top">
<polygon fill="#ffffff" stroke="transparent" points="464.5,-95.5623 464.5,-156.5623 575.5,-156.5623 575.5,-95.5623 464.5,-95.5623"/>
<polygon fill="#f5f5f5" stroke="transparent" points="465,-133.0623 465,-156.0623 576,-156.0623 576,-133.0623 465,-133.0623"/>
<polygon fill="none" stroke="#000000" points="465,-133.0623 465,-156.0623 576,-156.0623 576,-133.0623 465,-133.0623"/>
<text text-anchor="start" x="470" y="-141.6623" font-family="Helvetica,sans-Serif" font-weight="bold" font-size="11.00" fill="#000000">act_ru_task</text>
<text text-anchor="start" x="541.5219" y="-141.1623" font-family="Helvetica,sans-Serif" font-size="11.00" fill="#000000">[table]</text>
<polygon fill="none" stroke="#000000" points="465,-114.0623 465,-133.0623 576,-133.0623 576,-114.0623 465,-114.0623"/>
<text text-anchor="start" x="468" y="-120.1623" font-family="Helvetica,sans-Serif" font-size="11.00" fill="#000000">...</text>
<polygon fill="#ffffff" stroke="transparent" points="465,-95.0623 465,-114.0623 576,-114.0623 576,-95.0623 465,-95.0623"/>
<polygon fill="none" stroke="#000000" points="465,-95.0623 465,-114.0623 576,-114.0623 576,-95.0623 465,-95.0623"/>
<polygon fill="#ffffff" stroke="transparent" points="466,-96.0623 466,-113.0623 506,-113.0623 506,-96.0623 466,-96.0623"/>
<text text-anchor="start" x="468" y="-101.1623" font-family="Helvetica,sans-Serif" font-size="11.00" fill="#000000">&lt; 3</text>
<polygon fill="#ffffff" stroke="transparent" points="506,-96.0623 506,-113.0623 536,-113.0623 536,-96.0623 506,-96.0623"/>
<text text-anchor="start" x="517.9431" y="-101.1623" font-family="Helvetica,sans-Serif" font-size="11.00" fill="#000000"> &#160;</text>
<polygon fill="#ffffff" stroke="transparent" points="536,-96.0623 536,-113.0623 575,-113.0623 575,-96.0623 536,-96.0623"/>
<text text-anchor="start" x="557.4053" y="-101.1623" font-family="Helvetica,sans-Serif" font-size="11.00" fill="#000000">1 &gt;</text>
<polygon fill="#000000" stroke="#000000" points="506,-96.0623 506,-113.0623 506,-113.0623 506,-96.0623 506,-96.0623"/>
<polygon fill="#000000" stroke="#000000" points="536,-96.0623 536,-113.0623 536,-113.0623 536,-96.0623 536,-96.0623"/>
</a>
</g>
</g>
<!-- act_ru_identitylink&#45;&gt;act_ru_task -->
<g id="edge17" class="edge">
<title>act_ru_identitylink:w&#45;&gt;act_ru_task:e</title>
<path fill="none" stroke="#000000" d="M649.8707,-123.0623C621.9265,-123.0623 609.9557,-123.0623 576,-123.0623"/>
<polygon fill="#000000" stroke="#000000" points="656.5,-123.0623 664.5,-126.6623 660.5,-123.0623 664.5,-123.0623 664.5,-123.0623 664.5,-123.0623 660.5,-123.0623 664.5,-119.4623 656.5,-123.0623 656.5,-123.0623"/>
<ellipse fill="none" stroke="#000000" cx="653.3" cy="-123.0623" rx="3.2" ry="3.2"/>
</g>
<!-- act_ru_task&#45;&gt;act_re_procdef -->
<g id="edge29" class="edge">
<title>act_ru_task:w&#45;&gt;act_re_procdef:e</title>
<path fill="none" stroke="#000000" d="M450.5735,-123.2093C343.9186,-125.4598 305.3053,-153.8777 223,-231.0623 194.4324,-257.8525 221.1641,-309.0623 182,-309.0623"/>
<polygon fill="#000000" stroke="#000000" points="457.0004,-123.1438 465.0367,-126.6621 461.0002,-123.103 465,-123.0623 465,-123.0623 465,-123.0623 461.0002,-123.103 464.9633,-119.4624 457.0004,-123.1438 457.0004,-123.1438"/>
<ellipse fill="none" stroke="#000000" cx="453.8006" cy="-123.1765" rx="3.2" ry="3.2"/>
</g>
<!-- act_ru_task&#45;&gt;act_ru_execution -->
<g id="edge28" class="edge">
<title>act_ru_task:w&#45;&gt;act_ru_execution:e</title>
<path fill="none" stroke="#000000" d="M450.1408,-122.5468C433.206,-125.7221 428.9311,-143.919 417,-165.0623 380.1027,-230.4487 451.5786,-329.0623 376.5,-335.0623"/>
<polygon fill="#000000" stroke="#000000" points="457.0048,-122.7849 464.8752,-126.6601 461.0024,-122.9236 465,-123.0623 465,-123.0623 465,-123.0623 461.0024,-122.9236 465.1248,-119.4644 457.0048,-122.7849 457.0048,-122.7849"/>
<ellipse fill="none" stroke="#000000" cx="453.8067" cy="-122.6739" rx="3.2" ry="3.2"/>
</g>
<!-- act_ru_task&#45;&gt;act_ru_execution -->
<g id="edge30" class="edge">
<title>act_ru_task:w&#45;&gt;act_ru_execution:e</title>
<path fill="none" stroke="#000000" d="M451.3966,-128.0634C433.409,-137.8405 429.2207,-156.4058 417,-178.0623 380.1027,-243.4487 451.5786,-342.0623 376.5,-335.0623"/>
<polygon fill="#000000" stroke="#000000" points="457.4913,-125.8227 466.2422,-126.4412 461.2457,-124.4425 465,-123.0623 465,-123.0623 465,-123.0623 461.2457,-124.4425 463.7578,-119.6834 457.4913,-125.8227 457.4913,-125.8227"/>
<ellipse fill="none" stroke="#000000" cx="454.4879" cy="-126.9269" rx="3.2" ry="3.2"/>
</g>
<!-- act_ru_job -->
<g id="node11" class="node">
<title>act_ru_job</title>
<g id="a_node11"><a xlink:href="../../tables/act_ru_job.html" xlink:title="act_ru_job" target="_top">
<polygon fill="#ffffff" stroke="transparent" points="468,-451.5623 468,-512.5623 572,-512.5623 572,-451.5623 468,-451.5623"/>
<polygon fill="#f5f5f5" stroke="transparent" points="468,-489.0623 468,-512.0623 572,-512.0623 572,-489.0623 468,-489.0623"/>
<polygon fill="none" stroke="#000000" points="468,-489.0623 468,-512.0623 572,-512.0623 572,-489.0623 468,-489.0623"/>
<text text-anchor="start" x="473" y="-497.6623" font-family="Helvetica,sans-Serif" font-weight="bold" font-size="11.00" fill="#000000">act_ru_job</text>
<text text-anchor="start" x="537.5219" y="-497.1623" font-family="Helvetica,sans-Serif" font-size="11.00" fill="#000000">[table]</text>
<polygon fill="none" stroke="#000000" points="468,-470.0623 468,-489.0623 572,-489.0623 572,-470.0623 468,-470.0623"/>
<text text-anchor="start" x="471" y="-476.1623" font-family="Helvetica,sans-Serif" font-size="11.00" fill="#000000">...</text>
<polygon fill="#ffffff" stroke="transparent" points="468,-451.0623 468,-470.0623 572,-470.0623 572,-451.0623 468,-451.0623"/>
<polygon fill="none" stroke="#000000" points="468,-451.0623 468,-470.0623 572,-470.0623 572,-451.0623 468,-451.0623"/>
<polygon fill="#ffffff" stroke="transparent" points="469,-452.0623 469,-469.0623 509,-469.0623 509,-452.0623 469,-452.0623"/>
<text text-anchor="start" x="471" y="-457.1623" font-family="Helvetica,sans-Serif" font-size="11.00" fill="#000000">&lt; 5</text>
<polygon fill="#ffffff" stroke="transparent" points="509,-452.0623 509,-469.0623 540,-469.0623 540,-452.0623 509,-452.0623"/>
<text text-anchor="start" x="521.4431" y="-457.1623" font-family="Helvetica,sans-Serif" font-size="11.00" fill="#000000"> &#160;</text>
<polygon fill="#ffffff" stroke="transparent" points="540,-452.0623 540,-469.0623 571,-469.0623 571,-452.0623 540,-452.0623"/>
<text text-anchor="start" x="562.8862" y="-457.1623" font-family="Helvetica,sans-Serif" font-size="11.00" fill="#000000"> &#160;</text>
<polygon fill="#000000" stroke="#000000" points="509,-452.0623 509,-469.0623 509,-469.0623 509,-452.0623 509,-452.0623"/>
<polygon fill="#000000" stroke="#000000" points="540,-452.0623 540,-469.0623 540,-469.0623 540,-452.0623 540,-452.0623"/>
</a>
</g>
</g>
<!-- act_ru_job&#45;&gt;act_ge_bytearray -->
<g id="edge18" class="edge">
<title>act_ru_job:w&#45;&gt;act_ge_bytearray:e</title>
<path fill="none" stroke="#000000" d="M453.3469,-478.0891C423.5296,-478.7095 413.0265,-496.8357 376.5,-502.0623"/>
<polygon fill="#000000" stroke="#000000" points="460.0176,-478.5321 467.7614,-482.6543 464.0088,-478.7972 468,-479.0623 468,-479.0623 468,-479.0623 464.0088,-478.7972 468.2386,-475.4702 460.0176,-478.5321 460.0176,-478.5321"/>
<ellipse fill="none" stroke="#000000" cx="456.8246" cy="-478.32" rx="3.2" ry="3.2"/>
</g>
<!-- act_ru_job&#45;&gt;act_ge_bytearray -->
<g id="edge19" class="edge">
<title>act_ru_job:w&#45;&gt;act_ge_bytearray:e</title>
<path fill="none" stroke="#000000" d="M453.7492,-482.3474C423.6233,-491.3435 413.1903,-508.1873 376.5,-502.0623"/>
<polygon fill="#000000" stroke="#000000" points="460.2045,-480.8594 468.8087,-482.5703 464.1022,-479.9608 468,-479.0623 468,-479.0623 468,-479.0623 464.1022,-479.9608 467.1913,-475.5543 460.2045,-480.8594 460.2045,-480.8594"/>
<ellipse fill="none" stroke="#000000" cx="457.0862" cy="-481.5782" rx="3.2" ry="3.2"/>
</g>
<!-- act_ru_job&#45;&gt;act_re_procdef -->
<g id="edge21" class="edge">
<title>act_ru_job:w&#45;&gt;act_re_procdef:e</title>
<path fill="none" stroke="#000000" d="M453.4662,-477.4476C422.6211,-469.8894 420.2487,-437.6754 384,-421.0623 316.7738,-390.2518 281.9571,-423.7019 223,-379.0623 194.2552,-357.298 218.0548,-309.0623 182,-309.0623"/>
<polygon fill="#000000" stroke="#000000" points="460.0489,-478.1789 467.6025,-482.6402 464.0245,-478.6206 468,-479.0623 468,-479.0623 468,-479.0623 464.0245,-478.6206 468.3975,-475.4843 460.0489,-478.1789 460.0489,-478.1789"/>
<ellipse fill="none" stroke="#000000" cx="456.8685" cy="-477.8255" rx="3.2" ry="3.2"/>
</g>
<!-- act_ru_job&#45;&gt;act_ru_execution -->
<g id="edge20" class="edge">
<title>act_ru_job:w&#45;&gt;act_ru_execution:e</title>
<path fill="none" stroke="#000000" d="M454.2584,-474.7054C437.2039,-467.0165 430.8571,-453.3777 417,-435.0623 386.5713,-394.8435 426.9327,-329.0623 376.5,-335.0623"/>
<polygon fill="#000000" stroke="#000000" points="460.3741,-476.6444 466.912,-482.4939 464.1871,-477.8533 468,-479.0623 468,-479.0623 468,-479.0623 464.1871,-477.8533 469.088,-475.6306 460.3741,-476.6444 460.3741,-476.6444"/>
<ellipse fill="none" stroke="#000000" cx="457.3238" cy="-475.6772" rx="3.2" ry="3.2"/>
</g>
<!-- act_ru_job&#45;&gt;act_ru_execution -->
<g id="edge22" class="edge">
<title>act_ru_job:w&#45;&gt;act_ru_execution:e</title>
<path fill="none" stroke="#000000" d="M453.2862,-480.6769C436.957,-479.4902 430.5906,-466.0254 417,-448.0623 386.5713,-407.8435 426.9327,-342.0623 376.5,-335.0623"/>
<polygon fill="#000000" stroke="#000000" points="460.0477,-479.935 468.3927,-482.6408 464.0239,-479.4986 468,-479.0623 468,-479.0623 468,-479.0623 464.0239,-479.4986 467.6073,-475.4837 460.0477,-479.935 460.0477,-479.935"/>
<ellipse fill="none" stroke="#000000" cx="456.8668" cy="-480.284" rx="3.2" ry="3.2"/>
</g>
<!-- act_ru_suspended_job -->
<g id="node12" class="node">
<title>act_ru_suspended_job</title>
<g id="a_node12"><a xlink:href="../../tables/act_ru_suspended_job.html" xlink:title="act_ru_suspended_job" target="_top">
<polygon fill="#ffffff" stroke="transparent" points="430,-287.5623 430,-348.5623 610,-348.5623 610,-287.5623 430,-287.5623"/>
<polygon fill="#f5f5f5" stroke="transparent" points="430,-325.0623 430,-348.0623 610,-348.0623 610,-325.0623 430,-325.0623"/>
<polygon fill="none" stroke="#000000" points="430,-325.0623 430,-348.0623 610,-348.0623 610,-325.0623 430,-325.0623"/>
<text text-anchor="start" x="435" y="-333.6623" font-family="Helvetica,sans-Serif" font-weight="bold" font-size="11.00" fill="#000000">act_ru_suspended_job</text>
<text text-anchor="start" x="575.5219" y="-333.1623" font-family="Helvetica,sans-Serif" font-size="11.00" fill="#000000">[table]</text>
<polygon fill="none" stroke="#000000" points="430,-306.0623 430,-325.0623 610,-325.0623 610,-306.0623 430,-306.0623"/>
<text text-anchor="start" x="433" y="-312.1623" font-family="Helvetica,sans-Serif" font-size="11.00" fill="#000000">...</text>
<polygon fill="#ffffff" stroke="transparent" points="430,-287.0623 430,-306.0623 610,-306.0623 610,-287.0623 430,-287.0623"/>
<polygon fill="none" stroke="#000000" points="430,-287.0623 430,-306.0623 610,-306.0623 610,-287.0623 430,-287.0623"/>
<polygon fill="#ffffff" stroke="transparent" points="431,-288.0623 431,-305.0623 497,-305.0623 497,-288.0623 431,-288.0623"/>
<text text-anchor="start" x="433" y="-293.1623" font-family="Helvetica,sans-Serif" font-size="11.00" fill="#000000">&lt; 5</text>
<polygon fill="#ffffff" stroke="transparent" points="497,-288.0623 497,-305.0623 553,-305.0623 553,-288.0623 497,-288.0623"/>
<text text-anchor="start" x="521.9431" y="-293.1623" font-family="Helvetica,sans-Serif" font-size="11.00" fill="#000000"> &#160;</text>
<polygon fill="#ffffff" stroke="transparent" points="553,-288.0623 553,-305.0623 609,-305.0623 609,-288.0623 553,-288.0623"/>
<text text-anchor="start" x="600.8862" y="-293.1623" font-family="Helvetica,sans-Serif" font-size="11.00" fill="#000000"> &#160;</text>
<polygon fill="#000000" stroke="#000000" points="497,-288.0623 497,-305.0623 497,-305.0623 497,-288.0623 497,-288.0623"/>
<polygon fill="#000000" stroke="#000000" points="553,-288.0623 553,-305.0623 553,-305.0623 553,-288.0623 553,-288.0623"/>
</a>
</g>
</g>
<!-- act_ru_suspended_job&#45;&gt;act_ge_bytearray -->
<g id="edge23" class="edge">
<title>act_ru_suspended_job:w&#45;&gt;act_ge_bytearray:e</title>
<path fill="none" stroke="#000000" d="M415.381,-316.3107C358.5034,-333.1 457.2051,-496.4607 376.5,-502.0623"/>
<polygon fill="#000000" stroke="#000000" points="422.029,-315.743 430.3063,-318.6492 426.0145,-315.4026 430,-315.0623 430,-315.0623 430,-315.0623 426.0145,-315.4026 429.6937,-311.4753 422.029,-315.743 422.029,-315.743"/>
<ellipse fill="none" stroke="#000000" cx="418.8406" cy="-316.0153" rx="3.2" ry="3.2"/>
</g>
<!-- act_ru_suspended_job&#45;&gt;act_ge_bytearray -->
<g id="edge24" class="edge">
<title>act_ru_suspended_job:w&#45;&gt;act_ge_bytearray:e</title>
<path fill="none" stroke="#000000" d="M415.74,-318.5589C358.0896,-345.3618 457.3739,-508.6111 376.5,-502.0623"/>
<polygon fill="#000000" stroke="#000000" points="422.2302,-316.9675 430.8574,-318.5587 426.1151,-316.0149 430,-315.0623 430,-315.0623 430,-315.0623 426.1151,-316.0149 429.1426,-311.5658 422.2302,-316.9675 422.2302,-316.9675"/>
<ellipse fill="none" stroke="#000000" cx="419.1222" cy="-317.7296" rx="3.2" ry="3.2"/>
</g>
<!-- act_ru_suspended_job&#45;&gt;act_re_procdef -->
<g id="edge26" class="edge">
<title>act_ru_suspended_job:w&#45;&gt;act_re_procdef:e</title>
<path fill="none" stroke="#000000" d="M415.5718,-312.4242C405.2656,-308.1817 399.6743,-300.0198 384,-297.0623 313.6852,-283.7948 293.8316,-286.9096 223,-297.0623 204.2054,-299.7562 200.9867,-309.0623 182,-309.0623"/>
<polygon fill="#000000" stroke="#000000" points="422.1305,-313.6233 429.3525,-318.6035 426.0652,-314.3428 430,-315.0623 430,-315.0623 430,-315.0623 426.0652,-314.3428 430.6475,-311.521 422.1305,-313.6233 422.1305,-313.6233"/>
<ellipse fill="none" stroke="#000000" cx="418.9826" cy="-313.0477" rx="3.2" ry="3.2"/>
</g>
<!-- act_ru_suspended_job&#45;&gt;act_ru_execution -->
<g id="edge25" class="edge">
<title>act_ru_suspended_job:w&#45;&gt;act_ru_execution:e</title>
<path fill="none" stroke="#000000" d="M415.3013,-314.6132C402.0909,-317.6682 395.9353,-330.4685 376.5,-335.0623"/>
<polygon fill="#000000" stroke="#000000" points="422.0037,-314.8179 429.89,-318.6606 426.0019,-314.9401 430,-315.0623 430,-315.0623 430,-315.0623 426.0019,-314.9401 430.11,-311.4639 422.0037,-314.8179 422.0037,-314.8179"/>
<ellipse fill="none" stroke="#000000" cx="418.8052" cy="-314.7202" rx="3.2" ry="3.2"/>
</g>
<!-- act_ru_suspended_job&#45;&gt;act_ru_execution -->
<g id="edge27" class="edge">
<title>act_ru_suspended_job:w&#45;&gt;act_ru_execution:e</title>
<path fill="none" stroke="#000000" d="M416.5349,-320.8518C402.4553,-329.2984 396.5303,-340.5857 376.5,-335.0623"/>
<polygon fill="#000000" stroke="#000000" points="422.6506,-318.2223 431.422,-318.3695 426.3253,-316.6423 430,-315.0623 430,-315.0623 430,-315.0623 426.3253,-316.6423 428.578,-311.755 422.6506,-318.2223 422.6506,-318.2223"/>
<ellipse fill="none" stroke="#000000" cx="419.7108" cy="-319.4863" rx="3.2" ry="3.2"/>
</g>
<!-- act_ru_timer_job -->
<g id="node13" class="node">
<title>act_ru_timer_job</title>
<g id="a_node13"><a xlink:href="../../tables/act_ru_timer_job.html" xlink:title="act_ru_timer_job" target="_top">
<polygon fill="#ffffff" stroke="transparent" points="448.5,-205.5623 448.5,-266.5623 591.5,-266.5623 591.5,-205.5623 448.5,-205.5623"/>
<polygon fill="#f5f5f5" stroke="transparent" points="449,-243.0623 449,-266.0623 592,-266.0623 592,-243.0623 449,-243.0623"/>
<polygon fill="none" stroke="#000000" points="449,-243.0623 449,-266.0623 592,-266.0623 592,-243.0623 449,-243.0623"/>
<text text-anchor="start" x="454" y="-251.6623" font-family="Helvetica,sans-Serif" font-weight="bold" font-size="11.00" fill="#000000">act_ru_timer_job</text>
<text text-anchor="start" x="557.5219" y="-251.1623" font-family="Helvetica,sans-Serif" font-size="11.00" fill="#000000">[table]</text>
<polygon fill="none" stroke="#000000" points="449,-224.0623 449,-243.0623 592,-243.0623 592,-224.0623 449,-224.0623"/>
<text text-anchor="start" x="452" y="-230.1623" font-family="Helvetica,sans-Serif" font-size="11.00" fill="#000000">...</text>
<polygon fill="#ffffff" stroke="transparent" points="449,-205.0623 449,-224.0623 592,-224.0623 592,-205.0623 449,-205.0623"/>
<polygon fill="none" stroke="#000000" points="449,-205.0623 449,-224.0623 592,-224.0623 592,-205.0623 449,-205.0623"/>
<polygon fill="#ffffff" stroke="transparent" points="450,-206.0623 450,-223.0623 503,-223.0623 503,-206.0623 450,-206.0623"/>
<text text-anchor="start" x="452" y="-211.1623" font-family="Helvetica,sans-Serif" font-size="11.00" fill="#000000">&lt; 5</text>
<polygon fill="#ffffff" stroke="transparent" points="503,-206.0623 503,-223.0623 547,-223.0623 547,-206.0623 503,-206.0623"/>
<text text-anchor="start" x="521.9431" y="-211.1623" font-family="Helvetica,sans-Serif" font-size="11.00" fill="#000000"> &#160;</text>
<polygon fill="#ffffff" stroke="transparent" points="547,-206.0623 547,-223.0623 591,-223.0623 591,-206.0623 547,-206.0623"/>
<text text-anchor="start" x="582.8862" y="-211.1623" font-family="Helvetica,sans-Serif" font-size="11.00" fill="#000000"> &#160;</text>
<polygon fill="#000000" stroke="#000000" points="503,-206.0623 503,-223.0623 503,-223.0623 503,-206.0623 503,-206.0623"/>
<polygon fill="#000000" stroke="#000000" points="547,-206.0623 547,-223.0623 547,-223.0623 547,-206.0623 547,-206.0623"/>
</a>
</g>
</g>
<!-- act_ru_timer_job&#45;&gt;act_ge_bytearray -->
<g id="edge31" class="edge">
<title>act_ru_timer_job:w&#45;&gt;act_ge_bytearray:e</title>
<path fill="none" stroke="#000000" d="M434.5099,-233.6458C424.9207,-238.6565 423.9714,-254.7305 417,-271.0623 397.0551,-317.787 427.3035,-496.0623 376.5,-502.0623"/>
<polygon fill="#000000" stroke="#000000" points="441.0065,-233.3842 449.1449,-236.6593 445.0032,-233.2233 449,-233.0623 449,-233.0623 449,-233.0623 445.0032,-233.2233 448.8551,-229.4652 441.0065,-233.3842 441.0065,-233.3842"/>
<ellipse fill="none" stroke="#000000" cx="437.8091" cy="-233.513" rx="3.2" ry="3.2"/>
</g>
<!-- act_ru_timer_job&#45;&gt;act_ge_bytearray -->
<g id="edge32" class="edge">
<title>act_ru_timer_job:w&#45;&gt;act_ge_bytearray:e</title>
<path fill="none" stroke="#000000" d="M436.1156,-239.927C425.0047,-249.9472 424.3422,-266.8617 417,-284.0623 397.0551,-330.787 427.3035,-509.0623 376.5,-502.0623"/>
<polygon fill="#000000" stroke="#000000" points="441.9396,-236.824 450.6928,-236.2394 445.4698,-234.9432 449,-233.0623 449,-233.0623 449,-233.0623 445.4698,-234.9432 447.3072,-229.8851 441.9396,-236.824 441.9396,-236.824"/>
<ellipse fill="none" stroke="#000000" cx="439.1154" cy="-238.3288" rx="3.2" ry="3.2"/>
</g>
<!-- act_ru_timer_job&#45;&gt;act_re_procdef -->
<g id="edge34" class="edge">
<title>act_ru_timer_job:w&#45;&gt;act_re_procdef:e</title>
<path fill="none" stroke="#000000" d="M434.543,-233.0385C343.7218,-232.77 310.4556,-231.0464 223,-273.0623 201.1419,-283.5634 206.2497,-309.0623 182,-309.0623"/>
<polygon fill="#000000" stroke="#000000" points="441,-233.0491 448.9941,-236.6623 445,-233.0557 449,-233.0623 449,-233.0623 449,-233.0623 445,-233.0557 449.0059,-229.4623 441,-233.0491 441,-233.0491"/>
<ellipse fill="none" stroke="#000000" cx="437.8" cy="-233.0438" rx="3.2" ry="3.2"/>
</g>
<!-- act_ru_timer_job&#45;&gt;act_ru_execution -->
<g id="edge33" class="edge">
<title>act_ru_timer_job:w&#45;&gt;act_ru_execution:e</title>
<path fill="none" stroke="#000000" d="M434.3294,-234.5286C400.5032,-247.51 426.2522,-329.6951 376.5,-335.0623"/>
<polygon fill="#000000" stroke="#000000" points="441.0397,-233.8579 449.358,-236.6444 445.0198,-233.4601 449,-233.0623 449,-233.0623 449,-233.0623 445.0198,-233.4601 448.642,-229.4801 441.0397,-233.8579 441.0397,-233.8579"/>
<ellipse fill="none" stroke="#000000" cx="437.8555" cy="-234.1762" rx="3.2" ry="3.2"/>
</g>
<!-- act_ru_timer_job&#45;&gt;act_ru_execution -->
<g id="edge35" class="edge">
<title>act_ru_timer_job:w&#45;&gt;act_ru_execution:e</title>
<path fill="none" stroke="#000000" d="M435.2294,-237.641C400.0477,-258.9446 426.6867,-341.3787 376.5,-335.0623"/>
<polygon fill="#000000" stroke="#000000" points="441.4086,-235.5864 450.1359,-236.4784 445.2043,-234.3243 449,-233.0623 449,-233.0623 449,-233.0623 445.2043,-234.3243 447.8641,-229.6461 441.4086,-235.5864 441.4086,-235.5864"/>
<ellipse fill="none" stroke="#000000" cx="438.3721" cy="-236.5961" rx="3.2" ry="3.2"/>
</g>
<!-- act_ru_variable -->
<g id="node14" class="node">
<title>act_ru_variable</title>
<g id="a_node14"><a xlink:href="../../tables/act_ru_variable.html" xlink:title="act_ru_variable" target="_top">
<polygon fill="#ffffff" stroke="transparent" points="453,-369.5623 453,-430.5623 587,-430.5623 587,-369.5623 453,-369.5623"/>
<polygon fill="#f5f5f5" stroke="transparent" points="453,-407.0623 453,-430.0623 587,-430.0623 587,-407.0623 453,-407.0623"/>
<polygon fill="none" stroke="#000000" points="453,-407.0623 453,-430.0623 587,-430.0623 587,-407.0623 453,-407.0623"/>
<text text-anchor="start" x="458" y="-415.6623" font-family="Helvetica,sans-Serif" font-weight="bold" font-size="11.00" fill="#000000">act_ru_variable</text>
<text text-anchor="start" x="552.5219" y="-415.1623" font-family="Helvetica,sans-Serif" font-size="11.00" fill="#000000">[table]</text>
<polygon fill="none" stroke="#000000" points="453,-388.0623 453,-407.0623 587,-407.0623 587,-388.0623 453,-388.0623"/>
<text text-anchor="start" x="456" y="-394.1623" font-family="Helvetica,sans-Serif" font-size="11.00" fill="#000000">...</text>
<polygon fill="#ffffff" stroke="transparent" points="453,-369.0623 453,-388.0623 587,-388.0623 587,-369.0623 453,-369.0623"/>
<polygon fill="none" stroke="#000000" points="453,-369.0623 453,-388.0623 587,-388.0623 587,-369.0623 453,-369.0623"/>
<polygon fill="#ffffff" stroke="transparent" points="454,-370.0623 454,-387.0623 504,-387.0623 504,-370.0623 454,-370.0623"/>
<text text-anchor="start" x="456" y="-375.1623" font-family="Helvetica,sans-Serif" font-size="11.00" fill="#000000">&lt; 3</text>
<polygon fill="#ffffff" stroke="transparent" points="504,-370.0623 504,-387.0623 545,-387.0623 545,-370.0623 504,-370.0623"/>
<text text-anchor="start" x="521.4431" y="-375.1623" font-family="Helvetica,sans-Serif" font-size="11.00" fill="#000000"> &#160;</text>
<polygon fill="#ffffff" stroke="transparent" points="545,-370.0623 545,-387.0623 586,-387.0623 586,-370.0623 545,-370.0623"/>
<text text-anchor="start" x="577.8862" y="-375.1623" font-family="Helvetica,sans-Serif" font-size="11.00" fill="#000000"> &#160;</text>
<polygon fill="#000000" stroke="#000000" points="504,-370.0623 504,-387.0623 504,-387.0623 504,-370.0623 504,-370.0623"/>
<polygon fill="#000000" stroke="#000000" points="545,-370.0623 545,-387.0623 545,-387.0623 545,-370.0623 545,-370.0623"/>
</a>
</g>
</g>
<!-- act_ru_variable&#45;&gt;act_ge_bytearray -->
<g id="edge36" class="edge">
<title>act_ru_variable:w&#45;&gt;act_ge_bytearray:e</title>
<path fill="none" stroke="#000000" d="M438.6712,-399.8708C401.9516,-416.5687 428.6003,-502.0623 376.5,-502.0623"/>
<polygon fill="#000000" stroke="#000000" points="445.1494,-398.6011 453.6925,-400.595 449.0747,-397.8317 453,-397.0623 453,-397.0623 453,-397.0623 449.0747,-397.8317 452.3075,-393.5295 445.1494,-398.6011 445.1494,-398.6011"/>
<ellipse fill="none" stroke="#000000" cx="442.0091" cy="-399.2166" rx="3.2" ry="3.2"/>
</g>
<!-- act_ru_variable&#45;&gt;act_ru_execution -->
<g id="edge37" class="edge">
<title>act_ru_variable:w&#45;&gt;act_ru_execution:e</title>
<path fill="none" stroke="#000000" d="M438.9428,-392.4294C411.1367,-376.6248 414.7937,-329.8123 376.5,-335.0623"/>
<polygon fill="#000000" stroke="#000000" points="445.402,-394.5582 451.8732,-400.4814 449.201,-395.8102 453,-397.0623 453,-397.0623 453,-397.0623 449.201,-395.8102 454.1268,-393.6432 445.402,-394.5582 445.402,-394.5582"/>
<ellipse fill="none" stroke="#000000" cx="442.3628" cy="-393.5565" rx="3.2" ry="3.2"/>
</g>
<!-- act_ru_variable&#45;&gt;act_ru_execution -->
<g id="edge38" class="edge">
<title>act_ru_variable:w&#45;&gt;act_ru_execution:e</title>
<path fill="none" stroke="#000000" d="M438.5723,-396.5952C411.1686,-388.9918 414.6228,-341.1599 376.5,-335.0623"/>
<polygon fill="#000000" stroke="#000000" points="445.0042,-396.8034 452.8835,-400.6604 449.0021,-396.9328 453,-397.0623 453,-397.0623 453,-397.0623 449.0021,-396.9328 453.1165,-393.4641 445.0042,-396.8034 445.0042,-396.8034"/>
<ellipse fill="none" stroke="#000000" cx="441.8059" cy="-396.6998" rx="3.2" ry="3.2"/>
</g>
</g>
</svg>
