<?xml version="1.0" encoding="UTF-8" standalone="no"?>
<!DOCTYPE svg PUBLIC "-//W3C//DTD SVG 1.1//EN"
 "http://www.w3.org/Graphics/SVG/1.1/DTD/svg11.dtd">
<!-- Generated by graphviz version 2.40.1 (20161225.0304)
 -->
<!-- Title: twoDegreesRelationshipsDiagram Pages: 1 -->
<svg width="1361pt" height="356pt"
 viewBox="0.00 0.00 1361.00 355.70" xmlns="http://www.w3.org/2000/svg" xmlns:xlink="http://www.w3.org/1999/xlink">
<g id="graph0" class="graph" transform="scale(1 1) rotate(0) translate(4 351.7)">
<title>twoDegreesRelationshipsDiagram</title>
<polygon fill="#ffffff" stroke="transparent" points="-4,4 -4,-351.7 1357,-351.7 1357,4 -4,4"/>
<text text-anchor="middle" x="72.4936" y="-7.3" font-family="Helvetica,sans-Serif" font-size="11.00" fill="#000000">Generated by SchemaSpy</text>
<!-- act_cmmn_casedef -->
<g id="node1" class="node">
<title>act_cmmn_casedef</title>
<g id="a_node1"><a xlink:href="../../tables/act_cmmn_casedef.html" xlink:title="act_cmmn_casedef" target="_top">
<polygon fill="#ffffff" stroke="transparent" points="346.5,-46.7 346.5,-217.7 520.5,-217.7 520.5,-46.7 346.5,-46.7"/>
<polygon fill="#f5f5f5" stroke="transparent" points="346.5,-194.2 346.5,-217.2 520.5,-217.2 520.5,-194.2 346.5,-194.2"/>
<polygon fill="none" stroke="#000000" points="346.5,-194.2 346.5,-217.2 520.5,-217.2 520.5,-194.2 346.5,-194.2"/>
<text text-anchor="start" x="351.5" y="-202.8" font-family="Helvetica,sans-Serif" font-weight="bold" font-size="11.00" fill="#000000">act_cmmn_casedef</text>
<text text-anchor="start" x="485.5437" y="-202.3" font-family="Helvetica,sans-Serif" font-size="11.00" fill="#000000">[table]</text>
<polygon fill="none" stroke="#000000" points="346.5,-172.2 346.5,-194.2 520.5,-194.2 520.5,-172.2 346.5,-172.2"/>
<image xlink:href="../../images/primaryKeys.png" width="11px" height="12px" preserveAspectRatio="xMinYMin meet" x="351.5" y="-189.2"/>
<text text-anchor="start" x="366.5" y="-179.3" font-family="Helvetica,sans-Serif" font-size="11.00" fill="#000000">id_</text>
<polygon fill="#ffffff" stroke="transparent" points="346.5,-150.2 346.5,-172.2 520.5,-172.2 520.5,-150.2 346.5,-150.2"/>
<polygon fill="none" stroke="#000000" points="346.5,-150.2 346.5,-172.2 520.5,-172.2 520.5,-150.2 346.5,-150.2"/>
<text text-anchor="start" x="366.5" y="-157.3" font-family="Helvetica,sans-Serif" font-size="11.00" fill="#000000">key_</text>
<polygon fill="#ffffff" stroke="transparent" points="346.5,-128.2 346.5,-150.2 520.5,-150.2 520.5,-128.2 346.5,-128.2"/>
<polygon fill="none" stroke="#000000" points="346.5,-128.2 346.5,-150.2 520.5,-150.2 520.5,-128.2 346.5,-128.2"/>
<text text-anchor="start" x="366.5" y="-135.3" font-family="Helvetica,sans-Serif" font-size="11.00" fill="#000000">version_</text>
<polygon fill="#ffffff" stroke="transparent" points="346.5,-106.2 346.5,-128.2 520.5,-128.2 520.5,-106.2 346.5,-106.2"/>
<polygon fill="none" stroke="#000000" points="346.5,-106.2 346.5,-128.2 520.5,-128.2 520.5,-106.2 346.5,-106.2"/>
<image xlink:href="../../images/foreignKeys.png" width="11px" height="12px" preserveAspectRatio="xMinYMin meet" x="351.5" y="-123.2"/>
<text text-anchor="start" x="366.5" y="-113.3" font-family="Helvetica,sans-Serif" font-size="11.00" fill="#000000">deployment_id_</text>
<polygon fill="#ffffff" stroke="transparent" points="346.5,-84.2 346.5,-106.2 520.5,-106.2 520.5,-84.2 346.5,-84.2"/>
<polygon fill="none" stroke="#000000" points="346.5,-84.2 346.5,-106.2 520.5,-106.2 520.5,-84.2 346.5,-84.2"/>
<text text-anchor="start" x="366.5" y="-91.3" font-family="Helvetica,sans-Serif" font-size="11.00" fill="#000000">tenant_id_</text>
<polygon fill="none" stroke="#000000" points="346.5,-65.2 346.5,-84.2 520.5,-84.2 520.5,-65.2 346.5,-65.2"/>
<text text-anchor="start" x="349.5" y="-71.3" font-family="Helvetica,sans-Serif" font-size="11.00" fill="#000000">...</text>
<polygon fill="#ffffff" stroke="transparent" points="346.5,-46.2 346.5,-65.2 520.5,-65.2 520.5,-46.2 346.5,-46.2"/>
<polygon fill="none" stroke="#000000" points="346.5,-46.2 346.5,-65.2 520.5,-65.2 520.5,-46.2 346.5,-46.2"/>
<polygon fill="#ffffff" stroke="transparent" points="347.5,-47.2 347.5,-64.2 408.5,-64.2 408.5,-47.2 347.5,-47.2"/>
<text text-anchor="start" x="349.5" y="-52.3" font-family="Helvetica,sans-Serif" font-size="11.00" fill="#000000">&lt; 1</text>
<polygon fill="#ffffff" stroke="transparent" points="408.5,-47.2 408.5,-64.2 459.5,-64.2 459.5,-47.2 408.5,-47.2"/>
<text text-anchor="start" x="430.9431" y="-52.3" font-family="Helvetica,sans-Serif" font-size="11.00" fill="#000000"> &#160;</text>
<polygon fill="#ffffff" stroke="transparent" points="459.5,-47.2 459.5,-64.2 519.5,-64.2 519.5,-47.2 459.5,-47.2"/>
<text text-anchor="start" x="501.9053" y="-52.3" font-family="Helvetica,sans-Serif" font-size="11.00" fill="#000000">4 &gt;</text>
<polygon fill="#000000" stroke="#000000" points="408.5,-47.2 408.5,-64.2 408.5,-64.2 408.5,-47.2 408.5,-47.2"/>
<polygon fill="#000000" stroke="#000000" points="459.5,-47.2 459.5,-64.2 459.5,-64.2 459.5,-47.2 459.5,-47.2"/>
</a>
</g>
</g>
<!-- act_cmmn_deployment -->
<g id="node2" class="node">
<title>act_cmmn_deployment</title>
<g id="a_node2"><a xlink:href="../../tables/act_cmmn_deployment.html" xlink:title="act_cmmn_deployment" target="_top">
<polygon fill="#ffffff" stroke="transparent" points="8,-38.2 8,-238.2 262,-238.2 262,-38.2 8,-38.2"/>
<polygon fill="#f5f5f5" stroke="transparent" points="10,-213.2 10,-236.2 260,-236.2 260,-213.2 10,-213.2"/>
<polygon fill="none" stroke="#000000" points="10,-213.2 10,-236.2 260,-236.2 260,-213.2 10,-213.2"/>
<text text-anchor="start" x="15" y="-221.8" font-family="Helvetica,sans-Serif" font-weight="bold" font-size="11.00" fill="#000000">act_cmmn_deployment</text>
<text text-anchor="start" x="225.0437" y="-221.3" font-family="Helvetica,sans-Serif" font-size="11.00" fill="#000000">[table]</text>
<polygon fill="none" stroke="#000000" points="10,-191.2 10,-213.2 176,-213.2 176,-191.2 10,-191.2"/>
<image xlink:href="../../images/primaryKeys.png" width="11px" height="12px" preserveAspectRatio="xMinYMin meet" x="15" y="-208.2"/>
<text text-anchor="start" x="30" y="-198.3" font-family="Helvetica,sans-Serif" font-size="11.00" fill="#000000">id_</text>
<polygon fill="none" stroke="#000000" points="176,-191.2 176,-213.2 260,-213.2 260,-191.2 176,-191.2"/>
<text text-anchor="start" x="179" y="-198.9" font-family="Helvetica,sans-Serif" font-size="11.00" fill="#000000">varchar[255]</text>
<polygon fill="none" stroke="#000000" points="10,-169.2 10,-191.2 176,-191.2 176,-169.2 10,-169.2"/>
<text text-anchor="start" x="30" y="-176.3" font-family="Helvetica,sans-Serif" font-size="11.00" fill="#000000">name_</text>
<polygon fill="none" stroke="#000000" points="176,-169.2 176,-191.2 260,-191.2 260,-169.2 176,-169.2"/>
<text text-anchor="start" x="179" y="-176.9" font-family="Helvetica,sans-Serif" font-size="11.00" fill="#000000">varchar[255]</text>
<polygon fill="none" stroke="#000000" points="10,-147.2 10,-169.2 176,-169.2 176,-147.2 10,-147.2"/>
<text text-anchor="start" x="30" y="-154.3" font-family="Helvetica,sans-Serif" font-size="11.00" fill="#000000">category_</text>
<polygon fill="none" stroke="#000000" points="176,-147.2 176,-169.2 260,-169.2 260,-147.2 176,-147.2"/>
<text text-anchor="start" x="179" y="-154.9" font-family="Helvetica,sans-Serif" font-size="11.00" fill="#000000">varchar[255]</text>
<polygon fill="none" stroke="#000000" points="10,-125.2 10,-147.2 176,-147.2 176,-125.2 10,-125.2"/>
<text text-anchor="start" x="30" y="-132.3" font-family="Helvetica,sans-Serif" font-size="11.00" fill="#000000">key_</text>
<polygon fill="none" stroke="#000000" points="176,-125.2 176,-147.2 260,-147.2 260,-125.2 176,-125.2"/>
<text text-anchor="start" x="179" y="-132.9" font-family="Helvetica,sans-Serif" font-size="11.00" fill="#000000">varchar[255]</text>
<polygon fill="none" stroke="#000000" points="10,-103.2 10,-125.2 176,-125.2 176,-103.2 10,-103.2"/>
<text text-anchor="start" x="30" y="-110.3" font-family="Helvetica,sans-Serif" font-size="11.00" fill="#000000">deploy_time_</text>
<polygon fill="none" stroke="#000000" points="176,-103.2 176,-125.2 260,-125.2 260,-103.2 176,-103.2"/>
<text text-anchor="start" x="178.8807" y="-110.9" font-family="Helvetica,sans-Serif" font-size="11.00" fill="#000000">timestamp[29,6]</text>
<polygon fill="none" stroke="#000000" points="10,-81.2 10,-103.2 176,-103.2 176,-81.2 10,-81.2"/>
<text text-anchor="start" x="30" y="-88.3" font-family="Helvetica,sans-Serif" font-size="11.00" fill="#000000">parent_deployment_id_</text>
<polygon fill="none" stroke="#000000" points="176,-81.2 176,-103.2 260,-103.2 260,-81.2 176,-81.2"/>
<text text-anchor="start" x="179" y="-88.9" font-family="Helvetica,sans-Serif" font-size="11.00" fill="#000000">varchar[255]</text>
<polygon fill="none" stroke="#000000" points="10,-59.2 10,-81.2 176,-81.2 176,-59.2 10,-59.2"/>
<text text-anchor="start" x="30" y="-66.3" font-family="Helvetica,sans-Serif" font-size="11.00" fill="#000000">tenant_id_</text>
<polygon fill="none" stroke="#000000" points="176,-59.2 176,-81.2 260,-81.2 260,-59.2 176,-59.2"/>
<text text-anchor="start" x="179" y="-66.9" font-family="Helvetica,sans-Serif" font-size="11.00" fill="#000000">varchar[255]</text>
<polygon fill="#ffffff" stroke="transparent" points="10,-40.2 10,-59.2 260,-59.2 260,-40.2 10,-40.2"/>
<polygon fill="none" stroke="#000000" points="10,-40.2 10,-59.2 260,-59.2 260,-40.2 10,-40.2"/>
<polygon fill="#ffffff" stroke="transparent" points="11,-41.2 11,-58.2 97,-58.2 97,-41.2 11,-41.2"/>
<text text-anchor="start" x="13" y="-46.3" font-family="Helvetica,sans-Serif" font-size="11.00" fill="#000000">&lt; 0</text>
<polygon fill="#ffffff" stroke="transparent" points="97,-41.2 97,-58.2 174,-58.2 174,-41.2 97,-41.2"/>
<text text-anchor="start" x="132.4431" y="-46.3" font-family="Helvetica,sans-Serif" font-size="11.00" fill="#000000"> &#160;</text>
<polygon fill="#ffffff" stroke="transparent" points="174,-41.2 174,-58.2 259,-58.2 259,-41.2 174,-41.2"/>
<text text-anchor="start" x="241.4053" y="-46.3" font-family="Helvetica,sans-Serif" font-size="11.00" fill="#000000">2 &gt;</text>
<polygon fill="#000000" stroke="#000000" points="97,-41.2 97,-58.2 97,-58.2 97,-41.2 97,-41.2"/>
<polygon fill="#000000" stroke="#000000" points="174,-41.2 174,-58.2 174,-58.2 174,-41.2 174,-41.2"/>
<polygon fill="none" stroke="#000000" stroke-width="2" points="9,-39.2 9,-237.2 261,-237.2 261,-39.2 9,-39.2"/>
</a>
</g>
</g>
<!-- act_cmmn_casedef&#45;&gt;act_cmmn_deployment -->
<g id="edge1" class="edge">
<title>act_cmmn_casedef:w&#45;&gt;act_cmmn_deployment:e</title>
<path fill="none" stroke="#000000" d="M332.247,-119.6522C296.1513,-133.5889 308.4252,-202.2 260,-202.2"/>
<polygon fill="#000000" stroke="#000000" points="338.6158,-118.5565 347.1104,-120.7479 342.5579,-117.8783 346.5,-117.2 346.5,-117.2 346.5,-117.2 342.5579,-117.8783 345.8896,-113.6521 338.6158,-118.5565 338.6158,-118.5565"/>
<ellipse fill="none" stroke="#000000" cx="335.4622" cy="-119.0991" rx="3.2" ry="3.2"/>
</g>
<!-- act_cmmn_deployment_resource -->
<g id="node3" class="node">
<title>act_cmmn_deployment_resource</title>
<g id="a_node3"><a xlink:href="../../tables/act_cmmn_deployment_resource.html" xlink:title="act_cmmn_deployment_resource" target="_top">
<polygon fill="#ffffff" stroke="transparent" points="311,-238.7 311,-343.7 556,-343.7 556,-238.7 311,-238.7"/>
<polygon fill="#f5f5f5" stroke="transparent" points="311.5,-320.2 311.5,-343.2 556.5,-343.2 556.5,-320.2 311.5,-320.2"/>
<polygon fill="none" stroke="#000000" points="311.5,-320.2 311.5,-343.2 556.5,-343.2 556.5,-320.2 311.5,-320.2"/>
<text text-anchor="start" x="316.5" y="-328.8" font-family="Helvetica,sans-Serif" font-weight="bold" font-size="11.00" fill="#000000">act_cmmn_deployment_resource</text>
<text text-anchor="start" x="522.0219" y="-328.3" font-family="Helvetica,sans-Serif" font-size="11.00" fill="#000000">[table]</text>
<polygon fill="none" stroke="#000000" points="311.5,-298.2 311.5,-320.2 556.5,-320.2 556.5,-298.2 311.5,-298.2"/>
<image xlink:href="../../images/primaryKeys.png" width="11px" height="12px" preserveAspectRatio="xMinYMin meet" x="316.5" y="-315.2"/>
<text text-anchor="start" x="340.5" y="-305.3" font-family="Helvetica,sans-Serif" font-size="11.00" fill="#000000">id_</text>
<polygon fill="#ffffff" stroke="transparent" points="311.5,-276.2 311.5,-298.2 556.5,-298.2 556.5,-276.2 311.5,-276.2"/>
<polygon fill="none" stroke="#000000" points="311.5,-276.2 311.5,-298.2 556.5,-298.2 556.5,-276.2 311.5,-276.2"/>
<image xlink:href="../../images/foreignKeys.png" width="11px" height="12px" preserveAspectRatio="xMinYMin meet" x="316.5" y="-293.2"/>
<text text-anchor="start" x="340.5" y="-283.3" font-family="Helvetica,sans-Serif" font-size="11.00" fill="#000000">deployment_id_</text>
<polygon fill="none" stroke="#000000" points="311.5,-257.2 311.5,-276.2 556.5,-276.2 556.5,-257.2 311.5,-257.2"/>
<text text-anchor="start" x="314.5" y="-263.3" font-family="Helvetica,sans-Serif" font-size="11.00" fill="#000000">...</text>
<polygon fill="#ffffff" stroke="transparent" points="311.5,-238.2 311.5,-257.2 556.5,-257.2 556.5,-238.2 311.5,-238.2"/>
<polygon fill="none" stroke="#000000" points="311.5,-238.2 311.5,-257.2 556.5,-257.2 556.5,-238.2 311.5,-238.2"/>
<polygon fill="#ffffff" stroke="transparent" points="312.5,-239.2 312.5,-256.2 399.5,-256.2 399.5,-239.2 312.5,-239.2"/>
<text text-anchor="start" x="314.5" y="-244.3" font-family="Helvetica,sans-Serif" font-size="11.00" fill="#000000">&lt; 1</text>
<polygon fill="#ffffff" stroke="transparent" points="399.5,-239.2 399.5,-256.2 477.5,-256.2 477.5,-239.2 399.5,-239.2"/>
<text text-anchor="start" x="435.4431" y="-244.3" font-family="Helvetica,sans-Serif" font-size="11.00" fill="#000000"> &#160;</text>
<polygon fill="#ffffff" stroke="transparent" points="477.5,-239.2 477.5,-256.2 555.5,-256.2 555.5,-239.2 477.5,-239.2"/>
<text text-anchor="start" x="547.3862" y="-244.3" font-family="Helvetica,sans-Serif" font-size="11.00" fill="#000000"> &#160;</text>
<polygon fill="#000000" stroke="#000000" points="399.5,-239.2 399.5,-256.2 399.5,-256.2 399.5,-239.2 399.5,-239.2"/>
<polygon fill="#000000" stroke="#000000" points="477.5,-239.2 477.5,-256.2 477.5,-256.2 477.5,-239.2 477.5,-239.2"/>
</a>
</g>
</g>
<!-- act_cmmn_deployment_resource&#45;&gt;act_cmmn_deployment -->
<g id="edge2" class="edge">
<title>act_cmmn_deployment_resource:w&#45;&gt;act_cmmn_deployment:e</title>
<path fill="none" stroke="#000000" d="M297.5119,-282.868C275.8888,-265.5466 298.1318,-202.2 260,-202.2"/>
<polygon fill="#000000" stroke="#000000" points="303.8581,-284.8333 310.435,-290.6389 307.679,-286.0167 311.5,-287.2 311.5,-287.2 311.5,-287.2 307.679,-286.0167 312.565,-283.7611 303.8581,-284.8333 303.8581,-284.8333"/>
<ellipse fill="none" stroke="#000000" cx="300.8013" cy="-283.8866" rx="3.2" ry="3.2"/>
</g>
<!-- act_cmmn_ru_case_inst -->
<g id="node4" class="node">
<title>act_cmmn_ru_case_inst</title>
<g id="a_node4"><a xlink:href="../../tables/act_cmmn_ru_case_inst.html" xlink:title="act_cmmn_ru_case_inst" target="_top">
<polygon fill="#ffffff" stroke="transparent" points="605,-181.7 605,-242.7 795,-242.7 795,-181.7 605,-181.7"/>
<polygon fill="#f5f5f5" stroke="transparent" points="605,-219.2 605,-242.2 795,-242.2 795,-219.2 605,-219.2"/>
<polygon fill="none" stroke="#000000" points="605,-219.2 605,-242.2 795,-242.2 795,-219.2 605,-219.2"/>
<text text-anchor="start" x="610" y="-227.8" font-family="Helvetica,sans-Serif" font-weight="bold" font-size="11.00" fill="#000000">act_cmmn_ru_case_inst</text>
<text text-anchor="start" x="760.5219" y="-227.3" font-family="Helvetica,sans-Serif" font-size="11.00" fill="#000000">[table]</text>
<polygon fill="none" stroke="#000000" points="605,-200.2 605,-219.2 795,-219.2 795,-200.2 605,-200.2"/>
<text text-anchor="start" x="608" y="-206.3" font-family="Helvetica,sans-Serif" font-size="11.00" fill="#000000">...</text>
<polygon fill="#ffffff" stroke="transparent" points="605,-181.2 605,-200.2 795,-200.2 795,-181.2 605,-181.2"/>
<polygon fill="none" stroke="#000000" points="605,-181.2 605,-200.2 795,-200.2 795,-181.2 605,-181.2"/>
<polygon fill="#ffffff" stroke="transparent" points="606,-182.2 606,-199.2 672,-199.2 672,-182.2 606,-182.2"/>
<text text-anchor="start" x="608" y="-187.3" font-family="Helvetica,sans-Serif" font-size="11.00" fill="#000000">&lt; 1</text>
<polygon fill="#ffffff" stroke="transparent" points="672,-182.2 672,-199.2 729,-199.2 729,-182.2 672,-182.2"/>
<text text-anchor="start" x="697.4431" y="-187.3" font-family="Helvetica,sans-Serif" font-size="11.00" fill="#000000"> &#160;</text>
<polygon fill="#ffffff" stroke="transparent" points="729,-182.2 729,-199.2 794,-199.2 794,-182.2 729,-182.2"/>
<text text-anchor="start" x="776.4053" y="-187.3" font-family="Helvetica,sans-Serif" font-size="11.00" fill="#000000">3 &gt;</text>
<polygon fill="#000000" stroke="#000000" points="672,-182.2 672,-199.2 672,-199.2 672,-182.2 672,-182.2"/>
<polygon fill="#000000" stroke="#000000" points="729,-182.2 729,-199.2 729,-199.2 729,-182.2 729,-182.2"/>
</a>
</g>
</g>
<!-- act_cmmn_ru_case_inst&#45;&gt;act_cmmn_casedef -->
<g id="edge3" class="edge">
<title>act_cmmn_ru_case_inst:w&#45;&gt;act_cmmn_casedef:e</title>
<path fill="none" stroke="#000000" d="M590.5849,-207.8749C563.4659,-202.5766 554.421,-183.2 520.5,-183.2"/>
<polygon fill="#000000" stroke="#000000" points="597.0336,-208.4677 604.6704,-212.7849 601.0168,-208.8338 605,-209.2 605,-209.2 605,-209.2 601.0168,-208.8338 605.3296,-205.6151 597.0336,-208.4677 597.0336,-208.4677"/>
<ellipse fill="none" stroke="#000000" cx="593.847" cy="-208.1747" rx="3.2" ry="3.2"/>
</g>
<!-- act_cmmn_ru_mil_inst -->
<g id="node5" class="node">
<title>act_cmmn_ru_mil_inst</title>
<g id="a_node5"><a xlink:href="../../tables/act_cmmn_ru_mil_inst.html" xlink:title="act_cmmn_ru_mil_inst" target="_top">
<polygon fill="#ffffff" stroke="transparent" points="865,-239.7 865,-300.7 1044,-300.7 1044,-239.7 865,-239.7"/>
<polygon fill="#f5f5f5" stroke="transparent" points="865.5,-277.2 865.5,-300.2 1044.5,-300.2 1044.5,-277.2 865.5,-277.2"/>
<polygon fill="none" stroke="#000000" points="865.5,-277.2 865.5,-300.2 1044.5,-300.2 1044.5,-277.2 865.5,-277.2"/>
<text text-anchor="start" x="870.5" y="-285.8" font-family="Helvetica,sans-Serif" font-weight="bold" font-size="11.00" fill="#000000">act_cmmn_ru_mil_inst</text>
<text text-anchor="start" x="1010.0219" y="-285.3" font-family="Helvetica,sans-Serif" font-size="11.00" fill="#000000">[table]</text>
<polygon fill="none" stroke="#000000" points="865.5,-258.2 865.5,-277.2 1044.5,-277.2 1044.5,-258.2 865.5,-258.2"/>
<text text-anchor="start" x="868.5" y="-264.3" font-family="Helvetica,sans-Serif" font-size="11.00" fill="#000000">...</text>
<polygon fill="#ffffff" stroke="transparent" points="865.5,-239.2 865.5,-258.2 1044.5,-258.2 1044.5,-239.2 865.5,-239.2"/>
<polygon fill="none" stroke="#000000" points="865.5,-239.2 865.5,-258.2 1044.5,-258.2 1044.5,-239.2 865.5,-239.2"/>
<polygon fill="#ffffff" stroke="transparent" points="866.5,-240.2 866.5,-257.2 931.5,-257.2 931.5,-240.2 866.5,-240.2"/>
<text text-anchor="start" x="868.5" y="-245.3" font-family="Helvetica,sans-Serif" font-size="11.00" fill="#000000">&lt; 2</text>
<polygon fill="#ffffff" stroke="transparent" points="931.5,-240.2 931.5,-257.2 987.5,-257.2 987.5,-240.2 931.5,-240.2"/>
<text text-anchor="start" x="956.4431" y="-245.3" font-family="Helvetica,sans-Serif" font-size="11.00" fill="#000000"> &#160;</text>
<polygon fill="#ffffff" stroke="transparent" points="987.5,-240.2 987.5,-257.2 1043.5,-257.2 1043.5,-240.2 987.5,-240.2"/>
<text text-anchor="start" x="1035.3862" y="-245.3" font-family="Helvetica,sans-Serif" font-size="11.00" fill="#000000"> &#160;</text>
<polygon fill="#000000" stroke="#000000" points="931.5,-240.2 931.5,-257.2 931.5,-257.2 931.5,-240.2 931.5,-240.2"/>
<polygon fill="#000000" stroke="#000000" points="987.5,-240.2 987.5,-257.2 987.5,-257.2 987.5,-240.2 987.5,-240.2"/>
</a>
</g>
</g>
<!-- act_cmmn_ru_mil_inst&#45;&gt;act_cmmn_casedef -->
<g id="edge4" class="edge">
<title>act_cmmn_ru_mil_inst:w&#45;&gt;act_cmmn_casedef:e</title>
<path fill="none" stroke="#000000" d="M850.8621,-267.3619C742.6214,-269.7626 702.5928,-297.4184 597,-253.2 554.491,-235.3988 566.5858,-183.2 520.5,-183.2"/>
<polygon fill="#000000" stroke="#000000" points="857.5005,-267.2885 865.5398,-270.7998 861.5002,-267.2443 865.5,-267.2 865.5,-267.2 865.5,-267.2 861.5002,-267.2443 865.4602,-263.6002 857.5005,-267.2885 857.5005,-267.2885"/>
<ellipse fill="none" stroke="#000000" cx="854.3007" cy="-267.324" rx="3.2" ry="3.2"/>
</g>
<!-- act_cmmn_ru_mil_inst&#45;&gt;act_cmmn_ru_case_inst -->
<g id="edge5" class="edge">
<title>act_cmmn_ru_mil_inst:w&#45;&gt;act_cmmn_ru_case_inst:e</title>
<path fill="none" stroke="#000000" d="M851.1367,-264.0817C826.9077,-252.0345 829.8685,-209.2 795,-209.2"/>
<polygon fill="#000000" stroke="#000000" points="857.6821,-265.5027 864.7362,-270.718 861.5911,-266.3513 865.5,-267.2 865.5,-267.2 865.5,-267.2 861.5911,-266.3513 866.2638,-263.682 857.6821,-265.5027 857.6821,-265.5027"/>
<ellipse fill="none" stroke="#000000" cx="854.555" cy="-264.8237" rx="3.2" ry="3.2"/>
</g>
<!-- act_cmmn_ru_plan_item_inst -->
<g id="node6" class="node">
<title>act_cmmn_ru_plan_item_inst</title>
<g id="a_node6"><a xlink:href="../../tables/act_cmmn_ru_plan_item_inst.html" xlink:title="act_cmmn_ru_plan_item_inst" target="_top">
<polygon fill="#ffffff" stroke="transparent" points="844,-129.7 844,-190.7 1065,-190.7 1065,-129.7 844,-129.7"/>
<polygon fill="#f5f5f5" stroke="transparent" points="844.5,-167.2 844.5,-190.2 1065.5,-190.2 1065.5,-167.2 844.5,-167.2"/>
<polygon fill="none" stroke="#000000" points="844.5,-167.2 844.5,-190.2 1065.5,-190.2 1065.5,-167.2 844.5,-167.2"/>
<text text-anchor="start" x="849.5" y="-175.8" font-family="Helvetica,sans-Serif" font-weight="bold" font-size="11.00" fill="#000000">act_cmmn_ru_plan_item_inst</text>
<text text-anchor="start" x="1031.0219" y="-175.3" font-family="Helvetica,sans-Serif" font-size="11.00" fill="#000000">[table]</text>
<polygon fill="none" stroke="#000000" points="844.5,-148.2 844.5,-167.2 1065.5,-167.2 1065.5,-148.2 844.5,-148.2"/>
<text text-anchor="start" x="847.5" y="-154.3" font-family="Helvetica,sans-Serif" font-size="11.00" fill="#000000">...</text>
<polygon fill="#ffffff" stroke="transparent" points="844.5,-129.2 844.5,-148.2 1065.5,-148.2 1065.5,-129.2 844.5,-129.2"/>
<polygon fill="none" stroke="#000000" points="844.5,-129.2 844.5,-148.2 1065.5,-148.2 1065.5,-129.2 844.5,-129.2"/>
<polygon fill="#ffffff" stroke="transparent" points="845.5,-130.2 845.5,-147.2 921.5,-147.2 921.5,-130.2 845.5,-130.2"/>
<text text-anchor="start" x="847.5" y="-135.3" font-family="Helvetica,sans-Serif" font-size="11.00" fill="#000000">&lt; 2</text>
<polygon fill="#ffffff" stroke="transparent" points="921.5,-130.2 921.5,-147.2 988.5,-147.2 988.5,-130.2 921.5,-130.2"/>
<text text-anchor="start" x="951.9431" y="-135.3" font-family="Helvetica,sans-Serif" font-size="11.00" fill="#000000"> &#160;</text>
<polygon fill="#ffffff" stroke="transparent" points="988.5,-130.2 988.5,-147.2 1064.5,-147.2 1064.5,-130.2 988.5,-130.2"/>
<text text-anchor="start" x="1046.9053" y="-135.3" font-family="Helvetica,sans-Serif" font-size="11.00" fill="#000000">1 &gt;</text>
<polygon fill="#000000" stroke="#000000" points="921.5,-130.2 921.5,-147.2 921.5,-147.2 921.5,-130.2 921.5,-130.2"/>
<polygon fill="#000000" stroke="#000000" points="988.5,-130.2 988.5,-147.2 988.5,-147.2 988.5,-130.2 988.5,-130.2"/>
</a>
</g>
</g>
<!-- act_cmmn_ru_plan_item_inst&#45;&gt;act_cmmn_casedef -->
<g id="edge6" class="edge">
<title>act_cmmn_ru_plan_item_inst:w&#45;&gt;act_cmmn_casedef:e</title>
<path fill="none" stroke="#000000" d="M829.8342,-157.2155C731.6029,-157.4342 701.5284,-160.073 597,-171.2 562.7776,-174.843 554.9158,-183.2 520.5,-183.2"/>
<polygon fill="#000000" stroke="#000000" points="836.5,-157.2085 844.5038,-160.8 840.5,-157.2042 844.5,-157.2 844.5,-157.2 844.5,-157.2 840.5,-157.2042 844.4962,-153.6 836.5,-157.2085 836.5,-157.2085"/>
<ellipse fill="none" stroke="#000000" cx="833.3" cy="-157.2119" rx="3.2" ry="3.2"/>
</g>
<!-- act_cmmn_ru_plan_item_inst&#45;&gt;act_cmmn_ru_case_inst -->
<g id="edge7" class="edge">
<title>act_cmmn_ru_plan_item_inst:w&#45;&gt;act_cmmn_ru_case_inst:e</title>
<path fill="none" stroke="#000000" d="M830.8175,-161.9988C816.3354,-174.8719 820.9253,-209.2 795,-209.2"/>
<polygon fill="#000000" stroke="#000000" points="836.9508,-159.8477 845.6915,-160.5971 840.7254,-158.5239 844.5,-157.2 844.5,-157.2 844.5,-157.2 840.7254,-158.5239 843.3085,-153.8029 836.9508,-159.8477 836.9508,-159.8477"/>
<ellipse fill="none" stroke="#000000" cx="833.9312" cy="-160.9068" rx="3.2" ry="3.2"/>
</g>
<!-- act_cmmn_ru_sentry_part_inst -->
<g id="node7" class="node">
<title>act_cmmn_ru_sentry_part_inst</title>
<g id="a_node7"><a xlink:href="../../tables/act_cmmn_ru_sentry_part_inst.html" xlink:title="act_cmmn_ru_sentry_part_inst" target="_top">
<polygon fill="#ffffff" stroke="transparent" points="1114,-129.7 1114,-190.7 1345,-190.7 1345,-129.7 1114,-129.7"/>
<polygon fill="#f5f5f5" stroke="transparent" points="1114.5,-167.2 1114.5,-190.2 1345.5,-190.2 1345.5,-167.2 1114.5,-167.2"/>
<polygon fill="none" stroke="#000000" points="1114.5,-167.2 1114.5,-190.2 1345.5,-190.2 1345.5,-167.2 1114.5,-167.2"/>
<text text-anchor="start" x="1119.5" y="-175.8" font-family="Helvetica,sans-Serif" font-weight="bold" font-size="11.00" fill="#000000">act_cmmn_ru_sentry_part_inst</text>
<text text-anchor="start" x="1311.0219" y="-175.3" font-family="Helvetica,sans-Serif" font-size="11.00" fill="#000000">[table]</text>
<polygon fill="none" stroke="#000000" points="1114.5,-148.2 1114.5,-167.2 1345.5,-167.2 1345.5,-148.2 1114.5,-148.2"/>
<text text-anchor="start" x="1117.5" y="-154.3" font-family="Helvetica,sans-Serif" font-size="11.00" fill="#000000">...</text>
<polygon fill="#ffffff" stroke="transparent" points="1114.5,-129.2 1114.5,-148.2 1345.5,-148.2 1345.5,-129.2 1114.5,-129.2"/>
<polygon fill="none" stroke="#000000" points="1114.5,-129.2 1114.5,-148.2 1345.5,-148.2 1345.5,-129.2 1114.5,-129.2"/>
<polygon fill="#ffffff" stroke="transparent" points="1115.5,-130.2 1115.5,-147.2 1198.5,-147.2 1198.5,-130.2 1115.5,-130.2"/>
<text text-anchor="start" x="1117.5" y="-135.3" font-family="Helvetica,sans-Serif" font-size="11.00" fill="#000000">&lt; 3</text>
<polygon fill="#ffffff" stroke="transparent" points="1198.5,-130.2 1198.5,-147.2 1271.5,-147.2 1271.5,-130.2 1198.5,-130.2"/>
<text text-anchor="start" x="1231.9431" y="-135.3" font-family="Helvetica,sans-Serif" font-size="11.00" fill="#000000"> &#160;</text>
<polygon fill="#ffffff" stroke="transparent" points="1271.5,-130.2 1271.5,-147.2 1344.5,-147.2 1344.5,-130.2 1271.5,-130.2"/>
<text text-anchor="start" x="1336.3862" y="-135.3" font-family="Helvetica,sans-Serif" font-size="11.00" fill="#000000"> &#160;</text>
<polygon fill="#000000" stroke="#000000" points="1198.5,-130.2 1198.5,-147.2 1198.5,-147.2 1198.5,-130.2 1198.5,-130.2"/>
<polygon fill="#000000" stroke="#000000" points="1271.5,-130.2 1271.5,-147.2 1271.5,-147.2 1271.5,-130.2 1271.5,-130.2"/>
</a>
</g>
</g>
<!-- act_cmmn_ru_sentry_part_inst&#45;&gt;act_cmmn_casedef -->
<g id="edge8" class="edge">
<title>act_cmmn_ru_sentry_part_inst:w&#45;&gt;act_cmmn_casedef:e</title>
<path fill="none" stroke="#000000" d="M1100.7431,-152.5365C1091.0176,-143.9724 1090.4824,-125.9949 1073,-119.2 974.8216,-81.041 941.0551,-111.5485 836,-119.2 728.9284,-126.9984 700.914,-127.2367 597,-154.2 561.8045,-163.3324 556.861,-183.2 520.5,-183.2"/>
<polygon fill="#000000" stroke="#000000" points="1106.9235,-154.6316 1113.3442,-160.6094 1110.7117,-155.9158 1114.5,-157.2 1114.5,-157.2 1114.5,-157.2 1110.7117,-155.9158 1115.6558,-153.7906 1106.9235,-154.6316 1106.9235,-154.6316"/>
<ellipse fill="none" stroke="#000000" cx="1103.8929" cy="-153.6042" rx="3.2" ry="3.2"/>
</g>
<!-- act_cmmn_ru_sentry_part_inst&#45;&gt;act_cmmn_ru_case_inst -->
<g id="edge9" class="edge">
<title>act_cmmn_ru_sentry_part_inst:w&#45;&gt;act_cmmn_ru_case_inst:e</title>
<path fill="none" stroke="#000000" d="M1100.7447,-161.9298C1090.3713,-171.4592 1091.7782,-192.7759 1073,-201.2 960.2219,-251.7936 918.6067,-209.2 795,-209.2"/>
<polygon fill="#000000" stroke="#000000" points="1106.9347,-159.8013 1115.6706,-160.6044 1110.7174,-158.5007 1114.5,-157.2 1114.5,-157.2 1114.5,-157.2 1110.7174,-158.5007 1113.3294,-153.7956 1106.9347,-159.8013 1106.9347,-159.8013"/>
<ellipse fill="none" stroke="#000000" cx="1103.9086" cy="-160.8419" rx="3.2" ry="3.2"/>
</g>
<!-- act_cmmn_ru_sentry_part_inst&#45;&gt;act_cmmn_ru_plan_item_inst -->
<g id="edge10" class="edge">
<title>act_cmmn_ru_sentry_part_inst:w&#45;&gt;act_cmmn_ru_plan_item_inst:e</title>
<path fill="none" stroke="#000000" d="M1099.9909,-157.2C1088.6774,-157.2 1081.4931,-157.2 1065.5,-157.2"/>
<polygon fill="#000000" stroke="#000000" points="1106.5,-157.2001 1114.5,-160.8 1110.5,-157.2 1114.5,-157.2 1114.5,-157.2 1114.5,-157.2 1110.5,-157.2 1114.5,-153.6 1106.5,-157.2001 1106.5,-157.2001"/>
<ellipse fill="none" stroke="#000000" cx="1103.3" cy="-157.2001" rx="3.2" ry="3.2"/>
</g>
</g>
</svg>
