<?xml version="1.0" encoding="UTF-8" standalone="no"?>
<!DOCTYPE svg PUBLIC "-//W3C//DTD SVG 1.1//EN"
 "http://www.w3.org/Graphics/SVG/1.1/DTD/svg11.dtd">
<!-- Generated by graphviz version 2.40.1 (20161225.0304)
 -->
<!-- Title: oneDegreeRelationshipsDiagram Pages: 1 -->
<svg width="407pt" height="204pt"
 viewBox="0.00 0.00 407.00 204.20" xmlns="http://www.w3.org/2000/svg" xmlns:xlink="http://www.w3.org/1999/xlink">
<g id="graph0" class="graph" transform="scale(1 1) rotate(0) translate(4 200.2)">
<title>oneDegreeRelationshipsDiagram</title>
<polygon fill="#ffffff" stroke="transparent" points="-4,4 -4,-200.2 403,-200.2 403,4 -4,4"/>
<text text-anchor="middle" x="72.4936" y="-7.3" font-family="Helvetica,sans-Serif" font-size="11.00" fill="#000000">Generated by SchemaSpy</text>
<!-- act_id_membership -->
<g id="node1" class="node">
<title>act_id_membership</title>
<g id="a_node1"><a xlink:href="../../tables/act_id_membership.html" xlink:title="act_id_membership" target="_top">
<polygon fill="#ffffff" stroke="transparent" points="230,-106.2 230,-192.2 391,-192.2 391,-106.2 230,-106.2"/>
<polygon fill="#f5f5f5" stroke="transparent" points="230.5,-169.2 230.5,-192.2 391.5,-192.2 391.5,-169.2 230.5,-169.2"/>
<polygon fill="none" stroke="#000000" points="230.5,-169.2 230.5,-192.2 391.5,-192.2 391.5,-169.2 230.5,-169.2"/>
<text text-anchor="start" x="235.5" y="-177.8" font-family="Helvetica,sans-Serif" font-weight="bold" font-size="11.00" fill="#000000">act_id_membership</text>
<text text-anchor="start" x="357.0219" y="-177.3" font-family="Helvetica,sans-Serif" font-size="11.00" fill="#000000">[table]</text>
<polygon fill="none" stroke="#000000" points="230.5,-147.2 230.5,-169.2 391.5,-169.2 391.5,-147.2 230.5,-147.2"/>
<image xlink:href="../../images/primaryKeys.png" width="11px" height="12px" preserveAspectRatio="xMinYMin meet" x="235.5" y="-164.2"/>
<text text-anchor="start" x="259.5" y="-154.3" font-family="Helvetica,sans-Serif" font-size="11.00" fill="#000000">user_id_</text>
<polygon fill="none" stroke="#000000" points="230.5,-125.2 230.5,-147.2 391.5,-147.2 391.5,-125.2 230.5,-125.2"/>
<image xlink:href="../../images/primaryKeys.png" width="11px" height="12px" preserveAspectRatio="xMinYMin meet" x="235.5" y="-142.2"/>
<text text-anchor="start" x="259.5" y="-132.3" font-family="Helvetica,sans-Serif" font-size="11.00" fill="#000000">group_id_</text>
<polygon fill="#ffffff" stroke="transparent" points="230.5,-106.2 230.5,-125.2 391.5,-125.2 391.5,-106.2 230.5,-106.2"/>
<polygon fill="none" stroke="#000000" points="230.5,-106.2 230.5,-125.2 391.5,-125.2 391.5,-106.2 230.5,-106.2"/>
<polygon fill="#ffffff" stroke="transparent" points="231.5,-107.2 231.5,-124.2 290.5,-124.2 290.5,-107.2 231.5,-107.2"/>
<text text-anchor="start" x="233.5" y="-112.3" font-family="Helvetica,sans-Serif" font-size="11.00" fill="#000000">&lt; 2</text>
<polygon fill="#ffffff" stroke="transparent" points="290.5,-107.2 290.5,-124.2 340.5,-124.2 340.5,-107.2 290.5,-107.2"/>
<text text-anchor="start" x="312.4431" y="-112.3" font-family="Helvetica,sans-Serif" font-size="11.00" fill="#000000"> &#160;</text>
<polygon fill="#ffffff" stroke="transparent" points="340.5,-107.2 340.5,-124.2 390.5,-124.2 390.5,-107.2 340.5,-107.2"/>
<text text-anchor="start" x="382.3862" y="-112.3" font-family="Helvetica,sans-Serif" font-size="11.00" fill="#000000"> &#160;</text>
<polygon fill="#000000" stroke="#000000" points="290.5,-107.2 290.5,-124.2 290.5,-124.2 290.5,-107.2 290.5,-107.2"/>
<polygon fill="#000000" stroke="#000000" points="340.5,-107.2 340.5,-124.2 340.5,-124.2 340.5,-107.2 340.5,-107.2"/>
</a>
</g>
</g>
<!-- act_id_group -->
<g id="node2" class="node">
<title>act_id_group</title>
<g id="a_node2"><a xlink:href="../../tables/act_id_group.html" xlink:title="act_id_group" target="_top">
<polygon fill="#ffffff" stroke="transparent" points="8,-38.2 8,-172.2 181,-172.2 181,-38.2 8,-38.2"/>
<polygon fill="#f5f5f5" stroke="transparent" points="10.5,-147.2 10.5,-170.2 179.5,-170.2 179.5,-147.2 10.5,-147.2"/>
<polygon fill="none" stroke="#000000" points="10.5,-147.2 10.5,-170.2 179.5,-170.2 179.5,-147.2 10.5,-147.2"/>
<text text-anchor="start" x="15.5" y="-155.8" font-family="Helvetica,sans-Serif" font-weight="bold" font-size="11.00" fill="#000000">act_id_group</text>
<text text-anchor="start" x="144.5437" y="-155.3" font-family="Helvetica,sans-Serif" font-size="11.00" fill="#000000">[table]</text>
<polygon fill="none" stroke="#000000" points="10.5,-125.2 10.5,-147.2 112.5,-147.2 112.5,-125.2 10.5,-125.2"/>
<image xlink:href="../../images/primaryKeys.png" width="11px" height="12px" preserveAspectRatio="xMinYMin meet" x="15.5" y="-142.2"/>
<text text-anchor="start" x="30.5" y="-132.3" font-family="Helvetica,sans-Serif" font-size="11.00" fill="#000000">id_</text>
<polygon fill="none" stroke="#000000" points="112.5,-125.2 112.5,-147.2 179.5,-147.2 179.5,-125.2 112.5,-125.2"/>
<text text-anchor="start" x="115.5" y="-132.9" font-family="Helvetica,sans-Serif" font-size="11.00" fill="#000000">varchar[64]</text>
<polygon fill="none" stroke="#000000" points="10.5,-103.2 10.5,-125.2 112.5,-125.2 112.5,-103.2 10.5,-103.2"/>
<text text-anchor="start" x="30.5" y="-110.3" font-family="Helvetica,sans-Serif" font-size="11.00" fill="#000000">rev_</text>
<polygon fill="none" stroke="#000000" points="112.5,-103.2 112.5,-125.2 179.5,-125.2 179.5,-103.2 112.5,-103.2"/>
<text text-anchor="start" x="115.5" y="-110.9" font-family="Helvetica,sans-Serif" font-size="11.00" fill="#000000">int4[10]</text>
<polygon fill="none" stroke="#000000" points="10.5,-81.2 10.5,-103.2 112.5,-103.2 112.5,-81.2 10.5,-81.2"/>
<text text-anchor="start" x="30.5" y="-88.3" font-family="Helvetica,sans-Serif" font-size="11.00" fill="#000000">name_</text>
<polygon fill="none" stroke="#000000" points="112.5,-81.2 112.5,-103.2 179.5,-103.2 179.5,-81.2 112.5,-81.2"/>
<text text-anchor="start" x="115.4365" y="-88.9" font-family="Helvetica,sans-Serif" font-size="11.00" fill="#000000">varchar[255]</text>
<polygon fill="none" stroke="#000000" points="10.5,-59.2 10.5,-81.2 112.5,-81.2 112.5,-59.2 10.5,-59.2"/>
<text text-anchor="start" x="30.5" y="-66.3" font-family="Helvetica,sans-Serif" font-size="11.00" fill="#000000">type_</text>
<polygon fill="none" stroke="#000000" points="112.5,-59.2 112.5,-81.2 179.5,-81.2 179.5,-59.2 112.5,-59.2"/>
<text text-anchor="start" x="115.4365" y="-66.9" font-family="Helvetica,sans-Serif" font-size="11.00" fill="#000000">varchar[255]</text>
<polygon fill="#ffffff" stroke="transparent" points="10.5,-40.2 10.5,-59.2 179.5,-59.2 179.5,-40.2 10.5,-40.2"/>
<polygon fill="none" stroke="#000000" points="10.5,-40.2 10.5,-59.2 179.5,-59.2 179.5,-40.2 10.5,-40.2"/>
<polygon fill="#ffffff" stroke="transparent" points="11.5,-41.2 11.5,-58.2 70.5,-58.2 70.5,-41.2 11.5,-41.2"/>
<text text-anchor="start" x="13.5" y="-46.3" font-family="Helvetica,sans-Serif" font-size="11.00" fill="#000000">&lt; 0</text>
<polygon fill="#ffffff" stroke="transparent" points="70.5,-41.2 70.5,-58.2 120.5,-58.2 120.5,-41.2 70.5,-41.2"/>
<text text-anchor="start" x="92.4431" y="-46.3" font-family="Helvetica,sans-Serif" font-size="11.00" fill="#000000"> &#160;</text>
<polygon fill="#ffffff" stroke="transparent" points="120.5,-41.2 120.5,-58.2 178.5,-58.2 178.5,-41.2 120.5,-41.2"/>
<text text-anchor="start" x="160.9053" y="-46.3" font-family="Helvetica,sans-Serif" font-size="11.00" fill="#000000">1 &gt;</text>
<polygon fill="#000000" stroke="#000000" points="70.5,-41.2 70.5,-58.2 70.5,-58.2 70.5,-41.2 70.5,-41.2"/>
<polygon fill="#000000" stroke="#000000" points="120.5,-41.2 120.5,-58.2 120.5,-58.2 120.5,-41.2 120.5,-41.2"/>
<polygon fill="none" stroke="#000000" stroke-width="2" points="9,-39.2 9,-171.2 180,-171.2 180,-39.2 9,-39.2"/>
</a>
</g>
</g>
<!-- act_id_membership&#45;&gt;act_id_group -->
<g id="edge1" class="edge">
<title>act_id_membership:w&#45;&gt;act_id_group:e</title>
<path fill="none" stroke="#000000" d="M215.776,-136.2C203.7815,-136.2 196.3229,-136.2 179.5,-136.2"/>
<polygon fill="#000000" stroke="#000000" points="222.5,-136.2001 230.5,-139.8 226.5,-136.2 230.5,-136.2 230.5,-136.2 230.5,-136.2 226.5,-136.2 230.5,-132.6 222.5,-136.2001 222.5,-136.2001"/>
<ellipse fill="none" stroke="#000000" cx="219.3" cy="-136.2001" rx="3.2" ry="3.2"/>
</g>
</g>
</svg>
