<?xml version="1.0" encoding="UTF-8" standalone="no"?>
<!DOCTYPE svg PUBLIC "-//W3C//DTD SVG 1.1//EN"
 "http://www.w3.org/Graphics/SVG/1.1/DTD/svg11.dtd">
<!-- Generated by graphviz version 2.40.1 (20161225.0304)
 -->
<!-- Title: oneDegreeRelationshipsDiagram Pages: 1 -->
<svg width="272pt" height="272pt"
 viewBox="0.00 0.00 272.00 272.20" xmlns="http://www.w3.org/2000/svg" xmlns:xlink="http://www.w3.org/1999/xlink">
<g id="graph0" class="graph" transform="scale(1 1) rotate(0) translate(4 268.2)">
<title>oneDegreeRelationshipsDiagram</title>
<polygon fill="#ffffff" stroke="transparent" points="-4,4 -4,-268.2 268,-268.2 268,4 -4,4"/>
<text text-anchor="middle" x="72.4936" y="-7.3" font-family="Helvetica,sans-Serif" font-size="11.00" fill="#000000">Generated by SchemaSpy</text>
<!-- act_cmmn_hi_mil_inst -->
<g id="node1" class="node">
<title>act_cmmn_hi_mil_inst</title>
<g id="a_node1"><a xlink:href="../../tables/act_cmmn_hi_mil_inst.html" xlink:title="act_cmmn_hi_mil_inst" target="_top">
<polygon fill="#ffffff" stroke="transparent" points="8,-38.2 8,-260.2 256,-260.2 256,-38.2 8,-38.2"/>
<polygon fill="#f5f5f5" stroke="transparent" points="10,-235.2 10,-258.2 254,-258.2 254,-235.2 10,-235.2"/>
<polygon fill="none" stroke="#000000" points="10,-235.2 10,-258.2 254,-258.2 254,-235.2 10,-235.2"/>
<text text-anchor="start" x="15" y="-243.8" font-family="Helvetica,sans-Serif" font-weight="bold" font-size="11.00" fill="#000000">act_cmmn_hi_mil_inst</text>
<text text-anchor="start" x="219.0437" y="-243.3" font-family="Helvetica,sans-Serif" font-size="11.00" fill="#000000">[table]</text>
<polygon fill="none" stroke="#000000" points="10,-213.2 10,-235.2 170,-235.2 170,-213.2 10,-213.2"/>
<image xlink:href="../../images/primaryKeys.png" width="11px" height="12px" preserveAspectRatio="xMinYMin meet" x="15" y="-230.2"/>
<text text-anchor="start" x="30" y="-220.3" font-family="Helvetica,sans-Serif" font-size="11.00" fill="#000000">id_</text>
<polygon fill="none" stroke="#000000" points="170,-213.2 170,-235.2 254,-235.2 254,-213.2 170,-213.2"/>
<text text-anchor="start" x="173" y="-220.9" font-family="Helvetica,sans-Serif" font-size="11.00" fill="#000000">varchar[255]</text>
<polygon fill="none" stroke="#000000" points="10,-191.2 10,-213.2 170,-213.2 170,-191.2 10,-191.2"/>
<text text-anchor="start" x="30" y="-198.3" font-family="Helvetica,sans-Serif" font-size="11.00" fill="#000000">rev_</text>
<polygon fill="none" stroke="#000000" points="170,-191.2 170,-213.2 254,-213.2 254,-191.2 170,-191.2"/>
<text text-anchor="start" x="173" y="-198.9" font-family="Helvetica,sans-Serif" font-size="11.00" fill="#000000">int4[10]</text>
<polygon fill="none" stroke="#000000" points="10,-169.2 10,-191.2 170,-191.2 170,-169.2 10,-169.2"/>
<text text-anchor="start" x="30" y="-176.3" font-family="Helvetica,sans-Serif" font-size="11.00" fill="#000000">name_</text>
<polygon fill="none" stroke="#000000" points="170,-169.2 170,-191.2 254,-191.2 254,-169.2 170,-169.2"/>
<text text-anchor="start" x="173" y="-176.9" font-family="Helvetica,sans-Serif" font-size="11.00" fill="#000000">varchar[255]</text>
<polygon fill="none" stroke="#000000" points="10,-147.2 10,-169.2 170,-169.2 170,-147.2 10,-147.2"/>
<text text-anchor="start" x="30" y="-154.3" font-family="Helvetica,sans-Serif" font-size="11.00" fill="#000000">time_stamp_</text>
<polygon fill="none" stroke="#000000" points="170,-147.2 170,-169.2 254,-169.2 254,-147.2 170,-147.2"/>
<text text-anchor="start" x="172.8807" y="-154.9" font-family="Helvetica,sans-Serif" font-size="11.00" fill="#000000">timestamp[29,6]</text>
<polygon fill="none" stroke="#000000" points="10,-125.2 10,-147.2 170,-147.2 170,-125.2 10,-125.2"/>
<text text-anchor="start" x="30" y="-132.3" font-family="Helvetica,sans-Serif" font-size="11.00" fill="#000000">case_inst_id_</text>
<polygon fill="none" stroke="#000000" points="170,-125.2 170,-147.2 254,-147.2 254,-125.2 170,-125.2"/>
<text text-anchor="start" x="173" y="-132.9" font-family="Helvetica,sans-Serif" font-size="11.00" fill="#000000">varchar[255]</text>
<polygon fill="none" stroke="#000000" points="10,-103.2 10,-125.2 170,-125.2 170,-103.2 10,-103.2"/>
<text text-anchor="start" x="30" y="-110.3" font-family="Helvetica,sans-Serif" font-size="11.00" fill="#000000">case_def_id_</text>
<polygon fill="none" stroke="#000000" points="170,-103.2 170,-125.2 254,-125.2 254,-103.2 170,-103.2"/>
<text text-anchor="start" x="173" y="-110.9" font-family="Helvetica,sans-Serif" font-size="11.00" fill="#000000">varchar[255]</text>
<polygon fill="none" stroke="#000000" points="10,-81.2 10,-103.2 170,-103.2 170,-81.2 10,-81.2"/>
<text text-anchor="start" x="30" y="-88.3" font-family="Helvetica,sans-Serif" font-size="11.00" fill="#000000">element_id_</text>
<polygon fill="none" stroke="#000000" points="170,-81.2 170,-103.2 254,-103.2 254,-81.2 170,-81.2"/>
<text text-anchor="start" x="173" y="-88.9" font-family="Helvetica,sans-Serif" font-size="11.00" fill="#000000">varchar[255]</text>
<polygon fill="none" stroke="#000000" points="10,-59.2 10,-81.2 170,-81.2 170,-59.2 10,-59.2"/>
<text text-anchor="start" x="30" y="-66.3" font-family="Helvetica,sans-Serif" font-size="11.00" fill="#000000">tenant_id_</text>
<polygon fill="none" stroke="#000000" points="170,-59.2 170,-81.2 254,-81.2 254,-59.2 170,-59.2"/>
<text text-anchor="start" x="173" y="-66.9" font-family="Helvetica,sans-Serif" font-size="11.00" fill="#000000">varchar[255]</text>
<polygon fill="#ffffff" stroke="transparent" points="10,-40.2 10,-59.2 254,-59.2 254,-40.2 10,-40.2"/>
<polygon fill="none" stroke="#000000" points="10,-40.2 10,-59.2 254,-59.2 254,-40.2 10,-40.2"/>
<polygon fill="#ffffff" stroke="transparent" points="11,-41.2 11,-58.2 95,-58.2 95,-41.2 11,-41.2"/>
<text text-anchor="start" x="13" y="-46.3" font-family="Helvetica,sans-Serif" font-size="11.00" fill="#000000">&lt; 0</text>
<polygon fill="#ffffff" stroke="transparent" points="95,-41.2 95,-58.2 170,-58.2 170,-41.2 95,-41.2"/>
<text text-anchor="start" x="129.4431" y="-46.3" font-family="Helvetica,sans-Serif" font-size="11.00" fill="#000000"> &#160;</text>
<polygon fill="#ffffff" stroke="transparent" points="170,-41.2 170,-58.2 253,-58.2 253,-41.2 170,-41.2"/>
<text text-anchor="start" x="235.4053" y="-46.3" font-family="Helvetica,sans-Serif" font-size="11.00" fill="#000000">0 &gt;</text>
<polygon fill="#000000" stroke="#000000" points="95,-41.2 95,-58.2 95,-58.2 95,-41.2 95,-41.2"/>
<polygon fill="#000000" stroke="#000000" points="170,-41.2 170,-58.2 170,-58.2 170,-41.2 170,-41.2"/>
<polygon fill="none" stroke="#000000" stroke-width="2" points="9,-39.2 9,-259.2 255,-259.2 255,-39.2 9,-39.2"/>
</a>
</g>
</g>
</g>
</svg>
