<?xml version="1.0" encoding="UTF-8" standalone="no"?>
<!DOCTYPE svg PUBLIC "-//W3C//DTD SVG 1.1//EN"
 "http://www.w3.org/Graphics/SVG/1.1/DTD/svg11.dtd">
<!-- Generated by graphviz version 2.40.1 (20161225.0304)
 -->
<!-- Title: oneDegreeRelationshipsDiagram Pages: 1 -->
<svg width="557pt" height="184pt"
 viewBox="0.00 0.00 557.00 184.20" xmlns="http://www.w3.org/2000/svg" xmlns:xlink="http://www.w3.org/1999/xlink">
<g id="graph0" class="graph" transform="scale(1 1) rotate(0) translate(4 180.2)">
<title>oneDegreeRelationshipsDiagram</title>
<polygon fill="#ffffff" stroke="transparent" points="-4,4 -4,-180.2 553,-180.2 553,4 -4,4"/>
<text text-anchor="middle" x="72.4936" y="-7.3" font-family="Helvetica,sans-Serif" font-size="11.00" fill="#000000">Generated by SchemaSpy</text>
<!-- act_app_deployment_resource -->
<g id="node1" class="node">
<title>act_app_deployment_resource</title>
<g id="a_node1"><a xlink:href="../../tables/act_app_deployment_resource.html" xlink:title="act_app_deployment_resource" target="_top">
<polygon fill="#ffffff" stroke="transparent" points="225,-38.2 225,-172.2 541,-172.2 541,-38.2 225,-38.2"/>
<polygon fill="#f5f5f5" stroke="transparent" points="227,-147.2 227,-170.2 539,-170.2 539,-147.2 227,-147.2"/>
<polygon fill="none" stroke="#000000" points="227,-147.2 227,-170.2 539,-170.2 539,-147.2 227,-147.2"/>
<text text-anchor="start" x="232" y="-155.8" font-family="Helvetica,sans-Serif" font-weight="bold" font-size="11.00" fill="#000000">act_app_deployment_resource</text>
<text text-anchor="start" x="504.0437" y="-155.3" font-family="Helvetica,sans-Serif" font-size="11.00" fill="#000000">[table]</text>
<polygon fill="none" stroke="#000000" points="227,-125.2 227,-147.2 439,-147.2 439,-125.2 227,-125.2"/>
<image xlink:href="../../images/primaryKeys.png" width="11px" height="12px" preserveAspectRatio="xMinYMin meet" x="232" y="-142.2"/>
<text text-anchor="start" x="247" y="-132.3" font-family="Helvetica,sans-Serif" font-size="11.00" fill="#000000">id_</text>
<polygon fill="none" stroke="#000000" points="439,-125.2 439,-147.2 539,-147.2 539,-125.2 439,-125.2"/>
<text text-anchor="start" x="442" y="-132.9" font-family="Helvetica,sans-Serif" font-size="11.00" fill="#000000">varchar[255]</text>
<polygon fill="none" stroke="#000000" points="227,-103.2 227,-125.2 439,-125.2 439,-103.2 227,-103.2"/>
<text text-anchor="start" x="247" y="-110.3" font-family="Helvetica,sans-Serif" font-size="11.00" fill="#000000">name_</text>
<polygon fill="none" stroke="#000000" points="439,-103.2 439,-125.2 539,-125.2 539,-103.2 439,-103.2"/>
<text text-anchor="start" x="442" y="-110.9" font-family="Helvetica,sans-Serif" font-size="11.00" fill="#000000">varchar[255]</text>
<polygon fill="#ffffff" stroke="transparent" points="227,-81.2 227,-103.2 439,-103.2 439,-81.2 227,-81.2"/>
<polygon fill="none" stroke="#000000" points="227,-81.2 227,-103.2 439,-103.2 439,-81.2 227,-81.2"/>
<image xlink:href="../../images/foreignKeys.png" width="11px" height="12px" preserveAspectRatio="xMinYMin meet" x="232" y="-98.2"/>
<text text-anchor="start" x="247" y="-88.3" font-family="Helvetica,sans-Serif" font-size="11.00" fill="#000000">deployment_id_</text>
<polygon fill="none" stroke="#000000" points="439,-81.2 439,-103.2 539,-103.2 539,-81.2 439,-81.2"/>
<text text-anchor="start" x="442" y="-88.9" font-family="Helvetica,sans-Serif" font-size="11.00" fill="#000000">varchar[255]</text>
<polygon fill="none" stroke="#000000" points="227,-59.2 227,-81.2 439,-81.2 439,-59.2 227,-59.2"/>
<text text-anchor="start" x="247" y="-66.3" font-family="Helvetica,sans-Serif" font-size="11.00" fill="#000000">resource_bytes_</text>
<polygon fill="none" stroke="#000000" points="439,-59.2 439,-81.2 539,-81.2 539,-59.2 439,-59.2"/>
<text text-anchor="start" x="441.9178" y="-66.9" font-family="Helvetica,sans-Serif" font-size="11.00" fill="#000000">bytea[2147483647]</text>
<polygon fill="#ffffff" stroke="transparent" points="227,-40.2 227,-59.2 539,-59.2 539,-40.2 227,-40.2"/>
<polygon fill="none" stroke="#000000" points="227,-40.2 227,-59.2 539,-59.2 539,-40.2 227,-40.2"/>
<polygon fill="#ffffff" stroke="transparent" points="228,-41.2 228,-58.2 335,-58.2 335,-41.2 228,-41.2"/>
<text text-anchor="start" x="230" y="-46.3" font-family="Helvetica,sans-Serif" font-size="11.00" fill="#000000">&lt; 1</text>
<polygon fill="#ffffff" stroke="transparent" points="335,-41.2 335,-58.2 432,-58.2 432,-41.2 335,-41.2"/>
<text text-anchor="start" x="380.4431" y="-46.3" font-family="Helvetica,sans-Serif" font-size="11.00" fill="#000000"> &#160;</text>
<polygon fill="#ffffff" stroke="transparent" points="432,-41.2 432,-58.2 538,-58.2 538,-41.2 432,-41.2"/>
<text text-anchor="start" x="520.4053" y="-46.3" font-family="Helvetica,sans-Serif" font-size="11.00" fill="#000000">0 &gt;</text>
<polygon fill="#000000" stroke="#000000" points="335,-41.2 335,-58.2 335,-58.2 335,-41.2 335,-41.2"/>
<polygon fill="#000000" stroke="#000000" points="432,-41.2 432,-58.2 432,-58.2 432,-41.2 432,-41.2"/>
<polygon fill="none" stroke="#000000" stroke-width="2" points="226,-39.2 226,-171.2 540,-171.2 540,-39.2 226,-39.2"/>
</a>
</g>
</g>
<!-- act_app_deployment -->
<g id="node2" class="node">
<title>act_app_deployment</title>
<g id="a_node2"><a xlink:href="../../tables/act_app_deployment.html" xlink:title="act_app_deployment" target="_top">
<polygon fill="#ffffff" stroke="transparent" points="8,-43.7 8,-126.7 176,-126.7 176,-43.7 8,-43.7"/>
<polygon fill="#f5f5f5" stroke="transparent" points="8,-103.2 8,-126.2 176,-126.2 176,-103.2 8,-103.2"/>
<polygon fill="none" stroke="#000000" points="8,-103.2 8,-126.2 176,-126.2 176,-103.2 8,-103.2"/>
<text text-anchor="start" x="13" y="-111.8" font-family="Helvetica,sans-Serif" font-weight="bold" font-size="11.00" fill="#000000">act_app_deployment</text>
<text text-anchor="start" x="141.5219" y="-111.3" font-family="Helvetica,sans-Serif" font-size="11.00" fill="#000000">[table]</text>
<polygon fill="none" stroke="#000000" points="8,-81.2 8,-103.2 176,-103.2 176,-81.2 8,-81.2"/>
<image xlink:href="../../images/primaryKeys.png" width="11px" height="12px" preserveAspectRatio="xMinYMin meet" x="13" y="-98.2"/>
<text text-anchor="start" x="37" y="-88.3" font-family="Helvetica,sans-Serif" font-size="11.00" fill="#000000">id_</text>
<polygon fill="none" stroke="#000000" points="8,-62.2 8,-81.2 176,-81.2 176,-62.2 8,-62.2"/>
<text text-anchor="start" x="11" y="-68.3" font-family="Helvetica,sans-Serif" font-size="11.00" fill="#000000">...</text>
<polygon fill="#ffffff" stroke="transparent" points="8,-43.2 8,-62.2 176,-62.2 176,-43.2 8,-43.2"/>
<polygon fill="none" stroke="#000000" points="8,-43.2 8,-62.2 176,-62.2 176,-43.2 8,-43.2"/>
<polygon fill="#ffffff" stroke="transparent" points="9,-44.2 9,-61.2 62,-61.2 62,-44.2 9,-44.2"/>
<text text-anchor="start" x="11" y="-49.3" font-family="Helvetica,sans-Serif" font-size="11.00" fill="#000000"> &#160;</text>
<polygon fill="#ffffff" stroke="transparent" points="62,-44.2 62,-61.2 114,-61.2 114,-44.2 62,-44.2"/>
<text text-anchor="start" x="84.9431" y="-49.3" font-family="Helvetica,sans-Serif" font-size="11.00" fill="#000000"> &#160;</text>
<polygon fill="#ffffff" stroke="transparent" points="114,-44.2 114,-61.2 175,-61.2 175,-44.2 114,-44.2"/>
<text text-anchor="start" x="157.4053" y="-49.3" font-family="Helvetica,sans-Serif" font-size="11.00" fill="#000000">2 &gt;</text>
<polygon fill="#000000" stroke="#000000" points="62,-44.2 62,-61.2 62,-61.2 62,-44.2 62,-44.2"/>
<polygon fill="#000000" stroke="#000000" points="114,-44.2 114,-61.2 114,-61.2 114,-44.2 114,-44.2"/>
</a>
</g>
</g>
<!-- act_app_deployment_resource&#45;&gt;act_app_deployment -->
<g id="edge1" class="edge">
<title>act_app_deployment_resource:w&#45;&gt;act_app_deployment:e</title>
<path fill="none" stroke="#000000" d="M212.276,-92.2C200.2815,-92.2 192.8229,-92.2 176,-92.2"/>
<polygon fill="#000000" stroke="#000000" points="219,-92.2001 227,-95.8 223,-92.2 227,-92.2 227,-92.2 227,-92.2 223,-92.2 227,-88.6 219,-92.2001 219,-92.2001"/>
<ellipse fill="none" stroke="#000000" cx="215.8" cy="-92.2001" rx="3.2" ry="3.2"/>
</g>
</g>
</svg>
