<?xml version="1.0" encoding="UTF-8" standalone="no"?>
<!DOCTYPE svg PUBLIC "-//W3C//DTD SVG 1.1//EN"
 "http://www.w3.org/Graphics/SVG/1.1/DTD/svg11.dtd">
<!-- Generated by graphviz version 2.40.1 (20161225.0304)
 -->
<!-- Title: oneDegreeRelationshipsDiagram Pages: 1 -->
<svg width="1069pt" height="662pt"
 viewBox="0.00 0.00 1069.00 661.89" xmlns="http://www.w3.org/2000/svg" xmlns:xlink="http://www.w3.org/1999/xlink">
<g id="graph0" class="graph" transform="scale(1 1) rotate(0) translate(4 657.8862)">
<title>oneDegreeRelationshipsDiagram</title>
<polygon fill="#ffffff" stroke="transparent" points="-4,4 -4,-657.8862 1065,-657.8862 1065,4 -4,4"/>
<text text-anchor="middle" x="72.4936" y="-7.3" font-family="Helvetica,sans-Serif" font-size="11.00" fill="#000000">Generated by SchemaSpy</text>
<!-- act_cmmn_ru_case_inst -->
<g id="node1" class="node">
<title>act_cmmn_ru_case_inst</title>
<g id="a_node1"><a xlink:href="../../tables/act_cmmn_ru_case_inst.html" xlink:title="act_cmmn_ru_case_inst" target="_top">
<polygon fill="#ffffff" stroke="transparent" points="231,-77.2534 231,-563.2534 503,-563.2534 503,-77.2534 231,-77.2534"/>
<polygon fill="#f5f5f5" stroke="transparent" points="233,-538.2534 233,-561.2534 501,-561.2534 501,-538.2534 233,-538.2534"/>
<polygon fill="none" stroke="#000000" points="233,-538.2534 233,-561.2534 501,-561.2534 501,-538.2534 233,-538.2534"/>
<text text-anchor="start" x="238" y="-546.8534" font-family="Helvetica,sans-Serif" font-weight="bold" font-size="11.00" fill="#000000">act_cmmn_ru_case_inst</text>
<text text-anchor="start" x="466.0437" y="-546.3534" font-family="Helvetica,sans-Serif" font-size="11.00" fill="#000000">[table]</text>
<polygon fill="none" stroke="#000000" points="233,-516.2534 233,-538.2534 417,-538.2534 417,-516.2534 233,-516.2534"/>
<image xlink:href="../../images/primaryKeys.png" width="11px" height="12px" preserveAspectRatio="xMinYMin meet" x="238" y="-533.253"/>
<text text-anchor="start" x="253" y="-523.3534" font-family="Helvetica,sans-Serif" font-size="11.00" fill="#000000">id_</text>
<polygon fill="none" stroke="#000000" points="417,-516.2534 417,-538.2534 501,-538.2534 501,-516.2534 417,-516.2534"/>
<text text-anchor="start" x="420" y="-523.9534" font-family="Helvetica,sans-Serif" font-size="11.00" fill="#000000">varchar[255]</text>
<polygon fill="none" stroke="#000000" points="233,-494.2534 233,-516.2534 417,-516.2534 417,-494.2534 233,-494.2534"/>
<text text-anchor="start" x="253" y="-501.3534" font-family="Helvetica,sans-Serif" font-size="11.00" fill="#000000">rev_</text>
<polygon fill="none" stroke="#000000" points="417,-494.2534 417,-516.2534 501,-516.2534 501,-494.2534 417,-494.2534"/>
<text text-anchor="start" x="420" y="-501.9534" font-family="Helvetica,sans-Serif" font-size="11.00" fill="#000000">int4[10]</text>
<polygon fill="none" stroke="#000000" points="233,-472.2534 233,-494.2534 417,-494.2534 417,-472.2534 233,-472.2534"/>
<text text-anchor="start" x="253" y="-479.3534" font-family="Helvetica,sans-Serif" font-size="11.00" fill="#000000">business_key_</text>
<polygon fill="none" stroke="#000000" points="417,-472.2534 417,-494.2534 501,-494.2534 501,-472.2534 417,-472.2534"/>
<text text-anchor="start" x="420" y="-479.9534" font-family="Helvetica,sans-Serif" font-size="11.00" fill="#000000">varchar[255]</text>
<polygon fill="none" stroke="#000000" points="233,-450.2534 233,-472.2534 417,-472.2534 417,-450.2534 233,-450.2534"/>
<text text-anchor="start" x="253" y="-457.3534" font-family="Helvetica,sans-Serif" font-size="11.00" fill="#000000">name_</text>
<polygon fill="none" stroke="#000000" points="417,-450.2534 417,-472.2534 501,-472.2534 501,-450.2534 417,-450.2534"/>
<text text-anchor="start" x="420" y="-457.9534" font-family="Helvetica,sans-Serif" font-size="11.00" fill="#000000">varchar[255]</text>
<polygon fill="#ffffff" stroke="transparent" points="233,-428.2534 233,-450.2534 417,-450.2534 417,-428.2534 233,-428.2534"/>
<polygon fill="none" stroke="#000000" points="233,-428.2534 233,-450.2534 417,-450.2534 417,-428.2534 233,-428.2534"/>
<text text-anchor="start" x="253" y="-435.3534" font-family="Helvetica,sans-Serif" font-size="11.00" fill="#000000">parent_id_</text>
<polygon fill="none" stroke="#000000" points="417,-428.2534 417,-450.2534 501,-450.2534 501,-428.2534 417,-428.2534"/>
<text text-anchor="start" x="420" y="-435.9534" font-family="Helvetica,sans-Serif" font-size="11.00" fill="#000000">varchar[255]</text>
<polygon fill="#ffffff" stroke="transparent" points="233,-406.2534 233,-428.2534 417,-428.2534 417,-406.2534 233,-406.2534"/>
<polygon fill="none" stroke="#000000" points="233,-406.2534 233,-428.2534 417,-428.2534 417,-406.2534 233,-406.2534"/>
<image xlink:href="../../images/foreignKeys.png" width="11px" height="12px" preserveAspectRatio="xMinYMin meet" x="238" y="-423.253"/>
<text text-anchor="start" x="253" y="-413.3534" font-family="Helvetica,sans-Serif" font-size="11.00" fill="#000000">case_def_id_</text>
<polygon fill="none" stroke="#000000" points="417,-406.2534 417,-428.2534 501,-428.2534 501,-406.2534 417,-406.2534"/>
<text text-anchor="start" x="420" y="-413.9534" font-family="Helvetica,sans-Serif" font-size="11.00" fill="#000000">varchar[255]</text>
<polygon fill="none" stroke="#000000" points="233,-384.2534 233,-406.2534 417,-406.2534 417,-384.2534 233,-384.2534"/>
<text text-anchor="start" x="253" y="-391.3534" font-family="Helvetica,sans-Serif" font-size="11.00" fill="#000000">state_</text>
<polygon fill="none" stroke="#000000" points="417,-384.2534 417,-406.2534 501,-406.2534 501,-384.2534 417,-384.2534"/>
<text text-anchor="start" x="420" y="-391.9534" font-family="Helvetica,sans-Serif" font-size="11.00" fill="#000000">varchar[255]</text>
<polygon fill="none" stroke="#000000" points="233,-362.2534 233,-384.2534 417,-384.2534 417,-362.2534 233,-362.2534"/>
<text text-anchor="start" x="253" y="-369.3534" font-family="Helvetica,sans-Serif" font-size="11.00" fill="#000000">start_time_</text>
<polygon fill="none" stroke="#000000" points="417,-362.2534 417,-384.2534 501,-384.2534 501,-362.2534 417,-362.2534"/>
<text text-anchor="start" x="419.8807" y="-369.9534" font-family="Helvetica,sans-Serif" font-size="11.00" fill="#000000">timestamp[29,6]</text>
<polygon fill="none" stroke="#000000" points="233,-340.2534 233,-362.2534 417,-362.2534 417,-340.2534 233,-340.2534"/>
<text text-anchor="start" x="253" y="-347.3534" font-family="Helvetica,sans-Serif" font-size="11.00" fill="#000000">start_user_id_</text>
<polygon fill="none" stroke="#000000" points="417,-340.2534 417,-362.2534 501,-362.2534 501,-340.2534 417,-340.2534"/>
<text text-anchor="start" x="420" y="-347.9534" font-family="Helvetica,sans-Serif" font-size="11.00" fill="#000000">varchar[255]</text>
<polygon fill="none" stroke="#000000" points="233,-318.2534 233,-340.2534 417,-340.2534 417,-318.2534 233,-318.2534"/>
<text text-anchor="start" x="253" y="-325.3534" font-family="Helvetica,sans-Serif" font-size="11.00" fill="#000000">callback_id_</text>
<polygon fill="none" stroke="#000000" points="417,-318.2534 417,-340.2534 501,-340.2534 501,-318.2534 417,-318.2534"/>
<text text-anchor="start" x="420" y="-325.9534" font-family="Helvetica,sans-Serif" font-size="11.00" fill="#000000">varchar[255]</text>
<polygon fill="none" stroke="#000000" points="233,-296.2534 233,-318.2534 417,-318.2534 417,-296.2534 233,-296.2534"/>
<text text-anchor="start" x="253" y="-303.3534" font-family="Helvetica,sans-Serif" font-size="11.00" fill="#000000">callback_type_</text>
<polygon fill="none" stroke="#000000" points="417,-296.2534 417,-318.2534 501,-318.2534 501,-296.2534 417,-296.2534"/>
<text text-anchor="start" x="420" y="-303.9534" font-family="Helvetica,sans-Serif" font-size="11.00" fill="#000000">varchar[255]</text>
<polygon fill="none" stroke="#000000" points="233,-274.2534 233,-296.2534 417,-296.2534 417,-274.2534 233,-274.2534"/>
<text text-anchor="start" x="253" y="-281.3534" font-family="Helvetica,sans-Serif" font-size="11.00" fill="#000000">lock_time_</text>
<polygon fill="none" stroke="#000000" points="417,-274.2534 417,-296.2534 501,-296.2534 501,-274.2534 417,-274.2534"/>
<text text-anchor="start" x="419.8807" y="-281.9534" font-family="Helvetica,sans-Serif" font-size="11.00" fill="#000000">timestamp[29,6]</text>
<polygon fill="none" stroke="#000000" points="233,-252.2534 233,-274.2534 417,-274.2534 417,-252.2534 233,-252.2534"/>
<text text-anchor="start" x="253" y="-259.3534" font-family="Helvetica,sans-Serif" font-size="11.00" fill="#000000">lock_owner_</text>
<polygon fill="none" stroke="#000000" points="417,-252.2534 417,-274.2534 501,-274.2534 501,-252.2534 417,-252.2534"/>
<text text-anchor="start" x="420" y="-259.9534" font-family="Helvetica,sans-Serif" font-size="11.00" fill="#000000">varchar[255]</text>
<polygon fill="none" stroke="#000000" points="233,-230.2534 233,-252.2534 417,-252.2534 417,-230.2534 233,-230.2534"/>
<text text-anchor="start" x="253" y="-237.3534" font-family="Helvetica,sans-Serif" font-size="11.00" fill="#000000">is_completeable_</text>
<polygon fill="none" stroke="#000000" points="417,-230.2534 417,-252.2534 501,-252.2534 501,-230.2534 417,-230.2534"/>
<text text-anchor="start" x="420" y="-237.9534" font-family="Helvetica,sans-Serif" font-size="11.00" fill="#000000">bool[1]</text>
<polygon fill="#ffffff" stroke="transparent" points="233,-208.2534 233,-230.2534 417,-230.2534 417,-208.2534 233,-208.2534"/>
<polygon fill="none" stroke="#000000" points="233,-208.2534 233,-230.2534 417,-230.2534 417,-208.2534 233,-208.2534"/>
<text text-anchor="start" x="253" y="-215.3534" font-family="Helvetica,sans-Serif" font-size="11.00" fill="#000000">reference_id_</text>
<polygon fill="none" stroke="#000000" points="417,-208.2534 417,-230.2534 501,-230.2534 501,-208.2534 417,-208.2534"/>
<text text-anchor="start" x="420" y="-215.9534" font-family="Helvetica,sans-Serif" font-size="11.00" fill="#000000">varchar[255]</text>
<polygon fill="none" stroke="#000000" points="233,-186.2534 233,-208.2534 417,-208.2534 417,-186.2534 233,-186.2534"/>
<text text-anchor="start" x="253" y="-193.3534" font-family="Helvetica,sans-Serif" font-size="11.00" fill="#000000">reference_type_</text>
<polygon fill="none" stroke="#000000" points="417,-186.2534 417,-208.2534 501,-208.2534 501,-186.2534 417,-186.2534"/>
<text text-anchor="start" x="420" y="-193.9534" font-family="Helvetica,sans-Serif" font-size="11.00" fill="#000000">varchar[255]</text>
<polygon fill="none" stroke="#000000" points="233,-164.2534 233,-186.2534 417,-186.2534 417,-164.2534 233,-164.2534"/>
<text text-anchor="start" x="253" y="-171.3534" font-family="Helvetica,sans-Serif" font-size="11.00" fill="#000000">last_reactivation_time_</text>
<polygon fill="none" stroke="#000000" points="417,-164.2534 417,-186.2534 501,-186.2534 501,-164.2534 417,-164.2534"/>
<text text-anchor="start" x="419.8807" y="-171.9534" font-family="Helvetica,sans-Serif" font-size="11.00" fill="#000000">timestamp[26,3]</text>
<polygon fill="none" stroke="#000000" points="233,-142.2534 233,-164.2534 417,-164.2534 417,-142.2534 233,-142.2534"/>
<text text-anchor="start" x="253" y="-149.3534" font-family="Helvetica,sans-Serif" font-size="11.00" fill="#000000">last_reactivation_user_id_</text>
<polygon fill="none" stroke="#000000" points="417,-142.2534 417,-164.2534 501,-164.2534 501,-142.2534 417,-142.2534"/>
<text text-anchor="start" x="420" y="-149.9534" font-family="Helvetica,sans-Serif" font-size="11.00" fill="#000000">varchar[255]</text>
<polygon fill="none" stroke="#000000" points="233,-120.2534 233,-142.2534 417,-142.2534 417,-120.2534 233,-120.2534"/>
<text text-anchor="start" x="253" y="-127.3534" font-family="Helvetica,sans-Serif" font-size="11.00" fill="#000000">business_status_</text>
<polygon fill="none" stroke="#000000" points="417,-120.2534 417,-142.2534 501,-142.2534 501,-120.2534 417,-120.2534"/>
<text text-anchor="start" x="420" y="-127.9534" font-family="Helvetica,sans-Serif" font-size="11.00" fill="#000000">varchar[255]</text>
<polygon fill="none" stroke="#000000" points="233,-98.2534 233,-120.2534 417,-120.2534 417,-98.2534 233,-98.2534"/>
<text text-anchor="start" x="253" y="-105.3534" font-family="Helvetica,sans-Serif" font-size="11.00" fill="#000000">tenant_id_</text>
<polygon fill="none" stroke="#000000" points="417,-98.2534 417,-120.2534 501,-120.2534 501,-98.2534 417,-98.2534"/>
<text text-anchor="start" x="420" y="-105.9534" font-family="Helvetica,sans-Serif" font-size="11.00" fill="#000000">varchar[255]</text>
<polygon fill="#ffffff" stroke="transparent" points="233,-79.2534 233,-98.2534 501,-98.2534 501,-79.2534 233,-79.2534"/>
<polygon fill="none" stroke="#000000" points="233,-79.2534 233,-98.2534 501,-98.2534 501,-79.2534 233,-79.2534"/>
<polygon fill="#ffffff" stroke="transparent" points="234,-80.2534 234,-97.2534 326,-97.2534 326,-80.2534 234,-80.2534"/>
<text text-anchor="start" x="236" y="-85.3534" font-family="Helvetica,sans-Serif" font-size="11.00" fill="#000000">&lt; 1</text>
<polygon fill="#ffffff" stroke="transparent" points="326,-80.2534 326,-97.2534 409,-97.2534 409,-80.2534 326,-80.2534"/>
<text text-anchor="start" x="364.4431" y="-85.3534" font-family="Helvetica,sans-Serif" font-size="11.00" fill="#000000"> &#160;</text>
<polygon fill="#ffffff" stroke="transparent" points="409,-80.2534 409,-97.2534 500,-97.2534 500,-80.2534 409,-80.2534"/>
<text text-anchor="start" x="482.4053" y="-85.3534" font-family="Helvetica,sans-Serif" font-size="11.00" fill="#000000">3 &gt;</text>
<polygon fill="#000000" stroke="#000000" points="326,-80.2534 326,-97.2534 326,-97.2534 326,-80.2534 326,-80.2534"/>
<polygon fill="#000000" stroke="#000000" points="409,-80.2534 409,-97.2534 409,-97.2534 409,-80.2534 409,-80.2534"/>
<polygon fill="none" stroke="#000000" stroke-width="2" points="232,-78.2534 232,-562.2534 502,-562.2534 502,-78.2534 232,-78.2534"/>
</a>
</g>
</g>
<!-- act_cmmn_casedef -->
<g id="node2" class="node">
<title>act_cmmn_casedef</title>
<g id="a_node2"><a xlink:href="../../tables/act_cmmn_casedef.html" xlink:title="act_cmmn_casedef" target="_top">
<polygon fill="#ffffff" stroke="transparent" points="8,-365.7534 8,-536.7534 182,-536.7534 182,-365.7534 8,-365.7534"/>
<polygon fill="#f5f5f5" stroke="transparent" points="8,-513.2534 8,-536.2534 182,-536.2534 182,-513.2534 8,-513.2534"/>
<polygon fill="none" stroke="#000000" points="8,-513.2534 8,-536.2534 182,-536.2534 182,-513.2534 8,-513.2534"/>
<text text-anchor="start" x="13" y="-521.8534" font-family="Helvetica,sans-Serif" font-weight="bold" font-size="11.00" fill="#000000">act_cmmn_casedef</text>
<text text-anchor="start" x="147.0437" y="-521.3534" font-family="Helvetica,sans-Serif" font-size="11.00" fill="#000000">[table]</text>
<polygon fill="none" stroke="#000000" points="8,-491.2534 8,-513.2534 182,-513.2534 182,-491.2534 8,-491.2534"/>
<image xlink:href="../../images/primaryKeys.png" width="11px" height="12px" preserveAspectRatio="xMinYMin meet" x="13" y="-508.253"/>
<text text-anchor="start" x="28" y="-498.3534" font-family="Helvetica,sans-Serif" font-size="11.00" fill="#000000">id_</text>
<polygon fill="#ffffff" stroke="transparent" points="8,-469.2534 8,-491.2534 182,-491.2534 182,-469.2534 8,-469.2534"/>
<polygon fill="none" stroke="#000000" points="8,-469.2534 8,-491.2534 182,-491.2534 182,-469.2534 8,-469.2534"/>
<text text-anchor="start" x="28" y="-476.3534" font-family="Helvetica,sans-Serif" font-size="11.00" fill="#000000">key_</text>
<polygon fill="#ffffff" stroke="transparent" points="8,-447.2534 8,-469.2534 182,-469.2534 182,-447.2534 8,-447.2534"/>
<polygon fill="none" stroke="#000000" points="8,-447.2534 8,-469.2534 182,-469.2534 182,-447.2534 8,-447.2534"/>
<text text-anchor="start" x="28" y="-454.3534" font-family="Helvetica,sans-Serif" font-size="11.00" fill="#000000">version_</text>
<polygon fill="#ffffff" stroke="transparent" points="8,-425.2534 8,-447.2534 182,-447.2534 182,-425.2534 8,-425.2534"/>
<polygon fill="none" stroke="#000000" points="8,-425.2534 8,-447.2534 182,-447.2534 182,-425.2534 8,-425.2534"/>
<image xlink:href="../../images/foreignKeys.png" width="11px" height="12px" preserveAspectRatio="xMinYMin meet" x="13" y="-442.253"/>
<text text-anchor="start" x="28" y="-432.3534" font-family="Helvetica,sans-Serif" font-size="11.00" fill="#000000">deployment_id_</text>
<polygon fill="#ffffff" stroke="transparent" points="8,-403.2534 8,-425.2534 182,-425.2534 182,-403.2534 8,-403.2534"/>
<polygon fill="none" stroke="#000000" points="8,-403.2534 8,-425.2534 182,-425.2534 182,-403.2534 8,-403.2534"/>
<text text-anchor="start" x="28" y="-410.3534" font-family="Helvetica,sans-Serif" font-size="11.00" fill="#000000">tenant_id_</text>
<polygon fill="none" stroke="#000000" points="8,-384.2534 8,-403.2534 182,-403.2534 182,-384.2534 8,-384.2534"/>
<text text-anchor="start" x="11" y="-390.3534" font-family="Helvetica,sans-Serif" font-size="11.00" fill="#000000">...</text>
<polygon fill="#ffffff" stroke="transparent" points="8,-365.2534 8,-384.2534 182,-384.2534 182,-365.2534 8,-365.2534"/>
<polygon fill="none" stroke="#000000" points="8,-365.2534 8,-384.2534 182,-384.2534 182,-365.2534 8,-365.2534"/>
<polygon fill="#ffffff" stroke="transparent" points="9,-366.2534 9,-383.2534 70,-383.2534 70,-366.2534 9,-366.2534"/>
<text text-anchor="start" x="11" y="-371.3534" font-family="Helvetica,sans-Serif" font-size="11.00" fill="#000000">&lt; 1</text>
<polygon fill="#ffffff" stroke="transparent" points="70,-366.2534 70,-383.2534 121,-383.2534 121,-366.2534 70,-366.2534"/>
<text text-anchor="start" x="92.4431" y="-371.3534" font-family="Helvetica,sans-Serif" font-size="11.00" fill="#000000"> &#160;</text>
<polygon fill="#ffffff" stroke="transparent" points="121,-366.2534 121,-383.2534 181,-383.2534 181,-366.2534 121,-366.2534"/>
<text text-anchor="start" x="163.4053" y="-371.3534" font-family="Helvetica,sans-Serif" font-size="11.00" fill="#000000">4 &gt;</text>
<polygon fill="#000000" stroke="#000000" points="70,-366.2534 70,-383.2534 70,-383.2534 70,-366.2534 70,-366.2534"/>
<polygon fill="#000000" stroke="#000000" points="121,-366.2534 121,-383.2534 121,-383.2534 121,-366.2534 121,-366.2534"/>
</a>
</g>
</g>
<!-- act_cmmn_ru_case_inst&#45;&gt;act_cmmn_casedef -->
<g id="edge1" class="edge">
<title>act_cmmn_ru_case_inst:w&#45;&gt;act_cmmn_casedef:e</title>
<path fill="none" stroke="#000000" d="M219.0669,-421.5854C197.5746,-438.9068 220.0328,-502.2534 182,-502.2534"/>
<polygon fill="#000000" stroke="#000000" points="225.3607,-419.6286 234.0688,-420.6911 229.1804,-418.441 233,-417.2534 233,-417.2534 233,-417.2534 229.1804,-418.441 231.9312,-413.8157 225.3607,-419.6286 225.3607,-419.6286"/>
<ellipse fill="none" stroke="#000000" cx="222.305" cy="-420.5787" rx="3.2" ry="3.2"/>
</g>
<!-- act_cmmn_ru_mil_inst -->
<g id="node3" class="node">
<title>act_cmmn_ru_mil_inst</title>
<g id="a_node3"><a xlink:href="../../tables/act_cmmn_ru_mil_inst.html" xlink:title="act_cmmn_ru_mil_inst" target="_top">
<polygon fill="#ffffff" stroke="transparent" points="573,-500.7534 573,-627.7534 752,-627.7534 752,-500.7534 573,-500.7534"/>
<polygon fill="#f5f5f5" stroke="transparent" points="573.5,-604.2534 573.5,-627.2534 752.5,-627.2534 752.5,-604.2534 573.5,-604.2534"/>
<polygon fill="none" stroke="#000000" points="573.5,-604.2534 573.5,-627.2534 752.5,-627.2534 752.5,-604.2534 573.5,-604.2534"/>
<text text-anchor="start" x="578.5" y="-612.8534" font-family="Helvetica,sans-Serif" font-weight="bold" font-size="11.00" fill="#000000">act_cmmn_ru_mil_inst</text>
<text text-anchor="start" x="718.0219" y="-612.3534" font-family="Helvetica,sans-Serif" font-size="11.00" fill="#000000">[table]</text>
<polygon fill="none" stroke="#000000" points="573.5,-582.2534 573.5,-604.2534 752.5,-604.2534 752.5,-582.2534 573.5,-582.2534"/>
<image xlink:href="../../images/primaryKeys.png" width="11px" height="12px" preserveAspectRatio="xMinYMin meet" x="578.5" y="-599.253"/>
<text text-anchor="start" x="602.5" y="-589.3534" font-family="Helvetica,sans-Serif" font-size="11.00" fill="#000000">id_</text>
<polygon fill="#ffffff" stroke="transparent" points="573.5,-560.2534 573.5,-582.2534 752.5,-582.2534 752.5,-560.2534 573.5,-560.2534"/>
<polygon fill="none" stroke="#000000" points="573.5,-560.2534 573.5,-582.2534 752.5,-582.2534 752.5,-560.2534 573.5,-560.2534"/>
<image xlink:href="../../images/foreignKeys.png" width="11px" height="12px" preserveAspectRatio="xMinYMin meet" x="578.5" y="-577.253"/>
<text text-anchor="start" x="602.5" y="-567.3534" font-family="Helvetica,sans-Serif" font-size="11.00" fill="#000000">case_inst_id_</text>
<polygon fill="#ffffff" stroke="transparent" points="573.5,-538.2534 573.5,-560.2534 752.5,-560.2534 752.5,-538.2534 573.5,-538.2534"/>
<polygon fill="none" stroke="#000000" points="573.5,-538.2534 573.5,-560.2534 752.5,-560.2534 752.5,-538.2534 573.5,-538.2534"/>
<image xlink:href="../../images/foreignKeys.png" width="11px" height="12px" preserveAspectRatio="xMinYMin meet" x="578.5" y="-555.253"/>
<text text-anchor="start" x="602.5" y="-545.3534" font-family="Helvetica,sans-Serif" font-size="11.00" fill="#000000">case_def_id_</text>
<polygon fill="none" stroke="#000000" points="573.5,-519.2534 573.5,-538.2534 752.5,-538.2534 752.5,-519.2534 573.5,-519.2534"/>
<text text-anchor="start" x="576.5" y="-525.3534" font-family="Helvetica,sans-Serif" font-size="11.00" fill="#000000">...</text>
<polygon fill="#ffffff" stroke="transparent" points="573.5,-500.2534 573.5,-519.2534 752.5,-519.2534 752.5,-500.2534 573.5,-500.2534"/>
<polygon fill="none" stroke="#000000" points="573.5,-500.2534 573.5,-519.2534 752.5,-519.2534 752.5,-500.2534 573.5,-500.2534"/>
<polygon fill="#ffffff" stroke="transparent" points="574.5,-501.2534 574.5,-518.2534 639.5,-518.2534 639.5,-501.2534 574.5,-501.2534"/>
<text text-anchor="start" x="576.5" y="-506.3534" font-family="Helvetica,sans-Serif" font-size="11.00" fill="#000000">&lt; 2</text>
<polygon fill="#ffffff" stroke="transparent" points="639.5,-501.2534 639.5,-518.2534 695.5,-518.2534 695.5,-501.2534 639.5,-501.2534"/>
<text text-anchor="start" x="664.4431" y="-506.3534" font-family="Helvetica,sans-Serif" font-size="11.00" fill="#000000"> &#160;</text>
<polygon fill="#ffffff" stroke="transparent" points="695.5,-501.2534 695.5,-518.2534 751.5,-518.2534 751.5,-501.2534 695.5,-501.2534"/>
<text text-anchor="start" x="743.3862" y="-506.3534" font-family="Helvetica,sans-Serif" font-size="11.00" fill="#000000"> &#160;</text>
<polygon fill="#000000" stroke="#000000" points="639.5,-501.2534 639.5,-518.2534 639.5,-518.2534 639.5,-501.2534 639.5,-501.2534"/>
<polygon fill="#000000" stroke="#000000" points="695.5,-501.2534 695.5,-518.2534 695.5,-518.2534 695.5,-501.2534 695.5,-501.2534"/>
</a>
</g>
</g>
<!-- act_cmmn_ru_mil_inst&#45;&gt;act_cmmn_ru_case_inst -->
<g id="edge3" class="edge">
<title>act_cmmn_ru_mil_inst:w&#45;&gt;act_cmmn_ru_case_inst:e</title>
<path fill="none" stroke="#000000" d="M559.132,-568.6328C535.7701,-559.1604 533.0971,-527.2534 501,-527.2534"/>
<polygon fill="#000000" stroke="#000000" points="565.6298,-569.8179 572.854,-574.795 569.5649,-570.5357 573.5,-571.2534 573.5,-571.2534 573.5,-571.2534 569.5649,-570.5357 574.146,-567.7118 565.6298,-569.8179 565.6298,-569.8179"/>
<ellipse fill="none" stroke="#000000" cx="562.4818" cy="-569.2437" rx="3.2" ry="3.2"/>
</g>
<!-- act_cmmn_ru_mil_inst&#45;&gt;act_cmmn_casedef -->
<g id="edge2" class="edge">
<title>act_cmmn_ru_mil_inst:w&#45;&gt;act_cmmn_casedef:e</title>
<path fill="none" stroke="#000000" d="M559.19,-551.0034C541.5307,-555.757 534.7712,-568.8462 511,-573.2534 385.1448,-596.587 333.854,-637.2486 223,-573.2534 191.4421,-555.0352 218.439,-502.2534 182,-502.2534"/>
<polygon fill="#000000" stroke="#000000" points="565.5592,-550.2246 573.937,-552.8268 569.5296,-549.739 573.5,-549.2534 573.5,-549.2534 573.5,-549.2534 569.5296,-549.739 573.063,-545.68 565.5592,-550.2246 565.5592,-550.2246"/>
<ellipse fill="none" stroke="#000000" cx="562.3828" cy="-550.613" rx="3.2" ry="3.2"/>
</g>
<!-- act_cmmn_ru_plan_item_inst -->
<g id="node4" class="node">
<title>act_cmmn_ru_plan_item_inst</title>
<g id="a_node4"><a xlink:href="../../tables/act_cmmn_ru_plan_item_inst.html" xlink:title="act_cmmn_ru_plan_item_inst" target="_top">
<polygon fill="#ffffff" stroke="transparent" points="552,-302.7534 552,-451.7534 773,-451.7534 773,-302.7534 552,-302.7534"/>
<polygon fill="#f5f5f5" stroke="transparent" points="552.5,-428.2534 552.5,-451.2534 773.5,-451.2534 773.5,-428.2534 552.5,-428.2534"/>
<polygon fill="none" stroke="#000000" points="552.5,-428.2534 552.5,-451.2534 773.5,-451.2534 773.5,-428.2534 552.5,-428.2534"/>
<text text-anchor="start" x="557.5" y="-436.8534" font-family="Helvetica,sans-Serif" font-weight="bold" font-size="11.00" fill="#000000">act_cmmn_ru_plan_item_inst</text>
<text text-anchor="start" x="739.0219" y="-436.3534" font-family="Helvetica,sans-Serif" font-size="11.00" fill="#000000">[table]</text>
<polygon fill="none" stroke="#000000" points="552.5,-406.2534 552.5,-428.2534 773.5,-428.2534 773.5,-406.2534 552.5,-406.2534"/>
<image xlink:href="../../images/primaryKeys.png" width="11px" height="12px" preserveAspectRatio="xMinYMin meet" x="557.5" y="-423.253"/>
<text text-anchor="start" x="581.5" y="-413.3534" font-family="Helvetica,sans-Serif" font-size="11.00" fill="#000000">id_</text>
<polygon fill="#ffffff" stroke="transparent" points="552.5,-384.2534 552.5,-406.2534 773.5,-406.2534 773.5,-384.2534 552.5,-384.2534"/>
<polygon fill="none" stroke="#000000" points="552.5,-384.2534 552.5,-406.2534 773.5,-406.2534 773.5,-384.2534 552.5,-384.2534"/>
<image xlink:href="../../images/foreignKeys.png" width="11px" height="12px" preserveAspectRatio="xMinYMin meet" x="557.5" y="-401.253"/>
<text text-anchor="start" x="581.5" y="-391.3534" font-family="Helvetica,sans-Serif" font-size="11.00" fill="#000000">case_def_id_</text>
<polygon fill="#ffffff" stroke="transparent" points="552.5,-362.2534 552.5,-384.2534 773.5,-384.2534 773.5,-362.2534 552.5,-362.2534"/>
<polygon fill="none" stroke="#000000" points="552.5,-362.2534 552.5,-384.2534 773.5,-384.2534 773.5,-362.2534 552.5,-362.2534"/>
<image xlink:href="../../images/foreignKeys.png" width="11px" height="12px" preserveAspectRatio="xMinYMin meet" x="557.5" y="-379.253"/>
<text text-anchor="start" x="581.5" y="-369.3534" font-family="Helvetica,sans-Serif" font-size="11.00" fill="#000000">case_inst_id_</text>
<polygon fill="#ffffff" stroke="transparent" points="552.5,-340.2534 552.5,-362.2534 773.5,-362.2534 773.5,-340.2534 552.5,-340.2534"/>
<polygon fill="none" stroke="#000000" points="552.5,-340.2534 552.5,-362.2534 773.5,-362.2534 773.5,-340.2534 552.5,-340.2534"/>
<text text-anchor="start" x="581.5" y="-347.3534" font-family="Helvetica,sans-Serif" font-size="11.00" fill="#000000">stage_inst_id_</text>
<polygon fill="none" stroke="#000000" points="552.5,-321.2534 552.5,-340.2534 773.5,-340.2534 773.5,-321.2534 552.5,-321.2534"/>
<text text-anchor="start" x="555.5" y="-327.3534" font-family="Helvetica,sans-Serif" font-size="11.00" fill="#000000">...</text>
<polygon fill="#ffffff" stroke="transparent" points="552.5,-302.2534 552.5,-321.2534 773.5,-321.2534 773.5,-302.2534 552.5,-302.2534"/>
<polygon fill="none" stroke="#000000" points="552.5,-302.2534 552.5,-321.2534 773.5,-321.2534 773.5,-302.2534 552.5,-302.2534"/>
<polygon fill="#ffffff" stroke="transparent" points="553.5,-303.2534 553.5,-320.2534 629.5,-320.2534 629.5,-303.2534 553.5,-303.2534"/>
<text text-anchor="start" x="555.5" y="-308.3534" font-family="Helvetica,sans-Serif" font-size="11.00" fill="#000000">&lt; 2</text>
<polygon fill="#ffffff" stroke="transparent" points="629.5,-303.2534 629.5,-320.2534 696.5,-320.2534 696.5,-303.2534 629.5,-303.2534"/>
<text text-anchor="start" x="659.9431" y="-308.3534" font-family="Helvetica,sans-Serif" font-size="11.00" fill="#000000"> &#160;</text>
<polygon fill="#ffffff" stroke="transparent" points="696.5,-303.2534 696.5,-320.2534 772.5,-320.2534 772.5,-303.2534 696.5,-303.2534"/>
<text text-anchor="start" x="754.9053" y="-308.3534" font-family="Helvetica,sans-Serif" font-size="11.00" fill="#000000">1 &gt;</text>
<polygon fill="#000000" stroke="#000000" points="629.5,-303.2534 629.5,-320.2534 629.5,-320.2534 629.5,-303.2534 629.5,-303.2534"/>
<polygon fill="#000000" stroke="#000000" points="696.5,-303.2534 696.5,-320.2534 696.5,-320.2534 696.5,-303.2534 696.5,-303.2534"/>
</a>
</g>
</g>
<!-- act_cmmn_ru_plan_item_inst&#45;&gt;act_cmmn_ru_case_inst -->
<g id="edge5" class="edge">
<title>act_cmmn_ru_plan_item_inst:w&#45;&gt;act_cmmn_ru_case_inst:e</title>
<path fill="none" stroke="#000000" d="M538.1672,-376.0578C494.1406,-396.9299 567.391,-527.2534 501,-527.2534"/>
<polygon fill="#000000" stroke="#000000" points="544.6489,-374.7896 553.1913,-376.7864 548.5744,-374.0215 552.5,-373.2534 552.5,-373.2534 552.5,-373.2534 548.5744,-374.0215 551.8087,-369.7204 544.6489,-374.7896 544.6489,-374.7896"/>
<ellipse fill="none" stroke="#000000" cx="541.5084" cy="-375.4041" rx="3.2" ry="3.2"/>
</g>
<!-- act_cmmn_ru_plan_item_inst&#45;&gt;act_cmmn_casedef -->
<g id="edge4" class="edge">
<title>act_cmmn_ru_plan_item_inst:w&#45;&gt;act_cmmn_casedef:e</title>
<path fill="none" stroke="#000000" d="M538.6312,-390.8312C491.0059,-354.9273 562.1693,-111.3737 511,-66.2534 462.9968,-23.925 270.3259,-23.1691 223,-66.2534 151.0378,-131.766 279.3163,-502.2534 182,-502.2534"/>
<polygon fill="#000000" stroke="#000000" points="544.8781,-392.8231 551.4063,-398.6833 548.689,-394.0382 552.5,-395.2534 552.5,-395.2534 552.5,-395.2534 548.689,-394.0382 553.5937,-391.8235 544.8781,-392.8231 544.8781,-392.8231"/>
<ellipse fill="none" stroke="#000000" cx="541.8293" cy="-391.8509" rx="3.2" ry="3.2"/>
</g>
<!-- act_cmmn_ru_sentry_part_inst -->
<g id="node5" class="node">
<title>act_cmmn_ru_sentry_part_inst</title>
<g id="a_node5"><a xlink:href="../../tables/act_cmmn_ru_sentry_part_inst.html" xlink:title="act_cmmn_ru_sentry_part_inst" target="_top">
<polygon fill="#ffffff" stroke="transparent" points="822,-405.7534 822,-554.7534 1053,-554.7534 1053,-405.7534 822,-405.7534"/>
<polygon fill="#f5f5f5" stroke="transparent" points="822.5,-531.2534 822.5,-554.2534 1053.5,-554.2534 1053.5,-531.2534 822.5,-531.2534"/>
<polygon fill="none" stroke="#000000" points="822.5,-531.2534 822.5,-554.2534 1053.5,-554.2534 1053.5,-531.2534 822.5,-531.2534"/>
<text text-anchor="start" x="827.5" y="-539.8534" font-family="Helvetica,sans-Serif" font-weight="bold" font-size="11.00" fill="#000000">act_cmmn_ru_sentry_part_inst</text>
<text text-anchor="start" x="1019.0219" y="-539.3534" font-family="Helvetica,sans-Serif" font-size="11.00" fill="#000000">[table]</text>
<polygon fill="none" stroke="#000000" points="822.5,-509.2534 822.5,-531.2534 1053.5,-531.2534 1053.5,-509.2534 822.5,-509.2534"/>
<image xlink:href="../../images/primaryKeys.png" width="11px" height="12px" preserveAspectRatio="xMinYMin meet" x="827.5" y="-526.253"/>
<text text-anchor="start" x="851.5" y="-516.3534" font-family="Helvetica,sans-Serif" font-size="11.00" fill="#000000">id_</text>
<polygon fill="#ffffff" stroke="transparent" points="822.5,-487.2534 822.5,-509.2534 1053.5,-509.2534 1053.5,-487.2534 822.5,-487.2534"/>
<polygon fill="none" stroke="#000000" points="822.5,-487.2534 822.5,-509.2534 1053.5,-509.2534 1053.5,-487.2534 822.5,-487.2534"/>
<image xlink:href="../../images/foreignKeys.png" width="11px" height="12px" preserveAspectRatio="xMinYMin meet" x="827.5" y="-504.253"/>
<text text-anchor="start" x="851.5" y="-494.3534" font-family="Helvetica,sans-Serif" font-size="11.00" fill="#000000">case_def_id_</text>
<polygon fill="#ffffff" stroke="transparent" points="822.5,-465.2534 822.5,-487.2534 1053.5,-487.2534 1053.5,-465.2534 822.5,-465.2534"/>
<polygon fill="none" stroke="#000000" points="822.5,-465.2534 822.5,-487.2534 1053.5,-487.2534 1053.5,-465.2534 822.5,-465.2534"/>
<image xlink:href="../../images/foreignKeys.png" width="11px" height="12px" preserveAspectRatio="xMinYMin meet" x="827.5" y="-482.253"/>
<text text-anchor="start" x="851.5" y="-472.3534" font-family="Helvetica,sans-Serif" font-size="11.00" fill="#000000">case_inst_id_</text>
<polygon fill="#ffffff" stroke="transparent" points="822.5,-443.2534 822.5,-465.2534 1053.5,-465.2534 1053.5,-443.2534 822.5,-443.2534"/>
<polygon fill="none" stroke="#000000" points="822.5,-443.2534 822.5,-465.2534 1053.5,-465.2534 1053.5,-443.2534 822.5,-443.2534"/>
<image xlink:href="../../images/foreignKeys.png" width="11px" height="12px" preserveAspectRatio="xMinYMin meet" x="827.5" y="-460.253"/>
<text text-anchor="start" x="851.5" y="-450.3534" font-family="Helvetica,sans-Serif" font-size="11.00" fill="#000000">plan_item_inst_id_</text>
<polygon fill="none" stroke="#000000" points="822.5,-424.2534 822.5,-443.2534 1053.5,-443.2534 1053.5,-424.2534 822.5,-424.2534"/>
<text text-anchor="start" x="825.5" y="-430.3534" font-family="Helvetica,sans-Serif" font-size="11.00" fill="#000000">...</text>
<polygon fill="#ffffff" stroke="transparent" points="822.5,-405.2534 822.5,-424.2534 1053.5,-424.2534 1053.5,-405.2534 822.5,-405.2534"/>
<polygon fill="none" stroke="#000000" points="822.5,-405.2534 822.5,-424.2534 1053.5,-424.2534 1053.5,-405.2534 822.5,-405.2534"/>
<polygon fill="#ffffff" stroke="transparent" points="823.5,-406.2534 823.5,-423.2534 906.5,-423.2534 906.5,-406.2534 823.5,-406.2534"/>
<text text-anchor="start" x="825.5" y="-411.3534" font-family="Helvetica,sans-Serif" font-size="11.00" fill="#000000">&lt; 3</text>
<polygon fill="#ffffff" stroke="transparent" points="906.5,-406.2534 906.5,-423.2534 979.5,-423.2534 979.5,-406.2534 906.5,-406.2534"/>
<text text-anchor="start" x="939.9431" y="-411.3534" font-family="Helvetica,sans-Serif" font-size="11.00" fill="#000000"> &#160;</text>
<polygon fill="#ffffff" stroke="transparent" points="979.5,-406.2534 979.5,-423.2534 1052.5,-423.2534 1052.5,-406.2534 979.5,-406.2534"/>
<text text-anchor="start" x="1044.3862" y="-411.3534" font-family="Helvetica,sans-Serif" font-size="11.00" fill="#000000"> &#160;</text>
<polygon fill="#000000" stroke="#000000" points="906.5,-406.2534 906.5,-423.2534 906.5,-423.2534 906.5,-406.2534 906.5,-406.2534"/>
<polygon fill="#000000" stroke="#000000" points="979.5,-406.2534 979.5,-423.2534 979.5,-423.2534 979.5,-406.2534 979.5,-406.2534"/>
</a>
</g>
</g>
<!-- act_cmmn_ru_sentry_part_inst&#45;&gt;act_cmmn_ru_case_inst -->
<g id="edge7" class="edge">
<title>act_cmmn_ru_sentry_part_inst:w&#45;&gt;act_cmmn_ru_case_inst:e</title>
<path fill="none" stroke="#000000" d="M808.0092,-476.1065C695.2824,-473.8149 654.4681,-446.082 544,-490.2534 520.5899,-499.6141 526.2122,-527.2534 501,-527.2534"/>
<polygon fill="#000000" stroke="#000000" points="814.5004,-476.1723 822.4635,-479.8532 818.5002,-476.2128 822.5,-476.2534 822.5,-476.2534 822.5,-476.2534 818.5002,-476.2128 822.5365,-472.6536 814.5004,-476.1723 814.5004,-476.1723"/>
<ellipse fill="none" stroke="#000000" cx="811.3006" cy="-476.1398" rx="3.2" ry="3.2"/>
</g>
<!-- act_cmmn_ru_sentry_part_inst&#45;&gt;act_cmmn_casedef -->
<g id="edge6" class="edge">
<title>act_cmmn_ru_sentry_part_inst:w&#45;&gt;act_cmmn_casedef:e</title>
<path fill="none" stroke="#000000" d="M808.2112,-500.5848C770.122,-515.93 828.3317,-602.9164 781,-638.2534 716.349,-686.5207 228.8476,-605.6662 223,-601.2534 184.9854,-572.5664 229.624,-502.2534 182,-502.2534"/>
<polygon fill="#000000" stroke="#000000" points="814.6044,-499.5417 823.0797,-501.8064 818.5522,-498.8976 822.5,-498.2534 822.5,-498.2534 822.5,-498.2534 818.5522,-498.8976 821.9203,-494.7004 814.6044,-499.5417 814.6044,-499.5417"/>
<ellipse fill="none" stroke="#000000" cx="811.4462" cy="-500.0571" rx="3.2" ry="3.2"/>
</g>
<!-- act_cmmn_ru_sentry_part_inst&#45;&gt;act_cmmn_ru_plan_item_inst -->
<g id="edge8" class="edge">
<title>act_cmmn_ru_sentry_part_inst:w&#45;&gt;act_cmmn_ru_plan_item_inst:e</title>
<path fill="none" stroke="#000000" d="M808.6217,-449.7165C796.0786,-439.8364 794.8196,-417.2534 773.5,-417.2534"/>
<polygon fill="#000000" stroke="#000000" points="814.896,-451.7676 821.3814,-457.6752 818.698,-453.0105 822.5,-454.2534 822.5,-454.2534 822.5,-454.2534 818.698,-453.0105 823.6186,-450.8316 814.896,-451.7676 814.896,-451.7676"/>
<ellipse fill="none" stroke="#000000" cx="811.8544" cy="-450.7732" rx="3.2" ry="3.2"/>
</g>
</g>
</svg>
