<?xml version="1.0" encoding="UTF-8" standalone="no"?>
<!DOCTYPE svg PUBLIC "-//W3C//DTD SVG 1.1//EN"
 "http://www.w3.org/Graphics/SVG/1.1/DTD/svg11.dtd">
<!-- Generated by graphviz version 2.40.1 (20161225.0304)
 -->
<!-- Title: oneDegreeRelationshipsDiagram Pages: 1 -->
<svg width="402pt" height="180pt"
 viewBox="0.00 0.00 402.00 180.20" xmlns="http://www.w3.org/2000/svg" xmlns:xlink="http://www.w3.org/1999/xlink">
<g id="graph0" class="graph" transform="scale(1 1) rotate(0) translate(4 176.2)">
<title>oneDegreeRelationshipsDiagram</title>
<polygon fill="#ffffff" stroke="transparent" points="-4,4 -4,-176.2 398,-176.2 398,4 -4,4"/>
<text text-anchor="middle" x="72.4936" y="-7.3" font-family="Helvetica,sans-Serif" font-size="11.00" fill="#000000">Generated by SchemaSpy</text>
<!-- act_id_priv_mapping -->
<g id="node1" class="node">
<title>act_id_priv_mapping</title>
<g id="a_node1"><a xlink:href="../../tables/act_id_priv_mapping.html" xlink:title="act_id_priv_mapping" target="_top">
<polygon fill="#ffffff" stroke="transparent" points="217,-38.2 217,-168.2 386,-168.2 386,-38.2 217,-38.2"/>
<polygon fill="#f5f5f5" stroke="transparent" points="217.5,-145.2 217.5,-168.2 386.5,-168.2 386.5,-145.2 217.5,-145.2"/>
<polygon fill="none" stroke="#000000" points="217.5,-145.2 217.5,-168.2 386.5,-168.2 386.5,-145.2 217.5,-145.2"/>
<text text-anchor="start" x="222.5" y="-153.8" font-family="Helvetica,sans-Serif" font-weight="bold" font-size="11.00" fill="#000000">act_id_priv_mapping</text>
<text text-anchor="start" x="352.0219" y="-153.3" font-family="Helvetica,sans-Serif" font-size="11.00" fill="#000000">[table]</text>
<polygon fill="none" stroke="#000000" points="217.5,-123.2 217.5,-145.2 386.5,-145.2 386.5,-123.2 217.5,-123.2"/>
<image xlink:href="../../images/primaryKeys.png" width="11px" height="12px" preserveAspectRatio="xMinYMin meet" x="222.5" y="-140.2"/>
<text text-anchor="start" x="246.5" y="-130.3" font-family="Helvetica,sans-Serif" font-size="11.00" fill="#000000">id_</text>
<polygon fill="#ffffff" stroke="transparent" points="217.5,-101.2 217.5,-123.2 386.5,-123.2 386.5,-101.2 217.5,-101.2"/>
<polygon fill="none" stroke="#000000" points="217.5,-101.2 217.5,-123.2 386.5,-123.2 386.5,-101.2 217.5,-101.2"/>
<image xlink:href="../../images/foreignKeys.png" width="11px" height="12px" preserveAspectRatio="xMinYMin meet" x="222.5" y="-118.2"/>
<text text-anchor="start" x="246.5" y="-108.3" font-family="Helvetica,sans-Serif" font-size="11.00" fill="#000000">priv_id_</text>
<polygon fill="#ffffff" stroke="transparent" points="217.5,-79.2 217.5,-101.2 386.5,-101.2 386.5,-79.2 217.5,-79.2"/>
<polygon fill="none" stroke="#000000" points="217.5,-79.2 217.5,-101.2 386.5,-101.2 386.5,-79.2 217.5,-79.2"/>
<text text-anchor="start" x="246.5" y="-86.3" font-family="Helvetica,sans-Serif" font-size="11.00" fill="#000000">user_id_</text>
<polygon fill="#ffffff" stroke="transparent" points="217.5,-57.2 217.5,-79.2 386.5,-79.2 386.5,-57.2 217.5,-57.2"/>
<polygon fill="none" stroke="#000000" points="217.5,-57.2 217.5,-79.2 386.5,-79.2 386.5,-57.2 217.5,-57.2"/>
<text text-anchor="start" x="246.5" y="-64.3" font-family="Helvetica,sans-Serif" font-size="11.00" fill="#000000">group_id_</text>
<polygon fill="#ffffff" stroke="transparent" points="217.5,-38.2 217.5,-57.2 386.5,-57.2 386.5,-38.2 217.5,-38.2"/>
<polygon fill="none" stroke="#000000" points="217.5,-38.2 217.5,-57.2 386.5,-57.2 386.5,-38.2 217.5,-38.2"/>
<polygon fill="#ffffff" stroke="transparent" points="218.5,-39.2 218.5,-56.2 280.5,-56.2 280.5,-39.2 218.5,-39.2"/>
<text text-anchor="start" x="220.5" y="-44.3" font-family="Helvetica,sans-Serif" font-size="11.00" fill="#000000">&lt; 1</text>
<polygon fill="#ffffff" stroke="transparent" points="280.5,-39.2 280.5,-56.2 333.5,-56.2 333.5,-39.2 280.5,-39.2"/>
<text text-anchor="start" x="303.9431" y="-44.3" font-family="Helvetica,sans-Serif" font-size="11.00" fill="#000000"> &#160;</text>
<polygon fill="#ffffff" stroke="transparent" points="333.5,-39.2 333.5,-56.2 385.5,-56.2 385.5,-39.2 333.5,-39.2"/>
<text text-anchor="start" x="377.3862" y="-44.3" font-family="Helvetica,sans-Serif" font-size="11.00" fill="#000000"> &#160;</text>
<polygon fill="#000000" stroke="#000000" points="280.5,-39.2 280.5,-56.2 280.5,-56.2 280.5,-39.2 280.5,-39.2"/>
<polygon fill="#000000" stroke="#000000" points="333.5,-39.2 333.5,-56.2 333.5,-56.2 333.5,-39.2 333.5,-39.2"/>
</a>
</g>
</g>
<!-- act_id_priv -->
<g id="node2" class="node">
<title>act_id_priv</title>
<g id="a_node2"><a xlink:href="../../tables/act_id_priv.html" xlink:title="act_id_priv" target="_top">
<polygon fill="#ffffff" stroke="transparent" points="8,-58.2 8,-148.2 168,-148.2 168,-58.2 8,-58.2"/>
<polygon fill="#f5f5f5" stroke="transparent" points="10,-123.2 10,-146.2 166,-146.2 166,-123.2 10,-123.2"/>
<polygon fill="none" stroke="#000000" points="10,-123.2 10,-146.2 166,-146.2 166,-123.2 10,-123.2"/>
<text text-anchor="start" x="15" y="-131.8" font-family="Helvetica,sans-Serif" font-weight="bold" font-size="11.00" fill="#000000">act_id_priv</text>
<text text-anchor="start" x="131.0437" y="-131.3" font-family="Helvetica,sans-Serif" font-size="11.00" fill="#000000">[table]</text>
<polygon fill="none" stroke="#000000" points="10,-101.2 10,-123.2 99,-123.2 99,-101.2 10,-101.2"/>
<image xlink:href="../../images/primaryKeys.png" width="11px" height="12px" preserveAspectRatio="xMinYMin meet" x="15" y="-118.2"/>
<text text-anchor="start" x="30" y="-108.3" font-family="Helvetica,sans-Serif" font-size="11.00" fill="#000000">id_</text>
<polygon fill="none" stroke="#000000" points="99,-101.2 99,-123.2 166,-123.2 166,-101.2 99,-101.2"/>
<text text-anchor="start" x="102" y="-108.9" font-family="Helvetica,sans-Serif" font-size="11.00" fill="#000000">varchar[64]</text>
<polygon fill="#ffffff" stroke="transparent" points="10,-79.2 10,-101.2 99,-101.2 99,-79.2 10,-79.2"/>
<polygon fill="none" stroke="#000000" points="10,-79.2 10,-101.2 99,-101.2 99,-79.2 10,-79.2"/>
<text text-anchor="start" x="30" y="-86.3" font-family="Helvetica,sans-Serif" font-size="11.00" fill="#000000">name_</text>
<polygon fill="none" stroke="#000000" points="99,-79.2 99,-101.2 166,-101.2 166,-79.2 99,-79.2"/>
<text text-anchor="start" x="101.9365" y="-86.9" font-family="Helvetica,sans-Serif" font-size="11.00" fill="#000000">varchar[255]</text>
<polygon fill="#ffffff" stroke="transparent" points="10,-60.2 10,-79.2 166,-79.2 166,-60.2 10,-60.2"/>
<polygon fill="none" stroke="#000000" points="10,-60.2 10,-79.2 166,-79.2 166,-60.2 10,-60.2"/>
<polygon fill="#ffffff" stroke="transparent" points="11,-61.2 11,-78.2 66,-78.2 66,-61.2 11,-61.2"/>
<text text-anchor="start" x="13" y="-66.3" font-family="Helvetica,sans-Serif" font-size="11.00" fill="#000000">&lt; 0</text>
<polygon fill="#ffffff" stroke="transparent" points="66,-61.2 66,-78.2 111,-78.2 111,-61.2 66,-61.2"/>
<text text-anchor="start" x="85.4431" y="-66.3" font-family="Helvetica,sans-Serif" font-size="11.00" fill="#000000"> &#160;</text>
<polygon fill="#ffffff" stroke="transparent" points="111,-61.2 111,-78.2 165,-78.2 165,-61.2 111,-61.2"/>
<text text-anchor="start" x="147.4053" y="-66.3" font-family="Helvetica,sans-Serif" font-size="11.00" fill="#000000">1 &gt;</text>
<polygon fill="#000000" stroke="#000000" points="66,-61.2 66,-78.2 66,-78.2 66,-61.2 66,-61.2"/>
<polygon fill="#000000" stroke="#000000" points="111,-61.2 111,-78.2 111,-78.2 111,-61.2 111,-61.2"/>
<polygon fill="none" stroke="#000000" stroke-width="2" points="9,-59.2 9,-147.2 167,-147.2 167,-59.2 9,-59.2"/>
</a>
</g>
</g>
<!-- act_id_priv_mapping&#45;&gt;act_id_priv -->
<g id="edge1" class="edge">
<title>act_id_priv_mapping:w&#45;&gt;act_id_priv:e</title>
<path fill="none" stroke="#000000" d="M203.0156,-112.2C190.6771,-112.2 183.1667,-112.2 166,-112.2"/>
<polygon fill="#000000" stroke="#000000" points="209.5,-112.2001 217.5,-115.8 213.5,-112.2 217.5,-112.2 217.5,-112.2 217.5,-112.2 213.5,-112.2 217.5,-108.6 209.5,-112.2001 209.5,-112.2001"/>
<ellipse fill="none" stroke="#000000" cx="206.3" cy="-112.2001" rx="3.2" ry="3.2"/>
</g>
</g>
</svg>
