<?xml version="1.0" encoding="UTF-8" standalone="no"?>
<!DOCTYPE svg PUBLIC "-//W3C//DTD SVG 1.1//EN"
 "http://www.w3.org/Graphics/SVG/1.1/DTD/svg11.dtd">
<!-- Generated by graphviz version 2.40.1 (20161225.0304)
 -->
<!-- Title: twoDegreesRelationshipsDiagram Pages: 1 -->
<svg width="1296pt" height="465pt"
 viewBox="0.00 0.00 1296.00 464.70" xmlns="http://www.w3.org/2000/svg" xmlns:xlink="http://www.w3.org/1999/xlink">
<g id="graph0" class="graph" transform="scale(1 1) rotate(0) translate(4 460.7)">
<title>twoDegreesRelationshipsDiagram</title>
<polygon fill="#ffffff" stroke="transparent" points="-4,4 -4,-460.7 1292,-460.7 1292,4 -4,4"/>
<text text-anchor="middle" x="72.4936" y="-7.3" font-family="Helvetica,sans-Serif" font-size="11.00" fill="#000000">Generated by SchemaSpy</text>
<!-- act_cmmn_casedef -->
<g id="node1" class="node">
<title>act_cmmn_casedef</title>
<g id="a_node1"><a xlink:href="../../tables/act_cmmn_casedef.html" xlink:title="act_cmmn_casedef" target="_top">
<polygon fill="#ffffff" stroke="transparent" points="240,-38.2 240,-370.2 491,-370.2 491,-38.2 240,-38.2"/>
<polygon fill="#f5f5f5" stroke="transparent" points="242.5,-345.2 242.5,-368.2 489.5,-368.2 489.5,-345.2 242.5,-345.2"/>
<polygon fill="none" stroke="#000000" points="242.5,-345.2 242.5,-368.2 489.5,-368.2 489.5,-345.2 242.5,-345.2"/>
<text text-anchor="start" x="247.5" y="-353.8" font-family="Helvetica,sans-Serif" font-weight="bold" font-size="11.00" fill="#000000">act_cmmn_casedef</text>
<text text-anchor="start" x="454.5437" y="-353.3" font-family="Helvetica,sans-Serif" font-size="11.00" fill="#000000">[table]</text>
<polygon fill="none" stroke="#000000" points="242.5,-323.2 242.5,-345.2 416.5,-345.2 416.5,-323.2 242.5,-323.2"/>
<image xlink:href="../../images/primaryKeys.png" width="11px" height="12px" preserveAspectRatio="xMinYMin meet" x="247.5" y="-340.2"/>
<text text-anchor="start" x="262.5" y="-330.3" font-family="Helvetica,sans-Serif" font-size="11.00" fill="#000000">id_</text>
<polygon fill="none" stroke="#000000" points="416.5,-323.2 416.5,-345.2 489.5,-345.2 489.5,-323.2 416.5,-323.2"/>
<text text-anchor="start" x="419.5" y="-330.9" font-family="Helvetica,sans-Serif" font-size="11.00" fill="#000000">varchar[255]</text>
<polygon fill="none" stroke="#000000" points="242.5,-301.2 242.5,-323.2 416.5,-323.2 416.5,-301.2 242.5,-301.2"/>
<text text-anchor="start" x="262.5" y="-308.3" font-family="Helvetica,sans-Serif" font-size="11.00" fill="#000000">rev_</text>
<polygon fill="none" stroke="#000000" points="416.5,-301.2 416.5,-323.2 489.5,-323.2 489.5,-301.2 416.5,-301.2"/>
<text text-anchor="start" x="419.5" y="-308.9" font-family="Helvetica,sans-Serif" font-size="11.00" fill="#000000">int4[10]</text>
<polygon fill="none" stroke="#000000" points="242.5,-279.2 242.5,-301.2 416.5,-301.2 416.5,-279.2 242.5,-279.2"/>
<text text-anchor="start" x="262.5" y="-286.3" font-family="Helvetica,sans-Serif" font-size="11.00" fill="#000000">name_</text>
<polygon fill="none" stroke="#000000" points="416.5,-279.2 416.5,-301.2 489.5,-301.2 489.5,-279.2 416.5,-279.2"/>
<text text-anchor="start" x="419.5" y="-286.9" font-family="Helvetica,sans-Serif" font-size="11.00" fill="#000000">varchar[255]</text>
<polygon fill="#ffffff" stroke="transparent" points="242.5,-257.2 242.5,-279.2 416.5,-279.2 416.5,-257.2 242.5,-257.2"/>
<polygon fill="none" stroke="#000000" points="242.5,-257.2 242.5,-279.2 416.5,-279.2 416.5,-257.2 242.5,-257.2"/>
<text text-anchor="start" x="262.5" y="-264.3" font-family="Helvetica,sans-Serif" font-size="11.00" fill="#000000">key_</text>
<polygon fill="none" stroke="#000000" points="416.5,-257.2 416.5,-279.2 489.5,-279.2 489.5,-257.2 416.5,-257.2"/>
<text text-anchor="start" x="419.5" y="-264.9" font-family="Helvetica,sans-Serif" font-size="11.00" fill="#000000">varchar[255]</text>
<polygon fill="#ffffff" stroke="transparent" points="242.5,-235.2 242.5,-257.2 416.5,-257.2 416.5,-235.2 242.5,-235.2"/>
<polygon fill="none" stroke="#000000" points="242.5,-235.2 242.5,-257.2 416.5,-257.2 416.5,-235.2 242.5,-235.2"/>
<text text-anchor="start" x="262.5" y="-242.3" font-family="Helvetica,sans-Serif" font-size="11.00" fill="#000000">version_</text>
<polygon fill="none" stroke="#000000" points="416.5,-235.2 416.5,-257.2 489.5,-257.2 489.5,-235.2 416.5,-235.2"/>
<text text-anchor="start" x="419.5" y="-242.9" font-family="Helvetica,sans-Serif" font-size="11.00" fill="#000000">int4[10]</text>
<polygon fill="none" stroke="#000000" points="242.5,-213.2 242.5,-235.2 416.5,-235.2 416.5,-213.2 242.5,-213.2"/>
<text text-anchor="start" x="262.5" y="-220.3" font-family="Helvetica,sans-Serif" font-size="11.00" fill="#000000">category_</text>
<polygon fill="none" stroke="#000000" points="416.5,-213.2 416.5,-235.2 489.5,-235.2 489.5,-213.2 416.5,-213.2"/>
<text text-anchor="start" x="419.5" y="-220.9" font-family="Helvetica,sans-Serif" font-size="11.00" fill="#000000">varchar[255]</text>
<polygon fill="#ffffff" stroke="transparent" points="242.5,-191.2 242.5,-213.2 416.5,-213.2 416.5,-191.2 242.5,-191.2"/>
<polygon fill="none" stroke="#000000" points="242.5,-191.2 242.5,-213.2 416.5,-213.2 416.5,-191.2 242.5,-191.2"/>
<image xlink:href="../../images/foreignKeys.png" width="11px" height="12px" preserveAspectRatio="xMinYMin meet" x="247.5" y="-208.2"/>
<text text-anchor="start" x="262.5" y="-198.3" font-family="Helvetica,sans-Serif" font-size="11.00" fill="#000000">deployment_id_</text>
<polygon fill="none" stroke="#000000" points="416.5,-191.2 416.5,-213.2 489.5,-213.2 489.5,-191.2 416.5,-191.2"/>
<text text-anchor="start" x="419.5" y="-198.9" font-family="Helvetica,sans-Serif" font-size="11.00" fill="#000000">varchar[255]</text>
<polygon fill="none" stroke="#000000" points="242.5,-169.2 242.5,-191.2 416.5,-191.2 416.5,-169.2 242.5,-169.2"/>
<text text-anchor="start" x="262.5" y="-176.3" font-family="Helvetica,sans-Serif" font-size="11.00" fill="#000000">resource_name_</text>
<polygon fill="none" stroke="#000000" points="416.5,-169.2 416.5,-191.2 489.5,-191.2 489.5,-169.2 416.5,-169.2"/>
<text text-anchor="start" x="419.3791" y="-176.9" font-family="Helvetica,sans-Serif" font-size="11.00" fill="#000000">varchar[4000]</text>
<polygon fill="none" stroke="#000000" points="242.5,-147.2 242.5,-169.2 416.5,-169.2 416.5,-147.2 242.5,-147.2"/>
<text text-anchor="start" x="262.5" y="-154.3" font-family="Helvetica,sans-Serif" font-size="11.00" fill="#000000">description_</text>
<polygon fill="none" stroke="#000000" points="416.5,-147.2 416.5,-169.2 489.5,-169.2 489.5,-147.2 416.5,-147.2"/>
<text text-anchor="start" x="419.3791" y="-154.9" font-family="Helvetica,sans-Serif" font-size="11.00" fill="#000000">varchar[4000]</text>
<polygon fill="none" stroke="#000000" points="242.5,-125.2 242.5,-147.2 416.5,-147.2 416.5,-125.2 242.5,-125.2"/>
<text text-anchor="start" x="262.5" y="-132.3" font-family="Helvetica,sans-Serif" font-size="11.00" fill="#000000">has_graphical_notation_</text>
<polygon fill="none" stroke="#000000" points="416.5,-125.2 416.5,-147.2 489.5,-147.2 489.5,-125.2 416.5,-125.2"/>
<text text-anchor="start" x="419.5" y="-132.9" font-family="Helvetica,sans-Serif" font-size="11.00" fill="#000000">bool[1]</text>
<polygon fill="none" stroke="#000000" points="242.5,-103.2 242.5,-125.2 416.5,-125.2 416.5,-103.2 242.5,-103.2"/>
<text text-anchor="start" x="262.5" y="-110.3" font-family="Helvetica,sans-Serif" font-size="11.00" fill="#000000">dgrm_resource_name_</text>
<polygon fill="none" stroke="#000000" points="416.5,-103.2 416.5,-125.2 489.5,-125.2 489.5,-103.2 416.5,-103.2"/>
<text text-anchor="start" x="419.3791" y="-110.9" font-family="Helvetica,sans-Serif" font-size="11.00" fill="#000000">varchar[4000]</text>
<polygon fill="none" stroke="#000000" points="242.5,-81.2 242.5,-103.2 416.5,-103.2 416.5,-81.2 242.5,-81.2"/>
<text text-anchor="start" x="262.5" y="-88.3" font-family="Helvetica,sans-Serif" font-size="11.00" fill="#000000">has_start_form_key_</text>
<polygon fill="none" stroke="#000000" points="416.5,-81.2 416.5,-103.2 489.5,-103.2 489.5,-81.2 416.5,-81.2"/>
<text text-anchor="start" x="419.5" y="-88.9" font-family="Helvetica,sans-Serif" font-size="11.00" fill="#000000">bool[1]</text>
<polygon fill="#ffffff" stroke="transparent" points="242.5,-59.2 242.5,-81.2 416.5,-81.2 416.5,-59.2 242.5,-59.2"/>
<polygon fill="none" stroke="#000000" points="242.5,-59.2 242.5,-81.2 416.5,-81.2 416.5,-59.2 242.5,-59.2"/>
<text text-anchor="start" x="262.5" y="-66.3" font-family="Helvetica,sans-Serif" font-size="11.00" fill="#000000">tenant_id_</text>
<polygon fill="none" stroke="#000000" points="416.5,-59.2 416.5,-81.2 489.5,-81.2 489.5,-59.2 416.5,-59.2"/>
<text text-anchor="start" x="419.5" y="-66.9" font-family="Helvetica,sans-Serif" font-size="11.00" fill="#000000">varchar[255]</text>
<polygon fill="#ffffff" stroke="transparent" points="242.5,-40.2 242.5,-59.2 489.5,-59.2 489.5,-40.2 242.5,-40.2"/>
<polygon fill="none" stroke="#000000" points="242.5,-40.2 242.5,-59.2 489.5,-59.2 489.5,-40.2 242.5,-40.2"/>
<polygon fill="#ffffff" stroke="transparent" points="243.5,-41.2 243.5,-58.2 328.5,-58.2 328.5,-41.2 243.5,-41.2"/>
<text text-anchor="start" x="245.5" y="-46.3" font-family="Helvetica,sans-Serif" font-size="11.00" fill="#000000">&lt; 1</text>
<polygon fill="#ffffff" stroke="transparent" points="328.5,-41.2 328.5,-58.2 404.5,-58.2 404.5,-41.2 328.5,-41.2"/>
<text text-anchor="start" x="363.4431" y="-46.3" font-family="Helvetica,sans-Serif" font-size="11.00" fill="#000000"> &#160;</text>
<polygon fill="#ffffff" stroke="transparent" points="404.5,-41.2 404.5,-58.2 488.5,-58.2 488.5,-41.2 404.5,-41.2"/>
<text text-anchor="start" x="470.9053" y="-46.3" font-family="Helvetica,sans-Serif" font-size="11.00" fill="#000000">4 &gt;</text>
<polygon fill="#000000" stroke="#000000" points="328.5,-41.2 328.5,-58.2 328.5,-58.2 328.5,-41.2 328.5,-41.2"/>
<polygon fill="#000000" stroke="#000000" points="404.5,-41.2 404.5,-58.2 404.5,-58.2 404.5,-41.2 404.5,-41.2"/>
<polygon fill="none" stroke="#000000" stroke-width="2" points="241,-39.2 241,-369.2 490,-369.2 490,-39.2 241,-39.2"/>
</a>
</g>
</g>
<!-- act_cmmn_deployment -->
<g id="node2" class="node">
<title>act_cmmn_deployment</title>
<g id="a_node2"><a xlink:href="../../tables/act_cmmn_deployment.html" xlink:title="act_cmmn_deployment" target="_top">
<polygon fill="#ffffff" stroke="transparent" points="8,-261.7 8,-344.7 191,-344.7 191,-261.7 8,-261.7"/>
<polygon fill="#f5f5f5" stroke="transparent" points="8.5,-321.2 8.5,-344.2 191.5,-344.2 191.5,-321.2 8.5,-321.2"/>
<polygon fill="none" stroke="#000000" points="8.5,-321.2 8.5,-344.2 191.5,-344.2 191.5,-321.2 8.5,-321.2"/>
<text text-anchor="start" x="13.5" y="-329.8" font-family="Helvetica,sans-Serif" font-weight="bold" font-size="11.00" fill="#000000">act_cmmn_deployment</text>
<text text-anchor="start" x="157.0219" y="-329.3" font-family="Helvetica,sans-Serif" font-size="11.00" fill="#000000">[table]</text>
<polygon fill="none" stroke="#000000" points="8.5,-299.2 8.5,-321.2 191.5,-321.2 191.5,-299.2 8.5,-299.2"/>
<image xlink:href="../../images/primaryKeys.png" width="11px" height="12px" preserveAspectRatio="xMinYMin meet" x="13.5" y="-316.2"/>
<text text-anchor="start" x="37.5" y="-306.3" font-family="Helvetica,sans-Serif" font-size="11.00" fill="#000000">id_</text>
<polygon fill="none" stroke="#000000" points="8.5,-280.2 8.5,-299.2 191.5,-299.2 191.5,-280.2 8.5,-280.2"/>
<text text-anchor="start" x="11.5" y="-286.3" font-family="Helvetica,sans-Serif" font-size="11.00" fill="#000000">...</text>
<polygon fill="#ffffff" stroke="transparent" points="8.5,-261.2 8.5,-280.2 191.5,-280.2 191.5,-261.2 8.5,-261.2"/>
<polygon fill="none" stroke="#000000" points="8.5,-261.2 8.5,-280.2 191.5,-280.2 191.5,-261.2 8.5,-261.2"/>
<polygon fill="#ffffff" stroke="transparent" points="9.5,-262.2 9.5,-279.2 67.5,-279.2 67.5,-262.2 9.5,-262.2"/>
<text text-anchor="start" x="11.5" y="-267.3" font-family="Helvetica,sans-Serif" font-size="11.00" fill="#000000"> &#160;</text>
<polygon fill="#ffffff" stroke="transparent" points="67.5,-262.2 67.5,-279.2 124.5,-279.2 124.5,-262.2 67.5,-262.2"/>
<text text-anchor="start" x="92.9431" y="-267.3" font-family="Helvetica,sans-Serif" font-size="11.00" fill="#000000"> &#160;</text>
<polygon fill="#ffffff" stroke="transparent" points="124.5,-262.2 124.5,-279.2 190.5,-279.2 190.5,-262.2 124.5,-262.2"/>
<text text-anchor="start" x="172.9053" y="-267.3" font-family="Helvetica,sans-Serif" font-size="11.00" fill="#000000">2 &gt;</text>
<polygon fill="#000000" stroke="#000000" points="67.5,-262.2 67.5,-279.2 67.5,-279.2 67.5,-262.2 67.5,-262.2"/>
<polygon fill="#000000" stroke="#000000" points="124.5,-262.2 124.5,-279.2 124.5,-279.2 124.5,-262.2 124.5,-262.2"/>
</a>
</g>
</g>
<!-- act_cmmn_casedef&#45;&gt;act_cmmn_deployment -->
<g id="edge1" class="edge">
<title>act_cmmn_casedef:w&#45;&gt;act_cmmn_deployment:e</title>
<path fill="none" stroke="#000000" d="M228.3128,-206.0438C200.5266,-225.2828 238.5695,-310.2 191.5,-310.2"/>
<polygon fill="#000000" stroke="#000000" points="234.7784,-204.2921 243.4414,-205.6747 238.6392,-203.246 242.5,-202.2 242.5,-202.2 242.5,-202.2 238.6392,-203.246 241.5586,-198.7253 234.7784,-204.2921 234.7784,-204.2921"/>
<ellipse fill="none" stroke="#000000" cx="231.6897" cy="-205.1289" rx="3.2" ry="3.2"/>
</g>
<!-- act_cmmn_deployment_resource -->
<g id="node3" class="node">
<title>act_cmmn_deployment_resource</title>
<g id="a_node3"><a xlink:href="../../tables/act_cmmn_deployment_resource.html" xlink:title="act_cmmn_deployment_resource" target="_top">
<polygon fill="#ffffff" stroke="transparent" points="243,-391.7 243,-452.7 488,-452.7 488,-391.7 243,-391.7"/>
<polygon fill="#f5f5f5" stroke="transparent" points="243.5,-429.2 243.5,-452.2 488.5,-452.2 488.5,-429.2 243.5,-429.2"/>
<polygon fill="none" stroke="#000000" points="243.5,-429.2 243.5,-452.2 488.5,-452.2 488.5,-429.2 243.5,-429.2"/>
<text text-anchor="start" x="248.5" y="-437.8" font-family="Helvetica,sans-Serif" font-weight="bold" font-size="11.00" fill="#000000">act_cmmn_deployment_resource</text>
<text text-anchor="start" x="454.0219" y="-437.3" font-family="Helvetica,sans-Serif" font-size="11.00" fill="#000000">[table]</text>
<polygon fill="none" stroke="#000000" points="243.5,-410.2 243.5,-429.2 488.5,-429.2 488.5,-410.2 243.5,-410.2"/>
<text text-anchor="start" x="246.5" y="-416.3" font-family="Helvetica,sans-Serif" font-size="11.00" fill="#000000">...</text>
<polygon fill="#ffffff" stroke="transparent" points="243.5,-391.2 243.5,-410.2 488.5,-410.2 488.5,-391.2 243.5,-391.2"/>
<polygon fill="none" stroke="#000000" points="243.5,-391.2 243.5,-410.2 488.5,-410.2 488.5,-391.2 243.5,-391.2"/>
<polygon fill="#ffffff" stroke="transparent" points="244.5,-392.2 244.5,-409.2 331.5,-409.2 331.5,-392.2 244.5,-392.2"/>
<text text-anchor="start" x="246.5" y="-397.3" font-family="Helvetica,sans-Serif" font-size="11.00" fill="#000000">&lt; 1</text>
<polygon fill="#ffffff" stroke="transparent" points="331.5,-392.2 331.5,-409.2 409.5,-409.2 409.5,-392.2 331.5,-392.2"/>
<text text-anchor="start" x="367.4431" y="-397.3" font-family="Helvetica,sans-Serif" font-size="11.00" fill="#000000"> &#160;</text>
<polygon fill="#ffffff" stroke="transparent" points="409.5,-392.2 409.5,-409.2 487.5,-409.2 487.5,-392.2 409.5,-392.2"/>
<text text-anchor="start" x="479.3862" y="-397.3" font-family="Helvetica,sans-Serif" font-size="11.00" fill="#000000"> &#160;</text>
<polygon fill="#000000" stroke="#000000" points="331.5,-392.2 331.5,-409.2 331.5,-409.2 331.5,-392.2 331.5,-392.2"/>
<polygon fill="#000000" stroke="#000000" points="409.5,-392.2 409.5,-409.2 409.5,-409.2 409.5,-392.2 409.5,-392.2"/>
</a>
</g>
</g>
<!-- act_cmmn_deployment_resource&#45;&gt;act_cmmn_deployment -->
<g id="edge2" class="edge">
<title>act_cmmn_deployment_resource:w&#45;&gt;act_cmmn_deployment:e</title>
<path fill="none" stroke="#000000" d="M229.5154,-415.5734C200.6287,-396.6602 239.3041,-310.2 191.5,-310.2"/>
<polygon fill="#000000" stroke="#000000" points="235.7562,-417.1918 242.5963,-422.6847 239.6281,-418.1959 243.5,-419.2 243.5,-419.2 243.5,-419.2 239.6281,-418.1959 244.4037,-415.7153 235.7562,-417.1918 235.7562,-417.1918"/>
<ellipse fill="none" stroke="#000000" cx="232.6586" cy="-416.3885" rx="3.2" ry="3.2"/>
</g>
<!-- act_cmmn_ru_case_inst -->
<g id="node4" class="node">
<title>act_cmmn_ru_case_inst</title>
<g id="a_node4"><a xlink:href="../../tables/act_cmmn_ru_case_inst.html" xlink:title="act_cmmn_ru_case_inst" target="_top">
<polygon fill="#ffffff" stroke="transparent" points="540,-331.7 540,-392.7 730,-392.7 730,-331.7 540,-331.7"/>
<polygon fill="#f5f5f5" stroke="transparent" points="540,-369.2 540,-392.2 730,-392.2 730,-369.2 540,-369.2"/>
<polygon fill="none" stroke="#000000" points="540,-369.2 540,-392.2 730,-392.2 730,-369.2 540,-369.2"/>
<text text-anchor="start" x="545" y="-377.8" font-family="Helvetica,sans-Serif" font-weight="bold" font-size="11.00" fill="#000000">act_cmmn_ru_case_inst</text>
<text text-anchor="start" x="695.5219" y="-377.3" font-family="Helvetica,sans-Serif" font-size="11.00" fill="#000000">[table]</text>
<polygon fill="none" stroke="#000000" points="540,-350.2 540,-369.2 730,-369.2 730,-350.2 540,-350.2"/>
<text text-anchor="start" x="543" y="-356.3" font-family="Helvetica,sans-Serif" font-size="11.00" fill="#000000">...</text>
<polygon fill="#ffffff" stroke="transparent" points="540,-331.2 540,-350.2 730,-350.2 730,-331.2 540,-331.2"/>
<polygon fill="none" stroke="#000000" points="540,-331.2 540,-350.2 730,-350.2 730,-331.2 540,-331.2"/>
<polygon fill="#ffffff" stroke="transparent" points="541,-332.2 541,-349.2 607,-349.2 607,-332.2 541,-332.2"/>
<text text-anchor="start" x="543" y="-337.3" font-family="Helvetica,sans-Serif" font-size="11.00" fill="#000000">&lt; 1</text>
<polygon fill="#ffffff" stroke="transparent" points="607,-332.2 607,-349.2 664,-349.2 664,-332.2 607,-332.2"/>
<text text-anchor="start" x="632.4431" y="-337.3" font-family="Helvetica,sans-Serif" font-size="11.00" fill="#000000"> &#160;</text>
<polygon fill="#ffffff" stroke="transparent" points="664,-332.2 664,-349.2 729,-349.2 729,-332.2 664,-332.2"/>
<text text-anchor="start" x="711.4053" y="-337.3" font-family="Helvetica,sans-Serif" font-size="11.00" fill="#000000">3 &gt;</text>
<polygon fill="#000000" stroke="#000000" points="607,-332.2 607,-349.2 607,-349.2 607,-332.2 607,-332.2"/>
<polygon fill="#000000" stroke="#000000" points="664,-332.2 664,-349.2 664,-349.2 664,-332.2 664,-332.2"/>
</a>
</g>
</g>
<!-- act_cmmn_ru_case_inst&#45;&gt;act_cmmn_casedef -->
<g id="edge3" class="edge">
<title>act_cmmn_ru_case_inst:w&#45;&gt;act_cmmn_casedef:e</title>
<path fill="none" stroke="#000000" d="M517.1318,-335.6355C507.8224,-334.7267 498.5315,-334.2 489.5,-334.2"/>
<polygon fill="#000000" stroke="#000000" points="523.7963,-336.421 531.3199,-340.9328 527.7688,-336.8893 531.7413,-337.3575 531.7413,-337.3575 531.7413,-337.3575 527.7688,-336.8893 532.1627,-333.7823 523.7963,-336.421 523.7963,-336.421"/>
<ellipse fill="none" stroke="#000000" cx="520.6183" cy="-336.0464" rx="3.2" ry="3.2"/>
</g>
<!-- act_cmmn_ru_mil_inst -->
<g id="node5" class="node">
<title>act_cmmn_ru_mil_inst</title>
<g id="a_node5"><a xlink:href="../../tables/act_cmmn_ru_mil_inst.html" xlink:title="act_cmmn_ru_mil_inst" target="_top">
<polygon fill="#ffffff" stroke="transparent" points="800,-386.7 800,-447.7 979,-447.7 979,-386.7 800,-386.7"/>
<polygon fill="#f5f5f5" stroke="transparent" points="800.5,-424.2 800.5,-447.2 979.5,-447.2 979.5,-424.2 800.5,-424.2"/>
<polygon fill="none" stroke="#000000" points="800.5,-424.2 800.5,-447.2 979.5,-447.2 979.5,-424.2 800.5,-424.2"/>
<text text-anchor="start" x="805.5" y="-432.8" font-family="Helvetica,sans-Serif" font-weight="bold" font-size="11.00" fill="#000000">act_cmmn_ru_mil_inst</text>
<text text-anchor="start" x="945.0219" y="-432.3" font-family="Helvetica,sans-Serif" font-size="11.00" fill="#000000">[table]</text>
<polygon fill="none" stroke="#000000" points="800.5,-405.2 800.5,-424.2 979.5,-424.2 979.5,-405.2 800.5,-405.2"/>
<text text-anchor="start" x="803.5" y="-411.3" font-family="Helvetica,sans-Serif" font-size="11.00" fill="#000000">...</text>
<polygon fill="#ffffff" stroke="transparent" points="800.5,-386.2 800.5,-405.2 979.5,-405.2 979.5,-386.2 800.5,-386.2"/>
<polygon fill="none" stroke="#000000" points="800.5,-386.2 800.5,-405.2 979.5,-405.2 979.5,-386.2 800.5,-386.2"/>
<polygon fill="#ffffff" stroke="transparent" points="801.5,-387.2 801.5,-404.2 866.5,-404.2 866.5,-387.2 801.5,-387.2"/>
<text text-anchor="start" x="803.5" y="-392.3" font-family="Helvetica,sans-Serif" font-size="11.00" fill="#000000">&lt; 2</text>
<polygon fill="#ffffff" stroke="transparent" points="866.5,-387.2 866.5,-404.2 922.5,-404.2 922.5,-387.2 866.5,-387.2"/>
<text text-anchor="start" x="891.4431" y="-392.3" font-family="Helvetica,sans-Serif" font-size="11.00" fill="#000000"> &#160;</text>
<polygon fill="#ffffff" stroke="transparent" points="922.5,-387.2 922.5,-404.2 978.5,-404.2 978.5,-387.2 922.5,-387.2"/>
<text text-anchor="start" x="970.3862" y="-392.3" font-family="Helvetica,sans-Serif" font-size="11.00" fill="#000000"> &#160;</text>
<polygon fill="#000000" stroke="#000000" points="866.5,-387.2 866.5,-404.2 866.5,-404.2 866.5,-387.2 866.5,-387.2"/>
<polygon fill="#000000" stroke="#000000" points="922.5,-387.2 922.5,-404.2 922.5,-404.2 922.5,-387.2 922.5,-387.2"/>
</a>
</g>
</g>
<!-- act_cmmn_ru_mil_inst&#45;&gt;act_cmmn_casedef -->
<g id="edge4" class="edge">
<title>act_cmmn_ru_mil_inst:w&#45;&gt;act_cmmn_casedef:e</title>
<path fill="none" stroke="#000000" d="M777.3738,-438.7529C702.8415,-447.1325 605.5253,-446.175 532,-403.2 500.9049,-385.0251 525.5171,-334.2 489.5,-334.2"/>
<polygon fill="#000000" stroke="#000000" points="784.0223,-437.9369 792.4013,-440.5353 787.9925,-437.4495 791.9627,-436.9621 791.9627,-436.9621 791.9627,-436.9621 787.9925,-437.4495 791.5241,-433.389 784.0223,-437.9369 784.0223,-437.9369"/>
<ellipse fill="none" stroke="#000000" cx="780.8462" cy="-438.3267" rx="3.2" ry="3.2"/>
</g>
<!-- act_cmmn_ru_mil_inst&#45;&gt;act_cmmn_ru_case_inst -->
<g id="edge5" class="edge">
<title>act_cmmn_ru_mil_inst:w&#45;&gt;act_cmmn_ru_case_inst:e</title>
<path fill="none" stroke="#000000" d="M777.7278,-393.0449C764.6251,-390.2133 751.3002,-387.3336 738.32,-384.5285"/>
<polygon fill="#000000" stroke="#000000" points="784.012,-394.4029 791.071,-399.6116 787.9218,-395.2479 791.8315,-396.0929 791.8315,-396.0929 791.8315,-396.0929 787.9218,-395.2479 792.592,-392.5741 784.012,-394.4029 784.012,-394.4029"/>
<ellipse fill="none" stroke="#000000" cx="780.8842" cy="-393.727" rx="3.2" ry="3.2"/>
</g>
<!-- act_cmmn_ru_plan_item_inst -->
<g id="node6" class="node">
<title>act_cmmn_ru_plan_item_inst</title>
<g id="a_node6"><a xlink:href="../../tables/act_cmmn_ru_plan_item_inst.html" xlink:title="act_cmmn_ru_plan_item_inst" target="_top">
<polygon fill="#ffffff" stroke="transparent" points="779,-276.7 779,-337.7 1000,-337.7 1000,-276.7 779,-276.7"/>
<polygon fill="#f5f5f5" stroke="transparent" points="779.5,-314.2 779.5,-337.2 1000.5,-337.2 1000.5,-314.2 779.5,-314.2"/>
<polygon fill="none" stroke="#000000" points="779.5,-314.2 779.5,-337.2 1000.5,-337.2 1000.5,-314.2 779.5,-314.2"/>
<text text-anchor="start" x="784.5" y="-322.8" font-family="Helvetica,sans-Serif" font-weight="bold" font-size="11.00" fill="#000000">act_cmmn_ru_plan_item_inst</text>
<text text-anchor="start" x="966.0219" y="-322.3" font-family="Helvetica,sans-Serif" font-size="11.00" fill="#000000">[table]</text>
<polygon fill="none" stroke="#000000" points="779.5,-295.2 779.5,-314.2 1000.5,-314.2 1000.5,-295.2 779.5,-295.2"/>
<text text-anchor="start" x="782.5" y="-301.3" font-family="Helvetica,sans-Serif" font-size="11.00" fill="#000000">...</text>
<polygon fill="#ffffff" stroke="transparent" points="779.5,-276.2 779.5,-295.2 1000.5,-295.2 1000.5,-276.2 779.5,-276.2"/>
<polygon fill="none" stroke="#000000" points="779.5,-276.2 779.5,-295.2 1000.5,-295.2 1000.5,-276.2 779.5,-276.2"/>
<polygon fill="#ffffff" stroke="transparent" points="780.5,-277.2 780.5,-294.2 856.5,-294.2 856.5,-277.2 780.5,-277.2"/>
<text text-anchor="start" x="782.5" y="-282.3" font-family="Helvetica,sans-Serif" font-size="11.00" fill="#000000">&lt; 2</text>
<polygon fill="#ffffff" stroke="transparent" points="856.5,-277.2 856.5,-294.2 923.5,-294.2 923.5,-277.2 856.5,-277.2"/>
<text text-anchor="start" x="886.9431" y="-282.3" font-family="Helvetica,sans-Serif" font-size="11.00" fill="#000000"> &#160;</text>
<polygon fill="#ffffff" stroke="transparent" points="923.5,-277.2 923.5,-294.2 999.5,-294.2 999.5,-277.2 923.5,-277.2"/>
<text text-anchor="start" x="981.9053" y="-282.3" font-family="Helvetica,sans-Serif" font-size="11.00" fill="#000000">1 &gt;</text>
<polygon fill="#000000" stroke="#000000" points="856.5,-277.2 856.5,-294.2 856.5,-294.2 856.5,-277.2 856.5,-277.2"/>
<polygon fill="#000000" stroke="#000000" points="923.5,-277.2 923.5,-294.2 923.5,-294.2 923.5,-277.2 923.5,-277.2"/>
</a>
</g>
</g>
<!-- act_cmmn_ru_plan_item_inst&#45;&gt;act_cmmn_casedef -->
<g id="edge6" class="edge">
<title>act_cmmn_ru_plan_item_inst:w&#45;&gt;act_cmmn_casedef:e</title>
<path fill="none" stroke="#000000" d="M756.1473,-304.3042C688.5611,-304.8855 605.4556,-308.7426 532,-321.2 512.5253,-324.5027 509.2528,-334.2 489.5,-334.2"/>
<polygon fill="#000000" stroke="#000000" points="762.7642,-304.2693 770.7831,-307.827 766.7642,-304.2482 770.7641,-304.227 770.7641,-304.227 770.7641,-304.227 766.7642,-304.2482 770.7451,-300.6271 762.7642,-304.2693 762.7642,-304.2693"/>
<ellipse fill="none" stroke="#000000" cx="759.5643" cy="-304.2862" rx="3.2" ry="3.2"/>
</g>
<!-- act_cmmn_ru_plan_item_inst&#45;&gt;act_cmmn_ru_case_inst -->
<g id="edge7" class="edge">
<title>act_cmmn_ru_plan_item_inst:w&#45;&gt;act_cmmn_ru_case_inst:e</title>
<path fill="none" stroke="#000000" d="M756.5102,-335.9404C750.3804,-337.2651 744.2683,-338.586 738.2311,-339.8907"/>
<polygon fill="#000000" stroke="#000000" points="762.9992,-334.5381 771.5792,-336.367 766.909,-333.6932 770.8187,-332.8482 770.8187,-332.8482 770.8187,-332.8482 766.909,-333.6932 770.0582,-329.3295 762.9992,-334.5381 762.9992,-334.5381"/>
<ellipse fill="none" stroke="#000000" cx="759.8714" cy="-335.2141" rx="3.2" ry="3.2"/>
</g>
<!-- act_cmmn_ru_sentry_part_inst -->
<g id="node7" class="node">
<title>act_cmmn_ru_sentry_part_inst</title>
<g id="a_node7"><a xlink:href="../../tables/act_cmmn_ru_sentry_part_inst.html" xlink:title="act_cmmn_ru_sentry_part_inst" target="_top">
<polygon fill="#ffffff" stroke="transparent" points="1049,-276.7 1049,-337.7 1280,-337.7 1280,-276.7 1049,-276.7"/>
<polygon fill="#f5f5f5" stroke="transparent" points="1049.5,-314.2 1049.5,-337.2 1280.5,-337.2 1280.5,-314.2 1049.5,-314.2"/>
<polygon fill="none" stroke="#000000" points="1049.5,-314.2 1049.5,-337.2 1280.5,-337.2 1280.5,-314.2 1049.5,-314.2"/>
<text text-anchor="start" x="1054.5" y="-322.8" font-family="Helvetica,sans-Serif" font-weight="bold" font-size="11.00" fill="#000000">act_cmmn_ru_sentry_part_inst</text>
<text text-anchor="start" x="1246.0219" y="-322.3" font-family="Helvetica,sans-Serif" font-size="11.00" fill="#000000">[table]</text>
<polygon fill="none" stroke="#000000" points="1049.5,-295.2 1049.5,-314.2 1280.5,-314.2 1280.5,-295.2 1049.5,-295.2"/>
<text text-anchor="start" x="1052.5" y="-301.3" font-family="Helvetica,sans-Serif" font-size="11.00" fill="#000000">...</text>
<polygon fill="#ffffff" stroke="transparent" points="1049.5,-276.2 1049.5,-295.2 1280.5,-295.2 1280.5,-276.2 1049.5,-276.2"/>
<polygon fill="none" stroke="#000000" points="1049.5,-276.2 1049.5,-295.2 1280.5,-295.2 1280.5,-276.2 1049.5,-276.2"/>
<polygon fill="#ffffff" stroke="transparent" points="1050.5,-277.2 1050.5,-294.2 1133.5,-294.2 1133.5,-277.2 1050.5,-277.2"/>
<text text-anchor="start" x="1052.5" y="-282.3" font-family="Helvetica,sans-Serif" font-size="11.00" fill="#000000">&lt; 3</text>
<polygon fill="#ffffff" stroke="transparent" points="1133.5,-277.2 1133.5,-294.2 1206.5,-294.2 1206.5,-277.2 1133.5,-277.2"/>
<text text-anchor="start" x="1166.9431" y="-282.3" font-family="Helvetica,sans-Serif" font-size="11.00" fill="#000000"> &#160;</text>
<polygon fill="#ffffff" stroke="transparent" points="1206.5,-277.2 1206.5,-294.2 1279.5,-294.2 1279.5,-277.2 1206.5,-277.2"/>
<text text-anchor="start" x="1271.3862" y="-282.3" font-family="Helvetica,sans-Serif" font-size="11.00" fill="#000000"> &#160;</text>
<polygon fill="#000000" stroke="#000000" points="1133.5,-277.2 1133.5,-294.2 1133.5,-294.2 1133.5,-277.2 1133.5,-277.2"/>
<polygon fill="#000000" stroke="#000000" points="1206.5,-277.2 1206.5,-294.2 1206.5,-294.2 1206.5,-277.2 1206.5,-277.2"/>
</a>
</g>
</g>
<!-- act_cmmn_ru_sentry_part_inst&#45;&gt;act_cmmn_casedef -->
<g id="edge8" class="edge">
<title>act_cmmn_ru_sentry_part_inst:w&#45;&gt;act_cmmn_casedef:e</title>
<path fill="none" stroke="#000000" d="M1031.3394,-269.8763C1023.4814,-268.4347 1015.6606,-267.1868 1008,-266.2 797.6117,-239.0985 727.148,-218.0435 532,-301.2 509.9997,-310.5748 513.4145,-334.2 489.5,-334.2"/>
<polygon fill="#000000" stroke="#000000" points="1037.6485,-271.1192 1044.8017,-276.1977 1041.573,-271.8924 1045.4976,-272.6656 1045.4976,-272.6656 1045.4976,-272.6656 1041.573,-271.8924 1046.1935,-269.1335 1037.6485,-271.1192 1037.6485,-271.1192"/>
<ellipse fill="none" stroke="#000000" cx="1034.5088" cy="-270.5006" rx="3.2" ry="3.2"/>
</g>
<!-- act_cmmn_ru_sentry_part_inst&#45;&gt;act_cmmn_ru_case_inst -->
<g id="edge9" class="edge">
<title>act_cmmn_ru_sentry_part_inst:w&#45;&gt;act_cmmn_ru_case_inst:e</title>
<path fill="none" stroke="#000000" d="M1029.1232,-344.5991C1022.0082,-345.958 1014.9364,-347.1739 1008,-348.2 917.4519,-361.5952 813.2701,-364.4707 738.0658,-364.3572"/>
<polygon fill="#000000" stroke="#000000" points="1035.4502,-343.3152 1044.0063,-345.2524 1039.3703,-342.5198 1043.2904,-341.7243 1043.2904,-341.7243 1043.2904,-341.7243 1039.3703,-342.5198 1042.5745,-338.1962 1035.4502,-343.3152 1035.4502,-343.3152"/>
<ellipse fill="none" stroke="#000000" cx="1032.3141" cy="-343.9516" rx="3.2" ry="3.2"/>
</g>
<!-- act_cmmn_ru_sentry_part_inst&#45;&gt;act_cmmn_ru_plan_item_inst -->
<g id="edge10" class="edge">
<title>act_cmmn_ru_sentry_part_inst:w&#45;&gt;act_cmmn_ru_plan_item_inst:e</title>
<path fill="none" stroke="#000000" d="M1026.1576,-307.2C1020.1212,-307.2 1014.0869,-307.2 1008.1014,-307.2"/>
<polygon fill="#000000" stroke="#000000" points="1032.6762,-307.2001 1040.6762,-310.8 1036.6762,-307.2 1040.6762,-307.2 1040.6762,-307.2 1040.6762,-307.2 1036.6762,-307.2 1040.6761,-303.6 1032.6762,-307.2001 1032.6762,-307.2001"/>
<ellipse fill="none" stroke="#000000" cx="1029.4762" cy="-307.2001" rx="3.2" ry="3.2"/>
</g>
</g>
</svg>
