<?xml version="1.0" encoding="UTF-8" standalone="no"?>
<!DOCTYPE svg PUBLIC "-//W3C//DTD SVG 1.1//EN"
 "http://www.w3.org/Graphics/SVG/1.1/DTD/svg11.dtd">
<!-- Generated by graphviz version 2.40.1 (20161225.0304)
 -->
<!-- Title: twoDegreesRelationshipsDiagram Pages: 1 -->
<svg width="1285pt" height="664pt"
 viewBox="0.00 0.00 1285.00 663.51" xmlns="http://www.w3.org/2000/svg" xmlns:xlink="http://www.w3.org/1999/xlink">
<g id="graph0" class="graph" transform="scale(1 1) rotate(0) translate(4 659.5106)">
<title>twoDegreesRelationshipsDiagram</title>
<polygon fill="#ffffff" stroke="transparent" points="-4,4 -4,-659.5106 1281,-659.5106 1281,4 -4,4"/>
<text text-anchor="middle" x="72.4936" y="-7.3" font-family="Helvetica,sans-Serif" font-size="11.00" fill="#000000">Generated by SchemaSpy</text>
<!-- act_cmmn_casedef -->
<g id="node1" class="node">
<title>act_cmmn_casedef</title>
<g id="a_node1"><a xlink:href="../../tables/act_cmmn_casedef.html" xlink:title="act_cmmn_casedef" target="_top">
<polygon fill="#ffffff" stroke="transparent" points="240,-239.8578 240,-300.8578 398,-300.8578 398,-239.8578 240,-239.8578"/>
<polygon fill="#f5f5f5" stroke="transparent" points="240,-277.3578 240,-300.3578 398,-300.3578 398,-277.3578 240,-277.3578"/>
<polygon fill="none" stroke="#000000" points="240,-277.3578 240,-300.3578 398,-300.3578 398,-277.3578 240,-277.3578"/>
<text text-anchor="start" x="245" y="-285.9578" font-family="Helvetica,sans-Serif" font-weight="bold" font-size="11.00" fill="#000000">act_cmmn_casedef</text>
<text text-anchor="start" x="363.5219" y="-285.4578" font-family="Helvetica,sans-Serif" font-size="11.00" fill="#000000">[table]</text>
<polygon fill="none" stroke="#000000" points="240,-258.3578 240,-277.3578 398,-277.3578 398,-258.3578 240,-258.3578"/>
<text text-anchor="start" x="243" y="-264.4578" font-family="Helvetica,sans-Serif" font-size="11.00" fill="#000000">...</text>
<polygon fill="#ffffff" stroke="transparent" points="240,-239.3578 240,-258.3578 398,-258.3578 398,-239.3578 240,-239.3578"/>
<polygon fill="none" stroke="#000000" points="240,-239.3578 240,-258.3578 398,-258.3578 398,-239.3578 240,-239.3578"/>
<polygon fill="#ffffff" stroke="transparent" points="241,-240.3578 241,-257.3578 296,-257.3578 296,-240.3578 241,-240.3578"/>
<text text-anchor="start" x="243" y="-245.4578" font-family="Helvetica,sans-Serif" font-size="11.00" fill="#000000">&lt; 1</text>
<polygon fill="#ffffff" stroke="transparent" points="296,-240.3578 296,-257.3578 342,-257.3578 342,-240.3578 296,-240.3578"/>
<text text-anchor="start" x="315.9431" y="-245.4578" font-family="Helvetica,sans-Serif" font-size="11.00" fill="#000000"> &#160;</text>
<polygon fill="#ffffff" stroke="transparent" points="342,-240.3578 342,-257.3578 397,-257.3578 397,-240.3578 342,-240.3578"/>
<text text-anchor="start" x="379.4053" y="-245.4578" font-family="Helvetica,sans-Serif" font-size="11.00" fill="#000000">4 &gt;</text>
<polygon fill="#000000" stroke="#000000" points="296,-240.3578 296,-257.3578 296,-257.3578 296,-240.3578 296,-240.3578"/>
<polygon fill="#000000" stroke="#000000" points="342,-240.3578 342,-257.3578 342,-257.3578 342,-240.3578 342,-240.3578"/>
</a>
</g>
</g>
<!-- act_cmmn_deployment -->
<g id="node2" class="node">
<title>act_cmmn_deployment</title>
<g id="a_node2"><a xlink:href="../../tables/act_cmmn_deployment.html" xlink:title="act_cmmn_deployment" target="_top">
<polygon fill="#ffffff" stroke="transparent" points="8,-242.8578 8,-303.8578 191,-303.8578 191,-242.8578 8,-242.8578"/>
<polygon fill="#f5f5f5" stroke="transparent" points="8.5,-280.3578 8.5,-303.3578 191.5,-303.3578 191.5,-280.3578 8.5,-280.3578"/>
<polygon fill="none" stroke="#000000" points="8.5,-280.3578 8.5,-303.3578 191.5,-303.3578 191.5,-280.3578 8.5,-280.3578"/>
<text text-anchor="start" x="13.5" y="-288.9578" font-family="Helvetica,sans-Serif" font-weight="bold" font-size="11.00" fill="#000000">act_cmmn_deployment</text>
<text text-anchor="start" x="157.0219" y="-288.4578" font-family="Helvetica,sans-Serif" font-size="11.00" fill="#000000">[table]</text>
<polygon fill="none" stroke="#000000" points="8.5,-261.3578 8.5,-280.3578 191.5,-280.3578 191.5,-261.3578 8.5,-261.3578"/>
<text text-anchor="start" x="11.5" y="-267.4578" font-family="Helvetica,sans-Serif" font-size="11.00" fill="#000000">...</text>
<polygon fill="#ffffff" stroke="transparent" points="8.5,-242.3578 8.5,-261.3578 191.5,-261.3578 191.5,-242.3578 8.5,-242.3578"/>
<polygon fill="none" stroke="#000000" points="8.5,-242.3578 8.5,-261.3578 191.5,-261.3578 191.5,-242.3578 8.5,-242.3578"/>
<polygon fill="#ffffff" stroke="transparent" points="9.5,-243.3578 9.5,-260.3578 67.5,-260.3578 67.5,-243.3578 9.5,-243.3578"/>
<text text-anchor="start" x="11.5" y="-248.4578" font-family="Helvetica,sans-Serif" font-size="11.00" fill="#000000"> &#160;</text>
<polygon fill="#ffffff" stroke="transparent" points="67.5,-243.3578 67.5,-260.3578 124.5,-260.3578 124.5,-243.3578 67.5,-243.3578"/>
<text text-anchor="start" x="92.9431" y="-248.4578" font-family="Helvetica,sans-Serif" font-size="11.00" fill="#000000"> &#160;</text>
<polygon fill="#ffffff" stroke="transparent" points="124.5,-243.3578 124.5,-260.3578 190.5,-260.3578 190.5,-243.3578 124.5,-243.3578"/>
<text text-anchor="start" x="172.9053" y="-248.4578" font-family="Helvetica,sans-Serif" font-size="11.00" fill="#000000">2 &gt;</text>
<polygon fill="#000000" stroke="#000000" points="67.5,-243.3578 67.5,-260.3578 67.5,-260.3578 67.5,-243.3578 67.5,-243.3578"/>
<polygon fill="#000000" stroke="#000000" points="124.5,-243.3578 124.5,-260.3578 124.5,-260.3578 124.5,-243.3578 124.5,-243.3578"/>
</a>
</g>
</g>
<!-- act_cmmn_casedef&#45;&gt;act_cmmn_deployment -->
<g id="edge1" class="edge">
<title>act_cmmn_casedef:w&#45;&gt;act_cmmn_deployment:e</title>
<path fill="none" stroke="#000000" d="M217.2524,-270.3578C208.5418,-270.3578 199.8665,-270.3578 191.5,-270.3578"/>
<polygon fill="#000000" stroke="#000000" points="223.8966,-270.3579 231.8966,-273.9578 227.8966,-270.3578 231.8966,-270.3578 231.8966,-270.3578 231.8966,-270.3578 227.8966,-270.3578 231.8966,-266.7578 223.8966,-270.3579 223.8966,-270.3579"/>
<ellipse fill="none" stroke="#000000" cx="220.6966" cy="-270.3579" rx="3.2" ry="3.2"/>
</g>
<!-- act_cmmn_ru_case_inst -->
<g id="node3" class="node">
<title>act_cmmn_ru_case_inst</title>
<g id="a_node3"><a xlink:href="../../tables/act_cmmn_ru_case_inst.html" xlink:title="act_cmmn_ru_case_inst" target="_top">
<polygon fill="#ffffff" stroke="transparent" points="447,-112.3578 447,-598.3578 719,-598.3578 719,-112.3578 447,-112.3578"/>
<polygon fill="#f5f5f5" stroke="transparent" points="449,-573.3578 449,-596.3578 717,-596.3578 717,-573.3578 449,-573.3578"/>
<polygon fill="none" stroke="#000000" points="449,-573.3578 449,-596.3578 717,-596.3578 717,-573.3578 449,-573.3578"/>
<text text-anchor="start" x="454" y="-581.9578" font-family="Helvetica,sans-Serif" font-weight="bold" font-size="11.00" fill="#000000">act_cmmn_ru_case_inst</text>
<text text-anchor="start" x="682.0437" y="-581.4578" font-family="Helvetica,sans-Serif" font-size="11.00" fill="#000000">[table]</text>
<polygon fill="none" stroke="#000000" points="449,-551.3578 449,-573.3578 633,-573.3578 633,-551.3578 449,-551.3578"/>
<image xlink:href="../../images/primaryKeys.png" width="11px" height="12px" preserveAspectRatio="xMinYMin meet" x="454" y="-568.358"/>
<text text-anchor="start" x="469" y="-558.4578" font-family="Helvetica,sans-Serif" font-size="11.00" fill="#000000">id_</text>
<polygon fill="none" stroke="#000000" points="633,-551.3578 633,-573.3578 717,-573.3578 717,-551.3578 633,-551.3578"/>
<text text-anchor="start" x="636" y="-559.0578" font-family="Helvetica,sans-Serif" font-size="11.00" fill="#000000">varchar[255]</text>
<polygon fill="none" stroke="#000000" points="449,-529.3578 449,-551.3578 633,-551.3578 633,-529.3578 449,-529.3578"/>
<text text-anchor="start" x="469" y="-536.4578" font-family="Helvetica,sans-Serif" font-size="11.00" fill="#000000">rev_</text>
<polygon fill="none" stroke="#000000" points="633,-529.3578 633,-551.3578 717,-551.3578 717,-529.3578 633,-529.3578"/>
<text text-anchor="start" x="636" y="-537.0578" font-family="Helvetica,sans-Serif" font-size="11.00" fill="#000000">int4[10]</text>
<polygon fill="none" stroke="#000000" points="449,-507.3578 449,-529.3578 633,-529.3578 633,-507.3578 449,-507.3578"/>
<text text-anchor="start" x="469" y="-514.4578" font-family="Helvetica,sans-Serif" font-size="11.00" fill="#000000">business_key_</text>
<polygon fill="none" stroke="#000000" points="633,-507.3578 633,-529.3578 717,-529.3578 717,-507.3578 633,-507.3578"/>
<text text-anchor="start" x="636" y="-515.0578" font-family="Helvetica,sans-Serif" font-size="11.00" fill="#000000">varchar[255]</text>
<polygon fill="none" stroke="#000000" points="449,-485.3578 449,-507.3578 633,-507.3578 633,-485.3578 449,-485.3578"/>
<text text-anchor="start" x="469" y="-492.4578" font-family="Helvetica,sans-Serif" font-size="11.00" fill="#000000">name_</text>
<polygon fill="none" stroke="#000000" points="633,-485.3578 633,-507.3578 717,-507.3578 717,-485.3578 633,-485.3578"/>
<text text-anchor="start" x="636" y="-493.0578" font-family="Helvetica,sans-Serif" font-size="11.00" fill="#000000">varchar[255]</text>
<polygon fill="#ffffff" stroke="transparent" points="449,-463.3578 449,-485.3578 633,-485.3578 633,-463.3578 449,-463.3578"/>
<polygon fill="none" stroke="#000000" points="449,-463.3578 449,-485.3578 633,-485.3578 633,-463.3578 449,-463.3578"/>
<text text-anchor="start" x="469" y="-470.4578" font-family="Helvetica,sans-Serif" font-size="11.00" fill="#000000">parent_id_</text>
<polygon fill="none" stroke="#000000" points="633,-463.3578 633,-485.3578 717,-485.3578 717,-463.3578 633,-463.3578"/>
<text text-anchor="start" x="636" y="-471.0578" font-family="Helvetica,sans-Serif" font-size="11.00" fill="#000000">varchar[255]</text>
<polygon fill="#ffffff" stroke="transparent" points="449,-441.3578 449,-463.3578 633,-463.3578 633,-441.3578 449,-441.3578"/>
<polygon fill="none" stroke="#000000" points="449,-441.3578 449,-463.3578 633,-463.3578 633,-441.3578 449,-441.3578"/>
<image xlink:href="../../images/foreignKeys.png" width="11px" height="12px" preserveAspectRatio="xMinYMin meet" x="454" y="-458.358"/>
<text text-anchor="start" x="469" y="-448.4578" font-family="Helvetica,sans-Serif" font-size="11.00" fill="#000000">case_def_id_</text>
<polygon fill="none" stroke="#000000" points="633,-441.3578 633,-463.3578 717,-463.3578 717,-441.3578 633,-441.3578"/>
<text text-anchor="start" x="636" y="-449.0578" font-family="Helvetica,sans-Serif" font-size="11.00" fill="#000000">varchar[255]</text>
<polygon fill="none" stroke="#000000" points="449,-419.3578 449,-441.3578 633,-441.3578 633,-419.3578 449,-419.3578"/>
<text text-anchor="start" x="469" y="-426.4578" font-family="Helvetica,sans-Serif" font-size="11.00" fill="#000000">state_</text>
<polygon fill="none" stroke="#000000" points="633,-419.3578 633,-441.3578 717,-441.3578 717,-419.3578 633,-419.3578"/>
<text text-anchor="start" x="636" y="-427.0578" font-family="Helvetica,sans-Serif" font-size="11.00" fill="#000000">varchar[255]</text>
<polygon fill="none" stroke="#000000" points="449,-397.3578 449,-419.3578 633,-419.3578 633,-397.3578 449,-397.3578"/>
<text text-anchor="start" x="469" y="-404.4578" font-family="Helvetica,sans-Serif" font-size="11.00" fill="#000000">start_time_</text>
<polygon fill="none" stroke="#000000" points="633,-397.3578 633,-419.3578 717,-419.3578 717,-397.3578 633,-397.3578"/>
<text text-anchor="start" x="635.8807" y="-405.0578" font-family="Helvetica,sans-Serif" font-size="11.00" fill="#000000">timestamp[29,6]</text>
<polygon fill="none" stroke="#000000" points="449,-375.3578 449,-397.3578 633,-397.3578 633,-375.3578 449,-375.3578"/>
<text text-anchor="start" x="469" y="-382.4578" font-family="Helvetica,sans-Serif" font-size="11.00" fill="#000000">start_user_id_</text>
<polygon fill="none" stroke="#000000" points="633,-375.3578 633,-397.3578 717,-397.3578 717,-375.3578 633,-375.3578"/>
<text text-anchor="start" x="636" y="-383.0578" font-family="Helvetica,sans-Serif" font-size="11.00" fill="#000000">varchar[255]</text>
<polygon fill="none" stroke="#000000" points="449,-353.3578 449,-375.3578 633,-375.3578 633,-353.3578 449,-353.3578"/>
<text text-anchor="start" x="469" y="-360.4578" font-family="Helvetica,sans-Serif" font-size="11.00" fill="#000000">callback_id_</text>
<polygon fill="none" stroke="#000000" points="633,-353.3578 633,-375.3578 717,-375.3578 717,-353.3578 633,-353.3578"/>
<text text-anchor="start" x="636" y="-361.0578" font-family="Helvetica,sans-Serif" font-size="11.00" fill="#000000">varchar[255]</text>
<polygon fill="none" stroke="#000000" points="449,-331.3578 449,-353.3578 633,-353.3578 633,-331.3578 449,-331.3578"/>
<text text-anchor="start" x="469" y="-338.4578" font-family="Helvetica,sans-Serif" font-size="11.00" fill="#000000">callback_type_</text>
<polygon fill="none" stroke="#000000" points="633,-331.3578 633,-353.3578 717,-353.3578 717,-331.3578 633,-331.3578"/>
<text text-anchor="start" x="636" y="-339.0578" font-family="Helvetica,sans-Serif" font-size="11.00" fill="#000000">varchar[255]</text>
<polygon fill="none" stroke="#000000" points="449,-309.3578 449,-331.3578 633,-331.3578 633,-309.3578 449,-309.3578"/>
<text text-anchor="start" x="469" y="-316.4578" font-family="Helvetica,sans-Serif" font-size="11.00" fill="#000000">lock_time_</text>
<polygon fill="none" stroke="#000000" points="633,-309.3578 633,-331.3578 717,-331.3578 717,-309.3578 633,-309.3578"/>
<text text-anchor="start" x="635.8807" y="-317.0578" font-family="Helvetica,sans-Serif" font-size="11.00" fill="#000000">timestamp[29,6]</text>
<polygon fill="none" stroke="#000000" points="449,-287.3578 449,-309.3578 633,-309.3578 633,-287.3578 449,-287.3578"/>
<text text-anchor="start" x="469" y="-294.4578" font-family="Helvetica,sans-Serif" font-size="11.00" fill="#000000">lock_owner_</text>
<polygon fill="none" stroke="#000000" points="633,-287.3578 633,-309.3578 717,-309.3578 717,-287.3578 633,-287.3578"/>
<text text-anchor="start" x="636" y="-295.0578" font-family="Helvetica,sans-Serif" font-size="11.00" fill="#000000">varchar[255]</text>
<polygon fill="none" stroke="#000000" points="449,-265.3578 449,-287.3578 633,-287.3578 633,-265.3578 449,-265.3578"/>
<text text-anchor="start" x="469" y="-272.4578" font-family="Helvetica,sans-Serif" font-size="11.00" fill="#000000">is_completeable_</text>
<polygon fill="none" stroke="#000000" points="633,-265.3578 633,-287.3578 717,-287.3578 717,-265.3578 633,-265.3578"/>
<text text-anchor="start" x="636" y="-273.0578" font-family="Helvetica,sans-Serif" font-size="11.00" fill="#000000">bool[1]</text>
<polygon fill="#ffffff" stroke="transparent" points="449,-243.3578 449,-265.3578 633,-265.3578 633,-243.3578 449,-243.3578"/>
<polygon fill="none" stroke="#000000" points="449,-243.3578 449,-265.3578 633,-265.3578 633,-243.3578 449,-243.3578"/>
<text text-anchor="start" x="469" y="-250.4578" font-family="Helvetica,sans-Serif" font-size="11.00" fill="#000000">reference_id_</text>
<polygon fill="none" stroke="#000000" points="633,-243.3578 633,-265.3578 717,-265.3578 717,-243.3578 633,-243.3578"/>
<text text-anchor="start" x="636" y="-251.0578" font-family="Helvetica,sans-Serif" font-size="11.00" fill="#000000">varchar[255]</text>
<polygon fill="none" stroke="#000000" points="449,-221.3578 449,-243.3578 633,-243.3578 633,-221.3578 449,-221.3578"/>
<text text-anchor="start" x="469" y="-228.4578" font-family="Helvetica,sans-Serif" font-size="11.00" fill="#000000">reference_type_</text>
<polygon fill="none" stroke="#000000" points="633,-221.3578 633,-243.3578 717,-243.3578 717,-221.3578 633,-221.3578"/>
<text text-anchor="start" x="636" y="-229.0578" font-family="Helvetica,sans-Serif" font-size="11.00" fill="#000000">varchar[255]</text>
<polygon fill="none" stroke="#000000" points="449,-199.3578 449,-221.3578 633,-221.3578 633,-199.3578 449,-199.3578"/>
<text text-anchor="start" x="469" y="-206.4578" font-family="Helvetica,sans-Serif" font-size="11.00" fill="#000000">last_reactivation_time_</text>
<polygon fill="none" stroke="#000000" points="633,-199.3578 633,-221.3578 717,-221.3578 717,-199.3578 633,-199.3578"/>
<text text-anchor="start" x="635.8807" y="-207.0578" font-family="Helvetica,sans-Serif" font-size="11.00" fill="#000000">timestamp[26,3]</text>
<polygon fill="none" stroke="#000000" points="449,-177.3578 449,-199.3578 633,-199.3578 633,-177.3578 449,-177.3578"/>
<text text-anchor="start" x="469" y="-184.4578" font-family="Helvetica,sans-Serif" font-size="11.00" fill="#000000">last_reactivation_user_id_</text>
<polygon fill="none" stroke="#000000" points="633,-177.3578 633,-199.3578 717,-199.3578 717,-177.3578 633,-177.3578"/>
<text text-anchor="start" x="636" y="-185.0578" font-family="Helvetica,sans-Serif" font-size="11.00" fill="#000000">varchar[255]</text>
<polygon fill="none" stroke="#000000" points="449,-155.3578 449,-177.3578 633,-177.3578 633,-155.3578 449,-155.3578"/>
<text text-anchor="start" x="469" y="-162.4578" font-family="Helvetica,sans-Serif" font-size="11.00" fill="#000000">business_status_</text>
<polygon fill="none" stroke="#000000" points="633,-155.3578 633,-177.3578 717,-177.3578 717,-155.3578 633,-155.3578"/>
<text text-anchor="start" x="636" y="-163.0578" font-family="Helvetica,sans-Serif" font-size="11.00" fill="#000000">varchar[255]</text>
<polygon fill="none" stroke="#000000" points="449,-133.3578 449,-155.3578 633,-155.3578 633,-133.3578 449,-133.3578"/>
<text text-anchor="start" x="469" y="-140.4578" font-family="Helvetica,sans-Serif" font-size="11.00" fill="#000000">tenant_id_</text>
<polygon fill="none" stroke="#000000" points="633,-133.3578 633,-155.3578 717,-155.3578 717,-133.3578 633,-133.3578"/>
<text text-anchor="start" x="636" y="-141.0578" font-family="Helvetica,sans-Serif" font-size="11.00" fill="#000000">varchar[255]</text>
<polygon fill="#ffffff" stroke="transparent" points="449,-114.3578 449,-133.3578 717,-133.3578 717,-114.3578 449,-114.3578"/>
<polygon fill="none" stroke="#000000" points="449,-114.3578 449,-133.3578 717,-133.3578 717,-114.3578 449,-114.3578"/>
<polygon fill="#ffffff" stroke="transparent" points="450,-115.3578 450,-132.3578 542,-132.3578 542,-115.3578 450,-115.3578"/>
<text text-anchor="start" x="452" y="-120.4578" font-family="Helvetica,sans-Serif" font-size="11.00" fill="#000000">&lt; 1</text>
<polygon fill="#ffffff" stroke="transparent" points="542,-115.3578 542,-132.3578 625,-132.3578 625,-115.3578 542,-115.3578"/>
<text text-anchor="start" x="580.4431" y="-120.4578" font-family="Helvetica,sans-Serif" font-size="11.00" fill="#000000"> &#160;</text>
<polygon fill="#ffffff" stroke="transparent" points="625,-115.3578 625,-132.3578 716,-132.3578 716,-115.3578 625,-115.3578"/>
<text text-anchor="start" x="698.4053" y="-120.4578" font-family="Helvetica,sans-Serif" font-size="11.00" fill="#000000">3 &gt;</text>
<polygon fill="#000000" stroke="#000000" points="542,-115.3578 542,-132.3578 542,-132.3578 542,-115.3578 542,-115.3578"/>
<polygon fill="#000000" stroke="#000000" points="625,-115.3578 625,-132.3578 625,-132.3578 625,-115.3578 625,-115.3578"/>
<polygon fill="none" stroke="#000000" stroke-width="2" points="448,-113.3578 448,-597.3578 718,-597.3578 718,-113.3578 448,-113.3578"/>
</a>
</g>
</g>
<!-- act_cmmn_ru_case_inst&#45;&gt;act_cmmn_casedef -->
<g id="edge2" class="edge">
<title>act_cmmn_ru_case_inst:w&#45;&gt;act_cmmn_casedef:e</title>
<path fill="none" stroke="#000000" d="M434.4133,-451.0031C372.4162,-439.2704 340.4409,-354.1117 326.9925,-305.019"/>
<polygon fill="#000000" stroke="#000000" points="441.0343,-451.618 448.6671,-455.9424 445.0171,-451.9879 449,-452.3578 449,-452.3578 449,-452.3578 445.0171,-451.9879 449.3329,-448.7732 441.0343,-451.618 441.0343,-451.618"/>
<ellipse fill="none" stroke="#000000" cx="437.848" cy="-451.322" rx="3.2" ry="3.2"/>
</g>
<!-- act_cmmn_ru_mil_inst -->
<g id="node4" class="node">
<title>act_cmmn_ru_mil_inst</title>
<g id="a_node4"><a xlink:href="../../tables/act_cmmn_ru_mil_inst.html" xlink:title="act_cmmn_ru_mil_inst" target="_top">
<polygon fill="#ffffff" stroke="transparent" points="789,-561.8578 789,-622.8578 968,-622.8578 968,-561.8578 789,-561.8578"/>
<polygon fill="#f5f5f5" stroke="transparent" points="789.5,-599.3578 789.5,-622.3578 968.5,-622.3578 968.5,-599.3578 789.5,-599.3578"/>
<polygon fill="none" stroke="#000000" points="789.5,-599.3578 789.5,-622.3578 968.5,-622.3578 968.5,-599.3578 789.5,-599.3578"/>
<text text-anchor="start" x="794.5" y="-607.9578" font-family="Helvetica,sans-Serif" font-weight="bold" font-size="11.00" fill="#000000">act_cmmn_ru_mil_inst</text>
<text text-anchor="start" x="934.0219" y="-607.4578" font-family="Helvetica,sans-Serif" font-size="11.00" fill="#000000">[table]</text>
<polygon fill="none" stroke="#000000" points="789.5,-580.3578 789.5,-599.3578 968.5,-599.3578 968.5,-580.3578 789.5,-580.3578"/>
<text text-anchor="start" x="792.5" y="-586.4578" font-family="Helvetica,sans-Serif" font-size="11.00" fill="#000000">...</text>
<polygon fill="#ffffff" stroke="transparent" points="789.5,-561.3578 789.5,-580.3578 968.5,-580.3578 968.5,-561.3578 789.5,-561.3578"/>
<polygon fill="none" stroke="#000000" points="789.5,-561.3578 789.5,-580.3578 968.5,-580.3578 968.5,-561.3578 789.5,-561.3578"/>
<polygon fill="#ffffff" stroke="transparent" points="790.5,-562.3578 790.5,-579.3578 855.5,-579.3578 855.5,-562.3578 790.5,-562.3578"/>
<text text-anchor="start" x="792.5" y="-567.4578" font-family="Helvetica,sans-Serif" font-size="11.00" fill="#000000">&lt; 2</text>
<polygon fill="#ffffff" stroke="transparent" points="855.5,-562.3578 855.5,-579.3578 911.5,-579.3578 911.5,-562.3578 855.5,-562.3578"/>
<text text-anchor="start" x="880.4431" y="-567.4578" font-family="Helvetica,sans-Serif" font-size="11.00" fill="#000000"> &#160;</text>
<polygon fill="#ffffff" stroke="transparent" points="911.5,-562.3578 911.5,-579.3578 967.5,-579.3578 967.5,-562.3578 911.5,-562.3578"/>
<text text-anchor="start" x="959.3862" y="-567.4578" font-family="Helvetica,sans-Serif" font-size="11.00" fill="#000000"> &#160;</text>
<polygon fill="#000000" stroke="#000000" points="855.5,-562.3578 855.5,-579.3578 855.5,-579.3578 855.5,-562.3578 855.5,-562.3578"/>
<polygon fill="#000000" stroke="#000000" points="911.5,-562.3578 911.5,-579.3578 911.5,-579.3578 911.5,-562.3578 911.5,-562.3578"/>
</a>
</g>
</g>
<!-- act_cmmn_ru_mil_inst&#45;&gt;act_cmmn_casedef -->
<g id="edge3" class="edge">
<title>act_cmmn_ru_mil_inst:w&#45;&gt;act_cmmn_casedef:e</title>
<path fill="none" stroke="#000000" d="M769.1991,-630.9944C673.2918,-657.4735 534.5882,-676.9216 439,-609.3578 387.6347,-573.0517 342.7847,-383.8749 326.0164,-304.9724"/>
<polygon fill="#000000" stroke="#000000" points="775.6316,-629.1567 784.3128,-630.4206 779.4777,-628.0579 783.3238,-626.9591 783.3238,-626.9591 783.3238,-626.9591 779.4777,-628.0579 782.3348,-623.4975 775.6316,-629.1567 775.6316,-629.1567"/>
<ellipse fill="none" stroke="#000000" cx="772.5547" cy="-630.0358" rx="3.2" ry="3.2"/>
</g>
<!-- act_cmmn_ru_mil_inst&#45;&gt;act_cmmn_ru_case_inst -->
<g id="edge4" class="edge">
<title>act_cmmn_ru_mil_inst:w&#45;&gt;act_cmmn_ru_case_inst:e</title>
<path fill="none" stroke="#000000" d="M766.449,-566.0919C749.9563,-563.8171 733.1014,-562.3578 717,-562.3578"/>
<polygon fill="#000000" stroke="#000000" points="772.9129,-567.0781 780.2783,-571.8437 776.8671,-567.6815 780.8213,-568.2848 780.8213,-568.2848 780.8213,-568.2848 776.8671,-567.6815 781.3643,-564.726 772.9129,-567.0781 772.9129,-567.0781"/>
<ellipse fill="none" stroke="#000000" cx="769.7495" cy="-566.5955" rx="3.2" ry="3.2"/>
</g>
<!-- act_cmmn_ru_plan_item_inst -->
<g id="node5" class="node">
<title>act_cmmn_ru_plan_item_inst</title>
<g id="a_node5"><a xlink:href="../../tables/act_cmmn_ru_plan_item_inst.html" xlink:title="act_cmmn_ru_plan_item_inst" target="_top">
<polygon fill="#ffffff" stroke="transparent" points="768,-184.8578 768,-245.8578 989,-245.8578 989,-184.8578 768,-184.8578"/>
<polygon fill="#f5f5f5" stroke="transparent" points="768.5,-222.3578 768.5,-245.3578 989.5,-245.3578 989.5,-222.3578 768.5,-222.3578"/>
<polygon fill="none" stroke="#000000" points="768.5,-222.3578 768.5,-245.3578 989.5,-245.3578 989.5,-222.3578 768.5,-222.3578"/>
<text text-anchor="start" x="773.5" y="-230.9578" font-family="Helvetica,sans-Serif" font-weight="bold" font-size="11.00" fill="#000000">act_cmmn_ru_plan_item_inst</text>
<text text-anchor="start" x="955.0219" y="-230.4578" font-family="Helvetica,sans-Serif" font-size="11.00" fill="#000000">[table]</text>
<polygon fill="none" stroke="#000000" points="768.5,-203.3578 768.5,-222.3578 989.5,-222.3578 989.5,-203.3578 768.5,-203.3578"/>
<text text-anchor="start" x="771.5" y="-209.4578" font-family="Helvetica,sans-Serif" font-size="11.00" fill="#000000">...</text>
<polygon fill="#ffffff" stroke="transparent" points="768.5,-184.3578 768.5,-203.3578 989.5,-203.3578 989.5,-184.3578 768.5,-184.3578"/>
<polygon fill="none" stroke="#000000" points="768.5,-184.3578 768.5,-203.3578 989.5,-203.3578 989.5,-184.3578 768.5,-184.3578"/>
<polygon fill="#ffffff" stroke="transparent" points="769.5,-185.3578 769.5,-202.3578 845.5,-202.3578 845.5,-185.3578 769.5,-185.3578"/>
<text text-anchor="start" x="771.5" y="-190.4578" font-family="Helvetica,sans-Serif" font-size="11.00" fill="#000000">&lt; 2</text>
<polygon fill="#ffffff" stroke="transparent" points="845.5,-185.3578 845.5,-202.3578 912.5,-202.3578 912.5,-185.3578 845.5,-185.3578"/>
<text text-anchor="start" x="875.9431" y="-190.4578" font-family="Helvetica,sans-Serif" font-size="11.00" fill="#000000"> &#160;</text>
<polygon fill="#ffffff" stroke="transparent" points="912.5,-185.3578 912.5,-202.3578 988.5,-202.3578 988.5,-185.3578 912.5,-185.3578"/>
<text text-anchor="start" x="970.9053" y="-190.4578" font-family="Helvetica,sans-Serif" font-size="11.00" fill="#000000">1 &gt;</text>
<polygon fill="#000000" stroke="#000000" points="845.5,-185.3578 845.5,-202.3578 845.5,-202.3578 845.5,-185.3578 845.5,-185.3578"/>
<polygon fill="#000000" stroke="#000000" points="912.5,-185.3578 912.5,-202.3578 912.5,-202.3578 912.5,-185.3578 912.5,-185.3578"/>
</a>
</g>
</g>
<!-- act_cmmn_ru_plan_item_inst&#45;&gt;act_cmmn_casedef -->
<g id="edge5" class="edge">
<title>act_cmmn_ru_plan_item_inst:w&#45;&gt;act_cmmn_casedef:e</title>
<path fill="none" stroke="#000000" d="M835.2927,-170.7114C807.1893,-145.0004 768.2034,-115.1285 727,-101.3578 666.3003,-81.0712 495.8656,-71.9928 439,-101.3578 384.4859,-129.5085 349.3571,-195.1261 331.9729,-235.8165"/>
<polygon fill="#000000" stroke="#000000" points="840.0629,-175.2004 843.4217,-183.3047 842.9758,-177.9417 845.8888,-180.683 845.8888,-180.683 845.8888,-180.683 842.9758,-177.9417 848.356,-178.0613 840.0629,-175.2004 840.0629,-175.2004"/>
<ellipse fill="none" stroke="#000000" cx="837.7325" cy="-173.0074" rx="3.2" ry="3.2"/>
</g>
<!-- act_cmmn_ru_plan_item_inst&#45;&gt;act_cmmn_ru_case_inst -->
<g id="edge6" class="edge">
<title>act_cmmn_ru_plan_item_inst:w&#45;&gt;act_cmmn_ru_case_inst:e</title>
<path fill="none" stroke="#000000" d="M831.6232,-260.5313C806.7341,-287.0732 777.7118,-322.5646 760,-359.3578 739.999,-400.9063 763.112,-562.3578 717,-562.3578"/>
<polygon fill="#000000" stroke="#000000" points="836.098,-255.8646 844.2333,-252.5819 838.8664,-252.9775 841.6349,-250.0903 841.6349,-250.0903 841.6349,-250.0903 838.8664,-252.9775 839.0364,-247.5987 836.098,-255.8646 836.098,-255.8646"/>
<ellipse fill="none" stroke="#000000" cx="833.8832" cy="-258.1744" rx="3.2" ry="3.2"/>
</g>
<!-- act_cmmn_ru_sentry_part_inst -->
<g id="node6" class="node">
<title>act_cmmn_ru_sentry_part_inst</title>
<g id="a_node6"><a xlink:href="../../tables/act_cmmn_ru_sentry_part_inst.html" xlink:title="act_cmmn_ru_sentry_part_inst" target="_top">
<polygon fill="#ffffff" stroke="transparent" points="1038,-184.8578 1038,-245.8578 1269,-245.8578 1269,-184.8578 1038,-184.8578"/>
<polygon fill="#f5f5f5" stroke="transparent" points="1038.5,-222.3578 1038.5,-245.3578 1269.5,-245.3578 1269.5,-222.3578 1038.5,-222.3578"/>
<polygon fill="none" stroke="#000000" points="1038.5,-222.3578 1038.5,-245.3578 1269.5,-245.3578 1269.5,-222.3578 1038.5,-222.3578"/>
<text text-anchor="start" x="1043.5" y="-230.9578" font-family="Helvetica,sans-Serif" font-weight="bold" font-size="11.00" fill="#000000">act_cmmn_ru_sentry_part_inst</text>
<text text-anchor="start" x="1235.0219" y="-230.4578" font-family="Helvetica,sans-Serif" font-size="11.00" fill="#000000">[table]</text>
<polygon fill="none" stroke="#000000" points="1038.5,-203.3578 1038.5,-222.3578 1269.5,-222.3578 1269.5,-203.3578 1038.5,-203.3578"/>
<text text-anchor="start" x="1041.5" y="-209.4578" font-family="Helvetica,sans-Serif" font-size="11.00" fill="#000000">...</text>
<polygon fill="#ffffff" stroke="transparent" points="1038.5,-184.3578 1038.5,-203.3578 1269.5,-203.3578 1269.5,-184.3578 1038.5,-184.3578"/>
<polygon fill="none" stroke="#000000" points="1038.5,-184.3578 1038.5,-203.3578 1269.5,-203.3578 1269.5,-184.3578 1038.5,-184.3578"/>
<polygon fill="#ffffff" stroke="transparent" points="1039.5,-185.3578 1039.5,-202.3578 1122.5,-202.3578 1122.5,-185.3578 1039.5,-185.3578"/>
<text text-anchor="start" x="1041.5" y="-190.4578" font-family="Helvetica,sans-Serif" font-size="11.00" fill="#000000">&lt; 3</text>
<polygon fill="#ffffff" stroke="transparent" points="1122.5,-185.3578 1122.5,-202.3578 1195.5,-202.3578 1195.5,-185.3578 1122.5,-185.3578"/>
<text text-anchor="start" x="1155.9431" y="-190.4578" font-family="Helvetica,sans-Serif" font-size="11.00" fill="#000000"> &#160;</text>
<polygon fill="#ffffff" stroke="transparent" points="1195.5,-185.3578 1195.5,-202.3578 1268.5,-202.3578 1268.5,-185.3578 1195.5,-185.3578"/>
<text text-anchor="start" x="1260.3862" y="-190.4578" font-family="Helvetica,sans-Serif" font-size="11.00" fill="#000000"> &#160;</text>
<polygon fill="#000000" stroke="#000000" points="1122.5,-185.3578 1122.5,-202.3578 1122.5,-202.3578 1122.5,-185.3578 1122.5,-185.3578"/>
<polygon fill="#000000" stroke="#000000" points="1195.5,-185.3578 1195.5,-202.3578 1195.5,-202.3578 1195.5,-185.3578 1195.5,-185.3578"/>
</a>
</g>
</g>
<!-- act_cmmn_ru_sentry_part_inst&#45;&gt;act_cmmn_casedef -->
<g id="edge7" class="edge">
<title>act_cmmn_ru_sentry_part_inst:w&#45;&gt;act_cmmn_casedef:e</title>
<path fill="none" stroke="#000000" d="M1083.8978,-173.5682C950.3444,-99.3036 652.4568,37.2929 439,-80.3578 379.0351,-113.4086 344.8908,-190.4388 329.3465,-235.6155"/>
<polygon fill="#000000" stroke="#000000" points="1089.713,-176.8428 1094.9174,-183.905 1093.1984,-178.8055 1096.6838,-180.7682 1096.6838,-180.7682 1096.6838,-180.7682 1093.1984,-178.8055 1098.4502,-177.6313 1089.713,-176.8428 1089.713,-176.8428"/>
<ellipse fill="none" stroke="#000000" cx="1086.9247" cy="-175.2727" rx="3.2" ry="3.2"/>
</g>
<!-- act_cmmn_ru_sentry_part_inst&#45;&gt;act_cmmn_ru_case_inst -->
<g id="edge8" class="edge">
<title>act_cmmn_ru_sentry_part_inst:w&#45;&gt;act_cmmn_ru_case_inst:e</title>
<path fill="none" stroke="#000000" d="M1105.0028,-259.647C1001.6316,-353.1885 765.104,-562.3578 717,-562.3578"/>
<polygon fill="#000000" stroke="#000000" points="1109.8296,-255.2713 1118.1745,-252.5652 1112.793,-252.5847 1115.7565,-249.8981 1115.7565,-249.8981 1115.7565,-249.8981 1112.793,-252.5847 1113.3386,-247.231 1109.8296,-255.2713 1109.8296,-255.2713"/>
<ellipse fill="none" stroke="#000000" cx="1107.4588" cy="-257.4206" rx="3.2" ry="3.2"/>
</g>
<!-- act_cmmn_ru_sentry_part_inst&#45;&gt;act_cmmn_ru_plan_item_inst -->
<g id="edge9" class="edge">
<title>act_cmmn_ru_sentry_part_inst:w&#45;&gt;act_cmmn_ru_plan_item_inst:e</title>
<path fill="none" stroke="#000000" d="M1015.1576,-215.3578C1009.1212,-215.3578 1003.0869,-215.3578 997.1014,-215.3578"/>
<polygon fill="#000000" stroke="#000000" points="1021.6762,-215.3579 1029.6762,-218.9578 1025.6762,-215.3578 1029.6762,-215.3578 1029.6762,-215.3578 1029.6762,-215.3578 1025.6762,-215.3578 1029.6761,-211.7578 1021.6762,-215.3579 1021.6762,-215.3579"/>
<ellipse fill="none" stroke="#000000" cx="1018.4762" cy="-215.3579" rx="3.2" ry="3.2"/>
</g>
</g>
</svg>
