<?xml version="1.0" encoding="UTF-8" standalone="no"?>
<!DOCTYPE svg PUBLIC "-//W3C//DTD SVG 1.1//EN"
 "http://www.w3.org/Graphics/SVG/1.1/DTD/svg11.dtd">
<!-- Generated by graphviz version 2.40.1 (20161225.0304)
 -->
<!-- Title: twoDegreesRelationshipsDiagram Pages: 1 -->
<svg width="878pt" height="1517pt"
 viewBox="0.00 0.00 878.00 1516.63" xmlns="http://www.w3.org/2000/svg" xmlns:xlink="http://www.w3.org/1999/xlink">
<g id="graph0" class="graph" transform="scale(1 1) rotate(0) translate(4 1512.6347)">
<title>twoDegreesRelationshipsDiagram</title>
<polygon fill="#ffffff" stroke="transparent" points="-4,4 -4,-1512.6347 874,-1512.6347 874,4 -4,4"/>
<text text-anchor="middle" x="72.4936" y="-7.3" font-family="Helvetica,sans-Serif" font-size="11.00" fill="#000000">Generated by SchemaSpy</text>
<!-- act_procdef_info -->
<g id="node1" class="node">
<title>act_procdef_info</title>
<g id="a_node1"><a xlink:href="../../tables/act_procdef_info.html" xlink:title="act_procdef_info" target="_top">
<polygon fill="#ffffff" stroke="transparent" points="190,-491.6347 190,-552.6347 333,-552.6347 333,-491.6347 190,-491.6347"/>
<polygon fill="#f5f5f5" stroke="transparent" points="190.5,-529.1347 190.5,-552.1347 333.5,-552.1347 333.5,-529.1347 190.5,-529.1347"/>
<polygon fill="none" stroke="#000000" points="190.5,-529.1347 190.5,-552.1347 333.5,-552.1347 333.5,-529.1347 190.5,-529.1347"/>
<text text-anchor="start" x="195.5" y="-537.7347" font-family="Helvetica,sans-Serif" font-weight="bold" font-size="11.00" fill="#000000">act_procdef_info</text>
<text text-anchor="start" x="299.0219" y="-537.2347" font-family="Helvetica,sans-Serif" font-size="11.00" fill="#000000">[table]</text>
<polygon fill="none" stroke="#000000" points="190.5,-510.1347 190.5,-529.1347 333.5,-529.1347 333.5,-510.1347 190.5,-510.1347"/>
<text text-anchor="start" x="193.5" y="-516.2347" font-family="Helvetica,sans-Serif" font-size="11.00" fill="#000000">...</text>
<polygon fill="#ffffff" stroke="transparent" points="190.5,-491.1347 190.5,-510.1347 333.5,-510.1347 333.5,-491.1347 190.5,-491.1347"/>
<polygon fill="none" stroke="#000000" points="190.5,-491.1347 190.5,-510.1347 333.5,-510.1347 333.5,-491.1347 190.5,-491.1347"/>
<polygon fill="#ffffff" stroke="transparent" points="191.5,-492.1347 191.5,-509.1347 244.5,-509.1347 244.5,-492.1347 191.5,-492.1347"/>
<text text-anchor="start" x="193.5" y="-497.2347" font-family="Helvetica,sans-Serif" font-size="11.00" fill="#000000">&lt; 2</text>
<polygon fill="#ffffff" stroke="transparent" points="244.5,-492.1347 244.5,-509.1347 288.5,-509.1347 288.5,-492.1347 244.5,-492.1347"/>
<text text-anchor="start" x="263.4431" y="-497.2347" font-family="Helvetica,sans-Serif" font-size="11.00" fill="#000000"> &#160;</text>
<polygon fill="#ffffff" stroke="transparent" points="288.5,-492.1347 288.5,-509.1347 332.5,-509.1347 332.5,-492.1347 288.5,-492.1347"/>
<text text-anchor="start" x="324.3862" y="-497.2347" font-family="Helvetica,sans-Serif" font-size="11.00" fill="#000000"> &#160;</text>
<polygon fill="#000000" stroke="#000000" points="244.5,-492.1347 244.5,-509.1347 244.5,-509.1347 244.5,-492.1347 244.5,-492.1347"/>
<polygon fill="#000000" stroke="#000000" points="288.5,-492.1347 288.5,-509.1347 288.5,-509.1347 288.5,-492.1347 288.5,-492.1347"/>
</a>
</g>
</g>
<!-- act_re_procdef -->
<g id="node2" class="node">
<title>act_re_procdef</title>
<g id="a_node2"><a xlink:href="../../tables/act_re_procdef.html" xlink:title="act_re_procdef" target="_top">
<polygon fill="#ffffff" stroke="transparent" points="8,-333.6347 8,-394.6347 140,-394.6347 140,-333.6347 8,-333.6347"/>
<polygon fill="#f5f5f5" stroke="transparent" points="8,-371.1347 8,-394.1347 140,-394.1347 140,-371.1347 8,-371.1347"/>
<polygon fill="none" stroke="#000000" points="8,-371.1347 8,-394.1347 140,-394.1347 140,-371.1347 8,-371.1347"/>
<text text-anchor="start" x="13" y="-379.7347" font-family="Helvetica,sans-Serif" font-weight="bold" font-size="11.00" fill="#000000">act_re_procdef</text>
<text text-anchor="start" x="105.5219" y="-379.2347" font-family="Helvetica,sans-Serif" font-size="11.00" fill="#000000">[table]</text>
<polygon fill="none" stroke="#000000" points="8,-352.1347 8,-371.1347 140,-371.1347 140,-352.1347 8,-352.1347"/>
<text text-anchor="start" x="11" y="-358.2347" font-family="Helvetica,sans-Serif" font-size="11.00" fill="#000000">...</text>
<polygon fill="#ffffff" stroke="transparent" points="8,-333.1347 8,-352.1347 140,-352.1347 140,-333.1347 8,-333.1347"/>
<polygon fill="none" stroke="#000000" points="8,-333.1347 8,-352.1347 140,-352.1347 140,-333.1347 8,-333.1347"/>
<polygon fill="#ffffff" stroke="transparent" points="9,-334.1347 9,-351.1347 50,-351.1347 50,-334.1347 9,-334.1347"/>
<text text-anchor="start" x="11" y="-339.2347" font-family="Helvetica,sans-Serif" font-size="11.00" fill="#000000"> &#160;</text>
<polygon fill="#ffffff" stroke="transparent" points="50,-334.1347 50,-351.1347 90,-351.1347 90,-334.1347 50,-334.1347"/>
<text text-anchor="start" x="66.9431" y="-339.2347" font-family="Helvetica,sans-Serif" font-size="11.00" fill="#000000"> &#160;</text>
<polygon fill="#ffffff" stroke="transparent" points="90,-334.1347 90,-351.1347 139,-351.1347 139,-334.1347 90,-334.1347"/>
<text text-anchor="start" x="121.4053" y="-339.2347" font-family="Helvetica,sans-Serif" font-size="11.00" fill="#000000">8 &gt;</text>
<polygon fill="#000000" stroke="#000000" points="50,-334.1347 50,-351.1347 50,-351.1347 50,-334.1347 50,-334.1347"/>
<polygon fill="#000000" stroke="#000000" points="90,-334.1347 90,-351.1347 90,-351.1347 90,-334.1347 90,-334.1347"/>
</a>
</g>
</g>
<!-- act_procdef_info&#45;&gt;act_re_procdef -->
<g id="edge1" class="edge">
<title>act_procdef_info:w&#45;&gt;act_re_procdef:e</title>
<path fill="none" stroke="#000000" d="M179.94,-518.3381C126.8311,-510.2169 96.9666,-441.8519 83.2896,-398.9197"/>
<polygon fill="#000000" stroke="#000000" points="190.0032,-515.0858 189.4014,-523.0632 187.8059,-522.9428 188.4077,-514.9655 190.0032,-515.0858"/>
<polyline fill="none" stroke="#000000" points="190.5,-519.1347 186.5113,-518.8338 "/>
<ellipse fill="none" stroke="#000000" cx="183.3204" cy="-518.593" rx="3.2" ry="3.2"/>
</g>
<!-- act_ru_deadletter_job -->
<g id="node3" class="node">
<title>act_ru_deadletter_job</title>
<g id="a_node3"><a xlink:href="../../tables/act_ru_deadletter_job.html" xlink:title="act_ru_deadletter_job" target="_top">
<polygon fill="#ffffff" stroke="transparent" points="434.5,-1443.6347 434.5,-1504.6347 608.5,-1504.6347 608.5,-1443.6347 434.5,-1443.6347"/>
<polygon fill="#f5f5f5" stroke="transparent" points="434.5,-1481.1347 434.5,-1504.1347 608.5,-1504.1347 608.5,-1481.1347 434.5,-1481.1347"/>
<polygon fill="none" stroke="#000000" points="434.5,-1481.1347 434.5,-1504.1347 608.5,-1504.1347 608.5,-1481.1347 434.5,-1481.1347"/>
<text text-anchor="start" x="439.5" y="-1489.7347" font-family="Helvetica,sans-Serif" font-weight="bold" font-size="11.00" fill="#000000">act_ru_deadletter_job</text>
<text text-anchor="start" x="574.0219" y="-1489.2347" font-family="Helvetica,sans-Serif" font-size="11.00" fill="#000000">[table]</text>
<polygon fill="none" stroke="#000000" points="434.5,-1462.1347 434.5,-1481.1347 608.5,-1481.1347 608.5,-1462.1347 434.5,-1462.1347"/>
<text text-anchor="start" x="437.5" y="-1468.2347" font-family="Helvetica,sans-Serif" font-size="11.00" fill="#000000">...</text>
<polygon fill="#ffffff" stroke="transparent" points="434.5,-1443.1347 434.5,-1462.1347 608.5,-1462.1347 608.5,-1443.1347 434.5,-1443.1347"/>
<polygon fill="none" stroke="#000000" points="434.5,-1443.1347 434.5,-1462.1347 608.5,-1462.1347 608.5,-1443.1347 434.5,-1443.1347"/>
<polygon fill="#ffffff" stroke="transparent" points="435.5,-1444.1347 435.5,-1461.1347 499.5,-1461.1347 499.5,-1444.1347 435.5,-1444.1347"/>
<text text-anchor="start" x="437.5" y="-1449.2347" font-family="Helvetica,sans-Serif" font-size="11.00" fill="#000000">&lt; 5</text>
<polygon fill="#ffffff" stroke="transparent" points="499.5,-1444.1347 499.5,-1461.1347 553.5,-1461.1347 553.5,-1444.1347 499.5,-1444.1347"/>
<text text-anchor="start" x="523.4431" y="-1449.2347" font-family="Helvetica,sans-Serif" font-size="11.00" fill="#000000"> &#160;</text>
<polygon fill="#ffffff" stroke="transparent" points="553.5,-1444.1347 553.5,-1461.1347 607.5,-1461.1347 607.5,-1444.1347 553.5,-1444.1347"/>
<text text-anchor="start" x="599.3862" y="-1449.2347" font-family="Helvetica,sans-Serif" font-size="11.00" fill="#000000"> &#160;</text>
<polygon fill="#000000" stroke="#000000" points="499.5,-1444.1347 499.5,-1461.1347 499.5,-1461.1347 499.5,-1444.1347 499.5,-1444.1347"/>
<polygon fill="#000000" stroke="#000000" points="553.5,-1444.1347 553.5,-1461.1347 553.5,-1461.1347 553.5,-1444.1347 553.5,-1444.1347"/>
</a>
</g>
</g>
<!-- act_ru_deadletter_job&#45;&gt;act_re_procdef -->
<g id="edge3" class="edge">
<title>act_ru_deadletter_job:w&#45;&gt;act_re_procdef:e</title>
<path fill="none" stroke="#000000" d="M419.877,-1470.153C398.7131,-1466.9527 387.8783,-1455.7032 375,-1433.1347 322.5434,-1341.2071 411.04,-561.3585 342,-481.1347 294.5211,-425.9647 247.0561,-481.7053 181,-451.1347 153.6228,-438.4646 127.2745,-417.191 107.5743,-398.8523"/>
<polygon fill="#000000" stroke="#000000" points="426.518,-1470.5988 434.2588,-1474.7266 430.509,-1470.8667 434.5,-1471.1347 434.5,-1471.1347 434.5,-1471.1347 430.509,-1470.8667 434.7412,-1467.5428 426.518,-1470.5988 426.518,-1470.5988"/>
<ellipse fill="none" stroke="#000000" cx="423.3252" cy="-1470.3844" rx="3.2" ry="3.2"/>
</g>
<!-- act_ru_execution -->
<g id="node4" class="node">
<title>act_ru_execution</title>
<g id="a_node4"><a xlink:href="../../tables/act_ru_execution.html" xlink:title="act_ru_execution" target="_top">
<polygon fill="#ffffff" stroke="transparent" points="189,-354.6347 189,-415.6347 334,-415.6347 334,-354.6347 189,-354.6347"/>
<polygon fill="#f5f5f5" stroke="transparent" points="189.5,-392.1347 189.5,-415.1347 334.5,-415.1347 334.5,-392.1347 189.5,-392.1347"/>
<polygon fill="none" stroke="#000000" points="189.5,-392.1347 189.5,-415.1347 334.5,-415.1347 334.5,-392.1347 189.5,-392.1347"/>
<text text-anchor="start" x="194.5" y="-400.7347" font-family="Helvetica,sans-Serif" font-weight="bold" font-size="11.00" fill="#000000">act_ru_execution</text>
<text text-anchor="start" x="300.0219" y="-400.2347" font-family="Helvetica,sans-Serif" font-size="11.00" fill="#000000">[table]</text>
<polygon fill="none" stroke="#000000" points="189.5,-373.1347 189.5,-392.1347 334.5,-392.1347 334.5,-373.1347 189.5,-373.1347"/>
<text text-anchor="start" x="192.5" y="-379.2347" font-family="Helvetica,sans-Serif" font-size="11.00" fill="#000000">...</text>
<polygon fill="#ffffff" stroke="transparent" points="189.5,-354.1347 189.5,-373.1347 334.5,-373.1347 334.5,-354.1347 189.5,-354.1347"/>
<polygon fill="none" stroke="#000000" points="189.5,-354.1347 189.5,-373.1347 334.5,-373.1347 334.5,-354.1347 189.5,-354.1347"/>
<polygon fill="#ffffff" stroke="transparent" points="190.5,-355.1347 190.5,-372.1347 239.5,-372.1347 239.5,-355.1347 190.5,-355.1347"/>
<text text-anchor="start" x="192.5" y="-360.2347" font-family="Helvetica,sans-Serif" font-size="11.00" fill="#000000">&lt; 4</text>
<polygon fill="#ffffff" stroke="transparent" points="239.5,-355.1347 239.5,-372.1347 279.5,-372.1347 279.5,-355.1347 239.5,-355.1347"/>
<text text-anchor="start" x="256.4431" y="-360.2347" font-family="Helvetica,sans-Serif" font-size="11.00" fill="#000000"> &#160;</text>
<polygon fill="#ffffff" stroke="transparent" points="279.5,-355.1347 279.5,-372.1347 333.5,-372.1347 333.5,-355.1347 279.5,-355.1347"/>
<text text-anchor="start" x="309.7904" y="-360.2347" font-family="Helvetica,sans-Serif" font-size="11.00" fill="#000000">17 &gt;</text>
<polygon fill="#000000" stroke="#000000" points="239.5,-355.1347 239.5,-372.1347 239.5,-372.1347 239.5,-355.1347 239.5,-355.1347"/>
<polygon fill="#000000" stroke="#000000" points="279.5,-355.1347 279.5,-372.1347 279.5,-372.1347 279.5,-355.1347 279.5,-355.1347"/>
</a>
</g>
</g>
<!-- act_ru_deadletter_job&#45;&gt;act_ru_execution -->
<g id="edge2" class="edge">
<title>act_ru_deadletter_job:w&#45;&gt;act_ru_execution:e</title>
<path fill="none" stroke="#000000" d="M420.478,-1467.7467C398.9142,-1461.1657 387.9901,-1449.9217 375,-1427.1347 321.2626,-1332.8694 387.9655,-549.4241 342,-451.1347 336.5988,-439.5851 328.3871,-429.0912 319.2392,-420.0194"/>
<polygon fill="#000000" stroke="#000000" points="426.7238,-1469.2558 433.6545,-1474.634 430.6119,-1470.1952 434.5,-1471.1347 434.5,-1471.1347 434.5,-1471.1347 430.6119,-1470.1952 435.3455,-1467.6354 426.7238,-1469.2558 426.7238,-1469.2558"/>
<ellipse fill="none" stroke="#000000" cx="423.6133" cy="-1468.5042" rx="3.2" ry="3.2"/>
</g>
<!-- act_ru_deadletter_job&#45;&gt;act_ru_execution -->
<g id="edge4" class="edge">
<title>act_ru_deadletter_job:w&#45;&gt;act_ru_execution:e</title>
<path fill="none" stroke="#000000" d="M420.1764,-1473.1662C398.812,-1474.0604 387.9294,-1462.8152 375,-1440.1347 321.2626,-1345.8694 387.9655,-562.4241 342,-464.1347 333.8982,-446.8103 319.4729,-431.8611 305.0494,-419.7019"/>
<polygon fill="#000000" stroke="#000000" points="426.5793,-1472.2581 435.0056,-1474.699 430.5396,-1471.6964 434.5,-1471.1347 434.5,-1471.1347 434.5,-1471.1347 430.5396,-1471.6964 433.9944,-1467.5703 426.5793,-1472.2581 426.5793,-1472.2581"/>
<ellipse fill="none" stroke="#000000" cx="423.411" cy="-1472.7075" rx="3.2" ry="3.2"/>
</g>
<!-- act_ru_execution&#45;&gt;act_re_procdef -->
<g id="edge6" class="edge">
<title>act_ru_execution:w&#45;&gt;act_re_procdef:e</title>
<path fill="none" stroke="#000000" d="M166.4765,-374.492C160.2811,-373.7982 154.0931,-373.1051 148.0208,-372.425"/>
<polygon fill="#000000" stroke="#000000" points="172.9447,-375.2164 180.4943,-379.6845 176.9198,-375.6617 180.895,-376.1069 180.895,-376.1069 180.895,-376.1069 176.9198,-375.6617 181.2957,-372.5293 172.9447,-375.2164 172.9447,-375.2164"/>
<ellipse fill="none" stroke="#000000" cx="169.7646" cy="-374.8602" rx="3.2" ry="3.2"/>
</g>
<!-- act_ru_event_subscr -->
<g id="node5" class="node">
<title>act_ru_event_subscr</title>
<g id="a_node5"><a xlink:href="../../tables/act_ru_event_subscr.html" xlink:title="act_ru_event_subscr" target="_top">
<polygon fill="#ffffff" stroke="transparent" points="437,-370.6347 437,-431.6347 606,-431.6347 606,-370.6347 437,-370.6347"/>
<polygon fill="#f5f5f5" stroke="transparent" points="437.5,-408.1347 437.5,-431.1347 606.5,-431.1347 606.5,-408.1347 437.5,-408.1347"/>
<polygon fill="none" stroke="#000000" points="437.5,-408.1347 437.5,-431.1347 606.5,-431.1347 606.5,-408.1347 437.5,-408.1347"/>
<text text-anchor="start" x="442.5" y="-416.7347" font-family="Helvetica,sans-Serif" font-weight="bold" font-size="11.00" fill="#000000">act_ru_event_subscr</text>
<text text-anchor="start" x="572.0219" y="-416.2347" font-family="Helvetica,sans-Serif" font-size="11.00" fill="#000000">[table]</text>
<polygon fill="none" stroke="#000000" points="437.5,-389.1347 437.5,-408.1347 606.5,-408.1347 606.5,-389.1347 437.5,-389.1347"/>
<text text-anchor="start" x="440.5" y="-395.2347" font-family="Helvetica,sans-Serif" font-size="11.00" fill="#000000">...</text>
<polygon fill="#ffffff" stroke="transparent" points="437.5,-370.1347 437.5,-389.1347 606.5,-389.1347 606.5,-370.1347 437.5,-370.1347"/>
<polygon fill="none" stroke="#000000" points="437.5,-370.1347 437.5,-389.1347 606.5,-389.1347 606.5,-370.1347 437.5,-370.1347"/>
<polygon fill="#ffffff" stroke="transparent" points="438.5,-371.1347 438.5,-388.1347 500.5,-388.1347 500.5,-371.1347 438.5,-371.1347"/>
<text text-anchor="start" x="440.5" y="-376.2347" font-family="Helvetica,sans-Serif" font-size="11.00" fill="#000000">&lt; 1</text>
<polygon fill="#ffffff" stroke="transparent" points="500.5,-371.1347 500.5,-388.1347 553.5,-388.1347 553.5,-371.1347 500.5,-371.1347"/>
<text text-anchor="start" x="523.9431" y="-376.2347" font-family="Helvetica,sans-Serif" font-size="11.00" fill="#000000"> &#160;</text>
<polygon fill="#ffffff" stroke="transparent" points="553.5,-371.1347 553.5,-388.1347 605.5,-388.1347 605.5,-371.1347 553.5,-371.1347"/>
<text text-anchor="start" x="597.3862" y="-376.2347" font-family="Helvetica,sans-Serif" font-size="11.00" fill="#000000"> &#160;</text>
<polygon fill="#000000" stroke="#000000" points="500.5,-371.1347 500.5,-388.1347 500.5,-388.1347 500.5,-371.1347 500.5,-371.1347"/>
<polygon fill="#000000" stroke="#000000" points="553.5,-371.1347 553.5,-388.1347 553.5,-388.1347 553.5,-371.1347 553.5,-371.1347"/>
</a>
</g>
</g>
<!-- act_ru_event_subscr&#45;&gt;act_ru_execution -->
<g id="edge5" class="edge">
<title>act_ru_event_subscr:w&#45;&gt;act_ru_execution:e</title>
<path fill="none" stroke="#000000" d="M423.0317,-397.9968C395.902,-397.4961 367.3982,-395.6926 342.016,-393.5879"/>
<polygon fill="#000000" stroke="#000000" points="429.5004,-398.0584 437.4657,-401.7345 433.5002,-398.0965 437.5,-398.1347 437.5,-398.1347 437.5,-398.1347 433.5002,-398.0965 437.5343,-394.5348 429.5004,-398.0584 429.5004,-398.0584"/>
<ellipse fill="none" stroke="#000000" cx="426.3005" cy="-398.0279" rx="3.2" ry="3.2"/>
</g>
<!-- act_ru_identitylink -->
<g id="node6" class="node">
<title>act_ru_identitylink</title>
<g id="a_node6"><a xlink:href="../../tables/act_ru_identitylink.html" xlink:title="act_ru_identitylink" target="_top">
<polygon fill="#ffffff" stroke="transparent" points="709,-507.6347 709,-568.6347 862,-568.6347 862,-507.6347 709,-507.6347"/>
<polygon fill="#f5f5f5" stroke="transparent" points="709.5,-545.1347 709.5,-568.1347 862.5,-568.1347 862.5,-545.1347 709.5,-545.1347"/>
<polygon fill="none" stroke="#000000" points="709.5,-545.1347 709.5,-568.1347 862.5,-568.1347 862.5,-545.1347 709.5,-545.1347"/>
<text text-anchor="start" x="714.5" y="-553.7347" font-family="Helvetica,sans-Serif" font-weight="bold" font-size="11.00" fill="#000000">act_ru_identitylink</text>
<text text-anchor="start" x="828.0219" y="-553.2347" font-family="Helvetica,sans-Serif" font-size="11.00" fill="#000000">[table]</text>
<polygon fill="none" stroke="#000000" points="709.5,-526.1347 709.5,-545.1347 862.5,-545.1347 862.5,-526.1347 709.5,-526.1347"/>
<text text-anchor="start" x="712.5" y="-532.2347" font-family="Helvetica,sans-Serif" font-size="11.00" fill="#000000">...</text>
<polygon fill="#ffffff" stroke="transparent" points="709.5,-507.1347 709.5,-526.1347 862.5,-526.1347 862.5,-507.1347 709.5,-507.1347"/>
<polygon fill="none" stroke="#000000" points="709.5,-507.1347 709.5,-526.1347 862.5,-526.1347 862.5,-507.1347 709.5,-507.1347"/>
<polygon fill="#ffffff" stroke="transparent" points="710.5,-508.1347 710.5,-525.1347 767.5,-525.1347 767.5,-508.1347 710.5,-508.1347"/>
<text text-anchor="start" x="712.5" y="-513.2347" font-family="Helvetica,sans-Serif" font-size="11.00" fill="#000000">&lt; 3</text>
<polygon fill="#ffffff" stroke="transparent" points="767.5,-508.1347 767.5,-525.1347 814.5,-525.1347 814.5,-508.1347 767.5,-508.1347"/>
<text text-anchor="start" x="787.9431" y="-513.2347" font-family="Helvetica,sans-Serif" font-size="11.00" fill="#000000"> &#160;</text>
<polygon fill="#ffffff" stroke="transparent" points="814.5,-508.1347 814.5,-525.1347 861.5,-525.1347 861.5,-508.1347 814.5,-508.1347"/>
<text text-anchor="start" x="853.3862" y="-513.2347" font-family="Helvetica,sans-Serif" font-size="11.00" fill="#000000"> &#160;</text>
<polygon fill="#000000" stroke="#000000" points="767.5,-508.1347 767.5,-525.1347 767.5,-525.1347 767.5,-508.1347 767.5,-508.1347"/>
<polygon fill="#000000" stroke="#000000" points="814.5,-508.1347 814.5,-525.1347 814.5,-525.1347 814.5,-508.1347 814.5,-508.1347"/>
</a>
</g>
</g>
<!-- act_ru_identitylink&#45;&gt;act_re_procdef -->
<g id="edge7" class="edge">
<title>act_ru_identitylink:w&#45;&gt;act_re_procdef:e</title>
<path fill="none" stroke="#000000" d="M779.3174,-489.0935C765.4009,-387.5272 728.0601,-159.8143 668,-114.1347 495.0204,17.4277 353.034,-25.3381 181,-158.1347 124.6935,-201.5988 95.1664,-283.0512 82.2575,-329.4491"/>
<polygon fill="#000000" stroke="#000000" points="780.1744,-495.4827 777.67,-503.8903 780.7062,-499.4472 781.238,-503.4117 781.238,-503.4117 781.238,-503.4117 780.7062,-499.4472 784.8061,-502.933 780.1744,-495.4827 780.1744,-495.4827"/>
<ellipse fill="none" stroke="#000000" cx="779.7489" cy="-492.3111" rx="3.2" ry="3.2"/>
</g>
<!-- act_ru_identitylink&#45;&gt;act_ru_execution -->
<g id="edge8" class="edge">
<title>act_ru_identitylink:w&#45;&gt;act_ru_execution:e</title>
<path fill="none" stroke="#000000" d="M686.0076,-540.5299C572.5257,-542.3644 399.4299,-542.0832 375,-524.1347 339.3176,-497.919 370.5021,-464.0187 342,-430.1347 338.908,-426.4589 335.4352,-423.0266 331.7133,-419.8312"/>
<polygon fill="#000000" stroke="#000000" points="692.5704,-540.4163 700.6315,-543.8772 696.5698,-540.347 700.5692,-540.2777 700.5692,-540.2777 700.5692,-540.2777 696.5698,-540.347 700.5068,-536.6783 692.5704,-540.4163 692.5704,-540.4163"/>
<ellipse fill="none" stroke="#000000" cx="689.3709" cy="-540.4717" rx="3.2" ry="3.2"/>
</g>
<!-- act_ru_task -->
<g id="node7" class="node">
<title>act_ru_task</title>
<g id="a_node7"><a xlink:href="../../tables/act_ru_task.html" xlink:title="act_ru_task" target="_top">
<polygon fill="#ffffff" stroke="transparent" points="383,-562.1347 383,-1422.1347 660,-1422.1347 660,-562.1347 383,-562.1347"/>
<polygon fill="#f5f5f5" stroke="transparent" points="385.5,-1397.1347 385.5,-1420.1347 658.5,-1420.1347 658.5,-1397.1347 385.5,-1397.1347"/>
<polygon fill="none" stroke="#000000" points="385.5,-1397.1347 385.5,-1420.1347 658.5,-1420.1347 658.5,-1397.1347 385.5,-1397.1347"/>
<text text-anchor="start" x="390.5" y="-1405.7347" font-family="Helvetica,sans-Serif" font-weight="bold" font-size="11.00" fill="#000000">act_ru_task</text>
<text text-anchor="start" x="623.5437" y="-1405.2347" font-family="Helvetica,sans-Serif" font-size="11.00" fill="#000000">[table]</text>
<polygon fill="none" stroke="#000000" points="385.5,-1375.1347 385.5,-1397.1347 574.5,-1397.1347 574.5,-1375.1347 385.5,-1375.1347"/>
<image xlink:href="../../images/primaryKeys.png" width="11px" height="12px" preserveAspectRatio="xMinYMin meet" x="390.5" y="-1392.13"/>
<text text-anchor="start" x="405.5" y="-1382.2347" font-family="Helvetica,sans-Serif" font-size="11.00" fill="#000000">id_</text>
<polygon fill="none" stroke="#000000" points="574.5,-1375.1347 574.5,-1397.1347 658.5,-1397.1347 658.5,-1375.1347 574.5,-1375.1347"/>
<text text-anchor="start" x="577.5" y="-1382.8347" font-family="Helvetica,sans-Serif" font-size="11.00" fill="#000000">varchar[64]</text>
<polygon fill="none" stroke="#000000" points="385.5,-1353.1347 385.5,-1375.1347 574.5,-1375.1347 574.5,-1353.1347 385.5,-1353.1347"/>
<text text-anchor="start" x="405.5" y="-1360.2347" font-family="Helvetica,sans-Serif" font-size="11.00" fill="#000000">rev_</text>
<polygon fill="none" stroke="#000000" points="574.5,-1353.1347 574.5,-1375.1347 658.5,-1375.1347 658.5,-1353.1347 574.5,-1353.1347"/>
<text text-anchor="start" x="577.5" y="-1360.8347" font-family="Helvetica,sans-Serif" font-size="11.00" fill="#000000">int4[10]</text>
<polygon fill="#ffffff" stroke="transparent" points="385.5,-1331.1347 385.5,-1353.1347 574.5,-1353.1347 574.5,-1331.1347 385.5,-1331.1347"/>
<polygon fill="none" stroke="#000000" points="385.5,-1331.1347 385.5,-1353.1347 574.5,-1353.1347 574.5,-1331.1347 385.5,-1331.1347"/>
<image xlink:href="../../images/foreignKeys.png" width="11px" height="12px" preserveAspectRatio="xMinYMin meet" x="390.5" y="-1348.13"/>
<text text-anchor="start" x="405.5" y="-1338.2347" font-family="Helvetica,sans-Serif" font-size="11.00" fill="#000000">execution_id_</text>
<polygon fill="none" stroke="#000000" points="574.5,-1331.1347 574.5,-1353.1347 658.5,-1353.1347 658.5,-1331.1347 574.5,-1331.1347"/>
<text text-anchor="start" x="577.5" y="-1338.8347" font-family="Helvetica,sans-Serif" font-size="11.00" fill="#000000">varchar[64]</text>
<polygon fill="#ffffff" stroke="transparent" points="385.5,-1309.1347 385.5,-1331.1347 574.5,-1331.1347 574.5,-1309.1347 385.5,-1309.1347"/>
<polygon fill="none" stroke="#000000" points="385.5,-1309.1347 385.5,-1331.1347 574.5,-1331.1347 574.5,-1309.1347 385.5,-1309.1347"/>
<image xlink:href="../../images/foreignKeys.png" width="11px" height="12px" preserveAspectRatio="xMinYMin meet" x="390.5" y="-1326.13"/>
<text text-anchor="start" x="405.5" y="-1316.2347" font-family="Helvetica,sans-Serif" font-size="11.00" fill="#000000">proc_inst_id_</text>
<polygon fill="none" stroke="#000000" points="574.5,-1309.1347 574.5,-1331.1347 658.5,-1331.1347 658.5,-1309.1347 574.5,-1309.1347"/>
<text text-anchor="start" x="577.5" y="-1316.8347" font-family="Helvetica,sans-Serif" font-size="11.00" fill="#000000">varchar[64]</text>
<polygon fill="#ffffff" stroke="transparent" points="385.5,-1287.1347 385.5,-1309.1347 574.5,-1309.1347 574.5,-1287.1347 385.5,-1287.1347"/>
<polygon fill="none" stroke="#000000" points="385.5,-1287.1347 385.5,-1309.1347 574.5,-1309.1347 574.5,-1287.1347 385.5,-1287.1347"/>
<image xlink:href="../../images/foreignKeys.png" width="11px" height="12px" preserveAspectRatio="xMinYMin meet" x="390.5" y="-1304.13"/>
<text text-anchor="start" x="405.5" y="-1294.2347" font-family="Helvetica,sans-Serif" font-size="11.00" fill="#000000">proc_def_id_</text>
<polygon fill="none" stroke="#000000" points="574.5,-1287.1347 574.5,-1309.1347 658.5,-1309.1347 658.5,-1287.1347 574.5,-1287.1347"/>
<text text-anchor="start" x="577.5" y="-1294.8347" font-family="Helvetica,sans-Serif" font-size="11.00" fill="#000000">varchar[64]</text>
<polygon fill="none" stroke="#000000" points="385.5,-1265.1347 385.5,-1287.1347 574.5,-1287.1347 574.5,-1265.1347 385.5,-1265.1347"/>
<text text-anchor="start" x="405.5" y="-1272.2347" font-family="Helvetica,sans-Serif" font-size="11.00" fill="#000000">task_def_id_</text>
<polygon fill="none" stroke="#000000" points="574.5,-1265.1347 574.5,-1287.1347 658.5,-1287.1347 658.5,-1265.1347 574.5,-1265.1347"/>
<text text-anchor="start" x="577.5" y="-1272.8347" font-family="Helvetica,sans-Serif" font-size="11.00" fill="#000000">varchar[64]</text>
<polygon fill="#ffffff" stroke="transparent" points="385.5,-1243.1347 385.5,-1265.1347 574.5,-1265.1347 574.5,-1243.1347 385.5,-1243.1347"/>
<polygon fill="none" stroke="#000000" points="385.5,-1243.1347 385.5,-1265.1347 574.5,-1265.1347 574.5,-1243.1347 385.5,-1243.1347"/>
<text text-anchor="start" x="405.5" y="-1250.2347" font-family="Helvetica,sans-Serif" font-size="11.00" fill="#000000">scope_id_</text>
<polygon fill="none" stroke="#000000" points="574.5,-1243.1347 574.5,-1265.1347 658.5,-1265.1347 658.5,-1243.1347 574.5,-1243.1347"/>
<text text-anchor="start" x="577.5" y="-1250.8347" font-family="Helvetica,sans-Serif" font-size="11.00" fill="#000000">varchar[255]</text>
<polygon fill="#ffffff" stroke="transparent" points="385.5,-1221.1347 385.5,-1243.1347 574.5,-1243.1347 574.5,-1221.1347 385.5,-1221.1347"/>
<polygon fill="none" stroke="#000000" points="385.5,-1221.1347 385.5,-1243.1347 574.5,-1243.1347 574.5,-1221.1347 385.5,-1221.1347"/>
<text text-anchor="start" x="405.5" y="-1228.2347" font-family="Helvetica,sans-Serif" font-size="11.00" fill="#000000">sub_scope_id_</text>
<polygon fill="none" stroke="#000000" points="574.5,-1221.1347 574.5,-1243.1347 658.5,-1243.1347 658.5,-1221.1347 574.5,-1221.1347"/>
<text text-anchor="start" x="577.5" y="-1228.8347" font-family="Helvetica,sans-Serif" font-size="11.00" fill="#000000">varchar[255]</text>
<polygon fill="#ffffff" stroke="transparent" points="385.5,-1199.1347 385.5,-1221.1347 574.5,-1221.1347 574.5,-1199.1347 385.5,-1199.1347"/>
<polygon fill="none" stroke="#000000" points="385.5,-1199.1347 385.5,-1221.1347 574.5,-1221.1347 574.5,-1199.1347 385.5,-1199.1347"/>
<text text-anchor="start" x="405.5" y="-1206.2347" font-family="Helvetica,sans-Serif" font-size="11.00" fill="#000000">scope_type_</text>
<polygon fill="none" stroke="#000000" points="574.5,-1199.1347 574.5,-1221.1347 658.5,-1221.1347 658.5,-1199.1347 574.5,-1199.1347"/>
<text text-anchor="start" x="577.5" y="-1206.8347" font-family="Helvetica,sans-Serif" font-size="11.00" fill="#000000">varchar[255]</text>
<polygon fill="#ffffff" stroke="transparent" points="385.5,-1177.1347 385.5,-1199.1347 574.5,-1199.1347 574.5,-1177.1347 385.5,-1177.1347"/>
<polygon fill="none" stroke="#000000" points="385.5,-1177.1347 385.5,-1199.1347 574.5,-1199.1347 574.5,-1177.1347 385.5,-1177.1347"/>
<text text-anchor="start" x="405.5" y="-1184.2347" font-family="Helvetica,sans-Serif" font-size="11.00" fill="#000000">scope_definition_id_</text>
<polygon fill="none" stroke="#000000" points="574.5,-1177.1347 574.5,-1199.1347 658.5,-1199.1347 658.5,-1177.1347 574.5,-1177.1347"/>
<text text-anchor="start" x="577.5" y="-1184.8347" font-family="Helvetica,sans-Serif" font-size="11.00" fill="#000000">varchar[255]</text>
<polygon fill="none" stroke="#000000" points="385.5,-1155.1347 385.5,-1177.1347 574.5,-1177.1347 574.5,-1155.1347 385.5,-1155.1347"/>
<text text-anchor="start" x="405.5" y="-1162.2347" font-family="Helvetica,sans-Serif" font-size="11.00" fill="#000000">propagated_stage_inst_id_</text>
<polygon fill="none" stroke="#000000" points="574.5,-1155.1347 574.5,-1177.1347 658.5,-1177.1347 658.5,-1155.1347 574.5,-1155.1347"/>
<text text-anchor="start" x="577.5" y="-1162.8347" font-family="Helvetica,sans-Serif" font-size="11.00" fill="#000000">varchar[255]</text>
<polygon fill="none" stroke="#000000" points="385.5,-1133.1347 385.5,-1155.1347 574.5,-1155.1347 574.5,-1133.1347 385.5,-1133.1347"/>
<text text-anchor="start" x="405.5" y="-1140.2347" font-family="Helvetica,sans-Serif" font-size="11.00" fill="#000000">state_</text>
<polygon fill="none" stroke="#000000" points="574.5,-1133.1347 574.5,-1155.1347 658.5,-1155.1347 658.5,-1133.1347 574.5,-1133.1347"/>
<text text-anchor="start" x="577.5" y="-1140.8347" font-family="Helvetica,sans-Serif" font-size="11.00" fill="#000000">varchar[255]</text>
<polygon fill="none" stroke="#000000" points="385.5,-1111.1347 385.5,-1133.1347 574.5,-1133.1347 574.5,-1111.1347 385.5,-1111.1347"/>
<text text-anchor="start" x="405.5" y="-1118.2347" font-family="Helvetica,sans-Serif" font-size="11.00" fill="#000000">name_</text>
<polygon fill="none" stroke="#000000" points="574.5,-1111.1347 574.5,-1133.1347 658.5,-1133.1347 658.5,-1111.1347 574.5,-1111.1347"/>
<text text-anchor="start" x="577.5" y="-1118.8347" font-family="Helvetica,sans-Serif" font-size="11.00" fill="#000000">varchar[255]</text>
<polygon fill="none" stroke="#000000" points="385.5,-1089.1347 385.5,-1111.1347 574.5,-1111.1347 574.5,-1089.1347 385.5,-1089.1347"/>
<text text-anchor="start" x="405.5" y="-1096.2347" font-family="Helvetica,sans-Serif" font-size="11.00" fill="#000000">parent_task_id_</text>
<polygon fill="none" stroke="#000000" points="574.5,-1089.1347 574.5,-1111.1347 658.5,-1111.1347 658.5,-1089.1347 574.5,-1089.1347"/>
<text text-anchor="start" x="577.5" y="-1096.8347" font-family="Helvetica,sans-Serif" font-size="11.00" fill="#000000">varchar[64]</text>
<polygon fill="none" stroke="#000000" points="385.5,-1067.1347 385.5,-1089.1347 574.5,-1089.1347 574.5,-1067.1347 385.5,-1067.1347"/>
<text text-anchor="start" x="405.5" y="-1074.2347" font-family="Helvetica,sans-Serif" font-size="11.00" fill="#000000">description_</text>
<polygon fill="none" stroke="#000000" points="574.5,-1067.1347 574.5,-1089.1347 658.5,-1089.1347 658.5,-1067.1347 574.5,-1067.1347"/>
<text text-anchor="start" x="577.5" y="-1074.8347" font-family="Helvetica,sans-Serif" font-size="11.00" fill="#000000">varchar[4000]</text>
<polygon fill="none" stroke="#000000" points="385.5,-1045.1347 385.5,-1067.1347 574.5,-1067.1347 574.5,-1045.1347 385.5,-1045.1347"/>
<text text-anchor="start" x="405.5" y="-1052.2347" font-family="Helvetica,sans-Serif" font-size="11.00" fill="#000000">task_def_key_</text>
<polygon fill="none" stroke="#000000" points="574.5,-1045.1347 574.5,-1067.1347 658.5,-1067.1347 658.5,-1045.1347 574.5,-1045.1347"/>
<text text-anchor="start" x="577.5" y="-1052.8347" font-family="Helvetica,sans-Serif" font-size="11.00" fill="#000000">varchar[255]</text>
<polygon fill="none" stroke="#000000" points="385.5,-1023.1347 385.5,-1045.1347 574.5,-1045.1347 574.5,-1023.1347 385.5,-1023.1347"/>
<text text-anchor="start" x="405.5" y="-1030.2347" font-family="Helvetica,sans-Serif" font-size="11.00" fill="#000000">owner_</text>
<polygon fill="none" stroke="#000000" points="574.5,-1023.1347 574.5,-1045.1347 658.5,-1045.1347 658.5,-1023.1347 574.5,-1023.1347"/>
<text text-anchor="start" x="577.5" y="-1030.8347" font-family="Helvetica,sans-Serif" font-size="11.00" fill="#000000">varchar[255]</text>
<polygon fill="none" stroke="#000000" points="385.5,-1001.1347 385.5,-1023.1347 574.5,-1023.1347 574.5,-1001.1347 385.5,-1001.1347"/>
<text text-anchor="start" x="405.5" y="-1008.2347" font-family="Helvetica,sans-Serif" font-size="11.00" fill="#000000">assignee_</text>
<polygon fill="none" stroke="#000000" points="574.5,-1001.1347 574.5,-1023.1347 658.5,-1023.1347 658.5,-1001.1347 574.5,-1001.1347"/>
<text text-anchor="start" x="577.5" y="-1008.8347" font-family="Helvetica,sans-Serif" font-size="11.00" fill="#000000">varchar[255]</text>
<polygon fill="none" stroke="#000000" points="385.5,-979.1347 385.5,-1001.1347 574.5,-1001.1347 574.5,-979.1347 385.5,-979.1347"/>
<text text-anchor="start" x="405.5" y="-986.2347" font-family="Helvetica,sans-Serif" font-size="11.00" fill="#000000">delegation_</text>
<polygon fill="none" stroke="#000000" points="574.5,-979.1347 574.5,-1001.1347 658.5,-1001.1347 658.5,-979.1347 574.5,-979.1347"/>
<text text-anchor="start" x="577.5" y="-986.8347" font-family="Helvetica,sans-Serif" font-size="11.00" fill="#000000">varchar[64]</text>
<polygon fill="none" stroke="#000000" points="385.5,-957.1347 385.5,-979.1347 574.5,-979.1347 574.5,-957.1347 385.5,-957.1347"/>
<text text-anchor="start" x="405.5" y="-964.2347" font-family="Helvetica,sans-Serif" font-size="11.00" fill="#000000">priority_</text>
<polygon fill="none" stroke="#000000" points="574.5,-957.1347 574.5,-979.1347 658.5,-979.1347 658.5,-957.1347 574.5,-957.1347"/>
<text text-anchor="start" x="577.5" y="-964.8347" font-family="Helvetica,sans-Serif" font-size="11.00" fill="#000000">int4[10]</text>
<polygon fill="#ffffff" stroke="transparent" points="385.5,-935.1347 385.5,-957.1347 574.5,-957.1347 574.5,-935.1347 385.5,-935.1347"/>
<polygon fill="none" stroke="#000000" points="385.5,-935.1347 385.5,-957.1347 574.5,-957.1347 574.5,-935.1347 385.5,-935.1347"/>
<text text-anchor="start" x="405.5" y="-942.2347" font-family="Helvetica,sans-Serif" font-size="11.00" fill="#000000">create_time_</text>
<polygon fill="none" stroke="#000000" points="574.5,-935.1347 574.5,-957.1347 658.5,-957.1347 658.5,-935.1347 574.5,-935.1347"/>
<text text-anchor="start" x="577.3807" y="-942.8347" font-family="Helvetica,sans-Serif" font-size="11.00" fill="#000000">timestamp[29,6]</text>
<polygon fill="none" stroke="#000000" points="385.5,-913.1347 385.5,-935.1347 574.5,-935.1347 574.5,-913.1347 385.5,-913.1347"/>
<text text-anchor="start" x="405.5" y="-920.2347" font-family="Helvetica,sans-Serif" font-size="11.00" fill="#000000">in_progress_time_</text>
<polygon fill="none" stroke="#000000" points="574.5,-913.1347 574.5,-935.1347 658.5,-935.1347 658.5,-913.1347 574.5,-913.1347"/>
<text text-anchor="start" x="577.3807" y="-920.8347" font-family="Helvetica,sans-Serif" font-size="11.00" fill="#000000">timestamp[29,6]</text>
<polygon fill="none" stroke="#000000" points="385.5,-891.1347 385.5,-913.1347 574.5,-913.1347 574.5,-891.1347 385.5,-891.1347"/>
<text text-anchor="start" x="405.5" y="-898.2347" font-family="Helvetica,sans-Serif" font-size="11.00" fill="#000000">in_progress_started_by_</text>
<polygon fill="none" stroke="#000000" points="574.5,-891.1347 574.5,-913.1347 658.5,-913.1347 658.5,-891.1347 574.5,-891.1347"/>
<text text-anchor="start" x="577.5" y="-898.8347" font-family="Helvetica,sans-Serif" font-size="11.00" fill="#000000">varchar[255]</text>
<polygon fill="none" stroke="#000000" points="385.5,-869.1347 385.5,-891.1347 574.5,-891.1347 574.5,-869.1347 385.5,-869.1347"/>
<text text-anchor="start" x="405.5" y="-876.2347" font-family="Helvetica,sans-Serif" font-size="11.00" fill="#000000">claim_time_</text>
<polygon fill="none" stroke="#000000" points="574.5,-869.1347 574.5,-891.1347 658.5,-891.1347 658.5,-869.1347 574.5,-869.1347"/>
<text text-anchor="start" x="577.3807" y="-876.8347" font-family="Helvetica,sans-Serif" font-size="11.00" fill="#000000">timestamp[29,6]</text>
<polygon fill="none" stroke="#000000" points="385.5,-847.1347 385.5,-869.1347 574.5,-869.1347 574.5,-847.1347 385.5,-847.1347"/>
<text text-anchor="start" x="405.5" y="-854.2347" font-family="Helvetica,sans-Serif" font-size="11.00" fill="#000000">claimed_by_</text>
<polygon fill="none" stroke="#000000" points="574.5,-847.1347 574.5,-869.1347 658.5,-869.1347 658.5,-847.1347 574.5,-847.1347"/>
<text text-anchor="start" x="577.5" y="-854.8347" font-family="Helvetica,sans-Serif" font-size="11.00" fill="#000000">varchar[255]</text>
<polygon fill="none" stroke="#000000" points="385.5,-825.1347 385.5,-847.1347 574.5,-847.1347 574.5,-825.1347 385.5,-825.1347"/>
<text text-anchor="start" x="405.5" y="-832.2347" font-family="Helvetica,sans-Serif" font-size="11.00" fill="#000000">suspended_time_</text>
<polygon fill="none" stroke="#000000" points="574.5,-825.1347 574.5,-847.1347 658.5,-847.1347 658.5,-825.1347 574.5,-825.1347"/>
<text text-anchor="start" x="577.3807" y="-832.8347" font-family="Helvetica,sans-Serif" font-size="11.00" fill="#000000">timestamp[29,6]</text>
<polygon fill="none" stroke="#000000" points="385.5,-803.1347 385.5,-825.1347 574.5,-825.1347 574.5,-803.1347 385.5,-803.1347"/>
<text text-anchor="start" x="405.5" y="-810.2347" font-family="Helvetica,sans-Serif" font-size="11.00" fill="#000000">suspended_by_</text>
<polygon fill="none" stroke="#000000" points="574.5,-803.1347 574.5,-825.1347 658.5,-825.1347 658.5,-803.1347 574.5,-803.1347"/>
<text text-anchor="start" x="577.5" y="-810.8347" font-family="Helvetica,sans-Serif" font-size="11.00" fill="#000000">varchar[255]</text>
<polygon fill="none" stroke="#000000" points="385.5,-781.1347 385.5,-803.1347 574.5,-803.1347 574.5,-781.1347 385.5,-781.1347"/>
<text text-anchor="start" x="405.5" y="-788.2347" font-family="Helvetica,sans-Serif" font-size="11.00" fill="#000000">in_progress_due_date_</text>
<polygon fill="none" stroke="#000000" points="574.5,-781.1347 574.5,-803.1347 658.5,-803.1347 658.5,-781.1347 574.5,-781.1347"/>
<text text-anchor="start" x="577.3807" y="-788.8347" font-family="Helvetica,sans-Serif" font-size="11.00" fill="#000000">timestamp[29,6]</text>
<polygon fill="none" stroke="#000000" points="385.5,-759.1347 385.5,-781.1347 574.5,-781.1347 574.5,-759.1347 385.5,-759.1347"/>
<text text-anchor="start" x="405.5" y="-766.2347" font-family="Helvetica,sans-Serif" font-size="11.00" fill="#000000">due_date_</text>
<polygon fill="none" stroke="#000000" points="574.5,-759.1347 574.5,-781.1347 658.5,-781.1347 658.5,-759.1347 574.5,-759.1347"/>
<text text-anchor="start" x="577.3807" y="-766.8347" font-family="Helvetica,sans-Serif" font-size="11.00" fill="#000000">timestamp[29,6]</text>
<polygon fill="none" stroke="#000000" points="385.5,-737.1347 385.5,-759.1347 574.5,-759.1347 574.5,-737.1347 385.5,-737.1347"/>
<text text-anchor="start" x="405.5" y="-744.2347" font-family="Helvetica,sans-Serif" font-size="11.00" fill="#000000">category_</text>
<polygon fill="none" stroke="#000000" points="574.5,-737.1347 574.5,-759.1347 658.5,-759.1347 658.5,-737.1347 574.5,-737.1347"/>
<text text-anchor="start" x="577.5" y="-744.8347" font-family="Helvetica,sans-Serif" font-size="11.00" fill="#000000">varchar[255]</text>
<polygon fill="none" stroke="#000000" points="385.5,-715.1347 385.5,-737.1347 574.5,-737.1347 574.5,-715.1347 385.5,-715.1347"/>
<text text-anchor="start" x="405.5" y="-722.2347" font-family="Helvetica,sans-Serif" font-size="11.00" fill="#000000">suspension_state_</text>
<polygon fill="none" stroke="#000000" points="574.5,-715.1347 574.5,-737.1347 658.5,-737.1347 658.5,-715.1347 574.5,-715.1347"/>
<text text-anchor="start" x="577.5" y="-722.8347" font-family="Helvetica,sans-Serif" font-size="11.00" fill="#000000">int4[10]</text>
<polygon fill="none" stroke="#000000" points="385.5,-693.1347 385.5,-715.1347 574.5,-715.1347 574.5,-693.1347 385.5,-693.1347"/>
<text text-anchor="start" x="405.5" y="-700.2347" font-family="Helvetica,sans-Serif" font-size="11.00" fill="#000000">tenant_id_</text>
<polygon fill="none" stroke="#000000" points="574.5,-693.1347 574.5,-715.1347 658.5,-715.1347 658.5,-693.1347 574.5,-693.1347"/>
<text text-anchor="start" x="577.5" y="-700.8347" font-family="Helvetica,sans-Serif" font-size="11.00" fill="#000000">varchar[255]</text>
<polygon fill="none" stroke="#000000" points="385.5,-671.1347 385.5,-693.1347 574.5,-693.1347 574.5,-671.1347 385.5,-671.1347"/>
<text text-anchor="start" x="405.5" y="-678.2347" font-family="Helvetica,sans-Serif" font-size="11.00" fill="#000000">form_key_</text>
<polygon fill="none" stroke="#000000" points="574.5,-671.1347 574.5,-693.1347 658.5,-693.1347 658.5,-671.1347 574.5,-671.1347"/>
<text text-anchor="start" x="577.5" y="-678.8347" font-family="Helvetica,sans-Serif" font-size="11.00" fill="#000000">varchar[255]</text>
<polygon fill="none" stroke="#000000" points="385.5,-649.1347 385.5,-671.1347 574.5,-671.1347 574.5,-649.1347 385.5,-649.1347"/>
<text text-anchor="start" x="405.5" y="-656.2347" font-family="Helvetica,sans-Serif" font-size="11.00" fill="#000000">is_count_enabled_</text>
<polygon fill="none" stroke="#000000" points="574.5,-649.1347 574.5,-671.1347 658.5,-671.1347 658.5,-649.1347 574.5,-649.1347"/>
<text text-anchor="start" x="577.5" y="-656.8347" font-family="Helvetica,sans-Serif" font-size="11.00" fill="#000000">bool[1]</text>
<polygon fill="none" stroke="#000000" points="385.5,-627.1347 385.5,-649.1347 574.5,-649.1347 574.5,-627.1347 385.5,-627.1347"/>
<text text-anchor="start" x="405.5" y="-634.2347" font-family="Helvetica,sans-Serif" font-size="11.00" fill="#000000">var_count_</text>
<polygon fill="none" stroke="#000000" points="574.5,-627.1347 574.5,-649.1347 658.5,-649.1347 658.5,-627.1347 574.5,-627.1347"/>
<text text-anchor="start" x="577.5" y="-634.8347" font-family="Helvetica,sans-Serif" font-size="11.00" fill="#000000">int4[10]</text>
<polygon fill="none" stroke="#000000" points="385.5,-605.1347 385.5,-627.1347 574.5,-627.1347 574.5,-605.1347 385.5,-605.1347"/>
<text text-anchor="start" x="405.5" y="-612.2347" font-family="Helvetica,sans-Serif" font-size="11.00" fill="#000000">id_link_count_</text>
<polygon fill="none" stroke="#000000" points="574.5,-605.1347 574.5,-627.1347 658.5,-627.1347 658.5,-605.1347 574.5,-605.1347"/>
<text text-anchor="start" x="577.5" y="-612.8347" font-family="Helvetica,sans-Serif" font-size="11.00" fill="#000000">int4[10]</text>
<polygon fill="none" stroke="#000000" points="385.5,-583.1347 385.5,-605.1347 574.5,-605.1347 574.5,-583.1347 385.5,-583.1347"/>
<text text-anchor="start" x="405.5" y="-590.2347" font-family="Helvetica,sans-Serif" font-size="11.00" fill="#000000">sub_task_count_</text>
<polygon fill="none" stroke="#000000" points="574.5,-583.1347 574.5,-605.1347 658.5,-605.1347 658.5,-583.1347 574.5,-583.1347"/>
<text text-anchor="start" x="577.5" y="-590.8347" font-family="Helvetica,sans-Serif" font-size="11.00" fill="#000000">int4[10]</text>
<polygon fill="#ffffff" stroke="transparent" points="385.5,-564.1347 385.5,-583.1347 658.5,-583.1347 658.5,-564.1347 385.5,-564.1347"/>
<polygon fill="none" stroke="#000000" points="385.5,-564.1347 385.5,-583.1347 658.5,-583.1347 658.5,-564.1347 385.5,-564.1347"/>
<polygon fill="#ffffff" stroke="transparent" points="386.5,-565.1347 386.5,-582.1347 480.5,-582.1347 480.5,-565.1347 386.5,-565.1347"/>
<text text-anchor="start" x="388.5" y="-570.2347" font-family="Helvetica,sans-Serif" font-size="11.00" fill="#000000">&lt; 3</text>
<polygon fill="#ffffff" stroke="transparent" points="480.5,-565.1347 480.5,-582.1347 564.5,-582.1347 564.5,-565.1347 480.5,-565.1347"/>
<text text-anchor="start" x="519.4431" y="-570.2347" font-family="Helvetica,sans-Serif" font-size="11.00" fill="#000000"> &#160;</text>
<polygon fill="#ffffff" stroke="transparent" points="564.5,-565.1347 564.5,-582.1347 657.5,-582.1347 657.5,-565.1347 564.5,-565.1347"/>
<text text-anchor="start" x="639.9053" y="-570.2347" font-family="Helvetica,sans-Serif" font-size="11.00" fill="#000000">1 &gt;</text>
<polygon fill="#000000" stroke="#000000" points="480.5,-565.1347 480.5,-582.1347 480.5,-582.1347 480.5,-565.1347 480.5,-565.1347"/>
<polygon fill="#000000" stroke="#000000" points="564.5,-565.1347 564.5,-582.1347 564.5,-582.1347 564.5,-565.1347 564.5,-565.1347"/>
<polygon fill="none" stroke="#000000" stroke-width="2" points="384,-563.1347 384,-1421.1347 659,-1421.1347 659,-563.1347 384,-563.1347"/>
</a>
</g>
</g>
<!-- act_ru_identitylink&#45;&gt;act_ru_task -->
<g id="edge9" class="edge">
<title>act_ru_identitylink:w&#45;&gt;act_ru_task:e</title>
<path fill="none" stroke="#000000" d="M783.3712,-587.1035C774.8787,-767.7184 739.8603,-1386.1347 658.5,-1386.1347"/>
<polygon fill="#000000" stroke="#000000" points="783.6672,-580.6839 787.632,-572.8583 783.8515,-576.6882 784.0358,-572.6924 784.0358,-572.6924 784.0358,-572.6924 783.8515,-576.6882 780.4397,-572.5266 783.6672,-580.6839 783.6672,-580.6839"/>
<ellipse fill="none" stroke="#000000" cx="783.5198" cy="-583.8805" rx="3.2" ry="3.2"/>
</g>
<!-- act_ru_task&#45;&gt;act_re_procdef -->
<g id="edge17" class="edge">
<title>act_ru_task:w&#45;&gt;act_re_procdef:e</title>
<path fill="none" stroke="#000000" d="M372.3524,-1291.9229C303.209,-1218.8261 400.1861,-523.9968 342,-457.1347 294.1632,-402.165 249.2578,-451.6474 181,-426.1347 162.0959,-419.0689 142.6481,-408.8328 125.6045,-398.7072"/>
<polygon fill="#000000" stroke="#000000" points="378.2667,-1294.7172 383.9621,-1301.3897 381.8833,-1296.4259 385.5,-1298.1347 385.5,-1298.1347 385.5,-1298.1347 381.8833,-1296.4259 387.0379,-1294.8797 378.2667,-1294.7172 378.2667,-1294.7172"/>
<ellipse fill="none" stroke="#000000" cx="375.3734" cy="-1293.3502" rx="3.2" ry="3.2"/>
</g>
<!-- act_ru_task&#45;&gt;act_ru_execution -->
<g id="edge16" class="edge">
<title>act_ru_task:w&#45;&gt;act_ru_execution:e</title>
<path fill="none" stroke="#000000" d="M376.3548,-1330.8179C339.0725,-1228.7898 366.9021,-470.3562 342,-430.1347 339.7244,-426.4591 337.0333,-423.0583 334.0397,-419.9152"/>
<polygon fill="#000000" stroke="#000000" points="380.4717,-1335.9124 382.7,-1344.3974 382.9858,-1339.0235 385.5,-1342.1347 385.5,-1342.1347 385.5,-1342.1347 382.9858,-1339.0235 388.3,-1339.8719 380.4717,-1335.9124 380.4717,-1335.9124"/>
<ellipse fill="none" stroke="#000000" cx="378.4604" cy="-1333.4235" rx="3.2" ry="3.2"/>
</g>
<!-- act_ru_task&#45;&gt;act_ru_execution -->
<g id="edge18" class="edge">
<title>act_ru_task:w&#45;&gt;act_ru_execution:e</title>
<path fill="none" stroke="#000000" d="M376.4471,-1308.7759C340.1116,-1207.9731 366.3004,-469.3328 342,-430.1347 339.7222,-426.4604 337.0294,-423.0607 334.0345,-419.9184"/>
<polygon fill="#000000" stroke="#000000" points="380.5139,-1313.8786 382.6847,-1322.3784 383.0069,-1317.0066 385.5,-1320.1347 385.5,-1320.1347 385.5,-1320.1347 383.0069,-1317.0066 388.3153,-1317.8909 380.5139,-1313.8786 380.5139,-1313.8786"/>
<ellipse fill="none" stroke="#000000" cx="378.5194" cy="-1311.3761" rx="3.2" ry="3.2"/>
</g>
<!-- act_ru_job -->
<g id="node8" class="node">
<title>act_ru_job</title>
<g id="a_node8"><a xlink:href="../../tables/act_ru_job.html" xlink:title="act_ru_job" target="_top">
<polygon fill="#ffffff" stroke="transparent" points="469.5,-288.6347 469.5,-349.6347 573.5,-349.6347 573.5,-288.6347 469.5,-288.6347"/>
<polygon fill="#f5f5f5" stroke="transparent" points="469.5,-326.1347 469.5,-349.1347 573.5,-349.1347 573.5,-326.1347 469.5,-326.1347"/>
<polygon fill="none" stroke="#000000" points="469.5,-326.1347 469.5,-349.1347 573.5,-349.1347 573.5,-326.1347 469.5,-326.1347"/>
<text text-anchor="start" x="474.5" y="-334.7347" font-family="Helvetica,sans-Serif" font-weight="bold" font-size="11.00" fill="#000000">act_ru_job</text>
<text text-anchor="start" x="539.0219" y="-334.2347" font-family="Helvetica,sans-Serif" font-size="11.00" fill="#000000">[table]</text>
<polygon fill="none" stroke="#000000" points="469.5,-307.1347 469.5,-326.1347 573.5,-326.1347 573.5,-307.1347 469.5,-307.1347"/>
<text text-anchor="start" x="472.5" y="-313.2347" font-family="Helvetica,sans-Serif" font-size="11.00" fill="#000000">...</text>
<polygon fill="#ffffff" stroke="transparent" points="469.5,-288.1347 469.5,-307.1347 573.5,-307.1347 573.5,-288.1347 469.5,-288.1347"/>
<polygon fill="none" stroke="#000000" points="469.5,-288.1347 469.5,-307.1347 573.5,-307.1347 573.5,-288.1347 469.5,-288.1347"/>
<polygon fill="#ffffff" stroke="transparent" points="470.5,-289.1347 470.5,-306.1347 510.5,-306.1347 510.5,-289.1347 470.5,-289.1347"/>
<text text-anchor="start" x="472.5" y="-294.2347" font-family="Helvetica,sans-Serif" font-size="11.00" fill="#000000">&lt; 5</text>
<polygon fill="#ffffff" stroke="transparent" points="510.5,-289.1347 510.5,-306.1347 541.5,-306.1347 541.5,-289.1347 510.5,-289.1347"/>
<text text-anchor="start" x="522.9431" y="-294.2347" font-family="Helvetica,sans-Serif" font-size="11.00" fill="#000000"> &#160;</text>
<polygon fill="#ffffff" stroke="transparent" points="541.5,-289.1347 541.5,-306.1347 572.5,-306.1347 572.5,-289.1347 541.5,-289.1347"/>
<text text-anchor="start" x="564.3862" y="-294.2347" font-family="Helvetica,sans-Serif" font-size="11.00" fill="#000000"> &#160;</text>
<polygon fill="#000000" stroke="#000000" points="510.5,-289.1347 510.5,-306.1347 510.5,-306.1347 510.5,-289.1347 510.5,-289.1347"/>
<polygon fill="#000000" stroke="#000000" points="541.5,-289.1347 541.5,-306.1347 541.5,-306.1347 541.5,-289.1347 541.5,-289.1347"/>
</a>
</g>
</g>
<!-- act_ru_job&#45;&gt;act_re_procdef -->
<g id="edge11" class="edge">
<title>act_ru_job:w&#45;&gt;act_re_procdef:e</title>
<path fill="none" stroke="#000000" d="M454.8793,-316.2405C345.7207,-317.7972 223.8418,-336.2019 148.0261,-349.7331"/>
<polygon fill="#000000" stroke="#000000" points="461.5002,-316.1926 469.5261,-319.7346 465.5001,-316.1637 469.5,-316.1347 469.5,-316.1347 469.5,-316.1347 465.5001,-316.1637 469.4739,-312.5348 461.5002,-316.1926 461.5002,-316.1926"/>
<ellipse fill="none" stroke="#000000" cx="458.3003" cy="-316.2158" rx="3.2" ry="3.2"/>
</g>
<!-- act_ru_job&#45;&gt;act_ru_execution -->
<g id="edge10" class="edge">
<title>act_ru_job:w&#45;&gt;act_ru_execution:e</title>
<path fill="none" stroke="#000000" d="M454.8531,-315.7794C406.3261,-316.3384 356.089,-333.4628 318.9878,-350.6042"/>
<polygon fill="#000000" stroke="#000000" points="461.5024,-315.9406 469.4127,-319.7336 465.5012,-316.0376 469.5,-316.1347 469.5,-316.1347 469.5,-316.1347 465.5012,-316.0376 469.5873,-312.5357 461.5024,-315.9406 461.5024,-315.9406"/>
<ellipse fill="none" stroke="#000000" cx="458.3033" cy="-315.863" rx="3.2" ry="3.2"/>
</g>
<!-- act_ru_job&#45;&gt;act_ru_execution -->
<g id="edge12" class="edge">
<title>act_ru_job:w&#45;&gt;act_ru_execution:e</title>
<path fill="none" stroke="#000000" d="M455.0626,-317.5991C415.6954,-322.704 375.1885,-336.6477 341.4704,-350.5927"/>
<polygon fill="#000000" stroke="#000000" points="461.5408,-316.9421 469.8633,-319.7163 465.5204,-316.5384 469.5,-316.1347 469.5,-316.1347 469.5,-316.1347 465.5204,-316.5384 469.1367,-312.5531 461.5408,-316.9421 461.5408,-316.9421"/>
<ellipse fill="none" stroke="#000000" cx="458.3572" cy="-317.265" rx="3.2" ry="3.2"/>
</g>
<!-- act_ru_suspended_job -->
<g id="node9" class="node">
<title>act_ru_suspended_job</title>
<g id="a_node9"><a xlink:href="../../tables/act_ru_suspended_job.html" xlink:title="act_ru_suspended_job" target="_top">
<polygon fill="#ffffff" stroke="transparent" points="431.5,-206.6347 431.5,-267.6347 611.5,-267.6347 611.5,-206.6347 431.5,-206.6347"/>
<polygon fill="#f5f5f5" stroke="transparent" points="431.5,-244.1347 431.5,-267.1347 611.5,-267.1347 611.5,-244.1347 431.5,-244.1347"/>
<polygon fill="none" stroke="#000000" points="431.5,-244.1347 431.5,-267.1347 611.5,-267.1347 611.5,-244.1347 431.5,-244.1347"/>
<text text-anchor="start" x="436.5" y="-252.7347" font-family="Helvetica,sans-Serif" font-weight="bold" font-size="11.00" fill="#000000">act_ru_suspended_job</text>
<text text-anchor="start" x="577.0219" y="-252.2347" font-family="Helvetica,sans-Serif" font-size="11.00" fill="#000000">[table]</text>
<polygon fill="none" stroke="#000000" points="431.5,-225.1347 431.5,-244.1347 611.5,-244.1347 611.5,-225.1347 431.5,-225.1347"/>
<text text-anchor="start" x="434.5" y="-231.2347" font-family="Helvetica,sans-Serif" font-size="11.00" fill="#000000">...</text>
<polygon fill="#ffffff" stroke="transparent" points="431.5,-206.1347 431.5,-225.1347 611.5,-225.1347 611.5,-206.1347 431.5,-206.1347"/>
<polygon fill="none" stroke="#000000" points="431.5,-206.1347 431.5,-225.1347 611.5,-225.1347 611.5,-206.1347 431.5,-206.1347"/>
<polygon fill="#ffffff" stroke="transparent" points="432.5,-207.1347 432.5,-224.1347 498.5,-224.1347 498.5,-207.1347 432.5,-207.1347"/>
<text text-anchor="start" x="434.5" y="-212.2347" font-family="Helvetica,sans-Serif" font-size="11.00" fill="#000000">&lt; 5</text>
<polygon fill="#ffffff" stroke="transparent" points="498.5,-207.1347 498.5,-224.1347 554.5,-224.1347 554.5,-207.1347 498.5,-207.1347"/>
<text text-anchor="start" x="523.4431" y="-212.2347" font-family="Helvetica,sans-Serif" font-size="11.00" fill="#000000"> &#160;</text>
<polygon fill="#ffffff" stroke="transparent" points="554.5,-207.1347 554.5,-224.1347 610.5,-224.1347 610.5,-207.1347 554.5,-207.1347"/>
<text text-anchor="start" x="602.3862" y="-212.2347" font-family="Helvetica,sans-Serif" font-size="11.00" fill="#000000"> &#160;</text>
<polygon fill="#000000" stroke="#000000" points="498.5,-207.1347 498.5,-224.1347 498.5,-224.1347 498.5,-207.1347 498.5,-207.1347"/>
<polygon fill="#000000" stroke="#000000" points="554.5,-207.1347 554.5,-224.1347 554.5,-224.1347 554.5,-207.1347 554.5,-207.1347"/>
</a>
</g>
</g>
<!-- act_ru_suspended_job&#45;&gt;act_re_procdef -->
<g id="edge14" class="edge">
<title>act_ru_suspended_job:w&#45;&gt;act_re_procdef:e</title>
<path fill="none" stroke="#000000" d="M417.0492,-234.4435C309.4858,-238.9841 196.5333,-292.612 130.8277,-329.4678"/>
<polygon fill="#000000" stroke="#000000" points="423.5018,-234.3056 431.5769,-237.7339 427.5009,-234.2202 431.5,-234.1347 431.5,-234.1347 431.5,-234.1347 427.5009,-234.2202 431.4231,-230.5355 423.5018,-234.3056 423.5018,-234.3056"/>
<ellipse fill="none" stroke="#000000" cx="420.3026" cy="-234.374" rx="3.2" ry="3.2"/>
</g>
<!-- act_ru_suspended_job&#45;&gt;act_ru_execution -->
<g id="edge13" class="edge">
<title>act_ru_suspended_job:w&#45;&gt;act_ru_execution:e</title>
<path fill="none" stroke="#000000" d="M417.0806,-235.8699C379.0834,-247.5424 320.5974,-310.1092 287.2105,-350.4993"/>
<polygon fill="#000000" stroke="#000000" points="423.5573,-235.0905 431.9301,-237.7089 427.5287,-234.6126 431.5,-234.1347 431.5,-234.1347 431.5,-234.1347 427.5287,-234.6126 431.0699,-230.5605 423.5573,-235.0905 423.5573,-235.0905"/>
<ellipse fill="none" stroke="#000000" cx="420.3802" cy="-235.4729" rx="3.2" ry="3.2"/>
</g>
<!-- act_ru_suspended_job&#45;&gt;act_ru_execution -->
<g id="edge15" class="edge">
<title>act_ru_suspended_job:w&#45;&gt;act_ru_execution:e</title>
<path fill="none" stroke="#000000" d="M417.5554,-238.7029C382.1805,-255.5351 328.7188,-312.733 294.4602,-350.5266"/>
<polygon fill="#000000" stroke="#000000" points="423.8975,-236.6252 432.6208,-237.5558 427.6988,-235.38 431.5,-234.1347 431.5,-234.1347 431.5,-234.1347 427.6988,-235.38 430.3792,-230.7136 423.8975,-236.6252 423.8975,-236.6252"/>
<ellipse fill="none" stroke="#000000" cx="420.8566" cy="-237.6215" rx="3.2" ry="3.2"/>
</g>
<!-- act_ru_timer_job -->
<g id="node10" class="node">
<title>act_ru_timer_job</title>
<g id="a_node10"><a xlink:href="../../tables/act_ru_timer_job.html" xlink:title="act_ru_timer_job" target="_top">
<polygon fill="#ffffff" stroke="transparent" points="450,-124.6347 450,-185.6347 593,-185.6347 593,-124.6347 450,-124.6347"/>
<polygon fill="#f5f5f5" stroke="transparent" points="450.5,-162.1347 450.5,-185.1347 593.5,-185.1347 593.5,-162.1347 450.5,-162.1347"/>
<polygon fill="none" stroke="#000000" points="450.5,-162.1347 450.5,-185.1347 593.5,-185.1347 593.5,-162.1347 450.5,-162.1347"/>
<text text-anchor="start" x="455.5" y="-170.7347" font-family="Helvetica,sans-Serif" font-weight="bold" font-size="11.00" fill="#000000">act_ru_timer_job</text>
<text text-anchor="start" x="559.0219" y="-170.2347" font-family="Helvetica,sans-Serif" font-size="11.00" fill="#000000">[table]</text>
<polygon fill="none" stroke="#000000" points="450.5,-143.1347 450.5,-162.1347 593.5,-162.1347 593.5,-143.1347 450.5,-143.1347"/>
<text text-anchor="start" x="453.5" y="-149.2347" font-family="Helvetica,sans-Serif" font-size="11.00" fill="#000000">...</text>
<polygon fill="#ffffff" stroke="transparent" points="450.5,-124.1347 450.5,-143.1347 593.5,-143.1347 593.5,-124.1347 450.5,-124.1347"/>
<polygon fill="none" stroke="#000000" points="450.5,-124.1347 450.5,-143.1347 593.5,-143.1347 593.5,-124.1347 450.5,-124.1347"/>
<polygon fill="#ffffff" stroke="transparent" points="451.5,-125.1347 451.5,-142.1347 504.5,-142.1347 504.5,-125.1347 451.5,-125.1347"/>
<text text-anchor="start" x="453.5" y="-130.2347" font-family="Helvetica,sans-Serif" font-size="11.00" fill="#000000">&lt; 5</text>
<polygon fill="#ffffff" stroke="transparent" points="504.5,-125.1347 504.5,-142.1347 548.5,-142.1347 548.5,-125.1347 504.5,-125.1347"/>
<text text-anchor="start" x="523.4431" y="-130.2347" font-family="Helvetica,sans-Serif" font-size="11.00" fill="#000000"> &#160;</text>
<polygon fill="#ffffff" stroke="transparent" points="548.5,-125.1347 548.5,-142.1347 592.5,-142.1347 592.5,-125.1347 548.5,-125.1347"/>
<text text-anchor="start" x="584.3862" y="-130.2347" font-family="Helvetica,sans-Serif" font-size="11.00" fill="#000000"> &#160;</text>
<polygon fill="#000000" stroke="#000000" points="504.5,-125.1347 504.5,-142.1347 504.5,-142.1347 504.5,-125.1347 504.5,-125.1347"/>
<polygon fill="#000000" stroke="#000000" points="548.5,-125.1347 548.5,-142.1347 548.5,-142.1347 548.5,-125.1347 548.5,-125.1347"/>
</a>
</g>
</g>
<!-- act_ru_timer_job&#45;&gt;act_re_procdef -->
<g id="edge20" class="edge">
<title>act_ru_timer_job:w&#45;&gt;act_re_procdef:e</title>
<path fill="none" stroke="#000000" d="M436.0962,-152.2285C321.1448,-153.7813 282.0644,-174.9692 181,-242.1347 146.3911,-265.135 116.1424,-302.1319 96.7186,-329.361"/>
<polygon fill="#000000" stroke="#000000" points="442.5002,-152.1868 450.5235,-155.7346 446.5001,-152.1608 450.5,-152.1347 450.5,-152.1347 450.5,-152.1347 446.5001,-152.1608 450.4765,-148.5348 442.5002,-152.1868 442.5002,-152.1868"/>
<ellipse fill="none" stroke="#000000" cx="439.3002" cy="-152.2077" rx="3.2" ry="3.2"/>
</g>
<!-- act_ru_timer_job&#45;&gt;act_ru_execution -->
<g id="edge19" class="edge">
<title>act_ru_timer_job:w&#45;&gt;act_ru_execution:e</title>
<path fill="none" stroke="#000000" d="M436.0848,-152.4208C342.5549,-160.4584 290.2938,-287.5933 270.6388,-350.5189"/>
<polygon fill="#000000" stroke="#000000" points="442.5016,-152.2935 450.5715,-155.734 446.5008,-152.2141 450.5,-152.1347 450.5,-152.1347 450.5,-152.1347 446.5008,-152.2141 450.4285,-148.5354 442.5016,-152.2935 442.5016,-152.2935"/>
<ellipse fill="none" stroke="#000000" cx="439.3022" cy="-152.357" rx="3.2" ry="3.2"/>
</g>
<!-- act_ru_timer_job&#45;&gt;act_ru_execution -->
<g id="edge21" class="edge">
<title>act_ru_timer_job:w&#45;&gt;act_ru_execution:e</title>
<path fill="none" stroke="#000000" d="M436.0493,-153.8104C346.1563,-170.045 294.3926,-289.8497 273.0645,-350.4261"/>
<polygon fill="#000000" stroke="#000000" points="442.5533,-153.0563 450.9147,-155.7107 446.5266,-152.5955 450.5,-152.1347 450.5,-152.1347 450.5,-152.1347 446.5266,-152.5955 450.0853,-148.5586 442.5533,-153.0563 442.5533,-153.0563"/>
<ellipse fill="none" stroke="#000000" cx="439.3746" cy="-153.4249" rx="3.2" ry="3.2"/>
</g>
<!-- act_ru_variable -->
<g id="node11" class="node">
<title>act_ru_variable</title>
<g id="a_node11"><a xlink:href="../../tables/act_ru_variable.html" xlink:title="act_ru_variable" target="_top">
<polygon fill="#ffffff" stroke="transparent" points="454.5,-452.6347 454.5,-513.6347 588.5,-513.6347 588.5,-452.6347 454.5,-452.6347"/>
<polygon fill="#f5f5f5" stroke="transparent" points="454.5,-490.1347 454.5,-513.1347 588.5,-513.1347 588.5,-490.1347 454.5,-490.1347"/>
<polygon fill="none" stroke="#000000" points="454.5,-490.1347 454.5,-513.1347 588.5,-513.1347 588.5,-490.1347 454.5,-490.1347"/>
<text text-anchor="start" x="459.5" y="-498.7347" font-family="Helvetica,sans-Serif" font-weight="bold" font-size="11.00" fill="#000000">act_ru_variable</text>
<text text-anchor="start" x="554.0219" y="-498.2347" font-family="Helvetica,sans-Serif" font-size="11.00" fill="#000000">[table]</text>
<polygon fill="none" stroke="#000000" points="454.5,-471.1347 454.5,-490.1347 588.5,-490.1347 588.5,-471.1347 454.5,-471.1347"/>
<text text-anchor="start" x="457.5" y="-477.2347" font-family="Helvetica,sans-Serif" font-size="11.00" fill="#000000">...</text>
<polygon fill="#ffffff" stroke="transparent" points="454.5,-452.1347 454.5,-471.1347 588.5,-471.1347 588.5,-452.1347 454.5,-452.1347"/>
<polygon fill="none" stroke="#000000" points="454.5,-452.1347 454.5,-471.1347 588.5,-471.1347 588.5,-452.1347 454.5,-452.1347"/>
<polygon fill="#ffffff" stroke="transparent" points="455.5,-453.1347 455.5,-470.1347 505.5,-470.1347 505.5,-453.1347 455.5,-453.1347"/>
<text text-anchor="start" x="457.5" y="-458.2347" font-family="Helvetica,sans-Serif" font-size="11.00" fill="#000000">&lt; 3</text>
<polygon fill="#ffffff" stroke="transparent" points="505.5,-453.1347 505.5,-470.1347 546.5,-470.1347 546.5,-453.1347 505.5,-453.1347"/>
<text text-anchor="start" x="522.9431" y="-458.2347" font-family="Helvetica,sans-Serif" font-size="11.00" fill="#000000"> &#160;</text>
<polygon fill="#ffffff" stroke="transparent" points="546.5,-453.1347 546.5,-470.1347 587.5,-470.1347 587.5,-453.1347 546.5,-453.1347"/>
<text text-anchor="start" x="579.3862" y="-458.2347" font-family="Helvetica,sans-Serif" font-size="11.00" fill="#000000"> &#160;</text>
<polygon fill="#000000" stroke="#000000" points="505.5,-453.1347 505.5,-470.1347 505.5,-470.1347 505.5,-453.1347 505.5,-453.1347"/>
<polygon fill="#000000" stroke="#000000" points="546.5,-453.1347 546.5,-470.1347 546.5,-470.1347 546.5,-453.1347 546.5,-453.1347"/>
</a>
</g>
</g>
<!-- act_ru_variable&#45;&gt;act_ru_execution -->
<g id="edge22" class="edge">
<title>act_ru_variable:w&#45;&gt;act_ru_execution:e</title>
<path fill="none" stroke="#000000" d="M440.8358,-474.7614C417.1743,-464.0806 372.0939,-440.2104 333.0528,-419.7499"/>
<polygon fill="#000000" stroke="#000000" points="447.0549,-477.207 453.1825,-483.485 450.7775,-478.6708 454.5,-480.1347 454.5,-480.1347 454.5,-480.1347 450.7775,-478.6708 455.8175,-476.7844 447.0549,-477.207 447.0549,-477.207"/>
<ellipse fill="none" stroke="#000000" cx="444.0769" cy="-476.0359" rx="3.2" ry="3.2"/>
</g>
<!-- act_ru_variable&#45;&gt;act_ru_execution -->
<g id="edge23" class="edge">
<title>act_ru_variable:w&#45;&gt;act_ru_execution:e</title>
<path fill="none" stroke="#000000" d="M440.1656,-478.5765C412.6769,-471.1018 357.5659,-443.2729 315.7807,-419.8442"/>
<polygon fill="#000000" stroke="#000000" points="446.5469,-479.2701 454.1109,-483.7136 450.5234,-479.7024 454.5,-480.1347 454.5,-480.1347 454.5,-480.1347 450.5234,-479.7024 454.8891,-476.5558 446.5469,-479.2701 446.5469,-479.2701"/>
<ellipse fill="none" stroke="#000000" cx="443.3656" cy="-478.9243" rx="3.2" ry="3.2"/>
</g>
</g>
</svg>
