<?xml version="1.0" encoding="UTF-8" standalone="no"?>
<!DOCTYPE svg PUBLIC "-//W3C//DTD SVG 1.1//EN"
 "http://www.w3.org/Graphics/SVG/1.1/DTD/svg11.dtd">
<!-- Generated by graphviz version 2.40.1 (20161225.0304)
 -->
<!-- Title: twoDegreesRelationshipsDiagram Pages: 1 -->
<svg width="587pt" height="289pt"
 viewBox="0.00 0.00 587.00 288.70" xmlns="http://www.w3.org/2000/svg" xmlns:xlink="http://www.w3.org/1999/xlink">
<g id="graph0" class="graph" transform="scale(1 1) rotate(0) translate(4 284.7)">
<title>twoDegreesRelationshipsDiagram</title>
<polygon fill="#ffffff" stroke="transparent" points="-4,4 -4,-284.7 583,-284.7 583,4 -4,4"/>
<text text-anchor="middle" x="72.4936" y="-7.3" font-family="Helvetica,sans-Serif" font-size="11.00" fill="#000000">Generated by SchemaSpy</text>
<!-- act_cmmn_casedef -->
<g id="node1" class="node">
<title>act_cmmn_casedef</title>
<g id="a_node1"><a xlink:href="../../tables/act_cmmn_casedef.html" xlink:title="act_cmmn_casedef" target="_top">
<polygon fill="#ffffff" stroke="transparent" points="326.5,-215.7 326.5,-276.7 484.5,-276.7 484.5,-215.7 326.5,-215.7"/>
<polygon fill="#f5f5f5" stroke="transparent" points="326.5,-253.2 326.5,-276.2 484.5,-276.2 484.5,-253.2 326.5,-253.2"/>
<polygon fill="none" stroke="#000000" points="326.5,-253.2 326.5,-276.2 484.5,-276.2 484.5,-253.2 326.5,-253.2"/>
<text text-anchor="start" x="331.5" y="-261.8" font-family="Helvetica,sans-Serif" font-weight="bold" font-size="11.00" fill="#000000">act_cmmn_casedef</text>
<text text-anchor="start" x="450.0219" y="-261.3" font-family="Helvetica,sans-Serif" font-size="11.00" fill="#000000">[table]</text>
<polygon fill="none" stroke="#000000" points="326.5,-234.2 326.5,-253.2 484.5,-253.2 484.5,-234.2 326.5,-234.2"/>
<text text-anchor="start" x="329.5" y="-240.3" font-family="Helvetica,sans-Serif" font-size="11.00" fill="#000000">...</text>
<polygon fill="#ffffff" stroke="transparent" points="326.5,-215.2 326.5,-234.2 484.5,-234.2 484.5,-215.2 326.5,-215.2"/>
<polygon fill="none" stroke="#000000" points="326.5,-215.2 326.5,-234.2 484.5,-234.2 484.5,-215.2 326.5,-215.2"/>
<polygon fill="#ffffff" stroke="transparent" points="327.5,-216.2 327.5,-233.2 382.5,-233.2 382.5,-216.2 327.5,-216.2"/>
<text text-anchor="start" x="329.5" y="-221.3" font-family="Helvetica,sans-Serif" font-size="11.00" fill="#000000">&lt; 1</text>
<polygon fill="#ffffff" stroke="transparent" points="382.5,-216.2 382.5,-233.2 428.5,-233.2 428.5,-216.2 382.5,-216.2"/>
<text text-anchor="start" x="402.4431" y="-221.3" font-family="Helvetica,sans-Serif" font-size="11.00" fill="#000000"> &#160;</text>
<polygon fill="#ffffff" stroke="transparent" points="428.5,-216.2 428.5,-233.2 483.5,-233.2 483.5,-216.2 428.5,-216.2"/>
<text text-anchor="start" x="465.9053" y="-221.3" font-family="Helvetica,sans-Serif" font-size="11.00" fill="#000000">4 &gt;</text>
<polygon fill="#000000" stroke="#000000" points="382.5,-216.2 382.5,-233.2 382.5,-233.2 382.5,-216.2 382.5,-216.2"/>
<polygon fill="#000000" stroke="#000000" points="428.5,-216.2 428.5,-233.2 428.5,-233.2 428.5,-216.2 428.5,-216.2"/>
</a>
</g>
</g>
<!-- act_cmmn_deployment -->
<g id="node2" class="node">
<title>act_cmmn_deployment</title>
<g id="a_node2"><a xlink:href="../../tables/act_cmmn_deployment.html" xlink:title="act_cmmn_deployment" target="_top">
<polygon fill="#ffffff" stroke="transparent" points="8,-129.7 8,-212.7 191,-212.7 191,-129.7 8,-129.7"/>
<polygon fill="#f5f5f5" stroke="transparent" points="8.5,-189.2 8.5,-212.2 191.5,-212.2 191.5,-189.2 8.5,-189.2"/>
<polygon fill="none" stroke="#000000" points="8.5,-189.2 8.5,-212.2 191.5,-212.2 191.5,-189.2 8.5,-189.2"/>
<text text-anchor="start" x="13.5" y="-197.8" font-family="Helvetica,sans-Serif" font-weight="bold" font-size="11.00" fill="#000000">act_cmmn_deployment</text>
<text text-anchor="start" x="157.0219" y="-197.3" font-family="Helvetica,sans-Serif" font-size="11.00" fill="#000000">[table]</text>
<polygon fill="none" stroke="#000000" points="8.5,-167.2 8.5,-189.2 191.5,-189.2 191.5,-167.2 8.5,-167.2"/>
<image xlink:href="../../images/primaryKeys.png" width="11px" height="12px" preserveAspectRatio="xMinYMin meet" x="13.5" y="-184.2"/>
<text text-anchor="start" x="37.5" y="-174.3" font-family="Helvetica,sans-Serif" font-size="11.00" fill="#000000">id_</text>
<polygon fill="none" stroke="#000000" points="8.5,-148.2 8.5,-167.2 191.5,-167.2 191.5,-148.2 8.5,-148.2"/>
<text text-anchor="start" x="11.5" y="-154.3" font-family="Helvetica,sans-Serif" font-size="11.00" fill="#000000">...</text>
<polygon fill="#ffffff" stroke="transparent" points="8.5,-129.2 8.5,-148.2 191.5,-148.2 191.5,-129.2 8.5,-129.2"/>
<polygon fill="none" stroke="#000000" points="8.5,-129.2 8.5,-148.2 191.5,-148.2 191.5,-129.2 8.5,-129.2"/>
<polygon fill="#ffffff" stroke="transparent" points="9.5,-130.2 9.5,-147.2 67.5,-147.2 67.5,-130.2 9.5,-130.2"/>
<text text-anchor="start" x="11.5" y="-135.3" font-family="Helvetica,sans-Serif" font-size="11.00" fill="#000000"> &#160;</text>
<polygon fill="#ffffff" stroke="transparent" points="67.5,-130.2 67.5,-147.2 124.5,-147.2 124.5,-130.2 67.5,-130.2"/>
<text text-anchor="start" x="92.9431" y="-135.3" font-family="Helvetica,sans-Serif" font-size="11.00" fill="#000000"> &#160;</text>
<polygon fill="#ffffff" stroke="transparent" points="124.5,-130.2 124.5,-147.2 190.5,-147.2 190.5,-130.2 124.5,-130.2"/>
<text text-anchor="start" x="172.9053" y="-135.3" font-family="Helvetica,sans-Serif" font-size="11.00" fill="#000000">2 &gt;</text>
<polygon fill="#000000" stroke="#000000" points="67.5,-130.2 67.5,-147.2 67.5,-147.2 67.5,-130.2 67.5,-130.2"/>
<polygon fill="#000000" stroke="#000000" points="124.5,-130.2 124.5,-147.2 124.5,-147.2 124.5,-130.2 124.5,-130.2"/>
</a>
</g>
</g>
<!-- act_cmmn_casedef&#45;&gt;act_cmmn_deployment -->
<g id="edge1" class="edge">
<title>act_cmmn_casedef:w&#45;&gt;act_cmmn_deployment:e</title>
<path fill="none" stroke="#000000" d="M311.9641,-242.5246C278.6545,-239.1837 267.3517,-223.8372 232,-205.2 212.8632,-195.1112 213.1333,-178.2 191.5,-178.2"/>
<polygon fill="#000000" stroke="#000000" points="318.5086,-242.8286 326.3329,-246.7961 322.5043,-243.0143 326.5,-243.2 326.5,-243.2 326.5,-243.2 322.5043,-243.0143 326.6671,-239.6039 318.5086,-242.8286 318.5086,-242.8286"/>
<ellipse fill="none" stroke="#000000" cx="315.3121" cy="-242.6801" rx="3.2" ry="3.2"/>
</g>
<!-- act_cmmn_deployment_resource -->
<g id="node3" class="node">
<title>act_cmmn_deployment_resource</title>
<g id="a_node3"><a xlink:href="../../tables/act_cmmn_deployment_resource.html" xlink:title="act_cmmn_deployment_resource" target="_top">
<polygon fill="#ffffff" stroke="transparent" points="240,-38.2 240,-194.2 571,-194.2 571,-38.2 240,-38.2"/>
<polygon fill="#f5f5f5" stroke="transparent" points="242.5,-169.2 242.5,-192.2 569.5,-192.2 569.5,-169.2 242.5,-169.2"/>
<polygon fill="none" stroke="#000000" points="242.5,-169.2 242.5,-192.2 569.5,-192.2 569.5,-169.2 242.5,-169.2"/>
<text text-anchor="start" x="247.5" y="-177.8" font-family="Helvetica,sans-Serif" font-weight="bold" font-size="11.00" fill="#000000">act_cmmn_deployment_resource</text>
<text text-anchor="start" x="534.5437" y="-177.3" font-family="Helvetica,sans-Serif" font-size="11.00" fill="#000000">[table]</text>
<polygon fill="none" stroke="#000000" points="242.5,-147.2 242.5,-169.2 469.5,-169.2 469.5,-147.2 242.5,-147.2"/>
<image xlink:href="../../images/primaryKeys.png" width="11px" height="12px" preserveAspectRatio="xMinYMin meet" x="247.5" y="-164.2"/>
<text text-anchor="start" x="262.5" y="-154.3" font-family="Helvetica,sans-Serif" font-size="11.00" fill="#000000">id_</text>
<polygon fill="none" stroke="#000000" points="469.5,-147.2 469.5,-169.2 569.5,-169.2 569.5,-147.2 469.5,-147.2"/>
<text text-anchor="start" x="472.5" y="-154.9" font-family="Helvetica,sans-Serif" font-size="11.00" fill="#000000">varchar[255]</text>
<polygon fill="none" stroke="#000000" points="242.5,-125.2 242.5,-147.2 469.5,-147.2 469.5,-125.2 242.5,-125.2"/>
<text text-anchor="start" x="262.5" y="-132.3" font-family="Helvetica,sans-Serif" font-size="11.00" fill="#000000">name_</text>
<polygon fill="none" stroke="#000000" points="469.5,-125.2 469.5,-147.2 569.5,-147.2 569.5,-125.2 469.5,-125.2"/>
<text text-anchor="start" x="472.5" y="-132.9" font-family="Helvetica,sans-Serif" font-size="11.00" fill="#000000">varchar[255]</text>
<polygon fill="#ffffff" stroke="transparent" points="242.5,-103.2 242.5,-125.2 469.5,-125.2 469.5,-103.2 242.5,-103.2"/>
<polygon fill="none" stroke="#000000" points="242.5,-103.2 242.5,-125.2 469.5,-125.2 469.5,-103.2 242.5,-103.2"/>
<image xlink:href="../../images/foreignKeys.png" width="11px" height="12px" preserveAspectRatio="xMinYMin meet" x="247.5" y="-120.2"/>
<text text-anchor="start" x="262.5" y="-110.3" font-family="Helvetica,sans-Serif" font-size="11.00" fill="#000000">deployment_id_</text>
<polygon fill="none" stroke="#000000" points="469.5,-103.2 469.5,-125.2 569.5,-125.2 569.5,-103.2 469.5,-103.2"/>
<text text-anchor="start" x="472.5" y="-110.9" font-family="Helvetica,sans-Serif" font-size="11.00" fill="#000000">varchar[255]</text>
<polygon fill="none" stroke="#000000" points="242.5,-81.2 242.5,-103.2 469.5,-103.2 469.5,-81.2 242.5,-81.2"/>
<text text-anchor="start" x="262.5" y="-88.3" font-family="Helvetica,sans-Serif" font-size="11.00" fill="#000000">resource_bytes_</text>
<polygon fill="none" stroke="#000000" points="469.5,-81.2 469.5,-103.2 569.5,-103.2 569.5,-81.2 469.5,-81.2"/>
<text text-anchor="start" x="472.4178" y="-88.9" font-family="Helvetica,sans-Serif" font-size="11.00" fill="#000000">bytea[2147483647]</text>
<polygon fill="none" stroke="#000000" points="242.5,-59.2 242.5,-81.2 469.5,-81.2 469.5,-59.2 242.5,-59.2"/>
<text text-anchor="start" x="262.5" y="-66.3" font-family="Helvetica,sans-Serif" font-size="11.00" fill="#000000">generated_</text>
<polygon fill="none" stroke="#000000" points="469.5,-59.2 469.5,-81.2 569.5,-81.2 569.5,-59.2 469.5,-59.2"/>
<text text-anchor="start" x="472.5" y="-66.9" font-family="Helvetica,sans-Serif" font-size="11.00" fill="#000000">bool[1]</text>
<polygon fill="#ffffff" stroke="transparent" points="242.5,-40.2 242.5,-59.2 569.5,-59.2 569.5,-40.2 242.5,-40.2"/>
<polygon fill="none" stroke="#000000" points="242.5,-40.2 242.5,-59.2 569.5,-59.2 569.5,-40.2 242.5,-40.2"/>
<polygon fill="#ffffff" stroke="transparent" points="243.5,-41.2 243.5,-58.2 355.5,-58.2 355.5,-41.2 243.5,-41.2"/>
<text text-anchor="start" x="245.5" y="-46.3" font-family="Helvetica,sans-Serif" font-size="11.00" fill="#000000">&lt; 1</text>
<polygon fill="#ffffff" stroke="transparent" points="355.5,-41.2 355.5,-58.2 457.5,-58.2 457.5,-41.2 355.5,-41.2"/>
<text text-anchor="start" x="403.4431" y="-46.3" font-family="Helvetica,sans-Serif" font-size="11.00" fill="#000000"> &#160;</text>
<polygon fill="#ffffff" stroke="transparent" points="457.5,-41.2 457.5,-58.2 568.5,-58.2 568.5,-41.2 457.5,-41.2"/>
<text text-anchor="start" x="550.9053" y="-46.3" font-family="Helvetica,sans-Serif" font-size="11.00" fill="#000000">0 &gt;</text>
<polygon fill="#000000" stroke="#000000" points="355.5,-41.2 355.5,-58.2 355.5,-58.2 355.5,-41.2 355.5,-41.2"/>
<polygon fill="#000000" stroke="#000000" points="457.5,-41.2 457.5,-58.2 457.5,-58.2 457.5,-41.2 457.5,-41.2"/>
<polygon fill="none" stroke="#000000" stroke-width="2" points="241,-39.2 241,-193.2 570,-193.2 570,-39.2 241,-39.2"/>
</a>
</g>
</g>
<!-- act_cmmn_deployment_resource&#45;&gt;act_cmmn_deployment -->
<g id="edge2" class="edge">
<title>act_cmmn_deployment_resource:w&#45;&gt;act_cmmn_deployment:e</title>
<path fill="none" stroke="#000000" d="M228.7779,-118.8027C211.6988,-133.4773 221.9041,-178.2 191.5,-178.2"/>
<polygon fill="#000000" stroke="#000000" points="234.9153,-116.7441 243.6449,-117.6131 238.7077,-115.4721 242.5,-114.2 242.5,-114.2 242.5,-114.2 238.7077,-115.4721 241.3551,-110.7869 234.9153,-116.7441 234.9153,-116.7441"/>
<ellipse fill="none" stroke="#000000" cx="231.8814" cy="-117.7618" rx="3.2" ry="3.2"/>
</g>
</g>
</svg>
