<?xml version="1.0" encoding="UTF-8" standalone="no"?>
<!DOCTYPE svg PUBLIC "-//W3C//DTD SVG 1.1//EN"
 "http://www.w3.org/Graphics/SVG/1.1/DTD/svg11.dtd">
<!-- Generated by graphviz version 2.40.1 (20161225.0304)
 -->
<!-- Title: oneDegreeRelationshipsDiagram Pages: 1 -->
<svg width="1057pt" height="1020pt"
 viewBox="0.00 0.00 1057.00 1020.20" xmlns="http://www.w3.org/2000/svg" xmlns:xlink="http://www.w3.org/1999/xlink">
<g id="graph0" class="graph" transform="scale(1 1) rotate(0) translate(4 1016.2018)">
<title>oneDegreeRelationshipsDiagram</title>
<polygon fill="#ffffff" stroke="transparent" points="-4,4 -4,-1016.2018 1053,-1016.2018 1053,4 -4,4"/>
<text text-anchor="middle" x="72.4936" y="-7.3" font-family="Helvetica,sans-Serif" font-size="11.00" fill="#000000">Generated by SchemaSpy</text>
<!-- act_cmmn_ru_case_inst -->
<g id="node1" class="node">
<title>act_cmmn_ru_case_inst</title>
<g id="a_node1"><a xlink:href="../../tables/act_cmmn_ru_case_inst.html" xlink:title="act_cmmn_ru_case_inst" target="_top">
<polygon fill="#ffffff" stroke="transparent" points="231,-791.7 231,-940.7 421,-940.7 421,-791.7 231,-791.7"/>
<polygon fill="#f5f5f5" stroke="transparent" points="231,-917.2 231,-940.2 421,-940.2 421,-917.2 231,-917.2"/>
<polygon fill="none" stroke="#000000" points="231,-917.2 231,-940.2 421,-940.2 421,-917.2 231,-917.2"/>
<text text-anchor="start" x="236" y="-925.8" font-family="Helvetica,sans-Serif" font-weight="bold" font-size="11.00" fill="#000000">act_cmmn_ru_case_inst</text>
<text text-anchor="start" x="386.5219" y="-925.3" font-family="Helvetica,sans-Serif" font-size="11.00" fill="#000000">[table]</text>
<polygon fill="none" stroke="#000000" points="231,-895.2 231,-917.2 421,-917.2 421,-895.2 231,-895.2"/>
<image xlink:href="../../images/primaryKeys.png" width="11px" height="12px" preserveAspectRatio="xMinYMin meet" x="236" y="-912.2"/>
<text text-anchor="start" x="254" y="-902.3" font-family="Helvetica,sans-Serif" font-size="11.00" fill="#000000">id_</text>
<polygon fill="#ffffff" stroke="transparent" points="231,-873.2 231,-895.2 421,-895.2 421,-873.2 231,-873.2"/>
<polygon fill="none" stroke="#000000" points="231,-873.2 231,-895.2 421,-895.2 421,-873.2 231,-873.2"/>
<text text-anchor="start" x="254" y="-880.3" font-family="Helvetica,sans-Serif" font-size="11.00" fill="#000000">parent_id_</text>
<polygon fill="#ffffff" stroke="transparent" points="231,-851.2 231,-873.2 421,-873.2 421,-851.2 231,-851.2"/>
<polygon fill="none" stroke="#000000" points="231,-851.2 231,-873.2 421,-873.2 421,-851.2 231,-851.2"/>
<image xlink:href="../../images/foreignKeys.png" width="11px" height="12px" preserveAspectRatio="xMinYMin meet" x="236" y="-868.2"/>
<text text-anchor="start" x="254" y="-858.3" font-family="Helvetica,sans-Serif" font-size="11.00" fill="#000000">case_def_id_</text>
<polygon fill="#ffffff" stroke="transparent" points="231,-829.2 231,-851.2 421,-851.2 421,-829.2 231,-829.2"/>
<polygon fill="none" stroke="#000000" points="231,-829.2 231,-851.2 421,-851.2 421,-829.2 231,-829.2"/>
<text text-anchor="start" x="254" y="-836.3" font-family="Helvetica,sans-Serif" font-size="11.00" fill="#000000">reference_id_</text>
<polygon fill="none" stroke="#000000" points="231,-810.2 231,-829.2 421,-829.2 421,-810.2 231,-810.2"/>
<text text-anchor="start" x="234" y="-816.3" font-family="Helvetica,sans-Serif" font-size="11.00" fill="#000000">...</text>
<polygon fill="#ffffff" stroke="transparent" points="231,-791.2 231,-810.2 421,-810.2 421,-791.2 231,-791.2"/>
<polygon fill="none" stroke="#000000" points="231,-791.2 231,-810.2 421,-810.2 421,-791.2 231,-791.2"/>
<polygon fill="#ffffff" stroke="transparent" points="232,-792.2 232,-809.2 298,-809.2 298,-792.2 232,-792.2"/>
<text text-anchor="start" x="234" y="-797.3" font-family="Helvetica,sans-Serif" font-size="11.00" fill="#000000">&lt; 1</text>
<polygon fill="#ffffff" stroke="transparent" points="298,-792.2 298,-809.2 355,-809.2 355,-792.2 298,-792.2"/>
<text text-anchor="start" x="323.4431" y="-797.3" font-family="Helvetica,sans-Serif" font-size="11.00" fill="#000000"> &#160;</text>
<polygon fill="#ffffff" stroke="transparent" points="355,-792.2 355,-809.2 420,-809.2 420,-792.2 355,-792.2"/>
<text text-anchor="start" x="402.4053" y="-797.3" font-family="Helvetica,sans-Serif" font-size="11.00" fill="#000000">3 &gt;</text>
<polygon fill="#000000" stroke="#000000" points="298,-792.2 298,-809.2 298,-809.2 298,-792.2 298,-792.2"/>
<polygon fill="#000000" stroke="#000000" points="355,-792.2 355,-809.2 355,-809.2 355,-792.2 355,-792.2"/>
</a>
</g>
</g>
<!-- act_cmmn_casedef -->
<g id="node2" class="node">
<title>act_cmmn_casedef</title>
<g id="a_node2"><a xlink:href="../../tables/act_cmmn_casedef.html" xlink:title="act_cmmn_casedef" target="_top">
<polygon fill="#ffffff" stroke="transparent" points="8,-725.7 8,-896.7 182,-896.7 182,-725.7 8,-725.7"/>
<polygon fill="#f5f5f5" stroke="transparent" points="8,-873.2 8,-896.2 182,-896.2 182,-873.2 8,-873.2"/>
<polygon fill="none" stroke="#000000" points="8,-873.2 8,-896.2 182,-896.2 182,-873.2 8,-873.2"/>
<text text-anchor="start" x="13" y="-881.8" font-family="Helvetica,sans-Serif" font-weight="bold" font-size="11.00" fill="#000000">act_cmmn_casedef</text>
<text text-anchor="start" x="147.0437" y="-881.3" font-family="Helvetica,sans-Serif" font-size="11.00" fill="#000000">[table]</text>
<polygon fill="none" stroke="#000000" points="8,-851.2 8,-873.2 182,-873.2 182,-851.2 8,-851.2"/>
<image xlink:href="../../images/primaryKeys.png" width="11px" height="12px" preserveAspectRatio="xMinYMin meet" x="13" y="-868.2"/>
<text text-anchor="start" x="28" y="-858.3" font-family="Helvetica,sans-Serif" font-size="11.00" fill="#000000">id_</text>
<polygon fill="#ffffff" stroke="transparent" points="8,-829.2 8,-851.2 182,-851.2 182,-829.2 8,-829.2"/>
<polygon fill="none" stroke="#000000" points="8,-829.2 8,-851.2 182,-851.2 182,-829.2 8,-829.2"/>
<text text-anchor="start" x="28" y="-836.3" font-family="Helvetica,sans-Serif" font-size="11.00" fill="#000000">key_</text>
<polygon fill="#ffffff" stroke="transparent" points="8,-807.2 8,-829.2 182,-829.2 182,-807.2 8,-807.2"/>
<polygon fill="none" stroke="#000000" points="8,-807.2 8,-829.2 182,-829.2 182,-807.2 8,-807.2"/>
<text text-anchor="start" x="28" y="-814.3" font-family="Helvetica,sans-Serif" font-size="11.00" fill="#000000">version_</text>
<polygon fill="#ffffff" stroke="transparent" points="8,-785.2 8,-807.2 182,-807.2 182,-785.2 8,-785.2"/>
<polygon fill="none" stroke="#000000" points="8,-785.2 8,-807.2 182,-807.2 182,-785.2 8,-785.2"/>
<image xlink:href="../../images/foreignKeys.png" width="11px" height="12px" preserveAspectRatio="xMinYMin meet" x="13" y="-802.2"/>
<text text-anchor="start" x="28" y="-792.3" font-family="Helvetica,sans-Serif" font-size="11.00" fill="#000000">deployment_id_</text>
<polygon fill="#ffffff" stroke="transparent" points="8,-763.2 8,-785.2 182,-785.2 182,-763.2 8,-763.2"/>
<polygon fill="none" stroke="#000000" points="8,-763.2 8,-785.2 182,-785.2 182,-763.2 8,-763.2"/>
<text text-anchor="start" x="28" y="-770.3" font-family="Helvetica,sans-Serif" font-size="11.00" fill="#000000">tenant_id_</text>
<polygon fill="none" stroke="#000000" points="8,-744.2 8,-763.2 182,-763.2 182,-744.2 8,-744.2"/>
<text text-anchor="start" x="11" y="-750.3" font-family="Helvetica,sans-Serif" font-size="11.00" fill="#000000">...</text>
<polygon fill="#ffffff" stroke="transparent" points="8,-725.2 8,-744.2 182,-744.2 182,-725.2 8,-725.2"/>
<polygon fill="none" stroke="#000000" points="8,-725.2 8,-744.2 182,-744.2 182,-725.2 8,-725.2"/>
<polygon fill="#ffffff" stroke="transparent" points="9,-726.2 9,-743.2 70,-743.2 70,-726.2 9,-726.2"/>
<text text-anchor="start" x="11" y="-731.3" font-family="Helvetica,sans-Serif" font-size="11.00" fill="#000000">&lt; 1</text>
<polygon fill="#ffffff" stroke="transparent" points="70,-726.2 70,-743.2 121,-743.2 121,-726.2 70,-726.2"/>
<text text-anchor="start" x="92.4431" y="-731.3" font-family="Helvetica,sans-Serif" font-size="11.00" fill="#000000"> &#160;</text>
<polygon fill="#ffffff" stroke="transparent" points="121,-726.2 121,-743.2 181,-743.2 181,-726.2 121,-726.2"/>
<text text-anchor="start" x="163.4053" y="-731.3" font-family="Helvetica,sans-Serif" font-size="11.00" fill="#000000">4 &gt;</text>
<polygon fill="#000000" stroke="#000000" points="70,-726.2 70,-743.2 70,-743.2 70,-726.2 70,-726.2"/>
<polygon fill="#000000" stroke="#000000" points="121,-726.2 121,-743.2 121,-743.2 121,-726.2 121,-726.2"/>
</a>
</g>
</g>
<!-- act_cmmn_ru_case_inst&#45;&gt;act_cmmn_casedef -->
<g id="edge1" class="edge">
<title>act_cmmn_ru_case_inst:w&#45;&gt;act_cmmn_casedef:e</title>
<path fill="none" stroke="#000000" d="M216.4909,-862.2C205.1774,-862.2 197.9931,-862.2 182,-862.2"/>
<polygon fill="#000000" stroke="#000000" points="223,-862.2001 231,-865.8 227,-862.2 231,-862.2 231,-862.2 231,-862.2 227,-862.2 231,-858.6 223,-862.2001 223,-862.2001"/>
<ellipse fill="none" stroke="#000000" cx="219.8" cy="-862.2001" rx="3.2" ry="3.2"/>
</g>
<!-- act_cmmn_ru_plan_item_inst -->
<g id="node3" class="node">
<title>act_cmmn_ru_plan_item_inst</title>
<g id="a_node3"><a xlink:href="../../tables/act_cmmn_ru_plan_item_inst.html" xlink:title="act_cmmn_ru_plan_item_inst" target="_top">
<polygon fill="#ffffff" stroke="transparent" points="470,-38.2 470,-898.2 761,-898.2 761,-38.2 470,-38.2"/>
<polygon fill="#f5f5f5" stroke="transparent" points="472.5,-873.2 472.5,-896.2 759.5,-896.2 759.5,-873.2 472.5,-873.2"/>
<polygon fill="none" stroke="#000000" points="472.5,-873.2 472.5,-896.2 759.5,-896.2 759.5,-873.2 472.5,-873.2"/>
<text text-anchor="start" x="477.5" y="-881.8" font-family="Helvetica,sans-Serif" font-weight="bold" font-size="11.00" fill="#000000">act_cmmn_ru_plan_item_inst</text>
<text text-anchor="start" x="724.5437" y="-881.3" font-family="Helvetica,sans-Serif" font-size="11.00" fill="#000000">[table]</text>
<polygon fill="none" stroke="#000000" points="472.5,-851.2 472.5,-873.2 675.5,-873.2 675.5,-851.2 472.5,-851.2"/>
<image xlink:href="../../images/primaryKeys.png" width="11px" height="12px" preserveAspectRatio="xMinYMin meet" x="477.5" y="-868.2"/>
<text text-anchor="start" x="492.5" y="-858.3" font-family="Helvetica,sans-Serif" font-size="11.00" fill="#000000">id_</text>
<polygon fill="none" stroke="#000000" points="675.5,-851.2 675.5,-873.2 759.5,-873.2 759.5,-851.2 675.5,-851.2"/>
<text text-anchor="start" x="678.5" y="-858.9" font-family="Helvetica,sans-Serif" font-size="11.00" fill="#000000">varchar[255]</text>
<polygon fill="none" stroke="#000000" points="472.5,-829.2 472.5,-851.2 675.5,-851.2 675.5,-829.2 472.5,-829.2"/>
<text text-anchor="start" x="492.5" y="-836.3" font-family="Helvetica,sans-Serif" font-size="11.00" fill="#000000">rev_</text>
<polygon fill="none" stroke="#000000" points="675.5,-829.2 675.5,-851.2 759.5,-851.2 759.5,-829.2 675.5,-829.2"/>
<text text-anchor="start" x="678.5" y="-836.9" font-family="Helvetica,sans-Serif" font-size="11.00" fill="#000000">int4[10]</text>
<polygon fill="#ffffff" stroke="transparent" points="472.5,-807.2 472.5,-829.2 675.5,-829.2 675.5,-807.2 472.5,-807.2"/>
<polygon fill="none" stroke="#000000" points="472.5,-807.2 472.5,-829.2 675.5,-829.2 675.5,-807.2 472.5,-807.2"/>
<image xlink:href="../../images/foreignKeys.png" width="11px" height="12px" preserveAspectRatio="xMinYMin meet" x="477.5" y="-824.2"/>
<text text-anchor="start" x="492.5" y="-814.3" font-family="Helvetica,sans-Serif" font-size="11.00" fill="#000000">case_def_id_</text>
<polygon fill="none" stroke="#000000" points="675.5,-807.2 675.5,-829.2 759.5,-829.2 759.5,-807.2 675.5,-807.2"/>
<text text-anchor="start" x="678.5" y="-814.9" font-family="Helvetica,sans-Serif" font-size="11.00" fill="#000000">varchar[255]</text>
<polygon fill="#ffffff" stroke="transparent" points="472.5,-785.2 472.5,-807.2 675.5,-807.2 675.5,-785.2 472.5,-785.2"/>
<polygon fill="none" stroke="#000000" points="472.5,-785.2 472.5,-807.2 675.5,-807.2 675.5,-785.2 472.5,-785.2"/>
<image xlink:href="../../images/foreignKeys.png" width="11px" height="12px" preserveAspectRatio="xMinYMin meet" x="477.5" y="-802.2"/>
<text text-anchor="start" x="492.5" y="-792.3" font-family="Helvetica,sans-Serif" font-size="11.00" fill="#000000">case_inst_id_</text>
<polygon fill="none" stroke="#000000" points="675.5,-785.2 675.5,-807.2 759.5,-807.2 759.5,-785.2 675.5,-785.2"/>
<text text-anchor="start" x="678.5" y="-792.9" font-family="Helvetica,sans-Serif" font-size="11.00" fill="#000000">varchar[255]</text>
<polygon fill="#ffffff" stroke="transparent" points="472.5,-763.2 472.5,-785.2 675.5,-785.2 675.5,-763.2 472.5,-763.2"/>
<polygon fill="none" stroke="#000000" points="472.5,-763.2 472.5,-785.2 675.5,-785.2 675.5,-763.2 472.5,-763.2"/>
<text text-anchor="start" x="492.5" y="-770.3" font-family="Helvetica,sans-Serif" font-size="11.00" fill="#000000">stage_inst_id_</text>
<polygon fill="none" stroke="#000000" points="675.5,-763.2 675.5,-785.2 759.5,-785.2 759.5,-763.2 675.5,-763.2"/>
<text text-anchor="start" x="678.5" y="-770.9" font-family="Helvetica,sans-Serif" font-size="11.00" fill="#000000">varchar[255]</text>
<polygon fill="none" stroke="#000000" points="472.5,-741.2 472.5,-763.2 675.5,-763.2 675.5,-741.2 472.5,-741.2"/>
<text text-anchor="start" x="492.5" y="-748.3" font-family="Helvetica,sans-Serif" font-size="11.00" fill="#000000">is_stage_</text>
<polygon fill="none" stroke="#000000" points="675.5,-741.2 675.5,-763.2 759.5,-763.2 759.5,-741.2 675.5,-741.2"/>
<text text-anchor="start" x="678.5" y="-748.9" font-family="Helvetica,sans-Serif" font-size="11.00" fill="#000000">bool[1]</text>
<polygon fill="none" stroke="#000000" points="472.5,-719.2 472.5,-741.2 675.5,-741.2 675.5,-719.2 472.5,-719.2"/>
<text text-anchor="start" x="492.5" y="-726.3" font-family="Helvetica,sans-Serif" font-size="11.00" fill="#000000">element_id_</text>
<polygon fill="none" stroke="#000000" points="675.5,-719.2 675.5,-741.2 759.5,-741.2 759.5,-719.2 675.5,-719.2"/>
<text text-anchor="start" x="678.5" y="-726.9" font-family="Helvetica,sans-Serif" font-size="11.00" fill="#000000">varchar[255]</text>
<polygon fill="none" stroke="#000000" points="472.5,-697.2 472.5,-719.2 675.5,-719.2 675.5,-697.2 472.5,-697.2"/>
<text text-anchor="start" x="492.5" y="-704.3" font-family="Helvetica,sans-Serif" font-size="11.00" fill="#000000">name_</text>
<polygon fill="none" stroke="#000000" points="675.5,-697.2 675.5,-719.2 759.5,-719.2 759.5,-697.2 675.5,-697.2"/>
<text text-anchor="start" x="678.5" y="-704.9" font-family="Helvetica,sans-Serif" font-size="11.00" fill="#000000">varchar[255]</text>
<polygon fill="none" stroke="#000000" points="472.5,-675.2 472.5,-697.2 675.5,-697.2 675.5,-675.2 472.5,-675.2"/>
<text text-anchor="start" x="492.5" y="-682.3" font-family="Helvetica,sans-Serif" font-size="11.00" fill="#000000">state_</text>
<polygon fill="none" stroke="#000000" points="675.5,-675.2 675.5,-697.2 759.5,-697.2 759.5,-675.2 675.5,-675.2"/>
<text text-anchor="start" x="678.5" y="-682.9" font-family="Helvetica,sans-Serif" font-size="11.00" fill="#000000">varchar[255]</text>
<polygon fill="none" stroke="#000000" points="472.5,-653.2 472.5,-675.2 675.5,-675.2 675.5,-653.2 472.5,-653.2"/>
<text text-anchor="start" x="492.5" y="-660.3" font-family="Helvetica,sans-Serif" font-size="11.00" fill="#000000">create_time_</text>
<polygon fill="none" stroke="#000000" points="675.5,-653.2 675.5,-675.2 759.5,-675.2 759.5,-653.2 675.5,-653.2"/>
<text text-anchor="start" x="678.3807" y="-660.9" font-family="Helvetica,sans-Serif" font-size="11.00" fill="#000000">timestamp[29,6]</text>
<polygon fill="none" stroke="#000000" points="472.5,-631.2 472.5,-653.2 675.5,-653.2 675.5,-631.2 472.5,-631.2"/>
<text text-anchor="start" x="492.5" y="-638.3" font-family="Helvetica,sans-Serif" font-size="11.00" fill="#000000">start_user_id_</text>
<polygon fill="none" stroke="#000000" points="675.5,-631.2 675.5,-653.2 759.5,-653.2 759.5,-631.2 675.5,-631.2"/>
<text text-anchor="start" x="678.5" y="-638.9" font-family="Helvetica,sans-Serif" font-size="11.00" fill="#000000">varchar[255]</text>
<polygon fill="none" stroke="#000000" points="472.5,-609.2 472.5,-631.2 675.5,-631.2 675.5,-609.2 472.5,-609.2"/>
<text text-anchor="start" x="492.5" y="-616.3" font-family="Helvetica,sans-Serif" font-size="11.00" fill="#000000">assignee_</text>
<polygon fill="none" stroke="#000000" points="675.5,-609.2 675.5,-631.2 759.5,-631.2 759.5,-609.2 675.5,-609.2"/>
<text text-anchor="start" x="678.5" y="-616.9" font-family="Helvetica,sans-Serif" font-size="11.00" fill="#000000">varchar[255]</text>
<polygon fill="none" stroke="#000000" points="472.5,-587.2 472.5,-609.2 675.5,-609.2 675.5,-587.2 472.5,-587.2"/>
<text text-anchor="start" x="492.5" y="-594.3" font-family="Helvetica,sans-Serif" font-size="11.00" fill="#000000">completed_by_</text>
<polygon fill="none" stroke="#000000" points="675.5,-587.2 675.5,-609.2 759.5,-609.2 759.5,-587.2 675.5,-587.2"/>
<text text-anchor="start" x="678.5" y="-594.9" font-family="Helvetica,sans-Serif" font-size="11.00" fill="#000000">varchar[255]</text>
<polygon fill="none" stroke="#000000" points="472.5,-565.2 472.5,-587.2 675.5,-587.2 675.5,-565.2 472.5,-565.2"/>
<text text-anchor="start" x="492.5" y="-572.3" font-family="Helvetica,sans-Serif" font-size="11.00" fill="#000000">reference_id_</text>
<polygon fill="none" stroke="#000000" points="675.5,-565.2 675.5,-587.2 759.5,-587.2 759.5,-565.2 675.5,-565.2"/>
<text text-anchor="start" x="678.5" y="-572.9" font-family="Helvetica,sans-Serif" font-size="11.00" fill="#000000">varchar[255]</text>
<polygon fill="none" stroke="#000000" points="472.5,-543.2 472.5,-565.2 675.5,-565.2 675.5,-543.2 472.5,-543.2"/>
<text text-anchor="start" x="492.5" y="-550.3" font-family="Helvetica,sans-Serif" font-size="11.00" fill="#000000">reference_type_</text>
<polygon fill="none" stroke="#000000" points="675.5,-543.2 675.5,-565.2 759.5,-565.2 759.5,-543.2 675.5,-543.2"/>
<text text-anchor="start" x="678.5" y="-550.9" font-family="Helvetica,sans-Serif" font-size="11.00" fill="#000000">varchar[255]</text>
<polygon fill="none" stroke="#000000" points="472.5,-521.2 472.5,-543.2 675.5,-543.2 675.5,-521.2 472.5,-521.2"/>
<text text-anchor="start" x="492.5" y="-528.3" font-family="Helvetica,sans-Serif" font-size="11.00" fill="#000000">item_definition_id_</text>
<polygon fill="none" stroke="#000000" points="675.5,-521.2 675.5,-543.2 759.5,-543.2 759.5,-521.2 675.5,-521.2"/>
<text text-anchor="start" x="678.5" y="-528.9" font-family="Helvetica,sans-Serif" font-size="11.00" fill="#000000">varchar[255]</text>
<polygon fill="none" stroke="#000000" points="472.5,-499.2 472.5,-521.2 675.5,-521.2 675.5,-499.2 472.5,-499.2"/>
<text text-anchor="start" x="492.5" y="-506.3" font-family="Helvetica,sans-Serif" font-size="11.00" fill="#000000">item_definition_type_</text>
<polygon fill="none" stroke="#000000" points="675.5,-499.2 675.5,-521.2 759.5,-521.2 759.5,-499.2 675.5,-499.2"/>
<text text-anchor="start" x="678.5" y="-506.9" font-family="Helvetica,sans-Serif" font-size="11.00" fill="#000000">varchar[255]</text>
<polygon fill="none" stroke="#000000" points="472.5,-477.2 472.5,-499.2 675.5,-499.2 675.5,-477.2 472.5,-477.2"/>
<text text-anchor="start" x="492.5" y="-484.3" font-family="Helvetica,sans-Serif" font-size="11.00" fill="#000000">is_completeable_</text>
<polygon fill="none" stroke="#000000" points="675.5,-477.2 675.5,-499.2 759.5,-499.2 759.5,-477.2 675.5,-477.2"/>
<text text-anchor="start" x="678.5" y="-484.9" font-family="Helvetica,sans-Serif" font-size="11.00" fill="#000000">bool[1]</text>
<polygon fill="none" stroke="#000000" points="472.5,-455.2 472.5,-477.2 675.5,-477.2 675.5,-455.2 472.5,-455.2"/>
<text text-anchor="start" x="492.5" y="-462.3" font-family="Helvetica,sans-Serif" font-size="11.00" fill="#000000">is_count_enabled_</text>
<polygon fill="none" stroke="#000000" points="675.5,-455.2 675.5,-477.2 759.5,-477.2 759.5,-455.2 675.5,-455.2"/>
<text text-anchor="start" x="678.5" y="-462.9" font-family="Helvetica,sans-Serif" font-size="11.00" fill="#000000">bool[1]</text>
<polygon fill="none" stroke="#000000" points="472.5,-433.2 472.5,-455.2 675.5,-455.2 675.5,-433.2 472.5,-433.2"/>
<text text-anchor="start" x="492.5" y="-440.3" font-family="Helvetica,sans-Serif" font-size="11.00" fill="#000000">var_count_</text>
<polygon fill="none" stroke="#000000" points="675.5,-433.2 675.5,-455.2 759.5,-455.2 759.5,-433.2 675.5,-433.2"/>
<text text-anchor="start" x="678.5" y="-440.9" font-family="Helvetica,sans-Serif" font-size="11.00" fill="#000000">int4[10]</text>
<polygon fill="none" stroke="#000000" points="472.5,-411.2 472.5,-433.2 675.5,-433.2 675.5,-411.2 472.5,-411.2"/>
<text text-anchor="start" x="492.5" y="-418.3" font-family="Helvetica,sans-Serif" font-size="11.00" fill="#000000">sentry_part_inst_count_</text>
<polygon fill="none" stroke="#000000" points="675.5,-411.2 675.5,-433.2 759.5,-433.2 759.5,-411.2 675.5,-411.2"/>
<text text-anchor="start" x="678.5" y="-418.9" font-family="Helvetica,sans-Serif" font-size="11.00" fill="#000000">int4[10]</text>
<polygon fill="none" stroke="#000000" points="472.5,-389.2 472.5,-411.2 675.5,-411.2 675.5,-389.2 472.5,-389.2"/>
<text text-anchor="start" x="492.5" y="-396.3" font-family="Helvetica,sans-Serif" font-size="11.00" fill="#000000">last_available_time_</text>
<polygon fill="none" stroke="#000000" points="675.5,-389.2 675.5,-411.2 759.5,-411.2 759.5,-389.2 675.5,-389.2"/>
<text text-anchor="start" x="678.3807" y="-396.9" font-family="Helvetica,sans-Serif" font-size="11.00" fill="#000000">timestamp[26,3]</text>
<polygon fill="none" stroke="#000000" points="472.5,-367.2 472.5,-389.2 675.5,-389.2 675.5,-367.2 472.5,-367.2"/>
<text text-anchor="start" x="492.5" y="-374.3" font-family="Helvetica,sans-Serif" font-size="11.00" fill="#000000">last_enabled_time_</text>
<polygon fill="none" stroke="#000000" points="675.5,-367.2 675.5,-389.2 759.5,-389.2 759.5,-367.2 675.5,-367.2"/>
<text text-anchor="start" x="678.3807" y="-374.9" font-family="Helvetica,sans-Serif" font-size="11.00" fill="#000000">timestamp[26,3]</text>
<polygon fill="none" stroke="#000000" points="472.5,-345.2 472.5,-367.2 675.5,-367.2 675.5,-345.2 472.5,-345.2"/>
<text text-anchor="start" x="492.5" y="-352.3" font-family="Helvetica,sans-Serif" font-size="11.00" fill="#000000">last_disabled_time_</text>
<polygon fill="none" stroke="#000000" points="675.5,-345.2 675.5,-367.2 759.5,-367.2 759.5,-345.2 675.5,-345.2"/>
<text text-anchor="start" x="678.3807" y="-352.9" font-family="Helvetica,sans-Serif" font-size="11.00" fill="#000000">timestamp[26,3]</text>
<polygon fill="none" stroke="#000000" points="472.5,-323.2 472.5,-345.2 675.5,-345.2 675.5,-323.2 472.5,-323.2"/>
<text text-anchor="start" x="492.5" y="-330.3" font-family="Helvetica,sans-Serif" font-size="11.00" fill="#000000">last_started_time_</text>
<polygon fill="none" stroke="#000000" points="675.5,-323.2 675.5,-345.2 759.5,-345.2 759.5,-323.2 675.5,-323.2"/>
<text text-anchor="start" x="678.3807" y="-330.9" font-family="Helvetica,sans-Serif" font-size="11.00" fill="#000000">timestamp[26,3]</text>
<polygon fill="none" stroke="#000000" points="472.5,-301.2 472.5,-323.2 675.5,-323.2 675.5,-301.2 472.5,-301.2"/>
<text text-anchor="start" x="492.5" y="-308.3" font-family="Helvetica,sans-Serif" font-size="11.00" fill="#000000">last_suspended_time_</text>
<polygon fill="none" stroke="#000000" points="675.5,-301.2 675.5,-323.2 759.5,-323.2 759.5,-301.2 675.5,-301.2"/>
<text text-anchor="start" x="678.3807" y="-308.9" font-family="Helvetica,sans-Serif" font-size="11.00" fill="#000000">timestamp[26,3]</text>
<polygon fill="none" stroke="#000000" points="472.5,-279.2 472.5,-301.2 675.5,-301.2 675.5,-279.2 472.5,-279.2"/>
<text text-anchor="start" x="492.5" y="-286.3" font-family="Helvetica,sans-Serif" font-size="11.00" fill="#000000">completed_time_</text>
<polygon fill="none" stroke="#000000" points="675.5,-279.2 675.5,-301.2 759.5,-301.2 759.5,-279.2 675.5,-279.2"/>
<text text-anchor="start" x="678.3807" y="-286.9" font-family="Helvetica,sans-Serif" font-size="11.00" fill="#000000">timestamp[26,3]</text>
<polygon fill="none" stroke="#000000" points="472.5,-257.2 472.5,-279.2 675.5,-279.2 675.5,-257.2 472.5,-257.2"/>
<text text-anchor="start" x="492.5" y="-264.3" font-family="Helvetica,sans-Serif" font-size="11.00" fill="#000000">occurred_time_</text>
<polygon fill="none" stroke="#000000" points="675.5,-257.2 675.5,-279.2 759.5,-279.2 759.5,-257.2 675.5,-257.2"/>
<text text-anchor="start" x="678.3807" y="-264.9" font-family="Helvetica,sans-Serif" font-size="11.00" fill="#000000">timestamp[26,3]</text>
<polygon fill="none" stroke="#000000" points="472.5,-235.2 472.5,-257.2 675.5,-257.2 675.5,-235.2 472.5,-235.2"/>
<text text-anchor="start" x="492.5" y="-242.3" font-family="Helvetica,sans-Serif" font-size="11.00" fill="#000000">terminated_time_</text>
<polygon fill="none" stroke="#000000" points="675.5,-235.2 675.5,-257.2 759.5,-257.2 759.5,-235.2 675.5,-235.2"/>
<text text-anchor="start" x="678.3807" y="-242.9" font-family="Helvetica,sans-Serif" font-size="11.00" fill="#000000">timestamp[26,3]</text>
<polygon fill="none" stroke="#000000" points="472.5,-213.2 472.5,-235.2 675.5,-235.2 675.5,-213.2 472.5,-213.2"/>
<text text-anchor="start" x="492.5" y="-220.3" font-family="Helvetica,sans-Serif" font-size="11.00" fill="#000000">exit_time_</text>
<polygon fill="none" stroke="#000000" points="675.5,-213.2 675.5,-235.2 759.5,-235.2 759.5,-213.2 675.5,-213.2"/>
<text text-anchor="start" x="678.3807" y="-220.9" font-family="Helvetica,sans-Serif" font-size="11.00" fill="#000000">timestamp[26,3]</text>
<polygon fill="none" stroke="#000000" points="472.5,-191.2 472.5,-213.2 675.5,-213.2 675.5,-191.2 472.5,-191.2"/>
<text text-anchor="start" x="492.5" y="-198.3" font-family="Helvetica,sans-Serif" font-size="11.00" fill="#000000">ended_time_</text>
<polygon fill="none" stroke="#000000" points="675.5,-191.2 675.5,-213.2 759.5,-213.2 759.5,-191.2 675.5,-191.2"/>
<text text-anchor="start" x="678.3807" y="-198.9" font-family="Helvetica,sans-Serif" font-size="11.00" fill="#000000">timestamp[26,3]</text>
<polygon fill="none" stroke="#000000" points="472.5,-169.2 472.5,-191.2 675.5,-191.2 675.5,-169.2 472.5,-169.2"/>
<text text-anchor="start" x="492.5" y="-176.3" font-family="Helvetica,sans-Serif" font-size="11.00" fill="#000000">entry_criterion_id_</text>
<polygon fill="none" stroke="#000000" points="675.5,-169.2 675.5,-191.2 759.5,-191.2 759.5,-169.2 675.5,-169.2"/>
<text text-anchor="start" x="678.5" y="-176.9" font-family="Helvetica,sans-Serif" font-size="11.00" fill="#000000">varchar[255]</text>
<polygon fill="none" stroke="#000000" points="472.5,-147.2 472.5,-169.2 675.5,-169.2 675.5,-147.2 472.5,-147.2"/>
<text text-anchor="start" x="492.5" y="-154.3" font-family="Helvetica,sans-Serif" font-size="11.00" fill="#000000">exit_criterion_id_</text>
<polygon fill="none" stroke="#000000" points="675.5,-147.2 675.5,-169.2 759.5,-169.2 759.5,-147.2 675.5,-147.2"/>
<text text-anchor="start" x="678.5" y="-154.9" font-family="Helvetica,sans-Serif" font-size="11.00" fill="#000000">varchar[255]</text>
<polygon fill="none" stroke="#000000" points="472.5,-125.2 472.5,-147.2 675.5,-147.2 675.5,-125.2 472.5,-125.2"/>
<text text-anchor="start" x="492.5" y="-132.3" font-family="Helvetica,sans-Serif" font-size="11.00" fill="#000000">extra_value_</text>
<polygon fill="none" stroke="#000000" points="675.5,-125.2 675.5,-147.2 759.5,-147.2 759.5,-125.2 675.5,-125.2"/>
<text text-anchor="start" x="678.5" y="-132.9" font-family="Helvetica,sans-Serif" font-size="11.00" fill="#000000">varchar[255]</text>
<polygon fill="none" stroke="#000000" points="472.5,-103.2 472.5,-125.2 675.5,-125.2 675.5,-103.2 472.5,-103.2"/>
<text text-anchor="start" x="492.5" y="-110.3" font-family="Helvetica,sans-Serif" font-size="11.00" fill="#000000">derived_case_def_id_</text>
<polygon fill="none" stroke="#000000" points="675.5,-103.2 675.5,-125.2 759.5,-125.2 759.5,-103.2 675.5,-103.2"/>
<text text-anchor="start" x="678.5" y="-110.9" font-family="Helvetica,sans-Serif" font-size="11.00" fill="#000000">varchar[255]</text>
<polygon fill="none" stroke="#000000" points="472.5,-81.2 472.5,-103.2 675.5,-103.2 675.5,-81.2 472.5,-81.2"/>
<text text-anchor="start" x="492.5" y="-88.3" font-family="Helvetica,sans-Serif" font-size="11.00" fill="#000000">last_unavailable_time_</text>
<polygon fill="none" stroke="#000000" points="675.5,-81.2 675.5,-103.2 759.5,-103.2 759.5,-81.2 675.5,-81.2"/>
<text text-anchor="start" x="678.3807" y="-88.9" font-family="Helvetica,sans-Serif" font-size="11.00" fill="#000000">timestamp[26,3]</text>
<polygon fill="none" stroke="#000000" points="472.5,-59.2 472.5,-81.2 675.5,-81.2 675.5,-59.2 472.5,-59.2"/>
<text text-anchor="start" x="492.5" y="-66.3" font-family="Helvetica,sans-Serif" font-size="11.00" fill="#000000">tenant_id_</text>
<polygon fill="none" stroke="#000000" points="675.5,-59.2 675.5,-81.2 759.5,-81.2 759.5,-59.2 675.5,-59.2"/>
<text text-anchor="start" x="678.5" y="-66.9" font-family="Helvetica,sans-Serif" font-size="11.00" fill="#000000">varchar[255]</text>
<polygon fill="#ffffff" stroke="transparent" points="472.5,-40.2 472.5,-59.2 759.5,-59.2 759.5,-40.2 472.5,-40.2"/>
<polygon fill="none" stroke="#000000" points="472.5,-40.2 472.5,-59.2 759.5,-59.2 759.5,-40.2 472.5,-40.2"/>
<polygon fill="#ffffff" stroke="transparent" points="473.5,-41.2 473.5,-58.2 571.5,-58.2 571.5,-41.2 473.5,-41.2"/>
<text text-anchor="start" x="475.5" y="-46.3" font-family="Helvetica,sans-Serif" font-size="11.00" fill="#000000">&lt; 2</text>
<polygon fill="#ffffff" stroke="transparent" points="571.5,-41.2 571.5,-58.2 660.5,-58.2 660.5,-41.2 571.5,-41.2"/>
<text text-anchor="start" x="612.9431" y="-46.3" font-family="Helvetica,sans-Serif" font-size="11.00" fill="#000000"> &#160;</text>
<polygon fill="#ffffff" stroke="transparent" points="660.5,-41.2 660.5,-58.2 758.5,-58.2 758.5,-41.2 660.5,-41.2"/>
<text text-anchor="start" x="740.9053" y="-46.3" font-family="Helvetica,sans-Serif" font-size="11.00" fill="#000000">1 &gt;</text>
<polygon fill="#000000" stroke="#000000" points="571.5,-41.2 571.5,-58.2 571.5,-58.2 571.5,-41.2 571.5,-41.2"/>
<polygon fill="#000000" stroke="#000000" points="660.5,-41.2 660.5,-58.2 660.5,-58.2 660.5,-41.2 660.5,-41.2"/>
<polygon fill="none" stroke="#000000" stroke-width="2" points="471,-39.2 471,-897.2 760,-897.2 760,-39.2 471,-39.2"/>
</a>
</g>
</g>
<!-- act_cmmn_ru_plan_item_inst&#45;&gt;act_cmmn_ru_case_inst -->
<g id="edge3" class="edge">
<title>act_cmmn_ru_plan_item_inst:w&#45;&gt;act_cmmn_ru_case_inst:e</title>
<path fill="none" stroke="#000000" d="M458.462,-799.8599C429.5484,-818.9466 469.0775,-906.2 421,-906.2"/>
<polygon fill="#000000" stroke="#000000" points="464.7588,-798.2183 473.4082,-799.6836 468.6294,-797.2091 472.5,-796.2 472.5,-796.2 472.5,-796.2 468.6294,-797.2091 471.5918,-792.7164 464.7588,-798.2183 464.7588,-798.2183"/>
<ellipse fill="none" stroke="#000000" cx="461.6623" cy="-799.0256" rx="3.2" ry="3.2"/>
</g>
<!-- act_cmmn_ru_plan_item_inst&#45;&gt;act_cmmn_casedef -->
<g id="edge2" class="edge">
<title>act_cmmn_ru_plan_item_inst:w&#45;&gt;act_cmmn_casedef:e</title>
<path fill="none" stroke="#000000" d="M458.6677,-813.9087C448.1493,-805.6641 447.052,-787.8389 429,-781.2 343.0712,-749.5983 301.0001,-733.2584 223,-781.2 188.6249,-802.3282 222.3491,-862.2 182,-862.2"/>
<polygon fill="#000000" stroke="#000000" points="464.8592,-815.8295 471.4333,-821.6383 468.6796,-817.0148 472.5,-818.2 472.5,-818.2 472.5,-818.2 468.6796,-817.0148 473.5667,-814.7617 464.8592,-815.8295 464.8592,-815.8295"/>
<ellipse fill="none" stroke="#000000" cx="461.8029" cy="-814.8813" rx="3.2" ry="3.2"/>
</g>
<!-- act_cmmn_ru_sentry_part_inst -->
<g id="node4" class="node">
<title>act_cmmn_ru_sentry_part_inst</title>
<g id="a_node4"><a xlink:href="../../tables/act_cmmn_ru_sentry_part_inst.html" xlink:title="act_cmmn_ru_sentry_part_inst" target="_top">
<polygon fill="#ffffff" stroke="transparent" points="810,-851.7 810,-1000.7 1041,-1000.7 1041,-851.7 810,-851.7"/>
<polygon fill="#f5f5f5" stroke="transparent" points="810.5,-977.2 810.5,-1000.2 1041.5,-1000.2 1041.5,-977.2 810.5,-977.2"/>
<polygon fill="none" stroke="#000000" points="810.5,-977.2 810.5,-1000.2 1041.5,-1000.2 1041.5,-977.2 810.5,-977.2"/>
<text text-anchor="start" x="815.5" y="-985.8" font-family="Helvetica,sans-Serif" font-weight="bold" font-size="11.00" fill="#000000">act_cmmn_ru_sentry_part_inst</text>
<text text-anchor="start" x="1007.0219" y="-985.3" font-family="Helvetica,sans-Serif" font-size="11.00" fill="#000000">[table]</text>
<polygon fill="none" stroke="#000000" points="810.5,-955.2 810.5,-977.2 1041.5,-977.2 1041.5,-955.2 810.5,-955.2"/>
<image xlink:href="../../images/primaryKeys.png" width="11px" height="12px" preserveAspectRatio="xMinYMin meet" x="815.5" y="-972.2"/>
<text text-anchor="start" x="839.5" y="-962.3" font-family="Helvetica,sans-Serif" font-size="11.00" fill="#000000">id_</text>
<polygon fill="#ffffff" stroke="transparent" points="810.5,-933.2 810.5,-955.2 1041.5,-955.2 1041.5,-933.2 810.5,-933.2"/>
<polygon fill="none" stroke="#000000" points="810.5,-933.2 810.5,-955.2 1041.5,-955.2 1041.5,-933.2 810.5,-933.2"/>
<image xlink:href="../../images/foreignKeys.png" width="11px" height="12px" preserveAspectRatio="xMinYMin meet" x="815.5" y="-950.2"/>
<text text-anchor="start" x="839.5" y="-940.3" font-family="Helvetica,sans-Serif" font-size="11.00" fill="#000000">case_def_id_</text>
<polygon fill="#ffffff" stroke="transparent" points="810.5,-911.2 810.5,-933.2 1041.5,-933.2 1041.5,-911.2 810.5,-911.2"/>
<polygon fill="none" stroke="#000000" points="810.5,-911.2 810.5,-933.2 1041.5,-933.2 1041.5,-911.2 810.5,-911.2"/>
<image xlink:href="../../images/foreignKeys.png" width="11px" height="12px" preserveAspectRatio="xMinYMin meet" x="815.5" y="-928.2"/>
<text text-anchor="start" x="839.5" y="-918.3" font-family="Helvetica,sans-Serif" font-size="11.00" fill="#000000">case_inst_id_</text>
<polygon fill="#ffffff" stroke="transparent" points="810.5,-889.2 810.5,-911.2 1041.5,-911.2 1041.5,-889.2 810.5,-889.2"/>
<polygon fill="none" stroke="#000000" points="810.5,-889.2 810.5,-911.2 1041.5,-911.2 1041.5,-889.2 810.5,-889.2"/>
<image xlink:href="../../images/foreignKeys.png" width="11px" height="12px" preserveAspectRatio="xMinYMin meet" x="815.5" y="-906.2"/>
<text text-anchor="start" x="839.5" y="-896.3" font-family="Helvetica,sans-Serif" font-size="11.00" fill="#000000">plan_item_inst_id_</text>
<polygon fill="none" stroke="#000000" points="810.5,-870.2 810.5,-889.2 1041.5,-889.2 1041.5,-870.2 810.5,-870.2"/>
<text text-anchor="start" x="813.5" y="-876.3" font-family="Helvetica,sans-Serif" font-size="11.00" fill="#000000">...</text>
<polygon fill="#ffffff" stroke="transparent" points="810.5,-851.2 810.5,-870.2 1041.5,-870.2 1041.5,-851.2 810.5,-851.2"/>
<polygon fill="none" stroke="#000000" points="810.5,-851.2 810.5,-870.2 1041.5,-870.2 1041.5,-851.2 810.5,-851.2"/>
<polygon fill="#ffffff" stroke="transparent" points="811.5,-852.2 811.5,-869.2 894.5,-869.2 894.5,-852.2 811.5,-852.2"/>
<text text-anchor="start" x="813.5" y="-857.3" font-family="Helvetica,sans-Serif" font-size="11.00" fill="#000000">&lt; 3</text>
<polygon fill="#ffffff" stroke="transparent" points="894.5,-852.2 894.5,-869.2 967.5,-869.2 967.5,-852.2 894.5,-852.2"/>
<text text-anchor="start" x="927.9431" y="-857.3" font-family="Helvetica,sans-Serif" font-size="11.00" fill="#000000"> &#160;</text>
<polygon fill="#ffffff" stroke="transparent" points="967.5,-852.2 967.5,-869.2 1040.5,-869.2 1040.5,-852.2 967.5,-852.2"/>
<text text-anchor="start" x="1032.3862" y="-857.3" font-family="Helvetica,sans-Serif" font-size="11.00" fill="#000000"> &#160;</text>
<polygon fill="#000000" stroke="#000000" points="894.5,-852.2 894.5,-869.2 894.5,-869.2 894.5,-852.2 894.5,-852.2"/>
<polygon fill="#000000" stroke="#000000" points="967.5,-852.2 967.5,-869.2 967.5,-869.2 967.5,-852.2 967.5,-852.2"/>
</a>
</g>
</g>
<!-- act_cmmn_ru_sentry_part_inst&#45;&gt;act_cmmn_ru_case_inst -->
<g id="edge5" class="edge">
<title>act_cmmn_ru_sentry_part_inst:w&#45;&gt;act_cmmn_ru_case_inst:e</title>
<path fill="none" stroke="#000000" d="M795.8682,-922.1781C652.8759,-921.7418 611.8701,-914.8655 462,-908.2 443.7741,-907.3894 439.2439,-906.2 421,-906.2"/>
<polygon fill="#000000" stroke="#000000" points="802.5,-922.188 810.4946,-925.8 806.5,-922.194 810.5,-922.2 810.5,-922.2 810.5,-922.2 806.5,-922.194 810.5054,-918.6 802.5,-922.188 802.5,-922.188"/>
<ellipse fill="none" stroke="#000000" cx="799.3" cy="-922.1831" rx="3.2" ry="3.2"/>
</g>
<!-- act_cmmn_ru_sentry_part_inst&#45;&gt;act_cmmn_casedef -->
<g id="edge4" class="edge">
<title>act_cmmn_ru_sentry_part_inst:w&#45;&gt;act_cmmn_casedef:e</title>
<path fill="none" stroke="#000000" d="M795.7484,-944.3578C545.2745,-949.725 438.7209,-1089.3336 223,-951.2 186.3238,-927.715 225.551,-862.2 182,-862.2"/>
<polygon fill="#000000" stroke="#000000" points="802.5005,-944.2856 810.5385,-947.7998 806.5002,-944.2428 810.5,-944.2 810.5,-944.2 810.5,-944.2 806.5002,-944.2428 810.4615,-940.6002 802.5005,-944.2856 802.5005,-944.2856"/>
<ellipse fill="none" stroke="#000000" cx="799.3006" cy="-944.3199" rx="3.2" ry="3.2"/>
</g>
<!-- act_cmmn_ru_sentry_part_inst&#45;&gt;act_cmmn_ru_plan_item_inst -->
<g id="edge6" class="edge">
<title>act_cmmn_ru_sentry_part_inst:w&#45;&gt;act_cmmn_ru_plan_item_inst:e</title>
<path fill="none" stroke="#000000" d="M796.4897,-895.8409C783.0637,-885.8595 781.8043,-862.2 759.5,-862.2"/>
<polygon fill="#000000" stroke="#000000" points="802.8612,-897.8233 809.4305,-903.6375 806.6806,-899.0116 810.5,-900.2 810.5,-900.2 810.5,-900.2 806.6806,-899.0116 811.5695,-896.7625 802.8612,-897.8233 802.8612,-897.8233"/>
<ellipse fill="none" stroke="#000000" cx="799.8057" cy="-896.8726" rx="3.2" ry="3.2"/>
</g>
</g>
</svg>
