<?xml version="1.0" encoding="UTF-8" standalone="no"?>
<!DOCTYPE svg PUBLIC "-//W3C//DTD SVG 1.1//EN"
 "http://www.w3.org/Graphics/SVG/1.1/DTD/svg11.dtd">
<!-- Generated by graphviz version 2.40.1 (20161225.0304)
 -->
<!-- Title: oneDegreeRelationshipsDiagram Pages: 1 -->
<svg width="1296pt" height="528pt"
 viewBox="0.00 0.00 1296.00 528.33" xmlns="http://www.w3.org/2000/svg" xmlns:xlink="http://www.w3.org/1999/xlink">
<g id="graph0" class="graph" transform="scale(1 1) rotate(0) translate(4 524.3278)">
<title>oneDegreeRelationshipsDiagram</title>
<polygon fill="#ffffff" stroke="transparent" points="-4,4 -4,-524.3278 1292,-524.3278 1292,4 -4,4"/>
<text text-anchor="middle" x="72.4936" y="-7.3" font-family="Helvetica,sans-Serif" font-size="11.00" fill="#000000">Generated by SchemaSpy</text>
<!-- act_cmmn_casedef -->
<g id="node1" class="node">
<title>act_cmmn_casedef</title>
<g id="a_node1"><a xlink:href="../../tables/act_cmmn_casedef.html" xlink:title="act_cmmn_casedef" target="_top">
<polygon fill="#ffffff" stroke="transparent" points="240,-38.2 240,-370.2 491,-370.2 491,-38.2 240,-38.2"/>
<polygon fill="#f5f5f5" stroke="transparent" points="242.5,-345.2 242.5,-368.2 489.5,-368.2 489.5,-345.2 242.5,-345.2"/>
<polygon fill="none" stroke="#000000" points="242.5,-345.2 242.5,-368.2 489.5,-368.2 489.5,-345.2 242.5,-345.2"/>
<text text-anchor="start" x="247.5" y="-353.8" font-family="Helvetica,sans-Serif" font-weight="bold" font-size="11.00" fill="#000000">act_cmmn_casedef</text>
<text text-anchor="start" x="454.5437" y="-353.3" font-family="Helvetica,sans-Serif" font-size="11.00" fill="#000000">[table]</text>
<polygon fill="none" stroke="#000000" points="242.5,-323.2 242.5,-345.2 416.5,-345.2 416.5,-323.2 242.5,-323.2"/>
<image xlink:href="../../images/primaryKeys.png" width="11px" height="12px" preserveAspectRatio="xMinYMin meet" x="247.5" y="-340.2"/>
<text text-anchor="start" x="262.5" y="-330.3" font-family="Helvetica,sans-Serif" font-size="11.00" fill="#000000">id_</text>
<polygon fill="none" stroke="#000000" points="416.5,-323.2 416.5,-345.2 489.5,-345.2 489.5,-323.2 416.5,-323.2"/>
<text text-anchor="start" x="419.5" y="-330.9" font-family="Helvetica,sans-Serif" font-size="11.00" fill="#000000">varchar[255]</text>
<polygon fill="none" stroke="#000000" points="242.5,-301.2 242.5,-323.2 416.5,-323.2 416.5,-301.2 242.5,-301.2"/>
<text text-anchor="start" x="262.5" y="-308.3" font-family="Helvetica,sans-Serif" font-size="11.00" fill="#000000">rev_</text>
<polygon fill="none" stroke="#000000" points="416.5,-301.2 416.5,-323.2 489.5,-323.2 489.5,-301.2 416.5,-301.2"/>
<text text-anchor="start" x="419.5" y="-308.9" font-family="Helvetica,sans-Serif" font-size="11.00" fill="#000000">int4[10]</text>
<polygon fill="none" stroke="#000000" points="242.5,-279.2 242.5,-301.2 416.5,-301.2 416.5,-279.2 242.5,-279.2"/>
<text text-anchor="start" x="262.5" y="-286.3" font-family="Helvetica,sans-Serif" font-size="11.00" fill="#000000">name_</text>
<polygon fill="none" stroke="#000000" points="416.5,-279.2 416.5,-301.2 489.5,-301.2 489.5,-279.2 416.5,-279.2"/>
<text text-anchor="start" x="419.5" y="-286.9" font-family="Helvetica,sans-Serif" font-size="11.00" fill="#000000">varchar[255]</text>
<polygon fill="#ffffff" stroke="transparent" points="242.5,-257.2 242.5,-279.2 416.5,-279.2 416.5,-257.2 242.5,-257.2"/>
<polygon fill="none" stroke="#000000" points="242.5,-257.2 242.5,-279.2 416.5,-279.2 416.5,-257.2 242.5,-257.2"/>
<text text-anchor="start" x="262.5" y="-264.3" font-family="Helvetica,sans-Serif" font-size="11.00" fill="#000000">key_</text>
<polygon fill="none" stroke="#000000" points="416.5,-257.2 416.5,-279.2 489.5,-279.2 489.5,-257.2 416.5,-257.2"/>
<text text-anchor="start" x="419.5" y="-264.9" font-family="Helvetica,sans-Serif" font-size="11.00" fill="#000000">varchar[255]</text>
<polygon fill="#ffffff" stroke="transparent" points="242.5,-235.2 242.5,-257.2 416.5,-257.2 416.5,-235.2 242.5,-235.2"/>
<polygon fill="none" stroke="#000000" points="242.5,-235.2 242.5,-257.2 416.5,-257.2 416.5,-235.2 242.5,-235.2"/>
<text text-anchor="start" x="262.5" y="-242.3" font-family="Helvetica,sans-Serif" font-size="11.00" fill="#000000">version_</text>
<polygon fill="none" stroke="#000000" points="416.5,-235.2 416.5,-257.2 489.5,-257.2 489.5,-235.2 416.5,-235.2"/>
<text text-anchor="start" x="419.5" y="-242.9" font-family="Helvetica,sans-Serif" font-size="11.00" fill="#000000">int4[10]</text>
<polygon fill="none" stroke="#000000" points="242.5,-213.2 242.5,-235.2 416.5,-235.2 416.5,-213.2 242.5,-213.2"/>
<text text-anchor="start" x="262.5" y="-220.3" font-family="Helvetica,sans-Serif" font-size="11.00" fill="#000000">category_</text>
<polygon fill="none" stroke="#000000" points="416.5,-213.2 416.5,-235.2 489.5,-235.2 489.5,-213.2 416.5,-213.2"/>
<text text-anchor="start" x="419.5" y="-220.9" font-family="Helvetica,sans-Serif" font-size="11.00" fill="#000000">varchar[255]</text>
<polygon fill="#ffffff" stroke="transparent" points="242.5,-191.2 242.5,-213.2 416.5,-213.2 416.5,-191.2 242.5,-191.2"/>
<polygon fill="none" stroke="#000000" points="242.5,-191.2 242.5,-213.2 416.5,-213.2 416.5,-191.2 242.5,-191.2"/>
<image xlink:href="../../images/foreignKeys.png" width="11px" height="12px" preserveAspectRatio="xMinYMin meet" x="247.5" y="-208.2"/>
<text text-anchor="start" x="262.5" y="-198.3" font-family="Helvetica,sans-Serif" font-size="11.00" fill="#000000">deployment_id_</text>
<polygon fill="none" stroke="#000000" points="416.5,-191.2 416.5,-213.2 489.5,-213.2 489.5,-191.2 416.5,-191.2"/>
<text text-anchor="start" x="419.5" y="-198.9" font-family="Helvetica,sans-Serif" font-size="11.00" fill="#000000">varchar[255]</text>
<polygon fill="none" stroke="#000000" points="242.5,-169.2 242.5,-191.2 416.5,-191.2 416.5,-169.2 242.5,-169.2"/>
<text text-anchor="start" x="262.5" y="-176.3" font-family="Helvetica,sans-Serif" font-size="11.00" fill="#000000">resource_name_</text>
<polygon fill="none" stroke="#000000" points="416.5,-169.2 416.5,-191.2 489.5,-191.2 489.5,-169.2 416.5,-169.2"/>
<text text-anchor="start" x="419.3791" y="-176.9" font-family="Helvetica,sans-Serif" font-size="11.00" fill="#000000">varchar[4000]</text>
<polygon fill="none" stroke="#000000" points="242.5,-147.2 242.5,-169.2 416.5,-169.2 416.5,-147.2 242.5,-147.2"/>
<text text-anchor="start" x="262.5" y="-154.3" font-family="Helvetica,sans-Serif" font-size="11.00" fill="#000000">description_</text>
<polygon fill="none" stroke="#000000" points="416.5,-147.2 416.5,-169.2 489.5,-169.2 489.5,-147.2 416.5,-147.2"/>
<text text-anchor="start" x="419.3791" y="-154.9" font-family="Helvetica,sans-Serif" font-size="11.00" fill="#000000">varchar[4000]</text>
<polygon fill="none" stroke="#000000" points="242.5,-125.2 242.5,-147.2 416.5,-147.2 416.5,-125.2 242.5,-125.2"/>
<text text-anchor="start" x="262.5" y="-132.3" font-family="Helvetica,sans-Serif" font-size="11.00" fill="#000000">has_graphical_notation_</text>
<polygon fill="none" stroke="#000000" points="416.5,-125.2 416.5,-147.2 489.5,-147.2 489.5,-125.2 416.5,-125.2"/>
<text text-anchor="start" x="419.5" y="-132.9" font-family="Helvetica,sans-Serif" font-size="11.00" fill="#000000">bool[1]</text>
<polygon fill="none" stroke="#000000" points="242.5,-103.2 242.5,-125.2 416.5,-125.2 416.5,-103.2 242.5,-103.2"/>
<text text-anchor="start" x="262.5" y="-110.3" font-family="Helvetica,sans-Serif" font-size="11.00" fill="#000000">dgrm_resource_name_</text>
<polygon fill="none" stroke="#000000" points="416.5,-103.2 416.5,-125.2 489.5,-125.2 489.5,-103.2 416.5,-103.2"/>
<text text-anchor="start" x="419.3791" y="-110.9" font-family="Helvetica,sans-Serif" font-size="11.00" fill="#000000">varchar[4000]</text>
<polygon fill="none" stroke="#000000" points="242.5,-81.2 242.5,-103.2 416.5,-103.2 416.5,-81.2 242.5,-81.2"/>
<text text-anchor="start" x="262.5" y="-88.3" font-family="Helvetica,sans-Serif" font-size="11.00" fill="#000000">has_start_form_key_</text>
<polygon fill="none" stroke="#000000" points="416.5,-81.2 416.5,-103.2 489.5,-103.2 489.5,-81.2 416.5,-81.2"/>
<text text-anchor="start" x="419.5" y="-88.9" font-family="Helvetica,sans-Serif" font-size="11.00" fill="#000000">bool[1]</text>
<polygon fill="#ffffff" stroke="transparent" points="242.5,-59.2 242.5,-81.2 416.5,-81.2 416.5,-59.2 242.5,-59.2"/>
<polygon fill="none" stroke="#000000" points="242.5,-59.2 242.5,-81.2 416.5,-81.2 416.5,-59.2 242.5,-59.2"/>
<text text-anchor="start" x="262.5" y="-66.3" font-family="Helvetica,sans-Serif" font-size="11.00" fill="#000000">tenant_id_</text>
<polygon fill="none" stroke="#000000" points="416.5,-59.2 416.5,-81.2 489.5,-81.2 489.5,-59.2 416.5,-59.2"/>
<text text-anchor="start" x="419.5" y="-66.9" font-family="Helvetica,sans-Serif" font-size="11.00" fill="#000000">varchar[255]</text>
<polygon fill="#ffffff" stroke="transparent" points="242.5,-40.2 242.5,-59.2 489.5,-59.2 489.5,-40.2 242.5,-40.2"/>
<polygon fill="none" stroke="#000000" points="242.5,-40.2 242.5,-59.2 489.5,-59.2 489.5,-40.2 242.5,-40.2"/>
<polygon fill="#ffffff" stroke="transparent" points="243.5,-41.2 243.5,-58.2 328.5,-58.2 328.5,-41.2 243.5,-41.2"/>
<text text-anchor="start" x="245.5" y="-46.3" font-family="Helvetica,sans-Serif" font-size="11.00" fill="#000000">&lt; 1</text>
<polygon fill="#ffffff" stroke="transparent" points="328.5,-41.2 328.5,-58.2 404.5,-58.2 404.5,-41.2 328.5,-41.2"/>
<text text-anchor="start" x="363.4431" y="-46.3" font-family="Helvetica,sans-Serif" font-size="11.00" fill="#000000"> &#160;</text>
<polygon fill="#ffffff" stroke="transparent" points="404.5,-41.2 404.5,-58.2 488.5,-58.2 488.5,-41.2 404.5,-41.2"/>
<text text-anchor="start" x="470.9053" y="-46.3" font-family="Helvetica,sans-Serif" font-size="11.00" fill="#000000">4 &gt;</text>
<polygon fill="#000000" stroke="#000000" points="328.5,-41.2 328.5,-58.2 328.5,-58.2 328.5,-41.2 328.5,-41.2"/>
<polygon fill="#000000" stroke="#000000" points="404.5,-41.2 404.5,-58.2 404.5,-58.2 404.5,-41.2 404.5,-41.2"/>
<polygon fill="none" stroke="#000000" stroke-width="2" points="241,-39.2 241,-369.2 490,-369.2 490,-39.2 241,-39.2"/>
</a>
</g>
</g>
<!-- act_cmmn_deployment -->
<g id="node2" class="node">
<title>act_cmmn_deployment</title>
<g id="a_node2"><a xlink:href="../../tables/act_cmmn_deployment.html" xlink:title="act_cmmn_deployment" target="_top">
<polygon fill="#ffffff" stroke="transparent" points="8,-153.7 8,-236.7 191,-236.7 191,-153.7 8,-153.7"/>
<polygon fill="#f5f5f5" stroke="transparent" points="8.5,-213.2 8.5,-236.2 191.5,-236.2 191.5,-213.2 8.5,-213.2"/>
<polygon fill="none" stroke="#000000" points="8.5,-213.2 8.5,-236.2 191.5,-236.2 191.5,-213.2 8.5,-213.2"/>
<text text-anchor="start" x="13.5" y="-221.8" font-family="Helvetica,sans-Serif" font-weight="bold" font-size="11.00" fill="#000000">act_cmmn_deployment</text>
<text text-anchor="start" x="157.0219" y="-221.3" font-family="Helvetica,sans-Serif" font-size="11.00" fill="#000000">[table]</text>
<polygon fill="none" stroke="#000000" points="8.5,-191.2 8.5,-213.2 191.5,-213.2 191.5,-191.2 8.5,-191.2"/>
<image xlink:href="../../images/primaryKeys.png" width="11px" height="12px" preserveAspectRatio="xMinYMin meet" x="13.5" y="-208.2"/>
<text text-anchor="start" x="37.5" y="-198.3" font-family="Helvetica,sans-Serif" font-size="11.00" fill="#000000">id_</text>
<polygon fill="none" stroke="#000000" points="8.5,-172.2 8.5,-191.2 191.5,-191.2 191.5,-172.2 8.5,-172.2"/>
<text text-anchor="start" x="11.5" y="-178.3" font-family="Helvetica,sans-Serif" font-size="11.00" fill="#000000">...</text>
<polygon fill="#ffffff" stroke="transparent" points="8.5,-153.2 8.5,-172.2 191.5,-172.2 191.5,-153.2 8.5,-153.2"/>
<polygon fill="none" stroke="#000000" points="8.5,-153.2 8.5,-172.2 191.5,-172.2 191.5,-153.2 8.5,-153.2"/>
<polygon fill="#ffffff" stroke="transparent" points="9.5,-154.2 9.5,-171.2 67.5,-171.2 67.5,-154.2 9.5,-154.2"/>
<text text-anchor="start" x="11.5" y="-159.3" font-family="Helvetica,sans-Serif" font-size="11.00" fill="#000000"> &#160;</text>
<polygon fill="#ffffff" stroke="transparent" points="67.5,-154.2 67.5,-171.2 124.5,-171.2 124.5,-154.2 67.5,-154.2"/>
<text text-anchor="start" x="92.9431" y="-159.3" font-family="Helvetica,sans-Serif" font-size="11.00" fill="#000000"> &#160;</text>
<polygon fill="#ffffff" stroke="transparent" points="124.5,-154.2 124.5,-171.2 190.5,-171.2 190.5,-154.2 124.5,-154.2"/>
<text text-anchor="start" x="172.9053" y="-159.3" font-family="Helvetica,sans-Serif" font-size="11.00" fill="#000000">2 &gt;</text>
<polygon fill="#000000" stroke="#000000" points="67.5,-154.2 67.5,-171.2 67.5,-171.2 67.5,-154.2 67.5,-154.2"/>
<polygon fill="#000000" stroke="#000000" points="124.5,-154.2 124.5,-171.2 124.5,-171.2 124.5,-154.2 124.5,-154.2"/>
</a>
</g>
</g>
<!-- act_cmmn_casedef&#45;&gt;act_cmmn_deployment -->
<g id="edge1" class="edge">
<title>act_cmmn_casedef:w&#45;&gt;act_cmmn_deployment:e</title>
<path fill="none" stroke="#000000" d="M227.776,-202.2C215.7815,-202.2 208.3229,-202.2 191.5,-202.2"/>
<polygon fill="#000000" stroke="#000000" points="234.5,-202.2001 242.5,-205.8 238.5,-202.2 242.5,-202.2 242.5,-202.2 242.5,-202.2 238.5,-202.2 242.5,-198.6 234.5,-202.2001 234.5,-202.2001"/>
<ellipse fill="none" stroke="#000000" cx="231.3" cy="-202.2001" rx="3.2" ry="3.2"/>
</g>
<!-- act_cmmn_ru_case_inst -->
<g id="node3" class="node">
<title>act_cmmn_ru_case_inst</title>
<g id="a_node3"><a xlink:href="../../tables/act_cmmn_ru_case_inst.html" xlink:title="act_cmmn_ru_case_inst" target="_top">
<polygon fill="#ffffff" stroke="transparent" points="540,-212.7 540,-361.7 730,-361.7 730,-212.7 540,-212.7"/>
<polygon fill="#f5f5f5" stroke="transparent" points="540,-338.2 540,-361.2 730,-361.2 730,-338.2 540,-338.2"/>
<polygon fill="none" stroke="#000000" points="540,-338.2 540,-361.2 730,-361.2 730,-338.2 540,-338.2"/>
<text text-anchor="start" x="545" y="-346.8" font-family="Helvetica,sans-Serif" font-weight="bold" font-size="11.00" fill="#000000">act_cmmn_ru_case_inst</text>
<text text-anchor="start" x="695.5219" y="-346.3" font-family="Helvetica,sans-Serif" font-size="11.00" fill="#000000">[table]</text>
<polygon fill="none" stroke="#000000" points="540,-316.2 540,-338.2 730,-338.2 730,-316.2 540,-316.2"/>
<image xlink:href="../../images/primaryKeys.png" width="11px" height="12px" preserveAspectRatio="xMinYMin meet" x="545" y="-333.2"/>
<text text-anchor="start" x="563" y="-323.3" font-family="Helvetica,sans-Serif" font-size="11.00" fill="#000000">id_</text>
<polygon fill="#ffffff" stroke="transparent" points="540,-294.2 540,-316.2 730,-316.2 730,-294.2 540,-294.2"/>
<polygon fill="none" stroke="#000000" points="540,-294.2 540,-316.2 730,-316.2 730,-294.2 540,-294.2"/>
<text text-anchor="start" x="563" y="-301.3" font-family="Helvetica,sans-Serif" font-size="11.00" fill="#000000">parent_id_</text>
<polygon fill="#ffffff" stroke="transparent" points="540,-272.2 540,-294.2 730,-294.2 730,-272.2 540,-272.2"/>
<polygon fill="none" stroke="#000000" points="540,-272.2 540,-294.2 730,-294.2 730,-272.2 540,-272.2"/>
<image xlink:href="../../images/foreignKeys.png" width="11px" height="12px" preserveAspectRatio="xMinYMin meet" x="545" y="-289.2"/>
<text text-anchor="start" x="563" y="-279.3" font-family="Helvetica,sans-Serif" font-size="11.00" fill="#000000">case_def_id_</text>
<polygon fill="#ffffff" stroke="transparent" points="540,-250.2 540,-272.2 730,-272.2 730,-250.2 540,-250.2"/>
<polygon fill="none" stroke="#000000" points="540,-250.2 540,-272.2 730,-272.2 730,-250.2 540,-250.2"/>
<text text-anchor="start" x="563" y="-257.3" font-family="Helvetica,sans-Serif" font-size="11.00" fill="#000000">reference_id_</text>
<polygon fill="none" stroke="#000000" points="540,-231.2 540,-250.2 730,-250.2 730,-231.2 540,-231.2"/>
<text text-anchor="start" x="543" y="-237.3" font-family="Helvetica,sans-Serif" font-size="11.00" fill="#000000">...</text>
<polygon fill="#ffffff" stroke="transparent" points="540,-212.2 540,-231.2 730,-231.2 730,-212.2 540,-212.2"/>
<polygon fill="none" stroke="#000000" points="540,-212.2 540,-231.2 730,-231.2 730,-212.2 540,-212.2"/>
<polygon fill="#ffffff" stroke="transparent" points="541,-213.2 541,-230.2 607,-230.2 607,-213.2 541,-213.2"/>
<text text-anchor="start" x="543" y="-218.3" font-family="Helvetica,sans-Serif" font-size="11.00" fill="#000000">&lt; 1</text>
<polygon fill="#ffffff" stroke="transparent" points="607,-213.2 607,-230.2 664,-230.2 664,-213.2 607,-213.2"/>
<text text-anchor="start" x="632.4431" y="-218.3" font-family="Helvetica,sans-Serif" font-size="11.00" fill="#000000"> &#160;</text>
<polygon fill="#ffffff" stroke="transparent" points="664,-213.2 664,-230.2 729,-230.2 729,-213.2 664,-213.2"/>
<text text-anchor="start" x="711.4053" y="-218.3" font-family="Helvetica,sans-Serif" font-size="11.00" fill="#000000">3 &gt;</text>
<polygon fill="#000000" stroke="#000000" points="607,-213.2 607,-230.2 607,-230.2 607,-213.2 607,-213.2"/>
<polygon fill="#000000" stroke="#000000" points="664,-213.2 664,-230.2 664,-230.2 664,-213.2 664,-213.2"/>
</a>
</g>
</g>
<!-- act_cmmn_ru_case_inst&#45;&gt;act_cmmn_casedef -->
<g id="edge2" class="edge">
<title>act_cmmn_ru_case_inst:w&#45;&gt;act_cmmn_casedef:e</title>
<path fill="none" stroke="#000000" d="M526.2279,-287.9065C511.4989,-300.532 515.4177,-334.2 489.5,-334.2"/>
<polygon fill="#000000" stroke="#000000" points="532.4298,-285.7871 541.1642,-286.6066 536.2149,-284.4935 540,-283.2 540,-283.2 540,-283.2 536.2149,-284.4935 538.8358,-279.7934 532.4298,-285.7871 532.4298,-285.7871"/>
<ellipse fill="none" stroke="#000000" cx="529.4018" cy="-286.8219" rx="3.2" ry="3.2"/>
</g>
<!-- act_cmmn_ru_mil_inst -->
<g id="node4" class="node">
<title>act_cmmn_ru_mil_inst</title>
<g id="a_node4"><a xlink:href="../../tables/act_cmmn_ru_mil_inst.html" xlink:title="act_cmmn_ru_mil_inst" target="_top">
<polygon fill="#ffffff" stroke="transparent" points="800,-315.7 800,-442.7 979,-442.7 979,-315.7 800,-315.7"/>
<polygon fill="#f5f5f5" stroke="transparent" points="800.5,-419.2 800.5,-442.2 979.5,-442.2 979.5,-419.2 800.5,-419.2"/>
<polygon fill="none" stroke="#000000" points="800.5,-419.2 800.5,-442.2 979.5,-442.2 979.5,-419.2 800.5,-419.2"/>
<text text-anchor="start" x="805.5" y="-427.8" font-family="Helvetica,sans-Serif" font-weight="bold" font-size="11.00" fill="#000000">act_cmmn_ru_mil_inst</text>
<text text-anchor="start" x="945.0219" y="-427.3" font-family="Helvetica,sans-Serif" font-size="11.00" fill="#000000">[table]</text>
<polygon fill="none" stroke="#000000" points="800.5,-397.2 800.5,-419.2 979.5,-419.2 979.5,-397.2 800.5,-397.2"/>
<image xlink:href="../../images/primaryKeys.png" width="11px" height="12px" preserveAspectRatio="xMinYMin meet" x="805.5" y="-414.2"/>
<text text-anchor="start" x="829.5" y="-404.3" font-family="Helvetica,sans-Serif" font-size="11.00" fill="#000000">id_</text>
<polygon fill="#ffffff" stroke="transparent" points="800.5,-375.2 800.5,-397.2 979.5,-397.2 979.5,-375.2 800.5,-375.2"/>
<polygon fill="none" stroke="#000000" points="800.5,-375.2 800.5,-397.2 979.5,-397.2 979.5,-375.2 800.5,-375.2"/>
<image xlink:href="../../images/foreignKeys.png" width="11px" height="12px" preserveAspectRatio="xMinYMin meet" x="805.5" y="-392.2"/>
<text text-anchor="start" x="829.5" y="-382.3" font-family="Helvetica,sans-Serif" font-size="11.00" fill="#000000">case_inst_id_</text>
<polygon fill="#ffffff" stroke="transparent" points="800.5,-353.2 800.5,-375.2 979.5,-375.2 979.5,-353.2 800.5,-353.2"/>
<polygon fill="none" stroke="#000000" points="800.5,-353.2 800.5,-375.2 979.5,-375.2 979.5,-353.2 800.5,-353.2"/>
<image xlink:href="../../images/foreignKeys.png" width="11px" height="12px" preserveAspectRatio="xMinYMin meet" x="805.5" y="-370.2"/>
<text text-anchor="start" x="829.5" y="-360.3" font-family="Helvetica,sans-Serif" font-size="11.00" fill="#000000">case_def_id_</text>
<polygon fill="none" stroke="#000000" points="800.5,-334.2 800.5,-353.2 979.5,-353.2 979.5,-334.2 800.5,-334.2"/>
<text text-anchor="start" x="803.5" y="-340.3" font-family="Helvetica,sans-Serif" font-size="11.00" fill="#000000">...</text>
<polygon fill="#ffffff" stroke="transparent" points="800.5,-315.2 800.5,-334.2 979.5,-334.2 979.5,-315.2 800.5,-315.2"/>
<polygon fill="none" stroke="#000000" points="800.5,-315.2 800.5,-334.2 979.5,-334.2 979.5,-315.2 800.5,-315.2"/>
<polygon fill="#ffffff" stroke="transparent" points="801.5,-316.2 801.5,-333.2 866.5,-333.2 866.5,-316.2 801.5,-316.2"/>
<text text-anchor="start" x="803.5" y="-321.3" font-family="Helvetica,sans-Serif" font-size="11.00" fill="#000000">&lt; 2</text>
<polygon fill="#ffffff" stroke="transparent" points="866.5,-316.2 866.5,-333.2 922.5,-333.2 922.5,-316.2 866.5,-316.2"/>
<text text-anchor="start" x="891.4431" y="-321.3" font-family="Helvetica,sans-Serif" font-size="11.00" fill="#000000"> &#160;</text>
<polygon fill="#ffffff" stroke="transparent" points="922.5,-316.2 922.5,-333.2 978.5,-333.2 978.5,-316.2 922.5,-316.2"/>
<text text-anchor="start" x="970.3862" y="-321.3" font-family="Helvetica,sans-Serif" font-size="11.00" fill="#000000"> &#160;</text>
<polygon fill="#000000" stroke="#000000" points="866.5,-316.2 866.5,-333.2 866.5,-333.2 866.5,-316.2 866.5,-316.2"/>
<polygon fill="#000000" stroke="#000000" points="922.5,-316.2 922.5,-333.2 922.5,-333.2 922.5,-316.2 922.5,-316.2"/>
</a>
</g>
</g>
<!-- act_cmmn_ru_mil_inst&#45;&gt;act_cmmn_casedef -->
<g id="edge3" class="edge">
<title>act_cmmn_ru_mil_inst:w&#45;&gt;act_cmmn_casedef:e</title>
<path fill="none" stroke="#000000" d="M785.7315,-364.8804C768.9526,-366.5432 760.2708,-370.7805 738,-372.2 646.6299,-378.0239 617.5315,-404.8617 532,-372.2 508.329,-363.1608 514.8382,-334.2 489.5,-334.2"/>
<polygon fill="#000000" stroke="#000000" points="792.5085,-364.5682 800.6657,-367.7962 796.5042,-364.3841 800.5,-364.2 800.5,-364.2 800.5,-364.2 796.5042,-364.3841 800.3343,-360.6038 792.5085,-364.5682 792.5085,-364.5682"/>
<ellipse fill="none" stroke="#000000" cx="789.3119" cy="-364.7155" rx="3.2" ry="3.2"/>
</g>
<!-- act_cmmn_ru_mil_inst&#45;&gt;act_cmmn_ru_case_inst -->
<g id="edge4" class="edge">
<title>act_cmmn_ru_mil_inst:w&#45;&gt;act_cmmn_ru_case_inst:e</title>
<path fill="none" stroke="#000000" d="M786.3958,-383.1931C761.7355,-371.17 765.272,-327.2 730,-327.2"/>
<polygon fill="#000000" stroke="#000000" points="792.6758,-384.5319 799.7494,-389.7209 796.5879,-385.3659 800.5,-386.2 800.5,-386.2 800.5,-386.2 796.5879,-385.3659 801.2506,-382.6791 792.6758,-384.5319 792.6758,-384.5319"/>
<ellipse fill="none" stroke="#000000" cx="789.5462" cy="-383.8647" rx="3.2" ry="3.2"/>
</g>
<!-- act_cmmn_ru_plan_item_inst -->
<g id="node5" class="node">
<title>act_cmmn_ru_plan_item_inst</title>
<g id="a_node5"><a xlink:href="../../tables/act_cmmn_ru_plan_item_inst.html" xlink:title="act_cmmn_ru_plan_item_inst" target="_top">
<polygon fill="#ffffff" stroke="transparent" points="779,-117.7 779,-266.7 1000,-266.7 1000,-117.7 779,-117.7"/>
<polygon fill="#f5f5f5" stroke="transparent" points="779.5,-243.2 779.5,-266.2 1000.5,-266.2 1000.5,-243.2 779.5,-243.2"/>
<polygon fill="none" stroke="#000000" points="779.5,-243.2 779.5,-266.2 1000.5,-266.2 1000.5,-243.2 779.5,-243.2"/>
<text text-anchor="start" x="784.5" y="-251.8" font-family="Helvetica,sans-Serif" font-weight="bold" font-size="11.00" fill="#000000">act_cmmn_ru_plan_item_inst</text>
<text text-anchor="start" x="966.0219" y="-251.3" font-family="Helvetica,sans-Serif" font-size="11.00" fill="#000000">[table]</text>
<polygon fill="none" stroke="#000000" points="779.5,-221.2 779.5,-243.2 1000.5,-243.2 1000.5,-221.2 779.5,-221.2"/>
<image xlink:href="../../images/primaryKeys.png" width="11px" height="12px" preserveAspectRatio="xMinYMin meet" x="784.5" y="-238.2"/>
<text text-anchor="start" x="808.5" y="-228.3" font-family="Helvetica,sans-Serif" font-size="11.00" fill="#000000">id_</text>
<polygon fill="#ffffff" stroke="transparent" points="779.5,-199.2 779.5,-221.2 1000.5,-221.2 1000.5,-199.2 779.5,-199.2"/>
<polygon fill="none" stroke="#000000" points="779.5,-199.2 779.5,-221.2 1000.5,-221.2 1000.5,-199.2 779.5,-199.2"/>
<image xlink:href="../../images/foreignKeys.png" width="11px" height="12px" preserveAspectRatio="xMinYMin meet" x="784.5" y="-216.2"/>
<text text-anchor="start" x="808.5" y="-206.3" font-family="Helvetica,sans-Serif" font-size="11.00" fill="#000000">case_def_id_</text>
<polygon fill="#ffffff" stroke="transparent" points="779.5,-177.2 779.5,-199.2 1000.5,-199.2 1000.5,-177.2 779.5,-177.2"/>
<polygon fill="none" stroke="#000000" points="779.5,-177.2 779.5,-199.2 1000.5,-199.2 1000.5,-177.2 779.5,-177.2"/>
<image xlink:href="../../images/foreignKeys.png" width="11px" height="12px" preserveAspectRatio="xMinYMin meet" x="784.5" y="-194.2"/>
<text text-anchor="start" x="808.5" y="-184.3" font-family="Helvetica,sans-Serif" font-size="11.00" fill="#000000">case_inst_id_</text>
<polygon fill="#ffffff" stroke="transparent" points="779.5,-155.2 779.5,-177.2 1000.5,-177.2 1000.5,-155.2 779.5,-155.2"/>
<polygon fill="none" stroke="#000000" points="779.5,-155.2 779.5,-177.2 1000.5,-177.2 1000.5,-155.2 779.5,-155.2"/>
<text text-anchor="start" x="808.5" y="-162.3" font-family="Helvetica,sans-Serif" font-size="11.00" fill="#000000">stage_inst_id_</text>
<polygon fill="none" stroke="#000000" points="779.5,-136.2 779.5,-155.2 1000.5,-155.2 1000.5,-136.2 779.5,-136.2"/>
<text text-anchor="start" x="782.5" y="-142.3" font-family="Helvetica,sans-Serif" font-size="11.00" fill="#000000">...</text>
<polygon fill="#ffffff" stroke="transparent" points="779.5,-117.2 779.5,-136.2 1000.5,-136.2 1000.5,-117.2 779.5,-117.2"/>
<polygon fill="none" stroke="#000000" points="779.5,-117.2 779.5,-136.2 1000.5,-136.2 1000.5,-117.2 779.5,-117.2"/>
<polygon fill="#ffffff" stroke="transparent" points="780.5,-118.2 780.5,-135.2 856.5,-135.2 856.5,-118.2 780.5,-118.2"/>
<text text-anchor="start" x="782.5" y="-123.3" font-family="Helvetica,sans-Serif" font-size="11.00" fill="#000000">&lt; 2</text>
<polygon fill="#ffffff" stroke="transparent" points="856.5,-118.2 856.5,-135.2 923.5,-135.2 923.5,-118.2 856.5,-118.2"/>
<text text-anchor="start" x="886.9431" y="-123.3" font-family="Helvetica,sans-Serif" font-size="11.00" fill="#000000"> &#160;</text>
<polygon fill="#ffffff" stroke="transparent" points="923.5,-118.2 923.5,-135.2 999.5,-135.2 999.5,-118.2 923.5,-118.2"/>
<text text-anchor="start" x="981.9053" y="-123.3" font-family="Helvetica,sans-Serif" font-size="11.00" fill="#000000">1 &gt;</text>
<polygon fill="#000000" stroke="#000000" points="856.5,-118.2 856.5,-135.2 856.5,-135.2 856.5,-118.2 856.5,-118.2"/>
<polygon fill="#000000" stroke="#000000" points="923.5,-118.2 923.5,-135.2 923.5,-135.2 923.5,-118.2 923.5,-118.2"/>
</a>
</g>
</g>
<!-- act_cmmn_ru_plan_item_inst&#45;&gt;act_cmmn_casedef -->
<g id="edge5" class="edge">
<title>act_cmmn_ru_plan_item_inst:w&#45;&gt;act_cmmn_casedef:e</title>
<path fill="none" stroke="#000000" d="M765.0272,-208.637C756.6362,-206.6734 750.7094,-203.4138 738,-202.2 646.8592,-193.4955 605.9981,-148.2861 532,-202.2 482.1867,-238.4932 551.1325,-334.2 489.5,-334.2"/>
<polygon fill="#000000" stroke="#000000" points="771.5462,-209.341 779.1135,-213.7792 775.5231,-209.7705 779.5,-210.2 779.5,-210.2 779.5,-210.2 775.5231,-209.7705 779.8865,-206.6208 771.5462,-209.341 771.5462,-209.341"/>
<ellipse fill="none" stroke="#000000" cx="768.3647" cy="-208.9974" rx="3.2" ry="3.2"/>
</g>
<!-- act_cmmn_ru_plan_item_inst&#45;&gt;act_cmmn_ru_case_inst -->
<g id="edge6" class="edge">
<title>act_cmmn_ru_plan_item_inst:w&#45;&gt;act_cmmn_ru_case_inst:e</title>
<path fill="none" stroke="#000000" d="M765.1765,-191.3644C727.406,-212.0546 789.6864,-327.2 730,-327.2"/>
<polygon fill="#000000" stroke="#000000" points="771.6884,-189.9258 780.2766,-191.7152 775.5942,-189.0629 779.5,-188.2 779.5,-188.2 779.5,-188.2 775.5942,-189.0629 778.7234,-184.6848 771.6884,-189.9258 771.6884,-189.9258"/>
<ellipse fill="none" stroke="#000000" cx="768.5637" cy="-190.6161" rx="3.2" ry="3.2"/>
</g>
<!-- act_cmmn_ru_sentry_part_inst -->
<g id="node6" class="node">
<title>act_cmmn_ru_sentry_part_inst</title>
<g id="a_node6"><a xlink:href="../../tables/act_cmmn_ru_sentry_part_inst.html" xlink:title="act_cmmn_ru_sentry_part_inst" target="_top">
<polygon fill="#ffffff" stroke="transparent" points="1049,-220.7 1049,-369.7 1280,-369.7 1280,-220.7 1049,-220.7"/>
<polygon fill="#f5f5f5" stroke="transparent" points="1049.5,-346.2 1049.5,-369.2 1280.5,-369.2 1280.5,-346.2 1049.5,-346.2"/>
<polygon fill="none" stroke="#000000" points="1049.5,-346.2 1049.5,-369.2 1280.5,-369.2 1280.5,-346.2 1049.5,-346.2"/>
<text text-anchor="start" x="1054.5" y="-354.8" font-family="Helvetica,sans-Serif" font-weight="bold" font-size="11.00" fill="#000000">act_cmmn_ru_sentry_part_inst</text>
<text text-anchor="start" x="1246.0219" y="-354.3" font-family="Helvetica,sans-Serif" font-size="11.00" fill="#000000">[table]</text>
<polygon fill="none" stroke="#000000" points="1049.5,-324.2 1049.5,-346.2 1280.5,-346.2 1280.5,-324.2 1049.5,-324.2"/>
<image xlink:href="../../images/primaryKeys.png" width="11px" height="12px" preserveAspectRatio="xMinYMin meet" x="1054.5" y="-341.2"/>
<text text-anchor="start" x="1078.5" y="-331.3" font-family="Helvetica,sans-Serif" font-size="11.00" fill="#000000">id_</text>
<polygon fill="#ffffff" stroke="transparent" points="1049.5,-302.2 1049.5,-324.2 1280.5,-324.2 1280.5,-302.2 1049.5,-302.2"/>
<polygon fill="none" stroke="#000000" points="1049.5,-302.2 1049.5,-324.2 1280.5,-324.2 1280.5,-302.2 1049.5,-302.2"/>
<image xlink:href="../../images/foreignKeys.png" width="11px" height="12px" preserveAspectRatio="xMinYMin meet" x="1054.5" y="-319.2"/>
<text text-anchor="start" x="1078.5" y="-309.3" font-family="Helvetica,sans-Serif" font-size="11.00" fill="#000000">case_def_id_</text>
<polygon fill="#ffffff" stroke="transparent" points="1049.5,-280.2 1049.5,-302.2 1280.5,-302.2 1280.5,-280.2 1049.5,-280.2"/>
<polygon fill="none" stroke="#000000" points="1049.5,-280.2 1049.5,-302.2 1280.5,-302.2 1280.5,-280.2 1049.5,-280.2"/>
<image xlink:href="../../images/foreignKeys.png" width="11px" height="12px" preserveAspectRatio="xMinYMin meet" x="1054.5" y="-297.2"/>
<text text-anchor="start" x="1078.5" y="-287.3" font-family="Helvetica,sans-Serif" font-size="11.00" fill="#000000">case_inst_id_</text>
<polygon fill="#ffffff" stroke="transparent" points="1049.5,-258.2 1049.5,-280.2 1280.5,-280.2 1280.5,-258.2 1049.5,-258.2"/>
<polygon fill="none" stroke="#000000" points="1049.5,-258.2 1049.5,-280.2 1280.5,-280.2 1280.5,-258.2 1049.5,-258.2"/>
<image xlink:href="../../images/foreignKeys.png" width="11px" height="12px" preserveAspectRatio="xMinYMin meet" x="1054.5" y="-275.2"/>
<text text-anchor="start" x="1078.5" y="-265.3" font-family="Helvetica,sans-Serif" font-size="11.00" fill="#000000">plan_item_inst_id_</text>
<polygon fill="none" stroke="#000000" points="1049.5,-239.2 1049.5,-258.2 1280.5,-258.2 1280.5,-239.2 1049.5,-239.2"/>
<text text-anchor="start" x="1052.5" y="-245.3" font-family="Helvetica,sans-Serif" font-size="11.00" fill="#000000">...</text>
<polygon fill="#ffffff" stroke="transparent" points="1049.5,-220.2 1049.5,-239.2 1280.5,-239.2 1280.5,-220.2 1049.5,-220.2"/>
<polygon fill="none" stroke="#000000" points="1049.5,-220.2 1049.5,-239.2 1280.5,-239.2 1280.5,-220.2 1049.5,-220.2"/>
<polygon fill="#ffffff" stroke="transparent" points="1050.5,-221.2 1050.5,-238.2 1133.5,-238.2 1133.5,-221.2 1050.5,-221.2"/>
<text text-anchor="start" x="1052.5" y="-226.3" font-family="Helvetica,sans-Serif" font-size="11.00" fill="#000000">&lt; 3</text>
<polygon fill="#ffffff" stroke="transparent" points="1133.5,-221.2 1133.5,-238.2 1206.5,-238.2 1206.5,-221.2 1133.5,-221.2"/>
<text text-anchor="start" x="1166.9431" y="-226.3" font-family="Helvetica,sans-Serif" font-size="11.00" fill="#000000"> &#160;</text>
<polygon fill="#ffffff" stroke="transparent" points="1206.5,-221.2 1206.5,-238.2 1279.5,-238.2 1279.5,-221.2 1206.5,-221.2"/>
<text text-anchor="start" x="1271.3862" y="-226.3" font-family="Helvetica,sans-Serif" font-size="11.00" fill="#000000"> &#160;</text>
<polygon fill="#000000" stroke="#000000" points="1133.5,-221.2 1133.5,-238.2 1133.5,-238.2 1133.5,-221.2 1133.5,-221.2"/>
<polygon fill="#000000" stroke="#000000" points="1206.5,-221.2 1206.5,-238.2 1206.5,-238.2 1206.5,-221.2 1206.5,-221.2"/>
</a>
</g>
</g>
<!-- act_cmmn_ru_sentry_part_inst&#45;&gt;act_cmmn_casedef -->
<g id="edge7" class="edge">
<title>act_cmmn_ru_sentry_part_inst:w&#45;&gt;act_cmmn_casedef:e</title>
<path fill="none" stroke="#000000" d="M1035.2112,-315.5314C997.122,-330.8766 1055.3317,-417.863 1008,-453.2 836.9524,-580.901 709.6948,-507.4767 532,-389.2 506.2838,-372.0828 520.3921,-334.2 489.5,-334.2"/>
<polygon fill="#000000" stroke="#000000" points="1041.6044,-314.4883 1050.0797,-316.753 1045.5522,-313.8442 1049.5,-313.2 1049.5,-313.2 1049.5,-313.2 1045.5522,-313.8442 1048.9203,-309.647 1041.6044,-314.4883 1041.6044,-314.4883"/>
<ellipse fill="none" stroke="#000000" cx="1038.4462" cy="-315.0037" rx="3.2" ry="3.2"/>
</g>
<!-- act_cmmn_ru_sentry_part_inst&#45;&gt;act_cmmn_ru_case_inst -->
<g id="edge8" class="edge">
<title>act_cmmn_ru_sentry_part_inst:w&#45;&gt;act_cmmn_ru_case_inst:e</title>
<path fill="none" stroke="#000000" d="M1035.0292,-291.1122C922.6148,-289.745 885.6185,-273.311 771,-305.2 751.0769,-310.743 750.6798,-327.2 730,-327.2"/>
<polygon fill="#000000" stroke="#000000" points="1041.5001,-291.1514 1049.4781,-294.7999 1045.5001,-291.1757 1049.5,-291.2 1049.5,-291.2 1049.5,-291.2 1045.5001,-291.1757 1049.5219,-287.6001 1041.5001,-291.1514 1041.5001,-291.1514"/>
<ellipse fill="none" stroke="#000000" cx="1038.3002" cy="-291.1319" rx="3.2" ry="3.2"/>
</g>
<!-- act_cmmn_ru_sentry_part_inst&#45;&gt;act_cmmn_ru_plan_item_inst -->
<g id="edge9" class="edge">
<title>act_cmmn_ru_sentry_part_inst:w&#45;&gt;act_cmmn_ru_plan_item_inst:e</title>
<path fill="none" stroke="#000000" d="M1035.6217,-264.6631C1023.0786,-254.783 1021.8196,-232.2 1000.5,-232.2"/>
<polygon fill="#000000" stroke="#000000" points="1041.896,-266.7142 1048.3814,-272.6218 1045.698,-267.9571 1049.5,-269.2 1049.5,-269.2 1049.5,-269.2 1045.698,-267.9571 1050.6186,-265.7782 1041.896,-266.7142 1041.896,-266.7142"/>
<ellipse fill="none" stroke="#000000" cx="1038.8544" cy="-265.7198" rx="3.2" ry="3.2"/>
</g>
</g>
</svg>
