<?xml version="1.0" encoding="UTF-8" standalone="no"?>
<!DOCTYPE svg PUBLIC "-//W3C//DTD SVG 1.1//EN"
 "http://www.w3.org/Graphics/SVG/1.1/DTD/svg11.dtd">
<!-- Generated by graphviz version 2.40.1 (20161225.0304)
 -->
<!-- Title: oneDegreeRelationshipsDiagram Pages: 1 -->
<svg width="952pt" height="476pt"
 viewBox="0.00 0.00 952.00 475.70" xmlns="http://www.w3.org/2000/svg" xmlns:xlink="http://www.w3.org/1999/xlink">
<g id="graph0" class="graph" transform="scale(1 1) rotate(0) translate(4 471.7)">
<title>oneDegreeRelationshipsDiagram</title>
<polygon fill="#ffffff" stroke="transparent" points="-4,4 -4,-471.7 948,-471.7 948,4 -4,4"/>
<text text-anchor="middle" x="72.4936" y="-7.3" font-family="Helvetica,sans-Serif" font-size="11.00" fill="#000000">Generated by SchemaSpy</text>
<!-- act_ru_execution -->
<g id="node1" class="node">
<title>act_ru_execution</title>
<g id="a_node1"><a xlink:href="../../tables/act_ru_execution.html" xlink:title="act_ru_execution" target="_top">
<polygon fill="#ffffff" stroke="transparent" points="231,-204.7 231,-441.7 428,-441.7 428,-204.7 231,-204.7"/>
<polygon fill="#f5f5f5" stroke="transparent" points="231.5,-418.2 231.5,-441.2 428.5,-441.2 428.5,-418.2 231.5,-418.2"/>
<polygon fill="none" stroke="#000000" points="231.5,-418.2 231.5,-441.2 428.5,-441.2 428.5,-418.2 231.5,-418.2"/>
<text text-anchor="start" x="236.5" y="-426.8" font-family="Helvetica,sans-Serif" font-weight="bold" font-size="11.00" fill="#000000">act_ru_execution</text>
<text text-anchor="start" x="393.5437" y="-426.3" font-family="Helvetica,sans-Serif" font-size="11.00" fill="#000000">[table]</text>
<polygon fill="none" stroke="#000000" points="231.5,-396.2 231.5,-418.2 428.5,-418.2 428.5,-396.2 231.5,-396.2"/>
<image xlink:href="../../images/primaryKeys.png" width="11px" height="12px" preserveAspectRatio="xMinYMin meet" x="236.5" y="-413.2"/>
<text text-anchor="start" x="251.5" y="-403.3" font-family="Helvetica,sans-Serif" font-size="11.00" fill="#000000">id_</text>
<polygon fill="#ffffff" stroke="transparent" points="231.5,-374.2 231.5,-396.2 428.5,-396.2 428.5,-374.2 231.5,-374.2"/>
<polygon fill="none" stroke="#000000" points="231.5,-374.2 231.5,-396.2 428.5,-396.2 428.5,-374.2 231.5,-374.2"/>
<image xlink:href="../../images/foreignKeys.png" width="11px" height="12px" preserveAspectRatio="xMinYMin meet" x="236.5" y="-391.2"/>
<text text-anchor="start" x="251.5" y="-381.3" font-family="Helvetica,sans-Serif" font-size="11.00" fill="#000000">proc_inst_id_</text>
<polygon fill="#ffffff" stroke="transparent" points="231.5,-352.2 231.5,-374.2 428.5,-374.2 428.5,-352.2 231.5,-352.2"/>
<polygon fill="none" stroke="#000000" points="231.5,-352.2 231.5,-374.2 428.5,-374.2 428.5,-352.2 231.5,-352.2"/>
<text text-anchor="start" x="251.5" y="-359.3" font-family="Helvetica,sans-Serif" font-size="11.00" fill="#000000">business_key_</text>
<polygon fill="#ffffff" stroke="transparent" points="231.5,-330.2 231.5,-352.2 428.5,-352.2 428.5,-330.2 231.5,-330.2"/>
<polygon fill="none" stroke="#000000" points="231.5,-330.2 231.5,-352.2 428.5,-352.2 428.5,-330.2 231.5,-330.2"/>
<image xlink:href="../../images/foreignKeys.png" width="11px" height="12px" preserveAspectRatio="xMinYMin meet" x="236.5" y="-347.2"/>
<text text-anchor="start" x="251.5" y="-337.3" font-family="Helvetica,sans-Serif" font-size="11.00" fill="#000000">parent_id_</text>
<polygon fill="#ffffff" stroke="transparent" points="231.5,-308.2 231.5,-330.2 428.5,-330.2 428.5,-308.2 231.5,-308.2"/>
<polygon fill="none" stroke="#000000" points="231.5,-308.2 231.5,-330.2 428.5,-330.2 428.5,-308.2 231.5,-308.2"/>
<image xlink:href="../../images/foreignKeys.png" width="11px" height="12px" preserveAspectRatio="xMinYMin meet" x="236.5" y="-325.2"/>
<text text-anchor="start" x="251.5" y="-315.3" font-family="Helvetica,sans-Serif" font-size="11.00" fill="#000000">proc_def_id_</text>
<polygon fill="#ffffff" stroke="transparent" points="231.5,-286.2 231.5,-308.2 428.5,-308.2 428.5,-286.2 231.5,-286.2"/>
<polygon fill="none" stroke="#000000" points="231.5,-286.2 231.5,-308.2 428.5,-308.2 428.5,-286.2 231.5,-286.2"/>
<image xlink:href="../../images/foreignKeys.png" width="11px" height="12px" preserveAspectRatio="xMinYMin meet" x="236.5" y="-303.2"/>
<text text-anchor="start" x="251.5" y="-293.3" font-family="Helvetica,sans-Serif" font-size="11.00" fill="#000000">super_exec_</text>
<polygon fill="#ffffff" stroke="transparent" points="231.5,-264.2 231.5,-286.2 428.5,-286.2 428.5,-264.2 231.5,-264.2"/>
<polygon fill="none" stroke="#000000" points="231.5,-264.2 231.5,-286.2 428.5,-286.2 428.5,-264.2 231.5,-264.2"/>
<text text-anchor="start" x="251.5" y="-271.3" font-family="Helvetica,sans-Serif" font-size="11.00" fill="#000000">root_proc_inst_id_</text>
<polygon fill="#ffffff" stroke="transparent" points="231.5,-242.2 231.5,-264.2 428.5,-264.2 428.5,-242.2 231.5,-242.2"/>
<polygon fill="none" stroke="#000000" points="231.5,-242.2 231.5,-264.2 428.5,-264.2 428.5,-242.2 231.5,-242.2"/>
<text text-anchor="start" x="251.5" y="-249.3" font-family="Helvetica,sans-Serif" font-size="11.00" fill="#000000">reference_id_</text>
<polygon fill="none" stroke="#000000" points="231.5,-223.2 231.5,-242.2 428.5,-242.2 428.5,-223.2 231.5,-223.2"/>
<text text-anchor="start" x="234.5" y="-229.3" font-family="Helvetica,sans-Serif" font-size="11.00" fill="#000000">...</text>
<polygon fill="#ffffff" stroke="transparent" points="231.5,-204.2 231.5,-223.2 428.5,-223.2 428.5,-204.2 231.5,-204.2"/>
<polygon fill="none" stroke="#000000" points="231.5,-204.2 231.5,-223.2 428.5,-223.2 428.5,-204.2 231.5,-204.2"/>
<polygon fill="#ffffff" stroke="transparent" points="232.5,-205.2 232.5,-222.2 298.5,-222.2 298.5,-205.2 232.5,-205.2"/>
<text text-anchor="start" x="234.5" y="-210.3" font-family="Helvetica,sans-Serif" font-size="11.00" fill="#000000">&lt; 4</text>
<polygon fill="#ffffff" stroke="transparent" points="298.5,-205.2 298.5,-222.2 355.5,-222.2 355.5,-205.2 298.5,-205.2"/>
<text text-anchor="start" x="323.9431" y="-210.3" font-family="Helvetica,sans-Serif" font-size="11.00" fill="#000000"> &#160;</text>
<polygon fill="#ffffff" stroke="transparent" points="355.5,-205.2 355.5,-222.2 427.5,-222.2 427.5,-205.2 355.5,-205.2"/>
<text text-anchor="start" x="403.7904" y="-210.3" font-family="Helvetica,sans-Serif" font-size="11.00" fill="#000000">17 &gt;</text>
<polygon fill="#000000" stroke="#000000" points="298.5,-205.2 298.5,-222.2 298.5,-222.2 298.5,-205.2 298.5,-205.2"/>
<polygon fill="#000000" stroke="#000000" points="355.5,-205.2 355.5,-222.2 355.5,-222.2 355.5,-205.2 355.5,-205.2"/>
</a>
</g>
</g>
<!-- act_re_procdef -->
<g id="node2" class="node">
<title>act_re_procdef</title>
<g id="a_node2"><a xlink:href="../../tables/act_re_procdef.html" xlink:title="act_re_procdef" target="_top">
<polygon fill="#ffffff" stroke="transparent" points="8,-43.7 8,-214.7 182,-214.7 182,-43.7 8,-43.7"/>
<polygon fill="#f5f5f5" stroke="transparent" points="8,-191.2 8,-214.2 182,-214.2 182,-191.2 8,-191.2"/>
<polygon fill="none" stroke="#000000" points="8,-191.2 8,-214.2 182,-214.2 182,-191.2 8,-191.2"/>
<text text-anchor="start" x="13" y="-199.8" font-family="Helvetica,sans-Serif" font-weight="bold" font-size="11.00" fill="#000000">act_re_procdef</text>
<text text-anchor="start" x="147.0437" y="-199.3" font-family="Helvetica,sans-Serif" font-size="11.00" fill="#000000">[table]</text>
<polygon fill="none" stroke="#000000" points="8,-169.2 8,-191.2 182,-191.2 182,-169.2 8,-169.2"/>
<image xlink:href="../../images/primaryKeys.png" width="11px" height="12px" preserveAspectRatio="xMinYMin meet" x="13" y="-186.2"/>
<text text-anchor="start" x="28" y="-176.3" font-family="Helvetica,sans-Serif" font-size="11.00" fill="#000000">id_</text>
<polygon fill="#ffffff" stroke="transparent" points="8,-147.2 8,-169.2 182,-169.2 182,-147.2 8,-147.2"/>
<polygon fill="none" stroke="#000000" points="8,-147.2 8,-169.2 182,-169.2 182,-147.2 8,-147.2"/>
<text text-anchor="start" x="28" y="-154.3" font-family="Helvetica,sans-Serif" font-size="11.00" fill="#000000">key_</text>
<polygon fill="#ffffff" stroke="transparent" points="8,-125.2 8,-147.2 182,-147.2 182,-125.2 8,-125.2"/>
<polygon fill="none" stroke="#000000" points="8,-125.2 8,-147.2 182,-147.2 182,-125.2 8,-125.2"/>
<text text-anchor="start" x="28" y="-132.3" font-family="Helvetica,sans-Serif" font-size="11.00" fill="#000000">version_</text>
<polygon fill="#ffffff" stroke="transparent" points="8,-103.2 8,-125.2 182,-125.2 182,-103.2 8,-103.2"/>
<polygon fill="none" stroke="#000000" points="8,-103.2 8,-125.2 182,-125.2 182,-103.2 8,-103.2"/>
<text text-anchor="start" x="28" y="-110.3" font-family="Helvetica,sans-Serif" font-size="11.00" fill="#000000">tenant_id_</text>
<polygon fill="#ffffff" stroke="transparent" points="8,-81.2 8,-103.2 182,-103.2 182,-81.2 8,-81.2"/>
<polygon fill="none" stroke="#000000" points="8,-81.2 8,-103.2 182,-103.2 182,-81.2 8,-81.2"/>
<text text-anchor="start" x="28" y="-88.3" font-family="Helvetica,sans-Serif" font-size="11.00" fill="#000000">derived_version_</text>
<polygon fill="none" stroke="#000000" points="8,-62.2 8,-81.2 182,-81.2 182,-62.2 8,-62.2"/>
<text text-anchor="start" x="11" y="-68.3" font-family="Helvetica,sans-Serif" font-size="11.00" fill="#000000">...</text>
<polygon fill="#ffffff" stroke="transparent" points="8,-43.2 8,-62.2 182,-62.2 182,-43.2 8,-43.2"/>
<polygon fill="none" stroke="#000000" points="8,-43.2 8,-62.2 182,-62.2 182,-43.2 8,-43.2"/>
<polygon fill="#ffffff" stroke="transparent" points="9,-44.2 9,-61.2 64,-61.2 64,-44.2 9,-44.2"/>
<text text-anchor="start" x="11" y="-49.3" font-family="Helvetica,sans-Serif" font-size="11.00" fill="#000000"> &#160;</text>
<polygon fill="#ffffff" stroke="transparent" points="64,-44.2 64,-61.2 118,-61.2 118,-44.2 64,-44.2"/>
<text text-anchor="start" x="87.9431" y="-49.3" font-family="Helvetica,sans-Serif" font-size="11.00" fill="#000000"> &#160;</text>
<polygon fill="#ffffff" stroke="transparent" points="118,-44.2 118,-61.2 181,-61.2 181,-44.2 118,-44.2"/>
<text text-anchor="start" x="163.4053" y="-49.3" font-family="Helvetica,sans-Serif" font-size="11.00" fill="#000000">8 &gt;</text>
<polygon fill="#000000" stroke="#000000" points="64,-44.2 64,-61.2 64,-61.2 64,-44.2 64,-44.2"/>
<polygon fill="#000000" stroke="#000000" points="118,-44.2 118,-61.2 118,-61.2 118,-44.2 118,-44.2"/>
</a>
</g>
</g>
<!-- act_ru_execution&#45;&gt;act_re_procdef -->
<g id="edge1" class="edge">
<title>act_ru_execution:w&#45;&gt;act_re_procdef:e</title>
<path fill="none" stroke="#000000" d="M217.1765,-316.0356C179.406,-295.3454 241.6864,-180.2 182,-180.2"/>
<polygon fill="#000000" stroke="#000000" points="223.6884,-317.4742 230.7234,-322.7152 227.5942,-318.3371 231.5,-319.2 231.5,-319.2 231.5,-319.2 227.5942,-318.3371 232.2766,-315.6848 223.6884,-317.4742 223.6884,-317.4742"/>
<ellipse fill="none" stroke="#000000" cx="220.5637" cy="-316.7839" rx="3.2" ry="3.2"/>
</g>
<!-- act_ru_identitylink -->
<g id="node3" class="node">
<title>act_ru_identitylink</title>
<g id="a_node3"><a xlink:href="../../tables/act_ru_identitylink.html" xlink:title="act_ru_identitylink" target="_top">
<polygon fill="#ffffff" stroke="transparent" points="715,-38.2 715,-348.2 936,-348.2 936,-38.2 715,-38.2"/>
<polygon fill="#f5f5f5" stroke="transparent" points="717.5,-323.2 717.5,-346.2 934.5,-346.2 934.5,-323.2 717.5,-323.2"/>
<polygon fill="none" stroke="#000000" points="717.5,-323.2 717.5,-346.2 934.5,-346.2 934.5,-323.2 717.5,-323.2"/>
<text text-anchor="start" x="722.5" y="-331.8" font-family="Helvetica,sans-Serif" font-weight="bold" font-size="11.00" fill="#000000">act_ru_identitylink</text>
<text text-anchor="start" x="899.5437" y="-331.3" font-family="Helvetica,sans-Serif" font-size="11.00" fill="#000000">[table]</text>
<polygon fill="none" stroke="#000000" points="717.5,-301.2 717.5,-323.2 867.5,-323.2 867.5,-301.2 717.5,-301.2"/>
<image xlink:href="../../images/primaryKeys.png" width="11px" height="12px" preserveAspectRatio="xMinYMin meet" x="722.5" y="-318.2"/>
<text text-anchor="start" x="737.5" y="-308.3" font-family="Helvetica,sans-Serif" font-size="11.00" fill="#000000">id_</text>
<polygon fill="none" stroke="#000000" points="867.5,-301.2 867.5,-323.2 934.5,-323.2 934.5,-301.2 867.5,-301.2"/>
<text text-anchor="start" x="870.5" y="-308.9" font-family="Helvetica,sans-Serif" font-size="11.00" fill="#000000">varchar[64]</text>
<polygon fill="none" stroke="#000000" points="717.5,-279.2 717.5,-301.2 867.5,-301.2 867.5,-279.2 717.5,-279.2"/>
<text text-anchor="start" x="737.5" y="-286.3" font-family="Helvetica,sans-Serif" font-size="11.00" fill="#000000">rev_</text>
<polygon fill="none" stroke="#000000" points="867.5,-279.2 867.5,-301.2 934.5,-301.2 934.5,-279.2 867.5,-279.2"/>
<text text-anchor="start" x="870.5" y="-286.9" font-family="Helvetica,sans-Serif" font-size="11.00" fill="#000000">int4[10]</text>
<polygon fill="#ffffff" stroke="transparent" points="717.5,-257.2 717.5,-279.2 867.5,-279.2 867.5,-257.2 717.5,-257.2"/>
<polygon fill="none" stroke="#000000" points="717.5,-257.2 717.5,-279.2 867.5,-279.2 867.5,-257.2 717.5,-257.2"/>
<text text-anchor="start" x="737.5" y="-264.3" font-family="Helvetica,sans-Serif" font-size="11.00" fill="#000000">group_id_</text>
<polygon fill="none" stroke="#000000" points="867.5,-257.2 867.5,-279.2 934.5,-279.2 934.5,-257.2 867.5,-257.2"/>
<text text-anchor="start" x="870.4365" y="-264.9" font-family="Helvetica,sans-Serif" font-size="11.00" fill="#000000">varchar[255]</text>
<polygon fill="none" stroke="#000000" points="717.5,-235.2 717.5,-257.2 867.5,-257.2 867.5,-235.2 717.5,-235.2"/>
<text text-anchor="start" x="737.5" y="-242.3" font-family="Helvetica,sans-Serif" font-size="11.00" fill="#000000">type_</text>
<polygon fill="none" stroke="#000000" points="867.5,-235.2 867.5,-257.2 934.5,-257.2 934.5,-235.2 867.5,-235.2"/>
<text text-anchor="start" x="870.4365" y="-242.9" font-family="Helvetica,sans-Serif" font-size="11.00" fill="#000000">varchar[255]</text>
<polygon fill="#ffffff" stroke="transparent" points="717.5,-213.2 717.5,-235.2 867.5,-235.2 867.5,-213.2 717.5,-213.2"/>
<polygon fill="none" stroke="#000000" points="717.5,-213.2 717.5,-235.2 867.5,-235.2 867.5,-213.2 717.5,-213.2"/>
<text text-anchor="start" x="737.5" y="-220.3" font-family="Helvetica,sans-Serif" font-size="11.00" fill="#000000">user_id_</text>
<polygon fill="none" stroke="#000000" points="867.5,-213.2 867.5,-235.2 934.5,-235.2 934.5,-213.2 867.5,-213.2"/>
<text text-anchor="start" x="870.4365" y="-220.9" font-family="Helvetica,sans-Serif" font-size="11.00" fill="#000000">varchar[255]</text>
<polygon fill="#ffffff" stroke="transparent" points="717.5,-191.2 717.5,-213.2 867.5,-213.2 867.5,-191.2 717.5,-191.2"/>
<polygon fill="none" stroke="#000000" points="717.5,-191.2 717.5,-213.2 867.5,-213.2 867.5,-191.2 717.5,-191.2"/>
<image xlink:href="../../images/foreignKeys.png" width="11px" height="12px" preserveAspectRatio="xMinYMin meet" x="722.5" y="-208.2"/>
<text text-anchor="start" x="737.5" y="-198.3" font-family="Helvetica,sans-Serif" font-size="11.00" fill="#000000">task_id_</text>
<polygon fill="none" stroke="#000000" points="867.5,-191.2 867.5,-213.2 934.5,-213.2 934.5,-191.2 867.5,-191.2"/>
<text text-anchor="start" x="870.5" y="-198.9" font-family="Helvetica,sans-Serif" font-size="11.00" fill="#000000">varchar[64]</text>
<polygon fill="#ffffff" stroke="transparent" points="717.5,-169.2 717.5,-191.2 867.5,-191.2 867.5,-169.2 717.5,-169.2"/>
<polygon fill="none" stroke="#000000" points="717.5,-169.2 717.5,-191.2 867.5,-191.2 867.5,-169.2 717.5,-169.2"/>
<image xlink:href="../../images/foreignKeys.png" width="11px" height="12px" preserveAspectRatio="xMinYMin meet" x="722.5" y="-186.2"/>
<text text-anchor="start" x="737.5" y="-176.3" font-family="Helvetica,sans-Serif" font-size="11.00" fill="#000000">proc_inst_id_</text>
<polygon fill="none" stroke="#000000" points="867.5,-169.2 867.5,-191.2 934.5,-191.2 934.5,-169.2 867.5,-169.2"/>
<text text-anchor="start" x="870.5" y="-176.9" font-family="Helvetica,sans-Serif" font-size="11.00" fill="#000000">varchar[64]</text>
<polygon fill="#ffffff" stroke="transparent" points="717.5,-147.2 717.5,-169.2 867.5,-169.2 867.5,-147.2 717.5,-147.2"/>
<polygon fill="none" stroke="#000000" points="717.5,-147.2 717.5,-169.2 867.5,-169.2 867.5,-147.2 717.5,-147.2"/>
<image xlink:href="../../images/foreignKeys.png" width="11px" height="12px" preserveAspectRatio="xMinYMin meet" x="722.5" y="-164.2"/>
<text text-anchor="start" x="737.5" y="-154.3" font-family="Helvetica,sans-Serif" font-size="11.00" fill="#000000">proc_def_id_</text>
<polygon fill="none" stroke="#000000" points="867.5,-147.2 867.5,-169.2 934.5,-169.2 934.5,-147.2 867.5,-147.2"/>
<text text-anchor="start" x="870.5" y="-154.9" font-family="Helvetica,sans-Serif" font-size="11.00" fill="#000000">varchar[64]</text>
<polygon fill="#ffffff" stroke="transparent" points="717.5,-125.2 717.5,-147.2 867.5,-147.2 867.5,-125.2 717.5,-125.2"/>
<polygon fill="none" stroke="#000000" points="717.5,-125.2 717.5,-147.2 867.5,-147.2 867.5,-125.2 717.5,-125.2"/>
<text text-anchor="start" x="737.5" y="-132.3" font-family="Helvetica,sans-Serif" font-size="11.00" fill="#000000">scope_id_</text>
<polygon fill="none" stroke="#000000" points="867.5,-125.2 867.5,-147.2 934.5,-147.2 934.5,-125.2 867.5,-125.2"/>
<text text-anchor="start" x="870.4365" y="-132.9" font-family="Helvetica,sans-Serif" font-size="11.00" fill="#000000">varchar[255]</text>
<polygon fill="#ffffff" stroke="transparent" points="717.5,-103.2 717.5,-125.2 867.5,-125.2 867.5,-103.2 717.5,-103.2"/>
<polygon fill="none" stroke="#000000" points="717.5,-103.2 717.5,-125.2 867.5,-125.2 867.5,-103.2 717.5,-103.2"/>
<text text-anchor="start" x="737.5" y="-110.3" font-family="Helvetica,sans-Serif" font-size="11.00" fill="#000000">sub_scope_id_</text>
<polygon fill="none" stroke="#000000" points="867.5,-103.2 867.5,-125.2 934.5,-125.2 934.5,-103.2 867.5,-103.2"/>
<text text-anchor="start" x="870.4365" y="-110.9" font-family="Helvetica,sans-Serif" font-size="11.00" fill="#000000">varchar[255]</text>
<polygon fill="#ffffff" stroke="transparent" points="717.5,-81.2 717.5,-103.2 867.5,-103.2 867.5,-81.2 717.5,-81.2"/>
<polygon fill="none" stroke="#000000" points="717.5,-81.2 717.5,-103.2 867.5,-103.2 867.5,-81.2 717.5,-81.2"/>
<text text-anchor="start" x="737.5" y="-88.3" font-family="Helvetica,sans-Serif" font-size="11.00" fill="#000000">scope_type_</text>
<polygon fill="none" stroke="#000000" points="867.5,-81.2 867.5,-103.2 934.5,-103.2 934.5,-81.2 867.5,-81.2"/>
<text text-anchor="start" x="870.4365" y="-88.9" font-family="Helvetica,sans-Serif" font-size="11.00" fill="#000000">varchar[255]</text>
<polygon fill="#ffffff" stroke="transparent" points="717.5,-59.2 717.5,-81.2 867.5,-81.2 867.5,-59.2 717.5,-59.2"/>
<polygon fill="none" stroke="#000000" points="717.5,-59.2 717.5,-81.2 867.5,-81.2 867.5,-59.2 717.5,-59.2"/>
<text text-anchor="start" x="737.5" y="-66.3" font-family="Helvetica,sans-Serif" font-size="11.00" fill="#000000">scope_definition_id_</text>
<polygon fill="none" stroke="#000000" points="867.5,-59.2 867.5,-81.2 934.5,-81.2 934.5,-59.2 867.5,-59.2"/>
<text text-anchor="start" x="870.4365" y="-66.9" font-family="Helvetica,sans-Serif" font-size="11.00" fill="#000000">varchar[255]</text>
<polygon fill="#ffffff" stroke="transparent" points="717.5,-40.2 717.5,-59.2 934.5,-59.2 934.5,-40.2 717.5,-40.2"/>
<polygon fill="none" stroke="#000000" points="717.5,-40.2 717.5,-59.2 934.5,-59.2 934.5,-40.2 717.5,-40.2"/>
<polygon fill="#ffffff" stroke="transparent" points="718.5,-41.2 718.5,-58.2 793.5,-58.2 793.5,-41.2 718.5,-41.2"/>
<text text-anchor="start" x="720.5" y="-46.3" font-family="Helvetica,sans-Serif" font-size="11.00" fill="#000000">&lt; 3</text>
<polygon fill="#ffffff" stroke="transparent" points="793.5,-41.2 793.5,-58.2 859.5,-58.2 859.5,-41.2 793.5,-41.2"/>
<text text-anchor="start" x="823.4431" y="-46.3" font-family="Helvetica,sans-Serif" font-size="11.00" fill="#000000"> &#160;</text>
<polygon fill="#ffffff" stroke="transparent" points="859.5,-41.2 859.5,-58.2 933.5,-58.2 933.5,-41.2 859.5,-41.2"/>
<text text-anchor="start" x="915.9053" y="-46.3" font-family="Helvetica,sans-Serif" font-size="11.00" fill="#000000">0 &gt;</text>
<polygon fill="#000000" stroke="#000000" points="793.5,-41.2 793.5,-58.2 793.5,-58.2 793.5,-41.2 793.5,-41.2"/>
<polygon fill="#000000" stroke="#000000" points="859.5,-41.2 859.5,-58.2 859.5,-58.2 859.5,-41.2 859.5,-41.2"/>
<polygon fill="none" stroke="#000000" stroke-width="2" points="716,-39.2 716,-347.2 935,-347.2 935,-39.2 716,-39.2"/>
</a>
</g>
</g>
<!-- act_ru_identitylink&#45;&gt;act_ru_execution -->
<g id="edge3" class="edge">
<title>act_ru_identitylink:w&#45;&gt;act_ru_execution:e</title>
<path fill="none" stroke="#000000" d="M702.8721,-179.8277C639.1752,-177.0512 507.3474,-160.5946 469,-194.2 396.5278,-257.7103 524.8627,-407.2 428.5,-407.2"/>
<polygon fill="#000000" stroke="#000000" points="709.5026,-179.9964 717.4084,-183.7988 713.5013,-180.0982 717.5,-180.2 717.5,-180.2 717.5,-180.2 713.5013,-180.0982 717.5916,-176.6012 709.5026,-179.9964 709.5026,-179.9964"/>
<ellipse fill="none" stroke="#000000" cx="706.3036" cy="-179.9149" rx="3.2" ry="3.2"/>
</g>
<!-- act_ru_identitylink&#45;&gt;act_re_procdef -->
<g id="edge2" class="edge">
<title>act_ru_identitylink:w&#45;&gt;act_re_procdef:e</title>
<path fill="none" stroke="#000000" d="M702.9293,-158.1801C495.0308,-157.6103 436.3394,-145.2194 223,-171.2 204.4807,-173.4553 200.6561,-180.2 182,-180.2"/>
<polygon fill="#000000" stroke="#000000" points="709.5,-158.189 717.495,-161.8 713.5,-158.1945 717.5,-158.2 717.5,-158.2 717.5,-158.2 713.5,-158.1945 717.505,-154.6 709.5,-158.189 709.5,-158.189"/>
<ellipse fill="none" stroke="#000000" cx="706.3" cy="-158.1846" rx="3.2" ry="3.2"/>
</g>
<!-- act_ru_task -->
<g id="node4" class="node">
<title>act_ru_task</title>
<g id="a_node4"><a xlink:href="../../tables/act_ru_task.html" xlink:title="act_ru_task" target="_top">
<polygon fill="#ffffff" stroke="transparent" points="477,-204.7 477,-463.7 666,-463.7 666,-204.7 477,-204.7"/>
<polygon fill="#f5f5f5" stroke="transparent" points="477.5,-440.2 477.5,-463.2 666.5,-463.2 666.5,-440.2 477.5,-440.2"/>
<polygon fill="none" stroke="#000000" points="477.5,-440.2 477.5,-463.2 666.5,-463.2 666.5,-440.2 477.5,-440.2"/>
<text text-anchor="start" x="482.5" y="-448.8" font-family="Helvetica,sans-Serif" font-weight="bold" font-size="11.00" fill="#000000">act_ru_task</text>
<text text-anchor="start" x="631.5437" y="-448.3" font-family="Helvetica,sans-Serif" font-size="11.00" fill="#000000">[table]</text>
<polygon fill="none" stroke="#000000" points="477.5,-418.2 477.5,-440.2 666.5,-440.2 666.5,-418.2 477.5,-418.2"/>
<image xlink:href="../../images/primaryKeys.png" width="11px" height="12px" preserveAspectRatio="xMinYMin meet" x="482.5" y="-435.2"/>
<text text-anchor="start" x="497.5" y="-425.3" font-family="Helvetica,sans-Serif" font-size="11.00" fill="#000000">id_</text>
<polygon fill="#ffffff" stroke="transparent" points="477.5,-396.2 477.5,-418.2 666.5,-418.2 666.5,-396.2 477.5,-396.2"/>
<polygon fill="none" stroke="#000000" points="477.5,-396.2 477.5,-418.2 666.5,-418.2 666.5,-396.2 477.5,-396.2"/>
<image xlink:href="../../images/foreignKeys.png" width="11px" height="12px" preserveAspectRatio="xMinYMin meet" x="482.5" y="-413.2"/>
<text text-anchor="start" x="497.5" y="-403.3" font-family="Helvetica,sans-Serif" font-size="11.00" fill="#000000">execution_id_</text>
<polygon fill="#ffffff" stroke="transparent" points="477.5,-374.2 477.5,-396.2 666.5,-396.2 666.5,-374.2 477.5,-374.2"/>
<polygon fill="none" stroke="#000000" points="477.5,-374.2 477.5,-396.2 666.5,-396.2 666.5,-374.2 477.5,-374.2"/>
<image xlink:href="../../images/foreignKeys.png" width="11px" height="12px" preserveAspectRatio="xMinYMin meet" x="482.5" y="-391.2"/>
<text text-anchor="start" x="497.5" y="-381.3" font-family="Helvetica,sans-Serif" font-size="11.00" fill="#000000">proc_inst_id_</text>
<polygon fill="#ffffff" stroke="transparent" points="477.5,-352.2 477.5,-374.2 666.5,-374.2 666.5,-352.2 477.5,-352.2"/>
<polygon fill="none" stroke="#000000" points="477.5,-352.2 477.5,-374.2 666.5,-374.2 666.5,-352.2 477.5,-352.2"/>
<image xlink:href="../../images/foreignKeys.png" width="11px" height="12px" preserveAspectRatio="xMinYMin meet" x="482.5" y="-369.2"/>
<text text-anchor="start" x="497.5" y="-359.3" font-family="Helvetica,sans-Serif" font-size="11.00" fill="#000000">proc_def_id_</text>
<polygon fill="#ffffff" stroke="transparent" points="477.5,-330.2 477.5,-352.2 666.5,-352.2 666.5,-330.2 477.5,-330.2"/>
<polygon fill="none" stroke="#000000" points="477.5,-330.2 477.5,-352.2 666.5,-352.2 666.5,-330.2 477.5,-330.2"/>
<text text-anchor="start" x="497.5" y="-337.3" font-family="Helvetica,sans-Serif" font-size="11.00" fill="#000000">scope_id_</text>
<polygon fill="#ffffff" stroke="transparent" points="477.5,-308.2 477.5,-330.2 666.5,-330.2 666.5,-308.2 477.5,-308.2"/>
<polygon fill="none" stroke="#000000" points="477.5,-308.2 477.5,-330.2 666.5,-330.2 666.5,-308.2 477.5,-308.2"/>
<text text-anchor="start" x="497.5" y="-315.3" font-family="Helvetica,sans-Serif" font-size="11.00" fill="#000000">sub_scope_id_</text>
<polygon fill="#ffffff" stroke="transparent" points="477.5,-286.2 477.5,-308.2 666.5,-308.2 666.5,-286.2 477.5,-286.2"/>
<polygon fill="none" stroke="#000000" points="477.5,-286.2 477.5,-308.2 666.5,-308.2 666.5,-286.2 477.5,-286.2"/>
<text text-anchor="start" x="497.5" y="-293.3" font-family="Helvetica,sans-Serif" font-size="11.00" fill="#000000">scope_type_</text>
<polygon fill="#ffffff" stroke="transparent" points="477.5,-264.2 477.5,-286.2 666.5,-286.2 666.5,-264.2 477.5,-264.2"/>
<polygon fill="none" stroke="#000000" points="477.5,-264.2 477.5,-286.2 666.5,-286.2 666.5,-264.2 477.5,-264.2"/>
<text text-anchor="start" x="497.5" y="-271.3" font-family="Helvetica,sans-Serif" font-size="11.00" fill="#000000">scope_definition_id_</text>
<polygon fill="#ffffff" stroke="transparent" points="477.5,-242.2 477.5,-264.2 666.5,-264.2 666.5,-242.2 477.5,-242.2"/>
<polygon fill="none" stroke="#000000" points="477.5,-242.2 477.5,-264.2 666.5,-264.2 666.5,-242.2 477.5,-242.2"/>
<text text-anchor="start" x="497.5" y="-249.3" font-family="Helvetica,sans-Serif" font-size="11.00" fill="#000000">create_time_</text>
<polygon fill="none" stroke="#000000" points="477.5,-223.2 477.5,-242.2 666.5,-242.2 666.5,-223.2 477.5,-223.2"/>
<text text-anchor="start" x="480.5" y="-229.3" font-family="Helvetica,sans-Serif" font-size="11.00" fill="#000000">...</text>
<polygon fill="#ffffff" stroke="transparent" points="477.5,-204.2 477.5,-223.2 666.5,-223.2 666.5,-204.2 477.5,-204.2"/>
<polygon fill="none" stroke="#000000" points="477.5,-204.2 477.5,-223.2 666.5,-223.2 666.5,-204.2 477.5,-204.2"/>
<polygon fill="#ffffff" stroke="transparent" points="478.5,-205.2 478.5,-222.2 544.5,-222.2 544.5,-205.2 478.5,-205.2"/>
<text text-anchor="start" x="480.5" y="-210.3" font-family="Helvetica,sans-Serif" font-size="11.00" fill="#000000">&lt; 3</text>
<polygon fill="#ffffff" stroke="transparent" points="544.5,-205.2 544.5,-222.2 600.5,-222.2 600.5,-205.2 544.5,-205.2"/>
<text text-anchor="start" x="569.4431" y="-210.3" font-family="Helvetica,sans-Serif" font-size="11.00" fill="#000000"> &#160;</text>
<polygon fill="#ffffff" stroke="transparent" points="600.5,-205.2 600.5,-222.2 665.5,-222.2 665.5,-205.2 600.5,-205.2"/>
<text text-anchor="start" x="647.9053" y="-210.3" font-family="Helvetica,sans-Serif" font-size="11.00" fill="#000000">1 &gt;</text>
<polygon fill="#000000" stroke="#000000" points="544.5,-205.2 544.5,-222.2 544.5,-222.2 544.5,-205.2 544.5,-205.2"/>
<polygon fill="#000000" stroke="#000000" points="600.5,-205.2 600.5,-222.2 600.5,-222.2 600.5,-205.2 600.5,-205.2"/>
</a>
</g>
</g>
<!-- act_ru_identitylink&#45;&gt;act_ru_task -->
<g id="edge4" class="edge">
<title>act_ru_identitylink:w&#45;&gt;act_ru_task:e</title>
<path fill="none" stroke="#000000" d="M702.7762,-204.1624C630.3624,-226.3492 764.2489,-429.2 666.5,-429.2"/>
<polygon fill="#000000" stroke="#000000" points="709.5701,-203.257 717.9756,-205.7684 713.5351,-202.7285 717.5,-202.2 717.5,-202.2 717.5,-202.2 713.5351,-202.7285 717.0244,-198.6316 709.5701,-203.257 709.5701,-203.257"/>
<ellipse fill="none" stroke="#000000" cx="706.3982" cy="-203.6797" rx="3.2" ry="3.2"/>
</g>
<!-- act_ru_task&#45;&gt;act_ru_execution -->
<g id="edge5" class="edge">
<title>act_ru_task:w&#45;&gt;act_ru_execution:e</title>
<path fill="none" stroke="#000000" d="M462.9909,-407.2C451.6774,-407.2 444.4931,-407.2 428.5,-407.2"/>
<polygon fill="#000000" stroke="#000000" points="469.5,-407.2001 477.5,-410.8 473.5,-407.2 477.5,-407.2 477.5,-407.2 477.5,-407.2 473.5,-407.2 477.5,-403.6 469.5,-407.2001 469.5,-407.2001"/>
<ellipse fill="none" stroke="#000000" cx="466.3" cy="-407.2001" rx="3.2" ry="3.2"/>
</g>
<!-- act_ru_task&#45;&gt;act_ru_execution -->
<g id="edge7" class="edge">
<title>act_ru_task:w&#45;&gt;act_ru_execution:e</title>
<path fill="none" stroke="#000000" d="M463.1297,-388.6375C451.5865,-394.825 446.4041,-407.2 428.5,-407.2"/>
<polygon fill="#000000" stroke="#000000" points="469.7195,-387.0612 478.3375,-388.7012 473.6098,-386.1306 477.5,-385.2 477.5,-385.2 477.5,-385.2 473.6098,-386.1306 476.6625,-381.6988 469.7195,-387.0612 469.7195,-387.0612"/>
<ellipse fill="none" stroke="#000000" cx="466.6073" cy="-387.8057" rx="3.2" ry="3.2"/>
</g>
<!-- act_ru_task&#45;&gt;act_re_procdef -->
<g id="edge6" class="edge">
<title>act_ru_task:w&#45;&gt;act_re_procdef:e</title>
<path fill="none" stroke="#000000" d="M462.9993,-361.3009C413.4604,-345.8311 491.1075,-239.9171 436,-194.2 392.4926,-158.1063 238.5301,-180.2 182,-180.2"/>
<polygon fill="#000000" stroke="#000000" points="469.5677,-362.1611 477.0325,-366.7695 473.5339,-362.6805 477.5,-363.2 477.5,-363.2 477.5,-363.2 473.5339,-362.6805 477.9675,-359.6305 469.5677,-362.1611 469.5677,-362.1611"/>
<ellipse fill="none" stroke="#000000" cx="466.3948" cy="-361.7455" rx="3.2" ry="3.2"/>
</g>
</g>
</svg>
