<?xml version="1.0" encoding="UTF-8" standalone="no"?>
<!DOCTYPE svg PUBLIC "-//W3C//DTD SVG 1.1//EN"
 "http://www.w3.org/Graphics/SVG/1.1/DTD/svg11.dtd">
<!-- Generated by graphviz version 2.40.1 (20161225.0304)
 -->
<!-- Title: twoDegreesRelationshipsDiagram Pages: 1 -->
<svg width="871pt" height="1281pt"
 viewBox="0.00 0.00 871.00 1281.49" xmlns="http://www.w3.org/2000/svg" xmlns:xlink="http://www.w3.org/1999/xlink">
<g id="graph0" class="graph" transform="scale(1 1) rotate(0) translate(4 1277.4894)">
<title>twoDegreesRelationshipsDiagram</title>
<polygon fill="#ffffff" stroke="transparent" points="-4,4 -4,-1277.4894 867,-1277.4894 867,4 -4,4"/>
<text text-anchor="middle" x="72.4936" y="-7.3" font-family="Helvetica,sans-Serif" font-size="11.00" fill="#000000">Generated by SchemaSpy</text>
<!-- act_ge_bytearray -->
<g id="node1" class="node">
<title>act_ge_bytearray</title>
<g id="a_node1"><a xlink:href="../../tables/act_ge_bytearray.html" xlink:title="act_ge_bytearray" target="_top">
<polygon fill="#ffffff" stroke="transparent" points="240,-860.4894 240,-965.4894 385,-965.4894 385,-860.4894 240,-860.4894"/>
<polygon fill="#f5f5f5" stroke="transparent" points="240.5,-941.9894 240.5,-964.9894 385.5,-964.9894 385.5,-941.9894 240.5,-941.9894"/>
<polygon fill="none" stroke="#000000" points="240.5,-941.9894 240.5,-964.9894 385.5,-964.9894 385.5,-941.9894 240.5,-941.9894"/>
<text text-anchor="start" x="245.5" y="-950.5894" font-family="Helvetica,sans-Serif" font-weight="bold" font-size="11.00" fill="#000000">act_ge_bytearray</text>
<text text-anchor="start" x="351.0219" y="-950.0894" font-family="Helvetica,sans-Serif" font-size="11.00" fill="#000000">[table]</text>
<polygon fill="none" stroke="#000000" points="240.5,-919.9894 240.5,-941.9894 385.5,-941.9894 385.5,-919.9894 240.5,-919.9894"/>
<image xlink:href="../../images/primaryKeys.png" width="11px" height="12px" preserveAspectRatio="xMinYMin meet" x="245.5" y="-936.989"/>
<text text-anchor="start" x="269.5" y="-927.0894" font-family="Helvetica,sans-Serif" font-size="11.00" fill="#000000">id_</text>
<polygon fill="#ffffff" stroke="transparent" points="240.5,-897.9894 240.5,-919.9894 385.5,-919.9894 385.5,-897.9894 240.5,-897.9894"/>
<polygon fill="none" stroke="#000000" points="240.5,-897.9894 240.5,-919.9894 385.5,-919.9894 385.5,-897.9894 240.5,-897.9894"/>
<image xlink:href="../../images/foreignKeys.png" width="11px" height="12px" preserveAspectRatio="xMinYMin meet" x="245.5" y="-914.989"/>
<text text-anchor="start" x="269.5" y="-905.0894" font-family="Helvetica,sans-Serif" font-size="11.00" fill="#000000">deployment_id_</text>
<polygon fill="none" stroke="#000000" points="240.5,-878.9894 240.5,-897.9894 385.5,-897.9894 385.5,-878.9894 240.5,-878.9894"/>
<text text-anchor="start" x="243.5" y="-885.0894" font-family="Helvetica,sans-Serif" font-size="11.00" fill="#000000">...</text>
<polygon fill="#ffffff" stroke="transparent" points="240.5,-859.9894 240.5,-878.9894 385.5,-878.9894 385.5,-859.9894 240.5,-859.9894"/>
<polygon fill="none" stroke="#000000" points="240.5,-859.9894 240.5,-878.9894 385.5,-878.9894 385.5,-859.9894 240.5,-859.9894"/>
<polygon fill="#ffffff" stroke="transparent" points="241.5,-860.9894 241.5,-877.9894 290.5,-877.9894 290.5,-860.9894 241.5,-860.9894"/>
<text text-anchor="start" x="243.5" y="-866.0894" font-family="Helvetica,sans-Serif" font-size="11.00" fill="#000000">&lt; 1</text>
<polygon fill="#ffffff" stroke="transparent" points="290.5,-860.9894 290.5,-877.9894 330.5,-877.9894 330.5,-860.9894 290.5,-860.9894"/>
<text text-anchor="start" x="307.4431" y="-866.0894" font-family="Helvetica,sans-Serif" font-size="11.00" fill="#000000"> &#160;</text>
<polygon fill="#ffffff" stroke="transparent" points="330.5,-860.9894 330.5,-877.9894 384.5,-877.9894 384.5,-860.9894 330.5,-860.9894"/>
<text text-anchor="start" x="360.7904" y="-866.0894" font-family="Helvetica,sans-Serif" font-size="11.00" fill="#000000">14 &gt;</text>
<polygon fill="#000000" stroke="#000000" points="290.5,-860.9894 290.5,-877.9894 290.5,-877.9894 290.5,-860.9894 290.5,-860.9894"/>
<polygon fill="#000000" stroke="#000000" points="330.5,-860.9894 330.5,-877.9894 330.5,-877.9894 330.5,-860.9894 330.5,-860.9894"/>
</a>
</g>
</g>
<!-- act_re_deployment -->
<g id="node2" class="node">
<title>act_re_deployment</title>
<g id="a_node2"><a xlink:href="../../tables/act_re_deployment.html" xlink:title="act_re_deployment" target="_top">
<polygon fill="#ffffff" stroke="transparent" points="8,-1013.4894 8,-1074.4894 165,-1074.4894 165,-1013.4894 8,-1013.4894"/>
<polygon fill="#f5f5f5" stroke="transparent" points="8.5,-1050.9894 8.5,-1073.9894 165.5,-1073.9894 165.5,-1050.9894 8.5,-1050.9894"/>
<polygon fill="none" stroke="#000000" points="8.5,-1050.9894 8.5,-1073.9894 165.5,-1073.9894 165.5,-1050.9894 8.5,-1050.9894"/>
<text text-anchor="start" x="13.5" y="-1059.5894" font-family="Helvetica,sans-Serif" font-weight="bold" font-size="11.00" fill="#000000">act_re_deployment</text>
<text text-anchor="start" x="131.0219" y="-1059.0894" font-family="Helvetica,sans-Serif" font-size="11.00" fill="#000000">[table]</text>
<polygon fill="none" stroke="#000000" points="8.5,-1031.9894 8.5,-1050.9894 165.5,-1050.9894 165.5,-1031.9894 8.5,-1031.9894"/>
<text text-anchor="start" x="11.5" y="-1038.0894" font-family="Helvetica,sans-Serif" font-size="11.00" fill="#000000">...</text>
<polygon fill="#ffffff" stroke="transparent" points="8.5,-1012.9894 8.5,-1031.9894 165.5,-1031.9894 165.5,-1012.9894 8.5,-1012.9894"/>
<polygon fill="none" stroke="#000000" points="8.5,-1012.9894 8.5,-1031.9894 165.5,-1031.9894 165.5,-1012.9894 8.5,-1012.9894"/>
<polygon fill="#ffffff" stroke="transparent" points="9.5,-1013.9894 9.5,-1030.9894 58.5,-1030.9894 58.5,-1013.9894 9.5,-1013.9894"/>
<text text-anchor="start" x="11.5" y="-1019.0894" font-family="Helvetica,sans-Serif" font-size="11.00" fill="#000000"> &#160;</text>
<polygon fill="#ffffff" stroke="transparent" points="58.5,-1013.9894 58.5,-1030.9894 107.5,-1030.9894 107.5,-1013.9894 58.5,-1013.9894"/>
<text text-anchor="start" x="79.9431" y="-1019.0894" font-family="Helvetica,sans-Serif" font-size="11.00" fill="#000000"> &#160;</text>
<polygon fill="#ffffff" stroke="transparent" points="107.5,-1013.9894 107.5,-1030.9894 164.5,-1030.9894 164.5,-1013.9894 107.5,-1013.9894"/>
<text text-anchor="start" x="146.9053" y="-1019.0894" font-family="Helvetica,sans-Serif" font-size="11.00" fill="#000000">2 &gt;</text>
<polygon fill="#000000" stroke="#000000" points="58.5,-1013.9894 58.5,-1030.9894 58.5,-1030.9894 58.5,-1013.9894 58.5,-1013.9894"/>
<polygon fill="#000000" stroke="#000000" points="107.5,-1013.9894 107.5,-1030.9894 107.5,-1030.9894 107.5,-1013.9894 107.5,-1013.9894"/>
</a>
</g>
</g>
<!-- act_ge_bytearray&#45;&gt;act_re_deployment -->
<g id="edge1" class="edge">
<title>act_ge_bytearray:w&#45;&gt;act_re_deployment:e</title>
<path fill="none" stroke="#000000" d="M226.0448,-911.6262C182.1959,-930.2302 227.3082,-1040.9894 165.5,-1040.9894"/>
<polygon fill="#000000" stroke="#000000" points="232.6299,-910.425 241.146,-912.531 236.5649,-909.7072 240.5,-908.9894 240.5,-908.9894 240.5,-908.9894 236.5649,-909.7072 239.854,-905.4479 232.6299,-910.425 232.6299,-910.425"/>
<ellipse fill="none" stroke="#000000" cx="229.4818" cy="-910.9993" rx="3.2" ry="3.2"/>
</g>
<!-- act_procdef_info -->
<g id="node3" class="node">
<title>act_procdef_info</title>
<g id="a_node3"><a xlink:href="../../tables/act_procdef_info.html" xlink:title="act_procdef_info" target="_top">
<polygon fill="#ffffff" stroke="transparent" points="485,-1126.4894 485,-1187.4894 628,-1187.4894 628,-1126.4894 485,-1126.4894"/>
<polygon fill="#f5f5f5" stroke="transparent" points="485.5,-1163.9894 485.5,-1186.9894 628.5,-1186.9894 628.5,-1163.9894 485.5,-1163.9894"/>
<polygon fill="none" stroke="#000000" points="485.5,-1163.9894 485.5,-1186.9894 628.5,-1186.9894 628.5,-1163.9894 485.5,-1163.9894"/>
<text text-anchor="start" x="490.5" y="-1172.5894" font-family="Helvetica,sans-Serif" font-weight="bold" font-size="11.00" fill="#000000">act_procdef_info</text>
<text text-anchor="start" x="594.0219" y="-1172.0894" font-family="Helvetica,sans-Serif" font-size="11.00" fill="#000000">[table]</text>
<polygon fill="none" stroke="#000000" points="485.5,-1144.9894 485.5,-1163.9894 628.5,-1163.9894 628.5,-1144.9894 485.5,-1144.9894"/>
<text text-anchor="start" x="488.5" y="-1151.0894" font-family="Helvetica,sans-Serif" font-size="11.00" fill="#000000">...</text>
<polygon fill="#ffffff" stroke="transparent" points="485.5,-1125.9894 485.5,-1144.9894 628.5,-1144.9894 628.5,-1125.9894 485.5,-1125.9894"/>
<polygon fill="none" stroke="#000000" points="485.5,-1125.9894 485.5,-1144.9894 628.5,-1144.9894 628.5,-1125.9894 485.5,-1125.9894"/>
<polygon fill="#ffffff" stroke="transparent" points="486.5,-1126.9894 486.5,-1143.9894 539.5,-1143.9894 539.5,-1126.9894 486.5,-1126.9894"/>
<text text-anchor="start" x="488.5" y="-1132.0894" font-family="Helvetica,sans-Serif" font-size="11.00" fill="#000000">&lt; 2</text>
<polygon fill="#ffffff" stroke="transparent" points="539.5,-1126.9894 539.5,-1143.9894 583.5,-1143.9894 583.5,-1126.9894 539.5,-1126.9894"/>
<text text-anchor="start" x="558.4431" y="-1132.0894" font-family="Helvetica,sans-Serif" font-size="11.00" fill="#000000"> &#160;</text>
<polygon fill="#ffffff" stroke="transparent" points="583.5,-1126.9894 583.5,-1143.9894 627.5,-1143.9894 627.5,-1126.9894 583.5,-1126.9894"/>
<text text-anchor="start" x="619.3862" y="-1132.0894" font-family="Helvetica,sans-Serif" font-size="11.00" fill="#000000"> &#160;</text>
<polygon fill="#000000" stroke="#000000" points="539.5,-1126.9894 539.5,-1143.9894 539.5,-1143.9894 539.5,-1126.9894 539.5,-1126.9894"/>
<polygon fill="#000000" stroke="#000000" points="583.5,-1126.9894 583.5,-1143.9894 583.5,-1143.9894 583.5,-1126.9894 583.5,-1126.9894"/>
</a>
</g>
</g>
<!-- act_procdef_info&#45;&gt;act_ge_bytearray -->
<g id="edge2" class="edge">
<title>act_procdef_info:w&#45;&gt;act_ge_bytearray:e</title>
<path fill="none" stroke="#000000" d="M471.1517,-1152.4463C387.7907,-1132.7437 488.8164,-930.9894 385.5,-930.9894"/>
<polygon fill="#000000" stroke="#000000" points="477.5459,-1153.1339 485.115,-1157.5688 481.5229,-1153.5617 485.5,-1153.9894 485.5,-1153.9894 485.5,-1153.9894 481.5229,-1153.5617 485.885,-1150.4101 477.5459,-1153.1339 477.5459,-1153.1339"/>
<ellipse fill="none" stroke="#000000" cx="474.3642" cy="-1152.7917" rx="3.2" ry="3.2"/>
</g>
<!-- act_re_procdef -->
<g id="node4" class="node">
<title>act_re_procdef</title>
<g id="a_node4"><a xlink:href="../../tables/act_re_procdef.html" xlink:title="act_re_procdef" target="_top">
<polygon fill="#ffffff" stroke="transparent" points="20.5,-393.4894 20.5,-454.4894 152.5,-454.4894 152.5,-393.4894 20.5,-393.4894"/>
<polygon fill="#f5f5f5" stroke="transparent" points="20.5,-430.9894 20.5,-453.9894 152.5,-453.9894 152.5,-430.9894 20.5,-430.9894"/>
<polygon fill="none" stroke="#000000" points="20.5,-430.9894 20.5,-453.9894 152.5,-453.9894 152.5,-430.9894 20.5,-430.9894"/>
<text text-anchor="start" x="25.5" y="-439.5894" font-family="Helvetica,sans-Serif" font-weight="bold" font-size="11.00" fill="#000000">act_re_procdef</text>
<text text-anchor="start" x="118.0219" y="-439.0894" font-family="Helvetica,sans-Serif" font-size="11.00" fill="#000000">[table]</text>
<polygon fill="none" stroke="#000000" points="20.5,-411.9894 20.5,-430.9894 152.5,-430.9894 152.5,-411.9894 20.5,-411.9894"/>
<text text-anchor="start" x="23.5" y="-418.0894" font-family="Helvetica,sans-Serif" font-size="11.00" fill="#000000">...</text>
<polygon fill="#ffffff" stroke="transparent" points="20.5,-392.9894 20.5,-411.9894 152.5,-411.9894 152.5,-392.9894 20.5,-392.9894"/>
<polygon fill="none" stroke="#000000" points="20.5,-392.9894 20.5,-411.9894 152.5,-411.9894 152.5,-392.9894 20.5,-392.9894"/>
<polygon fill="#ffffff" stroke="transparent" points="21.5,-393.9894 21.5,-410.9894 62.5,-410.9894 62.5,-393.9894 21.5,-393.9894"/>
<text text-anchor="start" x="23.5" y="-399.0894" font-family="Helvetica,sans-Serif" font-size="11.00" fill="#000000"> &#160;</text>
<polygon fill="#ffffff" stroke="transparent" points="62.5,-393.9894 62.5,-410.9894 102.5,-410.9894 102.5,-393.9894 62.5,-393.9894"/>
<text text-anchor="start" x="79.4431" y="-399.0894" font-family="Helvetica,sans-Serif" font-size="11.00" fill="#000000"> &#160;</text>
<polygon fill="#ffffff" stroke="transparent" points="102.5,-393.9894 102.5,-410.9894 151.5,-410.9894 151.5,-393.9894 102.5,-393.9894"/>
<text text-anchor="start" x="133.9053" y="-399.0894" font-family="Helvetica,sans-Serif" font-size="11.00" fill="#000000">8 &gt;</text>
<polygon fill="#000000" stroke="#000000" points="62.5,-393.9894 62.5,-410.9894 62.5,-410.9894 62.5,-393.9894 62.5,-393.9894"/>
<polygon fill="#000000" stroke="#000000" points="102.5,-393.9894 102.5,-410.9894 102.5,-410.9894 102.5,-393.9894 102.5,-393.9894"/>
</a>
</g>
</g>
<!-- act_procdef_info&#45;&gt;act_re_procdef -->
<g id="edge3" class="edge">
<title>act_procdef_info:w&#45;&gt;act_re_procdef:e</title>
<path fill="none" stroke="#000000" d="M474.8609,-1152.8939C447.0915,-1146.5991 448.8806,-1114.6609 419,-1095.9894 331.8457,-1041.5293 266.6386,-1088.9637 206,-1005.9894 167.4874,-953.2911 217.7713,-420.9894 152.5,-420.9894"/>
<polygon fill="#000000" stroke="#000000" points="485.1139,-1149.9285 484.2945,-1157.8864 482.7029,-1157.7225 483.5224,-1149.7646 485.1139,-1149.9285"/>
<polyline fill="none" stroke="#000000" points="485.5,-1153.9894 481.521,-1153.5797 "/>
<ellipse fill="none" stroke="#000000" cx="478.3379" cy="-1153.2519" rx="3.2" ry="3.2"/>
</g>
<!-- act_re_model -->
<g id="node5" class="node">
<title>act_re_model</title>
<g id="a_node5"><a xlink:href="../../tables/act_re_model.html" xlink:title="act_re_model" target="_top">
<polygon fill="#ffffff" stroke="transparent" points="495.5,-1208.4894 495.5,-1269.4894 617.5,-1269.4894 617.5,-1208.4894 495.5,-1208.4894"/>
<polygon fill="#f5f5f5" stroke="transparent" points="495.5,-1245.9894 495.5,-1268.9894 617.5,-1268.9894 617.5,-1245.9894 495.5,-1245.9894"/>
<polygon fill="none" stroke="#000000" points="495.5,-1245.9894 495.5,-1268.9894 617.5,-1268.9894 617.5,-1245.9894 495.5,-1245.9894"/>
<text text-anchor="start" x="500.5" y="-1254.5894" font-family="Helvetica,sans-Serif" font-weight="bold" font-size="11.00" fill="#000000">act_re_model</text>
<text text-anchor="start" x="583.0219" y="-1254.0894" font-family="Helvetica,sans-Serif" font-size="11.00" fill="#000000">[table]</text>
<polygon fill="none" stroke="#000000" points="495.5,-1226.9894 495.5,-1245.9894 617.5,-1245.9894 617.5,-1226.9894 495.5,-1226.9894"/>
<text text-anchor="start" x="498.5" y="-1233.0894" font-family="Helvetica,sans-Serif" font-size="11.00" fill="#000000">...</text>
<polygon fill="#ffffff" stroke="transparent" points="495.5,-1207.9894 495.5,-1226.9894 617.5,-1226.9894 617.5,-1207.9894 495.5,-1207.9894"/>
<polygon fill="none" stroke="#000000" points="495.5,-1207.9894 495.5,-1226.9894 617.5,-1226.9894 617.5,-1207.9894 495.5,-1207.9894"/>
<polygon fill="#ffffff" stroke="transparent" points="496.5,-1208.9894 496.5,-1225.9894 542.5,-1225.9894 542.5,-1208.9894 496.5,-1208.9894"/>
<text text-anchor="start" x="498.5" y="-1214.0894" font-family="Helvetica,sans-Serif" font-size="11.00" fill="#000000">&lt; 3</text>
<polygon fill="#ffffff" stroke="transparent" points="542.5,-1208.9894 542.5,-1225.9894 579.5,-1225.9894 579.5,-1208.9894 542.5,-1208.9894"/>
<text text-anchor="start" x="557.9431" y="-1214.0894" font-family="Helvetica,sans-Serif" font-size="11.00" fill="#000000"> &#160;</text>
<polygon fill="#ffffff" stroke="transparent" points="579.5,-1208.9894 579.5,-1225.9894 616.5,-1225.9894 616.5,-1208.9894 579.5,-1208.9894"/>
<text text-anchor="start" x="608.3862" y="-1214.0894" font-family="Helvetica,sans-Serif" font-size="11.00" fill="#000000"> &#160;</text>
<polygon fill="#000000" stroke="#000000" points="542.5,-1208.9894 542.5,-1225.9894 542.5,-1225.9894 542.5,-1208.9894 542.5,-1208.9894"/>
<polygon fill="#000000" stroke="#000000" points="579.5,-1208.9894 579.5,-1225.9894 579.5,-1225.9894 579.5,-1208.9894 579.5,-1208.9894"/>
</a>
</g>
</g>
<!-- act_re_model&#45;&gt;act_ge_bytearray -->
<g id="edge5" class="edge">
<title>act_re_model:w&#45;&gt;act_ge_bytearray:e</title>
<path fill="none" stroke="#000000" d="M481.1115,-1234.1967C363.8551,-1208.3544 524.3953,-925.2062 385.5,-930.9894"/>
<polygon fill="#000000" stroke="#000000" points="487.5614,-1235.0003 495.0549,-1239.5618 491.5307,-1235.4948 495.5,-1235.9894 495.5,-1235.9894 495.5,-1235.9894 491.5307,-1235.4948 495.9451,-1232.417 487.5614,-1235.0003 487.5614,-1235.0003"/>
<ellipse fill="none" stroke="#000000" cx="484.3859" cy="-1234.6046" rx="3.2" ry="3.2"/>
</g>
<!-- act_re_model&#45;&gt;act_ge_bytearray -->
<g id="edge6" class="edge">
<title>act_re_model:w&#45;&gt;act_ge_bytearray:e</title>
<path fill="none" stroke="#000000" d="M480.756,-1235.5109C364.1801,-1220.7631 524.2546,-937.7297 385.5,-930.9894"/>
<polygon fill="#000000" stroke="#000000" points="487.5042,-1235.7299 495.3832,-1239.5875 491.5021,-1235.8596 495.5,-1235.9894 495.5,-1235.9894 495.5,-1235.9894 491.5021,-1235.8596 495.6168,-1232.3913 487.5042,-1235.7299 487.5042,-1235.7299"/>
<ellipse fill="none" stroke="#000000" cx="484.3059" cy="-1235.6261" rx="3.2" ry="3.2"/>
</g>
<!-- act_re_model&#45;&gt;act_re_deployment -->
<g id="edge4" class="edge">
<title>act_re_model:w&#45;&gt;act_re_deployment:e</title>
<path fill="none" stroke="#000000" d="M480.7949,-1235.8049C349.7587,-1232.4318 312.4741,-1182.9135 206,-1094.9894 182.8676,-1075.8872 195.5,-1040.9894 165.5,-1040.9894"/>
<polygon fill="#000000" stroke="#000000" points="487.5006,-1235.889 495.4548,-1239.5891 491.5003,-1235.9392 495.5,-1235.9894 495.5,-1235.9894 495.5,-1235.9894 491.5003,-1235.9392 495.5452,-1232.3897 487.5006,-1235.889 487.5006,-1235.889"/>
<ellipse fill="none" stroke="#000000" cx="484.3009" cy="-1235.8488" rx="3.2" ry="3.2"/>
</g>
<!-- act_ru_deadletter_job -->
<g id="node6" class="node">
<title>act_ru_deadletter_job</title>
<g id="a_node6"><a xlink:href="../../tables/act_ru_deadletter_job.html" xlink:title="act_ru_deadletter_job" target="_top">
<polygon fill="#ffffff" stroke="transparent" points="469.5,-962.4894 469.5,-1023.4894 643.5,-1023.4894 643.5,-962.4894 469.5,-962.4894"/>
<polygon fill="#f5f5f5" stroke="transparent" points="469.5,-999.9894 469.5,-1022.9894 643.5,-1022.9894 643.5,-999.9894 469.5,-999.9894"/>
<polygon fill="none" stroke="#000000" points="469.5,-999.9894 469.5,-1022.9894 643.5,-1022.9894 643.5,-999.9894 469.5,-999.9894"/>
<text text-anchor="start" x="474.5" y="-1008.5894" font-family="Helvetica,sans-Serif" font-weight="bold" font-size="11.00" fill="#000000">act_ru_deadletter_job</text>
<text text-anchor="start" x="609.0219" y="-1008.0894" font-family="Helvetica,sans-Serif" font-size="11.00" fill="#000000">[table]</text>
<polygon fill="none" stroke="#000000" points="469.5,-980.9894 469.5,-999.9894 643.5,-999.9894 643.5,-980.9894 469.5,-980.9894"/>
<text text-anchor="start" x="472.5" y="-987.0894" font-family="Helvetica,sans-Serif" font-size="11.00" fill="#000000">...</text>
<polygon fill="#ffffff" stroke="transparent" points="469.5,-961.9894 469.5,-980.9894 643.5,-980.9894 643.5,-961.9894 469.5,-961.9894"/>
<polygon fill="none" stroke="#000000" points="469.5,-961.9894 469.5,-980.9894 643.5,-980.9894 643.5,-961.9894 469.5,-961.9894"/>
<polygon fill="#ffffff" stroke="transparent" points="470.5,-962.9894 470.5,-979.9894 534.5,-979.9894 534.5,-962.9894 470.5,-962.9894"/>
<text text-anchor="start" x="472.5" y="-968.0894" font-family="Helvetica,sans-Serif" font-size="11.00" fill="#000000">&lt; 5</text>
<polygon fill="#ffffff" stroke="transparent" points="534.5,-962.9894 534.5,-979.9894 588.5,-979.9894 588.5,-962.9894 534.5,-962.9894"/>
<text text-anchor="start" x="558.4431" y="-968.0894" font-family="Helvetica,sans-Serif" font-size="11.00" fill="#000000"> &#160;</text>
<polygon fill="#ffffff" stroke="transparent" points="588.5,-962.9894 588.5,-979.9894 642.5,-979.9894 642.5,-962.9894 588.5,-962.9894"/>
<text text-anchor="start" x="634.3862" y="-968.0894" font-family="Helvetica,sans-Serif" font-size="11.00" fill="#000000"> &#160;</text>
<polygon fill="#000000" stroke="#000000" points="534.5,-962.9894 534.5,-979.9894 534.5,-979.9894 534.5,-962.9894 534.5,-962.9894"/>
<polygon fill="#000000" stroke="#000000" points="588.5,-962.9894 588.5,-979.9894 588.5,-979.9894 588.5,-962.9894 588.5,-962.9894"/>
</a>
</g>
</g>
<!-- act_ru_deadletter_job&#45;&gt;act_ge_bytearray -->
<g id="edge7" class="edge">
<title>act_ru_deadletter_job:w&#45;&gt;act_ge_bytearray:e</title>
<path fill="none" stroke="#000000" d="M455.4688,-985.8864C424.8497,-971.0539 425.7758,-925.6925 385.5,-930.9894"/>
<polygon fill="#000000" stroke="#000000" points="461.8216,-987.744 468.4896,-993.4447 465.6608,-988.8667 469.5,-989.9894 469.5,-989.9894 469.5,-989.9894 465.6608,-988.8667 470.5104,-986.5341 461.8216,-987.744 461.8216,-987.744"/>
<ellipse fill="none" stroke="#000000" cx="458.7502" cy="-986.8459" rx="3.2" ry="3.2"/>
</g>
<!-- act_ru_deadletter_job&#45;&gt;act_ge_bytearray -->
<g id="edge8" class="edge">
<title>act_ru_deadletter_job:w&#45;&gt;act_ge_bytearray:e</title>
<path fill="none" stroke="#000000" d="M455.0642,-989.8385C424.8571,-983.4629 425.5976,-937.1418 385.5,-930.9894"/>
<polygon fill="#000000" stroke="#000000" points="461.5004,-989.9057 469.4623,-993.5892 465.5002,-989.9476 469.5,-989.9894 469.5,-989.9894 469.5,-989.9894 465.5002,-989.9476 469.5377,-986.3896 461.5004,-989.9057 461.5004,-989.9057"/>
<ellipse fill="none" stroke="#000000" cx="458.3006" cy="-989.8723" rx="3.2" ry="3.2"/>
</g>
<!-- act_ru_deadletter_job&#45;&gt;act_re_procdef -->
<g id="edge10" class="edge">
<title>act_ru_deadletter_job:w&#45;&gt;act_re_procdef:e</title>
<path fill="none" stroke="#000000" d="M455.015,-990.3286C347.0151,-995.3654 287.1349,-1053.707 206,-975.9894 116.5218,-890.28 276.405,-420.9894 152.5,-420.9894"/>
<polygon fill="#000000" stroke="#000000" points="461.5022,-990.1767 469.5843,-993.5884 465.5011,-990.0831 469.5,-989.9894 469.5,-989.9894 469.5,-989.9894 465.5011,-990.0831 469.4157,-986.3904 461.5022,-990.1767 461.5022,-990.1767"/>
<ellipse fill="none" stroke="#000000" cx="458.3031" cy="-990.2517" rx="3.2" ry="3.2"/>
</g>
<!-- act_ru_execution -->
<g id="node7" class="node">
<title>act_ru_execution</title>
<g id="a_node7"><a xlink:href="../../tables/act_ru_execution.html" xlink:title="act_ru_execution" target="_top">
<polygon fill="#ffffff" stroke="transparent" points="214,-375.4894 214,-612.4894 411,-612.4894 411,-375.4894 214,-375.4894"/>
<polygon fill="#f5f5f5" stroke="transparent" points="214.5,-588.9894 214.5,-611.9894 411.5,-611.9894 411.5,-588.9894 214.5,-588.9894"/>
<polygon fill="none" stroke="#000000" points="214.5,-588.9894 214.5,-611.9894 411.5,-611.9894 411.5,-588.9894 214.5,-588.9894"/>
<text text-anchor="start" x="219.5" y="-597.5894" font-family="Helvetica,sans-Serif" font-weight="bold" font-size="11.00" fill="#000000">act_ru_execution</text>
<text text-anchor="start" x="376.5437" y="-597.0894" font-family="Helvetica,sans-Serif" font-size="11.00" fill="#000000">[table]</text>
<polygon fill="none" stroke="#000000" points="214.5,-566.9894 214.5,-588.9894 411.5,-588.9894 411.5,-566.9894 214.5,-566.9894"/>
<image xlink:href="../../images/primaryKeys.png" width="11px" height="12px" preserveAspectRatio="xMinYMin meet" x="219.5" y="-583.989"/>
<text text-anchor="start" x="234.5" y="-574.0894" font-family="Helvetica,sans-Serif" font-size="11.00" fill="#000000">id_</text>
<polygon fill="#ffffff" stroke="transparent" points="214.5,-544.9894 214.5,-566.9894 411.5,-566.9894 411.5,-544.9894 214.5,-544.9894"/>
<polygon fill="none" stroke="#000000" points="214.5,-544.9894 214.5,-566.9894 411.5,-566.9894 411.5,-544.9894 214.5,-544.9894"/>
<image xlink:href="../../images/foreignKeys.png" width="11px" height="12px" preserveAspectRatio="xMinYMin meet" x="219.5" y="-561.989"/>
<text text-anchor="start" x="234.5" y="-552.0894" font-family="Helvetica,sans-Serif" font-size="11.00" fill="#000000">proc_inst_id_</text>
<polygon fill="#ffffff" stroke="transparent" points="214.5,-522.9894 214.5,-544.9894 411.5,-544.9894 411.5,-522.9894 214.5,-522.9894"/>
<polygon fill="none" stroke="#000000" points="214.5,-522.9894 214.5,-544.9894 411.5,-544.9894 411.5,-522.9894 214.5,-522.9894"/>
<text text-anchor="start" x="234.5" y="-530.0894" font-family="Helvetica,sans-Serif" font-size="11.00" fill="#000000">business_key_</text>
<polygon fill="#ffffff" stroke="transparent" points="214.5,-500.9894 214.5,-522.9894 411.5,-522.9894 411.5,-500.9894 214.5,-500.9894"/>
<polygon fill="none" stroke="#000000" points="214.5,-500.9894 214.5,-522.9894 411.5,-522.9894 411.5,-500.9894 214.5,-500.9894"/>
<image xlink:href="../../images/foreignKeys.png" width="11px" height="12px" preserveAspectRatio="xMinYMin meet" x="219.5" y="-517.989"/>
<text text-anchor="start" x="234.5" y="-508.0894" font-family="Helvetica,sans-Serif" font-size="11.00" fill="#000000">parent_id_</text>
<polygon fill="#ffffff" stroke="transparent" points="214.5,-478.9894 214.5,-500.9894 411.5,-500.9894 411.5,-478.9894 214.5,-478.9894"/>
<polygon fill="none" stroke="#000000" points="214.5,-478.9894 214.5,-500.9894 411.5,-500.9894 411.5,-478.9894 214.5,-478.9894"/>
<image xlink:href="../../images/foreignKeys.png" width="11px" height="12px" preserveAspectRatio="xMinYMin meet" x="219.5" y="-495.989"/>
<text text-anchor="start" x="234.5" y="-486.0894" font-family="Helvetica,sans-Serif" font-size="11.00" fill="#000000">proc_def_id_</text>
<polygon fill="#ffffff" stroke="transparent" points="214.5,-456.9894 214.5,-478.9894 411.5,-478.9894 411.5,-456.9894 214.5,-456.9894"/>
<polygon fill="none" stroke="#000000" points="214.5,-456.9894 214.5,-478.9894 411.5,-478.9894 411.5,-456.9894 214.5,-456.9894"/>
<image xlink:href="../../images/foreignKeys.png" width="11px" height="12px" preserveAspectRatio="xMinYMin meet" x="219.5" y="-473.989"/>
<text text-anchor="start" x="234.5" y="-464.0894" font-family="Helvetica,sans-Serif" font-size="11.00" fill="#000000">super_exec_</text>
<polygon fill="#ffffff" stroke="transparent" points="214.5,-434.9894 214.5,-456.9894 411.5,-456.9894 411.5,-434.9894 214.5,-434.9894"/>
<polygon fill="none" stroke="#000000" points="214.5,-434.9894 214.5,-456.9894 411.5,-456.9894 411.5,-434.9894 214.5,-434.9894"/>
<text text-anchor="start" x="234.5" y="-442.0894" font-family="Helvetica,sans-Serif" font-size="11.00" fill="#000000">root_proc_inst_id_</text>
<polygon fill="#ffffff" stroke="transparent" points="214.5,-412.9894 214.5,-434.9894 411.5,-434.9894 411.5,-412.9894 214.5,-412.9894"/>
<polygon fill="none" stroke="#000000" points="214.5,-412.9894 214.5,-434.9894 411.5,-434.9894 411.5,-412.9894 214.5,-412.9894"/>
<text text-anchor="start" x="234.5" y="-420.0894" font-family="Helvetica,sans-Serif" font-size="11.00" fill="#000000">reference_id_</text>
<polygon fill="none" stroke="#000000" points="214.5,-393.9894 214.5,-412.9894 411.5,-412.9894 411.5,-393.9894 214.5,-393.9894"/>
<text text-anchor="start" x="217.5" y="-400.0894" font-family="Helvetica,sans-Serif" font-size="11.00" fill="#000000">...</text>
<polygon fill="#ffffff" stroke="transparent" points="214.5,-374.9894 214.5,-393.9894 411.5,-393.9894 411.5,-374.9894 214.5,-374.9894"/>
<polygon fill="none" stroke="#000000" points="214.5,-374.9894 214.5,-393.9894 411.5,-393.9894 411.5,-374.9894 214.5,-374.9894"/>
<polygon fill="#ffffff" stroke="transparent" points="215.5,-375.9894 215.5,-392.9894 281.5,-392.9894 281.5,-375.9894 215.5,-375.9894"/>
<text text-anchor="start" x="217.5" y="-381.0894" font-family="Helvetica,sans-Serif" font-size="11.00" fill="#000000">&lt; 4</text>
<polygon fill="#ffffff" stroke="transparent" points="281.5,-375.9894 281.5,-392.9894 338.5,-392.9894 338.5,-375.9894 281.5,-375.9894"/>
<text text-anchor="start" x="306.9431" y="-381.0894" font-family="Helvetica,sans-Serif" font-size="11.00" fill="#000000"> &#160;</text>
<polygon fill="#ffffff" stroke="transparent" points="338.5,-375.9894 338.5,-392.9894 410.5,-392.9894 410.5,-375.9894 338.5,-375.9894"/>
<text text-anchor="start" x="386.7904" y="-381.0894" font-family="Helvetica,sans-Serif" font-size="11.00" fill="#000000">17 &gt;</text>
<polygon fill="#000000" stroke="#000000" points="281.5,-375.9894 281.5,-392.9894 281.5,-392.9894 281.5,-375.9894 281.5,-375.9894"/>
<polygon fill="#000000" stroke="#000000" points="338.5,-375.9894 338.5,-392.9894 338.5,-392.9894 338.5,-375.9894 338.5,-375.9894"/>
</a>
</g>
</g>
<!-- act_ru_deadletter_job&#45;&gt;act_ru_execution -->
<g id="edge9" class="edge">
<title>act_ru_deadletter_job:w&#45;&gt;act_ru_execution:e</title>
<path fill="none" stroke="#000000" d="M455.821,-985.2121C390.7152,-938.6586 498.7214,-572.3293 411.5,-577.9894"/>
<polygon fill="#000000" stroke="#000000" points="461.9474,-987.3517 468.313,-993.3881 465.7237,-988.6705 469.5,-989.9894 469.5,-989.9894 469.5,-989.9894 465.7237,-988.6705 470.687,-986.5907 461.9474,-987.3517 461.9474,-987.3517"/>
<ellipse fill="none" stroke="#000000" cx="458.9263" cy="-986.2966" rx="3.2" ry="3.2"/>
</g>
<!-- act_ru_deadletter_job&#45;&gt;act_ru_execution -->
<g id="edge11" class="edge">
<title>act_ru_deadletter_job:w&#45;&gt;act_ru_execution:e</title>
<path fill="none" stroke="#000000" d="M455.0211,-986.8357C391.6063,-948.5835 498.3603,-584.5656 411.5,-577.9894"/>
<polygon fill="#000000" stroke="#000000" points="461.6833,-988.2868 468.7338,-993.5069 465.5916,-989.1381 469.5,-989.9894 469.5,-989.9894 469.5,-989.9894 465.5916,-989.1381 470.2662,-986.4719 461.6833,-988.2868 461.6833,-988.2868"/>
<ellipse fill="none" stroke="#000000" cx="458.5566" cy="-987.6058" rx="3.2" ry="3.2"/>
</g>
<!-- act_ru_execution&#45;&gt;act_re_procdef -->
<g id="edge13" class="edge">
<title>act_ru_execution:w&#45;&gt;act_re_procdef:e</title>
<path fill="none" stroke="#000000" d="M200.4233,-486.2797C177.8054,-471.9477 187.9304,-420.9894 152.5,-420.9894"/>
<polygon fill="#000000" stroke="#000000" points="206.7641,-487.9507 213.5826,-493.4706 210.6321,-488.9701 214.5,-489.9894 214.5,-489.9894 214.5,-489.9894 210.6321,-488.9701 215.4174,-486.5083 206.7641,-487.9507 206.7641,-487.9507"/>
<ellipse fill="none" stroke="#000000" cx="203.6698" cy="-487.1352" rx="3.2" ry="3.2"/>
</g>
<!-- act_ru_event_subscr -->
<g id="node8" class="node">
<title>act_ru_event_subscr</title>
<g id="a_node8"><a xlink:href="../../tables/act_ru_event_subscr.html" xlink:title="act_ru_event_subscr" target="_top">
<polygon fill="#ffffff" stroke="transparent" points="472,-214.4894 472,-275.4894 641,-275.4894 641,-214.4894 472,-214.4894"/>
<polygon fill="#f5f5f5" stroke="transparent" points="472.5,-251.9894 472.5,-274.9894 641.5,-274.9894 641.5,-251.9894 472.5,-251.9894"/>
<polygon fill="none" stroke="#000000" points="472.5,-251.9894 472.5,-274.9894 641.5,-274.9894 641.5,-251.9894 472.5,-251.9894"/>
<text text-anchor="start" x="477.5" y="-260.5894" font-family="Helvetica,sans-Serif" font-weight="bold" font-size="11.00" fill="#000000">act_ru_event_subscr</text>
<text text-anchor="start" x="607.0219" y="-260.0894" font-family="Helvetica,sans-Serif" font-size="11.00" fill="#000000">[table]</text>
<polygon fill="none" stroke="#000000" points="472.5,-232.9894 472.5,-251.9894 641.5,-251.9894 641.5,-232.9894 472.5,-232.9894"/>
<text text-anchor="start" x="475.5" y="-239.0894" font-family="Helvetica,sans-Serif" font-size="11.00" fill="#000000">...</text>
<polygon fill="#ffffff" stroke="transparent" points="472.5,-213.9894 472.5,-232.9894 641.5,-232.9894 641.5,-213.9894 472.5,-213.9894"/>
<polygon fill="none" stroke="#000000" points="472.5,-213.9894 472.5,-232.9894 641.5,-232.9894 641.5,-213.9894 472.5,-213.9894"/>
<polygon fill="#ffffff" stroke="transparent" points="473.5,-214.9894 473.5,-231.9894 535.5,-231.9894 535.5,-214.9894 473.5,-214.9894"/>
<text text-anchor="start" x="475.5" y="-220.0894" font-family="Helvetica,sans-Serif" font-size="11.00" fill="#000000">&lt; 1</text>
<polygon fill="#ffffff" stroke="transparent" points="535.5,-214.9894 535.5,-231.9894 588.5,-231.9894 588.5,-214.9894 535.5,-214.9894"/>
<text text-anchor="start" x="558.9431" y="-220.0894" font-family="Helvetica,sans-Serif" font-size="11.00" fill="#000000"> &#160;</text>
<polygon fill="#ffffff" stroke="transparent" points="588.5,-214.9894 588.5,-231.9894 640.5,-231.9894 640.5,-214.9894 588.5,-214.9894"/>
<text text-anchor="start" x="632.3862" y="-220.0894" font-family="Helvetica,sans-Serif" font-size="11.00" fill="#000000"> &#160;</text>
<polygon fill="#000000" stroke="#000000" points="535.5,-214.9894 535.5,-231.9894 535.5,-231.9894 535.5,-214.9894 535.5,-214.9894"/>
<polygon fill="#000000" stroke="#000000" points="588.5,-214.9894 588.5,-231.9894 588.5,-231.9894 588.5,-214.9894 588.5,-214.9894"/>
</a>
</g>
</g>
<!-- act_ru_event_subscr&#45;&gt;act_ru_execution -->
<g id="edge12" class="edge">
<title>act_ru_event_subscr:w&#45;&gt;act_ru_execution:e</title>
<path fill="none" stroke="#000000" d="M458.8485,-246.7392C408.554,-287.5783 482.0514,-577.9894 411.5,-577.9894"/>
<polygon fill="#000000" stroke="#000000" points="464.9443,-244.6183 473.683,-245.3895 468.7221,-243.3039 472.5,-241.9894 472.5,-241.9894 472.5,-241.9894 468.7221,-243.3039 471.317,-238.5893 464.9443,-244.6183 464.9443,-244.6183"/>
<ellipse fill="none" stroke="#000000" cx="461.922" cy="-245.6699" rx="3.2" ry="3.2"/>
</g>
<!-- act_ru_external_job -->
<g id="node9" class="node">
<title>act_ru_external_job</title>
<g id="a_node9"><a xlink:href="../../tables/act_ru_external_job.html" xlink:title="act_ru_external_job" target="_top">
<polygon fill="#ffffff" stroke="transparent" points="476,-1044.4894 476,-1105.4894 637,-1105.4894 637,-1044.4894 476,-1044.4894"/>
<polygon fill="#f5f5f5" stroke="transparent" points="476.5,-1081.9894 476.5,-1104.9894 637.5,-1104.9894 637.5,-1081.9894 476.5,-1081.9894"/>
<polygon fill="none" stroke="#000000" points="476.5,-1081.9894 476.5,-1104.9894 637.5,-1104.9894 637.5,-1081.9894 476.5,-1081.9894"/>
<text text-anchor="start" x="481.5" y="-1090.5894" font-family="Helvetica,sans-Serif" font-weight="bold" font-size="11.00" fill="#000000">act_ru_external_job</text>
<text text-anchor="start" x="603.0219" y="-1090.0894" font-family="Helvetica,sans-Serif" font-size="11.00" fill="#000000">[table]</text>
<polygon fill="none" stroke="#000000" points="476.5,-1062.9894 476.5,-1081.9894 637.5,-1081.9894 637.5,-1062.9894 476.5,-1062.9894"/>
<text text-anchor="start" x="479.5" y="-1069.0894" font-family="Helvetica,sans-Serif" font-size="11.00" fill="#000000">...</text>
<polygon fill="#ffffff" stroke="transparent" points="476.5,-1043.9894 476.5,-1062.9894 637.5,-1062.9894 637.5,-1043.9894 476.5,-1043.9894"/>
<polygon fill="none" stroke="#000000" points="476.5,-1043.9894 476.5,-1062.9894 637.5,-1062.9894 637.5,-1043.9894 476.5,-1043.9894"/>
<polygon fill="#ffffff" stroke="transparent" points="477.5,-1044.9894 477.5,-1061.9894 536.5,-1061.9894 536.5,-1044.9894 477.5,-1044.9894"/>
<text text-anchor="start" x="479.5" y="-1050.0894" font-family="Helvetica,sans-Serif" font-size="11.00" fill="#000000">&lt; 2</text>
<polygon fill="#ffffff" stroke="transparent" points="536.5,-1044.9894 536.5,-1061.9894 586.5,-1061.9894 586.5,-1044.9894 536.5,-1044.9894"/>
<text text-anchor="start" x="558.4431" y="-1050.0894" font-family="Helvetica,sans-Serif" font-size="11.00" fill="#000000"> &#160;</text>
<polygon fill="#ffffff" stroke="transparent" points="586.5,-1044.9894 586.5,-1061.9894 636.5,-1061.9894 636.5,-1044.9894 586.5,-1044.9894"/>
<text text-anchor="start" x="628.3862" y="-1050.0894" font-family="Helvetica,sans-Serif" font-size="11.00" fill="#000000"> &#160;</text>
<polygon fill="#000000" stroke="#000000" points="536.5,-1044.9894 536.5,-1061.9894 536.5,-1061.9894 536.5,-1044.9894 536.5,-1044.9894"/>
<polygon fill="#000000" stroke="#000000" points="586.5,-1044.9894 586.5,-1061.9894 586.5,-1061.9894 586.5,-1044.9894 586.5,-1044.9894"/>
</a>
</g>
</g>
<!-- act_ru_external_job&#45;&gt;act_ge_bytearray -->
<g id="edge14" class="edge">
<title>act_ru_external_job:w&#45;&gt;act_ge_bytearray:e</title>
<path fill="none" stroke="#000000" d="M462.3099,-1068.68C409.6294,-1046.3782 454.6947,-925.423 385.5,-930.9894"/>
<polygon fill="#000000" stroke="#000000" points="468.7091,-1070.1724 475.6823,-1075.4953 472.6045,-1071.0809 476.5,-1071.9894 476.5,-1071.9894 476.5,-1071.9894 472.6045,-1071.0809 477.3177,-1068.4835 468.7091,-1070.1724 468.7091,-1070.1724"/>
<ellipse fill="none" stroke="#000000" cx="465.5927" cy="-1069.4456" rx="3.2" ry="3.2"/>
</g>
<!-- act_ru_external_job&#45;&gt;act_ge_bytearray -->
<g id="edge15" class="edge">
<title>act_ru_external_job:w&#45;&gt;act_ge_bytearray:e</title>
<path fill="none" stroke="#000000" d="M461.9785,-1071.2176C409.8186,-1058.7979 454.549,-937.4699 385.5,-930.9894"/>
<polygon fill="#000000" stroke="#000000" points="468.5113,-1071.5647 476.3089,-1075.5843 472.5056,-1071.7771 476.5,-1071.9894 476.5,-1071.9894 476.5,-1071.9894 472.5056,-1071.7771 476.6911,-1068.3945 468.5113,-1071.5647 468.5113,-1071.5647"/>
<ellipse fill="none" stroke="#000000" cx="465.3158" cy="-1071.3949" rx="3.2" ry="3.2"/>
</g>
<!-- act_ru_identitylink -->
<g id="node10" class="node">
<title>act_ru_identitylink</title>
<g id="a_node10"><a xlink:href="../../tables/act_ru_identitylink.html" xlink:title="act_ru_identitylink" target="_top">
<polygon fill="#ffffff" stroke="transparent" points="702,-104.4894 702,-165.4894 855,-165.4894 855,-104.4894 702,-104.4894"/>
<polygon fill="#f5f5f5" stroke="transparent" points="702.5,-141.9894 702.5,-164.9894 855.5,-164.9894 855.5,-141.9894 702.5,-141.9894"/>
<polygon fill="none" stroke="#000000" points="702.5,-141.9894 702.5,-164.9894 855.5,-164.9894 855.5,-141.9894 702.5,-141.9894"/>
<text text-anchor="start" x="707.5" y="-150.5894" font-family="Helvetica,sans-Serif" font-weight="bold" font-size="11.00" fill="#000000">act_ru_identitylink</text>
<text text-anchor="start" x="821.0219" y="-150.0894" font-family="Helvetica,sans-Serif" font-size="11.00" fill="#000000">[table]</text>
<polygon fill="none" stroke="#000000" points="702.5,-122.9894 702.5,-141.9894 855.5,-141.9894 855.5,-122.9894 702.5,-122.9894"/>
<text text-anchor="start" x="705.5" y="-129.0894" font-family="Helvetica,sans-Serif" font-size="11.00" fill="#000000">...</text>
<polygon fill="#ffffff" stroke="transparent" points="702.5,-103.9894 702.5,-122.9894 855.5,-122.9894 855.5,-103.9894 702.5,-103.9894"/>
<polygon fill="none" stroke="#000000" points="702.5,-103.9894 702.5,-122.9894 855.5,-122.9894 855.5,-103.9894 702.5,-103.9894"/>
<polygon fill="#ffffff" stroke="transparent" points="703.5,-104.9894 703.5,-121.9894 760.5,-121.9894 760.5,-104.9894 703.5,-104.9894"/>
<text text-anchor="start" x="705.5" y="-110.0894" font-family="Helvetica,sans-Serif" font-size="11.00" fill="#000000">&lt; 3</text>
<polygon fill="#ffffff" stroke="transparent" points="760.5,-104.9894 760.5,-121.9894 807.5,-121.9894 807.5,-104.9894 760.5,-104.9894"/>
<text text-anchor="start" x="780.9431" y="-110.0894" font-family="Helvetica,sans-Serif" font-size="11.00" fill="#000000"> &#160;</text>
<polygon fill="#ffffff" stroke="transparent" points="807.5,-104.9894 807.5,-121.9894 854.5,-121.9894 854.5,-104.9894 807.5,-104.9894"/>
<text text-anchor="start" x="846.3862" y="-110.0894" font-family="Helvetica,sans-Serif" font-size="11.00" fill="#000000"> &#160;</text>
<polygon fill="#000000" stroke="#000000" points="760.5,-104.9894 760.5,-121.9894 760.5,-121.9894 760.5,-104.9894 760.5,-104.9894"/>
<polygon fill="#000000" stroke="#000000" points="807.5,-104.9894 807.5,-121.9894 807.5,-121.9894 807.5,-104.9894 807.5,-104.9894"/>
</a>
</g>
</g>
<!-- act_ru_identitylink&#45;&gt;act_re_procdef -->
<g id="edge16" class="edge">
<title>act_ru_identitylink:w&#45;&gt;act_re_procdef:e</title>
<path fill="none" stroke="#000000" d="M688.7431,-127.326C679.0176,-118.7619 678.4824,-100.7843 661,-93.9894 471.6347,-20.3889 350.3656,4.961 206,-137.9894 115.0417,-228.0561 280.5056,-420.9894 152.5,-420.9894"/>
<polygon fill="#000000" stroke="#000000" points="694.9235,-129.421 701.3442,-135.3989 698.7117,-130.7052 702.5,-131.9894 702.5,-131.9894 702.5,-131.9894 698.7117,-130.7052 703.6558,-128.58 694.9235,-129.421 694.9235,-129.421"/>
<ellipse fill="none" stroke="#000000" cx="691.8929" cy="-128.3937" rx="3.2" ry="3.2"/>
</g>
<!-- act_ru_identitylink&#45;&gt;act_ru_execution -->
<g id="edge17" class="edge">
<title>act_ru_identitylink:w&#45;&gt;act_ru_execution:e</title>
<path fill="none" stroke="#000000" d="M688.668,-136.5596C678.1533,-145.7947 679.313,-166.5969 661,-175.9894 577.6096,-218.7592 517.4253,-136.8869 452,-203.9894 393.6408,-263.8447 495.097,-577.9894 411.5,-577.9894"/>
<polygon fill="#000000" stroke="#000000" points="694.9039,-134.4993 703.6294,-135.4077 698.7019,-133.2443 702.5,-131.9894 702.5,-131.9894 702.5,-131.9894 698.7019,-133.2443 701.3706,-128.5712 694.9039,-134.4993 694.9039,-134.4993"/>
<ellipse fill="none" stroke="#000000" cx="691.8654" cy="-135.5032" rx="3.2" ry="3.2"/>
</g>
<!-- act_ru_task -->
<g id="node11" class="node">
<title>act_ru_task</title>
<g id="a_node11"><a xlink:href="../../tables/act_ru_task.html" xlink:title="act_ru_task" target="_top">
<polygon fill="#ffffff" stroke="transparent" points="501,-104.4894 501,-165.4894 612,-165.4894 612,-104.4894 501,-104.4894"/>
<polygon fill="#f5f5f5" stroke="transparent" points="501.5,-141.9894 501.5,-164.9894 612.5,-164.9894 612.5,-141.9894 501.5,-141.9894"/>
<polygon fill="none" stroke="#000000" points="501.5,-141.9894 501.5,-164.9894 612.5,-164.9894 612.5,-141.9894 501.5,-141.9894"/>
<text text-anchor="start" x="506.5" y="-150.5894" font-family="Helvetica,sans-Serif" font-weight="bold" font-size="11.00" fill="#000000">act_ru_task</text>
<text text-anchor="start" x="578.0219" y="-150.0894" font-family="Helvetica,sans-Serif" font-size="11.00" fill="#000000">[table]</text>
<polygon fill="none" stroke="#000000" points="501.5,-122.9894 501.5,-141.9894 612.5,-141.9894 612.5,-122.9894 501.5,-122.9894"/>
<text text-anchor="start" x="504.5" y="-129.0894" font-family="Helvetica,sans-Serif" font-size="11.00" fill="#000000">...</text>
<polygon fill="#ffffff" stroke="transparent" points="501.5,-103.9894 501.5,-122.9894 612.5,-122.9894 612.5,-103.9894 501.5,-103.9894"/>
<polygon fill="none" stroke="#000000" points="501.5,-103.9894 501.5,-122.9894 612.5,-122.9894 612.5,-103.9894 501.5,-103.9894"/>
<polygon fill="#ffffff" stroke="transparent" points="502.5,-104.9894 502.5,-121.9894 542.5,-121.9894 542.5,-104.9894 502.5,-104.9894"/>
<text text-anchor="start" x="504.5" y="-110.0894" font-family="Helvetica,sans-Serif" font-size="11.00" fill="#000000">&lt; 3</text>
<polygon fill="#ffffff" stroke="transparent" points="542.5,-104.9894 542.5,-121.9894 572.5,-121.9894 572.5,-104.9894 542.5,-104.9894"/>
<text text-anchor="start" x="554.4431" y="-110.0894" font-family="Helvetica,sans-Serif" font-size="11.00" fill="#000000"> &#160;</text>
<polygon fill="#ffffff" stroke="transparent" points="572.5,-104.9894 572.5,-121.9894 611.5,-121.9894 611.5,-104.9894 572.5,-104.9894"/>
<text text-anchor="start" x="593.9053" y="-110.0894" font-family="Helvetica,sans-Serif" font-size="11.00" fill="#000000">1 &gt;</text>
<polygon fill="#000000" stroke="#000000" points="542.5,-104.9894 542.5,-121.9894 542.5,-121.9894 542.5,-104.9894 542.5,-104.9894"/>
<polygon fill="#000000" stroke="#000000" points="572.5,-104.9894 572.5,-121.9894 572.5,-121.9894 572.5,-104.9894 572.5,-104.9894"/>
</a>
</g>
</g>
<!-- act_ru_identitylink&#45;&gt;act_ru_task -->
<g id="edge18" class="edge">
<title>act_ru_identitylink:w&#45;&gt;act_ru_task:e</title>
<path fill="none" stroke="#000000" d="M688.0095,-131.9894C659.3146,-131.9894 647.1875,-131.9894 612.5,-131.9894"/>
<polygon fill="#000000" stroke="#000000" points="694.5,-131.9895 702.5,-135.5894 698.5,-131.9894 702.5,-131.9894 702.5,-131.9894 702.5,-131.9894 698.5,-131.9894 702.5,-128.3894 694.5,-131.9895 694.5,-131.9895"/>
<ellipse fill="none" stroke="#000000" cx="691.3" cy="-131.9895" rx="3.2" ry="3.2"/>
</g>
<!-- act_ru_task&#45;&gt;act_re_procdef -->
<g id="edge30" class="edge">
<title>act_ru_task:w&#45;&gt;act_re_procdef:e</title>
<path fill="none" stroke="#000000" d="M486.7626,-132.18C347.109,-135.8789 304.2986,-193.3833 206,-301.9894 167.0872,-344.9826 210.4881,-420.9894 152.5,-420.9894"/>
<polygon fill="#000000" stroke="#000000" points="493.5007,-132.0929 501.5466,-135.5891 497.5003,-132.0412 501.5,-131.9894 501.5,-131.9894 501.5,-131.9894 497.5003,-132.0412 501.4534,-128.3897 493.5007,-132.0929 493.5007,-132.0929"/>
<ellipse fill="none" stroke="#000000" cx="490.3009" cy="-132.1343" rx="3.2" ry="3.2"/>
</g>
<!-- act_ru_task&#45;&gt;act_ru_execution -->
<g id="edge29" class="edge">
<title>act_ru_task:w&#45;&gt;act_ru_execution:e</title>
<path fill="none" stroke="#000000" d="M486.9602,-131.2372C468.5722,-133.7289 462.907,-151.4733 452,-173.9894 432.6217,-213.9936 455.9506,-571.9894 411.5,-577.9894"/>
<polygon fill="#000000" stroke="#000000" points="493.5107,-131.576 501.314,-135.5846 497.5053,-131.7827 501.5,-131.9894 501.5,-131.9894 501.5,-131.9894 497.5053,-131.7827 501.686,-128.3942 493.5107,-131.576 493.5107,-131.576"/>
<ellipse fill="none" stroke="#000000" cx="490.315" cy="-131.4107" rx="3.2" ry="3.2"/>
</g>
<!-- act_ru_task&#45;&gt;act_ru_execution -->
<g id="edge31" class="edge">
<title>act_ru_task:w&#45;&gt;act_ru_execution:e</title>
<path fill="none" stroke="#000000" d="M487.7599,-136.7564C468.7337,-146.2204 463.0635,-164.1501 452,-186.9894 432.6217,-226.9936 455.9506,-584.9894 411.5,-577.9894"/>
<polygon fill="#000000" stroke="#000000" points="493.9419,-134.6116 502.68,-135.3905 497.721,-133.3005 501.5,-131.9894 501.5,-131.9894 501.5,-131.9894 497.721,-133.3005 500.32,-128.5883 493.9419,-134.6116 493.9419,-134.6116"/>
<ellipse fill="none" stroke="#000000" cx="490.9187" cy="-135.6605" rx="3.2" ry="3.2"/>
</g>
<!-- act_ru_job -->
<g id="node12" class="node">
<title>act_ru_job</title>
<g id="a_node12"><a xlink:href="../../tables/act_ru_job.html" xlink:title="act_ru_job" target="_top">
<polygon fill="#ffffff" stroke="transparent" points="504.5,-880.4894 504.5,-941.4894 608.5,-941.4894 608.5,-880.4894 504.5,-880.4894"/>
<polygon fill="#f5f5f5" stroke="transparent" points="504.5,-917.9894 504.5,-940.9894 608.5,-940.9894 608.5,-917.9894 504.5,-917.9894"/>
<polygon fill="none" stroke="#000000" points="504.5,-917.9894 504.5,-940.9894 608.5,-940.9894 608.5,-917.9894 504.5,-917.9894"/>
<text text-anchor="start" x="509.5" y="-926.5894" font-family="Helvetica,sans-Serif" font-weight="bold" font-size="11.00" fill="#000000">act_ru_job</text>
<text text-anchor="start" x="574.0219" y="-926.0894" font-family="Helvetica,sans-Serif" font-size="11.00" fill="#000000">[table]</text>
<polygon fill="none" stroke="#000000" points="504.5,-898.9894 504.5,-917.9894 608.5,-917.9894 608.5,-898.9894 504.5,-898.9894"/>
<text text-anchor="start" x="507.5" y="-905.0894" font-family="Helvetica,sans-Serif" font-size="11.00" fill="#000000">...</text>
<polygon fill="#ffffff" stroke="transparent" points="504.5,-879.9894 504.5,-898.9894 608.5,-898.9894 608.5,-879.9894 504.5,-879.9894"/>
<polygon fill="none" stroke="#000000" points="504.5,-879.9894 504.5,-898.9894 608.5,-898.9894 608.5,-879.9894 504.5,-879.9894"/>
<polygon fill="#ffffff" stroke="transparent" points="505.5,-880.9894 505.5,-897.9894 545.5,-897.9894 545.5,-880.9894 505.5,-880.9894"/>
<text text-anchor="start" x="507.5" y="-886.0894" font-family="Helvetica,sans-Serif" font-size="11.00" fill="#000000">&lt; 5</text>
<polygon fill="#ffffff" stroke="transparent" points="545.5,-880.9894 545.5,-897.9894 576.5,-897.9894 576.5,-880.9894 545.5,-880.9894"/>
<text text-anchor="start" x="557.9431" y="-886.0894" font-family="Helvetica,sans-Serif" font-size="11.00" fill="#000000"> &#160;</text>
<polygon fill="#ffffff" stroke="transparent" points="576.5,-880.9894 576.5,-897.9894 607.5,-897.9894 607.5,-880.9894 576.5,-880.9894"/>
<text text-anchor="start" x="599.3862" y="-886.0894" font-family="Helvetica,sans-Serif" font-size="11.00" fill="#000000"> &#160;</text>
<polygon fill="#000000" stroke="#000000" points="545.5,-880.9894 545.5,-897.9894 545.5,-897.9894 545.5,-880.9894 545.5,-880.9894"/>
<polygon fill="#000000" stroke="#000000" points="576.5,-880.9894 576.5,-897.9894 576.5,-897.9894 576.5,-880.9894 576.5,-880.9894"/>
</a>
</g>
</g>
<!-- act_ru_job&#45;&gt;act_ge_bytearray -->
<g id="edge19" class="edge">
<title>act_ru_job:w&#45;&gt;act_ge_bytearray:e</title>
<path fill="none" stroke="#000000" d="M490.13,-907.0233C448.086,-906.2361 434.2124,-925.5636 385.5,-930.9894"/>
<polygon fill="#000000" stroke="#000000" points="496.518,-907.4527 504.2585,-911.5813 500.509,-907.7211 504.5,-907.9894 504.5,-907.9894 504.5,-907.9894 500.509,-907.7211 504.7415,-904.3975 496.518,-907.4527 496.518,-907.4527"/>
<ellipse fill="none" stroke="#000000" cx="493.3252" cy="-907.238" rx="3.2" ry="3.2"/>
</g>
<!-- act_ru_job&#45;&gt;act_ge_bytearray -->
<g id="edge20" class="edge">
<title>act_ru_job:w&#45;&gt;act_ge_bytearray:e</title>
<path fill="none" stroke="#000000" d="M490.13,-910.3985C448.086,-919.117 434.2124,-937.3195 385.5,-930.9894"/>
<polygon fill="#000000" stroke="#000000" points="496.6101,-909.3122 505.0952,-911.5399 500.5551,-908.6508 504.5,-907.9894 504.5,-907.9894 504.5,-907.9894 500.5551,-908.6508 503.9048,-904.439 496.6101,-909.3122 496.6101,-909.3122"/>
<ellipse fill="none" stroke="#000000" cx="493.4541" cy="-909.8413" rx="3.2" ry="3.2"/>
</g>
<!-- act_ru_job&#45;&gt;act_re_procdef -->
<g id="edge22" class="edge">
<title>act_ru_job:w&#45;&gt;act_re_procdef:e</title>
<path fill="none" stroke="#000000" d="M491.157,-902.008C437.8408,-869.7723 258.7052,-714.7984 206,-622.9894 159.7614,-542.4449 245.3732,-420.9894 152.5,-420.9894"/>
<polygon fill="#000000" stroke="#000000" points="497.1999,-904.7169 503.0274,-911.2744 500.85,-906.3532 504.5,-907.9894 504.5,-907.9894 504.5,-907.9894 500.85,-906.3532 505.9726,-904.7044 497.1999,-904.7169 497.1999,-904.7169"/>
<ellipse fill="none" stroke="#000000" cx="494.2799" cy="-903.4079" rx="3.2" ry="3.2"/>
</g>
<!-- act_ru_job&#45;&gt;act_ru_execution -->
<g id="edge21" class="edge">
<title>act_ru_job:w&#45;&gt;act_ru_execution:e</title>
<path fill="none" stroke="#000000" d="M490.4915,-903.9204C472.2409,-896.7186 464.1114,-884.1466 452,-863.9894 418.2603,-807.8361 477.0101,-571.9894 411.5,-577.9894"/>
<polygon fill="#000000" stroke="#000000" points="496.8175,-905.7579 503.4958,-911.4465 500.6588,-906.8736 504.5,-907.9894 504.5,-907.9894 504.5,-907.9894 500.6588,-906.8736 505.5042,-904.5323 496.8175,-905.7579 496.8175,-905.7579"/>
<ellipse fill="none" stroke="#000000" cx="493.7445" cy="-904.8652" rx="3.2" ry="3.2"/>
</g>
<!-- act_ru_job&#45;&gt;act_ru_execution -->
<g id="edge23" class="edge">
<title>act_ru_job:w&#45;&gt;act_ru_execution:e</title>
<path fill="none" stroke="#000000" d="M489.9703,-909.8393C472.0849,-909.4773 463.9955,-896.9537 452,-876.9894 418.2603,-820.8361 477.0101,-584.9894 411.5,-577.9894"/>
<polygon fill="#000000" stroke="#000000" points="496.5641,-908.9999 504.9547,-911.5606 500.532,-908.4946 504.5,-907.9894 504.5,-907.9894 504.5,-907.9894 500.532,-908.4946 504.0453,-904.4182 496.5641,-908.9999 496.5641,-908.9999"/>
<ellipse fill="none" stroke="#000000" cx="493.3897" cy="-909.404" rx="3.2" ry="3.2"/>
</g>
<!-- act_ru_suspended_job -->
<g id="node13" class="node">
<title>act_ru_suspended_job</title>
<g id="a_node13"><a xlink:href="../../tables/act_ru_suspended_job.html" xlink:title="act_ru_suspended_job" target="_top">
<polygon fill="#ffffff" stroke="transparent" points="466.5,-378.4894 466.5,-439.4894 646.5,-439.4894 646.5,-378.4894 466.5,-378.4894"/>
<polygon fill="#f5f5f5" stroke="transparent" points="466.5,-415.9894 466.5,-438.9894 646.5,-438.9894 646.5,-415.9894 466.5,-415.9894"/>
<polygon fill="none" stroke="#000000" points="466.5,-415.9894 466.5,-438.9894 646.5,-438.9894 646.5,-415.9894 466.5,-415.9894"/>
<text text-anchor="start" x="471.5" y="-424.5894" font-family="Helvetica,sans-Serif" font-weight="bold" font-size="11.00" fill="#000000">act_ru_suspended_job</text>
<text text-anchor="start" x="612.0219" y="-424.0894" font-family="Helvetica,sans-Serif" font-size="11.00" fill="#000000">[table]</text>
<polygon fill="none" stroke="#000000" points="466.5,-396.9894 466.5,-415.9894 646.5,-415.9894 646.5,-396.9894 466.5,-396.9894"/>
<text text-anchor="start" x="469.5" y="-403.0894" font-family="Helvetica,sans-Serif" font-size="11.00" fill="#000000">...</text>
<polygon fill="#ffffff" stroke="transparent" points="466.5,-377.9894 466.5,-396.9894 646.5,-396.9894 646.5,-377.9894 466.5,-377.9894"/>
<polygon fill="none" stroke="#000000" points="466.5,-377.9894 466.5,-396.9894 646.5,-396.9894 646.5,-377.9894 466.5,-377.9894"/>
<polygon fill="#ffffff" stroke="transparent" points="467.5,-378.9894 467.5,-395.9894 533.5,-395.9894 533.5,-378.9894 467.5,-378.9894"/>
<text text-anchor="start" x="469.5" y="-384.0894" font-family="Helvetica,sans-Serif" font-size="11.00" fill="#000000">&lt; 5</text>
<polygon fill="#ffffff" stroke="transparent" points="533.5,-378.9894 533.5,-395.9894 589.5,-395.9894 589.5,-378.9894 533.5,-378.9894"/>
<text text-anchor="start" x="558.4431" y="-384.0894" font-family="Helvetica,sans-Serif" font-size="11.00" fill="#000000"> &#160;</text>
<polygon fill="#ffffff" stroke="transparent" points="589.5,-378.9894 589.5,-395.9894 645.5,-395.9894 645.5,-378.9894 589.5,-378.9894"/>
<text text-anchor="start" x="637.3862" y="-384.0894" font-family="Helvetica,sans-Serif" font-size="11.00" fill="#000000"> &#160;</text>
<polygon fill="#000000" stroke="#000000" points="533.5,-378.9894 533.5,-395.9894 533.5,-395.9894 533.5,-378.9894 533.5,-378.9894"/>
<polygon fill="#000000" stroke="#000000" points="589.5,-378.9894 589.5,-395.9894 589.5,-395.9894 589.5,-378.9894 589.5,-378.9894"/>
</a>
</g>
</g>
<!-- act_ru_suspended_job&#45;&gt;act_ge_bytearray -->
<g id="edge24" class="edge">
<title>act_ru_suspended_job:w&#45;&gt;act_ge_bytearray:e</title>
<path fill="none" stroke="#000000" d="M452.1954,-408.3003C361.836,-446.1101 498.2442,-925.259 385.5,-930.9894"/>
<polygon fill="#000000" stroke="#000000" points="458.6024,-407.2653 467.0741,-409.5433 462.5512,-406.6274 466.5,-405.9894 466.5,-405.9894 466.5,-405.9894 462.5512,-406.6274 465.9259,-402.4355 458.6024,-407.2653 458.6024,-407.2653"/>
<ellipse fill="none" stroke="#000000" cx="455.4433" cy="-407.7756" rx="3.2" ry="3.2"/>
</g>
<!-- act_ru_suspended_job&#45;&gt;act_ge_bytearray -->
<g id="edge25" class="edge">
<title>act_ru_suspended_job:w&#45;&gt;act_ge_bytearray:e</title>
<path fill="none" stroke="#000000" d="M452.4733,-409.8242C361.5568,-458.1046 498.3595,-937.6818 385.5,-930.9894"/>
<polygon fill="#000000" stroke="#000000" points="458.7832,-408.0992 467.4494,-409.462 462.6416,-407.0443 466.5,-405.9894 466.5,-405.9894 466.5,-405.9894 462.6416,-407.0443 465.5506,-402.5169 458.7832,-408.0992 458.7832,-408.0992"/>
<ellipse fill="none" stroke="#000000" cx="455.6965" cy="-408.9431" rx="3.2" ry="3.2"/>
</g>
<!-- act_ru_suspended_job&#45;&gt;act_re_procdef -->
<g id="edge27" class="edge">
<title>act_ru_suspended_job:w&#45;&gt;act_re_procdef:e</title>
<path fill="none" stroke="#000000" d="M452.4368,-402.0522C439.9045,-393.3364 439.4209,-372.5838 419,-364.9894 330.2705,-331.9917 293.0414,-327.7662 206,-364.9894 174.3511,-378.5241 186.9215,-420.9894 152.5,-420.9894"/>
<polygon fill="#000000" stroke="#000000" points="458.7962,-403.8326 465.5294,-409.4561 462.6481,-404.911 466.5,-405.9894 466.5,-405.9894 466.5,-405.9894 462.6481,-404.911 467.4706,-402.5227 458.7962,-403.8326 458.7962,-403.8326"/>
<ellipse fill="none" stroke="#000000" cx="455.7147" cy="-402.9699" rx="3.2" ry="3.2"/>
</g>
<!-- act_ru_suspended_job&#45;&gt;act_ru_execution -->
<g id="edge26" class="edge">
<title>act_ru_suspended_job:w&#45;&gt;act_ru_execution:e</title>
<path fill="none" stroke="#000000" d="M451.8707,-407.3475C400.5225,-423.9819 485.9577,-572.423 411.5,-577.9894"/>
<polygon fill="#000000" stroke="#000000" points="458.5343,-406.729 466.8328,-409.574 462.5171,-406.3592 466.5,-405.9894 466.5,-405.9894 466.5,-405.9894 462.5171,-406.3592 466.1672,-402.4048 458.5343,-406.729 458.5343,-406.729"/>
<ellipse fill="none" stroke="#000000" cx="455.348" cy="-407.0248" rx="3.2" ry="3.2"/>
</g>
<!-- act_ru_suspended_job&#45;&gt;act_ru_execution -->
<g id="edge28" class="edge">
<title>act_ru_suspended_job:w&#45;&gt;act_ru_execution:e</title>
<path fill="none" stroke="#000000" d="M452.5266,-409.6282C399.8002,-435.6686 486.2712,-584.5109 411.5,-577.9894"/>
<polygon fill="#000000" stroke="#000000" points="458.7582,-408.0055 467.4072,-409.4732 462.6291,-406.9975 466.5,-405.9894 466.5,-405.9894 466.5,-405.9894 462.6291,-406.9975 465.5928,-402.5056 458.7582,-408.0055 458.7582,-408.0055"/>
<ellipse fill="none" stroke="#000000" cx="455.6615" cy="-408.8119" rx="3.2" ry="3.2"/>
</g>
<!-- act_ru_timer_job -->
<g id="node14" class="node">
<title>act_ru_timer_job</title>
<g id="a_node14"><a xlink:href="../../tables/act_ru_timer_job.html" xlink:title="act_ru_timer_job" target="_top">
<polygon fill="#ffffff" stroke="transparent" points="485,-296.4894 485,-357.4894 628,-357.4894 628,-296.4894 485,-296.4894"/>
<polygon fill="#f5f5f5" stroke="transparent" points="485.5,-333.9894 485.5,-356.9894 628.5,-356.9894 628.5,-333.9894 485.5,-333.9894"/>
<polygon fill="none" stroke="#000000" points="485.5,-333.9894 485.5,-356.9894 628.5,-356.9894 628.5,-333.9894 485.5,-333.9894"/>
<text text-anchor="start" x="490.5" y="-342.5894" font-family="Helvetica,sans-Serif" font-weight="bold" font-size="11.00" fill="#000000">act_ru_timer_job</text>
<text text-anchor="start" x="594.0219" y="-342.0894" font-family="Helvetica,sans-Serif" font-size="11.00" fill="#000000">[table]</text>
<polygon fill="none" stroke="#000000" points="485.5,-314.9894 485.5,-333.9894 628.5,-333.9894 628.5,-314.9894 485.5,-314.9894"/>
<text text-anchor="start" x="488.5" y="-321.0894" font-family="Helvetica,sans-Serif" font-size="11.00" fill="#000000">...</text>
<polygon fill="#ffffff" stroke="transparent" points="485.5,-295.9894 485.5,-314.9894 628.5,-314.9894 628.5,-295.9894 485.5,-295.9894"/>
<polygon fill="none" stroke="#000000" points="485.5,-295.9894 485.5,-314.9894 628.5,-314.9894 628.5,-295.9894 485.5,-295.9894"/>
<polygon fill="#ffffff" stroke="transparent" points="486.5,-296.9894 486.5,-313.9894 539.5,-313.9894 539.5,-296.9894 486.5,-296.9894"/>
<text text-anchor="start" x="488.5" y="-302.0894" font-family="Helvetica,sans-Serif" font-size="11.00" fill="#000000">&lt; 5</text>
<polygon fill="#ffffff" stroke="transparent" points="539.5,-296.9894 539.5,-313.9894 583.5,-313.9894 583.5,-296.9894 539.5,-296.9894"/>
<text text-anchor="start" x="558.4431" y="-302.0894" font-family="Helvetica,sans-Serif" font-size="11.00" fill="#000000"> &#160;</text>
<polygon fill="#ffffff" stroke="transparent" points="583.5,-296.9894 583.5,-313.9894 627.5,-313.9894 627.5,-296.9894 583.5,-296.9894"/>
<text text-anchor="start" x="619.3862" y="-302.0894" font-family="Helvetica,sans-Serif" font-size="11.00" fill="#000000"> &#160;</text>
<polygon fill="#000000" stroke="#000000" points="539.5,-296.9894 539.5,-313.9894 539.5,-313.9894 539.5,-296.9894 539.5,-296.9894"/>
<polygon fill="#000000" stroke="#000000" points="583.5,-296.9894 583.5,-313.9894 583.5,-313.9894 583.5,-296.9894 583.5,-296.9894"/>
</a>
</g>
</g>
<!-- act_ru_timer_job&#45;&gt;act_ge_bytearray -->
<g id="edge32" class="edge">
<title>act_ru_timer_job:w&#45;&gt;act_ge_bytearray:e</title>
<path fill="none" stroke="#000000" d="M471.1954,-325.9043C361.5523,-363.354 517.0005,-925.2179 385.5,-930.9894"/>
<polygon fill="#000000" stroke="#000000" points="477.5707,-325.0509 485.9777,-327.5576 481.5354,-324.5202 485.5,-323.9894 485.5,-323.9894 485.5,-323.9894 481.5354,-324.5202 485.0223,-320.4212 477.5707,-325.0509 477.5707,-325.0509"/>
<ellipse fill="none" stroke="#000000" cx="474.399" cy="-325.4756" rx="3.2" ry="3.2"/>
</g>
<!-- act_ru_timer_job&#45;&gt;act_ge_bytearray -->
<g id="edge33" class="edge">
<title>act_ru_timer_job:w&#45;&gt;act_ge_bytearray:e</title>
<path fill="none" stroke="#000000" d="M471.1954,-327.3331C361.5523,-376.3351 517.0005,-937.7228 385.5,-930.9894"/>
<polygon fill="#000000" stroke="#000000" points="477.71,-325.8104 486.3194,-327.4949 481.605,-324.8999 485.5,-323.9894 485.5,-323.9894 485.5,-323.9894 481.605,-324.8999 484.6806,-320.4839 477.71,-325.8104 477.71,-325.8104"/>
<ellipse fill="none" stroke="#000000" cx="474.594" cy="-326.5388" rx="3.2" ry="3.2"/>
</g>
<!-- act_ru_timer_job&#45;&gt;act_re_procdef -->
<g id="edge35" class="edge">
<title>act_ru_timer_job:w&#45;&gt;act_re_procdef:e</title>
<path fill="none" stroke="#000000" d="M470.9252,-323.7574C357.253,-320.1325 309.2256,-276.0654 206,-335.9894 167.3954,-358.3999 197.1379,-420.9894 152.5,-420.9894"/>
<polygon fill="#000000" stroke="#000000" points="477.501,-323.862 485.4427,-327.589 481.5005,-323.9257 485.5,-323.9894 485.5,-323.9894 485.5,-323.9894 481.5005,-323.9257 485.5573,-320.3899 477.501,-323.862 477.501,-323.862"/>
<ellipse fill="none" stroke="#000000" cx="474.3014" cy="-323.8111" rx="3.2" ry="3.2"/>
</g>
<!-- act_ru_timer_job&#45;&gt;act_ru_execution -->
<g id="edge34" class="edge">
<title>act_ru_timer_job:w&#45;&gt;act_ru_execution:e</title>
<path fill="none" stroke="#000000" d="M470.982,-324.3877C460.7551,-329.1663 459.4487,-345.3377 452,-361.9894 432.5934,-405.3733 459.0266,-571.9894 411.5,-577.9894"/>
<polygon fill="#000000" stroke="#000000" points="477.503,-324.2089 485.5988,-327.5881 481.5015,-324.0991 485.5,-323.9894 485.5,-323.9894 485.5,-323.9894 481.5015,-324.0991 485.4012,-320.3908 477.503,-324.2089 477.503,-324.2089"/>
<ellipse fill="none" stroke="#000000" cx="474.3042" cy="-324.2966" rx="3.2" ry="3.2"/>
</g>
<!-- act_ru_timer_job&#45;&gt;act_ru_execution -->
<g id="edge36" class="edge">
<title>act_ru_timer_job:w&#45;&gt;act_ru_execution:e</title>
<path fill="none" stroke="#000000" d="M472.3224,-330.8307C460.8542,-340.8054 459.7623,-357.6366 452,-374.9894 432.5934,-418.3733 459.0266,-584.9894 411.5,-577.9894"/>
<polygon fill="#000000" stroke="#000000" points="478.3998,-327.6756 487.1588,-327.1845 481.9499,-325.8325 485.5,-323.9894 485.5,-323.9894 485.5,-323.9894 481.9499,-325.8325 483.8412,-320.7943 478.3998,-327.6756 478.3998,-327.6756"/>
<ellipse fill="none" stroke="#000000" cx="475.5598" cy="-329.1501" rx="3.2" ry="3.2"/>
</g>
<!-- act_ru_variable -->
<g id="node15" class="node">
<title>act_ru_variable</title>
<g id="a_node15"><a xlink:href="../../tables/act_ru_variable.html" xlink:title="act_ru_variable" target="_top">
<polygon fill="#ffffff" stroke="transparent" points="460,-460.9894 460,-858.9894 653,-858.9894 653,-460.9894 460,-460.9894"/>
<polygon fill="#f5f5f5" stroke="transparent" points="462.5,-833.9894 462.5,-856.9894 651.5,-856.9894 651.5,-833.9894 462.5,-833.9894"/>
<polygon fill="none" stroke="#000000" points="462.5,-833.9894 462.5,-856.9894 651.5,-856.9894 651.5,-833.9894 462.5,-833.9894"/>
<text text-anchor="start" x="467.5" y="-842.5894" font-family="Helvetica,sans-Serif" font-weight="bold" font-size="11.00" fill="#000000">act_ru_variable</text>
<text text-anchor="start" x="616.5437" y="-842.0894" font-family="Helvetica,sans-Serif" font-size="11.00" fill="#000000">[table]</text>
<polygon fill="none" stroke="#000000" points="462.5,-811.9894 462.5,-833.9894 578.5,-833.9894 578.5,-811.9894 462.5,-811.9894"/>
<image xlink:href="../../images/primaryKeys.png" width="11px" height="12px" preserveAspectRatio="xMinYMin meet" x="467.5" y="-828.989"/>
<text text-anchor="start" x="482.5" y="-819.0894" font-family="Helvetica,sans-Serif" font-size="11.00" fill="#000000">id_</text>
<polygon fill="none" stroke="#000000" points="578.5,-811.9894 578.5,-833.9894 651.5,-833.9894 651.5,-811.9894 578.5,-811.9894"/>
<text text-anchor="start" x="581.5" y="-819.6894" font-family="Helvetica,sans-Serif" font-size="11.00" fill="#000000">varchar[64]</text>
<polygon fill="none" stroke="#000000" points="462.5,-789.9894 462.5,-811.9894 578.5,-811.9894 578.5,-789.9894 462.5,-789.9894"/>
<text text-anchor="start" x="482.5" y="-797.0894" font-family="Helvetica,sans-Serif" font-size="11.00" fill="#000000">rev_</text>
<polygon fill="none" stroke="#000000" points="578.5,-789.9894 578.5,-811.9894 651.5,-811.9894 651.5,-789.9894 578.5,-789.9894"/>
<text text-anchor="start" x="581.5" y="-797.6894" font-family="Helvetica,sans-Serif" font-size="11.00" fill="#000000">int4[10]</text>
<polygon fill="none" stroke="#000000" points="462.5,-767.9894 462.5,-789.9894 578.5,-789.9894 578.5,-767.9894 462.5,-767.9894"/>
<text text-anchor="start" x="482.5" y="-775.0894" font-family="Helvetica,sans-Serif" font-size="11.00" fill="#000000">type_</text>
<polygon fill="none" stroke="#000000" points="578.5,-767.9894 578.5,-789.9894 651.5,-789.9894 651.5,-767.9894 578.5,-767.9894"/>
<text text-anchor="start" x="581.5" y="-775.6894" font-family="Helvetica,sans-Serif" font-size="11.00" fill="#000000">varchar[255]</text>
<polygon fill="none" stroke="#000000" points="462.5,-745.9894 462.5,-767.9894 578.5,-767.9894 578.5,-745.9894 462.5,-745.9894"/>
<text text-anchor="start" x="482.5" y="-753.0894" font-family="Helvetica,sans-Serif" font-size="11.00" fill="#000000">name_</text>
<polygon fill="none" stroke="#000000" points="578.5,-745.9894 578.5,-767.9894 651.5,-767.9894 651.5,-745.9894 578.5,-745.9894"/>
<text text-anchor="start" x="581.5" y="-753.6894" font-family="Helvetica,sans-Serif" font-size="11.00" fill="#000000">varchar[255]</text>
<polygon fill="#ffffff" stroke="transparent" points="462.5,-723.9894 462.5,-745.9894 578.5,-745.9894 578.5,-723.9894 462.5,-723.9894"/>
<polygon fill="none" stroke="#000000" points="462.5,-723.9894 462.5,-745.9894 578.5,-745.9894 578.5,-723.9894 462.5,-723.9894"/>
<image xlink:href="../../images/foreignKeys.png" width="11px" height="12px" preserveAspectRatio="xMinYMin meet" x="467.5" y="-740.989"/>
<text text-anchor="start" x="482.5" y="-731.0894" font-family="Helvetica,sans-Serif" font-size="11.00" fill="#000000">execution_id_</text>
<polygon fill="none" stroke="#000000" points="578.5,-723.9894 578.5,-745.9894 651.5,-745.9894 651.5,-723.9894 578.5,-723.9894"/>
<text text-anchor="start" x="581.5" y="-731.6894" font-family="Helvetica,sans-Serif" font-size="11.00" fill="#000000">varchar[64]</text>
<polygon fill="#ffffff" stroke="transparent" points="462.5,-701.9894 462.5,-723.9894 578.5,-723.9894 578.5,-701.9894 462.5,-701.9894"/>
<polygon fill="none" stroke="#000000" points="462.5,-701.9894 462.5,-723.9894 578.5,-723.9894 578.5,-701.9894 462.5,-701.9894"/>
<image xlink:href="../../images/foreignKeys.png" width="11px" height="12px" preserveAspectRatio="xMinYMin meet" x="467.5" y="-718.989"/>
<text text-anchor="start" x="482.5" y="-709.0894" font-family="Helvetica,sans-Serif" font-size="11.00" fill="#000000">proc_inst_id_</text>
<polygon fill="none" stroke="#000000" points="578.5,-701.9894 578.5,-723.9894 651.5,-723.9894 651.5,-701.9894 578.5,-701.9894"/>
<text text-anchor="start" x="581.5" y="-709.6894" font-family="Helvetica,sans-Serif" font-size="11.00" fill="#000000">varchar[64]</text>
<polygon fill="#ffffff" stroke="transparent" points="462.5,-679.9894 462.5,-701.9894 578.5,-701.9894 578.5,-679.9894 462.5,-679.9894"/>
<polygon fill="none" stroke="#000000" points="462.5,-679.9894 462.5,-701.9894 578.5,-701.9894 578.5,-679.9894 462.5,-679.9894"/>
<text text-anchor="start" x="482.5" y="-687.0894" font-family="Helvetica,sans-Serif" font-size="11.00" fill="#000000">task_id_</text>
<polygon fill="none" stroke="#000000" points="578.5,-679.9894 578.5,-701.9894 651.5,-701.9894 651.5,-679.9894 578.5,-679.9894"/>
<text text-anchor="start" x="581.5" y="-687.6894" font-family="Helvetica,sans-Serif" font-size="11.00" fill="#000000">varchar[64]</text>
<polygon fill="#ffffff" stroke="transparent" points="462.5,-657.9894 462.5,-679.9894 578.5,-679.9894 578.5,-657.9894 462.5,-657.9894"/>
<polygon fill="none" stroke="#000000" points="462.5,-657.9894 462.5,-679.9894 578.5,-679.9894 578.5,-657.9894 462.5,-657.9894"/>
<text text-anchor="start" x="482.5" y="-665.0894" font-family="Helvetica,sans-Serif" font-size="11.00" fill="#000000">scope_id_</text>
<polygon fill="none" stroke="#000000" points="578.5,-657.9894 578.5,-679.9894 651.5,-679.9894 651.5,-657.9894 578.5,-657.9894"/>
<text text-anchor="start" x="581.5" y="-665.6894" font-family="Helvetica,sans-Serif" font-size="11.00" fill="#000000">varchar[255]</text>
<polygon fill="#ffffff" stroke="transparent" points="462.5,-635.9894 462.5,-657.9894 578.5,-657.9894 578.5,-635.9894 462.5,-635.9894"/>
<polygon fill="none" stroke="#000000" points="462.5,-635.9894 462.5,-657.9894 578.5,-657.9894 578.5,-635.9894 462.5,-635.9894"/>
<text text-anchor="start" x="482.5" y="-643.0894" font-family="Helvetica,sans-Serif" font-size="11.00" fill="#000000">sub_scope_id_</text>
<polygon fill="none" stroke="#000000" points="578.5,-635.9894 578.5,-657.9894 651.5,-657.9894 651.5,-635.9894 578.5,-635.9894"/>
<text text-anchor="start" x="581.5" y="-643.6894" font-family="Helvetica,sans-Serif" font-size="11.00" fill="#000000">varchar[255]</text>
<polygon fill="#ffffff" stroke="transparent" points="462.5,-613.9894 462.5,-635.9894 578.5,-635.9894 578.5,-613.9894 462.5,-613.9894"/>
<polygon fill="none" stroke="#000000" points="462.5,-613.9894 462.5,-635.9894 578.5,-635.9894 578.5,-613.9894 462.5,-613.9894"/>
<text text-anchor="start" x="482.5" y="-621.0894" font-family="Helvetica,sans-Serif" font-size="11.00" fill="#000000">scope_type_</text>
<polygon fill="none" stroke="#000000" points="578.5,-613.9894 578.5,-635.9894 651.5,-635.9894 651.5,-613.9894 578.5,-613.9894"/>
<text text-anchor="start" x="581.5" y="-621.6894" font-family="Helvetica,sans-Serif" font-size="11.00" fill="#000000">varchar[255]</text>
<polygon fill="#ffffff" stroke="transparent" points="462.5,-591.9894 462.5,-613.9894 578.5,-613.9894 578.5,-591.9894 462.5,-591.9894"/>
<polygon fill="none" stroke="#000000" points="462.5,-591.9894 462.5,-613.9894 578.5,-613.9894 578.5,-591.9894 462.5,-591.9894"/>
<image xlink:href="../../images/foreignKeys.png" width="11px" height="12px" preserveAspectRatio="xMinYMin meet" x="467.5" y="-608.989"/>
<text text-anchor="start" x="482.5" y="-599.0894" font-family="Helvetica,sans-Serif" font-size="11.00" fill="#000000">bytearray_id_</text>
<polygon fill="none" stroke="#000000" points="578.5,-591.9894 578.5,-613.9894 651.5,-613.9894 651.5,-591.9894 578.5,-591.9894"/>
<text text-anchor="start" x="581.5" y="-599.6894" font-family="Helvetica,sans-Serif" font-size="11.00" fill="#000000">varchar[64]</text>
<polygon fill="none" stroke="#000000" points="462.5,-569.9894 462.5,-591.9894 578.5,-591.9894 578.5,-569.9894 462.5,-569.9894"/>
<text text-anchor="start" x="482.5" y="-577.0894" font-family="Helvetica,sans-Serif" font-size="11.00" fill="#000000">double_</text>
<polygon fill="none" stroke="#000000" points="578.5,-569.9894 578.5,-591.9894 651.5,-591.9894 651.5,-569.9894 578.5,-569.9894"/>
<text text-anchor="start" x="581.5" y="-577.6894" font-family="Helvetica,sans-Serif" font-size="11.00" fill="#000000">float8[17,17]</text>
<polygon fill="none" stroke="#000000" points="462.5,-547.9894 462.5,-569.9894 578.5,-569.9894 578.5,-547.9894 462.5,-547.9894"/>
<text text-anchor="start" x="482.5" y="-555.0894" font-family="Helvetica,sans-Serif" font-size="11.00" fill="#000000">long_</text>
<polygon fill="none" stroke="#000000" points="578.5,-547.9894 578.5,-569.9894 651.5,-569.9894 651.5,-547.9894 578.5,-547.9894"/>
<text text-anchor="start" x="581.5" y="-555.6894" font-family="Helvetica,sans-Serif" font-size="11.00" fill="#000000">int8[19]</text>
<polygon fill="none" stroke="#000000" points="462.5,-525.9894 462.5,-547.9894 578.5,-547.9894 578.5,-525.9894 462.5,-525.9894"/>
<text text-anchor="start" x="482.5" y="-533.0894" font-family="Helvetica,sans-Serif" font-size="11.00" fill="#000000">text_</text>
<polygon fill="none" stroke="#000000" points="578.5,-525.9894 578.5,-547.9894 651.5,-547.9894 651.5,-525.9894 578.5,-525.9894"/>
<text text-anchor="start" x="581.3791" y="-533.6894" font-family="Helvetica,sans-Serif" font-size="11.00" fill="#000000">varchar[4000]</text>
<polygon fill="none" stroke="#000000" points="462.5,-503.9894 462.5,-525.9894 578.5,-525.9894 578.5,-503.9894 462.5,-503.9894"/>
<text text-anchor="start" x="482.5" y="-511.0894" font-family="Helvetica,sans-Serif" font-size="11.00" fill="#000000">text2_</text>
<polygon fill="none" stroke="#000000" points="578.5,-503.9894 578.5,-525.9894 651.5,-525.9894 651.5,-503.9894 578.5,-503.9894"/>
<text text-anchor="start" x="581.3791" y="-511.6894" font-family="Helvetica,sans-Serif" font-size="11.00" fill="#000000">varchar[4000]</text>
<polygon fill="none" stroke="#000000" points="462.5,-481.9894 462.5,-503.9894 578.5,-503.9894 578.5,-481.9894 462.5,-481.9894"/>
<text text-anchor="start" x="482.5" y="-489.0894" font-family="Helvetica,sans-Serif" font-size="11.00" fill="#000000">meta_info_</text>
<polygon fill="none" stroke="#000000" points="578.5,-481.9894 578.5,-503.9894 651.5,-503.9894 651.5,-481.9894 578.5,-481.9894"/>
<text text-anchor="start" x="581.3791" y="-489.6894" font-family="Helvetica,sans-Serif" font-size="11.00" fill="#000000">varchar[4000]</text>
<polygon fill="#ffffff" stroke="transparent" points="462.5,-462.9894 462.5,-481.9894 651.5,-481.9894 651.5,-462.9894 462.5,-462.9894"/>
<polygon fill="none" stroke="#000000" points="462.5,-462.9894 462.5,-481.9894 651.5,-481.9894 651.5,-462.9894 462.5,-462.9894"/>
<polygon fill="#ffffff" stroke="transparent" points="463.5,-463.9894 463.5,-480.9894 529.5,-480.9894 529.5,-463.9894 463.5,-463.9894"/>
<text text-anchor="start" x="465.5" y="-469.0894" font-family="Helvetica,sans-Serif" font-size="11.00" fill="#000000">&lt; 3</text>
<polygon fill="#ffffff" stroke="transparent" points="529.5,-463.9894 529.5,-480.9894 585.5,-480.9894 585.5,-463.9894 529.5,-463.9894"/>
<text text-anchor="start" x="554.4431" y="-469.0894" font-family="Helvetica,sans-Serif" font-size="11.00" fill="#000000"> &#160;</text>
<polygon fill="#ffffff" stroke="transparent" points="585.5,-463.9894 585.5,-480.9894 650.5,-480.9894 650.5,-463.9894 585.5,-463.9894"/>
<text text-anchor="start" x="632.9053" y="-469.0894" font-family="Helvetica,sans-Serif" font-size="11.00" fill="#000000">0 &gt;</text>
<polygon fill="#000000" stroke="#000000" points="529.5,-463.9894 529.5,-480.9894 529.5,-480.9894 529.5,-463.9894 529.5,-463.9894"/>
<polygon fill="#000000" stroke="#000000" points="585.5,-463.9894 585.5,-480.9894 585.5,-480.9894 585.5,-463.9894 585.5,-463.9894"/>
<polygon fill="none" stroke="#000000" stroke-width="2" points="461,-461.9894 461,-857.9894 652,-857.9894 652,-461.9894 461,-461.9894"/>
</a>
</g>
</g>
<!-- act_ru_variable&#45;&gt;act_ge_bytearray -->
<g id="edge37" class="edge">
<title>act_ru_variable:w&#45;&gt;act_ge_bytearray:e</title>
<path fill="none" stroke="#000000" d="M448.7937,-607.6261C397.129,-647.4928 455.1061,-930.9894 385.5,-930.9894"/>
<polygon fill="#000000" stroke="#000000" points="454.9219,-605.5531 463.6536,-606.3996 458.7109,-604.2712 462.5,-602.9894 462.5,-602.9894 462.5,-602.9894 458.7109,-604.2712 461.3464,-599.5793 454.9219,-605.5531 454.9219,-605.5531"/>
<ellipse fill="none" stroke="#000000" cx="451.8906" cy="-606.5785" rx="3.2" ry="3.2"/>
</g>
<!-- act_ru_variable&#45;&gt;act_ru_execution -->
<g id="edge38" class="edge">
<title>act_ru_variable:w&#45;&gt;act_ru_execution:e</title>
<path fill="none" stroke="#000000" d="M448.2397,-732.2644C403.0593,-711.4164 479.1352,-577.9894 411.5,-577.9894"/>
<polygon fill="#000000" stroke="#000000" points="454.6422,-733.4878 461.8243,-738.5254 458.5711,-734.2386 462.5,-734.9894 462.5,-734.9894 462.5,-734.9894 458.5711,-734.2386 463.1757,-731.4534 454.6422,-733.4878 454.6422,-733.4878"/>
<ellipse fill="none" stroke="#000000" cx="451.4991" cy="-732.8872" rx="3.2" ry="3.2"/>
</g>
<!-- act_ru_variable&#45;&gt;act_ru_execution -->
<g id="edge39" class="edge">
<title>act_ru_variable:w&#45;&gt;act_ru_execution:e</title>
<path fill="none" stroke="#000000" d="M447.9567,-709.6523C411.6079,-688.8634 469.6257,-577.9894 411.5,-577.9894"/>
<polygon fill="#000000" stroke="#000000" points="454.7026,-711.2002 461.6949,-716.4982 458.6013,-712.0948 462.5,-712.9894 462.5,-712.9894 462.5,-712.9894 458.6013,-712.0948 463.3051,-709.4806 454.7026,-711.2002 454.7026,-711.2002"/>
<ellipse fill="none" stroke="#000000" cx="451.5837" cy="-710.4845" rx="3.2" ry="3.2"/>
</g>
</g>
</svg>
