<?xml version="1.0" encoding="UTF-8" standalone="no"?>
<!DOCTYPE svg PUBLIC "-//W3C//DTD SVG 1.1//EN"
 "http://www.w3.org/Graphics/SVG/1.1/DTD/svg11.dtd">
<!-- Generated by graphviz version 2.40.1 (20161225.0304)
 -->
<!-- Title: oneDegreeRelationshipsDiagram Pages: 1 -->
<svg width="339pt" height="360pt"
 viewBox="0.00 0.00 339.00 360.20" xmlns="http://www.w3.org/2000/svg" xmlns:xlink="http://www.w3.org/1999/xlink">
<g id="graph0" class="graph" transform="scale(1 1) rotate(0) translate(4 356.2)">
<title>oneDegreeRelationshipsDiagram</title>
<polygon fill="#ffffff" stroke="transparent" points="-4,4 -4,-356.2 335,-356.2 335,4 -4,4"/>
<text text-anchor="middle" x="72.4936" y="-7.3" font-family="Helvetica,sans-Serif" font-size="11.00" fill="#000000">Generated by SchemaSpy</text>
<!-- act_dmn_hi_decision_execution -->
<g id="node1" class="node">
<title>act_dmn_hi_decision_execution</title>
<g id="a_node1"><a xlink:href="../../tables/act_dmn_hi_decision_execution.html" xlink:title="act_dmn_hi_decision_execution" target="_top">
<polygon fill="#ffffff" stroke="transparent" points="8,-38.2 8,-348.2 323,-348.2 323,-38.2 8,-38.2"/>
<polygon fill="#f5f5f5" stroke="transparent" points="10.5,-323.2 10.5,-346.2 321.5,-346.2 321.5,-323.2 10.5,-323.2"/>
<polygon fill="none" stroke="#000000" points="10.5,-323.2 10.5,-346.2 321.5,-346.2 321.5,-323.2 10.5,-323.2"/>
<text text-anchor="start" x="15.5" y="-331.8" font-family="Helvetica,sans-Serif" font-weight="bold" font-size="11.00" fill="#000000">act_dmn_hi_decision_execution</text>
<text text-anchor="start" x="286.5437" y="-331.3" font-family="Helvetica,sans-Serif" font-size="11.00" fill="#000000">[table]</text>
<polygon fill="none" stroke="#000000" points="10.5,-301.2 10.5,-323.2 231.5,-323.2 231.5,-301.2 10.5,-301.2"/>
<image xlink:href="../../images/primaryKeys.png" width="11px" height="12px" preserveAspectRatio="xMinYMin meet" x="15.5" y="-318.2"/>
<text text-anchor="start" x="30.5" y="-308.3" font-family="Helvetica,sans-Serif" font-size="11.00" fill="#000000">id_</text>
<polygon fill="none" stroke="#000000" points="231.5,-301.2 231.5,-323.2 321.5,-323.2 321.5,-301.2 231.5,-301.2"/>
<text text-anchor="start" x="234.5" y="-308.9" font-family="Helvetica,sans-Serif" font-size="11.00" fill="#000000">varchar[255]</text>
<polygon fill="none" stroke="#000000" points="10.5,-279.2 10.5,-301.2 231.5,-301.2 231.5,-279.2 10.5,-279.2"/>
<text text-anchor="start" x="30.5" y="-286.3" font-family="Helvetica,sans-Serif" font-size="11.00" fill="#000000">decision_definition_id_</text>
<polygon fill="none" stroke="#000000" points="231.5,-279.2 231.5,-301.2 321.5,-301.2 321.5,-279.2 231.5,-279.2"/>
<text text-anchor="start" x="234.5" y="-286.9" font-family="Helvetica,sans-Serif" font-size="11.00" fill="#000000">varchar[255]</text>
<polygon fill="none" stroke="#000000" points="10.5,-257.2 10.5,-279.2 231.5,-279.2 231.5,-257.2 10.5,-257.2"/>
<text text-anchor="start" x="30.5" y="-264.3" font-family="Helvetica,sans-Serif" font-size="11.00" fill="#000000">deployment_id_</text>
<polygon fill="none" stroke="#000000" points="231.5,-257.2 231.5,-279.2 321.5,-279.2 321.5,-257.2 231.5,-257.2"/>
<text text-anchor="start" x="234.5" y="-264.9" font-family="Helvetica,sans-Serif" font-size="11.00" fill="#000000">varchar[255]</text>
<polygon fill="none" stroke="#000000" points="10.5,-235.2 10.5,-257.2 231.5,-257.2 231.5,-235.2 10.5,-235.2"/>
<text text-anchor="start" x="30.5" y="-242.3" font-family="Helvetica,sans-Serif" font-size="11.00" fill="#000000">start_time_</text>
<polygon fill="none" stroke="#000000" points="231.5,-235.2 231.5,-257.2 321.5,-257.2 321.5,-235.2 231.5,-235.2"/>
<text text-anchor="start" x="234.5" y="-242.9" font-family="Helvetica,sans-Serif" font-size="11.00" fill="#000000">timestamp[29,6]</text>
<polygon fill="none" stroke="#000000" points="10.5,-213.2 10.5,-235.2 231.5,-235.2 231.5,-213.2 10.5,-213.2"/>
<text text-anchor="start" x="30.5" y="-220.3" font-family="Helvetica,sans-Serif" font-size="11.00" fill="#000000">end_time_</text>
<polygon fill="none" stroke="#000000" points="231.5,-213.2 231.5,-235.2 321.5,-235.2 321.5,-213.2 231.5,-213.2"/>
<text text-anchor="start" x="234.5" y="-220.9" font-family="Helvetica,sans-Serif" font-size="11.00" fill="#000000">timestamp[29,6]</text>
<polygon fill="#ffffff" stroke="transparent" points="10.5,-191.2 10.5,-213.2 231.5,-213.2 231.5,-191.2 10.5,-191.2"/>
<polygon fill="none" stroke="#000000" points="10.5,-191.2 10.5,-213.2 231.5,-213.2 231.5,-191.2 10.5,-191.2"/>
<text text-anchor="start" x="30.5" y="-198.3" font-family="Helvetica,sans-Serif" font-size="11.00" fill="#000000">instance_id_</text>
<polygon fill="none" stroke="#000000" points="231.5,-191.2 231.5,-213.2 321.5,-213.2 321.5,-191.2 231.5,-191.2"/>
<text text-anchor="start" x="234.5" y="-198.9" font-family="Helvetica,sans-Serif" font-size="11.00" fill="#000000">varchar[255]</text>
<polygon fill="none" stroke="#000000" points="10.5,-169.2 10.5,-191.2 231.5,-191.2 231.5,-169.2 10.5,-169.2"/>
<text text-anchor="start" x="30.5" y="-176.3" font-family="Helvetica,sans-Serif" font-size="11.00" fill="#000000">execution_id_</text>
<polygon fill="none" stroke="#000000" points="231.5,-169.2 231.5,-191.2 321.5,-191.2 321.5,-169.2 231.5,-169.2"/>
<text text-anchor="start" x="234.5" y="-176.9" font-family="Helvetica,sans-Serif" font-size="11.00" fill="#000000">varchar[255]</text>
<polygon fill="none" stroke="#000000" points="10.5,-147.2 10.5,-169.2 231.5,-169.2 231.5,-147.2 10.5,-147.2"/>
<text text-anchor="start" x="30.5" y="-154.3" font-family="Helvetica,sans-Serif" font-size="11.00" fill="#000000">activity_id_</text>
<polygon fill="none" stroke="#000000" points="231.5,-147.2 231.5,-169.2 321.5,-169.2 321.5,-147.2 231.5,-147.2"/>
<text text-anchor="start" x="234.5" y="-154.9" font-family="Helvetica,sans-Serif" font-size="11.00" fill="#000000">varchar[255]</text>
<polygon fill="none" stroke="#000000" points="10.5,-125.2 10.5,-147.2 231.5,-147.2 231.5,-125.2 10.5,-125.2"/>
<text text-anchor="start" x="30.5" y="-132.3" font-family="Helvetica,sans-Serif" font-size="11.00" fill="#000000">scope_type_</text>
<polygon fill="none" stroke="#000000" points="231.5,-125.2 231.5,-147.2 321.5,-147.2 321.5,-125.2 231.5,-125.2"/>
<text text-anchor="start" x="234.5" y="-132.9" font-family="Helvetica,sans-Serif" font-size="11.00" fill="#000000">varchar[255]</text>
<polygon fill="none" stroke="#000000" points="10.5,-103.2 10.5,-125.2 231.5,-125.2 231.5,-103.2 10.5,-103.2"/>
<text text-anchor="start" x="30.5" y="-110.3" font-family="Helvetica,sans-Serif" font-size="11.00" fill="#000000">failed_</text>
<polygon fill="none" stroke="#000000" points="231.5,-103.2 231.5,-125.2 321.5,-125.2 321.5,-103.2 231.5,-103.2"/>
<text text-anchor="start" x="234.5" y="-110.9" font-family="Helvetica,sans-Serif" font-size="11.00" fill="#000000">bool[1]</text>
<polygon fill="none" stroke="#000000" points="10.5,-81.2 10.5,-103.2 231.5,-103.2 231.5,-81.2 10.5,-81.2"/>
<text text-anchor="start" x="30.5" y="-88.3" font-family="Helvetica,sans-Serif" font-size="11.00" fill="#000000">tenant_id_</text>
<polygon fill="none" stroke="#000000" points="231.5,-81.2 231.5,-103.2 321.5,-103.2 321.5,-81.2 231.5,-81.2"/>
<text text-anchor="start" x="234.5" y="-88.9" font-family="Helvetica,sans-Serif" font-size="11.00" fill="#000000">varchar[255]</text>
<polygon fill="none" stroke="#000000" points="10.5,-59.2 10.5,-81.2 231.5,-81.2 231.5,-59.2 10.5,-59.2"/>
<text text-anchor="start" x="30.5" y="-66.3" font-family="Helvetica,sans-Serif" font-size="11.00" fill="#000000">execution_json_</text>
<polygon fill="none" stroke="#000000" points="231.5,-59.2 231.5,-81.2 321.5,-81.2 321.5,-59.2 231.5,-59.2"/>
<text text-anchor="start" x="234.0043" y="-66.9" font-family="Helvetica,sans-Serif" font-size="11.00" fill="#000000">text[2147483647]</text>
<polygon fill="#ffffff" stroke="transparent" points="10.5,-40.2 10.5,-59.2 321.5,-59.2 321.5,-40.2 10.5,-40.2"/>
<polygon fill="none" stroke="#000000" points="10.5,-40.2 10.5,-59.2 321.5,-59.2 321.5,-40.2 10.5,-40.2"/>
<polygon fill="#ffffff" stroke="transparent" points="11.5,-41.2 11.5,-58.2 117.5,-58.2 117.5,-41.2 11.5,-41.2"/>
<text text-anchor="start" x="13.5" y="-46.3" font-family="Helvetica,sans-Serif" font-size="11.00" fill="#000000">&lt; 0</text>
<polygon fill="#ffffff" stroke="transparent" points="117.5,-41.2 117.5,-58.2 214.5,-58.2 214.5,-41.2 117.5,-41.2"/>
<text text-anchor="start" x="162.9431" y="-46.3" font-family="Helvetica,sans-Serif" font-size="11.00" fill="#000000"> &#160;</text>
<polygon fill="#ffffff" stroke="transparent" points="214.5,-41.2 214.5,-58.2 320.5,-58.2 320.5,-41.2 214.5,-41.2"/>
<text text-anchor="start" x="302.9053" y="-46.3" font-family="Helvetica,sans-Serif" font-size="11.00" fill="#000000">0 &gt;</text>
<polygon fill="#000000" stroke="#000000" points="117.5,-41.2 117.5,-58.2 117.5,-58.2 117.5,-41.2 117.5,-41.2"/>
<polygon fill="#000000" stroke="#000000" points="214.5,-41.2 214.5,-58.2 214.5,-58.2 214.5,-41.2 214.5,-41.2"/>
<polygon fill="none" stroke="#000000" stroke-width="2" points="9,-39.2 9,-347.2 322,-347.2 322,-39.2 9,-39.2"/>
</a>
</g>
</g>
</g>
</svg>
