<?xml version="1.0" encoding="UTF-8" standalone="no"?>
<!DOCTYPE svg PUBLIC "-//W3C//DTD SVG 1.1//EN"
 "http://www.w3.org/Graphics/SVG/1.1/DTD/svg11.dtd">
<!-- Generated by graphviz version 2.40.1 (20161225.0304)
 -->
<!-- Title: twoDegreesRelationshipsDiagram Pages: 1 -->
<svg width="1273pt" height="1051pt"
 viewBox="0.00 0.00 1273.00 1050.63" xmlns="http://www.w3.org/2000/svg" xmlns:xlink="http://www.w3.org/1999/xlink">
<g id="graph0" class="graph" transform="scale(1 1) rotate(0) translate(4 1046.6318)">
<title>twoDegreesRelationshipsDiagram</title>
<polygon fill="#ffffff" stroke="transparent" points="-4,4 -4,-1046.6318 1269,-1046.6318 1269,4 -4,4"/>
<text text-anchor="middle" x="72.4936" y="-7.3" font-family="Helvetica,sans-Serif" font-size="11.00" fill="#000000">Generated by SchemaSpy</text>
<!-- act_cmmn_casedef -->
<g id="node1" class="node">
<title>act_cmmn_casedef</title>
<g id="a_node1"><a xlink:href="../../tables/act_cmmn_casedef.html" xlink:title="act_cmmn_casedef" target="_top">
<polygon fill="#ffffff" stroke="transparent" points="240,-96.1318 240,-157.1318 398,-157.1318 398,-96.1318 240,-96.1318"/>
<polygon fill="#f5f5f5" stroke="transparent" points="240,-133.6318 240,-156.6318 398,-156.6318 398,-133.6318 240,-133.6318"/>
<polygon fill="none" stroke="#000000" points="240,-133.6318 240,-156.6318 398,-156.6318 398,-133.6318 240,-133.6318"/>
<text text-anchor="start" x="245" y="-142.2318" font-family="Helvetica,sans-Serif" font-weight="bold" font-size="11.00" fill="#000000">act_cmmn_casedef</text>
<text text-anchor="start" x="363.5219" y="-141.7318" font-family="Helvetica,sans-Serif" font-size="11.00" fill="#000000">[table]</text>
<polygon fill="none" stroke="#000000" points="240,-114.6318 240,-133.6318 398,-133.6318 398,-114.6318 240,-114.6318"/>
<text text-anchor="start" x="243" y="-120.7318" font-family="Helvetica,sans-Serif" font-size="11.00" fill="#000000">...</text>
<polygon fill="#ffffff" stroke="transparent" points="240,-95.6318 240,-114.6318 398,-114.6318 398,-95.6318 240,-95.6318"/>
<polygon fill="none" stroke="#000000" points="240,-95.6318 240,-114.6318 398,-114.6318 398,-95.6318 240,-95.6318"/>
<polygon fill="#ffffff" stroke="transparent" points="241,-96.6318 241,-113.6318 296,-113.6318 296,-96.6318 241,-96.6318"/>
<text text-anchor="start" x="243" y="-101.7318" font-family="Helvetica,sans-Serif" font-size="11.00" fill="#000000">&lt; 1</text>
<polygon fill="#ffffff" stroke="transparent" points="296,-96.6318 296,-113.6318 342,-113.6318 342,-96.6318 296,-96.6318"/>
<text text-anchor="start" x="315.9431" y="-101.7318" font-family="Helvetica,sans-Serif" font-size="11.00" fill="#000000"> &#160;</text>
<polygon fill="#ffffff" stroke="transparent" points="342,-96.6318 342,-113.6318 397,-113.6318 397,-96.6318 342,-96.6318"/>
<text text-anchor="start" x="379.4053" y="-101.7318" font-family="Helvetica,sans-Serif" font-size="11.00" fill="#000000">4 &gt;</text>
<polygon fill="#000000" stroke="#000000" points="296,-96.6318 296,-113.6318 296,-113.6318 296,-96.6318 296,-96.6318"/>
<polygon fill="#000000" stroke="#000000" points="342,-96.6318 342,-113.6318 342,-113.6318 342,-96.6318 342,-96.6318"/>
</a>
</g>
</g>
<!-- act_cmmn_deployment -->
<g id="node2" class="node">
<title>act_cmmn_deployment</title>
<g id="a_node2"><a xlink:href="../../tables/act_cmmn_deployment.html" xlink:title="act_cmmn_deployment" target="_top">
<polygon fill="#ffffff" stroke="transparent" points="8,-99.1318 8,-160.1318 191,-160.1318 191,-99.1318 8,-99.1318"/>
<polygon fill="#f5f5f5" stroke="transparent" points="8.5,-136.6318 8.5,-159.6318 191.5,-159.6318 191.5,-136.6318 8.5,-136.6318"/>
<polygon fill="none" stroke="#000000" points="8.5,-136.6318 8.5,-159.6318 191.5,-159.6318 191.5,-136.6318 8.5,-136.6318"/>
<text text-anchor="start" x="13.5" y="-145.2318" font-family="Helvetica,sans-Serif" font-weight="bold" font-size="11.00" fill="#000000">act_cmmn_deployment</text>
<text text-anchor="start" x="157.0219" y="-144.7318" font-family="Helvetica,sans-Serif" font-size="11.00" fill="#000000">[table]</text>
<polygon fill="none" stroke="#000000" points="8.5,-117.6318 8.5,-136.6318 191.5,-136.6318 191.5,-117.6318 8.5,-117.6318"/>
<text text-anchor="start" x="11.5" y="-123.7318" font-family="Helvetica,sans-Serif" font-size="11.00" fill="#000000">...</text>
<polygon fill="#ffffff" stroke="transparent" points="8.5,-98.6318 8.5,-117.6318 191.5,-117.6318 191.5,-98.6318 8.5,-98.6318"/>
<polygon fill="none" stroke="#000000" points="8.5,-98.6318 8.5,-117.6318 191.5,-117.6318 191.5,-98.6318 8.5,-98.6318"/>
<polygon fill="#ffffff" stroke="transparent" points="9.5,-99.6318 9.5,-116.6318 67.5,-116.6318 67.5,-99.6318 9.5,-99.6318"/>
<text text-anchor="start" x="11.5" y="-104.7318" font-family="Helvetica,sans-Serif" font-size="11.00" fill="#000000"> &#160;</text>
<polygon fill="#ffffff" stroke="transparent" points="67.5,-99.6318 67.5,-116.6318 124.5,-116.6318 124.5,-99.6318 67.5,-99.6318"/>
<text text-anchor="start" x="92.9431" y="-104.7318" font-family="Helvetica,sans-Serif" font-size="11.00" fill="#000000"> &#160;</text>
<polygon fill="#ffffff" stroke="transparent" points="124.5,-99.6318 124.5,-116.6318 190.5,-116.6318 190.5,-99.6318 124.5,-99.6318"/>
<text text-anchor="start" x="172.9053" y="-104.7318" font-family="Helvetica,sans-Serif" font-size="11.00" fill="#000000">2 &gt;</text>
<polygon fill="#000000" stroke="#000000" points="67.5,-99.6318 67.5,-116.6318 67.5,-116.6318 67.5,-99.6318 67.5,-99.6318"/>
<polygon fill="#000000" stroke="#000000" points="124.5,-99.6318 124.5,-116.6318 124.5,-116.6318 124.5,-99.6318 124.5,-99.6318"/>
</a>
</g>
</g>
<!-- act_cmmn_casedef&#45;&gt;act_cmmn_deployment -->
<g id="edge1" class="edge">
<title>act_cmmn_casedef:w&#45;&gt;act_cmmn_deployment:e</title>
<path fill="none" stroke="#000000" d="M217.2524,-126.6318C208.5418,-126.6318 199.8665,-126.6318 191.5,-126.6318"/>
<polygon fill="#000000" stroke="#000000" points="223.8966,-126.6319 231.8966,-130.2318 227.8966,-126.6318 231.8966,-126.6318 231.8966,-126.6318 231.8966,-126.6318 227.8966,-126.6318 231.8966,-123.0318 223.8966,-126.6319 223.8966,-126.6319"/>
<ellipse fill="none" stroke="#000000" cx="220.6966" cy="-126.6319" rx="3.2" ry="3.2"/>
</g>
<!-- act_cmmn_ru_case_inst -->
<g id="node3" class="node">
<title>act_cmmn_ru_case_inst</title>
<g id="a_node3"><a xlink:href="../../tables/act_cmmn_ru_case_inst.html" xlink:title="act_cmmn_ru_case_inst" target="_top">
<polygon fill="#ffffff" stroke="transparent" points="447,-123.1318 447,-184.1318 637,-184.1318 637,-123.1318 447,-123.1318"/>
<polygon fill="#f5f5f5" stroke="transparent" points="447,-160.6318 447,-183.6318 637,-183.6318 637,-160.6318 447,-160.6318"/>
<polygon fill="none" stroke="#000000" points="447,-160.6318 447,-183.6318 637,-183.6318 637,-160.6318 447,-160.6318"/>
<text text-anchor="start" x="452" y="-169.2318" font-family="Helvetica,sans-Serif" font-weight="bold" font-size="11.00" fill="#000000">act_cmmn_ru_case_inst</text>
<text text-anchor="start" x="602.5219" y="-168.7318" font-family="Helvetica,sans-Serif" font-size="11.00" fill="#000000">[table]</text>
<polygon fill="none" stroke="#000000" points="447,-141.6318 447,-160.6318 637,-160.6318 637,-141.6318 447,-141.6318"/>
<text text-anchor="start" x="450" y="-147.7318" font-family="Helvetica,sans-Serif" font-size="11.00" fill="#000000">...</text>
<polygon fill="#ffffff" stroke="transparent" points="447,-122.6318 447,-141.6318 637,-141.6318 637,-122.6318 447,-122.6318"/>
<polygon fill="none" stroke="#000000" points="447,-122.6318 447,-141.6318 637,-141.6318 637,-122.6318 447,-122.6318"/>
<polygon fill="#ffffff" stroke="transparent" points="448,-123.6318 448,-140.6318 514,-140.6318 514,-123.6318 448,-123.6318"/>
<text text-anchor="start" x="450" y="-128.7318" font-family="Helvetica,sans-Serif" font-size="11.00" fill="#000000">&lt; 1</text>
<polygon fill="#ffffff" stroke="transparent" points="514,-123.6318 514,-140.6318 571,-140.6318 571,-123.6318 514,-123.6318"/>
<text text-anchor="start" x="539.4431" y="-128.7318" font-family="Helvetica,sans-Serif" font-size="11.00" fill="#000000"> &#160;</text>
<polygon fill="#ffffff" stroke="transparent" points="571,-123.6318 571,-140.6318 636,-140.6318 636,-123.6318 571,-123.6318"/>
<text text-anchor="start" x="618.4053" y="-128.7318" font-family="Helvetica,sans-Serif" font-size="11.00" fill="#000000">3 &gt;</text>
<polygon fill="#000000" stroke="#000000" points="514,-123.6318 514,-140.6318 514,-140.6318 514,-123.6318 514,-123.6318"/>
<polygon fill="#000000" stroke="#000000" points="571,-123.6318 571,-140.6318 571,-140.6318 571,-123.6318 571,-123.6318"/>
</a>
</g>
</g>
<!-- act_cmmn_ru_case_inst&#45;&gt;act_cmmn_casedef -->
<g id="edge2" class="edge">
<title>act_cmmn_ru_case_inst:w&#45;&gt;act_cmmn_casedef:e</title>
<path fill="none" stroke="#000000" d="M424.5792,-139.4149C418.4085,-138.6678 412.262,-137.9236 406.2157,-137.1916"/>
<polygon fill="#000000" stroke="#000000" points="431.0439,-140.1976 438.5531,-144.7331 435.0149,-140.6784 438.9859,-141.1592 438.9859,-141.1592 438.9859,-141.1592 435.0149,-140.6784 439.4186,-137.5853 431.0439,-140.1976 431.0439,-140.1976"/>
<ellipse fill="none" stroke="#000000" cx="427.8671" cy="-139.813" rx="3.2" ry="3.2"/>
</g>
<!-- act_cmmn_ru_mil_inst -->
<g id="node4" class="node">
<title>act_cmmn_ru_mil_inst</title>
<g id="a_node4"><a xlink:href="../../tables/act_cmmn_ru_mil_inst.html" xlink:title="act_cmmn_ru_mil_inst" target="_top">
<polygon fill="#ffffff" stroke="transparent" points="742,-69.1318 742,-130.1318 921,-130.1318 921,-69.1318 742,-69.1318"/>
<polygon fill="#f5f5f5" stroke="transparent" points="742.5,-106.6318 742.5,-129.6318 921.5,-129.6318 921.5,-106.6318 742.5,-106.6318"/>
<polygon fill="none" stroke="#000000" points="742.5,-106.6318 742.5,-129.6318 921.5,-129.6318 921.5,-106.6318 742.5,-106.6318"/>
<text text-anchor="start" x="747.5" y="-115.2318" font-family="Helvetica,sans-Serif" font-weight="bold" font-size="11.00" fill="#000000">act_cmmn_ru_mil_inst</text>
<text text-anchor="start" x="887.0219" y="-114.7318" font-family="Helvetica,sans-Serif" font-size="11.00" fill="#000000">[table]</text>
<polygon fill="none" stroke="#000000" points="742.5,-87.6318 742.5,-106.6318 921.5,-106.6318 921.5,-87.6318 742.5,-87.6318"/>
<text text-anchor="start" x="745.5" y="-93.7318" font-family="Helvetica,sans-Serif" font-size="11.00" fill="#000000">...</text>
<polygon fill="#ffffff" stroke="transparent" points="742.5,-68.6318 742.5,-87.6318 921.5,-87.6318 921.5,-68.6318 742.5,-68.6318"/>
<polygon fill="none" stroke="#000000" points="742.5,-68.6318 742.5,-87.6318 921.5,-87.6318 921.5,-68.6318 742.5,-68.6318"/>
<polygon fill="#ffffff" stroke="transparent" points="743.5,-69.6318 743.5,-86.6318 808.5,-86.6318 808.5,-69.6318 743.5,-69.6318"/>
<text text-anchor="start" x="745.5" y="-74.7318" font-family="Helvetica,sans-Serif" font-size="11.00" fill="#000000">&lt; 2</text>
<polygon fill="#ffffff" stroke="transparent" points="808.5,-69.6318 808.5,-86.6318 864.5,-86.6318 864.5,-69.6318 808.5,-69.6318"/>
<text text-anchor="start" x="833.4431" y="-74.7318" font-family="Helvetica,sans-Serif" font-size="11.00" fill="#000000"> &#160;</text>
<polygon fill="#ffffff" stroke="transparent" points="864.5,-69.6318 864.5,-86.6318 920.5,-86.6318 920.5,-69.6318 864.5,-69.6318"/>
<text text-anchor="start" x="912.3862" y="-74.7318" font-family="Helvetica,sans-Serif" font-size="11.00" fill="#000000"> &#160;</text>
<polygon fill="#000000" stroke="#000000" points="808.5,-69.6318 808.5,-86.6318 808.5,-86.6318 808.5,-69.6318 808.5,-69.6318"/>
<polygon fill="#000000" stroke="#000000" points="864.5,-69.6318 864.5,-86.6318 864.5,-86.6318 864.5,-69.6318 864.5,-69.6318"/>
</a>
</g>
</g>
<!-- act_cmmn_ru_mil_inst&#45;&gt;act_cmmn_casedef -->
<g id="edge3" class="edge">
<title>act_cmmn_ru_mil_inst:w&#45;&gt;act_cmmn_casedef:e</title>
<path fill="none" stroke="#000000" d="M727.8702,-96.651C604.7743,-96.9835 568.6006,-101.6667 439,-112.6318 428.341,-113.5336 417.1664,-114.6318 406.1046,-115.8122"/>
<polygon fill="#000000" stroke="#000000" points="734.5,-96.6423 742.5047,-100.2318 738.5,-96.6371 742.5,-96.6318 742.5,-96.6318 742.5,-96.6318 738.5,-96.6371 742.4953,-93.0318 734.5,-96.6423 734.5,-96.6423"/>
<ellipse fill="none" stroke="#000000" cx="731.3" cy="-96.6466" rx="3.2" ry="3.2"/>
</g>
<!-- act_cmmn_ru_mil_inst&#45;&gt;act_cmmn_ru_case_inst -->
<g id="edge4" class="edge">
<title>act_cmmn_ru_mil_inst:w&#45;&gt;act_cmmn_ru_case_inst:e</title>
<path fill="none" stroke="#000000" d="M727.9992,-97.0747C692.703,-99.1796 656.1573,-108.5057 624.9012,-118.9961"/>
<polygon fill="#000000" stroke="#000000" points="734.5037,-96.8761 742.6099,-100.2301 738.5019,-96.754 742.5,-96.6318 742.5,-96.6318 742.5,-96.6318 738.5019,-96.754 742.3901,-93.0335 734.5037,-96.8761 734.5037,-96.8761"/>
<ellipse fill="none" stroke="#000000" cx="731.3052" cy="-96.9738" rx="3.2" ry="3.2"/>
</g>
<!-- act_cmmn_ru_plan_item_inst -->
<g id="node5" class="node">
<title>act_cmmn_ru_plan_item_inst</title>
<g id="a_node5"><a xlink:href="../../tables/act_cmmn_ru_plan_item_inst.html" xlink:title="act_cmmn_ru_plan_item_inst" target="_top">
<polygon fill="#ffffff" stroke="transparent" points="686,-178.6318 686,-1038.6318 977,-1038.6318 977,-178.6318 686,-178.6318"/>
<polygon fill="#f5f5f5" stroke="transparent" points="688.5,-1013.6318 688.5,-1036.6318 975.5,-1036.6318 975.5,-1013.6318 688.5,-1013.6318"/>
<polygon fill="none" stroke="#000000" points="688.5,-1013.6318 688.5,-1036.6318 975.5,-1036.6318 975.5,-1013.6318 688.5,-1013.6318"/>
<text text-anchor="start" x="693.5" y="-1022.2318" font-family="Helvetica,sans-Serif" font-weight="bold" font-size="11.00" fill="#000000">act_cmmn_ru_plan_item_inst</text>
<text text-anchor="start" x="940.5437" y="-1021.7318" font-family="Helvetica,sans-Serif" font-size="11.00" fill="#000000">[table]</text>
<polygon fill="none" stroke="#000000" points="688.5,-991.6318 688.5,-1013.6318 891.5,-1013.6318 891.5,-991.6318 688.5,-991.6318"/>
<image xlink:href="../../images/primaryKeys.png" width="11px" height="12px" preserveAspectRatio="xMinYMin meet" x="693.5" y="-1008.63"/>
<text text-anchor="start" x="708.5" y="-998.7318" font-family="Helvetica,sans-Serif" font-size="11.00" fill="#000000">id_</text>
<polygon fill="none" stroke="#000000" points="891.5,-991.6318 891.5,-1013.6318 975.5,-1013.6318 975.5,-991.6318 891.5,-991.6318"/>
<text text-anchor="start" x="894.5" y="-999.3318" font-family="Helvetica,sans-Serif" font-size="11.00" fill="#000000">varchar[255]</text>
<polygon fill="none" stroke="#000000" points="688.5,-969.6318 688.5,-991.6318 891.5,-991.6318 891.5,-969.6318 688.5,-969.6318"/>
<text text-anchor="start" x="708.5" y="-976.7318" font-family="Helvetica,sans-Serif" font-size="11.00" fill="#000000">rev_</text>
<polygon fill="none" stroke="#000000" points="891.5,-969.6318 891.5,-991.6318 975.5,-991.6318 975.5,-969.6318 891.5,-969.6318"/>
<text text-anchor="start" x="894.5" y="-977.3318" font-family="Helvetica,sans-Serif" font-size="11.00" fill="#000000">int4[10]</text>
<polygon fill="#ffffff" stroke="transparent" points="688.5,-947.6318 688.5,-969.6318 891.5,-969.6318 891.5,-947.6318 688.5,-947.6318"/>
<polygon fill="none" stroke="#000000" points="688.5,-947.6318 688.5,-969.6318 891.5,-969.6318 891.5,-947.6318 688.5,-947.6318"/>
<image xlink:href="../../images/foreignKeys.png" width="11px" height="12px" preserveAspectRatio="xMinYMin meet" x="693.5" y="-964.632"/>
<text text-anchor="start" x="708.5" y="-954.7318" font-family="Helvetica,sans-Serif" font-size="11.00" fill="#000000">case_def_id_</text>
<polygon fill="none" stroke="#000000" points="891.5,-947.6318 891.5,-969.6318 975.5,-969.6318 975.5,-947.6318 891.5,-947.6318"/>
<text text-anchor="start" x="894.5" y="-955.3318" font-family="Helvetica,sans-Serif" font-size="11.00" fill="#000000">varchar[255]</text>
<polygon fill="#ffffff" stroke="transparent" points="688.5,-925.6318 688.5,-947.6318 891.5,-947.6318 891.5,-925.6318 688.5,-925.6318"/>
<polygon fill="none" stroke="#000000" points="688.5,-925.6318 688.5,-947.6318 891.5,-947.6318 891.5,-925.6318 688.5,-925.6318"/>
<image xlink:href="../../images/foreignKeys.png" width="11px" height="12px" preserveAspectRatio="xMinYMin meet" x="693.5" y="-942.632"/>
<text text-anchor="start" x="708.5" y="-932.7318" font-family="Helvetica,sans-Serif" font-size="11.00" fill="#000000">case_inst_id_</text>
<polygon fill="none" stroke="#000000" points="891.5,-925.6318 891.5,-947.6318 975.5,-947.6318 975.5,-925.6318 891.5,-925.6318"/>
<text text-anchor="start" x="894.5" y="-933.3318" font-family="Helvetica,sans-Serif" font-size="11.00" fill="#000000">varchar[255]</text>
<polygon fill="#ffffff" stroke="transparent" points="688.5,-903.6318 688.5,-925.6318 891.5,-925.6318 891.5,-903.6318 688.5,-903.6318"/>
<polygon fill="none" stroke="#000000" points="688.5,-903.6318 688.5,-925.6318 891.5,-925.6318 891.5,-903.6318 688.5,-903.6318"/>
<text text-anchor="start" x="708.5" y="-910.7318" font-family="Helvetica,sans-Serif" font-size="11.00" fill="#000000">stage_inst_id_</text>
<polygon fill="none" stroke="#000000" points="891.5,-903.6318 891.5,-925.6318 975.5,-925.6318 975.5,-903.6318 891.5,-903.6318"/>
<text text-anchor="start" x="894.5" y="-911.3318" font-family="Helvetica,sans-Serif" font-size="11.00" fill="#000000">varchar[255]</text>
<polygon fill="none" stroke="#000000" points="688.5,-881.6318 688.5,-903.6318 891.5,-903.6318 891.5,-881.6318 688.5,-881.6318"/>
<text text-anchor="start" x="708.5" y="-888.7318" font-family="Helvetica,sans-Serif" font-size="11.00" fill="#000000">is_stage_</text>
<polygon fill="none" stroke="#000000" points="891.5,-881.6318 891.5,-903.6318 975.5,-903.6318 975.5,-881.6318 891.5,-881.6318"/>
<text text-anchor="start" x="894.5" y="-889.3318" font-family="Helvetica,sans-Serif" font-size="11.00" fill="#000000">bool[1]</text>
<polygon fill="none" stroke="#000000" points="688.5,-859.6318 688.5,-881.6318 891.5,-881.6318 891.5,-859.6318 688.5,-859.6318"/>
<text text-anchor="start" x="708.5" y="-866.7318" font-family="Helvetica,sans-Serif" font-size="11.00" fill="#000000">element_id_</text>
<polygon fill="none" stroke="#000000" points="891.5,-859.6318 891.5,-881.6318 975.5,-881.6318 975.5,-859.6318 891.5,-859.6318"/>
<text text-anchor="start" x="894.5" y="-867.3318" font-family="Helvetica,sans-Serif" font-size="11.00" fill="#000000">varchar[255]</text>
<polygon fill="none" stroke="#000000" points="688.5,-837.6318 688.5,-859.6318 891.5,-859.6318 891.5,-837.6318 688.5,-837.6318"/>
<text text-anchor="start" x="708.5" y="-844.7318" font-family="Helvetica,sans-Serif" font-size="11.00" fill="#000000">name_</text>
<polygon fill="none" stroke="#000000" points="891.5,-837.6318 891.5,-859.6318 975.5,-859.6318 975.5,-837.6318 891.5,-837.6318"/>
<text text-anchor="start" x="894.5" y="-845.3318" font-family="Helvetica,sans-Serif" font-size="11.00" fill="#000000">varchar[255]</text>
<polygon fill="none" stroke="#000000" points="688.5,-815.6318 688.5,-837.6318 891.5,-837.6318 891.5,-815.6318 688.5,-815.6318"/>
<text text-anchor="start" x="708.5" y="-822.7318" font-family="Helvetica,sans-Serif" font-size="11.00" fill="#000000">state_</text>
<polygon fill="none" stroke="#000000" points="891.5,-815.6318 891.5,-837.6318 975.5,-837.6318 975.5,-815.6318 891.5,-815.6318"/>
<text text-anchor="start" x="894.5" y="-823.3318" font-family="Helvetica,sans-Serif" font-size="11.00" fill="#000000">varchar[255]</text>
<polygon fill="none" stroke="#000000" points="688.5,-793.6318 688.5,-815.6318 891.5,-815.6318 891.5,-793.6318 688.5,-793.6318"/>
<text text-anchor="start" x="708.5" y="-800.7318" font-family="Helvetica,sans-Serif" font-size="11.00" fill="#000000">create_time_</text>
<polygon fill="none" stroke="#000000" points="891.5,-793.6318 891.5,-815.6318 975.5,-815.6318 975.5,-793.6318 891.5,-793.6318"/>
<text text-anchor="start" x="894.3807" y="-801.3318" font-family="Helvetica,sans-Serif" font-size="11.00" fill="#000000">timestamp[29,6]</text>
<polygon fill="none" stroke="#000000" points="688.5,-771.6318 688.5,-793.6318 891.5,-793.6318 891.5,-771.6318 688.5,-771.6318"/>
<text text-anchor="start" x="708.5" y="-778.7318" font-family="Helvetica,sans-Serif" font-size="11.00" fill="#000000">start_user_id_</text>
<polygon fill="none" stroke="#000000" points="891.5,-771.6318 891.5,-793.6318 975.5,-793.6318 975.5,-771.6318 891.5,-771.6318"/>
<text text-anchor="start" x="894.5" y="-779.3318" font-family="Helvetica,sans-Serif" font-size="11.00" fill="#000000">varchar[255]</text>
<polygon fill="none" stroke="#000000" points="688.5,-749.6318 688.5,-771.6318 891.5,-771.6318 891.5,-749.6318 688.5,-749.6318"/>
<text text-anchor="start" x="708.5" y="-756.7318" font-family="Helvetica,sans-Serif" font-size="11.00" fill="#000000">assignee_</text>
<polygon fill="none" stroke="#000000" points="891.5,-749.6318 891.5,-771.6318 975.5,-771.6318 975.5,-749.6318 891.5,-749.6318"/>
<text text-anchor="start" x="894.5" y="-757.3318" font-family="Helvetica,sans-Serif" font-size="11.00" fill="#000000">varchar[255]</text>
<polygon fill="none" stroke="#000000" points="688.5,-727.6318 688.5,-749.6318 891.5,-749.6318 891.5,-727.6318 688.5,-727.6318"/>
<text text-anchor="start" x="708.5" y="-734.7318" font-family="Helvetica,sans-Serif" font-size="11.00" fill="#000000">completed_by_</text>
<polygon fill="none" stroke="#000000" points="891.5,-727.6318 891.5,-749.6318 975.5,-749.6318 975.5,-727.6318 891.5,-727.6318"/>
<text text-anchor="start" x="894.5" y="-735.3318" font-family="Helvetica,sans-Serif" font-size="11.00" fill="#000000">varchar[255]</text>
<polygon fill="none" stroke="#000000" points="688.5,-705.6318 688.5,-727.6318 891.5,-727.6318 891.5,-705.6318 688.5,-705.6318"/>
<text text-anchor="start" x="708.5" y="-712.7318" font-family="Helvetica,sans-Serif" font-size="11.00" fill="#000000">reference_id_</text>
<polygon fill="none" stroke="#000000" points="891.5,-705.6318 891.5,-727.6318 975.5,-727.6318 975.5,-705.6318 891.5,-705.6318"/>
<text text-anchor="start" x="894.5" y="-713.3318" font-family="Helvetica,sans-Serif" font-size="11.00" fill="#000000">varchar[255]</text>
<polygon fill="none" stroke="#000000" points="688.5,-683.6318 688.5,-705.6318 891.5,-705.6318 891.5,-683.6318 688.5,-683.6318"/>
<text text-anchor="start" x="708.5" y="-690.7318" font-family="Helvetica,sans-Serif" font-size="11.00" fill="#000000">reference_type_</text>
<polygon fill="none" stroke="#000000" points="891.5,-683.6318 891.5,-705.6318 975.5,-705.6318 975.5,-683.6318 891.5,-683.6318"/>
<text text-anchor="start" x="894.5" y="-691.3318" font-family="Helvetica,sans-Serif" font-size="11.00" fill="#000000">varchar[255]</text>
<polygon fill="none" stroke="#000000" points="688.5,-661.6318 688.5,-683.6318 891.5,-683.6318 891.5,-661.6318 688.5,-661.6318"/>
<text text-anchor="start" x="708.5" y="-668.7318" font-family="Helvetica,sans-Serif" font-size="11.00" fill="#000000">item_definition_id_</text>
<polygon fill="none" stroke="#000000" points="891.5,-661.6318 891.5,-683.6318 975.5,-683.6318 975.5,-661.6318 891.5,-661.6318"/>
<text text-anchor="start" x="894.5" y="-669.3318" font-family="Helvetica,sans-Serif" font-size="11.00" fill="#000000">varchar[255]</text>
<polygon fill="none" stroke="#000000" points="688.5,-639.6318 688.5,-661.6318 891.5,-661.6318 891.5,-639.6318 688.5,-639.6318"/>
<text text-anchor="start" x="708.5" y="-646.7318" font-family="Helvetica,sans-Serif" font-size="11.00" fill="#000000">item_definition_type_</text>
<polygon fill="none" stroke="#000000" points="891.5,-639.6318 891.5,-661.6318 975.5,-661.6318 975.5,-639.6318 891.5,-639.6318"/>
<text text-anchor="start" x="894.5" y="-647.3318" font-family="Helvetica,sans-Serif" font-size="11.00" fill="#000000">varchar[255]</text>
<polygon fill="none" stroke="#000000" points="688.5,-617.6318 688.5,-639.6318 891.5,-639.6318 891.5,-617.6318 688.5,-617.6318"/>
<text text-anchor="start" x="708.5" y="-624.7318" font-family="Helvetica,sans-Serif" font-size="11.00" fill="#000000">is_completeable_</text>
<polygon fill="none" stroke="#000000" points="891.5,-617.6318 891.5,-639.6318 975.5,-639.6318 975.5,-617.6318 891.5,-617.6318"/>
<text text-anchor="start" x="894.5" y="-625.3318" font-family="Helvetica,sans-Serif" font-size="11.00" fill="#000000">bool[1]</text>
<polygon fill="none" stroke="#000000" points="688.5,-595.6318 688.5,-617.6318 891.5,-617.6318 891.5,-595.6318 688.5,-595.6318"/>
<text text-anchor="start" x="708.5" y="-602.7318" font-family="Helvetica,sans-Serif" font-size="11.00" fill="#000000">is_count_enabled_</text>
<polygon fill="none" stroke="#000000" points="891.5,-595.6318 891.5,-617.6318 975.5,-617.6318 975.5,-595.6318 891.5,-595.6318"/>
<text text-anchor="start" x="894.5" y="-603.3318" font-family="Helvetica,sans-Serif" font-size="11.00" fill="#000000">bool[1]</text>
<polygon fill="none" stroke="#000000" points="688.5,-573.6318 688.5,-595.6318 891.5,-595.6318 891.5,-573.6318 688.5,-573.6318"/>
<text text-anchor="start" x="708.5" y="-580.7318" font-family="Helvetica,sans-Serif" font-size="11.00" fill="#000000">var_count_</text>
<polygon fill="none" stroke="#000000" points="891.5,-573.6318 891.5,-595.6318 975.5,-595.6318 975.5,-573.6318 891.5,-573.6318"/>
<text text-anchor="start" x="894.5" y="-581.3318" font-family="Helvetica,sans-Serif" font-size="11.00" fill="#000000">int4[10]</text>
<polygon fill="none" stroke="#000000" points="688.5,-551.6318 688.5,-573.6318 891.5,-573.6318 891.5,-551.6318 688.5,-551.6318"/>
<text text-anchor="start" x="708.5" y="-558.7318" font-family="Helvetica,sans-Serif" font-size="11.00" fill="#000000">sentry_part_inst_count_</text>
<polygon fill="none" stroke="#000000" points="891.5,-551.6318 891.5,-573.6318 975.5,-573.6318 975.5,-551.6318 891.5,-551.6318"/>
<text text-anchor="start" x="894.5" y="-559.3318" font-family="Helvetica,sans-Serif" font-size="11.00" fill="#000000">int4[10]</text>
<polygon fill="none" stroke="#000000" points="688.5,-529.6318 688.5,-551.6318 891.5,-551.6318 891.5,-529.6318 688.5,-529.6318"/>
<text text-anchor="start" x="708.5" y="-536.7318" font-family="Helvetica,sans-Serif" font-size="11.00" fill="#000000">last_available_time_</text>
<polygon fill="none" stroke="#000000" points="891.5,-529.6318 891.5,-551.6318 975.5,-551.6318 975.5,-529.6318 891.5,-529.6318"/>
<text text-anchor="start" x="894.3807" y="-537.3318" font-family="Helvetica,sans-Serif" font-size="11.00" fill="#000000">timestamp[26,3]</text>
<polygon fill="none" stroke="#000000" points="688.5,-507.6318 688.5,-529.6318 891.5,-529.6318 891.5,-507.6318 688.5,-507.6318"/>
<text text-anchor="start" x="708.5" y="-514.7318" font-family="Helvetica,sans-Serif" font-size="11.00" fill="#000000">last_enabled_time_</text>
<polygon fill="none" stroke="#000000" points="891.5,-507.6318 891.5,-529.6318 975.5,-529.6318 975.5,-507.6318 891.5,-507.6318"/>
<text text-anchor="start" x="894.3807" y="-515.3318" font-family="Helvetica,sans-Serif" font-size="11.00" fill="#000000">timestamp[26,3]</text>
<polygon fill="none" stroke="#000000" points="688.5,-485.6318 688.5,-507.6318 891.5,-507.6318 891.5,-485.6318 688.5,-485.6318"/>
<text text-anchor="start" x="708.5" y="-492.7318" font-family="Helvetica,sans-Serif" font-size="11.00" fill="#000000">last_disabled_time_</text>
<polygon fill="none" stroke="#000000" points="891.5,-485.6318 891.5,-507.6318 975.5,-507.6318 975.5,-485.6318 891.5,-485.6318"/>
<text text-anchor="start" x="894.3807" y="-493.3318" font-family="Helvetica,sans-Serif" font-size="11.00" fill="#000000">timestamp[26,3]</text>
<polygon fill="none" stroke="#000000" points="688.5,-463.6318 688.5,-485.6318 891.5,-485.6318 891.5,-463.6318 688.5,-463.6318"/>
<text text-anchor="start" x="708.5" y="-470.7318" font-family="Helvetica,sans-Serif" font-size="11.00" fill="#000000">last_started_time_</text>
<polygon fill="none" stroke="#000000" points="891.5,-463.6318 891.5,-485.6318 975.5,-485.6318 975.5,-463.6318 891.5,-463.6318"/>
<text text-anchor="start" x="894.3807" y="-471.3318" font-family="Helvetica,sans-Serif" font-size="11.00" fill="#000000">timestamp[26,3]</text>
<polygon fill="none" stroke="#000000" points="688.5,-441.6318 688.5,-463.6318 891.5,-463.6318 891.5,-441.6318 688.5,-441.6318"/>
<text text-anchor="start" x="708.5" y="-448.7318" font-family="Helvetica,sans-Serif" font-size="11.00" fill="#000000">last_suspended_time_</text>
<polygon fill="none" stroke="#000000" points="891.5,-441.6318 891.5,-463.6318 975.5,-463.6318 975.5,-441.6318 891.5,-441.6318"/>
<text text-anchor="start" x="894.3807" y="-449.3318" font-family="Helvetica,sans-Serif" font-size="11.00" fill="#000000">timestamp[26,3]</text>
<polygon fill="none" stroke="#000000" points="688.5,-419.6318 688.5,-441.6318 891.5,-441.6318 891.5,-419.6318 688.5,-419.6318"/>
<text text-anchor="start" x="708.5" y="-426.7318" font-family="Helvetica,sans-Serif" font-size="11.00" fill="#000000">completed_time_</text>
<polygon fill="none" stroke="#000000" points="891.5,-419.6318 891.5,-441.6318 975.5,-441.6318 975.5,-419.6318 891.5,-419.6318"/>
<text text-anchor="start" x="894.3807" y="-427.3318" font-family="Helvetica,sans-Serif" font-size="11.00" fill="#000000">timestamp[26,3]</text>
<polygon fill="none" stroke="#000000" points="688.5,-397.6318 688.5,-419.6318 891.5,-419.6318 891.5,-397.6318 688.5,-397.6318"/>
<text text-anchor="start" x="708.5" y="-404.7318" font-family="Helvetica,sans-Serif" font-size="11.00" fill="#000000">occurred_time_</text>
<polygon fill="none" stroke="#000000" points="891.5,-397.6318 891.5,-419.6318 975.5,-419.6318 975.5,-397.6318 891.5,-397.6318"/>
<text text-anchor="start" x="894.3807" y="-405.3318" font-family="Helvetica,sans-Serif" font-size="11.00" fill="#000000">timestamp[26,3]</text>
<polygon fill="none" stroke="#000000" points="688.5,-375.6318 688.5,-397.6318 891.5,-397.6318 891.5,-375.6318 688.5,-375.6318"/>
<text text-anchor="start" x="708.5" y="-382.7318" font-family="Helvetica,sans-Serif" font-size="11.00" fill="#000000">terminated_time_</text>
<polygon fill="none" stroke="#000000" points="891.5,-375.6318 891.5,-397.6318 975.5,-397.6318 975.5,-375.6318 891.5,-375.6318"/>
<text text-anchor="start" x="894.3807" y="-383.3318" font-family="Helvetica,sans-Serif" font-size="11.00" fill="#000000">timestamp[26,3]</text>
<polygon fill="none" stroke="#000000" points="688.5,-353.6318 688.5,-375.6318 891.5,-375.6318 891.5,-353.6318 688.5,-353.6318"/>
<text text-anchor="start" x="708.5" y="-360.7318" font-family="Helvetica,sans-Serif" font-size="11.00" fill="#000000">exit_time_</text>
<polygon fill="none" stroke="#000000" points="891.5,-353.6318 891.5,-375.6318 975.5,-375.6318 975.5,-353.6318 891.5,-353.6318"/>
<text text-anchor="start" x="894.3807" y="-361.3318" font-family="Helvetica,sans-Serif" font-size="11.00" fill="#000000">timestamp[26,3]</text>
<polygon fill="none" stroke="#000000" points="688.5,-331.6318 688.5,-353.6318 891.5,-353.6318 891.5,-331.6318 688.5,-331.6318"/>
<text text-anchor="start" x="708.5" y="-338.7318" font-family="Helvetica,sans-Serif" font-size="11.00" fill="#000000">ended_time_</text>
<polygon fill="none" stroke="#000000" points="891.5,-331.6318 891.5,-353.6318 975.5,-353.6318 975.5,-331.6318 891.5,-331.6318"/>
<text text-anchor="start" x="894.3807" y="-339.3318" font-family="Helvetica,sans-Serif" font-size="11.00" fill="#000000">timestamp[26,3]</text>
<polygon fill="none" stroke="#000000" points="688.5,-309.6318 688.5,-331.6318 891.5,-331.6318 891.5,-309.6318 688.5,-309.6318"/>
<text text-anchor="start" x="708.5" y="-316.7318" font-family="Helvetica,sans-Serif" font-size="11.00" fill="#000000">entry_criterion_id_</text>
<polygon fill="none" stroke="#000000" points="891.5,-309.6318 891.5,-331.6318 975.5,-331.6318 975.5,-309.6318 891.5,-309.6318"/>
<text text-anchor="start" x="894.5" y="-317.3318" font-family="Helvetica,sans-Serif" font-size="11.00" fill="#000000">varchar[255]</text>
<polygon fill="none" stroke="#000000" points="688.5,-287.6318 688.5,-309.6318 891.5,-309.6318 891.5,-287.6318 688.5,-287.6318"/>
<text text-anchor="start" x="708.5" y="-294.7318" font-family="Helvetica,sans-Serif" font-size="11.00" fill="#000000">exit_criterion_id_</text>
<polygon fill="none" stroke="#000000" points="891.5,-287.6318 891.5,-309.6318 975.5,-309.6318 975.5,-287.6318 891.5,-287.6318"/>
<text text-anchor="start" x="894.5" y="-295.3318" font-family="Helvetica,sans-Serif" font-size="11.00" fill="#000000">varchar[255]</text>
<polygon fill="none" stroke="#000000" points="688.5,-265.6318 688.5,-287.6318 891.5,-287.6318 891.5,-265.6318 688.5,-265.6318"/>
<text text-anchor="start" x="708.5" y="-272.7318" font-family="Helvetica,sans-Serif" font-size="11.00" fill="#000000">extra_value_</text>
<polygon fill="none" stroke="#000000" points="891.5,-265.6318 891.5,-287.6318 975.5,-287.6318 975.5,-265.6318 891.5,-265.6318"/>
<text text-anchor="start" x="894.5" y="-273.3318" font-family="Helvetica,sans-Serif" font-size="11.00" fill="#000000">varchar[255]</text>
<polygon fill="none" stroke="#000000" points="688.5,-243.6318 688.5,-265.6318 891.5,-265.6318 891.5,-243.6318 688.5,-243.6318"/>
<text text-anchor="start" x="708.5" y="-250.7318" font-family="Helvetica,sans-Serif" font-size="11.00" fill="#000000">derived_case_def_id_</text>
<polygon fill="none" stroke="#000000" points="891.5,-243.6318 891.5,-265.6318 975.5,-265.6318 975.5,-243.6318 891.5,-243.6318"/>
<text text-anchor="start" x="894.5" y="-251.3318" font-family="Helvetica,sans-Serif" font-size="11.00" fill="#000000">varchar[255]</text>
<polygon fill="none" stroke="#000000" points="688.5,-221.6318 688.5,-243.6318 891.5,-243.6318 891.5,-221.6318 688.5,-221.6318"/>
<text text-anchor="start" x="708.5" y="-228.7318" font-family="Helvetica,sans-Serif" font-size="11.00" fill="#000000">last_unavailable_time_</text>
<polygon fill="none" stroke="#000000" points="891.5,-221.6318 891.5,-243.6318 975.5,-243.6318 975.5,-221.6318 891.5,-221.6318"/>
<text text-anchor="start" x="894.3807" y="-229.3318" font-family="Helvetica,sans-Serif" font-size="11.00" fill="#000000">timestamp[26,3]</text>
<polygon fill="none" stroke="#000000" points="688.5,-199.6318 688.5,-221.6318 891.5,-221.6318 891.5,-199.6318 688.5,-199.6318"/>
<text text-anchor="start" x="708.5" y="-206.7318" font-family="Helvetica,sans-Serif" font-size="11.00" fill="#000000">tenant_id_</text>
<polygon fill="none" stroke="#000000" points="891.5,-199.6318 891.5,-221.6318 975.5,-221.6318 975.5,-199.6318 891.5,-199.6318"/>
<text text-anchor="start" x="894.5" y="-207.3318" font-family="Helvetica,sans-Serif" font-size="11.00" fill="#000000">varchar[255]</text>
<polygon fill="#ffffff" stroke="transparent" points="688.5,-180.6318 688.5,-199.6318 975.5,-199.6318 975.5,-180.6318 688.5,-180.6318"/>
<polygon fill="none" stroke="#000000" points="688.5,-180.6318 688.5,-199.6318 975.5,-199.6318 975.5,-180.6318 688.5,-180.6318"/>
<polygon fill="#ffffff" stroke="transparent" points="689.5,-181.6318 689.5,-198.6318 787.5,-198.6318 787.5,-181.6318 689.5,-181.6318"/>
<text text-anchor="start" x="691.5" y="-186.7318" font-family="Helvetica,sans-Serif" font-size="11.00" fill="#000000">&lt; 2</text>
<polygon fill="#ffffff" stroke="transparent" points="787.5,-181.6318 787.5,-198.6318 876.5,-198.6318 876.5,-181.6318 787.5,-181.6318"/>
<text text-anchor="start" x="828.9431" y="-186.7318" font-family="Helvetica,sans-Serif" font-size="11.00" fill="#000000"> &#160;</text>
<polygon fill="#ffffff" stroke="transparent" points="876.5,-181.6318 876.5,-198.6318 974.5,-198.6318 974.5,-181.6318 876.5,-181.6318"/>
<text text-anchor="start" x="956.9053" y="-186.7318" font-family="Helvetica,sans-Serif" font-size="11.00" fill="#000000">1 &gt;</text>
<polygon fill="#000000" stroke="#000000" points="787.5,-181.6318 787.5,-198.6318 787.5,-198.6318 787.5,-181.6318 787.5,-181.6318"/>
<polygon fill="#000000" stroke="#000000" points="876.5,-181.6318 876.5,-198.6318 876.5,-198.6318 876.5,-181.6318 876.5,-181.6318"/>
<polygon fill="none" stroke="#000000" stroke-width="2" points="687,-179.6318 687,-1037.6318 976,-1037.6318 976,-179.6318 687,-179.6318"/>
</a>
</g>
</g>
<!-- act_cmmn_ru_plan_item_inst&#45;&gt;act_cmmn_casedef -->
<g id="edge5" class="edge">
<title>act_cmmn_ru_plan_item_inst:w&#45;&gt;act_cmmn_casedef:e</title>
<path fill="none" stroke="#000000" d="M674.0093,-957.2196C502.9516,-924.0009 359.7392,-314.4793 326.3483,-161.3226"/>
<polygon fill="#000000" stroke="#000000" points="680.5377,-957.8558 688.1508,-962.2148 684.5189,-958.2438 688.5,-958.6318 688.5,-958.6318 688.5,-958.6318 684.5189,-958.2438 688.8492,-955.0488 680.5377,-957.8558 680.5377,-957.8558"/>
<ellipse fill="none" stroke="#000000" cx="677.3528" cy="-957.5453" rx="3.2" ry="3.2"/>
</g>
<!-- act_cmmn_ru_plan_item_inst&#45;&gt;act_cmmn_ru_case_inst -->
<g id="edge6" class="edge">
<title>act_cmmn_ru_plan_item_inst:w&#45;&gt;act_cmmn_ru_case_inst:e</title>
<path fill="none" stroke="#000000" d="M677.4301,-927.2447C648.5649,-873.7623 651.5514,-608.636 645,-572.6318 618.7493,-428.3669 572.4209,-259.7419 552.0681,-188.3605"/>
<polygon fill="#000000" stroke="#000000" points="682.3984,-931.4578 686.1717,-939.3775 685.4492,-934.0448 688.5,-936.6318 688.5,-936.6318 688.5,-936.6318 685.4492,-934.0448 690.8283,-933.8861 682.3984,-931.4578 682.3984,-931.4578"/>
<ellipse fill="none" stroke="#000000" cx="679.9578" cy="-929.3881" rx="3.2" ry="3.2"/>
</g>
<!-- act_cmmn_ru_sentry_part_inst -->
<g id="node6" class="node">
<title>act_cmmn_ru_sentry_part_inst</title>
<g id="a_node6"><a xlink:href="../../tables/act_cmmn_ru_sentry_part_inst.html" xlink:title="act_cmmn_ru_sentry_part_inst" target="_top">
<polygon fill="#ffffff" stroke="transparent" points="1026,-124.1318 1026,-185.1318 1257,-185.1318 1257,-124.1318 1026,-124.1318"/>
<polygon fill="#f5f5f5" stroke="transparent" points="1026.5,-161.6318 1026.5,-184.6318 1257.5,-184.6318 1257.5,-161.6318 1026.5,-161.6318"/>
<polygon fill="none" stroke="#000000" points="1026.5,-161.6318 1026.5,-184.6318 1257.5,-184.6318 1257.5,-161.6318 1026.5,-161.6318"/>
<text text-anchor="start" x="1031.5" y="-170.2318" font-family="Helvetica,sans-Serif" font-weight="bold" font-size="11.00" fill="#000000">act_cmmn_ru_sentry_part_inst</text>
<text text-anchor="start" x="1223.0219" y="-169.7318" font-family="Helvetica,sans-Serif" font-size="11.00" fill="#000000">[table]</text>
<polygon fill="none" stroke="#000000" points="1026.5,-142.6318 1026.5,-161.6318 1257.5,-161.6318 1257.5,-142.6318 1026.5,-142.6318"/>
<text text-anchor="start" x="1029.5" y="-148.7318" font-family="Helvetica,sans-Serif" font-size="11.00" fill="#000000">...</text>
<polygon fill="#ffffff" stroke="transparent" points="1026.5,-123.6318 1026.5,-142.6318 1257.5,-142.6318 1257.5,-123.6318 1026.5,-123.6318"/>
<polygon fill="none" stroke="#000000" points="1026.5,-123.6318 1026.5,-142.6318 1257.5,-142.6318 1257.5,-123.6318 1026.5,-123.6318"/>
<polygon fill="#ffffff" stroke="transparent" points="1027.5,-124.6318 1027.5,-141.6318 1110.5,-141.6318 1110.5,-124.6318 1027.5,-124.6318"/>
<text text-anchor="start" x="1029.5" y="-129.7318" font-family="Helvetica,sans-Serif" font-size="11.00" fill="#000000">&lt; 3</text>
<polygon fill="#ffffff" stroke="transparent" points="1110.5,-124.6318 1110.5,-141.6318 1183.5,-141.6318 1183.5,-124.6318 1110.5,-124.6318"/>
<text text-anchor="start" x="1143.9431" y="-129.7318" font-family="Helvetica,sans-Serif" font-size="11.00" fill="#000000"> &#160;</text>
<polygon fill="#ffffff" stroke="transparent" points="1183.5,-124.6318 1183.5,-141.6318 1256.5,-141.6318 1256.5,-124.6318 1183.5,-124.6318"/>
<text text-anchor="start" x="1248.3862" y="-129.7318" font-family="Helvetica,sans-Serif" font-size="11.00" fill="#000000"> &#160;</text>
<polygon fill="#000000" stroke="#000000" points="1110.5,-124.6318 1110.5,-141.6318 1110.5,-141.6318 1110.5,-124.6318 1110.5,-124.6318"/>
<polygon fill="#000000" stroke="#000000" points="1183.5,-124.6318 1183.5,-141.6318 1183.5,-141.6318 1183.5,-124.6318 1183.5,-124.6318"/>
</a>
</g>
</g>
<!-- act_cmmn_ru_sentry_part_inst&#45;&gt;act_cmmn_casedef -->
<g id="edge7" class="edge">
<title>act_cmmn_ru_sentry_part_inst:w&#45;&gt;act_cmmn_casedef:e</title>
<path fill="none" stroke="#000000" d="M1087.9373,-111.5336C1059.2252,-91.1972 1022.1755,-69.1254 985,-58.6318 783.2409,-1.681 535.163,-58.7425 406.2005,-97.4255"/>
<polygon fill="#000000" stroke="#000000" points="1093.2408,-115.3952 1097.5891,-123.0145 1096.4745,-117.7497 1099.7081,-120.1042 1099.7081,-120.1042 1099.7081,-120.1042 1096.4745,-117.7497 1101.8272,-117.1939 1093.2408,-115.3952 1093.2408,-115.3952"/>
<ellipse fill="none" stroke="#000000" cx="1090.6539" cy="-113.5116" rx="3.2" ry="3.2"/>
</g>
<!-- act_cmmn_ru_sentry_part_inst&#45;&gt;act_cmmn_ru_case_inst -->
<g id="edge8" class="edge">
<title>act_cmmn_ru_sentry_part_inst:w&#45;&gt;act_cmmn_ru_case_inst:e</title>
<path fill="none" stroke="#000000" d="M1003.1966,-154.4011C894.0245,-154.219 744.1297,-153.969 645.2436,-153.804"/>
<polygon fill="#000000" stroke="#000000" points="1009.6469,-154.4118 1017.6408,-158.0252 1013.6468,-154.4185 1017.6468,-154.4252 1017.6468,-154.4252 1017.6468,-154.4252 1013.6468,-154.4185 1017.6529,-150.8252 1009.6469,-154.4118 1009.6469,-154.4118"/>
<ellipse fill="none" stroke="#000000" cx="1006.4469" cy="-154.4065" rx="3.2" ry="3.2"/>
</g>
<!-- act_cmmn_ru_sentry_part_inst&#45;&gt;act_cmmn_ru_plan_item_inst -->
<g id="edge9" class="edge">
<title>act_cmmn_ru_sentry_part_inst:w&#45;&gt;act_cmmn_ru_plan_item_inst:e</title>
<path fill="none" stroke="#000000" d="M1137.1594,-203.6007C1120.504,-384.2156 1057.4901,-1002.6318 975.5,-1002.6318"/>
<polygon fill="#000000" stroke="#000000" points="1137.7477,-197.1564 1142.0603,-189.5169 1138.1115,-193.173 1138.4752,-189.1896 1138.4752,-189.1896 1138.4752,-189.1896 1138.1115,-193.173 1134.8901,-188.8622 1137.7477,-197.1564 1137.7477,-197.1564"/>
<ellipse fill="none" stroke="#000000" cx="1137.4567" cy="-200.3432" rx="3.2" ry="3.2"/>
</g>
</g>
</svg>
