<?xml version="1.0" encoding="UTF-8" standalone="no"?>
<!DOCTYPE svg PUBLIC "-//W3C//DTD SVG 1.1//EN"
 "http://www.w3.org/Graphics/SVG/1.1/DTD/svg11.dtd">
<!-- Generated by graphviz version 2.40.1 (20161225.0304)
 -->
<!-- Title: oneDegreeRelationshipsDiagram Pages: 1 -->
<svg width="419pt" height="294pt"
 viewBox="0.00 0.00 419.00 294.20" xmlns="http://www.w3.org/2000/svg" xmlns:xlink="http://www.w3.org/1999/xlink">
<g id="graph0" class="graph" transform="scale(1 1) rotate(0) translate(4 290.2)">
<title>oneDegreeRelationshipsDiagram</title>
<polygon fill="#ffffff" stroke="transparent" points="-4,4 -4,-290.2 415,-290.2 415,4 -4,4"/>
<text text-anchor="middle" x="72.4936" y="-7.3" font-family="Helvetica,sans-Serif" font-size="11.00" fill="#000000">Generated by SchemaSpy</text>
<!-- act_id_membership -->
<g id="node1" class="node">
<title>act_id_membership</title>
<g id="a_node1"><a xlink:href="../../tables/act_id_membership.html" xlink:title="act_id_membership" target="_top">
<polygon fill="#ffffff" stroke="transparent" points="242,-194.2 242,-280.2 403,-280.2 403,-194.2 242,-194.2"/>
<polygon fill="#f5f5f5" stroke="transparent" points="242.5,-257.2 242.5,-280.2 403.5,-280.2 403.5,-257.2 242.5,-257.2"/>
<polygon fill="none" stroke="#000000" points="242.5,-257.2 242.5,-280.2 403.5,-280.2 403.5,-257.2 242.5,-257.2"/>
<text text-anchor="start" x="247.5" y="-265.8" font-family="Helvetica,sans-Serif" font-weight="bold" font-size="11.00" fill="#000000">act_id_membership</text>
<text text-anchor="start" x="369.0219" y="-265.3" font-family="Helvetica,sans-Serif" font-size="11.00" fill="#000000">[table]</text>
<polygon fill="none" stroke="#000000" points="242.5,-235.2 242.5,-257.2 403.5,-257.2 403.5,-235.2 242.5,-235.2"/>
<image xlink:href="../../images/primaryKeys.png" width="11px" height="12px" preserveAspectRatio="xMinYMin meet" x="247.5" y="-252.2"/>
<text text-anchor="start" x="271.5" y="-242.3" font-family="Helvetica,sans-Serif" font-size="11.00" fill="#000000">user_id_</text>
<polygon fill="none" stroke="#000000" points="242.5,-213.2 242.5,-235.2 403.5,-235.2 403.5,-213.2 242.5,-213.2"/>
<image xlink:href="../../images/primaryKeys.png" width="11px" height="12px" preserveAspectRatio="xMinYMin meet" x="247.5" y="-230.2"/>
<text text-anchor="start" x="271.5" y="-220.3" font-family="Helvetica,sans-Serif" font-size="11.00" fill="#000000">group_id_</text>
<polygon fill="#ffffff" stroke="transparent" points="242.5,-194.2 242.5,-213.2 403.5,-213.2 403.5,-194.2 242.5,-194.2"/>
<polygon fill="none" stroke="#000000" points="242.5,-194.2 242.5,-213.2 403.5,-213.2 403.5,-194.2 242.5,-194.2"/>
<polygon fill="#ffffff" stroke="transparent" points="243.5,-195.2 243.5,-212.2 302.5,-212.2 302.5,-195.2 243.5,-195.2"/>
<text text-anchor="start" x="245.5" y="-200.3" font-family="Helvetica,sans-Serif" font-size="11.00" fill="#000000">&lt; 2</text>
<polygon fill="#ffffff" stroke="transparent" points="302.5,-195.2 302.5,-212.2 352.5,-212.2 352.5,-195.2 302.5,-195.2"/>
<text text-anchor="start" x="324.4431" y="-200.3" font-family="Helvetica,sans-Serif" font-size="11.00" fill="#000000"> &#160;</text>
<polygon fill="#ffffff" stroke="transparent" points="352.5,-195.2 352.5,-212.2 402.5,-212.2 402.5,-195.2 352.5,-195.2"/>
<text text-anchor="start" x="394.3862" y="-200.3" font-family="Helvetica,sans-Serif" font-size="11.00" fill="#000000"> &#160;</text>
<polygon fill="#000000" stroke="#000000" points="302.5,-195.2 302.5,-212.2 302.5,-212.2 302.5,-195.2 302.5,-195.2"/>
<polygon fill="#000000" stroke="#000000" points="352.5,-195.2 352.5,-212.2 352.5,-212.2 352.5,-195.2 352.5,-195.2"/>
</a>
</g>
</g>
<!-- act_id_user -->
<g id="node2" class="node">
<title>act_id_user</title>
<g id="a_node2"><a xlink:href="../../tables/act_id_user.html" xlink:title="act_id_user" target="_top">
<polygon fill="#ffffff" stroke="transparent" points="8,-38.2 8,-282.2 193,-282.2 193,-38.2 8,-38.2"/>
<polygon fill="#f5f5f5" stroke="transparent" points="10.5,-257.2 10.5,-280.2 191.5,-280.2 191.5,-257.2 10.5,-257.2"/>
<polygon fill="none" stroke="#000000" points="10.5,-257.2 10.5,-280.2 191.5,-280.2 191.5,-257.2 10.5,-257.2"/>
<text text-anchor="start" x="15.5" y="-265.8" font-family="Helvetica,sans-Serif" font-weight="bold" font-size="11.00" fill="#000000">act_id_user</text>
<text text-anchor="start" x="156.5437" y="-265.3" font-family="Helvetica,sans-Serif" font-size="11.00" fill="#000000">[table]</text>
<polygon fill="none" stroke="#000000" points="10.5,-235.2 10.5,-257.2 124.5,-257.2 124.5,-235.2 10.5,-235.2"/>
<image xlink:href="../../images/primaryKeys.png" width="11px" height="12px" preserveAspectRatio="xMinYMin meet" x="15.5" y="-252.2"/>
<text text-anchor="start" x="30.5" y="-242.3" font-family="Helvetica,sans-Serif" font-size="11.00" fill="#000000">id_</text>
<polygon fill="none" stroke="#000000" points="124.5,-235.2 124.5,-257.2 191.5,-257.2 191.5,-235.2 124.5,-235.2"/>
<text text-anchor="start" x="127.5" y="-242.9" font-family="Helvetica,sans-Serif" font-size="11.00" fill="#000000">varchar[64]</text>
<polygon fill="none" stroke="#000000" points="10.5,-213.2 10.5,-235.2 124.5,-235.2 124.5,-213.2 10.5,-213.2"/>
<text text-anchor="start" x="30.5" y="-220.3" font-family="Helvetica,sans-Serif" font-size="11.00" fill="#000000">rev_</text>
<polygon fill="none" stroke="#000000" points="124.5,-213.2 124.5,-235.2 191.5,-235.2 191.5,-213.2 124.5,-213.2"/>
<text text-anchor="start" x="127.5" y="-220.9" font-family="Helvetica,sans-Serif" font-size="11.00" fill="#000000">int4[10]</text>
<polygon fill="none" stroke="#000000" points="10.5,-191.2 10.5,-213.2 124.5,-213.2 124.5,-191.2 10.5,-191.2"/>
<text text-anchor="start" x="30.5" y="-198.3" font-family="Helvetica,sans-Serif" font-size="11.00" fill="#000000">first_</text>
<polygon fill="none" stroke="#000000" points="124.5,-191.2 124.5,-213.2 191.5,-213.2 191.5,-191.2 124.5,-191.2"/>
<text text-anchor="start" x="127.4365" y="-198.9" font-family="Helvetica,sans-Serif" font-size="11.00" fill="#000000">varchar[255]</text>
<polygon fill="none" stroke="#000000" points="10.5,-169.2 10.5,-191.2 124.5,-191.2 124.5,-169.2 10.5,-169.2"/>
<text text-anchor="start" x="30.5" y="-176.3" font-family="Helvetica,sans-Serif" font-size="11.00" fill="#000000">last_</text>
<polygon fill="none" stroke="#000000" points="124.5,-169.2 124.5,-191.2 191.5,-191.2 191.5,-169.2 124.5,-169.2"/>
<text text-anchor="start" x="127.4365" y="-176.9" font-family="Helvetica,sans-Serif" font-size="11.00" fill="#000000">varchar[255]</text>
<polygon fill="none" stroke="#000000" points="10.5,-147.2 10.5,-169.2 124.5,-169.2 124.5,-147.2 10.5,-147.2"/>
<text text-anchor="start" x="30.5" y="-154.3" font-family="Helvetica,sans-Serif" font-size="11.00" fill="#000000">display_name_</text>
<polygon fill="none" stroke="#000000" points="124.5,-147.2 124.5,-169.2 191.5,-169.2 191.5,-147.2 124.5,-147.2"/>
<text text-anchor="start" x="127.4365" y="-154.9" font-family="Helvetica,sans-Serif" font-size="11.00" fill="#000000">varchar[255]</text>
<polygon fill="none" stroke="#000000" points="10.5,-125.2 10.5,-147.2 124.5,-147.2 124.5,-125.2 10.5,-125.2"/>
<text text-anchor="start" x="30.5" y="-132.3" font-family="Helvetica,sans-Serif" font-size="11.00" fill="#000000">email_</text>
<polygon fill="none" stroke="#000000" points="124.5,-125.2 124.5,-147.2 191.5,-147.2 191.5,-125.2 124.5,-125.2"/>
<text text-anchor="start" x="127.4365" y="-132.9" font-family="Helvetica,sans-Serif" font-size="11.00" fill="#000000">varchar[255]</text>
<polygon fill="none" stroke="#000000" points="10.5,-103.2 10.5,-125.2 124.5,-125.2 124.5,-103.2 10.5,-103.2"/>
<text text-anchor="start" x="30.5" y="-110.3" font-family="Helvetica,sans-Serif" font-size="11.00" fill="#000000">pwd_</text>
<polygon fill="none" stroke="#000000" points="124.5,-103.2 124.5,-125.2 191.5,-125.2 191.5,-103.2 124.5,-103.2"/>
<text text-anchor="start" x="127.4365" y="-110.9" font-family="Helvetica,sans-Serif" font-size="11.00" fill="#000000">varchar[255]</text>
<polygon fill="none" stroke="#000000" points="10.5,-81.2 10.5,-103.2 124.5,-103.2 124.5,-81.2 10.5,-81.2"/>
<text text-anchor="start" x="30.5" y="-88.3" font-family="Helvetica,sans-Serif" font-size="11.00" fill="#000000">picture_id_</text>
<polygon fill="none" stroke="#000000" points="124.5,-81.2 124.5,-103.2 191.5,-103.2 191.5,-81.2 124.5,-81.2"/>
<text text-anchor="start" x="127.5" y="-88.9" font-family="Helvetica,sans-Serif" font-size="11.00" fill="#000000">varchar[64]</text>
<polygon fill="none" stroke="#000000" points="10.5,-59.2 10.5,-81.2 124.5,-81.2 124.5,-59.2 10.5,-59.2"/>
<text text-anchor="start" x="30.5" y="-66.3" font-family="Helvetica,sans-Serif" font-size="11.00" fill="#000000">tenant_id_</text>
<polygon fill="none" stroke="#000000" points="124.5,-59.2 124.5,-81.2 191.5,-81.2 191.5,-59.2 124.5,-59.2"/>
<text text-anchor="start" x="127.4365" y="-66.9" font-family="Helvetica,sans-Serif" font-size="11.00" fill="#000000">varchar[255]</text>
<polygon fill="#ffffff" stroke="transparent" points="10.5,-40.2 10.5,-59.2 191.5,-59.2 191.5,-40.2 10.5,-40.2"/>
<polygon fill="none" stroke="#000000" points="10.5,-40.2 10.5,-59.2 191.5,-59.2 191.5,-40.2 10.5,-40.2"/>
<polygon fill="#ffffff" stroke="transparent" points="11.5,-41.2 11.5,-58.2 74.5,-58.2 74.5,-41.2 11.5,-41.2"/>
<text text-anchor="start" x="13.5" y="-46.3" font-family="Helvetica,sans-Serif" font-size="11.00" fill="#000000">&lt; 0</text>
<polygon fill="#ffffff" stroke="transparent" points="74.5,-41.2 74.5,-58.2 128.5,-58.2 128.5,-41.2 74.5,-41.2"/>
<text text-anchor="start" x="98.4431" y="-46.3" font-family="Helvetica,sans-Serif" font-size="11.00" fill="#000000"> &#160;</text>
<polygon fill="#ffffff" stroke="transparent" points="128.5,-41.2 128.5,-58.2 190.5,-58.2 190.5,-41.2 128.5,-41.2"/>
<text text-anchor="start" x="172.9053" y="-46.3" font-family="Helvetica,sans-Serif" font-size="11.00" fill="#000000">1 &gt;</text>
<polygon fill="#000000" stroke="#000000" points="74.5,-41.2 74.5,-58.2 74.5,-58.2 74.5,-41.2 74.5,-41.2"/>
<polygon fill="#000000" stroke="#000000" points="128.5,-41.2 128.5,-58.2 128.5,-58.2 128.5,-41.2 128.5,-41.2"/>
<polygon fill="none" stroke="#000000" stroke-width="2" points="9,-39.2 9,-281.2 192,-281.2 192,-39.2 9,-39.2"/>
</a>
</g>
</g>
<!-- act_id_membership&#45;&gt;act_id_user -->
<g id="edge1" class="edge">
<title>act_id_membership:w&#45;&gt;act_id_user:e</title>
<path fill="none" stroke="#000000" d="M227.776,-246.2C215.7815,-246.2 208.3229,-246.2 191.5,-246.2"/>
<polygon fill="#000000" stroke="#000000" points="234.5,-246.2001 242.5,-249.8 238.5,-246.2 242.5,-246.2 242.5,-246.2 242.5,-246.2 238.5,-246.2 242.5,-242.6 234.5,-246.2001 234.5,-246.2001"/>
<ellipse fill="none" stroke="#000000" cx="231.3" cy="-246.2001" rx="3.2" ry="3.2"/>
</g>
</g>
</svg>
