<?xml version="1.0" encoding="UTF-8" standalone="no"?>
<!DOCTYPE svg PUBLIC "-//W3C//DTD SVG 1.1//EN"
 "http://www.w3.org/Graphics/SVG/1.1/DTD/svg11.dtd">
<!-- Generated by graphviz version 2.40.1 (20161225.0304)
 -->
<!-- Title: oneDegreeRelationshipsDiagram Pages: 1 -->
<svg width="402pt" height="184pt"
 viewBox="0.00 0.00 402.00 184.20" xmlns="http://www.w3.org/2000/svg" xmlns:xlink="http://www.w3.org/1999/xlink">
<g id="graph0" class="graph" transform="scale(1 1) rotate(0) translate(4 180.2)">
<title>oneDegreeRelationshipsDiagram</title>
<polygon fill="#ffffff" stroke="transparent" points="-4,4 -4,-180.2 398,-180.2 398,4 -4,4"/>
<text text-anchor="middle" x="72.4936" y="-7.3" font-family="Helvetica,sans-Serif" font-size="11.00" fill="#000000">Generated by SchemaSpy</text>
<!-- act_id_priv_mapping -->
<g id="node1" class="node">
<title>act_id_priv_mapping</title>
<g id="a_node1"><a xlink:href="../../tables/act_id_priv_mapping.html" xlink:title="act_id_priv_mapping" target="_top">
<polygon fill="#ffffff" stroke="transparent" points="164,-38.2 164,-172.2 386,-172.2 386,-38.2 164,-38.2"/>
<polygon fill="#f5f5f5" stroke="transparent" points="166,-147.2 166,-170.2 384,-170.2 384,-147.2 166,-147.2"/>
<polygon fill="none" stroke="#000000" points="166,-147.2 166,-170.2 384,-170.2 384,-147.2 166,-147.2"/>
<text text-anchor="start" x="171" y="-155.8" font-family="Helvetica,sans-Serif" font-weight="bold" font-size="11.00" fill="#000000">act_id_priv_mapping</text>
<text text-anchor="start" x="349.0437" y="-155.3" font-family="Helvetica,sans-Serif" font-size="11.00" fill="#000000">[table]</text>
<polygon fill="none" stroke="#000000" points="166,-125.2 166,-147.2 317,-147.2 317,-125.2 166,-125.2"/>
<image xlink:href="../../images/primaryKeys.png" width="11px" height="12px" preserveAspectRatio="xMinYMin meet" x="171" y="-142.2"/>
<text text-anchor="start" x="186" y="-132.3" font-family="Helvetica,sans-Serif" font-size="11.00" fill="#000000">id_</text>
<polygon fill="none" stroke="#000000" points="317,-125.2 317,-147.2 384,-147.2 384,-125.2 317,-125.2"/>
<text text-anchor="start" x="320" y="-132.9" font-family="Helvetica,sans-Serif" font-size="11.00" fill="#000000">varchar[64]</text>
<polygon fill="#ffffff" stroke="transparent" points="166,-103.2 166,-125.2 317,-125.2 317,-103.2 166,-103.2"/>
<polygon fill="none" stroke="#000000" points="166,-103.2 166,-125.2 317,-125.2 317,-103.2 166,-103.2"/>
<image xlink:href="../../images/foreignKeys.png" width="11px" height="12px" preserveAspectRatio="xMinYMin meet" x="171" y="-120.2"/>
<text text-anchor="start" x="186" y="-110.3" font-family="Helvetica,sans-Serif" font-size="11.00" fill="#000000">priv_id_</text>
<polygon fill="none" stroke="#000000" points="317,-103.2 317,-125.2 384,-125.2 384,-103.2 317,-103.2"/>
<text text-anchor="start" x="320" y="-110.9" font-family="Helvetica,sans-Serif" font-size="11.00" fill="#000000">varchar[64]</text>
<polygon fill="#ffffff" stroke="transparent" points="166,-81.2 166,-103.2 317,-103.2 317,-81.2 166,-81.2"/>
<polygon fill="none" stroke="#000000" points="166,-81.2 166,-103.2 317,-103.2 317,-81.2 166,-81.2"/>
<text text-anchor="start" x="186" y="-88.3" font-family="Helvetica,sans-Serif" font-size="11.00" fill="#000000">user_id_</text>
<polygon fill="none" stroke="#000000" points="317,-81.2 317,-103.2 384,-103.2 384,-81.2 317,-81.2"/>
<text text-anchor="start" x="319.9365" y="-88.9" font-family="Helvetica,sans-Serif" font-size="11.00" fill="#000000">varchar[255]</text>
<polygon fill="#ffffff" stroke="transparent" points="166,-59.2 166,-81.2 317,-81.2 317,-59.2 166,-59.2"/>
<polygon fill="none" stroke="#000000" points="166,-59.2 166,-81.2 317,-81.2 317,-59.2 166,-59.2"/>
<text text-anchor="start" x="186" y="-66.3" font-family="Helvetica,sans-Serif" font-size="11.00" fill="#000000">group_id_</text>
<polygon fill="none" stroke="#000000" points="317,-59.2 317,-81.2 384,-81.2 384,-59.2 317,-59.2"/>
<text text-anchor="start" x="319.9365" y="-66.9" font-family="Helvetica,sans-Serif" font-size="11.00" fill="#000000">varchar[255]</text>
<polygon fill="#ffffff" stroke="transparent" points="166,-40.2 166,-59.2 384,-59.2 384,-40.2 166,-40.2"/>
<polygon fill="none" stroke="#000000" points="166,-40.2 166,-59.2 384,-59.2 384,-40.2 166,-40.2"/>
<polygon fill="#ffffff" stroke="transparent" points="167,-41.2 167,-58.2 242,-58.2 242,-41.2 167,-41.2"/>
<text text-anchor="start" x="169" y="-46.3" font-family="Helvetica,sans-Serif" font-size="11.00" fill="#000000">&lt; 1</text>
<polygon fill="#ffffff" stroke="transparent" points="242,-41.2 242,-58.2 308,-58.2 308,-41.2 242,-41.2"/>
<text text-anchor="start" x="271.9431" y="-46.3" font-family="Helvetica,sans-Serif" font-size="11.00" fill="#000000"> &#160;</text>
<polygon fill="#ffffff" stroke="transparent" points="308,-41.2 308,-58.2 383,-58.2 383,-41.2 308,-41.2"/>
<text text-anchor="start" x="365.4053" y="-46.3" font-family="Helvetica,sans-Serif" font-size="11.00" fill="#000000">0 &gt;</text>
<polygon fill="#000000" stroke="#000000" points="242,-41.2 242,-58.2 242,-58.2 242,-41.2 242,-41.2"/>
<polygon fill="#000000" stroke="#000000" points="308,-41.2 308,-58.2 308,-58.2 308,-41.2 308,-41.2"/>
<polygon fill="none" stroke="#000000" stroke-width="2" points="165,-39.2 165,-171.2 385,-171.2 385,-39.2 165,-39.2"/>
</a>
</g>
</g>
<!-- act_id_priv -->
<g id="node2" class="node">
<title>act_id_priv</title>
<g id="a_node2"><a xlink:href="../../tables/act_id_priv.html" xlink:title="act_id_priv" target="_top">
<polygon fill="#ffffff" stroke="transparent" points="8,-62.2 8,-148.2 115,-148.2 115,-62.2 8,-62.2"/>
<polygon fill="#f5f5f5" stroke="transparent" points="8.5,-125.2 8.5,-148.2 115.5,-148.2 115.5,-125.2 8.5,-125.2"/>
<polygon fill="none" stroke="#000000" points="8.5,-125.2 8.5,-148.2 115.5,-148.2 115.5,-125.2 8.5,-125.2"/>
<text text-anchor="start" x="13.5" y="-133.8" font-family="Helvetica,sans-Serif" font-weight="bold" font-size="11.00" fill="#000000">act_id_priv</text>
<text text-anchor="start" x="81.0219" y="-133.3" font-family="Helvetica,sans-Serif" font-size="11.00" fill="#000000">[table]</text>
<polygon fill="none" stroke="#000000" points="8.5,-103.2 8.5,-125.2 115.5,-125.2 115.5,-103.2 8.5,-103.2"/>
<image xlink:href="../../images/primaryKeys.png" width="11px" height="12px" preserveAspectRatio="xMinYMin meet" x="13.5" y="-120.2"/>
<text text-anchor="start" x="37.5" y="-110.3" font-family="Helvetica,sans-Serif" font-size="11.00" fill="#000000">id_</text>
<polygon fill="#ffffff" stroke="transparent" points="8.5,-81.2 8.5,-103.2 115.5,-103.2 115.5,-81.2 8.5,-81.2"/>
<polygon fill="none" stroke="#000000" points="8.5,-81.2 8.5,-103.2 115.5,-103.2 115.5,-81.2 8.5,-81.2"/>
<text text-anchor="start" x="37.5" y="-88.3" font-family="Helvetica,sans-Serif" font-size="11.00" fill="#000000">name_</text>
<polygon fill="#ffffff" stroke="transparent" points="8.5,-62.2 8.5,-81.2 115.5,-81.2 115.5,-62.2 8.5,-62.2"/>
<polygon fill="none" stroke="#000000" points="8.5,-62.2 8.5,-81.2 115.5,-81.2 115.5,-62.2 8.5,-62.2"/>
<polygon fill="#ffffff" stroke="transparent" points="9.5,-63.2 9.5,-80.2 41.5,-80.2 41.5,-63.2 9.5,-63.2"/>
<text text-anchor="start" x="11.5" y="-68.3" font-family="Helvetica,sans-Serif" font-size="11.00" fill="#000000"> &#160;</text>
<polygon fill="#ffffff" stroke="transparent" points="41.5,-63.2 41.5,-80.2 73.5,-80.2 73.5,-63.2 41.5,-63.2"/>
<text text-anchor="start" x="54.4431" y="-68.3" font-family="Helvetica,sans-Serif" font-size="11.00" fill="#000000"> &#160;</text>
<polygon fill="#ffffff" stroke="transparent" points="73.5,-63.2 73.5,-80.2 114.5,-80.2 114.5,-63.2 73.5,-63.2"/>
<text text-anchor="start" x="96.9053" y="-68.3" font-family="Helvetica,sans-Serif" font-size="11.00" fill="#000000">1 &gt;</text>
<polygon fill="#000000" stroke="#000000" points="41.5,-63.2 41.5,-80.2 41.5,-80.2 41.5,-63.2 41.5,-63.2"/>
<polygon fill="#000000" stroke="#000000" points="73.5,-63.2 73.5,-80.2 73.5,-80.2 73.5,-63.2 73.5,-63.2"/>
</a>
</g>
</g>
<!-- act_id_priv_mapping&#45;&gt;act_id_priv -->
<g id="edge1" class="edge">
<title>act_id_priv_mapping:w&#45;&gt;act_id_priv:e</title>
<path fill="none" stroke="#000000" d="M151.4203,-114.2C139.5435,-114.2 132.158,-114.2 115.5,-114.2"/>
<polygon fill="#000000" stroke="#000000" points="158,-114.2001 166,-117.8 162,-114.2 166,-114.2 166,-114.2 166,-114.2 162,-114.2 166,-110.6 158,-114.2001 158,-114.2001"/>
<ellipse fill="none" stroke="#000000" cx="154.8" cy="-114.2001" rx="3.2" ry="3.2"/>
</g>
</g>
</svg>
