<?xml version="1.0" encoding="UTF-8" standalone="no"?>
<!DOCTYPE svg PUBLIC "-//W3C//DTD SVG 1.1//EN"
 "http://www.w3.org/Graphics/SVG/1.1/DTD/svg11.dtd">
<!-- Generated by graphviz version 2.40.1 (20161225.0304)
 -->
<!-- Title: oneDegreeRelationshipsDiagram Pages: 1 -->
<svg width="1057pt" height="349pt"
 viewBox="0.00 0.00 1057.00 348.70" xmlns="http://www.w3.org/2000/svg" xmlns:xlink="http://www.w3.org/1999/xlink">
<g id="graph0" class="graph" transform="scale(1 1) rotate(0) translate(4 344.7)">
<title>oneDegreeRelationshipsDiagram</title>
<polygon fill="#ffffff" stroke="transparent" points="-4,4 -4,-344.7 1053,-344.7 1053,4 -4,4"/>
<text text-anchor="middle" x="72.4936" y="-7.3" font-family="Helvetica,sans-Serif" font-size="11.00" fill="#000000">Generated by SchemaSpy</text>
<!-- act_cmmn_ru_case_inst -->
<g id="node1" class="node">
<title>act_cmmn_ru_case_inst</title>
<g id="a_node1"><a xlink:href="../../tables/act_cmmn_ru_case_inst.html" xlink:title="act_cmmn_ru_case_inst" target="_top">
<polygon fill="#ffffff" stroke="transparent" points="231,-104.2 231,-253.2 421,-253.2 421,-104.2 231,-104.2"/>
<polygon fill="#f5f5f5" stroke="transparent" points="231,-229.7 231,-252.7 421,-252.7 421,-229.7 231,-229.7"/>
<polygon fill="none" stroke="#000000" points="231,-229.7 231,-252.7 421,-252.7 421,-229.7 231,-229.7"/>
<text text-anchor="start" x="236" y="-238.3" font-family="Helvetica,sans-Serif" font-weight="bold" font-size="11.00" fill="#000000">act_cmmn_ru_case_inst</text>
<text text-anchor="start" x="386.5219" y="-237.8" font-family="Helvetica,sans-Serif" font-size="11.00" fill="#000000">[table]</text>
<polygon fill="none" stroke="#000000" points="231,-207.7 231,-229.7 421,-229.7 421,-207.7 231,-207.7"/>
<image xlink:href="../../images/primaryKeys.png" width="11px" height="12px" preserveAspectRatio="xMinYMin meet" x="236" y="-224.7"/>
<text text-anchor="start" x="254" y="-214.8" font-family="Helvetica,sans-Serif" font-size="11.00" fill="#000000">id_</text>
<polygon fill="#ffffff" stroke="transparent" points="231,-185.7 231,-207.7 421,-207.7 421,-185.7 231,-185.7"/>
<polygon fill="none" stroke="#000000" points="231,-185.7 231,-207.7 421,-207.7 421,-185.7 231,-185.7"/>
<text text-anchor="start" x="254" y="-192.8" font-family="Helvetica,sans-Serif" font-size="11.00" fill="#000000">parent_id_</text>
<polygon fill="#ffffff" stroke="transparent" points="231,-163.7 231,-185.7 421,-185.7 421,-163.7 231,-163.7"/>
<polygon fill="none" stroke="#000000" points="231,-163.7 231,-185.7 421,-185.7 421,-163.7 231,-163.7"/>
<image xlink:href="../../images/foreignKeys.png" width="11px" height="12px" preserveAspectRatio="xMinYMin meet" x="236" y="-180.7"/>
<text text-anchor="start" x="254" y="-170.8" font-family="Helvetica,sans-Serif" font-size="11.00" fill="#000000">case_def_id_</text>
<polygon fill="#ffffff" stroke="transparent" points="231,-141.7 231,-163.7 421,-163.7 421,-141.7 231,-141.7"/>
<polygon fill="none" stroke="#000000" points="231,-141.7 231,-163.7 421,-163.7 421,-141.7 231,-141.7"/>
<text text-anchor="start" x="254" y="-148.8" font-family="Helvetica,sans-Serif" font-size="11.00" fill="#000000">reference_id_</text>
<polygon fill="none" stroke="#000000" points="231,-122.7 231,-141.7 421,-141.7 421,-122.7 231,-122.7"/>
<text text-anchor="start" x="234" y="-128.8" font-family="Helvetica,sans-Serif" font-size="11.00" fill="#000000">...</text>
<polygon fill="#ffffff" stroke="transparent" points="231,-103.7 231,-122.7 421,-122.7 421,-103.7 231,-103.7"/>
<polygon fill="none" stroke="#000000" points="231,-103.7 231,-122.7 421,-122.7 421,-103.7 231,-103.7"/>
<polygon fill="#ffffff" stroke="transparent" points="232,-104.7 232,-121.7 298,-121.7 298,-104.7 232,-104.7"/>
<text text-anchor="start" x="234" y="-109.8" font-family="Helvetica,sans-Serif" font-size="11.00" fill="#000000">&lt; 1</text>
<polygon fill="#ffffff" stroke="transparent" points="298,-104.7 298,-121.7 355,-121.7 355,-104.7 298,-104.7"/>
<text text-anchor="start" x="323.4431" y="-109.8" font-family="Helvetica,sans-Serif" font-size="11.00" fill="#000000"> &#160;</text>
<polygon fill="#ffffff" stroke="transparent" points="355,-104.7 355,-121.7 420,-121.7 420,-104.7 355,-104.7"/>
<text text-anchor="start" x="402.4053" y="-109.8" font-family="Helvetica,sans-Serif" font-size="11.00" fill="#000000">3 &gt;</text>
<polygon fill="#000000" stroke="#000000" points="298,-104.7 298,-121.7 298,-121.7 298,-104.7 298,-104.7"/>
<polygon fill="#000000" stroke="#000000" points="355,-104.7 355,-121.7 355,-121.7 355,-104.7 355,-104.7"/>
</a>
</g>
</g>
<!-- act_cmmn_casedef -->
<g id="node2" class="node">
<title>act_cmmn_casedef</title>
<g id="a_node2"><a xlink:href="../../tables/act_cmmn_casedef.html" xlink:title="act_cmmn_casedef" target="_top">
<polygon fill="#ffffff" stroke="transparent" points="8,-38.2 8,-209.2 182,-209.2 182,-38.2 8,-38.2"/>
<polygon fill="#f5f5f5" stroke="transparent" points="8,-185.7 8,-208.7 182,-208.7 182,-185.7 8,-185.7"/>
<polygon fill="none" stroke="#000000" points="8,-185.7 8,-208.7 182,-208.7 182,-185.7 8,-185.7"/>
<text text-anchor="start" x="13" y="-194.3" font-family="Helvetica,sans-Serif" font-weight="bold" font-size="11.00" fill="#000000">act_cmmn_casedef</text>
<text text-anchor="start" x="147.0437" y="-193.8" font-family="Helvetica,sans-Serif" font-size="11.00" fill="#000000">[table]</text>
<polygon fill="none" stroke="#000000" points="8,-163.7 8,-185.7 182,-185.7 182,-163.7 8,-163.7"/>
<image xlink:href="../../images/primaryKeys.png" width="11px" height="12px" preserveAspectRatio="xMinYMin meet" x="13" y="-180.7"/>
<text text-anchor="start" x="28" y="-170.8" font-family="Helvetica,sans-Serif" font-size="11.00" fill="#000000">id_</text>
<polygon fill="#ffffff" stroke="transparent" points="8,-141.7 8,-163.7 182,-163.7 182,-141.7 8,-141.7"/>
<polygon fill="none" stroke="#000000" points="8,-141.7 8,-163.7 182,-163.7 182,-141.7 8,-141.7"/>
<text text-anchor="start" x="28" y="-148.8" font-family="Helvetica,sans-Serif" font-size="11.00" fill="#000000">key_</text>
<polygon fill="#ffffff" stroke="transparent" points="8,-119.7 8,-141.7 182,-141.7 182,-119.7 8,-119.7"/>
<polygon fill="none" stroke="#000000" points="8,-119.7 8,-141.7 182,-141.7 182,-119.7 8,-119.7"/>
<text text-anchor="start" x="28" y="-126.8" font-family="Helvetica,sans-Serif" font-size="11.00" fill="#000000">version_</text>
<polygon fill="#ffffff" stroke="transparent" points="8,-97.7 8,-119.7 182,-119.7 182,-97.7 8,-97.7"/>
<polygon fill="none" stroke="#000000" points="8,-97.7 8,-119.7 182,-119.7 182,-97.7 8,-97.7"/>
<image xlink:href="../../images/foreignKeys.png" width="11px" height="12px" preserveAspectRatio="xMinYMin meet" x="13" y="-114.7"/>
<text text-anchor="start" x="28" y="-104.8" font-family="Helvetica,sans-Serif" font-size="11.00" fill="#000000">deployment_id_</text>
<polygon fill="#ffffff" stroke="transparent" points="8,-75.7 8,-97.7 182,-97.7 182,-75.7 8,-75.7"/>
<polygon fill="none" stroke="#000000" points="8,-75.7 8,-97.7 182,-97.7 182,-75.7 8,-75.7"/>
<text text-anchor="start" x="28" y="-82.8" font-family="Helvetica,sans-Serif" font-size="11.00" fill="#000000">tenant_id_</text>
<polygon fill="none" stroke="#000000" points="8,-56.7 8,-75.7 182,-75.7 182,-56.7 8,-56.7"/>
<text text-anchor="start" x="11" y="-62.8" font-family="Helvetica,sans-Serif" font-size="11.00" fill="#000000">...</text>
<polygon fill="#ffffff" stroke="transparent" points="8,-37.7 8,-56.7 182,-56.7 182,-37.7 8,-37.7"/>
<polygon fill="none" stroke="#000000" points="8,-37.7 8,-56.7 182,-56.7 182,-37.7 8,-37.7"/>
<polygon fill="#ffffff" stroke="transparent" points="9,-38.7 9,-55.7 70,-55.7 70,-38.7 9,-38.7"/>
<text text-anchor="start" x="11" y="-43.8" font-family="Helvetica,sans-Serif" font-size="11.00" fill="#000000">&lt; 1</text>
<polygon fill="#ffffff" stroke="transparent" points="70,-38.7 70,-55.7 121,-55.7 121,-38.7 70,-38.7"/>
<text text-anchor="start" x="92.4431" y="-43.8" font-family="Helvetica,sans-Serif" font-size="11.00" fill="#000000"> &#160;</text>
<polygon fill="#ffffff" stroke="transparent" points="121,-38.7 121,-55.7 181,-55.7 181,-38.7 121,-38.7"/>
<text text-anchor="start" x="163.4053" y="-43.8" font-family="Helvetica,sans-Serif" font-size="11.00" fill="#000000">4 &gt;</text>
<polygon fill="#000000" stroke="#000000" points="70,-38.7 70,-55.7 70,-55.7 70,-38.7 70,-38.7"/>
<polygon fill="#000000" stroke="#000000" points="121,-38.7 121,-55.7 121,-55.7 121,-38.7 121,-38.7"/>
</a>
</g>
</g>
<!-- act_cmmn_ru_case_inst&#45;&gt;act_cmmn_casedef -->
<g id="edge1" class="edge">
<title>act_cmmn_ru_case_inst:w&#45;&gt;act_cmmn_casedef:e</title>
<path fill="none" stroke="#000000" d="M216.4909,-174.7C205.1774,-174.7 197.9931,-174.7 182,-174.7"/>
<polygon fill="#000000" stroke="#000000" points="223,-174.7001 231,-178.3 227,-174.7 231,-174.7 231,-174.7 231,-174.7 227,-174.7 231,-171.1 223,-174.7001 223,-174.7001"/>
<ellipse fill="none" stroke="#000000" cx="219.8" cy="-174.7001" rx="3.2" ry="3.2"/>
</g>
<!-- act_cmmn_ru_plan_item_inst -->
<g id="node3" class="node">
<title>act_cmmn_ru_plan_item_inst</title>
<g id="a_node3"><a xlink:href="../../tables/act_cmmn_ru_plan_item_inst.html" xlink:title="act_cmmn_ru_plan_item_inst" target="_top">
<polygon fill="#ffffff" stroke="transparent" points="470,-61.2 470,-210.2 691,-210.2 691,-61.2 470,-61.2"/>
<polygon fill="#f5f5f5" stroke="transparent" points="470.5,-186.7 470.5,-209.7 691.5,-209.7 691.5,-186.7 470.5,-186.7"/>
<polygon fill="none" stroke="#000000" points="470.5,-186.7 470.5,-209.7 691.5,-209.7 691.5,-186.7 470.5,-186.7"/>
<text text-anchor="start" x="475.5" y="-195.3" font-family="Helvetica,sans-Serif" font-weight="bold" font-size="11.00" fill="#000000">act_cmmn_ru_plan_item_inst</text>
<text text-anchor="start" x="657.0219" y="-194.8" font-family="Helvetica,sans-Serif" font-size="11.00" fill="#000000">[table]</text>
<polygon fill="none" stroke="#000000" points="470.5,-164.7 470.5,-186.7 691.5,-186.7 691.5,-164.7 470.5,-164.7"/>
<image xlink:href="../../images/primaryKeys.png" width="11px" height="12px" preserveAspectRatio="xMinYMin meet" x="475.5" y="-181.7"/>
<text text-anchor="start" x="499.5" y="-171.8" font-family="Helvetica,sans-Serif" font-size="11.00" fill="#000000">id_</text>
<polygon fill="#ffffff" stroke="transparent" points="470.5,-142.7 470.5,-164.7 691.5,-164.7 691.5,-142.7 470.5,-142.7"/>
<polygon fill="none" stroke="#000000" points="470.5,-142.7 470.5,-164.7 691.5,-164.7 691.5,-142.7 470.5,-142.7"/>
<image xlink:href="../../images/foreignKeys.png" width="11px" height="12px" preserveAspectRatio="xMinYMin meet" x="475.5" y="-159.7"/>
<text text-anchor="start" x="499.5" y="-149.8" font-family="Helvetica,sans-Serif" font-size="11.00" fill="#000000">case_def_id_</text>
<polygon fill="#ffffff" stroke="transparent" points="470.5,-120.7 470.5,-142.7 691.5,-142.7 691.5,-120.7 470.5,-120.7"/>
<polygon fill="none" stroke="#000000" points="470.5,-120.7 470.5,-142.7 691.5,-142.7 691.5,-120.7 470.5,-120.7"/>
<image xlink:href="../../images/foreignKeys.png" width="11px" height="12px" preserveAspectRatio="xMinYMin meet" x="475.5" y="-137.7"/>
<text text-anchor="start" x="499.5" y="-127.8" font-family="Helvetica,sans-Serif" font-size="11.00" fill="#000000">case_inst_id_</text>
<polygon fill="#ffffff" stroke="transparent" points="470.5,-98.7 470.5,-120.7 691.5,-120.7 691.5,-98.7 470.5,-98.7"/>
<polygon fill="none" stroke="#000000" points="470.5,-98.7 470.5,-120.7 691.5,-120.7 691.5,-98.7 470.5,-98.7"/>
<text text-anchor="start" x="499.5" y="-105.8" font-family="Helvetica,sans-Serif" font-size="11.00" fill="#000000">stage_inst_id_</text>
<polygon fill="none" stroke="#000000" points="470.5,-79.7 470.5,-98.7 691.5,-98.7 691.5,-79.7 470.5,-79.7"/>
<text text-anchor="start" x="473.5" y="-85.8" font-family="Helvetica,sans-Serif" font-size="11.00" fill="#000000">...</text>
<polygon fill="#ffffff" stroke="transparent" points="470.5,-60.7 470.5,-79.7 691.5,-79.7 691.5,-60.7 470.5,-60.7"/>
<polygon fill="none" stroke="#000000" points="470.5,-60.7 470.5,-79.7 691.5,-79.7 691.5,-60.7 470.5,-60.7"/>
<polygon fill="#ffffff" stroke="transparent" points="471.5,-61.7 471.5,-78.7 547.5,-78.7 547.5,-61.7 471.5,-61.7"/>
<text text-anchor="start" x="473.5" y="-66.8" font-family="Helvetica,sans-Serif" font-size="11.00" fill="#000000">&lt; 2</text>
<polygon fill="#ffffff" stroke="transparent" points="547.5,-61.7 547.5,-78.7 614.5,-78.7 614.5,-61.7 547.5,-61.7"/>
<text text-anchor="start" x="577.9431" y="-66.8" font-family="Helvetica,sans-Serif" font-size="11.00" fill="#000000"> &#160;</text>
<polygon fill="#ffffff" stroke="transparent" points="614.5,-61.7 614.5,-78.7 690.5,-78.7 690.5,-61.7 614.5,-61.7"/>
<text text-anchor="start" x="672.9053" y="-66.8" font-family="Helvetica,sans-Serif" font-size="11.00" fill="#000000">1 &gt;</text>
<polygon fill="#000000" stroke="#000000" points="547.5,-61.7 547.5,-78.7 547.5,-78.7 547.5,-61.7 547.5,-61.7"/>
<polygon fill="#000000" stroke="#000000" points="614.5,-61.7 614.5,-78.7 614.5,-78.7 614.5,-61.7 614.5,-61.7"/>
</a>
</g>
</g>
<!-- act_cmmn_ru_plan_item_inst&#45;&gt;act_cmmn_ru_case_inst -->
<g id="edge3" class="edge">
<title>act_cmmn_ru_plan_item_inst:w&#45;&gt;act_cmmn_ru_case_inst:e</title>
<path fill="none" stroke="#000000" d="M456.5324,-136.134C435.2372,-153.8629 459.405,-218.7 421,-218.7"/>
<polygon fill="#000000" stroke="#000000" points="462.875,-134.1206 471.5893,-135.1313 466.6875,-132.9103 470.5,-131.7 470.5,-131.7 470.5,-131.7 466.6875,-132.9103 469.4107,-128.2687 462.875,-134.1206 462.875,-134.1206"/>
<ellipse fill="none" stroke="#000000" cx="459.825" cy="-135.0888" rx="3.2" ry="3.2"/>
</g>
<!-- act_cmmn_ru_plan_item_inst&#45;&gt;act_cmmn_casedef -->
<g id="edge2" class="edge">
<title>act_cmmn_ru_plan_item_inst:w&#45;&gt;act_cmmn_casedef:e</title>
<path fill="none" stroke="#000000" d="M456.7118,-149.114C443.9037,-137.2834 452.1083,-105.8141 429,-93.7 347.9112,-51.1909 301.0001,-45.7584 223,-93.7 188.6249,-114.8282 222.3491,-174.7 182,-174.7"/>
<polygon fill="#000000" stroke="#000000" points="462.9089,-151.1751 469.3638,-157.116 466.7044,-152.4376 470.5,-153.7 470.5,-153.7 470.5,-153.7 466.7044,-152.4376 471.6362,-150.284 462.9089,-151.1751 462.9089,-151.1751"/>
<ellipse fill="none" stroke="#000000" cx="459.8724" cy="-150.1652" rx="3.2" ry="3.2"/>
</g>
<!-- act_cmmn_ru_sentry_part_inst -->
<g id="node4" class="node">
<title>act_cmmn_ru_sentry_part_inst</title>
<g id="a_node4"><a xlink:href="../../tables/act_cmmn_ru_sentry_part_inst.html" xlink:title="act_cmmn_ru_sentry_part_inst" target="_top">
<polygon fill="#ffffff" stroke="transparent" points="740,-114.7 740,-336.7 1041,-336.7 1041,-114.7 740,-114.7"/>
<polygon fill="#f5f5f5" stroke="transparent" points="742.5,-311.7 742.5,-334.7 1039.5,-334.7 1039.5,-311.7 742.5,-311.7"/>
<polygon fill="none" stroke="#000000" points="742.5,-311.7 742.5,-334.7 1039.5,-334.7 1039.5,-311.7 742.5,-311.7"/>
<text text-anchor="start" x="747.5" y="-320.3" font-family="Helvetica,sans-Serif" font-weight="bold" font-size="11.00" fill="#000000">act_cmmn_ru_sentry_part_inst</text>
<text text-anchor="start" x="1004.5437" y="-319.8" font-family="Helvetica,sans-Serif" font-size="11.00" fill="#000000">[table]</text>
<polygon fill="none" stroke="#000000" points="742.5,-289.7 742.5,-311.7 955.5,-311.7 955.5,-289.7 742.5,-289.7"/>
<image xlink:href="../../images/primaryKeys.png" width="11px" height="12px" preserveAspectRatio="xMinYMin meet" x="747.5" y="-306.7"/>
<text text-anchor="start" x="762.5" y="-296.8" font-family="Helvetica,sans-Serif" font-size="11.00" fill="#000000">id_</text>
<polygon fill="none" stroke="#000000" points="955.5,-289.7 955.5,-311.7 1039.5,-311.7 1039.5,-289.7 955.5,-289.7"/>
<text text-anchor="start" x="958.5" y="-297.4" font-family="Helvetica,sans-Serif" font-size="11.00" fill="#000000">varchar[255]</text>
<polygon fill="none" stroke="#000000" points="742.5,-267.7 742.5,-289.7 955.5,-289.7 955.5,-267.7 742.5,-267.7"/>
<text text-anchor="start" x="762.5" y="-274.8" font-family="Helvetica,sans-Serif" font-size="11.00" fill="#000000">rev_</text>
<polygon fill="none" stroke="#000000" points="955.5,-267.7 955.5,-289.7 1039.5,-289.7 1039.5,-267.7 955.5,-267.7"/>
<text text-anchor="start" x="958.5" y="-275.4" font-family="Helvetica,sans-Serif" font-size="11.00" fill="#000000">int4[10]</text>
<polygon fill="#ffffff" stroke="transparent" points="742.5,-245.7 742.5,-267.7 955.5,-267.7 955.5,-245.7 742.5,-245.7"/>
<polygon fill="none" stroke="#000000" points="742.5,-245.7 742.5,-267.7 955.5,-267.7 955.5,-245.7 742.5,-245.7"/>
<image xlink:href="../../images/foreignKeys.png" width="11px" height="12px" preserveAspectRatio="xMinYMin meet" x="747.5" y="-262.7"/>
<text text-anchor="start" x="762.5" y="-252.8" font-family="Helvetica,sans-Serif" font-size="11.00" fill="#000000">case_def_id_</text>
<polygon fill="none" stroke="#000000" points="955.5,-245.7 955.5,-267.7 1039.5,-267.7 1039.5,-245.7 955.5,-245.7"/>
<text text-anchor="start" x="958.5" y="-253.4" font-family="Helvetica,sans-Serif" font-size="11.00" fill="#000000">varchar[255]</text>
<polygon fill="#ffffff" stroke="transparent" points="742.5,-223.7 742.5,-245.7 955.5,-245.7 955.5,-223.7 742.5,-223.7"/>
<polygon fill="none" stroke="#000000" points="742.5,-223.7 742.5,-245.7 955.5,-245.7 955.5,-223.7 742.5,-223.7"/>
<image xlink:href="../../images/foreignKeys.png" width="11px" height="12px" preserveAspectRatio="xMinYMin meet" x="747.5" y="-240.7"/>
<text text-anchor="start" x="762.5" y="-230.8" font-family="Helvetica,sans-Serif" font-size="11.00" fill="#000000">case_inst_id_</text>
<polygon fill="none" stroke="#000000" points="955.5,-223.7 955.5,-245.7 1039.5,-245.7 1039.5,-223.7 955.5,-223.7"/>
<text text-anchor="start" x="958.5" y="-231.4" font-family="Helvetica,sans-Serif" font-size="11.00" fill="#000000">varchar[255]</text>
<polygon fill="#ffffff" stroke="transparent" points="742.5,-201.7 742.5,-223.7 955.5,-223.7 955.5,-201.7 742.5,-201.7"/>
<polygon fill="none" stroke="#000000" points="742.5,-201.7 742.5,-223.7 955.5,-223.7 955.5,-201.7 742.5,-201.7"/>
<image xlink:href="../../images/foreignKeys.png" width="11px" height="12px" preserveAspectRatio="xMinYMin meet" x="747.5" y="-218.7"/>
<text text-anchor="start" x="762.5" y="-208.8" font-family="Helvetica,sans-Serif" font-size="11.00" fill="#000000">plan_item_inst_id_</text>
<polygon fill="none" stroke="#000000" points="955.5,-201.7 955.5,-223.7 1039.5,-223.7 1039.5,-201.7 955.5,-201.7"/>
<text text-anchor="start" x="958.5" y="-209.4" font-family="Helvetica,sans-Serif" font-size="11.00" fill="#000000">varchar[255]</text>
<polygon fill="none" stroke="#000000" points="742.5,-179.7 742.5,-201.7 955.5,-201.7 955.5,-179.7 742.5,-179.7"/>
<text text-anchor="start" x="762.5" y="-186.8" font-family="Helvetica,sans-Serif" font-size="11.00" fill="#000000">on_part_id_</text>
<polygon fill="none" stroke="#000000" points="955.5,-179.7 955.5,-201.7 1039.5,-201.7 1039.5,-179.7 955.5,-179.7"/>
<text text-anchor="start" x="958.5" y="-187.4" font-family="Helvetica,sans-Serif" font-size="11.00" fill="#000000">varchar[255]</text>
<polygon fill="none" stroke="#000000" points="742.5,-157.7 742.5,-179.7 955.5,-179.7 955.5,-157.7 742.5,-157.7"/>
<text text-anchor="start" x="762.5" y="-164.8" font-family="Helvetica,sans-Serif" font-size="11.00" fill="#000000">if_part_id_</text>
<polygon fill="none" stroke="#000000" points="955.5,-157.7 955.5,-179.7 1039.5,-179.7 1039.5,-157.7 955.5,-157.7"/>
<text text-anchor="start" x="958.5" y="-165.4" font-family="Helvetica,sans-Serif" font-size="11.00" fill="#000000">varchar[255]</text>
<polygon fill="none" stroke="#000000" points="742.5,-135.7 742.5,-157.7 955.5,-157.7 955.5,-135.7 742.5,-135.7"/>
<text text-anchor="start" x="762.5" y="-142.8" font-family="Helvetica,sans-Serif" font-size="11.00" fill="#000000">time_stamp_</text>
<polygon fill="none" stroke="#000000" points="955.5,-135.7 955.5,-157.7 1039.5,-157.7 1039.5,-135.7 955.5,-135.7"/>
<text text-anchor="start" x="958.3807" y="-143.4" font-family="Helvetica,sans-Serif" font-size="11.00" fill="#000000">timestamp[29,6]</text>
<polygon fill="#ffffff" stroke="transparent" points="742.5,-116.7 742.5,-135.7 1039.5,-135.7 1039.5,-116.7 742.5,-116.7"/>
<polygon fill="none" stroke="#000000" points="742.5,-116.7 742.5,-135.7 1039.5,-135.7 1039.5,-116.7 742.5,-116.7"/>
<polygon fill="#ffffff" stroke="transparent" points="743.5,-117.7 743.5,-134.7 845.5,-134.7 845.5,-117.7 743.5,-117.7"/>
<text text-anchor="start" x="745.5" y="-122.8" font-family="Helvetica,sans-Serif" font-size="11.00" fill="#000000">&lt; 3</text>
<polygon fill="#ffffff" stroke="transparent" points="845.5,-117.7 845.5,-134.7 937.5,-134.7 937.5,-117.7 845.5,-117.7"/>
<text text-anchor="start" x="888.4431" y="-122.8" font-family="Helvetica,sans-Serif" font-size="11.00" fill="#000000"> &#160;</text>
<polygon fill="#ffffff" stroke="transparent" points="937.5,-117.7 937.5,-134.7 1038.5,-134.7 1038.5,-117.7 937.5,-117.7"/>
<text text-anchor="start" x="1020.9053" y="-122.8" font-family="Helvetica,sans-Serif" font-size="11.00" fill="#000000">0 &gt;</text>
<polygon fill="#000000" stroke="#000000" points="845.5,-117.7 845.5,-134.7 845.5,-134.7 845.5,-117.7 845.5,-117.7"/>
<polygon fill="#000000" stroke="#000000" points="937.5,-117.7 937.5,-134.7 937.5,-134.7 937.5,-117.7 937.5,-117.7"/>
<polygon fill="none" stroke="#000000" stroke-width="2" points="741,-115.7 741,-335.7 1040,-335.7 1040,-115.7 741,-115.7"/>
</a>
</g>
</g>
<!-- act_cmmn_ru_sentry_part_inst&#45;&gt;act_cmmn_ru_case_inst -->
<g id="edge5" class="edge">
<title>act_cmmn_ru_sentry_part_inst:w&#45;&gt;act_cmmn_ru_case_inst:e</title>
<path fill="none" stroke="#000000" d="M727.7161,-233.9919C664.8425,-230.8954 422.9516,-218.7 421,-218.7"/>
<polygon fill="#000000" stroke="#000000" points="734.5092,-234.3172 742.3277,-238.2959 738.5046,-234.5086 742.5,-234.7 742.5,-234.7 742.5,-234.7 738.5046,-234.5086 742.6723,-231.1041 734.5092,-234.3172 734.5092,-234.3172"/>
<ellipse fill="none" stroke="#000000" cx="731.3128" cy="-234.1641" rx="3.2" ry="3.2"/>
</g>
<!-- act_cmmn_ru_sentry_part_inst&#45;&gt;act_cmmn_casedef -->
<g id="edge4" class="edge">
<title>act_cmmn_ru_sentry_part_inst:w&#45;&gt;act_cmmn_casedef:e</title>
<path fill="none" stroke="#000000" d="M727.8042,-256.8783C507.4992,-262.233 413.2814,-385.5438 223,-263.7 186.3238,-240.215 225.551,-174.7 182,-174.7"/>
<polygon fill="#000000" stroke="#000000" points="734.5006,-256.7971 742.5437,-260.2997 738.5003,-256.7485 742.5,-256.7 742.5,-256.7 742.5,-256.7 738.5003,-256.7485 742.4563,-253.1003 734.5006,-256.7971 734.5006,-256.7971"/>
<ellipse fill="none" stroke="#000000" cx="731.3008" cy="-256.8359" rx="3.2" ry="3.2"/>
</g>
<!-- act_cmmn_ru_sentry_part_inst&#45;&gt;act_cmmn_ru_plan_item_inst -->
<g id="edge6" class="edge">
<title>act_cmmn_ru_sentry_part_inst:w&#45;&gt;act_cmmn_ru_plan_item_inst:e</title>
<path fill="none" stroke="#000000" d="M728.5658,-208.4556C715.14,-198.7369 713.5965,-175.7 691.5,-175.7"/>
<polygon fill="#000000" stroke="#000000" points="734.8471,-210.3689 741.451,-216.1438 738.6736,-211.5345 742.5,-212.7 742.5,-212.7 742.5,-212.7 738.6736,-211.5345 743.549,-209.2562 734.8471,-210.3689 734.8471,-210.3689"/>
<ellipse fill="none" stroke="#000000" cx="731.786" cy="-209.4365" rx="3.2" ry="3.2"/>
</g>
</g>
</svg>
