<?xml version="1.0" encoding="UTF-8" standalone="no"?>
<!DOCTYPE svg PUBLIC "-//W3C//DTD SVG 1.1//EN"
 "http://www.w3.org/Graphics/SVG/1.1/DTD/svg11.dtd">
<!-- Generated by graphviz version 2.40.1 (20161225.0304)
 -->
<!-- Title: twoDegreesRelationshipsDiagram Pages: 1 -->
<svg width="870pt" height="1421pt"
 viewBox="0.00 0.00 870.00 1421.03" xmlns="http://www.w3.org/2000/svg" xmlns:xlink="http://www.w3.org/1999/xlink">
<g id="graph0" class="graph" transform="scale(1 1) rotate(0) translate(4 1417.0299)">
<title>twoDegreesRelationshipsDiagram</title>
<polygon fill="#ffffff" stroke="transparent" points="-4,4 -4,-1417.0299 866,-1417.0299 866,4 -4,4"/>
<text text-anchor="middle" x="72.4936" y="-7.3" font-family="Helvetica,sans-Serif" font-size="11.00" fill="#000000">Generated by SchemaSpy</text>
<!-- act_ge_bytearray -->
<g id="node1" class="node">
<title>act_ge_bytearray</title>
<g id="a_node1"><a xlink:href="../../tables/act_ge_bytearray.html" xlink:title="act_ge_bytearray" target="_top">
<polygon fill="#ffffff" stroke="transparent" points="214,-594.0299 214,-699.0299 359,-699.0299 359,-594.0299 214,-594.0299"/>
<polygon fill="#f5f5f5" stroke="transparent" points="214.5,-675.5299 214.5,-698.5299 359.5,-698.5299 359.5,-675.5299 214.5,-675.5299"/>
<polygon fill="none" stroke="#000000" points="214.5,-675.5299 214.5,-698.5299 359.5,-698.5299 359.5,-675.5299 214.5,-675.5299"/>
<text text-anchor="start" x="219.5" y="-684.1299" font-family="Helvetica,sans-Serif" font-weight="bold" font-size="11.00" fill="#000000">act_ge_bytearray</text>
<text text-anchor="start" x="325.0219" y="-683.6299" font-family="Helvetica,sans-Serif" font-size="11.00" fill="#000000">[table]</text>
<polygon fill="none" stroke="#000000" points="214.5,-653.5299 214.5,-675.5299 359.5,-675.5299 359.5,-653.5299 214.5,-653.5299"/>
<image xlink:href="../../images/primaryKeys.png" width="11px" height="12px" preserveAspectRatio="xMinYMin meet" x="219.5" y="-670.53"/>
<text text-anchor="start" x="243.5" y="-660.6299" font-family="Helvetica,sans-Serif" font-size="11.00" fill="#000000">id_</text>
<polygon fill="#ffffff" stroke="transparent" points="214.5,-631.5299 214.5,-653.5299 359.5,-653.5299 359.5,-631.5299 214.5,-631.5299"/>
<polygon fill="none" stroke="#000000" points="214.5,-631.5299 214.5,-653.5299 359.5,-653.5299 359.5,-631.5299 214.5,-631.5299"/>
<image xlink:href="../../images/foreignKeys.png" width="11px" height="12px" preserveAspectRatio="xMinYMin meet" x="219.5" y="-648.53"/>
<text text-anchor="start" x="243.5" y="-638.6299" font-family="Helvetica,sans-Serif" font-size="11.00" fill="#000000">deployment_id_</text>
<polygon fill="none" stroke="#000000" points="214.5,-612.5299 214.5,-631.5299 359.5,-631.5299 359.5,-612.5299 214.5,-612.5299"/>
<text text-anchor="start" x="217.5" y="-618.6299" font-family="Helvetica,sans-Serif" font-size="11.00" fill="#000000">...</text>
<polygon fill="#ffffff" stroke="transparent" points="214.5,-593.5299 214.5,-612.5299 359.5,-612.5299 359.5,-593.5299 214.5,-593.5299"/>
<polygon fill="none" stroke="#000000" points="214.5,-593.5299 214.5,-612.5299 359.5,-612.5299 359.5,-593.5299 214.5,-593.5299"/>
<polygon fill="#ffffff" stroke="transparent" points="215.5,-594.5299 215.5,-611.5299 264.5,-611.5299 264.5,-594.5299 215.5,-594.5299"/>
<text text-anchor="start" x="217.5" y="-599.6299" font-family="Helvetica,sans-Serif" font-size="11.00" fill="#000000">&lt; 1</text>
<polygon fill="#ffffff" stroke="transparent" points="264.5,-594.5299 264.5,-611.5299 304.5,-611.5299 304.5,-594.5299 264.5,-594.5299"/>
<text text-anchor="start" x="281.4431" y="-599.6299" font-family="Helvetica,sans-Serif" font-size="11.00" fill="#000000"> &#160;</text>
<polygon fill="#ffffff" stroke="transparent" points="304.5,-594.5299 304.5,-611.5299 358.5,-611.5299 358.5,-594.5299 304.5,-594.5299"/>
<text text-anchor="start" x="334.7904" y="-599.6299" font-family="Helvetica,sans-Serif" font-size="11.00" fill="#000000">14 &gt;</text>
<polygon fill="#000000" stroke="#000000" points="264.5,-594.5299 264.5,-611.5299 264.5,-611.5299 264.5,-594.5299 264.5,-594.5299"/>
<polygon fill="#000000" stroke="#000000" points="304.5,-594.5299 304.5,-611.5299 304.5,-611.5299 304.5,-594.5299 304.5,-594.5299"/>
</a>
</g>
</g>
<!-- act_re_deployment -->
<g id="node2" class="node">
<title>act_re_deployment</title>
<g id="a_node2"><a xlink:href="../../tables/act_re_deployment.html" xlink:title="act_re_deployment" target="_top">
<polygon fill="#ffffff" stroke="transparent" points="8,-915.0299 8,-976.0299 165,-976.0299 165,-915.0299 8,-915.0299"/>
<polygon fill="#f5f5f5" stroke="transparent" points="8.5,-952.5299 8.5,-975.5299 165.5,-975.5299 165.5,-952.5299 8.5,-952.5299"/>
<polygon fill="none" stroke="#000000" points="8.5,-952.5299 8.5,-975.5299 165.5,-975.5299 165.5,-952.5299 8.5,-952.5299"/>
<text text-anchor="start" x="13.5" y="-961.1299" font-family="Helvetica,sans-Serif" font-weight="bold" font-size="11.00" fill="#000000">act_re_deployment</text>
<text text-anchor="start" x="131.0219" y="-960.6299" font-family="Helvetica,sans-Serif" font-size="11.00" fill="#000000">[table]</text>
<polygon fill="none" stroke="#000000" points="8.5,-933.5299 8.5,-952.5299 165.5,-952.5299 165.5,-933.5299 8.5,-933.5299"/>
<text text-anchor="start" x="11.5" y="-939.6299" font-family="Helvetica,sans-Serif" font-size="11.00" fill="#000000">...</text>
<polygon fill="#ffffff" stroke="transparent" points="8.5,-914.5299 8.5,-933.5299 165.5,-933.5299 165.5,-914.5299 8.5,-914.5299"/>
<polygon fill="none" stroke="#000000" points="8.5,-914.5299 8.5,-933.5299 165.5,-933.5299 165.5,-914.5299 8.5,-914.5299"/>
<polygon fill="#ffffff" stroke="transparent" points="9.5,-915.5299 9.5,-932.5299 58.5,-932.5299 58.5,-915.5299 9.5,-915.5299"/>
<text text-anchor="start" x="11.5" y="-920.6299" font-family="Helvetica,sans-Serif" font-size="11.00" fill="#000000"> &#160;</text>
<polygon fill="#ffffff" stroke="transparent" points="58.5,-915.5299 58.5,-932.5299 107.5,-932.5299 107.5,-915.5299 58.5,-915.5299"/>
<text text-anchor="start" x="79.9431" y="-920.6299" font-family="Helvetica,sans-Serif" font-size="11.00" fill="#000000"> &#160;</text>
<polygon fill="#ffffff" stroke="transparent" points="107.5,-915.5299 107.5,-932.5299 164.5,-932.5299 164.5,-915.5299 107.5,-915.5299"/>
<text text-anchor="start" x="146.9053" y="-920.6299" font-family="Helvetica,sans-Serif" font-size="11.00" fill="#000000">2 &gt;</text>
<polygon fill="#000000" stroke="#000000" points="58.5,-915.5299 58.5,-932.5299 58.5,-932.5299 58.5,-915.5299 58.5,-915.5299"/>
<polygon fill="#000000" stroke="#000000" points="107.5,-915.5299 107.5,-932.5299 107.5,-932.5299 107.5,-915.5299 107.5,-915.5299"/>
</a>
</g>
</g>
<!-- act_ge_bytearray&#45;&gt;act_re_deployment -->
<g id="edge1" class="edge">
<title>act_ge_bytearray:w&#45;&gt;act_re_deployment:e</title>
<path fill="none" stroke="#000000" d="M199.94,-643.9343C96.542,-666.0724 295.1909,-942.5299 165.5,-942.5299"/>
<polygon fill="#000000" stroke="#000000" points="206.537,-643.298 214.8456,-646.1133 210.5185,-642.914 214.5,-642.5299 214.5,-642.5299 214.5,-642.5299 210.5185,-642.914 214.1544,-638.9466 206.537,-643.298 206.537,-643.298"/>
<ellipse fill="none" stroke="#000000" cx="203.3517" cy="-643.6053" rx="3.2" ry="3.2"/>
</g>
<!-- act_procdef_info -->
<g id="node3" class="node">
<title>act_procdef_info</title>
<g id="a_node3"><a xlink:href="../../tables/act_procdef_info.html" xlink:title="act_procdef_info" target="_top">
<polygon fill="#ffffff" stroke="transparent" points="458.5,-1266.0299 458.5,-1327.0299 601.5,-1327.0299 601.5,-1266.0299 458.5,-1266.0299"/>
<polygon fill="#f5f5f5" stroke="transparent" points="459,-1303.5299 459,-1326.5299 602,-1326.5299 602,-1303.5299 459,-1303.5299"/>
<polygon fill="none" stroke="#000000" points="459,-1303.5299 459,-1326.5299 602,-1326.5299 602,-1303.5299 459,-1303.5299"/>
<text text-anchor="start" x="464" y="-1312.1299" font-family="Helvetica,sans-Serif" font-weight="bold" font-size="11.00" fill="#000000">act_procdef_info</text>
<text text-anchor="start" x="567.5219" y="-1311.6299" font-family="Helvetica,sans-Serif" font-size="11.00" fill="#000000">[table]</text>
<polygon fill="none" stroke="#000000" points="459,-1284.5299 459,-1303.5299 602,-1303.5299 602,-1284.5299 459,-1284.5299"/>
<text text-anchor="start" x="462" y="-1290.6299" font-family="Helvetica,sans-Serif" font-size="11.00" fill="#000000">...</text>
<polygon fill="#ffffff" stroke="transparent" points="459,-1265.5299 459,-1284.5299 602,-1284.5299 602,-1265.5299 459,-1265.5299"/>
<polygon fill="none" stroke="#000000" points="459,-1265.5299 459,-1284.5299 602,-1284.5299 602,-1265.5299 459,-1265.5299"/>
<polygon fill="#ffffff" stroke="transparent" points="460,-1266.5299 460,-1283.5299 513,-1283.5299 513,-1266.5299 460,-1266.5299"/>
<text text-anchor="start" x="462" y="-1271.6299" font-family="Helvetica,sans-Serif" font-size="11.00" fill="#000000">&lt; 2</text>
<polygon fill="#ffffff" stroke="transparent" points="513,-1266.5299 513,-1283.5299 557,-1283.5299 557,-1266.5299 513,-1266.5299"/>
<text text-anchor="start" x="531.9431" y="-1271.6299" font-family="Helvetica,sans-Serif" font-size="11.00" fill="#000000"> &#160;</text>
<polygon fill="#ffffff" stroke="transparent" points="557,-1266.5299 557,-1283.5299 601,-1283.5299 601,-1266.5299 557,-1266.5299"/>
<text text-anchor="start" x="592.8862" y="-1271.6299" font-family="Helvetica,sans-Serif" font-size="11.00" fill="#000000"> &#160;</text>
<polygon fill="#000000" stroke="#000000" points="513,-1266.5299 513,-1283.5299 513,-1283.5299 513,-1266.5299 513,-1266.5299"/>
<polygon fill="#000000" stroke="#000000" points="557,-1266.5299 557,-1283.5299 557,-1283.5299 557,-1266.5299 557,-1266.5299"/>
</a>
</g>
</g>
<!-- act_procdef_info&#45;&gt;act_ge_bytearray -->
<g id="edge2" class="edge">
<title>act_procdef_info:w&#45;&gt;act_ge_bytearray:e</title>
<path fill="none" stroke="#000000" d="M444.5053,-1292.5191C423.587,-1289.235 413.1359,-1277.7699 400,-1255.5299 366.5262,-1198.8566 425.3207,-664.5299 359.5,-664.5299"/>
<polygon fill="#000000" stroke="#000000" points="451.0194,-1292.9733 458.7495,-1297.1212 455.0097,-1293.2516 459,-1293.5299 459,-1293.5299 459,-1293.5299 455.0097,-1293.2516 459.2505,-1289.9387 451.0194,-1292.9733 451.0194,-1292.9733"/>
<ellipse fill="none" stroke="#000000" cx="447.8271" cy="-1292.7507" rx="3.2" ry="3.2"/>
</g>
<!-- act_re_procdef -->
<g id="node4" class="node">
<title>act_re_procdef</title>
<g id="a_node4"><a xlink:href="../../tables/act_re_procdef.html" xlink:title="act_re_procdef" target="_top">
<polygon fill="#ffffff" stroke="transparent" points="20.5,-312.0299 20.5,-373.0299 152.5,-373.0299 152.5,-312.0299 20.5,-312.0299"/>
<polygon fill="#f5f5f5" stroke="transparent" points="20.5,-349.5299 20.5,-372.5299 152.5,-372.5299 152.5,-349.5299 20.5,-349.5299"/>
<polygon fill="none" stroke="#000000" points="20.5,-349.5299 20.5,-372.5299 152.5,-372.5299 152.5,-349.5299 20.5,-349.5299"/>
<text text-anchor="start" x="25.5" y="-358.1299" font-family="Helvetica,sans-Serif" font-weight="bold" font-size="11.00" fill="#000000">act_re_procdef</text>
<text text-anchor="start" x="118.0219" y="-357.6299" font-family="Helvetica,sans-Serif" font-size="11.00" fill="#000000">[table]</text>
<polygon fill="none" stroke="#000000" points="20.5,-330.5299 20.5,-349.5299 152.5,-349.5299 152.5,-330.5299 20.5,-330.5299"/>
<text text-anchor="start" x="23.5" y="-336.6299" font-family="Helvetica,sans-Serif" font-size="11.00" fill="#000000">...</text>
<polygon fill="#ffffff" stroke="transparent" points="20.5,-311.5299 20.5,-330.5299 152.5,-330.5299 152.5,-311.5299 20.5,-311.5299"/>
<polygon fill="none" stroke="#000000" points="20.5,-311.5299 20.5,-330.5299 152.5,-330.5299 152.5,-311.5299 20.5,-311.5299"/>
<polygon fill="#ffffff" stroke="transparent" points="21.5,-312.5299 21.5,-329.5299 62.5,-329.5299 62.5,-312.5299 21.5,-312.5299"/>
<text text-anchor="start" x="23.5" y="-317.6299" font-family="Helvetica,sans-Serif" font-size="11.00" fill="#000000"> &#160;</text>
<polygon fill="#ffffff" stroke="transparent" points="62.5,-312.5299 62.5,-329.5299 102.5,-329.5299 102.5,-312.5299 62.5,-312.5299"/>
<text text-anchor="start" x="79.4431" y="-317.6299" font-family="Helvetica,sans-Serif" font-size="11.00" fill="#000000"> &#160;</text>
<polygon fill="#ffffff" stroke="transparent" points="102.5,-312.5299 102.5,-329.5299 151.5,-329.5299 151.5,-312.5299 102.5,-312.5299"/>
<text text-anchor="start" x="133.9053" y="-317.6299" font-family="Helvetica,sans-Serif" font-size="11.00" fill="#000000">8 &gt;</text>
<polygon fill="#000000" stroke="#000000" points="62.5,-312.5299 62.5,-329.5299 62.5,-329.5299 62.5,-312.5299 62.5,-312.5299"/>
<polygon fill="#000000" stroke="#000000" points="102.5,-312.5299 102.5,-329.5299 102.5,-329.5299 102.5,-312.5299 102.5,-312.5299"/>
</a>
</g>
</g>
<!-- act_procdef_info&#45;&gt;act_re_procdef -->
<g id="edge3" class="edge">
<title>act_procdef_info:w&#45;&gt;act_re_procdef:e</title>
<path fill="none" stroke="#000000" d="M448.4938,-1293.0493C365.2108,-1285.0207 409.5769,-1178.0291 367,-1094.5299 318.842,-1000.0857 254.271,-1012.9165 206,-918.5299 109.7401,-730.3084 91.0186,-469.8739 87.3783,-377.072"/>
<polygon fill="#000000" stroke="#000000" points="458.3837,-1289.4976 458.018,-1297.4892 456.4197,-1297.4161 456.7853,-1289.4244 458.3837,-1289.4976"/>
<polyline fill="none" stroke="#000000" points="459,-1293.5299 455.0042,-1293.3471 "/>
<ellipse fill="none" stroke="#000000" cx="451.8075" cy="-1293.2008" rx="3.2" ry="3.2"/>
</g>
<!-- act_re_model -->
<g id="node5" class="node">
<title>act_re_model</title>
<g id="a_node5"><a xlink:href="../../tables/act_re_model.html" xlink:title="act_re_model" target="_top">
<polygon fill="#ffffff" stroke="transparent" points="469,-1348.0299 469,-1409.0299 591,-1409.0299 591,-1348.0299 469,-1348.0299"/>
<polygon fill="#f5f5f5" stroke="transparent" points="469,-1385.5299 469,-1408.5299 591,-1408.5299 591,-1385.5299 469,-1385.5299"/>
<polygon fill="none" stroke="#000000" points="469,-1385.5299 469,-1408.5299 591,-1408.5299 591,-1385.5299 469,-1385.5299"/>
<text text-anchor="start" x="474" y="-1394.1299" font-family="Helvetica,sans-Serif" font-weight="bold" font-size="11.00" fill="#000000">act_re_model</text>
<text text-anchor="start" x="556.5219" y="-1393.6299" font-family="Helvetica,sans-Serif" font-size="11.00" fill="#000000">[table]</text>
<polygon fill="none" stroke="#000000" points="469,-1366.5299 469,-1385.5299 591,-1385.5299 591,-1366.5299 469,-1366.5299"/>
<text text-anchor="start" x="472" y="-1372.6299" font-family="Helvetica,sans-Serif" font-size="11.00" fill="#000000">...</text>
<polygon fill="#ffffff" stroke="transparent" points="469,-1347.5299 469,-1366.5299 591,-1366.5299 591,-1347.5299 469,-1347.5299"/>
<polygon fill="none" stroke="#000000" points="469,-1347.5299 469,-1366.5299 591,-1366.5299 591,-1347.5299 469,-1347.5299"/>
<polygon fill="#ffffff" stroke="transparent" points="470,-1348.5299 470,-1365.5299 516,-1365.5299 516,-1348.5299 470,-1348.5299"/>
<text text-anchor="start" x="472" y="-1353.6299" font-family="Helvetica,sans-Serif" font-size="11.00" fill="#000000">&lt; 3</text>
<polygon fill="#ffffff" stroke="transparent" points="516,-1348.5299 516,-1365.5299 553,-1365.5299 553,-1348.5299 516,-1348.5299"/>
<text text-anchor="start" x="531.4431" y="-1353.6299" font-family="Helvetica,sans-Serif" font-size="11.00" fill="#000000"> &#160;</text>
<polygon fill="#ffffff" stroke="transparent" points="553,-1348.5299 553,-1365.5299 590,-1365.5299 590,-1348.5299 553,-1348.5299"/>
<text text-anchor="start" x="581.8862" y="-1353.6299" font-family="Helvetica,sans-Serif" font-size="11.00" fill="#000000"> &#160;</text>
<polygon fill="#000000" stroke="#000000" points="516,-1348.5299 516,-1365.5299 516,-1365.5299 516,-1348.5299 516,-1348.5299"/>
<polygon fill="#000000" stroke="#000000" points="553,-1348.5299 553,-1365.5299 553,-1365.5299 553,-1348.5299 553,-1348.5299"/>
</a>
</g>
</g>
<!-- act_re_model&#45;&gt;act_ge_bytearray -->
<g id="edge5" class="edge">
<title>act_re_model:w&#45;&gt;act_ge_bytearray:e</title>
<path fill="none" stroke="#000000" d="M454.638,-1372.6375C429.3778,-1366.5671 415.9309,-1356.7295 400,-1331.5299 359.9694,-1268.2092 434.4131,-658.5299 359.5,-664.5299"/>
<polygon fill="#000000" stroke="#000000" points="461.1575,-1373.9505 468.2892,-1379.0591 465.0787,-1374.7402 469,-1375.5299 469,-1375.5299 469,-1375.5299 465.0787,-1374.7402 469.7108,-1372.0008 461.1575,-1373.9505 461.1575,-1373.9505"/>
<ellipse fill="none" stroke="#000000" cx="458.0205" cy="-1373.3187" rx="3.2" ry="3.2"/>
</g>
<!-- act_re_model&#45;&gt;act_ge_bytearray -->
<g id="edge6" class="edge">
<title>act_re_model:w&#45;&gt;act_ge_bytearray:e</title>
<path fill="none" stroke="#000000" d="M454.638,-1377.6098C429.3778,-1379.5671 415.9309,-1369.7295 400,-1344.5299 359.9694,-1281.2092 434.4131,-671.5299 359.5,-664.5299"/>
<polygon fill="#000000" stroke="#000000" points="461.0826,-1376.6766 469.516,-1379.0928 465.0413,-1376.1032 469,-1375.5299 469,-1375.5299 469,-1375.5299 465.0413,-1376.1032 468.484,-1371.9671 461.0826,-1376.6766 461.0826,-1376.6766"/>
<ellipse fill="none" stroke="#000000" cx="457.9156" cy="-1377.1352" rx="3.2" ry="3.2"/>
</g>
<!-- act_re_model&#45;&gt;act_re_deployment -->
<g id="edge4" class="edge">
<title>act_re_model:w&#45;&gt;act_re_deployment:e</title>
<path fill="none" stroke="#000000" d="M454.5692,-1374.8038C334.8832,-1362.6833 260.4263,-1201.506 206,-1093.5299 174.7249,-1031.4834 234.9831,-942.5299 165.5,-942.5299"/>
<polygon fill="#000000" stroke="#000000" points="461.0101,-1375.1279 468.8191,-1379.1254 465.0051,-1375.3289 469,-1375.5299 469,-1375.5299 469,-1375.5299 465.0051,-1375.3289 469.1809,-1371.9345 461.0101,-1375.1279 461.0101,-1375.1279"/>
<ellipse fill="none" stroke="#000000" cx="457.8142" cy="-1374.967" rx="3.2" ry="3.2"/>
</g>
<!-- act_ru_deadletter_job -->
<g id="node6" class="node">
<title>act_ru_deadletter_job</title>
<g id="a_node6"><a xlink:href="../../tables/act_ru_deadletter_job.html" xlink:title="act_ru_deadletter_job" target="_top">
<polygon fill="#ffffff" stroke="transparent" points="408,-588.5299 408,-1162.5299 652,-1162.5299 652,-588.5299 408,-588.5299"/>
<polygon fill="#f5f5f5" stroke="transparent" points="410,-1137.5299 410,-1160.5299 650,-1160.5299 650,-1137.5299 410,-1137.5299"/>
<polygon fill="none" stroke="#000000" points="410,-1137.5299 410,-1160.5299 650,-1160.5299 650,-1137.5299 410,-1137.5299"/>
<text text-anchor="start" x="415" y="-1146.1299" font-family="Helvetica,sans-Serif" font-weight="bold" font-size="11.00" fill="#000000">act_ru_deadletter_job</text>
<text text-anchor="start" x="615.0437" y="-1145.6299" font-family="Helvetica,sans-Serif" font-size="11.00" fill="#000000">[table]</text>
<polygon fill="none" stroke="#000000" points="410,-1115.5299 410,-1137.5299 566,-1137.5299 566,-1115.5299 410,-1115.5299"/>
<image xlink:href="../../images/primaryKeys.png" width="11px" height="12px" preserveAspectRatio="xMinYMin meet" x="415" y="-1132.53"/>
<text text-anchor="start" x="430" y="-1122.6299" font-family="Helvetica,sans-Serif" font-size="11.00" fill="#000000">id_</text>
<polygon fill="none" stroke="#000000" points="566,-1115.5299 566,-1137.5299 650,-1137.5299 650,-1115.5299 566,-1115.5299"/>
<text text-anchor="start" x="569" y="-1123.2299" font-family="Helvetica,sans-Serif" font-size="11.00" fill="#000000">varchar[64]</text>
<polygon fill="none" stroke="#000000" points="410,-1093.5299 410,-1115.5299 566,-1115.5299 566,-1093.5299 410,-1093.5299"/>
<text text-anchor="start" x="430" y="-1100.6299" font-family="Helvetica,sans-Serif" font-size="11.00" fill="#000000">rev_</text>
<polygon fill="none" stroke="#000000" points="566,-1093.5299 566,-1115.5299 650,-1115.5299 650,-1093.5299 566,-1093.5299"/>
<text text-anchor="start" x="569" y="-1101.2299" font-family="Helvetica,sans-Serif" font-size="11.00" fill="#000000">int4[10]</text>
<polygon fill="none" stroke="#000000" points="410,-1071.5299 410,-1093.5299 566,-1093.5299 566,-1071.5299 410,-1071.5299"/>
<text text-anchor="start" x="430" y="-1078.6299" font-family="Helvetica,sans-Serif" font-size="11.00" fill="#000000">category_</text>
<polygon fill="none" stroke="#000000" points="566,-1071.5299 566,-1093.5299 650,-1093.5299 650,-1071.5299 566,-1071.5299"/>
<text text-anchor="start" x="569" y="-1079.2299" font-family="Helvetica,sans-Serif" font-size="11.00" fill="#000000">varchar[255]</text>
<polygon fill="none" stroke="#000000" points="410,-1049.5299 410,-1071.5299 566,-1071.5299 566,-1049.5299 410,-1049.5299"/>
<text text-anchor="start" x="430" y="-1056.6299" font-family="Helvetica,sans-Serif" font-size="11.00" fill="#000000">type_</text>
<polygon fill="none" stroke="#000000" points="566,-1049.5299 566,-1071.5299 650,-1071.5299 650,-1049.5299 566,-1049.5299"/>
<text text-anchor="start" x="569" y="-1057.2299" font-family="Helvetica,sans-Serif" font-size="11.00" fill="#000000">varchar[255]</text>
<polygon fill="none" stroke="#000000" points="410,-1027.5299 410,-1049.5299 566,-1049.5299 566,-1027.5299 410,-1027.5299"/>
<text text-anchor="start" x="430" y="-1034.6299" font-family="Helvetica,sans-Serif" font-size="11.00" fill="#000000">exclusive_</text>
<polygon fill="none" stroke="#000000" points="566,-1027.5299 566,-1049.5299 650,-1049.5299 650,-1027.5299 566,-1027.5299"/>
<text text-anchor="start" x="569" y="-1035.2299" font-family="Helvetica,sans-Serif" font-size="11.00" fill="#000000">bool[1]</text>
<polygon fill="#ffffff" stroke="transparent" points="410,-1005.5299 410,-1027.5299 566,-1027.5299 566,-1005.5299 410,-1005.5299"/>
<polygon fill="none" stroke="#000000" points="410,-1005.5299 410,-1027.5299 566,-1027.5299 566,-1005.5299 410,-1005.5299"/>
<image xlink:href="../../images/foreignKeys.png" width="11px" height="12px" preserveAspectRatio="xMinYMin meet" x="415" y="-1022.53"/>
<text text-anchor="start" x="430" y="-1012.6299" font-family="Helvetica,sans-Serif" font-size="11.00" fill="#000000">execution_id_</text>
<polygon fill="none" stroke="#000000" points="566,-1005.5299 566,-1027.5299 650,-1027.5299 650,-1005.5299 566,-1005.5299"/>
<text text-anchor="start" x="569" y="-1013.2299" font-family="Helvetica,sans-Serif" font-size="11.00" fill="#000000">varchar[64]</text>
<polygon fill="#ffffff" stroke="transparent" points="410,-983.5299 410,-1005.5299 566,-1005.5299 566,-983.5299 410,-983.5299"/>
<polygon fill="none" stroke="#000000" points="410,-983.5299 410,-1005.5299 566,-1005.5299 566,-983.5299 410,-983.5299"/>
<image xlink:href="../../images/foreignKeys.png" width="11px" height="12px" preserveAspectRatio="xMinYMin meet" x="415" y="-1000.53"/>
<text text-anchor="start" x="430" y="-990.6299" font-family="Helvetica,sans-Serif" font-size="11.00" fill="#000000">process_instance_id_</text>
<polygon fill="none" stroke="#000000" points="566,-983.5299 566,-1005.5299 650,-1005.5299 650,-983.5299 566,-983.5299"/>
<text text-anchor="start" x="569" y="-991.2299" font-family="Helvetica,sans-Serif" font-size="11.00" fill="#000000">varchar[64]</text>
<polygon fill="#ffffff" stroke="transparent" points="410,-961.5299 410,-983.5299 566,-983.5299 566,-961.5299 410,-961.5299"/>
<polygon fill="none" stroke="#000000" points="410,-961.5299 410,-983.5299 566,-983.5299 566,-961.5299 410,-961.5299"/>
<image xlink:href="../../images/foreignKeys.png" width="11px" height="12px" preserveAspectRatio="xMinYMin meet" x="415" y="-978.53"/>
<text text-anchor="start" x="430" y="-968.6299" font-family="Helvetica,sans-Serif" font-size="11.00" fill="#000000">proc_def_id_</text>
<polygon fill="none" stroke="#000000" points="566,-961.5299 566,-983.5299 650,-983.5299 650,-961.5299 566,-961.5299"/>
<text text-anchor="start" x="569" y="-969.2299" font-family="Helvetica,sans-Serif" font-size="11.00" fill="#000000">varchar[64]</text>
<polygon fill="none" stroke="#000000" points="410,-939.5299 410,-961.5299 566,-961.5299 566,-939.5299 410,-939.5299"/>
<text text-anchor="start" x="430" y="-946.6299" font-family="Helvetica,sans-Serif" font-size="11.00" fill="#000000">element_id_</text>
<polygon fill="none" stroke="#000000" points="566,-939.5299 566,-961.5299 650,-961.5299 650,-939.5299 566,-939.5299"/>
<text text-anchor="start" x="569" y="-947.2299" font-family="Helvetica,sans-Serif" font-size="11.00" fill="#000000">varchar[255]</text>
<polygon fill="none" stroke="#000000" points="410,-917.5299 410,-939.5299 566,-939.5299 566,-917.5299 410,-917.5299"/>
<text text-anchor="start" x="430" y="-924.6299" font-family="Helvetica,sans-Serif" font-size="11.00" fill="#000000">element_name_</text>
<polygon fill="none" stroke="#000000" points="566,-917.5299 566,-939.5299 650,-939.5299 650,-917.5299 566,-917.5299"/>
<text text-anchor="start" x="569" y="-925.2299" font-family="Helvetica,sans-Serif" font-size="11.00" fill="#000000">varchar[255]</text>
<polygon fill="#ffffff" stroke="transparent" points="410,-895.5299 410,-917.5299 566,-917.5299 566,-895.5299 410,-895.5299"/>
<polygon fill="none" stroke="#000000" points="410,-895.5299 410,-917.5299 566,-917.5299 566,-895.5299 410,-895.5299"/>
<text text-anchor="start" x="430" y="-902.6299" font-family="Helvetica,sans-Serif" font-size="11.00" fill="#000000">scope_id_</text>
<polygon fill="none" stroke="#000000" points="566,-895.5299 566,-917.5299 650,-917.5299 650,-895.5299 566,-895.5299"/>
<text text-anchor="start" x="569" y="-903.2299" font-family="Helvetica,sans-Serif" font-size="11.00" fill="#000000">varchar[255]</text>
<polygon fill="#ffffff" stroke="transparent" points="410,-873.5299 410,-895.5299 566,-895.5299 566,-873.5299 410,-873.5299"/>
<polygon fill="none" stroke="#000000" points="410,-873.5299 410,-895.5299 566,-895.5299 566,-873.5299 410,-873.5299"/>
<text text-anchor="start" x="430" y="-880.6299" font-family="Helvetica,sans-Serif" font-size="11.00" fill="#000000">sub_scope_id_</text>
<polygon fill="none" stroke="#000000" points="566,-873.5299 566,-895.5299 650,-895.5299 650,-873.5299 566,-873.5299"/>
<text text-anchor="start" x="569" y="-881.2299" font-family="Helvetica,sans-Serif" font-size="11.00" fill="#000000">varchar[255]</text>
<polygon fill="#ffffff" stroke="transparent" points="410,-851.5299 410,-873.5299 566,-873.5299 566,-851.5299 410,-851.5299"/>
<polygon fill="none" stroke="#000000" points="410,-851.5299 410,-873.5299 566,-873.5299 566,-851.5299 410,-851.5299"/>
<text text-anchor="start" x="430" y="-858.6299" font-family="Helvetica,sans-Serif" font-size="11.00" fill="#000000">scope_type_</text>
<polygon fill="none" stroke="#000000" points="566,-851.5299 566,-873.5299 650,-873.5299 650,-851.5299 566,-851.5299"/>
<text text-anchor="start" x="569" y="-859.2299" font-family="Helvetica,sans-Serif" font-size="11.00" fill="#000000">varchar[255]</text>
<polygon fill="#ffffff" stroke="transparent" points="410,-829.5299 410,-851.5299 566,-851.5299 566,-829.5299 410,-829.5299"/>
<polygon fill="none" stroke="#000000" points="410,-829.5299 410,-851.5299 566,-851.5299 566,-829.5299 410,-829.5299"/>
<text text-anchor="start" x="430" y="-836.6299" font-family="Helvetica,sans-Serif" font-size="11.00" fill="#000000">scope_definition_id_</text>
<polygon fill="none" stroke="#000000" points="566,-829.5299 566,-851.5299 650,-851.5299 650,-829.5299 566,-829.5299"/>
<text text-anchor="start" x="569" y="-837.2299" font-family="Helvetica,sans-Serif" font-size="11.00" fill="#000000">varchar[255]</text>
<polygon fill="#ffffff" stroke="transparent" points="410,-807.5299 410,-829.5299 566,-829.5299 566,-807.5299 410,-807.5299"/>
<polygon fill="none" stroke="#000000" points="410,-807.5299 410,-829.5299 566,-829.5299 566,-807.5299 410,-807.5299"/>
<text text-anchor="start" x="430" y="-814.6299" font-family="Helvetica,sans-Serif" font-size="11.00" fill="#000000">correlation_id_</text>
<polygon fill="none" stroke="#000000" points="566,-807.5299 566,-829.5299 650,-829.5299 650,-807.5299 566,-807.5299"/>
<text text-anchor="start" x="569" y="-815.2299" font-family="Helvetica,sans-Serif" font-size="11.00" fill="#000000">varchar[255]</text>
<polygon fill="#ffffff" stroke="transparent" points="410,-785.5299 410,-807.5299 566,-807.5299 566,-785.5299 410,-785.5299"/>
<polygon fill="none" stroke="#000000" points="410,-785.5299 410,-807.5299 566,-807.5299 566,-785.5299 410,-785.5299"/>
<image xlink:href="../../images/foreignKeys.png" width="11px" height="12px" preserveAspectRatio="xMinYMin meet" x="415" y="-802.53"/>
<text text-anchor="start" x="430" y="-792.6299" font-family="Helvetica,sans-Serif" font-size="11.00" fill="#000000">exception_stack_id_</text>
<polygon fill="none" stroke="#000000" points="566,-785.5299 566,-807.5299 650,-807.5299 650,-785.5299 566,-785.5299"/>
<text text-anchor="start" x="569" y="-793.2299" font-family="Helvetica,sans-Serif" font-size="11.00" fill="#000000">varchar[64]</text>
<polygon fill="none" stroke="#000000" points="410,-763.5299 410,-785.5299 566,-785.5299 566,-763.5299 410,-763.5299"/>
<text text-anchor="start" x="430" y="-770.6299" font-family="Helvetica,sans-Serif" font-size="11.00" fill="#000000">exception_msg_</text>
<polygon fill="none" stroke="#000000" points="566,-763.5299 566,-785.5299 650,-785.5299 650,-763.5299 566,-763.5299"/>
<text text-anchor="start" x="569" y="-771.2299" font-family="Helvetica,sans-Serif" font-size="11.00" fill="#000000">varchar[4000]</text>
<polygon fill="none" stroke="#000000" points="410,-741.5299 410,-763.5299 566,-763.5299 566,-741.5299 410,-741.5299"/>
<text text-anchor="start" x="430" y="-748.6299" font-family="Helvetica,sans-Serif" font-size="11.00" fill="#000000">duedate_</text>
<polygon fill="none" stroke="#000000" points="566,-741.5299 566,-763.5299 650,-763.5299 650,-741.5299 566,-741.5299"/>
<text text-anchor="start" x="568.8807" y="-749.2299" font-family="Helvetica,sans-Serif" font-size="11.00" fill="#000000">timestamp[29,6]</text>
<polygon fill="none" stroke="#000000" points="410,-719.5299 410,-741.5299 566,-741.5299 566,-719.5299 410,-719.5299"/>
<text text-anchor="start" x="430" y="-726.6299" font-family="Helvetica,sans-Serif" font-size="11.00" fill="#000000">repeat_</text>
<polygon fill="none" stroke="#000000" points="566,-719.5299 566,-741.5299 650,-741.5299 650,-719.5299 566,-719.5299"/>
<text text-anchor="start" x="569" y="-727.2299" font-family="Helvetica,sans-Serif" font-size="11.00" fill="#000000">varchar[255]</text>
<polygon fill="none" stroke="#000000" points="410,-697.5299 410,-719.5299 566,-719.5299 566,-697.5299 410,-697.5299"/>
<text text-anchor="start" x="430" y="-704.6299" font-family="Helvetica,sans-Serif" font-size="11.00" fill="#000000">handler_type_</text>
<polygon fill="none" stroke="#000000" points="566,-697.5299 566,-719.5299 650,-719.5299 650,-697.5299 566,-697.5299"/>
<text text-anchor="start" x="569" y="-705.2299" font-family="Helvetica,sans-Serif" font-size="11.00" fill="#000000">varchar[255]</text>
<polygon fill="none" stroke="#000000" points="410,-675.5299 410,-697.5299 566,-697.5299 566,-675.5299 410,-675.5299"/>
<text text-anchor="start" x="430" y="-682.6299" font-family="Helvetica,sans-Serif" font-size="11.00" fill="#000000">handler_cfg_</text>
<polygon fill="none" stroke="#000000" points="566,-675.5299 566,-697.5299 650,-697.5299 650,-675.5299 566,-675.5299"/>
<text text-anchor="start" x="569" y="-683.2299" font-family="Helvetica,sans-Serif" font-size="11.00" fill="#000000">varchar[4000]</text>
<polygon fill="#ffffff" stroke="transparent" points="410,-653.5299 410,-675.5299 566,-675.5299 566,-653.5299 410,-653.5299"/>
<polygon fill="none" stroke="#000000" points="410,-653.5299 410,-675.5299 566,-675.5299 566,-653.5299 410,-653.5299"/>
<image xlink:href="../../images/foreignKeys.png" width="11px" height="12px" preserveAspectRatio="xMinYMin meet" x="415" y="-670.53"/>
<text text-anchor="start" x="430" y="-660.6299" font-family="Helvetica,sans-Serif" font-size="11.00" fill="#000000">custom_values_id_</text>
<polygon fill="none" stroke="#000000" points="566,-653.5299 566,-675.5299 650,-675.5299 650,-653.5299 566,-653.5299"/>
<text text-anchor="start" x="569" y="-661.2299" font-family="Helvetica,sans-Serif" font-size="11.00" fill="#000000">varchar[64]</text>
<polygon fill="none" stroke="#000000" points="410,-631.5299 410,-653.5299 566,-653.5299 566,-631.5299 410,-631.5299"/>
<text text-anchor="start" x="430" y="-638.6299" font-family="Helvetica,sans-Serif" font-size="11.00" fill="#000000">create_time_</text>
<polygon fill="none" stroke="#000000" points="566,-631.5299 566,-653.5299 650,-653.5299 650,-631.5299 566,-631.5299"/>
<text text-anchor="start" x="568.8807" y="-639.2299" font-family="Helvetica,sans-Serif" font-size="11.00" fill="#000000">timestamp[29,6]</text>
<polygon fill="none" stroke="#000000" points="410,-609.5299 410,-631.5299 566,-631.5299 566,-609.5299 410,-609.5299"/>
<text text-anchor="start" x="430" y="-616.6299" font-family="Helvetica,sans-Serif" font-size="11.00" fill="#000000">tenant_id_</text>
<polygon fill="none" stroke="#000000" points="566,-609.5299 566,-631.5299 650,-631.5299 650,-609.5299 566,-609.5299"/>
<text text-anchor="start" x="569" y="-617.2299" font-family="Helvetica,sans-Serif" font-size="11.00" fill="#000000">varchar[255]</text>
<polygon fill="#ffffff" stroke="transparent" points="410,-590.5299 410,-609.5299 650,-609.5299 650,-590.5299 410,-590.5299"/>
<polygon fill="none" stroke="#000000" points="410,-590.5299 410,-609.5299 650,-609.5299 650,-590.5299 410,-590.5299"/>
<polygon fill="#ffffff" stroke="transparent" points="411,-591.5299 411,-608.5299 494,-608.5299 494,-591.5299 411,-591.5299"/>
<text text-anchor="start" x="413" y="-596.6299" font-family="Helvetica,sans-Serif" font-size="11.00" fill="#000000">&lt; 5</text>
<polygon fill="#ffffff" stroke="transparent" points="494,-591.5299 494,-608.5299 567,-608.5299 567,-591.5299 494,-591.5299"/>
<text text-anchor="start" x="527.4431" y="-596.6299" font-family="Helvetica,sans-Serif" font-size="11.00" fill="#000000"> &#160;</text>
<polygon fill="#ffffff" stroke="transparent" points="567,-591.5299 567,-608.5299 649,-608.5299 649,-591.5299 567,-591.5299"/>
<text text-anchor="start" x="631.4053" y="-596.6299" font-family="Helvetica,sans-Serif" font-size="11.00" fill="#000000">0 &gt;</text>
<polygon fill="#000000" stroke="#000000" points="494,-591.5299 494,-608.5299 494,-608.5299 494,-591.5299 494,-591.5299"/>
<polygon fill="#000000" stroke="#000000" points="567,-591.5299 567,-608.5299 567,-608.5299 567,-591.5299 567,-591.5299"/>
<polygon fill="none" stroke="#000000" stroke-width="2" points="409,-589.5299 409,-1161.5299 651,-1161.5299 651,-589.5299 409,-589.5299"/>
</a>
</g>
</g>
<!-- act_ru_deadletter_job&#45;&gt;act_ge_bytearray -->
<g id="edge7" class="edge">
<title>act_ru_deadletter_job:w&#45;&gt;act_ge_bytearray:e</title>
<path fill="none" stroke="#000000" d="M395.4203,-664.5299C383.5435,-664.5299 376.158,-664.5299 359.5,-664.5299"/>
<polygon fill="#000000" stroke="#000000" points="402,-664.53 410,-668.1299 406,-664.53 410,-664.5299 410,-664.5299 410,-664.5299 406,-664.53 410,-660.9299 402,-664.53 402,-664.53"/>
<ellipse fill="none" stroke="#000000" cx="398.8" cy="-664.53" rx="3.2" ry="3.2"/>
</g>
<!-- act_ru_deadletter_job&#45;&gt;act_ge_bytearray -->
<g id="edge8" class="edge">
<title>act_ru_deadletter_job:w&#45;&gt;act_ge_bytearray:e</title>
<path fill="none" stroke="#000000" d="M395.7435,-793.267C360.0605,-772.9401 416.4247,-664.5299 359.5,-664.5299"/>
<polygon fill="#000000" stroke="#000000" points="402.2016,-794.7451 409.1968,-800.0392 406.1008,-795.6375 410,-796.5299 410,-796.5299 410,-796.5299 406.1008,-795.6375 410.8032,-793.0207 402.2016,-794.7451 402.2016,-794.7451"/>
<ellipse fill="none" stroke="#000000" cx="399.0823" cy="-794.0311" rx="3.2" ry="3.2"/>
</g>
<!-- act_ru_deadletter_job&#45;&gt;act_re_procdef -->
<g id="edge10" class="edge">
<title>act_ru_deadletter_job:w&#45;&gt;act_re_procdef:e</title>
<path fill="none" stroke="#000000" d="M395.5919,-972.0811C138.51,-955.9028 95.0817,-506.9853 87.8948,-377.2989"/>
<polygon fill="#000000" stroke="#000000" points="402.0039,-972.2808 409.8879,-976.1282 406.0019,-972.4054 410,-972.5299 410,-972.5299 410,-972.5299 406.0019,-972.4054 410.1121,-968.9317 402.0039,-972.2808 402.0039,-972.2808"/>
<ellipse fill="none" stroke="#000000" cx="398.8054" cy="-972.1811" rx="3.2" ry="3.2"/>
</g>
<!-- act_ru_execution -->
<g id="node7" class="node">
<title>act_ru_execution</title>
<g id="a_node7"><a xlink:href="../../tables/act_ru_execution.html" xlink:title="act_ru_execution" target="_top">
<polygon fill="#ffffff" stroke="transparent" points="214,-339.0299 214,-400.0299 359,-400.0299 359,-339.0299 214,-339.0299"/>
<polygon fill="#f5f5f5" stroke="transparent" points="214.5,-376.5299 214.5,-399.5299 359.5,-399.5299 359.5,-376.5299 214.5,-376.5299"/>
<polygon fill="none" stroke="#000000" points="214.5,-376.5299 214.5,-399.5299 359.5,-399.5299 359.5,-376.5299 214.5,-376.5299"/>
<text text-anchor="start" x="219.5" y="-385.1299" font-family="Helvetica,sans-Serif" font-weight="bold" font-size="11.00" fill="#000000">act_ru_execution</text>
<text text-anchor="start" x="325.0219" y="-384.6299" font-family="Helvetica,sans-Serif" font-size="11.00" fill="#000000">[table]</text>
<polygon fill="none" stroke="#000000" points="214.5,-357.5299 214.5,-376.5299 359.5,-376.5299 359.5,-357.5299 214.5,-357.5299"/>
<text text-anchor="start" x="217.5" y="-363.6299" font-family="Helvetica,sans-Serif" font-size="11.00" fill="#000000">...</text>
<polygon fill="#ffffff" stroke="transparent" points="214.5,-338.5299 214.5,-357.5299 359.5,-357.5299 359.5,-338.5299 214.5,-338.5299"/>
<polygon fill="none" stroke="#000000" points="214.5,-338.5299 214.5,-357.5299 359.5,-357.5299 359.5,-338.5299 214.5,-338.5299"/>
<polygon fill="#ffffff" stroke="transparent" points="215.5,-339.5299 215.5,-356.5299 264.5,-356.5299 264.5,-339.5299 215.5,-339.5299"/>
<text text-anchor="start" x="217.5" y="-344.6299" font-family="Helvetica,sans-Serif" font-size="11.00" fill="#000000">&lt; 4</text>
<polygon fill="#ffffff" stroke="transparent" points="264.5,-339.5299 264.5,-356.5299 304.5,-356.5299 304.5,-339.5299 264.5,-339.5299"/>
<text text-anchor="start" x="281.4431" y="-344.6299" font-family="Helvetica,sans-Serif" font-size="11.00" fill="#000000"> &#160;</text>
<polygon fill="#ffffff" stroke="transparent" points="304.5,-339.5299 304.5,-356.5299 358.5,-356.5299 358.5,-339.5299 304.5,-339.5299"/>
<text text-anchor="start" x="334.7904" y="-344.6299" font-family="Helvetica,sans-Serif" font-size="11.00" fill="#000000">17 &gt;</text>
<polygon fill="#000000" stroke="#000000" points="264.5,-339.5299 264.5,-356.5299 264.5,-356.5299 264.5,-339.5299 264.5,-339.5299"/>
<polygon fill="#000000" stroke="#000000" points="304.5,-339.5299 304.5,-356.5299 304.5,-356.5299 304.5,-339.5299 304.5,-339.5299"/>
</a>
</g>
</g>
<!-- act_ru_deadletter_job&#45;&gt;act_ru_execution -->
<g id="edge9" class="edge">
<title>act_ru_deadletter_job:w&#45;&gt;act_ru_execution:e</title>
<path fill="none" stroke="#000000" d="M398.4685,-1007.7103C364.3679,-949.9202 377.0057,-626.3813 367,-583.5299 351.7464,-518.2036 321.5499,-445.8659 302.7874,-404.2436"/>
<polygon fill="#000000" stroke="#000000" points="403.6455,-1011.6698 407.8129,-1019.3895 406.8228,-1014.0999 410,-1016.5299 410,-1016.5299 410,-1016.5299 406.8228,-1014.0999 412.1871,-1013.6704 403.6455,-1011.6698 403.6455,-1011.6698"/>
<ellipse fill="none" stroke="#000000" cx="401.1037" cy="-1009.7257" rx="3.2" ry="3.2"/>
</g>
<!-- act_ru_deadletter_job&#45;&gt;act_ru_execution -->
<g id="edge11" class="edge">
<title>act_ru_deadletter_job:w&#45;&gt;act_ru_execution:e</title>
<path fill="none" stroke="#000000" d="M398.5834,-985.4381C366.3992,-928.6728 376.5682,-624.0262 367,-583.5299 351.5746,-518.2439 321.4331,-445.8933 302.7279,-404.2576"/>
<polygon fill="#000000" stroke="#000000" points="403.742,-989.5462 407.7573,-997.3461 406.871,-992.0381 410,-994.5299 410,-994.5299 410,-994.5299 406.871,-992.0381 412.2427,-991.7138 403.742,-989.5462 403.742,-989.5462"/>
<ellipse fill="none" stroke="#000000" cx="401.2387" cy="-987.5528" rx="3.2" ry="3.2"/>
</g>
<!-- act_ru_execution&#45;&gt;act_re_procdef -->
<g id="edge13" class="edge">
<title>act_ru_execution:w&#45;&gt;act_re_procdef:e</title>
<path fill="none" stroke="#000000" d="M191.3207,-356.6807C181.0657,-355.2963 170.7428,-353.9027 160.785,-352.5584"/>
<polygon fill="#000000" stroke="#000000" points="197.8008,-357.5555 205.2472,-362.1935 201.7648,-358.0907 205.7288,-358.6258 205.7288,-358.6258 205.7288,-358.6258 201.7648,-358.0907 206.2105,-355.0582 197.8008,-357.5555 197.8008,-357.5555"/>
<ellipse fill="none" stroke="#000000" cx="194.6295" cy="-357.1274" rx="3.2" ry="3.2"/>
</g>
<!-- act_ru_event_subscr -->
<g id="node8" class="node">
<title>act_ru_event_subscr</title>
<g id="a_node8"><a xlink:href="../../tables/act_ru_event_subscr.html" xlink:title="act_ru_event_subscr" target="_top">
<polygon fill="#ffffff" stroke="transparent" points="445.5,-178.0299 445.5,-239.0299 614.5,-239.0299 614.5,-178.0299 445.5,-178.0299"/>
<polygon fill="#f5f5f5" stroke="transparent" points="446,-215.5299 446,-238.5299 615,-238.5299 615,-215.5299 446,-215.5299"/>
<polygon fill="none" stroke="#000000" points="446,-215.5299 446,-238.5299 615,-238.5299 615,-215.5299 446,-215.5299"/>
<text text-anchor="start" x="451" y="-224.1299" font-family="Helvetica,sans-Serif" font-weight="bold" font-size="11.00" fill="#000000">act_ru_event_subscr</text>
<text text-anchor="start" x="580.5219" y="-223.6299" font-family="Helvetica,sans-Serif" font-size="11.00" fill="#000000">[table]</text>
<polygon fill="none" stroke="#000000" points="446,-196.5299 446,-215.5299 615,-215.5299 615,-196.5299 446,-196.5299"/>
<text text-anchor="start" x="449" y="-202.6299" font-family="Helvetica,sans-Serif" font-size="11.00" fill="#000000">...</text>
<polygon fill="#ffffff" stroke="transparent" points="446,-177.5299 446,-196.5299 615,-196.5299 615,-177.5299 446,-177.5299"/>
<polygon fill="none" stroke="#000000" points="446,-177.5299 446,-196.5299 615,-196.5299 615,-177.5299 446,-177.5299"/>
<polygon fill="#ffffff" stroke="transparent" points="447,-178.5299 447,-195.5299 509,-195.5299 509,-178.5299 447,-178.5299"/>
<text text-anchor="start" x="449" y="-183.6299" font-family="Helvetica,sans-Serif" font-size="11.00" fill="#000000">&lt; 1</text>
<polygon fill="#ffffff" stroke="transparent" points="509,-178.5299 509,-195.5299 562,-195.5299 562,-178.5299 509,-178.5299"/>
<text text-anchor="start" x="532.4431" y="-183.6299" font-family="Helvetica,sans-Serif" font-size="11.00" fill="#000000"> &#160;</text>
<polygon fill="#ffffff" stroke="transparent" points="562,-178.5299 562,-195.5299 614,-195.5299 614,-178.5299 562,-178.5299"/>
<text text-anchor="start" x="605.8862" y="-183.6299" font-family="Helvetica,sans-Serif" font-size="11.00" fill="#000000"> &#160;</text>
<polygon fill="#000000" stroke="#000000" points="509,-178.5299 509,-195.5299 509,-195.5299 509,-178.5299 509,-178.5299"/>
<polygon fill="#000000" stroke="#000000" points="562,-178.5299 562,-195.5299 562,-195.5299 562,-178.5299 562,-178.5299"/>
</a>
</g>
</g>
<!-- act_ru_event_subscr&#45;&gt;act_ru_execution -->
<g id="edge12" class="edge">
<title>act_ru_event_subscr:w&#45;&gt;act_ru_execution:e</title>
<path fill="none" stroke="#000000" d="M431.2431,-206.6928C367.6355,-216.7689 323.0614,-289.9939 301.4233,-334.7498"/>
<polygon fill="#000000" stroke="#000000" points="438.0247,-206.1585 446.2828,-209.1188 442.0124,-205.8442 446,-205.5299 446,-205.5299 446,-205.5299 442.0124,-205.8442 445.7172,-201.9411 438.0247,-206.1585 438.0247,-206.1585"/>
<ellipse fill="none" stroke="#000000" cx="434.8346" cy="-206.4099" rx="3.2" ry="3.2"/>
</g>
<!-- act_ru_external_job -->
<g id="node9" class="node">
<title>act_ru_external_job</title>
<g id="a_node9"><a xlink:href="../../tables/act_ru_external_job.html" xlink:title="act_ru_external_job" target="_top">
<polygon fill="#ffffff" stroke="transparent" points="449.5,-1184.0299 449.5,-1245.0299 610.5,-1245.0299 610.5,-1184.0299 449.5,-1184.0299"/>
<polygon fill="#f5f5f5" stroke="transparent" points="450,-1221.5299 450,-1244.5299 611,-1244.5299 611,-1221.5299 450,-1221.5299"/>
<polygon fill="none" stroke="#000000" points="450,-1221.5299 450,-1244.5299 611,-1244.5299 611,-1221.5299 450,-1221.5299"/>
<text text-anchor="start" x="455" y="-1230.1299" font-family="Helvetica,sans-Serif" font-weight="bold" font-size="11.00" fill="#000000">act_ru_external_job</text>
<text text-anchor="start" x="576.5219" y="-1229.6299" font-family="Helvetica,sans-Serif" font-size="11.00" fill="#000000">[table]</text>
<polygon fill="none" stroke="#000000" points="450,-1202.5299 450,-1221.5299 611,-1221.5299 611,-1202.5299 450,-1202.5299"/>
<text text-anchor="start" x="453" y="-1208.6299" font-family="Helvetica,sans-Serif" font-size="11.00" fill="#000000">...</text>
<polygon fill="#ffffff" stroke="transparent" points="450,-1183.5299 450,-1202.5299 611,-1202.5299 611,-1183.5299 450,-1183.5299"/>
<polygon fill="none" stroke="#000000" points="450,-1183.5299 450,-1202.5299 611,-1202.5299 611,-1183.5299 450,-1183.5299"/>
<polygon fill="#ffffff" stroke="transparent" points="451,-1184.5299 451,-1201.5299 510,-1201.5299 510,-1184.5299 451,-1184.5299"/>
<text text-anchor="start" x="453" y="-1189.6299" font-family="Helvetica,sans-Serif" font-size="11.00" fill="#000000">&lt; 2</text>
<polygon fill="#ffffff" stroke="transparent" points="510,-1184.5299 510,-1201.5299 560,-1201.5299 560,-1184.5299 510,-1184.5299"/>
<text text-anchor="start" x="531.9431" y="-1189.6299" font-family="Helvetica,sans-Serif" font-size="11.00" fill="#000000"> &#160;</text>
<polygon fill="#ffffff" stroke="transparent" points="560,-1184.5299 560,-1201.5299 610,-1201.5299 610,-1184.5299 560,-1184.5299"/>
<text text-anchor="start" x="601.8862" y="-1189.6299" font-family="Helvetica,sans-Serif" font-size="11.00" fill="#000000"> &#160;</text>
<polygon fill="#000000" stroke="#000000" points="510,-1184.5299 510,-1201.5299 510,-1201.5299 510,-1184.5299 510,-1184.5299"/>
<polygon fill="#000000" stroke="#000000" points="560,-1184.5299 560,-1201.5299 560,-1201.5299 560,-1184.5299 560,-1184.5299"/>
</a>
</g>
</g>
<!-- act_ru_external_job&#45;&gt;act_ge_bytearray -->
<g id="edge14" class="edge">
<title>act_ru_external_job:w&#45;&gt;act_ge_bytearray:e</title>
<path fill="none" stroke="#000000" d="M436.1681,-1207.3402C418.6602,-1200.0785 410.8758,-1187.4302 400,-1167.5299 372.792,-1117.7454 416.2343,-658.5299 359.5,-664.5299"/>
<polygon fill="#000000" stroke="#000000" points="442.3435,-1209.2107 448.9564,-1214.9754 446.1718,-1210.3703 450,-1211.5299 450,-1211.5299 450,-1211.5299 446.1718,-1210.3703 451.0436,-1208.0845 442.3435,-1209.2107 442.3435,-1209.2107"/>
<ellipse fill="none" stroke="#000000" cx="439.2809" cy="-1208.2831" rx="3.2" ry="3.2"/>
</g>
<!-- act_ru_external_job&#45;&gt;act_ge_bytearray -->
<g id="edge15" class="edge">
<title>act_ru_external_job:w&#45;&gt;act_ge_bytearray:e</title>
<path fill="none" stroke="#000000" d="M435.6658,-1213.3556C418.5102,-1212.8346 410.7712,-1200.2389 400,-1180.5299 372.792,-1130.7454 416.2343,-671.5299 359.5,-664.5299"/>
<polygon fill="#000000" stroke="#000000" points="442.0641,-1212.5407 450.4548,-1215.1011 446.0321,-1212.0353 450,-1211.5299 450,-1211.5299 450,-1211.5299 446.0321,-1212.0353 449.5452,-1207.9588 442.0641,-1212.5407 442.0641,-1212.5407"/>
<ellipse fill="none" stroke="#000000" cx="438.8897" cy="-1212.945" rx="3.2" ry="3.2"/>
</g>
<!-- act_ru_identitylink -->
<g id="node10" class="node">
<title>act_ru_identitylink</title>
<g id="a_node10"><a xlink:href="../../tables/act_ru_identitylink.html" xlink:title="act_ru_identitylink" target="_top">
<polygon fill="#ffffff" stroke="transparent" points="701,-68.0299 701,-129.0299 854,-129.0299 854,-68.0299 701,-68.0299"/>
<polygon fill="#f5f5f5" stroke="transparent" points="701.5,-105.5299 701.5,-128.5299 854.5,-128.5299 854.5,-105.5299 701.5,-105.5299"/>
<polygon fill="none" stroke="#000000" points="701.5,-105.5299 701.5,-128.5299 854.5,-128.5299 854.5,-105.5299 701.5,-105.5299"/>
<text text-anchor="start" x="706.5" y="-114.1299" font-family="Helvetica,sans-Serif" font-weight="bold" font-size="11.00" fill="#000000">act_ru_identitylink</text>
<text text-anchor="start" x="820.0219" y="-113.6299" font-family="Helvetica,sans-Serif" font-size="11.00" fill="#000000">[table]</text>
<polygon fill="none" stroke="#000000" points="701.5,-86.5299 701.5,-105.5299 854.5,-105.5299 854.5,-86.5299 701.5,-86.5299"/>
<text text-anchor="start" x="704.5" y="-92.6299" font-family="Helvetica,sans-Serif" font-size="11.00" fill="#000000">...</text>
<polygon fill="#ffffff" stroke="transparent" points="701.5,-67.5299 701.5,-86.5299 854.5,-86.5299 854.5,-67.5299 701.5,-67.5299"/>
<polygon fill="none" stroke="#000000" points="701.5,-67.5299 701.5,-86.5299 854.5,-86.5299 854.5,-67.5299 701.5,-67.5299"/>
<polygon fill="#ffffff" stroke="transparent" points="702.5,-68.5299 702.5,-85.5299 759.5,-85.5299 759.5,-68.5299 702.5,-68.5299"/>
<text text-anchor="start" x="704.5" y="-73.6299" font-family="Helvetica,sans-Serif" font-size="11.00" fill="#000000">&lt; 3</text>
<polygon fill="#ffffff" stroke="transparent" points="759.5,-68.5299 759.5,-85.5299 806.5,-85.5299 806.5,-68.5299 759.5,-68.5299"/>
<text text-anchor="start" x="779.9431" y="-73.6299" font-family="Helvetica,sans-Serif" font-size="11.00" fill="#000000"> &#160;</text>
<polygon fill="#ffffff" stroke="transparent" points="806.5,-68.5299 806.5,-85.5299 853.5,-85.5299 853.5,-68.5299 806.5,-68.5299"/>
<text text-anchor="start" x="845.3862" y="-73.6299" font-family="Helvetica,sans-Serif" font-size="11.00" fill="#000000"> &#160;</text>
<polygon fill="#000000" stroke="#000000" points="759.5,-68.5299 759.5,-85.5299 759.5,-85.5299 759.5,-68.5299 759.5,-68.5299"/>
<polygon fill="#000000" stroke="#000000" points="806.5,-68.5299 806.5,-85.5299 806.5,-85.5299 806.5,-68.5299 806.5,-68.5299"/>
</a>
</g>
</g>
<!-- act_ru_identitylink&#45;&gt;act_re_procdef -->
<g id="edge16" class="edge">
<title>act_ru_identitylink:w&#45;&gt;act_re_procdef:e</title>
<path fill="none" stroke="#000000" d="M687.7431,-90.8665C678.0176,-82.3024 677.4824,-64.3248 660,-57.5299 552.2937,-15.6678 514.2176,-39.9962 400,-57.5299 310.6624,-71.2443 275.5537,-60.8102 206,-118.5299 145.1161,-169.055 110.8611,-258.8544 95.8253,-308.0117"/>
<polygon fill="#000000" stroke="#000000" points="693.9235,-92.9616 700.3442,-98.9394 697.7117,-94.2458 701.5,-95.5299 701.5,-95.5299 701.5,-95.5299 697.7117,-94.2458 702.6558,-92.1205 693.9235,-92.9616 693.9235,-92.9616"/>
<ellipse fill="none" stroke="#000000" cx="690.8929" cy="-91.9342" rx="3.2" ry="3.2"/>
</g>
<!-- act_ru_identitylink&#45;&gt;act_ru_execution -->
<g id="edge17" class="edge">
<title>act_ru_identitylink:w&#45;&gt;act_ru_execution:e</title>
<path fill="none" stroke="#000000" d="M687.6878,-100.1393C677.2096,-109.4468 678.4331,-130.3754 660,-139.5299 555.9067,-191.2266 497.0203,-103.5376 400,-167.5299 340.5639,-206.7326 309.059,-288.2899 295.2746,-334.8928"/>
<polygon fill="#000000" stroke="#000000" points="693.9114,-98.0624 702.6396,-98.9448 697.7057,-96.7962 701.5,-95.5299 701.5,-95.5299 701.5,-95.5299 697.7057,-96.7962 700.3604,-92.1151 693.9114,-98.0624 693.9114,-98.0624"/>
<ellipse fill="none" stroke="#000000" cx="690.876" cy="-99.0754" rx="3.2" ry="3.2"/>
</g>
<!-- act_ru_task -->
<g id="node11" class="node">
<title>act_ru_task</title>
<g id="a_node11"><a xlink:href="../../tables/act_ru_task.html" xlink:title="act_ru_task" target="_top">
<polygon fill="#ffffff" stroke="transparent" points="474.5,-68.0299 474.5,-129.0299 585.5,-129.0299 585.5,-68.0299 474.5,-68.0299"/>
<polygon fill="#f5f5f5" stroke="transparent" points="475,-105.5299 475,-128.5299 586,-128.5299 586,-105.5299 475,-105.5299"/>
<polygon fill="none" stroke="#000000" points="475,-105.5299 475,-128.5299 586,-128.5299 586,-105.5299 475,-105.5299"/>
<text text-anchor="start" x="480" y="-114.1299" font-family="Helvetica,sans-Serif" font-weight="bold" font-size="11.00" fill="#000000">act_ru_task</text>
<text text-anchor="start" x="551.5219" y="-113.6299" font-family="Helvetica,sans-Serif" font-size="11.00" fill="#000000">[table]</text>
<polygon fill="none" stroke="#000000" points="475,-86.5299 475,-105.5299 586,-105.5299 586,-86.5299 475,-86.5299"/>
<text text-anchor="start" x="478" y="-92.6299" font-family="Helvetica,sans-Serif" font-size="11.00" fill="#000000">...</text>
<polygon fill="#ffffff" stroke="transparent" points="475,-67.5299 475,-86.5299 586,-86.5299 586,-67.5299 475,-67.5299"/>
<polygon fill="none" stroke="#000000" points="475,-67.5299 475,-86.5299 586,-86.5299 586,-67.5299 475,-67.5299"/>
<polygon fill="#ffffff" stroke="transparent" points="476,-68.5299 476,-85.5299 516,-85.5299 516,-68.5299 476,-68.5299"/>
<text text-anchor="start" x="478" y="-73.6299" font-family="Helvetica,sans-Serif" font-size="11.00" fill="#000000">&lt; 3</text>
<polygon fill="#ffffff" stroke="transparent" points="516,-68.5299 516,-85.5299 546,-85.5299 546,-68.5299 516,-68.5299"/>
<text text-anchor="start" x="527.9431" y="-73.6299" font-family="Helvetica,sans-Serif" font-size="11.00" fill="#000000"> &#160;</text>
<polygon fill="#ffffff" stroke="transparent" points="546,-68.5299 546,-85.5299 585,-85.5299 585,-68.5299 546,-68.5299"/>
<text text-anchor="start" x="567.4053" y="-73.6299" font-family="Helvetica,sans-Serif" font-size="11.00" fill="#000000">1 &gt;</text>
<polygon fill="#000000" stroke="#000000" points="516,-68.5299 516,-85.5299 516,-85.5299 516,-68.5299 516,-68.5299"/>
<polygon fill="#000000" stroke="#000000" points="546,-68.5299 546,-85.5299 546,-85.5299 546,-68.5299 546,-68.5299"/>
</a>
</g>
</g>
<!-- act_ru_identitylink&#45;&gt;act_ru_task -->
<g id="edge18" class="edge">
<title>act_ru_identitylink:w&#45;&gt;act_ru_task:e</title>
<path fill="none" stroke="#000000" d="M686.9701,-95.5299C647.1628,-95.5299 632.1198,-95.5299 586,-95.5299"/>
<polygon fill="#000000" stroke="#000000" points="693.5,-95.53 701.5,-99.1299 697.5,-95.53 701.5,-95.5299 701.5,-95.5299 701.5,-95.5299 697.5,-95.53 701.5,-91.9299 693.5,-95.53 693.5,-95.53"/>
<ellipse fill="none" stroke="#000000" cx="690.3" cy="-95.53" rx="3.2" ry="3.2"/>
</g>
<!-- act_ru_task&#45;&gt;act_re_procdef -->
<g id="edge30" class="edge">
<title>act_ru_task:w&#45;&gt;act_re_procdef:e</title>
<path fill="none" stroke="#000000" d="M460.3701,-95.9463C309.6077,-104.4814 172.3532,-242.072 114.9302,-307.9256"/>
<polygon fill="#000000" stroke="#000000" points="467.0032,-95.7576 475.1024,-99.1285 471.0016,-95.6438 475,-95.5299 475,-95.5299 475,-95.5299 471.0016,-95.6438 474.8976,-91.9314 467.0032,-95.7576 467.0032,-95.7576"/>
<ellipse fill="none" stroke="#000000" cx="463.8045" cy="-95.8486" rx="3.2" ry="3.2"/>
</g>
<!-- act_ru_task&#45;&gt;act_ru_execution -->
<g id="edge29" class="edge">
<title>act_ru_task:w&#45;&gt;act_ru_execution:e</title>
<path fill="none" stroke="#000000" d="M460.3631,-94.4132C432.6541,-94.8179 422.8712,-112.15 400,-137.5299 372.0772,-168.5157 323.0817,-277.9973 299.6744,-334.8422"/>
<polygon fill="#000000" stroke="#000000" points="467.0232,-94.9213 474.7261,-99.1195 471.0116,-95.2256 475,-95.5299 475,-95.5299 475,-95.5299 471.0116,-95.2256 475.2739,-91.9404 467.0232,-94.9213 467.0232,-94.9213"/>
<ellipse fill="none" stroke="#000000" cx="463.8325" cy="-94.6779" rx="3.2" ry="3.2"/>
</g>
<!-- act_ru_task&#45;&gt;act_ru_execution -->
<g id="edge31" class="edge">
<title>act_ru_task:w&#45;&gt;act_ru_execution:e</title>
<path fill="none" stroke="#000000" d="M460.7403,-98.931C432.7423,-107.6612 422.9746,-125.0351 400,-150.5299 373.3999,-180.048 327.6761,-280.8015 303.168,-334.8292"/>
<polygon fill="#000000" stroke="#000000" points="467.2183,-97.386 475.8352,-99.0317 471.1091,-96.458 475,-95.5299 475,-95.5299 475,-95.5299 471.1091,-96.458 474.1648,-92.0282 467.2183,-97.386 467.2183,-97.386"/>
<ellipse fill="none" stroke="#000000" cx="464.1056" cy="-98.1284" rx="3.2" ry="3.2"/>
</g>
<!-- act_ru_job -->
<g id="node12" class="node">
<title>act_ru_job</title>
<g id="a_node12"><a xlink:href="../../tables/act_ru_job.html" xlink:title="act_ru_job" target="_top">
<polygon fill="#ffffff" stroke="transparent" points="478,-506.0299 478,-567.0299 582,-567.0299 582,-506.0299 478,-506.0299"/>
<polygon fill="#f5f5f5" stroke="transparent" points="478,-543.5299 478,-566.5299 582,-566.5299 582,-543.5299 478,-543.5299"/>
<polygon fill="none" stroke="#000000" points="478,-543.5299 478,-566.5299 582,-566.5299 582,-543.5299 478,-543.5299"/>
<text text-anchor="start" x="483" y="-552.1299" font-family="Helvetica,sans-Serif" font-weight="bold" font-size="11.00" fill="#000000">act_ru_job</text>
<text text-anchor="start" x="547.5219" y="-551.6299" font-family="Helvetica,sans-Serif" font-size="11.00" fill="#000000">[table]</text>
<polygon fill="none" stroke="#000000" points="478,-524.5299 478,-543.5299 582,-543.5299 582,-524.5299 478,-524.5299"/>
<text text-anchor="start" x="481" y="-530.6299" font-family="Helvetica,sans-Serif" font-size="11.00" fill="#000000">...</text>
<polygon fill="#ffffff" stroke="transparent" points="478,-505.5299 478,-524.5299 582,-524.5299 582,-505.5299 478,-505.5299"/>
<polygon fill="none" stroke="#000000" points="478,-505.5299 478,-524.5299 582,-524.5299 582,-505.5299 478,-505.5299"/>
<polygon fill="#ffffff" stroke="transparent" points="479,-506.5299 479,-523.5299 519,-523.5299 519,-506.5299 479,-506.5299"/>
<text text-anchor="start" x="481" y="-511.6299" font-family="Helvetica,sans-Serif" font-size="11.00" fill="#000000">&lt; 5</text>
<polygon fill="#ffffff" stroke="transparent" points="519,-506.5299 519,-523.5299 550,-523.5299 550,-506.5299 519,-506.5299"/>
<text text-anchor="start" x="531.4431" y="-511.6299" font-family="Helvetica,sans-Serif" font-size="11.00" fill="#000000"> &#160;</text>
<polygon fill="#ffffff" stroke="transparent" points="550,-506.5299 550,-523.5299 581,-523.5299 581,-506.5299 550,-506.5299"/>
<text text-anchor="start" x="572.8862" y="-511.6299" font-family="Helvetica,sans-Serif" font-size="11.00" fill="#000000"> &#160;</text>
<polygon fill="#000000" stroke="#000000" points="519,-506.5299 519,-523.5299 519,-523.5299 519,-506.5299 519,-506.5299"/>
<polygon fill="#000000" stroke="#000000" points="550,-506.5299 550,-523.5299 550,-523.5299 550,-506.5299 550,-506.5299"/>
</a>
</g>
</g>
<!-- act_ru_job&#45;&gt;act_ge_bytearray -->
<g id="edge19" class="edge">
<title>act_ru_job:w&#45;&gt;act_ge_bytearray:e</title>
<path fill="none" stroke="#000000" d="M463.4896,-532.2617C434.802,-531.9052 423.5001,-546.9897 400,-572.5299 371.3933,-603.6201 401.7485,-658.5299 359.5,-664.5299"/>
<polygon fill="#000000" stroke="#000000" points="470.0304,-532.8333 477.6865,-537.1163 474.0152,-533.1816 478,-533.5299 478,-533.5299 478,-533.5299 474.0152,-533.1816 478.3135,-529.9436 470.0304,-532.8333 470.0304,-532.8333"/>
<ellipse fill="none" stroke="#000000" cx="466.8425" cy="-532.5547" rx="3.2" ry="3.2"/>
</g>
<!-- act_ru_job&#45;&gt;act_ge_bytearray -->
<g id="edge20" class="edge">
<title>act_ru_job:w&#45;&gt;act_ge_bytearray:e</title>
<path fill="none" stroke="#000000" d="M463.8783,-536.6746C434.9036,-544.7695 423.606,-559.8746 400,-585.5299 371.3933,-616.6201 401.7485,-671.5299 359.5,-664.5299"/>
<polygon fill="#000000" stroke="#000000" points="470.1913,-535.2689 478.7825,-537.0439 474.0956,-534.3994 478,-533.5299 478,-533.5299 478,-533.5299 474.0956,-534.3994 477.2175,-530.016 470.1913,-535.2689 470.1913,-535.2689"/>
<ellipse fill="none" stroke="#000000" cx="467.0678" cy="-535.9644" rx="3.2" ry="3.2"/>
</g>
<!-- act_ru_job&#45;&gt;act_re_procdef -->
<g id="edge22" class="edge">
<title>act_ru_job:w&#45;&gt;act_re_procdef:e</title>
<path fill="none" stroke="#000000" d="M463.5327,-533.1806C327.2485,-526.6545 191.3309,-430.2783 126.2115,-377.1186"/>
<polygon fill="#000000" stroke="#000000" points="470.0023,-533.3368 477.9131,-537.1289 474.0012,-533.4334 478,-533.5299 478,-533.5299 478,-533.5299 474.0012,-533.4334 478.0869,-529.931 470.0023,-533.3368 470.0023,-533.3368"/>
<ellipse fill="none" stroke="#000000" cx="466.8033" cy="-533.2595" rx="3.2" ry="3.2"/>
</g>
<!-- act_ru_job&#45;&gt;act_ru_execution -->
<g id="edge21" class="edge">
<title>act_ru_job:w&#45;&gt;act_ru_execution:e</title>
<path fill="none" stroke="#000000" d="M463.7287,-530.5764C436.663,-523.3253 426.5929,-509.5554 400,-489.5299 367.4264,-465.0009 336.8773,-430.1331 315.6963,-404.2432"/>
<polygon fill="#000000" stroke="#000000" points="470.166,-531.9086 477.2704,-537.0552 474.083,-532.7193 478,-533.5299 478,-533.5299 478,-533.5299 474.083,-532.7193 478.7296,-530.0047 470.166,-531.9086 470.166,-531.9086"/>
<ellipse fill="none" stroke="#000000" cx="467.0324" cy="-531.2601" rx="3.2" ry="3.2"/>
</g>
<!-- act_ru_job&#45;&gt;act_ru_execution -->
<g id="edge23" class="edge">
<title>act_ru_job:w&#45;&gt;act_ru_execution:e</title>
<path fill="none" stroke="#000000" d="M463.3624,-535.2269C436.5715,-536.2006 426.4726,-522.4648 400,-502.5299 362.9578,-474.6359 328.5336,-433.3719 307.527,-404.1175"/>
<polygon fill="#000000" stroke="#000000" points="470.0532,-534.4513 478.4146,-537.106 474.0266,-533.9906 478,-533.5299 478,-533.5299 478,-533.5299 474.0266,-533.9906 477.5854,-529.9539 470.0532,-534.4513 470.0532,-534.4513"/>
<ellipse fill="none" stroke="#000000" cx="466.8745" cy="-534.8198" rx="3.2" ry="3.2"/>
</g>
<!-- act_ru_suspended_job -->
<g id="node13" class="node">
<title>act_ru_suspended_job</title>
<g id="a_node13"><a xlink:href="../../tables/act_ru_suspended_job.html" xlink:title="act_ru_suspended_job" target="_top">
<polygon fill="#ffffff" stroke="transparent" points="440,-342.0299 440,-403.0299 620,-403.0299 620,-342.0299 440,-342.0299"/>
<polygon fill="#f5f5f5" stroke="transparent" points="440,-379.5299 440,-402.5299 620,-402.5299 620,-379.5299 440,-379.5299"/>
<polygon fill="none" stroke="#000000" points="440,-379.5299 440,-402.5299 620,-402.5299 620,-379.5299 440,-379.5299"/>
<text text-anchor="start" x="445" y="-388.1299" font-family="Helvetica,sans-Serif" font-weight="bold" font-size="11.00" fill="#000000">act_ru_suspended_job</text>
<text text-anchor="start" x="585.5219" y="-387.6299" font-family="Helvetica,sans-Serif" font-size="11.00" fill="#000000">[table]</text>
<polygon fill="none" stroke="#000000" points="440,-360.5299 440,-379.5299 620,-379.5299 620,-360.5299 440,-360.5299"/>
<text text-anchor="start" x="443" y="-366.6299" font-family="Helvetica,sans-Serif" font-size="11.00" fill="#000000">...</text>
<polygon fill="#ffffff" stroke="transparent" points="440,-341.5299 440,-360.5299 620,-360.5299 620,-341.5299 440,-341.5299"/>
<polygon fill="none" stroke="#000000" points="440,-341.5299 440,-360.5299 620,-360.5299 620,-341.5299 440,-341.5299"/>
<polygon fill="#ffffff" stroke="transparent" points="441,-342.5299 441,-359.5299 507,-359.5299 507,-342.5299 441,-342.5299"/>
<text text-anchor="start" x="443" y="-347.6299" font-family="Helvetica,sans-Serif" font-size="11.00" fill="#000000">&lt; 5</text>
<polygon fill="#ffffff" stroke="transparent" points="507,-342.5299 507,-359.5299 563,-359.5299 563,-342.5299 507,-342.5299"/>
<text text-anchor="start" x="531.9431" y="-347.6299" font-family="Helvetica,sans-Serif" font-size="11.00" fill="#000000"> &#160;</text>
<polygon fill="#ffffff" stroke="transparent" points="563,-342.5299 563,-359.5299 619,-359.5299 619,-342.5299 563,-342.5299"/>
<text text-anchor="start" x="610.8862" y="-347.6299" font-family="Helvetica,sans-Serif" font-size="11.00" fill="#000000"> &#160;</text>
<polygon fill="#000000" stroke="#000000" points="507,-342.5299 507,-359.5299 507,-359.5299 507,-342.5299 507,-342.5299"/>
<polygon fill="#000000" stroke="#000000" points="563,-342.5299 563,-359.5299 563,-359.5299 563,-342.5299 563,-342.5299"/>
</a>
</g>
</g>
<!-- act_ru_suspended_job&#45;&gt;act_ge_bytearray -->
<g id="edge24" class="edge">
<title>act_ru_suspended_job:w&#45;&gt;act_ge_bytearray:e</title>
<path fill="none" stroke="#000000" d="M425.3911,-369.2224C412.1381,-372.8643 408.8707,-389.1142 400,-407.5299 375.481,-458.4316 415.9992,-658.5299 359.5,-664.5299"/>
<polygon fill="#000000" stroke="#000000" points="432.0018,-369.3615 439.9242,-373.1292 436.0009,-369.4457 440,-369.5299 440,-369.5299 440,-369.5299 436.0009,-369.4457 440.0758,-365.9307 432.0018,-369.3615 432.0018,-369.3615"/>
<ellipse fill="none" stroke="#000000" cx="428.8025" cy="-369.2941" rx="3.2" ry="3.2"/>
</g>
<!-- act_ru_suspended_job&#45;&gt;act_ge_bytearray -->
<g id="edge25" class="edge">
<title>act_ru_suspended_job:w&#45;&gt;act_ge_bytearray:e</title>
<path fill="none" stroke="#000000" d="M426.6238,-375.348C412.3309,-384.8814 409.1395,-401.5562 400,-420.5299 375.481,-471.4316 415.9992,-671.5299 359.5,-664.5299"/>
<polygon fill="#000000" stroke="#000000" points="432.6639,-372.7209 441.4359,-372.8312 436.3319,-371.1254 440,-369.5299 440,-369.5299 440,-369.5299 436.3319,-371.1254 438.5641,-366.2287 432.6639,-372.7209 432.6639,-372.7209"/>
<ellipse fill="none" stroke="#000000" cx="429.7295" cy="-373.9972" rx="3.2" ry="3.2"/>
</g>
<!-- act_ru_suspended_job&#45;&gt;act_re_procdef -->
<g id="edge27" class="edge">
<title>act_ru_suspended_job:w&#45;&gt;act_re_procdef:e</title>
<path fill="none" stroke="#000000" d="M425.6621,-367.6181C402.0535,-360.6423 397.6562,-336.5497 367,-328.5299 297.774,-310.4202 277.4339,-324.3598 206,-328.5299 191.2987,-329.3882 175.6317,-330.8355 160.6459,-332.4823"/>
<polygon fill="#000000" stroke="#000000" points="432.0702,-368.4725 439.5242,-373.0984 436.0351,-369.0012 440,-369.5299 440,-369.5299 440,-369.5299 436.0351,-369.0012 440.4758,-365.9615 432.0702,-368.4725 432.0702,-368.4725"/>
<ellipse fill="none" stroke="#000000" cx="428.8983" cy="-368.0496" rx="3.2" ry="3.2"/>
</g>
<!-- act_ru_suspended_job&#45;&gt;act_ru_execution -->
<g id="edge26" class="edge">
<title>act_ru_suspended_job:w&#45;&gt;act_ru_execution:e</title>
<path fill="none" stroke="#000000" d="M425.4112,-368.3547C406.0964,-366.934 386.0325,-365.9686 367.3591,-365.4585"/>
<polygon fill="#000000" stroke="#000000" points="432.0258,-368.8875 439.7109,-373.1183 436.0129,-369.2087 440,-369.5299 440,-369.5299 440,-369.5299 436.0129,-369.2087 440.2891,-365.9416 432.0258,-368.8875 432.0258,-368.8875"/>
<ellipse fill="none" stroke="#000000" cx="428.8362" cy="-368.6306" rx="3.2" ry="3.2"/>
</g>
<!-- act_ru_suspended_job&#45;&gt;act_ru_execution -->
<g id="edge28" class="edge">
<title>act_ru_suspended_job:w&#45;&gt;act_ru_execution:e</title>
<path fill="none" stroke="#000000" d="M425.4112,-370.901C406.0964,-372.5586 386.0325,-373.6849 367.3591,-374.28"/>
<polygon fill="#000000" stroke="#000000" points="432.0351,-370.2786 440.3369,-373.1142 436.0175,-369.9043 440,-369.5299 440,-369.5299 440,-369.5299 436.0175,-369.9043 439.6631,-365.9457 432.0351,-370.2786 432.0351,-370.2786"/>
<ellipse fill="none" stroke="#000000" cx="428.8491" cy="-370.578" rx="3.2" ry="3.2"/>
</g>
<!-- act_ru_timer_job -->
<g id="node14" class="node">
<title>act_ru_timer_job</title>
<g id="a_node14"><a xlink:href="../../tables/act_ru_timer_job.html" xlink:title="act_ru_timer_job" target="_top">
<polygon fill="#ffffff" stroke="transparent" points="458.5,-260.0299 458.5,-321.0299 601.5,-321.0299 601.5,-260.0299 458.5,-260.0299"/>
<polygon fill="#f5f5f5" stroke="transparent" points="459,-297.5299 459,-320.5299 602,-320.5299 602,-297.5299 459,-297.5299"/>
<polygon fill="none" stroke="#000000" points="459,-297.5299 459,-320.5299 602,-320.5299 602,-297.5299 459,-297.5299"/>
<text text-anchor="start" x="464" y="-306.1299" font-family="Helvetica,sans-Serif" font-weight="bold" font-size="11.00" fill="#000000">act_ru_timer_job</text>
<text text-anchor="start" x="567.5219" y="-305.6299" font-family="Helvetica,sans-Serif" font-size="11.00" fill="#000000">[table]</text>
<polygon fill="none" stroke="#000000" points="459,-278.5299 459,-297.5299 602,-297.5299 602,-278.5299 459,-278.5299"/>
<text text-anchor="start" x="462" y="-284.6299" font-family="Helvetica,sans-Serif" font-size="11.00" fill="#000000">...</text>
<polygon fill="#ffffff" stroke="transparent" points="459,-259.5299 459,-278.5299 602,-278.5299 602,-259.5299 459,-259.5299"/>
<polygon fill="none" stroke="#000000" points="459,-259.5299 459,-278.5299 602,-278.5299 602,-259.5299 459,-259.5299"/>
<polygon fill="#ffffff" stroke="transparent" points="460,-260.5299 460,-277.5299 513,-277.5299 513,-260.5299 460,-260.5299"/>
<text text-anchor="start" x="462" y="-265.6299" font-family="Helvetica,sans-Serif" font-size="11.00" fill="#000000">&lt; 5</text>
<polygon fill="#ffffff" stroke="transparent" points="513,-260.5299 513,-277.5299 557,-277.5299 557,-260.5299 513,-260.5299"/>
<text text-anchor="start" x="531.9431" y="-265.6299" font-family="Helvetica,sans-Serif" font-size="11.00" fill="#000000"> &#160;</text>
<polygon fill="#ffffff" stroke="transparent" points="557,-260.5299 557,-277.5299 601,-277.5299 601,-260.5299 557,-260.5299"/>
<text text-anchor="start" x="592.8862" y="-265.6299" font-family="Helvetica,sans-Serif" font-size="11.00" fill="#000000"> &#160;</text>
<polygon fill="#000000" stroke="#000000" points="513,-260.5299 513,-277.5299 513,-277.5299 513,-260.5299 513,-260.5299"/>
<polygon fill="#000000" stroke="#000000" points="557,-260.5299 557,-277.5299 557,-277.5299 557,-260.5299 557,-260.5299"/>
</a>
</g>
</g>
<!-- act_ru_timer_job&#45;&gt;act_ge_bytearray -->
<g id="edge32" class="edge">
<title>act_ru_timer_job:w&#45;&gt;act_ge_bytearray:e</title>
<path fill="none" stroke="#000000" d="M444.614,-286.2891C422.8715,-287.0214 413.7177,-301.8752 400,-325.5299 362.6034,-390.0163 434.0453,-658.5299 359.5,-664.5299"/>
<polygon fill="#000000" stroke="#000000" points="451.0296,-286.8424 458.6906,-291.1166 455.0148,-287.1862 459,-287.5299 459,-287.5299 459,-287.5299 455.0148,-287.1862 459.3094,-283.9433 451.0296,-286.8424 451.0296,-286.8424"/>
<ellipse fill="none" stroke="#000000" cx="447.8414" cy="-286.5674" rx="3.2" ry="3.2"/>
</g>
<!-- act_ru_timer_job&#45;&gt;act_ge_bytearray -->
<g id="edge33" class="edge">
<title>act_ru_timer_job:w&#45;&gt;act_ge_bytearray:e</title>
<path fill="none" stroke="#000000" d="M444.9196,-291.5789C422.957,-299.8828 413.7818,-314.7647 400,-338.5299 362.6034,-403.0163 434.0453,-671.5299 359.5,-664.5299"/>
<polygon fill="#000000" stroke="#000000" points="451.3116,-289.7409 459.9949,-290.9897 455.1558,-288.6354 459,-287.5299 459,-287.5299 459,-287.5299 455.1558,-288.6354 458.0051,-284.0702 451.3116,-289.7409 451.3116,-289.7409"/>
<ellipse fill="none" stroke="#000000" cx="448.2362" cy="-290.6252" rx="3.2" ry="3.2"/>
</g>
<!-- act_ru_timer_job&#45;&gt;act_re_procdef -->
<g id="edge35" class="edge">
<title>act_ru_timer_job:w&#45;&gt;act_re_procdef:e</title>
<path fill="none" stroke="#000000" d="M444.5331,-287.6627C343.7252,-289.4848 231.9849,-309.6864 160.5867,-325.052"/>
<polygon fill="#000000" stroke="#000000" points="451.0003,-287.6034 459.0331,-291.1298 455.0002,-287.5667 459,-287.5299 459,-287.5299 459,-287.5299 455.0002,-287.5667 458.9669,-283.9301 451.0003,-287.6034 451.0003,-287.6034"/>
<ellipse fill="none" stroke="#000000" cx="447.8005" cy="-287.6328" rx="3.2" ry="3.2"/>
</g>
<!-- act_ru_timer_job&#45;&gt;act_ru_execution -->
<g id="edge34" class="edge">
<title>act_ru_timer_job:w&#45;&gt;act_ru_execution:e</title>
<path fill="none" stroke="#000000" d="M444.3696,-287.3357C399.3303,-289.2262 354.9839,-313.2311 324.8159,-334.8682"/>
<polygon fill="#000000" stroke="#000000" points="451.0007,-287.4237 458.9522,-291.1296 455.0004,-287.4768 459,-287.5299 459,-287.5299 459,-287.5299 455.0004,-287.4768 459.0478,-283.9303 451.0007,-287.4237 451.0007,-287.4237"/>
<ellipse fill="none" stroke="#000000" cx="447.801" cy="-287.3812" rx="3.2" ry="3.2"/>
</g>
<!-- act_ru_timer_job&#45;&gt;act_ru_execution -->
<g id="edge36" class="edge">
<title>act_ru_timer_job:w&#45;&gt;act_ru_execution:e</title>
<path fill="none" stroke="#000000" d="M444.5377,-289.4164C406.0739,-296.2046 368.1033,-316.4744 339.0241,-334.979"/>
<polygon fill="#000000" stroke="#000000" points="451.0672,-288.5647 459.4657,-291.0997 455.0336,-288.0473 459,-287.5299 459,-287.5299 459,-287.5299 455.0336,-288.0473 458.5343,-283.9602 451.0672,-288.5647 451.0672,-288.5647"/>
<ellipse fill="none" stroke="#000000" cx="447.8941" cy="-288.9787" rx="3.2" ry="3.2"/>
</g>
<!-- act_ru_variable -->
<g id="node15" class="node">
<title>act_ru_variable</title>
<g id="a_node15"><a xlink:href="../../tables/act_ru_variable.html" xlink:title="act_ru_variable" target="_top">
<polygon fill="#ffffff" stroke="transparent" points="463,-424.0299 463,-485.0299 597,-485.0299 597,-424.0299 463,-424.0299"/>
<polygon fill="#f5f5f5" stroke="transparent" points="463,-461.5299 463,-484.5299 597,-484.5299 597,-461.5299 463,-461.5299"/>
<polygon fill="none" stroke="#000000" points="463,-461.5299 463,-484.5299 597,-484.5299 597,-461.5299 463,-461.5299"/>
<text text-anchor="start" x="468" y="-470.1299" font-family="Helvetica,sans-Serif" font-weight="bold" font-size="11.00" fill="#000000">act_ru_variable</text>
<text text-anchor="start" x="562.5219" y="-469.6299" font-family="Helvetica,sans-Serif" font-size="11.00" fill="#000000">[table]</text>
<polygon fill="none" stroke="#000000" points="463,-442.5299 463,-461.5299 597,-461.5299 597,-442.5299 463,-442.5299"/>
<text text-anchor="start" x="466" y="-448.6299" font-family="Helvetica,sans-Serif" font-size="11.00" fill="#000000">...</text>
<polygon fill="#ffffff" stroke="transparent" points="463,-423.5299 463,-442.5299 597,-442.5299 597,-423.5299 463,-423.5299"/>
<polygon fill="none" stroke="#000000" points="463,-423.5299 463,-442.5299 597,-442.5299 597,-423.5299 463,-423.5299"/>
<polygon fill="#ffffff" stroke="transparent" points="464,-424.5299 464,-441.5299 514,-441.5299 514,-424.5299 464,-424.5299"/>
<text text-anchor="start" x="466" y="-429.6299" font-family="Helvetica,sans-Serif" font-size="11.00" fill="#000000">&lt; 3</text>
<polygon fill="#ffffff" stroke="transparent" points="514,-424.5299 514,-441.5299 555,-441.5299 555,-424.5299 514,-424.5299"/>
<text text-anchor="start" x="531.4431" y="-429.6299" font-family="Helvetica,sans-Serif" font-size="11.00" fill="#000000"> &#160;</text>
<polygon fill="#ffffff" stroke="transparent" points="555,-424.5299 555,-441.5299 596,-441.5299 596,-424.5299 555,-424.5299"/>
<text text-anchor="start" x="587.8862" y="-429.6299" font-family="Helvetica,sans-Serif" font-size="11.00" fill="#000000"> &#160;</text>
<polygon fill="#000000" stroke="#000000" points="514,-424.5299 514,-441.5299 514,-441.5299 514,-424.5299 514,-424.5299"/>
<polygon fill="#000000" stroke="#000000" points="555,-424.5299 555,-441.5299 555,-441.5299 555,-424.5299 555,-424.5299"/>
</a>
</g>
</g>
<!-- act_ru_variable&#45;&gt;act_ge_bytearray -->
<g id="edge37" class="edge">
<title>act_ru_variable:w&#45;&gt;act_ge_bytearray:e</title>
<path fill="none" stroke="#000000" d="M448.3385,-452.7303C425.5208,-456.9028 416.1524,-471.8272 400,-495.5299 356.5048,-559.3566 436.7378,-664.5299 359.5,-664.5299"/>
<polygon fill="#000000" stroke="#000000" points="455.0267,-452.1828 463.2938,-455.1179 459.0133,-451.8564 463,-451.5299 463,-451.5299 463,-451.5299 459.0133,-451.8564 462.7062,-447.942 455.0267,-452.1828 455.0267,-452.1828"/>
<ellipse fill="none" stroke="#000000" cx="451.8373" cy="-452.4439" rx="3.2" ry="3.2"/>
</g>
<!-- act_ru_variable&#45;&gt;act_ru_execution -->
<g id="edge38" class="edge">
<title>act_ru_variable:w&#45;&gt;act_ru_execution:e</title>
<path fill="none" stroke="#000000" d="M448.6106,-449.8613C408.7549,-443.4567 369.2536,-422.878 339.2226,-404.1131"/>
<polygon fill="#000000" stroke="#000000" points="455.0533,-450.6084 462.5853,-455.106 459.0266,-451.0692 463,-451.5299 463,-451.5299 463,-451.5299 459.0266,-451.0692 463.4147,-447.9539 455.0533,-450.6084 455.0533,-450.6084"/>
<ellipse fill="none" stroke="#000000" cx="451.8746" cy="-450.2397" rx="3.2" ry="3.2"/>
</g>
<!-- act_ru_variable&#45;&gt;act_ru_execution -->
<g id="edge39" class="edge">
<title>act_ru_variable:w&#45;&gt;act_ru_execution:e</title>
<path fill="none" stroke="#000000" d="M448.5392,-451.8999C401.9423,-450.6084 355.8373,-426.1914 324.7925,-404.1993"/>
<polygon fill="#000000" stroke="#000000" points="455.0026,-451.7346 463.0921,-455.1288 459.0013,-451.6323 463,-451.5299 463,-451.5299 463,-451.5299 459.0013,-451.6323 462.9079,-447.9311 455.0026,-451.7346 455.0026,-451.7346"/>
<ellipse fill="none" stroke="#000000" cx="451.8037" cy="-451.8164" rx="3.2" ry="3.2"/>
</g>
</g>
</svg>
