<?xml version="1.0" encoding="UTF-8" standalone="no"?>
<!DOCTYPE svg PUBLIC "-//W3C//DTD SVG 1.1//EN"
 "http://www.w3.org/Graphics/SVG/1.1/DTD/svg11.dtd">
<!-- Generated by graphviz version 2.40.1 (20161225.0304)
 -->
<!-- Title: oneDegreeRelationshipsDiagram Pages: 1 -->
<svg width="437pt" height="347pt"
 viewBox="0.00 0.00 437.00 347.20" xmlns="http://www.w3.org/2000/svg" xmlns:xlink="http://www.w3.org/1999/xlink">
<g id="graph0" class="graph" transform="scale(1 1) rotate(0) translate(4 343.2)">
<title>oneDegreeRelationshipsDiagram</title>
<polygon fill="#ffffff" stroke="transparent" points="-4,4 -4,-343.2 433,-343.2 433,4 -4,4"/>
<text text-anchor="middle" x="72.4936" y="-7.3" font-family="Helvetica,sans-Serif" font-size="11.00" fill="#000000">Generated by SchemaSpy</text>
<!-- act_procdef_info -->
<g id="node1" class="node">
<title>act_procdef_info</title>
<g id="a_node1"><a xlink:href="../../tables/act_procdef_info.html" xlink:title="act_procdef_info" target="_top">
<polygon fill="#ffffff" stroke="transparent" points="231,-150.7 231,-284.7 421,-284.7 421,-150.7 231,-150.7"/>
<polygon fill="#f5f5f5" stroke="transparent" points="233,-259.7 233,-282.7 419,-282.7 419,-259.7 233,-259.7"/>
<polygon fill="none" stroke="#000000" points="233,-259.7 233,-282.7 419,-282.7 419,-259.7 233,-259.7"/>
<text text-anchor="start" x="238" y="-268.3" font-family="Helvetica,sans-Serif" font-weight="bold" font-size="11.00" fill="#000000">act_procdef_info</text>
<text text-anchor="start" x="384.0437" y="-267.8" font-family="Helvetica,sans-Serif" font-size="11.00" fill="#000000">[table]</text>
<polygon fill="none" stroke="#000000" points="233,-237.7 233,-259.7 358,-259.7 358,-237.7 233,-237.7"/>
<image xlink:href="../../images/primaryKeys.png" width="11px" height="12px" preserveAspectRatio="xMinYMin meet" x="238" y="-254.7"/>
<text text-anchor="start" x="253" y="-244.8" font-family="Helvetica,sans-Serif" font-size="11.00" fill="#000000">id_</text>
<polygon fill="none" stroke="#000000" points="358,-237.7 358,-259.7 419,-259.7 419,-237.7 358,-237.7"/>
<text text-anchor="start" x="360.994" y="-245.4" font-family="Helvetica,sans-Serif" font-size="11.00" fill="#000000">varchar[64]</text>
<polygon fill="#ffffff" stroke="transparent" points="233,-215.7 233,-237.7 358,-237.7 358,-215.7 233,-215.7"/>
<polygon fill="none" stroke="#000000" points="233,-215.7 233,-237.7 358,-237.7 358,-215.7 233,-215.7"/>
<image xlink:href="../../images/foreignKeys.png" width="11px" height="12px" preserveAspectRatio="xMinYMin meet" x="238" y="-232.7"/>
<text text-anchor="start" x="253" y="-222.8" font-family="Helvetica,sans-Serif" font-size="11.00" fill="#000000">proc_def_id_</text>
<polygon fill="none" stroke="#000000" points="358,-215.7 358,-237.7 419,-237.7 419,-215.7 358,-215.7"/>
<text text-anchor="start" x="360.994" y="-223.4" font-family="Helvetica,sans-Serif" font-size="11.00" fill="#000000">varchar[64]</text>
<polygon fill="none" stroke="#000000" points="233,-193.7 233,-215.7 358,-215.7 358,-193.7 233,-193.7"/>
<text text-anchor="start" x="253" y="-200.8" font-family="Helvetica,sans-Serif" font-size="11.00" fill="#000000">rev_</text>
<polygon fill="none" stroke="#000000" points="358,-193.7 358,-215.7 419,-215.7 419,-193.7 358,-193.7"/>
<text text-anchor="start" x="361" y="-201.4" font-family="Helvetica,sans-Serif" font-size="11.00" fill="#000000">int4[10]</text>
<polygon fill="#ffffff" stroke="transparent" points="233,-171.7 233,-193.7 358,-193.7 358,-171.7 233,-171.7"/>
<polygon fill="none" stroke="#000000" points="233,-171.7 233,-193.7 358,-193.7 358,-171.7 233,-171.7"/>
<image xlink:href="../../images/foreignKeys.png" width="11px" height="12px" preserveAspectRatio="xMinYMin meet" x="238" y="-188.7"/>
<text text-anchor="start" x="253" y="-178.8" font-family="Helvetica,sans-Serif" font-size="11.00" fill="#000000">info_json_id_</text>
<polygon fill="none" stroke="#000000" points="358,-171.7 358,-193.7 419,-193.7 419,-171.7 358,-171.7"/>
<text text-anchor="start" x="360.994" y="-179.4" font-family="Helvetica,sans-Serif" font-size="11.00" fill="#000000">varchar[64]</text>
<polygon fill="#ffffff" stroke="transparent" points="233,-152.7 233,-171.7 419,-171.7 419,-152.7 233,-152.7"/>
<polygon fill="none" stroke="#000000" points="233,-152.7 233,-171.7 419,-171.7 419,-152.7 233,-152.7"/>
<polygon fill="#ffffff" stroke="transparent" points="234,-153.7 234,-170.7 299,-170.7 299,-153.7 234,-153.7"/>
<text text-anchor="start" x="236" y="-158.8" font-family="Helvetica,sans-Serif" font-size="11.00" fill="#000000">&lt; 2</text>
<polygon fill="#ffffff" stroke="transparent" points="299,-153.7 299,-170.7 354,-170.7 354,-153.7 299,-153.7"/>
<text text-anchor="start" x="323.4431" y="-158.8" font-family="Helvetica,sans-Serif" font-size="11.00" fill="#000000"> &#160;</text>
<polygon fill="#ffffff" stroke="transparent" points="354,-153.7 354,-170.7 418,-170.7 418,-153.7 354,-153.7"/>
<text text-anchor="start" x="400.4053" y="-158.8" font-family="Helvetica,sans-Serif" font-size="11.00" fill="#000000">0 &gt;</text>
<polygon fill="#000000" stroke="#000000" points="299,-153.7 299,-170.7 299,-170.7 299,-153.7 299,-153.7"/>
<polygon fill="#000000" stroke="#000000" points="354,-153.7 354,-170.7 354,-170.7 354,-153.7 354,-153.7"/>
<polygon fill="none" stroke="#000000" stroke-width="2" points="232,-151.7 232,-283.7 420,-283.7 420,-151.7 232,-151.7"/>
</a>
</g>
</g>
<!-- act_ge_bytearray -->
<g id="node2" class="node">
<title>act_ge_bytearray</title>
<g id="a_node2"><a xlink:href="../../tables/act_ge_bytearray.html" xlink:title="act_ge_bytearray" target="_top">
<polygon fill="#ffffff" stroke="transparent" points="22.5,-38.2 22.5,-143.2 167.5,-143.2 167.5,-38.2 22.5,-38.2"/>
<polygon fill="#f5f5f5" stroke="transparent" points="23,-119.7 23,-142.7 168,-142.7 168,-119.7 23,-119.7"/>
<polygon fill="none" stroke="#000000" points="23,-119.7 23,-142.7 168,-142.7 168,-119.7 23,-119.7"/>
<text text-anchor="start" x="28" y="-128.3" font-family="Helvetica,sans-Serif" font-weight="bold" font-size="11.00" fill="#000000">act_ge_bytearray</text>
<text text-anchor="start" x="133.5219" y="-127.8" font-family="Helvetica,sans-Serif" font-size="11.00" fill="#000000">[table]</text>
<polygon fill="none" stroke="#000000" points="23,-97.7 23,-119.7 168,-119.7 168,-97.7 23,-97.7"/>
<image xlink:href="../../images/primaryKeys.png" width="11px" height="12px" preserveAspectRatio="xMinYMin meet" x="28" y="-114.7"/>
<text text-anchor="start" x="52" y="-104.8" font-family="Helvetica,sans-Serif" font-size="11.00" fill="#000000">id_</text>
<polygon fill="#ffffff" stroke="transparent" points="23,-75.7 23,-97.7 168,-97.7 168,-75.7 23,-75.7"/>
<polygon fill="none" stroke="#000000" points="23,-75.7 23,-97.7 168,-97.7 168,-75.7 23,-75.7"/>
<image xlink:href="../../images/foreignKeys.png" width="11px" height="12px" preserveAspectRatio="xMinYMin meet" x="28" y="-92.7"/>
<text text-anchor="start" x="52" y="-82.8" font-family="Helvetica,sans-Serif" font-size="11.00" fill="#000000">deployment_id_</text>
<polygon fill="none" stroke="#000000" points="23,-56.7 23,-75.7 168,-75.7 168,-56.7 23,-56.7"/>
<text text-anchor="start" x="26" y="-62.8" font-family="Helvetica,sans-Serif" font-size="11.00" fill="#000000">...</text>
<polygon fill="#ffffff" stroke="transparent" points="23,-37.7 23,-56.7 168,-56.7 168,-37.7 23,-37.7"/>
<polygon fill="none" stroke="#000000" points="23,-37.7 23,-56.7 168,-56.7 168,-37.7 23,-37.7"/>
<polygon fill="#ffffff" stroke="transparent" points="24,-38.7 24,-55.7 73,-55.7 73,-38.7 24,-38.7"/>
<text text-anchor="start" x="26" y="-43.8" font-family="Helvetica,sans-Serif" font-size="11.00" fill="#000000">&lt; 1</text>
<polygon fill="#ffffff" stroke="transparent" points="73,-38.7 73,-55.7 113,-55.7 113,-38.7 73,-38.7"/>
<text text-anchor="start" x="89.9431" y="-43.8" font-family="Helvetica,sans-Serif" font-size="11.00" fill="#000000"> &#160;</text>
<polygon fill="#ffffff" stroke="transparent" points="113,-38.7 113,-55.7 167,-55.7 167,-38.7 113,-38.7"/>
<text text-anchor="start" x="143.2904" y="-43.8" font-family="Helvetica,sans-Serif" font-size="11.00" fill="#000000">14 &gt;</text>
<polygon fill="#000000" stroke="#000000" points="73,-38.7 73,-55.7 73,-55.7 73,-38.7 73,-38.7"/>
<polygon fill="#000000" stroke="#000000" points="113,-38.7 113,-55.7 113,-55.7 113,-38.7 113,-38.7"/>
</a>
</g>
</g>
<!-- act_procdef_info&#45;&gt;act_ge_bytearray -->
<g id="edge1" class="edge">
<title>act_procdef_info:w&#45;&gt;act_ge_bytearray:e</title>
<path fill="none" stroke="#000000" d="M218.7574,-179.1308C194.0449,-164.349 205.9611,-108.7 168,-108.7"/>
<polygon fill="#000000" stroke="#000000" points="225.24,-180.7553 232.1249,-186.192 229.12,-181.7277 233,-182.7 233,-182.7 233,-182.7 229.12,-181.7277 233.8751,-179.208 225.24,-180.7553 225.24,-180.7553"/>
<ellipse fill="none" stroke="#000000" cx="222.1359" cy="-179.9774" rx="3.2" ry="3.2"/>
</g>
<!-- act_re_procdef -->
<g id="node3" class="node">
<title>act_re_procdef</title>
<g id="a_node3"><a xlink:href="../../tables/act_re_procdef.html" xlink:title="act_re_procdef" target="_top">
<polygon fill="#ffffff" stroke="transparent" points="8,-164.2 8,-335.2 182,-335.2 182,-164.2 8,-164.2"/>
<polygon fill="#f5f5f5" stroke="transparent" points="8,-311.7 8,-334.7 182,-334.7 182,-311.7 8,-311.7"/>
<polygon fill="none" stroke="#000000" points="8,-311.7 8,-334.7 182,-334.7 182,-311.7 8,-311.7"/>
<text text-anchor="start" x="13" y="-320.3" font-family="Helvetica,sans-Serif" font-weight="bold" font-size="11.00" fill="#000000">act_re_procdef</text>
<text text-anchor="start" x="147.0437" y="-319.8" font-family="Helvetica,sans-Serif" font-size="11.00" fill="#000000">[table]</text>
<polygon fill="none" stroke="#000000" points="8,-289.7 8,-311.7 182,-311.7 182,-289.7 8,-289.7"/>
<image xlink:href="../../images/primaryKeys.png" width="11px" height="12px" preserveAspectRatio="xMinYMin meet" x="13" y="-306.7"/>
<text text-anchor="start" x="28" y="-296.8" font-family="Helvetica,sans-Serif" font-size="11.00" fill="#000000">id_</text>
<polygon fill="#ffffff" stroke="transparent" points="8,-267.7 8,-289.7 182,-289.7 182,-267.7 8,-267.7"/>
<polygon fill="none" stroke="#000000" points="8,-267.7 8,-289.7 182,-289.7 182,-267.7 8,-267.7"/>
<text text-anchor="start" x="28" y="-274.8" font-family="Helvetica,sans-Serif" font-size="11.00" fill="#000000">key_</text>
<polygon fill="#ffffff" stroke="transparent" points="8,-245.7 8,-267.7 182,-267.7 182,-245.7 8,-245.7"/>
<polygon fill="none" stroke="#000000" points="8,-245.7 8,-267.7 182,-267.7 182,-245.7 8,-245.7"/>
<text text-anchor="start" x="28" y="-252.8" font-family="Helvetica,sans-Serif" font-size="11.00" fill="#000000">version_</text>
<polygon fill="#ffffff" stroke="transparent" points="8,-223.7 8,-245.7 182,-245.7 182,-223.7 8,-223.7"/>
<polygon fill="none" stroke="#000000" points="8,-223.7 8,-245.7 182,-245.7 182,-223.7 8,-223.7"/>
<text text-anchor="start" x="28" y="-230.8" font-family="Helvetica,sans-Serif" font-size="11.00" fill="#000000">tenant_id_</text>
<polygon fill="#ffffff" stroke="transparent" points="8,-201.7 8,-223.7 182,-223.7 182,-201.7 8,-201.7"/>
<polygon fill="none" stroke="#000000" points="8,-201.7 8,-223.7 182,-223.7 182,-201.7 8,-201.7"/>
<text text-anchor="start" x="28" y="-208.8" font-family="Helvetica,sans-Serif" font-size="11.00" fill="#000000">derived_version_</text>
<polygon fill="none" stroke="#000000" points="8,-182.7 8,-201.7 182,-201.7 182,-182.7 8,-182.7"/>
<text text-anchor="start" x="11" y="-188.8" font-family="Helvetica,sans-Serif" font-size="11.00" fill="#000000">...</text>
<polygon fill="#ffffff" stroke="transparent" points="8,-163.7 8,-182.7 182,-182.7 182,-163.7 8,-163.7"/>
<polygon fill="none" stroke="#000000" points="8,-163.7 8,-182.7 182,-182.7 182,-163.7 8,-163.7"/>
<polygon fill="#ffffff" stroke="transparent" points="9,-164.7 9,-181.7 64,-181.7 64,-164.7 9,-164.7"/>
<text text-anchor="start" x="11" y="-169.8" font-family="Helvetica,sans-Serif" font-size="11.00" fill="#000000"> &#160;</text>
<polygon fill="#ffffff" stroke="transparent" points="64,-164.7 64,-181.7 118,-181.7 118,-164.7 64,-164.7"/>
<text text-anchor="start" x="87.9431" y="-169.8" font-family="Helvetica,sans-Serif" font-size="11.00" fill="#000000"> &#160;</text>
<polygon fill="#ffffff" stroke="transparent" points="118,-164.7 118,-181.7 181,-181.7 181,-164.7 118,-164.7"/>
<text text-anchor="start" x="163.4053" y="-169.8" font-family="Helvetica,sans-Serif" font-size="11.00" fill="#000000">8 &gt;</text>
<polygon fill="#000000" stroke="#000000" points="64,-164.7 64,-181.7 64,-181.7 64,-164.7 64,-164.7"/>
<polygon fill="#000000" stroke="#000000" points="118,-164.7 118,-181.7 118,-181.7 118,-164.7 118,-164.7"/>
</a>
</g>
</g>
<!-- act_procdef_info&#45;&gt;act_re_procdef -->
<g id="edge2" class="edge">
<title>act_procdef_info:w&#45;&gt;act_re_procdef:e</title>
<path fill="none" stroke="#000000" d="M222.8155,-228.8349C198.2144,-240.9679 217.8864,-300.7 182,-300.7"/>
<polygon fill="#000000" stroke="#000000" points="231.3963,-222.9492 233.0377,-230.779 231.4717,-231.1073 229.8304,-223.2775 231.3963,-222.9492"/>
<polyline fill="none" stroke="#000000" points="233,-226.7 229.0851,-227.5207 "/>
<ellipse fill="none" stroke="#000000" cx="225.9532" cy="-228.1772" rx="3.2" ry="3.2"/>
</g>
</g>
</svg>
