<?xml version="1.0" encoding="UTF-8" standalone="no"?>
<!DOCTYPE svg PUBLIC "-//W3C//DTD SVG 1.1//EN"
 "http://www.w3.org/Graphics/SVG/1.1/DTD/svg11.dtd">
<!-- Generated by graphviz version 2.40.1 (20161225.0304)
 -->
<!-- Title: twoDegreesRelationshipsDiagram Pages: 1 -->
<svg width="407pt" height="267pt"
 viewBox="0.00 0.00 407.00 266.70" xmlns="http://www.w3.org/2000/svg" xmlns:xlink="http://www.w3.org/1999/xlink">
<g id="graph0" class="graph" transform="scale(1 1) rotate(0) translate(4 262.7)">
<title>twoDegreesRelationshipsDiagram</title>
<polygon fill="#ffffff" stroke="transparent" points="-4,4 -4,-262.7 403,-262.7 403,4 -4,4"/>
<text text-anchor="middle" x="72.4936" y="-7.3" font-family="Helvetica,sans-Serif" font-size="11.00" fill="#000000">Generated by SchemaSpy</text>
<!-- act_id_membership -->
<g id="node1" class="node">
<title>act_id_membership</title>
<g id="a_node1"><a xlink:href="../../tables/act_id_membership.html" xlink:title="act_id_membership" target="_top">
<polygon fill="#ffffff" stroke="transparent" points="230,-137.2 230,-223.2 391,-223.2 391,-137.2 230,-137.2"/>
<polygon fill="#f5f5f5" stroke="transparent" points="230.5,-200.2 230.5,-223.2 391.5,-223.2 391.5,-200.2 230.5,-200.2"/>
<polygon fill="none" stroke="#000000" points="230.5,-200.2 230.5,-223.2 391.5,-223.2 391.5,-200.2 230.5,-200.2"/>
<text text-anchor="start" x="235.5" y="-208.8" font-family="Helvetica,sans-Serif" font-weight="bold" font-size="11.00" fill="#000000">act_id_membership</text>
<text text-anchor="start" x="357.0219" y="-208.3" font-family="Helvetica,sans-Serif" font-size="11.00" fill="#000000">[table]</text>
<polygon fill="none" stroke="#000000" points="230.5,-178.2 230.5,-200.2 391.5,-200.2 391.5,-178.2 230.5,-178.2"/>
<image xlink:href="../../images/primaryKeys.png" width="11px" height="12px" preserveAspectRatio="xMinYMin meet" x="235.5" y="-195.2"/>
<text text-anchor="start" x="259.5" y="-185.3" font-family="Helvetica,sans-Serif" font-size="11.00" fill="#000000">user_id_</text>
<polygon fill="none" stroke="#000000" points="230.5,-156.2 230.5,-178.2 391.5,-178.2 391.5,-156.2 230.5,-156.2"/>
<image xlink:href="../../images/primaryKeys.png" width="11px" height="12px" preserveAspectRatio="xMinYMin meet" x="235.5" y="-173.2"/>
<text text-anchor="start" x="259.5" y="-163.3" font-family="Helvetica,sans-Serif" font-size="11.00" fill="#000000">group_id_</text>
<polygon fill="#ffffff" stroke="transparent" points="230.5,-137.2 230.5,-156.2 391.5,-156.2 391.5,-137.2 230.5,-137.2"/>
<polygon fill="none" stroke="#000000" points="230.5,-137.2 230.5,-156.2 391.5,-156.2 391.5,-137.2 230.5,-137.2"/>
<polygon fill="#ffffff" stroke="transparent" points="231.5,-138.2 231.5,-155.2 290.5,-155.2 290.5,-138.2 231.5,-138.2"/>
<text text-anchor="start" x="233.5" y="-143.3" font-family="Helvetica,sans-Serif" font-size="11.00" fill="#000000">&lt; 2</text>
<polygon fill="#ffffff" stroke="transparent" points="290.5,-138.2 290.5,-155.2 340.5,-155.2 340.5,-138.2 290.5,-138.2"/>
<text text-anchor="start" x="312.4431" y="-143.3" font-family="Helvetica,sans-Serif" font-size="11.00" fill="#000000"> &#160;</text>
<polygon fill="#ffffff" stroke="transparent" points="340.5,-138.2 340.5,-155.2 390.5,-155.2 390.5,-138.2 340.5,-138.2"/>
<text text-anchor="start" x="382.3862" y="-143.3" font-family="Helvetica,sans-Serif" font-size="11.00" fill="#000000"> &#160;</text>
<polygon fill="#000000" stroke="#000000" points="290.5,-138.2 290.5,-155.2 290.5,-155.2 290.5,-138.2 290.5,-138.2"/>
<polygon fill="#000000" stroke="#000000" points="340.5,-138.2 340.5,-155.2 340.5,-155.2 340.5,-138.2 340.5,-138.2"/>
</a>
</g>
</g>
<!-- act_id_group -->
<g id="node2" class="node">
<title>act_id_group</title>
<g id="a_node2"><a xlink:href="../../tables/act_id_group.html" xlink:title="act_id_group" target="_top">
<polygon fill="#ffffff" stroke="transparent" points="8,-38.2 8,-172.2 181,-172.2 181,-38.2 8,-38.2"/>
<polygon fill="#f5f5f5" stroke="transparent" points="10.5,-147.2 10.5,-170.2 179.5,-170.2 179.5,-147.2 10.5,-147.2"/>
<polygon fill="none" stroke="#000000" points="10.5,-147.2 10.5,-170.2 179.5,-170.2 179.5,-147.2 10.5,-147.2"/>
<text text-anchor="start" x="15.5" y="-155.8" font-family="Helvetica,sans-Serif" font-weight="bold" font-size="11.00" fill="#000000">act_id_group</text>
<text text-anchor="start" x="144.5437" y="-155.3" font-family="Helvetica,sans-Serif" font-size="11.00" fill="#000000">[table]</text>
<polygon fill="none" stroke="#000000" points="10.5,-125.2 10.5,-147.2 112.5,-147.2 112.5,-125.2 10.5,-125.2"/>
<image xlink:href="../../images/primaryKeys.png" width="11px" height="12px" preserveAspectRatio="xMinYMin meet" x="15.5" y="-142.2"/>
<text text-anchor="start" x="30.5" y="-132.3" font-family="Helvetica,sans-Serif" font-size="11.00" fill="#000000">id_</text>
<polygon fill="none" stroke="#000000" points="112.5,-125.2 112.5,-147.2 179.5,-147.2 179.5,-125.2 112.5,-125.2"/>
<text text-anchor="start" x="115.5" y="-132.9" font-family="Helvetica,sans-Serif" font-size="11.00" fill="#000000">varchar[64]</text>
<polygon fill="none" stroke="#000000" points="10.5,-103.2 10.5,-125.2 112.5,-125.2 112.5,-103.2 10.5,-103.2"/>
<text text-anchor="start" x="30.5" y="-110.3" font-family="Helvetica,sans-Serif" font-size="11.00" fill="#000000">rev_</text>
<polygon fill="none" stroke="#000000" points="112.5,-103.2 112.5,-125.2 179.5,-125.2 179.5,-103.2 112.5,-103.2"/>
<text text-anchor="start" x="115.5" y="-110.9" font-family="Helvetica,sans-Serif" font-size="11.00" fill="#000000">int4[10]</text>
<polygon fill="none" stroke="#000000" points="10.5,-81.2 10.5,-103.2 112.5,-103.2 112.5,-81.2 10.5,-81.2"/>
<text text-anchor="start" x="30.5" y="-88.3" font-family="Helvetica,sans-Serif" font-size="11.00" fill="#000000">name_</text>
<polygon fill="none" stroke="#000000" points="112.5,-81.2 112.5,-103.2 179.5,-103.2 179.5,-81.2 112.5,-81.2"/>
<text text-anchor="start" x="115.4365" y="-88.9" font-family="Helvetica,sans-Serif" font-size="11.00" fill="#000000">varchar[255]</text>
<polygon fill="none" stroke="#000000" points="10.5,-59.2 10.5,-81.2 112.5,-81.2 112.5,-59.2 10.5,-59.2"/>
<text text-anchor="start" x="30.5" y="-66.3" font-family="Helvetica,sans-Serif" font-size="11.00" fill="#000000">type_</text>
<polygon fill="none" stroke="#000000" points="112.5,-59.2 112.5,-81.2 179.5,-81.2 179.5,-59.2 112.5,-59.2"/>
<text text-anchor="start" x="115.4365" y="-66.9" font-family="Helvetica,sans-Serif" font-size="11.00" fill="#000000">varchar[255]</text>
<polygon fill="#ffffff" stroke="transparent" points="10.5,-40.2 10.5,-59.2 179.5,-59.2 179.5,-40.2 10.5,-40.2"/>
<polygon fill="none" stroke="#000000" points="10.5,-40.2 10.5,-59.2 179.5,-59.2 179.5,-40.2 10.5,-40.2"/>
<polygon fill="#ffffff" stroke="transparent" points="11.5,-41.2 11.5,-58.2 70.5,-58.2 70.5,-41.2 11.5,-41.2"/>
<text text-anchor="start" x="13.5" y="-46.3" font-family="Helvetica,sans-Serif" font-size="11.00" fill="#000000">&lt; 0</text>
<polygon fill="#ffffff" stroke="transparent" points="70.5,-41.2 70.5,-58.2 120.5,-58.2 120.5,-41.2 70.5,-41.2"/>
<text text-anchor="start" x="92.4431" y="-46.3" font-family="Helvetica,sans-Serif" font-size="11.00" fill="#000000"> &#160;</text>
<polygon fill="#ffffff" stroke="transparent" points="120.5,-41.2 120.5,-58.2 178.5,-58.2 178.5,-41.2 120.5,-41.2"/>
<text text-anchor="start" x="160.9053" y="-46.3" font-family="Helvetica,sans-Serif" font-size="11.00" fill="#000000">1 &gt;</text>
<polygon fill="#000000" stroke="#000000" points="70.5,-41.2 70.5,-58.2 70.5,-58.2 70.5,-41.2 70.5,-41.2"/>
<polygon fill="#000000" stroke="#000000" points="120.5,-41.2 120.5,-58.2 120.5,-58.2 120.5,-41.2 120.5,-41.2"/>
<polygon fill="none" stroke="#000000" stroke-width="2" points="9,-39.2 9,-171.2 180,-171.2 180,-39.2 9,-39.2"/>
</a>
</g>
</g>
<!-- act_id_membership&#45;&gt;act_id_group -->
<g id="edge1" class="edge">
<title>act_id_membership:w&#45;&gt;act_id_group:e</title>
<path fill="none" stroke="#000000" d="M216.5967,-163.3988C203.5044,-155.1209 200.2231,-136.2 179.5,-136.2"/>
<polygon fill="#000000" stroke="#000000" points="222.7832,-165.0902 229.5506,-170.6726 226.6416,-166.1451 230.5,-167.2 230.5,-167.2 230.5,-167.2 226.6416,-166.1451 231.4494,-163.7274 222.7832,-165.0902 222.7832,-165.0902"/>
<ellipse fill="none" stroke="#000000" cx="219.6965" cy="-164.2462" rx="3.2" ry="3.2"/>
</g>
<!-- act_id_user -->
<g id="node3" class="node">
<title>act_id_user</title>
<g id="a_node3"><a xlink:href="../../tables/act_id_user.html" xlink:title="act_id_user" target="_top">
<polygon fill="#ffffff" stroke="transparent" points="39,-193.7 39,-254.7 150,-254.7 150,-193.7 39,-193.7"/>
<polygon fill="#f5f5f5" stroke="transparent" points="39.5,-231.2 39.5,-254.2 150.5,-254.2 150.5,-231.2 39.5,-231.2"/>
<polygon fill="none" stroke="#000000" points="39.5,-231.2 39.5,-254.2 150.5,-254.2 150.5,-231.2 39.5,-231.2"/>
<text text-anchor="start" x="44.5" y="-239.8" font-family="Helvetica,sans-Serif" font-weight="bold" font-size="11.00" fill="#000000">act_id_user</text>
<text text-anchor="start" x="116.0219" y="-239.3" font-family="Helvetica,sans-Serif" font-size="11.00" fill="#000000">[table]</text>
<polygon fill="none" stroke="#000000" points="39.5,-212.2 39.5,-231.2 150.5,-231.2 150.5,-212.2 39.5,-212.2"/>
<text text-anchor="start" x="42.5" y="-218.3" font-family="Helvetica,sans-Serif" font-size="11.00" fill="#000000">...</text>
<polygon fill="#ffffff" stroke="transparent" points="39.5,-193.2 39.5,-212.2 150.5,-212.2 150.5,-193.2 39.5,-193.2"/>
<polygon fill="none" stroke="#000000" points="39.5,-193.2 39.5,-212.2 150.5,-212.2 150.5,-193.2 39.5,-193.2"/>
<polygon fill="#ffffff" stroke="transparent" points="40.5,-194.2 40.5,-211.2 74.5,-211.2 74.5,-194.2 40.5,-194.2"/>
<text text-anchor="start" x="42.5" y="-199.3" font-family="Helvetica,sans-Serif" font-size="11.00" fill="#000000"> &#160;</text>
<polygon fill="#ffffff" stroke="transparent" points="74.5,-194.2 74.5,-211.2 107.5,-211.2 107.5,-194.2 74.5,-194.2"/>
<text text-anchor="start" x="87.9431" y="-199.3" font-family="Helvetica,sans-Serif" font-size="11.00" fill="#000000"> &#160;</text>
<polygon fill="#ffffff" stroke="transparent" points="107.5,-194.2 107.5,-211.2 149.5,-211.2 149.5,-194.2 107.5,-194.2"/>
<text text-anchor="start" x="131.9053" y="-199.3" font-family="Helvetica,sans-Serif" font-size="11.00" fill="#000000">1 &gt;</text>
<polygon fill="#000000" stroke="#000000" points="74.5,-194.2 74.5,-211.2 74.5,-211.2 74.5,-194.2 74.5,-194.2"/>
<polygon fill="#000000" stroke="#000000" points="107.5,-194.2 107.5,-211.2 107.5,-211.2 107.5,-194.2 107.5,-194.2"/>
</a>
</g>
</g>
<!-- act_id_membership&#45;&gt;act_id_user -->
<g id="edge2" class="edge">
<title>act_id_membership:w&#45;&gt;act_id_user:e</title>
<path fill="none" stroke="#000000" d="M215.8712,-191.0121C190.4908,-197.7815 183.2598,-221.2 150.5,-221.2"/>
<polygon fill="#000000" stroke="#000000" points="222.5607,-190.1835 230.9426,-192.7727 226.5303,-189.6918 230.5,-189.2 230.5,-189.2 230.5,-189.2 226.5303,-189.6918 230.0574,-185.6273 222.5607,-190.1835 222.5607,-190.1835"/>
<ellipse fill="none" stroke="#000000" cx="219.385" cy="-190.5769" rx="3.2" ry="3.2"/>
</g>
</g>
</svg>
