<?xml version="1.0" encoding="UTF-8" standalone="no"?>
<!DOCTYPE svg PUBLIC "-//W3C//DTD SVG 1.1//EN"
 "http://www.w3.org/Graphics/SVG/1.1/DTD/svg11.dtd">
<!-- Generated by graphviz version 2.40.1 (20161225.0304)
 -->
<!-- Title: oneDegreeRelationshipsDiagram Pages: 1 -->
<svg width="735pt" height="322pt"
 viewBox="0.00 0.00 735.00 321.70" xmlns="http://www.w3.org/2000/svg" xmlns:xlink="http://www.w3.org/1999/xlink">
<g id="graph0" class="graph" transform="scale(1 1) rotate(0) translate(4 317.7)">
<title>oneDegreeRelationshipsDiagram</title>
<polygon fill="#ffffff" stroke="transparent" points="-4,4 -4,-317.7 731,-317.7 731,4 -4,4"/>
<text text-anchor="middle" x="72.4936" y="-7.3" font-family="Helvetica,sans-Serif" font-size="11.00" fill="#000000">Generated by SchemaSpy</text>
<!-- act_cmmn_ru_case_inst -->
<g id="node1" class="node">
<title>act_cmmn_ru_case_inst</title>
<g id="a_node1"><a xlink:href="../../tables/act_cmmn_ru_case_inst.html" xlink:title="act_cmmn_ru_case_inst" target="_top">
<polygon fill="#ffffff" stroke="transparent" points="231,-152.2 231,-301.2 421,-301.2 421,-152.2 231,-152.2"/>
<polygon fill="#f5f5f5" stroke="transparent" points="231,-277.7 231,-300.7 421,-300.7 421,-277.7 231,-277.7"/>
<polygon fill="none" stroke="#000000" points="231,-277.7 231,-300.7 421,-300.7 421,-277.7 231,-277.7"/>
<text text-anchor="start" x="236" y="-286.3" font-family="Helvetica,sans-Serif" font-weight="bold" font-size="11.00" fill="#000000">act_cmmn_ru_case_inst</text>
<text text-anchor="start" x="386.5219" y="-285.8" font-family="Helvetica,sans-Serif" font-size="11.00" fill="#000000">[table]</text>
<polygon fill="none" stroke="#000000" points="231,-255.7 231,-277.7 421,-277.7 421,-255.7 231,-255.7"/>
<image xlink:href="../../images/primaryKeys.png" width="11px" height="12px" preserveAspectRatio="xMinYMin meet" x="236" y="-272.7"/>
<text text-anchor="start" x="254" y="-262.8" font-family="Helvetica,sans-Serif" font-size="11.00" fill="#000000">id_</text>
<polygon fill="#ffffff" stroke="transparent" points="231,-233.7 231,-255.7 421,-255.7 421,-233.7 231,-233.7"/>
<polygon fill="none" stroke="#000000" points="231,-233.7 231,-255.7 421,-255.7 421,-233.7 231,-233.7"/>
<text text-anchor="start" x="254" y="-240.8" font-family="Helvetica,sans-Serif" font-size="11.00" fill="#000000">parent_id_</text>
<polygon fill="#ffffff" stroke="transparent" points="231,-211.7 231,-233.7 421,-233.7 421,-211.7 231,-211.7"/>
<polygon fill="none" stroke="#000000" points="231,-211.7 231,-233.7 421,-233.7 421,-211.7 231,-211.7"/>
<image xlink:href="../../images/foreignKeys.png" width="11px" height="12px" preserveAspectRatio="xMinYMin meet" x="236" y="-228.7"/>
<text text-anchor="start" x="254" y="-218.8" font-family="Helvetica,sans-Serif" font-size="11.00" fill="#000000">case_def_id_</text>
<polygon fill="#ffffff" stroke="transparent" points="231,-189.7 231,-211.7 421,-211.7 421,-189.7 231,-189.7"/>
<polygon fill="none" stroke="#000000" points="231,-189.7 231,-211.7 421,-211.7 421,-189.7 231,-189.7"/>
<text text-anchor="start" x="254" y="-196.8" font-family="Helvetica,sans-Serif" font-size="11.00" fill="#000000">reference_id_</text>
<polygon fill="none" stroke="#000000" points="231,-170.7 231,-189.7 421,-189.7 421,-170.7 231,-170.7"/>
<text text-anchor="start" x="234" y="-176.8" font-family="Helvetica,sans-Serif" font-size="11.00" fill="#000000">...</text>
<polygon fill="#ffffff" stroke="transparent" points="231,-151.7 231,-170.7 421,-170.7 421,-151.7 231,-151.7"/>
<polygon fill="none" stroke="#000000" points="231,-151.7 231,-170.7 421,-170.7 421,-151.7 231,-151.7"/>
<polygon fill="#ffffff" stroke="transparent" points="232,-152.7 232,-169.7 298,-169.7 298,-152.7 232,-152.7"/>
<text text-anchor="start" x="234" y="-157.8" font-family="Helvetica,sans-Serif" font-size="11.00" fill="#000000">&lt; 1</text>
<polygon fill="#ffffff" stroke="transparent" points="298,-152.7 298,-169.7 355,-169.7 355,-152.7 298,-152.7"/>
<text text-anchor="start" x="323.4431" y="-157.8" font-family="Helvetica,sans-Serif" font-size="11.00" fill="#000000"> &#160;</text>
<polygon fill="#ffffff" stroke="transparent" points="355,-152.7 355,-169.7 420,-169.7 420,-152.7 355,-152.7"/>
<text text-anchor="start" x="402.4053" y="-157.8" font-family="Helvetica,sans-Serif" font-size="11.00" fill="#000000">3 &gt;</text>
<polygon fill="#000000" stroke="#000000" points="298,-152.7 298,-169.7 298,-169.7 298,-152.7 298,-152.7"/>
<polygon fill="#000000" stroke="#000000" points="355,-152.7 355,-169.7 355,-169.7 355,-152.7 355,-152.7"/>
</a>
</g>
</g>
<!-- act_cmmn_casedef -->
<g id="node2" class="node">
<title>act_cmmn_casedef</title>
<g id="a_node2"><a xlink:href="../../tables/act_cmmn_casedef.html" xlink:title="act_cmmn_casedef" target="_top">
<polygon fill="#ffffff" stroke="transparent" points="8,-38.2 8,-209.2 182,-209.2 182,-38.2 8,-38.2"/>
<polygon fill="#f5f5f5" stroke="transparent" points="8,-185.7 8,-208.7 182,-208.7 182,-185.7 8,-185.7"/>
<polygon fill="none" stroke="#000000" points="8,-185.7 8,-208.7 182,-208.7 182,-185.7 8,-185.7"/>
<text text-anchor="start" x="13" y="-194.3" font-family="Helvetica,sans-Serif" font-weight="bold" font-size="11.00" fill="#000000">act_cmmn_casedef</text>
<text text-anchor="start" x="147.0437" y="-193.8" font-family="Helvetica,sans-Serif" font-size="11.00" fill="#000000">[table]</text>
<polygon fill="none" stroke="#000000" points="8,-163.7 8,-185.7 182,-185.7 182,-163.7 8,-163.7"/>
<image xlink:href="../../images/primaryKeys.png" width="11px" height="12px" preserveAspectRatio="xMinYMin meet" x="13" y="-180.7"/>
<text text-anchor="start" x="28" y="-170.8" font-family="Helvetica,sans-Serif" font-size="11.00" fill="#000000">id_</text>
<polygon fill="#ffffff" stroke="transparent" points="8,-141.7 8,-163.7 182,-163.7 182,-141.7 8,-141.7"/>
<polygon fill="none" stroke="#000000" points="8,-141.7 8,-163.7 182,-163.7 182,-141.7 8,-141.7"/>
<text text-anchor="start" x="28" y="-148.8" font-family="Helvetica,sans-Serif" font-size="11.00" fill="#000000">key_</text>
<polygon fill="#ffffff" stroke="transparent" points="8,-119.7 8,-141.7 182,-141.7 182,-119.7 8,-119.7"/>
<polygon fill="none" stroke="#000000" points="8,-119.7 8,-141.7 182,-141.7 182,-119.7 8,-119.7"/>
<text text-anchor="start" x="28" y="-126.8" font-family="Helvetica,sans-Serif" font-size="11.00" fill="#000000">version_</text>
<polygon fill="#ffffff" stroke="transparent" points="8,-97.7 8,-119.7 182,-119.7 182,-97.7 8,-97.7"/>
<polygon fill="none" stroke="#000000" points="8,-97.7 8,-119.7 182,-119.7 182,-97.7 8,-97.7"/>
<image xlink:href="../../images/foreignKeys.png" width="11px" height="12px" preserveAspectRatio="xMinYMin meet" x="13" y="-114.7"/>
<text text-anchor="start" x="28" y="-104.8" font-family="Helvetica,sans-Serif" font-size="11.00" fill="#000000">deployment_id_</text>
<polygon fill="#ffffff" stroke="transparent" points="8,-75.7 8,-97.7 182,-97.7 182,-75.7 8,-75.7"/>
<polygon fill="none" stroke="#000000" points="8,-75.7 8,-97.7 182,-97.7 182,-75.7 8,-75.7"/>
<text text-anchor="start" x="28" y="-82.8" font-family="Helvetica,sans-Serif" font-size="11.00" fill="#000000">tenant_id_</text>
<polygon fill="none" stroke="#000000" points="8,-56.7 8,-75.7 182,-75.7 182,-56.7 8,-56.7"/>
<text text-anchor="start" x="11" y="-62.8" font-family="Helvetica,sans-Serif" font-size="11.00" fill="#000000">...</text>
<polygon fill="#ffffff" stroke="transparent" points="8,-37.7 8,-56.7 182,-56.7 182,-37.7 8,-37.7"/>
<polygon fill="none" stroke="#000000" points="8,-37.7 8,-56.7 182,-56.7 182,-37.7 8,-37.7"/>
<polygon fill="#ffffff" stroke="transparent" points="9,-38.7 9,-55.7 70,-55.7 70,-38.7 9,-38.7"/>
<text text-anchor="start" x="11" y="-43.8" font-family="Helvetica,sans-Serif" font-size="11.00" fill="#000000">&lt; 1</text>
<polygon fill="#ffffff" stroke="transparent" points="70,-38.7 70,-55.7 121,-55.7 121,-38.7 70,-38.7"/>
<text text-anchor="start" x="92.4431" y="-43.8" font-family="Helvetica,sans-Serif" font-size="11.00" fill="#000000"> &#160;</text>
<polygon fill="#ffffff" stroke="transparent" points="121,-38.7 121,-55.7 181,-55.7 181,-38.7 121,-38.7"/>
<text text-anchor="start" x="163.4053" y="-43.8" font-family="Helvetica,sans-Serif" font-size="11.00" fill="#000000">4 &gt;</text>
<polygon fill="#000000" stroke="#000000" points="70,-38.7 70,-55.7 70,-55.7 70,-38.7 70,-38.7"/>
<polygon fill="#000000" stroke="#000000" points="121,-38.7 121,-55.7 121,-55.7 121,-38.7 121,-38.7"/>
</a>
</g>
</g>
<!-- act_cmmn_ru_case_inst&#45;&gt;act_cmmn_casedef -->
<g id="edge1" class="edge">
<title>act_cmmn_ru_case_inst:w&#45;&gt;act_cmmn_casedef:e</title>
<path fill="none" stroke="#000000" d="M217.3634,-217.9221C203.571,-205.7811 206.5315,-174.7 182,-174.7"/>
<polygon fill="#000000" stroke="#000000" points="223.45,-220.0546 229.8096,-226.0975 227.225,-221.3773 231,-222.7 231,-222.7 231,-222.7 227.225,-221.3773 232.1904,-219.3025 223.45,-220.0546 223.45,-220.0546"/>
<ellipse fill="none" stroke="#000000" cx="220.43" cy="-218.9965" rx="3.2" ry="3.2"/>
</g>
<!-- act_cmmn_ru_mil_inst -->
<g id="node3" class="node">
<title>act_cmmn_ru_mil_inst</title>
<g id="a_node3"><a xlink:href="../../tables/act_cmmn_ru_mil_inst.html" xlink:title="act_cmmn_ru_mil_inst" target="_top">
<polygon fill="#ffffff" stroke="transparent" points="470,-109.7 470,-309.7 719,-309.7 719,-109.7 470,-109.7"/>
<polygon fill="#f5f5f5" stroke="transparent" points="472.5,-284.7 472.5,-307.7 717.5,-307.7 717.5,-284.7 472.5,-284.7"/>
<polygon fill="none" stroke="#000000" points="472.5,-284.7 472.5,-307.7 717.5,-307.7 717.5,-284.7 472.5,-284.7"/>
<text text-anchor="start" x="477.5" y="-293.3" font-family="Helvetica,sans-Serif" font-weight="bold" font-size="11.00" fill="#000000">act_cmmn_ru_mil_inst</text>
<text text-anchor="start" x="682.5437" y="-292.8" font-family="Helvetica,sans-Serif" font-size="11.00" fill="#000000">[table]</text>
<polygon fill="none" stroke="#000000" points="472.5,-262.7 472.5,-284.7 633.5,-284.7 633.5,-262.7 472.5,-262.7"/>
<image xlink:href="../../images/primaryKeys.png" width="11px" height="12px" preserveAspectRatio="xMinYMin meet" x="477.5" y="-279.7"/>
<text text-anchor="start" x="492.5" y="-269.8" font-family="Helvetica,sans-Serif" font-size="11.00" fill="#000000">id_</text>
<polygon fill="none" stroke="#000000" points="633.5,-262.7 633.5,-284.7 717.5,-284.7 717.5,-262.7 633.5,-262.7"/>
<text text-anchor="start" x="636.5" y="-270.4" font-family="Helvetica,sans-Serif" font-size="11.00" fill="#000000">varchar[255]</text>
<polygon fill="none" stroke="#000000" points="472.5,-240.7 472.5,-262.7 633.5,-262.7 633.5,-240.7 472.5,-240.7"/>
<text text-anchor="start" x="492.5" y="-247.8" font-family="Helvetica,sans-Serif" font-size="11.00" fill="#000000">name_</text>
<polygon fill="none" stroke="#000000" points="633.5,-240.7 633.5,-262.7 717.5,-262.7 717.5,-240.7 633.5,-240.7"/>
<text text-anchor="start" x="636.5" y="-248.4" font-family="Helvetica,sans-Serif" font-size="11.00" fill="#000000">varchar[255]</text>
<polygon fill="none" stroke="#000000" points="472.5,-218.7 472.5,-240.7 633.5,-240.7 633.5,-218.7 472.5,-218.7"/>
<text text-anchor="start" x="492.5" y="-225.8" font-family="Helvetica,sans-Serif" font-size="11.00" fill="#000000">time_stamp_</text>
<polygon fill="none" stroke="#000000" points="633.5,-218.7 633.5,-240.7 717.5,-240.7 717.5,-218.7 633.5,-218.7"/>
<text text-anchor="start" x="636.3807" y="-226.4" font-family="Helvetica,sans-Serif" font-size="11.00" fill="#000000">timestamp[29,6]</text>
<polygon fill="#ffffff" stroke="transparent" points="472.5,-196.7 472.5,-218.7 633.5,-218.7 633.5,-196.7 472.5,-196.7"/>
<polygon fill="none" stroke="#000000" points="472.5,-196.7 472.5,-218.7 633.5,-218.7 633.5,-196.7 472.5,-196.7"/>
<image xlink:href="../../images/foreignKeys.png" width="11px" height="12px" preserveAspectRatio="xMinYMin meet" x="477.5" y="-213.7"/>
<text text-anchor="start" x="492.5" y="-203.8" font-family="Helvetica,sans-Serif" font-size="11.00" fill="#000000">case_inst_id_</text>
<polygon fill="none" stroke="#000000" points="633.5,-196.7 633.5,-218.7 717.5,-218.7 717.5,-196.7 633.5,-196.7"/>
<text text-anchor="start" x="636.5" y="-204.4" font-family="Helvetica,sans-Serif" font-size="11.00" fill="#000000">varchar[255]</text>
<polygon fill="#ffffff" stroke="transparent" points="472.5,-174.7 472.5,-196.7 633.5,-196.7 633.5,-174.7 472.5,-174.7"/>
<polygon fill="none" stroke="#000000" points="472.5,-174.7 472.5,-196.7 633.5,-196.7 633.5,-174.7 472.5,-174.7"/>
<image xlink:href="../../images/foreignKeys.png" width="11px" height="12px" preserveAspectRatio="xMinYMin meet" x="477.5" y="-191.7"/>
<text text-anchor="start" x="492.5" y="-181.8" font-family="Helvetica,sans-Serif" font-size="11.00" fill="#000000">case_def_id_</text>
<polygon fill="none" stroke="#000000" points="633.5,-174.7 633.5,-196.7 717.5,-196.7 717.5,-174.7 633.5,-174.7"/>
<text text-anchor="start" x="636.5" y="-182.4" font-family="Helvetica,sans-Serif" font-size="11.00" fill="#000000">varchar[255]</text>
<polygon fill="none" stroke="#000000" points="472.5,-152.7 472.5,-174.7 633.5,-174.7 633.5,-152.7 472.5,-152.7"/>
<text text-anchor="start" x="492.5" y="-159.8" font-family="Helvetica,sans-Serif" font-size="11.00" fill="#000000">element_id_</text>
<polygon fill="none" stroke="#000000" points="633.5,-152.7 633.5,-174.7 717.5,-174.7 717.5,-152.7 633.5,-152.7"/>
<text text-anchor="start" x="636.5" y="-160.4" font-family="Helvetica,sans-Serif" font-size="11.00" fill="#000000">varchar[255]</text>
<polygon fill="none" stroke="#000000" points="472.5,-130.7 472.5,-152.7 633.5,-152.7 633.5,-130.7 472.5,-130.7"/>
<text text-anchor="start" x="492.5" y="-137.8" font-family="Helvetica,sans-Serif" font-size="11.00" fill="#000000">tenant_id_</text>
<polygon fill="none" stroke="#000000" points="633.5,-130.7 633.5,-152.7 717.5,-152.7 717.5,-130.7 633.5,-130.7"/>
<text text-anchor="start" x="636.5" y="-138.4" font-family="Helvetica,sans-Serif" font-size="11.00" fill="#000000">varchar[255]</text>
<polygon fill="#ffffff" stroke="transparent" points="472.5,-111.7 472.5,-130.7 717.5,-130.7 717.5,-111.7 472.5,-111.7"/>
<polygon fill="none" stroke="#000000" points="472.5,-111.7 472.5,-130.7 717.5,-130.7 717.5,-111.7 472.5,-111.7"/>
<polygon fill="#ffffff" stroke="transparent" points="473.5,-112.7 473.5,-129.7 557.5,-129.7 557.5,-112.7 473.5,-112.7"/>
<text text-anchor="start" x="475.5" y="-117.8" font-family="Helvetica,sans-Serif" font-size="11.00" fill="#000000">&lt; 2</text>
<polygon fill="#ffffff" stroke="transparent" points="557.5,-112.7 557.5,-129.7 632.5,-129.7 632.5,-112.7 557.5,-112.7"/>
<text text-anchor="start" x="591.9431" y="-117.8" font-family="Helvetica,sans-Serif" font-size="11.00" fill="#000000"> &#160;</text>
<polygon fill="#ffffff" stroke="transparent" points="632.5,-112.7 632.5,-129.7 716.5,-129.7 716.5,-112.7 632.5,-112.7"/>
<text text-anchor="start" x="698.9053" y="-117.8" font-family="Helvetica,sans-Serif" font-size="11.00" fill="#000000">0 &gt;</text>
<polygon fill="#000000" stroke="#000000" points="557.5,-112.7 557.5,-129.7 557.5,-129.7 557.5,-112.7 557.5,-112.7"/>
<polygon fill="#000000" stroke="#000000" points="632.5,-112.7 632.5,-129.7 632.5,-129.7 632.5,-112.7 632.5,-112.7"/>
<polygon fill="none" stroke="#000000" stroke-width="2" points="471,-110.7 471,-308.7 718,-308.7 718,-110.7 471,-110.7"/>
</a>
</g>
</g>
<!-- act_cmmn_ru_mil_inst&#45;&gt;act_cmmn_ru_case_inst -->
<g id="edge3" class="edge">
<title>act_cmmn_ru_mil_inst:w&#45;&gt;act_cmmn_ru_case_inst:e</title>
<path fill="none" stroke="#000000" d="M458.7053,-212.3296C442.3565,-226.2383 449.8243,-266.7 421,-266.7"/>
<polygon fill="#000000" stroke="#000000" points="464.9157,-210.2454 473.6454,-211.1129 468.7079,-208.9727 472.5,-207.7 472.5,-207.7 472.5,-207.7 468.7079,-208.9727 471.3546,-204.2871 464.9157,-210.2454 464.9157,-210.2454"/>
<ellipse fill="none" stroke="#000000" cx="461.882" cy="-211.2636" rx="3.2" ry="3.2"/>
</g>
<!-- act_cmmn_ru_mil_inst&#45;&gt;act_cmmn_casedef -->
<g id="edge2" class="edge">
<title>act_cmmn_ru_mil_inst:w&#45;&gt;act_cmmn_casedef:e</title>
<path fill="none" stroke="#000000" d="M458.6545,-181.2098C447.4651,-171.7346 448.6265,-149.8953 429,-141.7 344.5141,-106.4217 309.3494,-111.2663 223,-141.7 200.9387,-149.4755 205.3915,-174.7 182,-174.7"/>
<polygon fill="#000000" stroke="#000000" points="464.8902,-183.232 471.3894,-189.1244 468.6951,-184.466 472.5,-185.7 472.5,-185.7 472.5,-185.7 468.6951,-184.466 473.6106,-182.2756 464.8902,-183.232 464.8902,-183.232"/>
<ellipse fill="none" stroke="#000000" cx="461.8463" cy="-182.2448" rx="3.2" ry="3.2"/>
</g>
</g>
</svg>
