<?xml version="1.0" encoding="UTF-8" standalone="no"?>
<!DOCTYPE svg PUBLIC "-//W3C//DTD SVG 1.1//EN"
 "http://www.w3.org/Graphics/SVG/1.1/DTD/svg11.dtd">
<!-- Generated by graphviz version 2.40.1 (20161225.0304)
 -->
<!-- Title: oneDegreeRelationshipsDiagram Pages: 1 -->
<svg width="972pt" height="1093pt"
 viewBox="0.00 0.00 972.00 1092.70" xmlns="http://www.w3.org/2000/svg" xmlns:xlink="http://www.w3.org/1999/xlink">
<g id="graph0" class="graph" transform="scale(1 1) rotate(0) translate(4 1088.7)">
<title>oneDegreeRelationshipsDiagram</title>
<polygon fill="#ffffff" stroke="transparent" points="-4,4 -4,-1088.7 968,-1088.7 968,4 -4,4"/>
<text text-anchor="middle" x="72.4936" y="-7.3" font-family="Helvetica,sans-Serif" font-size="11.00" fill="#000000">Generated by SchemaSpy</text>
<!-- act_ru_execution -->
<g id="node1" class="node">
<title>act_ru_execution</title>
<g id="a_node1"><a xlink:href="../../tables/act_ru_execution.html" xlink:title="act_ru_execution" target="_top">
<polygon fill="#ffffff" stroke="transparent" points="231,-776.2 231,-1013.2 428,-1013.2 428,-776.2 231,-776.2"/>
<polygon fill="#f5f5f5" stroke="transparent" points="231.5,-989.7 231.5,-1012.7 428.5,-1012.7 428.5,-989.7 231.5,-989.7"/>
<polygon fill="none" stroke="#000000" points="231.5,-989.7 231.5,-1012.7 428.5,-1012.7 428.5,-989.7 231.5,-989.7"/>
<text text-anchor="start" x="236.5" y="-998.3" font-family="Helvetica,sans-Serif" font-weight="bold" font-size="11.00" fill="#000000">act_ru_execution</text>
<text text-anchor="start" x="393.5437" y="-997.8" font-family="Helvetica,sans-Serif" font-size="11.00" fill="#000000">[table]</text>
<polygon fill="none" stroke="#000000" points="231.5,-967.7 231.5,-989.7 428.5,-989.7 428.5,-967.7 231.5,-967.7"/>
<image xlink:href="../../images/primaryKeys.png" width="11px" height="12px" preserveAspectRatio="xMinYMin meet" x="236.5" y="-984.7"/>
<text text-anchor="start" x="251.5" y="-974.8" font-family="Helvetica,sans-Serif" font-size="11.00" fill="#000000">id_</text>
<polygon fill="#ffffff" stroke="transparent" points="231.5,-945.7 231.5,-967.7 428.5,-967.7 428.5,-945.7 231.5,-945.7"/>
<polygon fill="none" stroke="#000000" points="231.5,-945.7 231.5,-967.7 428.5,-967.7 428.5,-945.7 231.5,-945.7"/>
<image xlink:href="../../images/foreignKeys.png" width="11px" height="12px" preserveAspectRatio="xMinYMin meet" x="236.5" y="-962.7"/>
<text text-anchor="start" x="251.5" y="-952.8" font-family="Helvetica,sans-Serif" font-size="11.00" fill="#000000">proc_inst_id_</text>
<polygon fill="#ffffff" stroke="transparent" points="231.5,-923.7 231.5,-945.7 428.5,-945.7 428.5,-923.7 231.5,-923.7"/>
<polygon fill="none" stroke="#000000" points="231.5,-923.7 231.5,-945.7 428.5,-945.7 428.5,-923.7 231.5,-923.7"/>
<text text-anchor="start" x="251.5" y="-930.8" font-family="Helvetica,sans-Serif" font-size="11.00" fill="#000000">business_key_</text>
<polygon fill="#ffffff" stroke="transparent" points="231.5,-901.7 231.5,-923.7 428.5,-923.7 428.5,-901.7 231.5,-901.7"/>
<polygon fill="none" stroke="#000000" points="231.5,-901.7 231.5,-923.7 428.5,-923.7 428.5,-901.7 231.5,-901.7"/>
<image xlink:href="../../images/foreignKeys.png" width="11px" height="12px" preserveAspectRatio="xMinYMin meet" x="236.5" y="-918.7"/>
<text text-anchor="start" x="251.5" y="-908.8" font-family="Helvetica,sans-Serif" font-size="11.00" fill="#000000">parent_id_</text>
<polygon fill="#ffffff" stroke="transparent" points="231.5,-879.7 231.5,-901.7 428.5,-901.7 428.5,-879.7 231.5,-879.7"/>
<polygon fill="none" stroke="#000000" points="231.5,-879.7 231.5,-901.7 428.5,-901.7 428.5,-879.7 231.5,-879.7"/>
<image xlink:href="../../images/foreignKeys.png" width="11px" height="12px" preserveAspectRatio="xMinYMin meet" x="236.5" y="-896.7"/>
<text text-anchor="start" x="251.5" y="-886.8" font-family="Helvetica,sans-Serif" font-size="11.00" fill="#000000">proc_def_id_</text>
<polygon fill="#ffffff" stroke="transparent" points="231.5,-857.7 231.5,-879.7 428.5,-879.7 428.5,-857.7 231.5,-857.7"/>
<polygon fill="none" stroke="#000000" points="231.5,-857.7 231.5,-879.7 428.5,-879.7 428.5,-857.7 231.5,-857.7"/>
<image xlink:href="../../images/foreignKeys.png" width="11px" height="12px" preserveAspectRatio="xMinYMin meet" x="236.5" y="-874.7"/>
<text text-anchor="start" x="251.5" y="-864.8" font-family="Helvetica,sans-Serif" font-size="11.00" fill="#000000">super_exec_</text>
<polygon fill="#ffffff" stroke="transparent" points="231.5,-835.7 231.5,-857.7 428.5,-857.7 428.5,-835.7 231.5,-835.7"/>
<polygon fill="none" stroke="#000000" points="231.5,-835.7 231.5,-857.7 428.5,-857.7 428.5,-835.7 231.5,-835.7"/>
<text text-anchor="start" x="251.5" y="-842.8" font-family="Helvetica,sans-Serif" font-size="11.00" fill="#000000">root_proc_inst_id_</text>
<polygon fill="#ffffff" stroke="transparent" points="231.5,-813.7 231.5,-835.7 428.5,-835.7 428.5,-813.7 231.5,-813.7"/>
<polygon fill="none" stroke="#000000" points="231.5,-813.7 231.5,-835.7 428.5,-835.7 428.5,-813.7 231.5,-813.7"/>
<text text-anchor="start" x="251.5" y="-820.8" font-family="Helvetica,sans-Serif" font-size="11.00" fill="#000000">reference_id_</text>
<polygon fill="none" stroke="#000000" points="231.5,-794.7 231.5,-813.7 428.5,-813.7 428.5,-794.7 231.5,-794.7"/>
<text text-anchor="start" x="234.5" y="-800.8" font-family="Helvetica,sans-Serif" font-size="11.00" fill="#000000">...</text>
<polygon fill="#ffffff" stroke="transparent" points="231.5,-775.7 231.5,-794.7 428.5,-794.7 428.5,-775.7 231.5,-775.7"/>
<polygon fill="none" stroke="#000000" points="231.5,-775.7 231.5,-794.7 428.5,-794.7 428.5,-775.7 231.5,-775.7"/>
<polygon fill="#ffffff" stroke="transparent" points="232.5,-776.7 232.5,-793.7 298.5,-793.7 298.5,-776.7 232.5,-776.7"/>
<text text-anchor="start" x="234.5" y="-781.8" font-family="Helvetica,sans-Serif" font-size="11.00" fill="#000000">&lt; 4</text>
<polygon fill="#ffffff" stroke="transparent" points="298.5,-776.7 298.5,-793.7 355.5,-793.7 355.5,-776.7 298.5,-776.7"/>
<text text-anchor="start" x="323.9431" y="-781.8" font-family="Helvetica,sans-Serif" font-size="11.00" fill="#000000"> &#160;</text>
<polygon fill="#ffffff" stroke="transparent" points="355.5,-776.7 355.5,-793.7 427.5,-793.7 427.5,-776.7 355.5,-776.7"/>
<text text-anchor="start" x="403.7904" y="-781.8" font-family="Helvetica,sans-Serif" font-size="11.00" fill="#000000">17 &gt;</text>
<polygon fill="#000000" stroke="#000000" points="298.5,-776.7 298.5,-793.7 298.5,-793.7 298.5,-776.7 298.5,-776.7"/>
<polygon fill="#000000" stroke="#000000" points="355.5,-776.7 355.5,-793.7 355.5,-793.7 355.5,-776.7 355.5,-776.7"/>
</a>
</g>
</g>
<!-- act_re_procdef -->
<g id="node2" class="node">
<title>act_re_procdef</title>
<g id="a_node2"><a xlink:href="../../tables/act_re_procdef.html" xlink:title="act_re_procdef" target="_top">
<polygon fill="#ffffff" stroke="transparent" points="8,-615.2 8,-786.2 182,-786.2 182,-615.2 8,-615.2"/>
<polygon fill="#f5f5f5" stroke="transparent" points="8,-762.7 8,-785.7 182,-785.7 182,-762.7 8,-762.7"/>
<polygon fill="none" stroke="#000000" points="8,-762.7 8,-785.7 182,-785.7 182,-762.7 8,-762.7"/>
<text text-anchor="start" x="13" y="-771.3" font-family="Helvetica,sans-Serif" font-weight="bold" font-size="11.00" fill="#000000">act_re_procdef</text>
<text text-anchor="start" x="147.0437" y="-770.8" font-family="Helvetica,sans-Serif" font-size="11.00" fill="#000000">[table]</text>
<polygon fill="none" stroke="#000000" points="8,-740.7 8,-762.7 182,-762.7 182,-740.7 8,-740.7"/>
<image xlink:href="../../images/primaryKeys.png" width="11px" height="12px" preserveAspectRatio="xMinYMin meet" x="13" y="-757.7"/>
<text text-anchor="start" x="28" y="-747.8" font-family="Helvetica,sans-Serif" font-size="11.00" fill="#000000">id_</text>
<polygon fill="#ffffff" stroke="transparent" points="8,-718.7 8,-740.7 182,-740.7 182,-718.7 8,-718.7"/>
<polygon fill="none" stroke="#000000" points="8,-718.7 8,-740.7 182,-740.7 182,-718.7 8,-718.7"/>
<text text-anchor="start" x="28" y="-725.8" font-family="Helvetica,sans-Serif" font-size="11.00" fill="#000000">key_</text>
<polygon fill="#ffffff" stroke="transparent" points="8,-696.7 8,-718.7 182,-718.7 182,-696.7 8,-696.7"/>
<polygon fill="none" stroke="#000000" points="8,-696.7 8,-718.7 182,-718.7 182,-696.7 8,-696.7"/>
<text text-anchor="start" x="28" y="-703.8" font-family="Helvetica,sans-Serif" font-size="11.00" fill="#000000">version_</text>
<polygon fill="#ffffff" stroke="transparent" points="8,-674.7 8,-696.7 182,-696.7 182,-674.7 8,-674.7"/>
<polygon fill="none" stroke="#000000" points="8,-674.7 8,-696.7 182,-696.7 182,-674.7 8,-674.7"/>
<text text-anchor="start" x="28" y="-681.8" font-family="Helvetica,sans-Serif" font-size="11.00" fill="#000000">tenant_id_</text>
<polygon fill="#ffffff" stroke="transparent" points="8,-652.7 8,-674.7 182,-674.7 182,-652.7 8,-652.7"/>
<polygon fill="none" stroke="#000000" points="8,-652.7 8,-674.7 182,-674.7 182,-652.7 8,-652.7"/>
<text text-anchor="start" x="28" y="-659.8" font-family="Helvetica,sans-Serif" font-size="11.00" fill="#000000">derived_version_</text>
<polygon fill="none" stroke="#000000" points="8,-633.7 8,-652.7 182,-652.7 182,-633.7 8,-633.7"/>
<text text-anchor="start" x="11" y="-639.8" font-family="Helvetica,sans-Serif" font-size="11.00" fill="#000000">...</text>
<polygon fill="#ffffff" stroke="transparent" points="8,-614.7 8,-633.7 182,-633.7 182,-614.7 8,-614.7"/>
<polygon fill="none" stroke="#000000" points="8,-614.7 8,-633.7 182,-633.7 182,-614.7 8,-614.7"/>
<polygon fill="#ffffff" stroke="transparent" points="9,-615.7 9,-632.7 64,-632.7 64,-615.7 9,-615.7"/>
<text text-anchor="start" x="11" y="-620.8" font-family="Helvetica,sans-Serif" font-size="11.00" fill="#000000"> &#160;</text>
<polygon fill="#ffffff" stroke="transparent" points="64,-615.7 64,-632.7 118,-632.7 118,-615.7 64,-615.7"/>
<text text-anchor="start" x="87.9431" y="-620.8" font-family="Helvetica,sans-Serif" font-size="11.00" fill="#000000"> &#160;</text>
<polygon fill="#ffffff" stroke="transparent" points="118,-615.7 118,-632.7 181,-632.7 181,-615.7 118,-615.7"/>
<text text-anchor="start" x="163.4053" y="-620.8" font-family="Helvetica,sans-Serif" font-size="11.00" fill="#000000">8 &gt;</text>
<polygon fill="#000000" stroke="#000000" points="64,-615.7 64,-632.7 64,-632.7 64,-615.7 64,-615.7"/>
<polygon fill="#000000" stroke="#000000" points="118,-615.7 118,-632.7 118,-632.7 118,-615.7 118,-615.7"/>
</a>
</g>
</g>
<!-- act_ru_execution&#45;&gt;act_re_procdef -->
<g id="edge1" class="edge">
<title>act_ru_execution:w&#45;&gt;act_re_procdef:e</title>
<path fill="none" stroke="#000000" d="M217.1765,-887.5356C179.406,-866.8454 241.6864,-751.7 182,-751.7"/>
<polygon fill="#000000" stroke="#000000" points="223.6884,-888.9742 230.7234,-894.2152 227.5942,-889.8371 231.5,-890.7 231.5,-890.7 231.5,-890.7 227.5942,-889.8371 232.2766,-887.1848 223.6884,-888.9742 223.6884,-888.9742"/>
<ellipse fill="none" stroke="#000000" cx="220.5637" cy="-888.2839" rx="3.2" ry="3.2"/>
</g>
<!-- act_ru_identitylink -->
<g id="node3" class="node">
<title>act_ru_identitylink</title>
<g id="a_node3"><a xlink:href="../../tables/act_ru_identitylink.html" xlink:title="act_ru_identitylink" target="_top">
<polygon fill="#ffffff" stroke="transparent" points="803,-38.2 803,-319.2 956,-319.2 956,-38.2 803,-38.2"/>
<polygon fill="#f5f5f5" stroke="transparent" points="803.5,-295.7 803.5,-318.7 956.5,-318.7 956.5,-295.7 803.5,-295.7"/>
<polygon fill="none" stroke="#000000" points="803.5,-295.7 803.5,-318.7 956.5,-318.7 956.5,-295.7 803.5,-295.7"/>
<text text-anchor="start" x="808.5" y="-304.3" font-family="Helvetica,sans-Serif" font-weight="bold" font-size="11.00" fill="#000000">act_ru_identitylink</text>
<text text-anchor="start" x="922.0219" y="-303.8" font-family="Helvetica,sans-Serif" font-size="11.00" fill="#000000">[table]</text>
<polygon fill="none" stroke="#000000" points="803.5,-273.7 803.5,-295.7 956.5,-295.7 956.5,-273.7 803.5,-273.7"/>
<image xlink:href="../../images/primaryKeys.png" width="11px" height="12px" preserveAspectRatio="xMinYMin meet" x="808.5" y="-290.7"/>
<text text-anchor="start" x="825.5" y="-280.8" font-family="Helvetica,sans-Serif" font-size="11.00" fill="#000000">id_</text>
<polygon fill="#ffffff" stroke="transparent" points="803.5,-251.7 803.5,-273.7 956.5,-273.7 956.5,-251.7 803.5,-251.7"/>
<polygon fill="none" stroke="#000000" points="803.5,-251.7 803.5,-273.7 956.5,-273.7 956.5,-251.7 803.5,-251.7"/>
<text text-anchor="start" x="825.5" y="-258.8" font-family="Helvetica,sans-Serif" font-size="11.00" fill="#000000">group_id_</text>
<polygon fill="#ffffff" stroke="transparent" points="803.5,-229.7 803.5,-251.7 956.5,-251.7 956.5,-229.7 803.5,-229.7"/>
<polygon fill="none" stroke="#000000" points="803.5,-229.7 803.5,-251.7 956.5,-251.7 956.5,-229.7 803.5,-229.7"/>
<text text-anchor="start" x="825.5" y="-236.8" font-family="Helvetica,sans-Serif" font-size="11.00" fill="#000000">user_id_</text>
<polygon fill="#ffffff" stroke="transparent" points="803.5,-207.7 803.5,-229.7 956.5,-229.7 956.5,-207.7 803.5,-207.7"/>
<polygon fill="none" stroke="#000000" points="803.5,-207.7 803.5,-229.7 956.5,-229.7 956.5,-207.7 803.5,-207.7"/>
<image xlink:href="../../images/foreignKeys.png" width="11px" height="12px" preserveAspectRatio="xMinYMin meet" x="808.5" y="-224.7"/>
<text text-anchor="start" x="825.5" y="-214.8" font-family="Helvetica,sans-Serif" font-size="11.00" fill="#000000">task_id_</text>
<polygon fill="#ffffff" stroke="transparent" points="803.5,-185.7 803.5,-207.7 956.5,-207.7 956.5,-185.7 803.5,-185.7"/>
<polygon fill="none" stroke="#000000" points="803.5,-185.7 803.5,-207.7 956.5,-207.7 956.5,-185.7 803.5,-185.7"/>
<image xlink:href="../../images/foreignKeys.png" width="11px" height="12px" preserveAspectRatio="xMinYMin meet" x="808.5" y="-202.7"/>
<text text-anchor="start" x="825.5" y="-192.8" font-family="Helvetica,sans-Serif" font-size="11.00" fill="#000000">proc_inst_id_</text>
<polygon fill="#ffffff" stroke="transparent" points="803.5,-163.7 803.5,-185.7 956.5,-185.7 956.5,-163.7 803.5,-163.7"/>
<polygon fill="none" stroke="#000000" points="803.5,-163.7 803.5,-185.7 956.5,-185.7 956.5,-163.7 803.5,-163.7"/>
<image xlink:href="../../images/foreignKeys.png" width="11px" height="12px" preserveAspectRatio="xMinYMin meet" x="808.5" y="-180.7"/>
<text text-anchor="start" x="825.5" y="-170.8" font-family="Helvetica,sans-Serif" font-size="11.00" fill="#000000">proc_def_id_</text>
<polygon fill="#ffffff" stroke="transparent" points="803.5,-141.7 803.5,-163.7 956.5,-163.7 956.5,-141.7 803.5,-141.7"/>
<polygon fill="none" stroke="#000000" points="803.5,-141.7 803.5,-163.7 956.5,-163.7 956.5,-141.7 803.5,-141.7"/>
<text text-anchor="start" x="825.5" y="-148.8" font-family="Helvetica,sans-Serif" font-size="11.00" fill="#000000">scope_id_</text>
<polygon fill="#ffffff" stroke="transparent" points="803.5,-119.7 803.5,-141.7 956.5,-141.7 956.5,-119.7 803.5,-119.7"/>
<polygon fill="none" stroke="#000000" points="803.5,-119.7 803.5,-141.7 956.5,-141.7 956.5,-119.7 803.5,-119.7"/>
<text text-anchor="start" x="825.5" y="-126.8" font-family="Helvetica,sans-Serif" font-size="11.00" fill="#000000">sub_scope_id_</text>
<polygon fill="#ffffff" stroke="transparent" points="803.5,-97.7 803.5,-119.7 956.5,-119.7 956.5,-97.7 803.5,-97.7"/>
<polygon fill="none" stroke="#000000" points="803.5,-97.7 803.5,-119.7 956.5,-119.7 956.5,-97.7 803.5,-97.7"/>
<text text-anchor="start" x="825.5" y="-104.8" font-family="Helvetica,sans-Serif" font-size="11.00" fill="#000000">scope_type_</text>
<polygon fill="#ffffff" stroke="transparent" points="803.5,-75.7 803.5,-97.7 956.5,-97.7 956.5,-75.7 803.5,-75.7"/>
<polygon fill="none" stroke="#000000" points="803.5,-75.7 803.5,-97.7 956.5,-97.7 956.5,-75.7 803.5,-75.7"/>
<text text-anchor="start" x="825.5" y="-82.8" font-family="Helvetica,sans-Serif" font-size="11.00" fill="#000000">scope_definition_id_</text>
<polygon fill="none" stroke="#000000" points="803.5,-56.7 803.5,-75.7 956.5,-75.7 956.5,-56.7 803.5,-56.7"/>
<text text-anchor="start" x="806.5" y="-62.8" font-family="Helvetica,sans-Serif" font-size="11.00" fill="#000000">...</text>
<polygon fill="#ffffff" stroke="transparent" points="803.5,-37.7 803.5,-56.7 956.5,-56.7 956.5,-37.7 803.5,-37.7"/>
<polygon fill="none" stroke="#000000" points="803.5,-37.7 803.5,-56.7 956.5,-56.7 956.5,-37.7 803.5,-37.7"/>
<polygon fill="#ffffff" stroke="transparent" points="804.5,-38.7 804.5,-55.7 861.5,-55.7 861.5,-38.7 804.5,-38.7"/>
<text text-anchor="start" x="806.5" y="-43.8" font-family="Helvetica,sans-Serif" font-size="11.00" fill="#000000">&lt; 3</text>
<polygon fill="#ffffff" stroke="transparent" points="861.5,-38.7 861.5,-55.7 908.5,-55.7 908.5,-38.7 861.5,-38.7"/>
<text text-anchor="start" x="881.9431" y="-43.8" font-family="Helvetica,sans-Serif" font-size="11.00" fill="#000000"> &#160;</text>
<polygon fill="#ffffff" stroke="transparent" points="908.5,-38.7 908.5,-55.7 955.5,-55.7 955.5,-38.7 908.5,-38.7"/>
<text text-anchor="start" x="947.3862" y="-43.8" font-family="Helvetica,sans-Serif" font-size="11.00" fill="#000000"> &#160;</text>
<polygon fill="#000000" stroke="#000000" points="861.5,-38.7 861.5,-55.7 861.5,-55.7 861.5,-38.7 861.5,-38.7"/>
<polygon fill="#000000" stroke="#000000" points="908.5,-38.7 908.5,-55.7 908.5,-55.7 908.5,-38.7 908.5,-38.7"/>
</a>
</g>
</g>
<!-- act_ru_identitylink&#45;&gt;act_ru_execution -->
<g id="edge3" class="edge">
<title>act_ru_identitylink:w&#45;&gt;act_ru_execution:e</title>
<path fill="none" stroke="#000000" d="M788.8531,-196.3099C704.9779,-192.3498 518.8073,-160.574 469,-209.7 408.0827,-269.784 514.0629,-978.7 428.5,-978.7"/>
<polygon fill="#000000" stroke="#000000" points="795.5028,-196.487 803.4041,-200.2987 799.5014,-196.5935 803.5,-196.7 803.5,-196.7 803.5,-196.7 799.5014,-196.5935 803.5959,-193.1013 795.5028,-196.487 795.5028,-196.487"/>
<ellipse fill="none" stroke="#000000" cx="792.304" cy="-196.4017" rx="3.2" ry="3.2"/>
</g>
<!-- act_ru_identitylink&#45;&gt;act_re_procdef -->
<g id="edge2" class="edge">
<title>act_ru_identitylink:w&#45;&gt;act_re_procdef:e</title>
<path fill="none" stroke="#000000" d="M788.9769,-174.4663C650.7558,-170.009 590.6819,-104.1584 469,-180.7 408.8947,-218.5081 253.0077,-751.7 182,-751.7"/>
<polygon fill="#000000" stroke="#000000" points="795.501,-174.5712 803.442,-178.2995 799.5005,-174.6356 803.5,-174.7 803.5,-174.7 803.5,-174.7 799.5005,-174.6356 803.558,-171.1005 795.501,-174.5712 795.501,-174.5712"/>
<ellipse fill="none" stroke="#000000" cx="792.3015" cy="-174.5197" rx="3.2" ry="3.2"/>
</g>
<!-- act_ru_task -->
<g id="node4" class="node">
<title>act_ru_task</title>
<g id="a_node4"><a xlink:href="../../tables/act_ru_task.html" xlink:title="act_ru_task" target="_top">
<polygon fill="#ffffff" stroke="transparent" points="477,-220.7 477,-1080.7 754,-1080.7 754,-220.7 477,-220.7"/>
<polygon fill="#f5f5f5" stroke="transparent" points="479.5,-1055.7 479.5,-1078.7 752.5,-1078.7 752.5,-1055.7 479.5,-1055.7"/>
<polygon fill="none" stroke="#000000" points="479.5,-1055.7 479.5,-1078.7 752.5,-1078.7 752.5,-1055.7 479.5,-1055.7"/>
<text text-anchor="start" x="484.5" y="-1064.3" font-family="Helvetica,sans-Serif" font-weight="bold" font-size="11.00" fill="#000000">act_ru_task</text>
<text text-anchor="start" x="717.5437" y="-1063.8" font-family="Helvetica,sans-Serif" font-size="11.00" fill="#000000">[table]</text>
<polygon fill="none" stroke="#000000" points="479.5,-1033.7 479.5,-1055.7 668.5,-1055.7 668.5,-1033.7 479.5,-1033.7"/>
<image xlink:href="../../images/primaryKeys.png" width="11px" height="12px" preserveAspectRatio="xMinYMin meet" x="484.5" y="-1050.7"/>
<text text-anchor="start" x="499.5" y="-1040.8" font-family="Helvetica,sans-Serif" font-size="11.00" fill="#000000">id_</text>
<polygon fill="none" stroke="#000000" points="668.5,-1033.7 668.5,-1055.7 752.5,-1055.7 752.5,-1033.7 668.5,-1033.7"/>
<text text-anchor="start" x="671.5" y="-1041.4" font-family="Helvetica,sans-Serif" font-size="11.00" fill="#000000">varchar[64]</text>
<polygon fill="none" stroke="#000000" points="479.5,-1011.7 479.5,-1033.7 668.5,-1033.7 668.5,-1011.7 479.5,-1011.7"/>
<text text-anchor="start" x="499.5" y="-1018.8" font-family="Helvetica,sans-Serif" font-size="11.00" fill="#000000">rev_</text>
<polygon fill="none" stroke="#000000" points="668.5,-1011.7 668.5,-1033.7 752.5,-1033.7 752.5,-1011.7 668.5,-1011.7"/>
<text text-anchor="start" x="671.5" y="-1019.4" font-family="Helvetica,sans-Serif" font-size="11.00" fill="#000000">int4[10]</text>
<polygon fill="#ffffff" stroke="transparent" points="479.5,-989.7 479.5,-1011.7 668.5,-1011.7 668.5,-989.7 479.5,-989.7"/>
<polygon fill="none" stroke="#000000" points="479.5,-989.7 479.5,-1011.7 668.5,-1011.7 668.5,-989.7 479.5,-989.7"/>
<image xlink:href="../../images/foreignKeys.png" width="11px" height="12px" preserveAspectRatio="xMinYMin meet" x="484.5" y="-1006.7"/>
<text text-anchor="start" x="499.5" y="-996.8" font-family="Helvetica,sans-Serif" font-size="11.00" fill="#000000">execution_id_</text>
<polygon fill="none" stroke="#000000" points="668.5,-989.7 668.5,-1011.7 752.5,-1011.7 752.5,-989.7 668.5,-989.7"/>
<text text-anchor="start" x="671.5" y="-997.4" font-family="Helvetica,sans-Serif" font-size="11.00" fill="#000000">varchar[64]</text>
<polygon fill="#ffffff" stroke="transparent" points="479.5,-967.7 479.5,-989.7 668.5,-989.7 668.5,-967.7 479.5,-967.7"/>
<polygon fill="none" stroke="#000000" points="479.5,-967.7 479.5,-989.7 668.5,-989.7 668.5,-967.7 479.5,-967.7"/>
<image xlink:href="../../images/foreignKeys.png" width="11px" height="12px" preserveAspectRatio="xMinYMin meet" x="484.5" y="-984.7"/>
<text text-anchor="start" x="499.5" y="-974.8" font-family="Helvetica,sans-Serif" font-size="11.00" fill="#000000">proc_inst_id_</text>
<polygon fill="none" stroke="#000000" points="668.5,-967.7 668.5,-989.7 752.5,-989.7 752.5,-967.7 668.5,-967.7"/>
<text text-anchor="start" x="671.5" y="-975.4" font-family="Helvetica,sans-Serif" font-size="11.00" fill="#000000">varchar[64]</text>
<polygon fill="#ffffff" stroke="transparent" points="479.5,-945.7 479.5,-967.7 668.5,-967.7 668.5,-945.7 479.5,-945.7"/>
<polygon fill="none" stroke="#000000" points="479.5,-945.7 479.5,-967.7 668.5,-967.7 668.5,-945.7 479.5,-945.7"/>
<image xlink:href="../../images/foreignKeys.png" width="11px" height="12px" preserveAspectRatio="xMinYMin meet" x="484.5" y="-962.7"/>
<text text-anchor="start" x="499.5" y="-952.8" font-family="Helvetica,sans-Serif" font-size="11.00" fill="#000000">proc_def_id_</text>
<polygon fill="none" stroke="#000000" points="668.5,-945.7 668.5,-967.7 752.5,-967.7 752.5,-945.7 668.5,-945.7"/>
<text text-anchor="start" x="671.5" y="-953.4" font-family="Helvetica,sans-Serif" font-size="11.00" fill="#000000">varchar[64]</text>
<polygon fill="none" stroke="#000000" points="479.5,-923.7 479.5,-945.7 668.5,-945.7 668.5,-923.7 479.5,-923.7"/>
<text text-anchor="start" x="499.5" y="-930.8" font-family="Helvetica,sans-Serif" font-size="11.00" fill="#000000">task_def_id_</text>
<polygon fill="none" stroke="#000000" points="668.5,-923.7 668.5,-945.7 752.5,-945.7 752.5,-923.7 668.5,-923.7"/>
<text text-anchor="start" x="671.5" y="-931.4" font-family="Helvetica,sans-Serif" font-size="11.00" fill="#000000">varchar[64]</text>
<polygon fill="#ffffff" stroke="transparent" points="479.5,-901.7 479.5,-923.7 668.5,-923.7 668.5,-901.7 479.5,-901.7"/>
<polygon fill="none" stroke="#000000" points="479.5,-901.7 479.5,-923.7 668.5,-923.7 668.5,-901.7 479.5,-901.7"/>
<text text-anchor="start" x="499.5" y="-908.8" font-family="Helvetica,sans-Serif" font-size="11.00" fill="#000000">scope_id_</text>
<polygon fill="none" stroke="#000000" points="668.5,-901.7 668.5,-923.7 752.5,-923.7 752.5,-901.7 668.5,-901.7"/>
<text text-anchor="start" x="671.5" y="-909.4" font-family="Helvetica,sans-Serif" font-size="11.00" fill="#000000">varchar[255]</text>
<polygon fill="#ffffff" stroke="transparent" points="479.5,-879.7 479.5,-901.7 668.5,-901.7 668.5,-879.7 479.5,-879.7"/>
<polygon fill="none" stroke="#000000" points="479.5,-879.7 479.5,-901.7 668.5,-901.7 668.5,-879.7 479.5,-879.7"/>
<text text-anchor="start" x="499.5" y="-886.8" font-family="Helvetica,sans-Serif" font-size="11.00" fill="#000000">sub_scope_id_</text>
<polygon fill="none" stroke="#000000" points="668.5,-879.7 668.5,-901.7 752.5,-901.7 752.5,-879.7 668.5,-879.7"/>
<text text-anchor="start" x="671.5" y="-887.4" font-family="Helvetica,sans-Serif" font-size="11.00" fill="#000000">varchar[255]</text>
<polygon fill="#ffffff" stroke="transparent" points="479.5,-857.7 479.5,-879.7 668.5,-879.7 668.5,-857.7 479.5,-857.7"/>
<polygon fill="none" stroke="#000000" points="479.5,-857.7 479.5,-879.7 668.5,-879.7 668.5,-857.7 479.5,-857.7"/>
<text text-anchor="start" x="499.5" y="-864.8" font-family="Helvetica,sans-Serif" font-size="11.00" fill="#000000">scope_type_</text>
<polygon fill="none" stroke="#000000" points="668.5,-857.7 668.5,-879.7 752.5,-879.7 752.5,-857.7 668.5,-857.7"/>
<text text-anchor="start" x="671.5" y="-865.4" font-family="Helvetica,sans-Serif" font-size="11.00" fill="#000000">varchar[255]</text>
<polygon fill="#ffffff" stroke="transparent" points="479.5,-835.7 479.5,-857.7 668.5,-857.7 668.5,-835.7 479.5,-835.7"/>
<polygon fill="none" stroke="#000000" points="479.5,-835.7 479.5,-857.7 668.5,-857.7 668.5,-835.7 479.5,-835.7"/>
<text text-anchor="start" x="499.5" y="-842.8" font-family="Helvetica,sans-Serif" font-size="11.00" fill="#000000">scope_definition_id_</text>
<polygon fill="none" stroke="#000000" points="668.5,-835.7 668.5,-857.7 752.5,-857.7 752.5,-835.7 668.5,-835.7"/>
<text text-anchor="start" x="671.5" y="-843.4" font-family="Helvetica,sans-Serif" font-size="11.00" fill="#000000">varchar[255]</text>
<polygon fill="none" stroke="#000000" points="479.5,-813.7 479.5,-835.7 668.5,-835.7 668.5,-813.7 479.5,-813.7"/>
<text text-anchor="start" x="499.5" y="-820.8" font-family="Helvetica,sans-Serif" font-size="11.00" fill="#000000">propagated_stage_inst_id_</text>
<polygon fill="none" stroke="#000000" points="668.5,-813.7 668.5,-835.7 752.5,-835.7 752.5,-813.7 668.5,-813.7"/>
<text text-anchor="start" x="671.5" y="-821.4" font-family="Helvetica,sans-Serif" font-size="11.00" fill="#000000">varchar[255]</text>
<polygon fill="none" stroke="#000000" points="479.5,-791.7 479.5,-813.7 668.5,-813.7 668.5,-791.7 479.5,-791.7"/>
<text text-anchor="start" x="499.5" y="-798.8" font-family="Helvetica,sans-Serif" font-size="11.00" fill="#000000">state_</text>
<polygon fill="none" stroke="#000000" points="668.5,-791.7 668.5,-813.7 752.5,-813.7 752.5,-791.7 668.5,-791.7"/>
<text text-anchor="start" x="671.5" y="-799.4" font-family="Helvetica,sans-Serif" font-size="11.00" fill="#000000">varchar[255]</text>
<polygon fill="none" stroke="#000000" points="479.5,-769.7 479.5,-791.7 668.5,-791.7 668.5,-769.7 479.5,-769.7"/>
<text text-anchor="start" x="499.5" y="-776.8" font-family="Helvetica,sans-Serif" font-size="11.00" fill="#000000">name_</text>
<polygon fill="none" stroke="#000000" points="668.5,-769.7 668.5,-791.7 752.5,-791.7 752.5,-769.7 668.5,-769.7"/>
<text text-anchor="start" x="671.5" y="-777.4" font-family="Helvetica,sans-Serif" font-size="11.00" fill="#000000">varchar[255]</text>
<polygon fill="none" stroke="#000000" points="479.5,-747.7 479.5,-769.7 668.5,-769.7 668.5,-747.7 479.5,-747.7"/>
<text text-anchor="start" x="499.5" y="-754.8" font-family="Helvetica,sans-Serif" font-size="11.00" fill="#000000">parent_task_id_</text>
<polygon fill="none" stroke="#000000" points="668.5,-747.7 668.5,-769.7 752.5,-769.7 752.5,-747.7 668.5,-747.7"/>
<text text-anchor="start" x="671.5" y="-755.4" font-family="Helvetica,sans-Serif" font-size="11.00" fill="#000000">varchar[64]</text>
<polygon fill="none" stroke="#000000" points="479.5,-725.7 479.5,-747.7 668.5,-747.7 668.5,-725.7 479.5,-725.7"/>
<text text-anchor="start" x="499.5" y="-732.8" font-family="Helvetica,sans-Serif" font-size="11.00" fill="#000000">description_</text>
<polygon fill="none" stroke="#000000" points="668.5,-725.7 668.5,-747.7 752.5,-747.7 752.5,-725.7 668.5,-725.7"/>
<text text-anchor="start" x="671.5" y="-733.4" font-family="Helvetica,sans-Serif" font-size="11.00" fill="#000000">varchar[4000]</text>
<polygon fill="none" stroke="#000000" points="479.5,-703.7 479.5,-725.7 668.5,-725.7 668.5,-703.7 479.5,-703.7"/>
<text text-anchor="start" x="499.5" y="-710.8" font-family="Helvetica,sans-Serif" font-size="11.00" fill="#000000">task_def_key_</text>
<polygon fill="none" stroke="#000000" points="668.5,-703.7 668.5,-725.7 752.5,-725.7 752.5,-703.7 668.5,-703.7"/>
<text text-anchor="start" x="671.5" y="-711.4" font-family="Helvetica,sans-Serif" font-size="11.00" fill="#000000">varchar[255]</text>
<polygon fill="none" stroke="#000000" points="479.5,-681.7 479.5,-703.7 668.5,-703.7 668.5,-681.7 479.5,-681.7"/>
<text text-anchor="start" x="499.5" y="-688.8" font-family="Helvetica,sans-Serif" font-size="11.00" fill="#000000">owner_</text>
<polygon fill="none" stroke="#000000" points="668.5,-681.7 668.5,-703.7 752.5,-703.7 752.5,-681.7 668.5,-681.7"/>
<text text-anchor="start" x="671.5" y="-689.4" font-family="Helvetica,sans-Serif" font-size="11.00" fill="#000000">varchar[255]</text>
<polygon fill="none" stroke="#000000" points="479.5,-659.7 479.5,-681.7 668.5,-681.7 668.5,-659.7 479.5,-659.7"/>
<text text-anchor="start" x="499.5" y="-666.8" font-family="Helvetica,sans-Serif" font-size="11.00" fill="#000000">assignee_</text>
<polygon fill="none" stroke="#000000" points="668.5,-659.7 668.5,-681.7 752.5,-681.7 752.5,-659.7 668.5,-659.7"/>
<text text-anchor="start" x="671.5" y="-667.4" font-family="Helvetica,sans-Serif" font-size="11.00" fill="#000000">varchar[255]</text>
<polygon fill="none" stroke="#000000" points="479.5,-637.7 479.5,-659.7 668.5,-659.7 668.5,-637.7 479.5,-637.7"/>
<text text-anchor="start" x="499.5" y="-644.8" font-family="Helvetica,sans-Serif" font-size="11.00" fill="#000000">delegation_</text>
<polygon fill="none" stroke="#000000" points="668.5,-637.7 668.5,-659.7 752.5,-659.7 752.5,-637.7 668.5,-637.7"/>
<text text-anchor="start" x="671.5" y="-645.4" font-family="Helvetica,sans-Serif" font-size="11.00" fill="#000000">varchar[64]</text>
<polygon fill="none" stroke="#000000" points="479.5,-615.7 479.5,-637.7 668.5,-637.7 668.5,-615.7 479.5,-615.7"/>
<text text-anchor="start" x="499.5" y="-622.8" font-family="Helvetica,sans-Serif" font-size="11.00" fill="#000000">priority_</text>
<polygon fill="none" stroke="#000000" points="668.5,-615.7 668.5,-637.7 752.5,-637.7 752.5,-615.7 668.5,-615.7"/>
<text text-anchor="start" x="671.5" y="-623.4" font-family="Helvetica,sans-Serif" font-size="11.00" fill="#000000">int4[10]</text>
<polygon fill="#ffffff" stroke="transparent" points="479.5,-593.7 479.5,-615.7 668.5,-615.7 668.5,-593.7 479.5,-593.7"/>
<polygon fill="none" stroke="#000000" points="479.5,-593.7 479.5,-615.7 668.5,-615.7 668.5,-593.7 479.5,-593.7"/>
<text text-anchor="start" x="499.5" y="-600.8" font-family="Helvetica,sans-Serif" font-size="11.00" fill="#000000">create_time_</text>
<polygon fill="none" stroke="#000000" points="668.5,-593.7 668.5,-615.7 752.5,-615.7 752.5,-593.7 668.5,-593.7"/>
<text text-anchor="start" x="671.3807" y="-601.4" font-family="Helvetica,sans-Serif" font-size="11.00" fill="#000000">timestamp[29,6]</text>
<polygon fill="none" stroke="#000000" points="479.5,-571.7 479.5,-593.7 668.5,-593.7 668.5,-571.7 479.5,-571.7"/>
<text text-anchor="start" x="499.5" y="-578.8" font-family="Helvetica,sans-Serif" font-size="11.00" fill="#000000">in_progress_time_</text>
<polygon fill="none" stroke="#000000" points="668.5,-571.7 668.5,-593.7 752.5,-593.7 752.5,-571.7 668.5,-571.7"/>
<text text-anchor="start" x="671.3807" y="-579.4" font-family="Helvetica,sans-Serif" font-size="11.00" fill="#000000">timestamp[29,6]</text>
<polygon fill="none" stroke="#000000" points="479.5,-549.7 479.5,-571.7 668.5,-571.7 668.5,-549.7 479.5,-549.7"/>
<text text-anchor="start" x="499.5" y="-556.8" font-family="Helvetica,sans-Serif" font-size="11.00" fill="#000000">in_progress_started_by_</text>
<polygon fill="none" stroke="#000000" points="668.5,-549.7 668.5,-571.7 752.5,-571.7 752.5,-549.7 668.5,-549.7"/>
<text text-anchor="start" x="671.5" y="-557.4" font-family="Helvetica,sans-Serif" font-size="11.00" fill="#000000">varchar[255]</text>
<polygon fill="none" stroke="#000000" points="479.5,-527.7 479.5,-549.7 668.5,-549.7 668.5,-527.7 479.5,-527.7"/>
<text text-anchor="start" x="499.5" y="-534.8" font-family="Helvetica,sans-Serif" font-size="11.00" fill="#000000">claim_time_</text>
<polygon fill="none" stroke="#000000" points="668.5,-527.7 668.5,-549.7 752.5,-549.7 752.5,-527.7 668.5,-527.7"/>
<text text-anchor="start" x="671.3807" y="-535.4" font-family="Helvetica,sans-Serif" font-size="11.00" fill="#000000">timestamp[29,6]</text>
<polygon fill="none" stroke="#000000" points="479.5,-505.7 479.5,-527.7 668.5,-527.7 668.5,-505.7 479.5,-505.7"/>
<text text-anchor="start" x="499.5" y="-512.8" font-family="Helvetica,sans-Serif" font-size="11.00" fill="#000000">claimed_by_</text>
<polygon fill="none" stroke="#000000" points="668.5,-505.7 668.5,-527.7 752.5,-527.7 752.5,-505.7 668.5,-505.7"/>
<text text-anchor="start" x="671.5" y="-513.4" font-family="Helvetica,sans-Serif" font-size="11.00" fill="#000000">varchar[255]</text>
<polygon fill="none" stroke="#000000" points="479.5,-483.7 479.5,-505.7 668.5,-505.7 668.5,-483.7 479.5,-483.7"/>
<text text-anchor="start" x="499.5" y="-490.8" font-family="Helvetica,sans-Serif" font-size="11.00" fill="#000000">suspended_time_</text>
<polygon fill="none" stroke="#000000" points="668.5,-483.7 668.5,-505.7 752.5,-505.7 752.5,-483.7 668.5,-483.7"/>
<text text-anchor="start" x="671.3807" y="-491.4" font-family="Helvetica,sans-Serif" font-size="11.00" fill="#000000">timestamp[29,6]</text>
<polygon fill="none" stroke="#000000" points="479.5,-461.7 479.5,-483.7 668.5,-483.7 668.5,-461.7 479.5,-461.7"/>
<text text-anchor="start" x="499.5" y="-468.8" font-family="Helvetica,sans-Serif" font-size="11.00" fill="#000000">suspended_by_</text>
<polygon fill="none" stroke="#000000" points="668.5,-461.7 668.5,-483.7 752.5,-483.7 752.5,-461.7 668.5,-461.7"/>
<text text-anchor="start" x="671.5" y="-469.4" font-family="Helvetica,sans-Serif" font-size="11.00" fill="#000000">varchar[255]</text>
<polygon fill="none" stroke="#000000" points="479.5,-439.7 479.5,-461.7 668.5,-461.7 668.5,-439.7 479.5,-439.7"/>
<text text-anchor="start" x="499.5" y="-446.8" font-family="Helvetica,sans-Serif" font-size="11.00" fill="#000000">in_progress_due_date_</text>
<polygon fill="none" stroke="#000000" points="668.5,-439.7 668.5,-461.7 752.5,-461.7 752.5,-439.7 668.5,-439.7"/>
<text text-anchor="start" x="671.3807" y="-447.4" font-family="Helvetica,sans-Serif" font-size="11.00" fill="#000000">timestamp[29,6]</text>
<polygon fill="none" stroke="#000000" points="479.5,-417.7 479.5,-439.7 668.5,-439.7 668.5,-417.7 479.5,-417.7"/>
<text text-anchor="start" x="499.5" y="-424.8" font-family="Helvetica,sans-Serif" font-size="11.00" fill="#000000">due_date_</text>
<polygon fill="none" stroke="#000000" points="668.5,-417.7 668.5,-439.7 752.5,-439.7 752.5,-417.7 668.5,-417.7"/>
<text text-anchor="start" x="671.3807" y="-425.4" font-family="Helvetica,sans-Serif" font-size="11.00" fill="#000000">timestamp[29,6]</text>
<polygon fill="none" stroke="#000000" points="479.5,-395.7 479.5,-417.7 668.5,-417.7 668.5,-395.7 479.5,-395.7"/>
<text text-anchor="start" x="499.5" y="-402.8" font-family="Helvetica,sans-Serif" font-size="11.00" fill="#000000">category_</text>
<polygon fill="none" stroke="#000000" points="668.5,-395.7 668.5,-417.7 752.5,-417.7 752.5,-395.7 668.5,-395.7"/>
<text text-anchor="start" x="671.5" y="-403.4" font-family="Helvetica,sans-Serif" font-size="11.00" fill="#000000">varchar[255]</text>
<polygon fill="none" stroke="#000000" points="479.5,-373.7 479.5,-395.7 668.5,-395.7 668.5,-373.7 479.5,-373.7"/>
<text text-anchor="start" x="499.5" y="-380.8" font-family="Helvetica,sans-Serif" font-size="11.00" fill="#000000">suspension_state_</text>
<polygon fill="none" stroke="#000000" points="668.5,-373.7 668.5,-395.7 752.5,-395.7 752.5,-373.7 668.5,-373.7"/>
<text text-anchor="start" x="671.5" y="-381.4" font-family="Helvetica,sans-Serif" font-size="11.00" fill="#000000">int4[10]</text>
<polygon fill="none" stroke="#000000" points="479.5,-351.7 479.5,-373.7 668.5,-373.7 668.5,-351.7 479.5,-351.7"/>
<text text-anchor="start" x="499.5" y="-358.8" font-family="Helvetica,sans-Serif" font-size="11.00" fill="#000000">tenant_id_</text>
<polygon fill="none" stroke="#000000" points="668.5,-351.7 668.5,-373.7 752.5,-373.7 752.5,-351.7 668.5,-351.7"/>
<text text-anchor="start" x="671.5" y="-359.4" font-family="Helvetica,sans-Serif" font-size="11.00" fill="#000000">varchar[255]</text>
<polygon fill="none" stroke="#000000" points="479.5,-329.7 479.5,-351.7 668.5,-351.7 668.5,-329.7 479.5,-329.7"/>
<text text-anchor="start" x="499.5" y="-336.8" font-family="Helvetica,sans-Serif" font-size="11.00" fill="#000000">form_key_</text>
<polygon fill="none" stroke="#000000" points="668.5,-329.7 668.5,-351.7 752.5,-351.7 752.5,-329.7 668.5,-329.7"/>
<text text-anchor="start" x="671.5" y="-337.4" font-family="Helvetica,sans-Serif" font-size="11.00" fill="#000000">varchar[255]</text>
<polygon fill="none" stroke="#000000" points="479.5,-307.7 479.5,-329.7 668.5,-329.7 668.5,-307.7 479.5,-307.7"/>
<text text-anchor="start" x="499.5" y="-314.8" font-family="Helvetica,sans-Serif" font-size="11.00" fill="#000000">is_count_enabled_</text>
<polygon fill="none" stroke="#000000" points="668.5,-307.7 668.5,-329.7 752.5,-329.7 752.5,-307.7 668.5,-307.7"/>
<text text-anchor="start" x="671.5" y="-315.4" font-family="Helvetica,sans-Serif" font-size="11.00" fill="#000000">bool[1]</text>
<polygon fill="none" stroke="#000000" points="479.5,-285.7 479.5,-307.7 668.5,-307.7 668.5,-285.7 479.5,-285.7"/>
<text text-anchor="start" x="499.5" y="-292.8" font-family="Helvetica,sans-Serif" font-size="11.00" fill="#000000">var_count_</text>
<polygon fill="none" stroke="#000000" points="668.5,-285.7 668.5,-307.7 752.5,-307.7 752.5,-285.7 668.5,-285.7"/>
<text text-anchor="start" x="671.5" y="-293.4" font-family="Helvetica,sans-Serif" font-size="11.00" fill="#000000">int4[10]</text>
<polygon fill="none" stroke="#000000" points="479.5,-263.7 479.5,-285.7 668.5,-285.7 668.5,-263.7 479.5,-263.7"/>
<text text-anchor="start" x="499.5" y="-270.8" font-family="Helvetica,sans-Serif" font-size="11.00" fill="#000000">id_link_count_</text>
<polygon fill="none" stroke="#000000" points="668.5,-263.7 668.5,-285.7 752.5,-285.7 752.5,-263.7 668.5,-263.7"/>
<text text-anchor="start" x="671.5" y="-271.4" font-family="Helvetica,sans-Serif" font-size="11.00" fill="#000000">int4[10]</text>
<polygon fill="none" stroke="#000000" points="479.5,-241.7 479.5,-263.7 668.5,-263.7 668.5,-241.7 479.5,-241.7"/>
<text text-anchor="start" x="499.5" y="-248.8" font-family="Helvetica,sans-Serif" font-size="11.00" fill="#000000">sub_task_count_</text>
<polygon fill="none" stroke="#000000" points="668.5,-241.7 668.5,-263.7 752.5,-263.7 752.5,-241.7 668.5,-241.7"/>
<text text-anchor="start" x="671.5" y="-249.4" font-family="Helvetica,sans-Serif" font-size="11.00" fill="#000000">int4[10]</text>
<polygon fill="#ffffff" stroke="transparent" points="479.5,-222.7 479.5,-241.7 752.5,-241.7 752.5,-222.7 479.5,-222.7"/>
<polygon fill="none" stroke="#000000" points="479.5,-222.7 479.5,-241.7 752.5,-241.7 752.5,-222.7 479.5,-222.7"/>
<polygon fill="#ffffff" stroke="transparent" points="480.5,-223.7 480.5,-240.7 574.5,-240.7 574.5,-223.7 480.5,-223.7"/>
<text text-anchor="start" x="482.5" y="-228.8" font-family="Helvetica,sans-Serif" font-size="11.00" fill="#000000">&lt; 3</text>
<polygon fill="#ffffff" stroke="transparent" points="574.5,-223.7 574.5,-240.7 658.5,-240.7 658.5,-223.7 574.5,-223.7"/>
<text text-anchor="start" x="613.4431" y="-228.8" font-family="Helvetica,sans-Serif" font-size="11.00" fill="#000000"> &#160;</text>
<polygon fill="#ffffff" stroke="transparent" points="658.5,-223.7 658.5,-240.7 751.5,-240.7 751.5,-223.7 658.5,-223.7"/>
<text text-anchor="start" x="733.9053" y="-228.8" font-family="Helvetica,sans-Serif" font-size="11.00" fill="#000000">1 &gt;</text>
<polygon fill="#000000" stroke="#000000" points="574.5,-223.7 574.5,-240.7 574.5,-240.7 574.5,-223.7 574.5,-223.7"/>
<polygon fill="#000000" stroke="#000000" points="658.5,-223.7 658.5,-240.7 658.5,-240.7 658.5,-223.7 658.5,-223.7"/>
<polygon fill="none" stroke="#000000" stroke-width="2" points="478,-221.7 478,-1079.7 753,-1079.7 753,-221.7 478,-221.7"/>
</a>
</g>
</g>
<!-- act_ru_identitylink&#45;&gt;act_ru_task -->
<g id="edge4" class="edge">
<title>act_ru_identitylink:w&#45;&gt;act_ru_task:e</title>
<path fill="none" stroke="#000000" d="M790.3579,-225.8408C725.4115,-306.5734 839.4239,-1044.7 752.5,-1044.7"/>
<polygon fill="#000000" stroke="#000000" points="796.4706,-222.5195 805.2188,-221.8632 799.9853,-220.6097 803.5,-218.7 803.5,-218.7 803.5,-218.7 799.9853,-220.6097 801.7812,-215.5368 796.4706,-222.5195 796.4706,-222.5195"/>
<ellipse fill="none" stroke="#000000" cx="793.6589" cy="-224.0473" rx="3.2" ry="3.2"/>
</g>
<!-- act_ru_task&#45;&gt;act_ru_execution -->
<g id="edge5" class="edge">
<title>act_ru_task:w&#45;&gt;act_ru_execution:e</title>
<path fill="none" stroke="#000000" d="M465.3489,-997.641C452.7843,-991.596 447.4,-978.7 428.5,-978.7"/>
<polygon fill="#000000" stroke="#000000" points="471.6806,-999.0097 478.7393,-1004.2187 475.5903,-999.8548 479.5,-1000.7 479.5,-1000.7 479.5,-1000.7 475.5903,-999.8548 480.2607,-997.1813 471.6806,-999.0097 471.6806,-999.0097"/>
<ellipse fill="none" stroke="#000000" cx="468.5528" cy="-998.3335" rx="3.2" ry="3.2"/>
</g>
<!-- act_ru_task&#45;&gt;act_ru_execution -->
<g id="edge7" class="edge">
<title>act_ru_task:w&#45;&gt;act_ru_execution:e</title>
<path fill="none" stroke="#000000" d="M464.776,-978.7C452.7815,-978.7 445.3229,-978.7 428.5,-978.7"/>
<polygon fill="#000000" stroke="#000000" points="471.5,-978.7001 479.5,-982.3 475.5,-978.7 479.5,-978.7 479.5,-978.7 479.5,-978.7 475.5,-978.7 479.5,-975.1 471.5,-978.7001 471.5,-978.7001"/>
<ellipse fill="none" stroke="#000000" cx="468.3" cy="-978.7001" rx="3.2" ry="3.2"/>
</g>
<!-- act_ru_task&#45;&gt;act_re_procdef -->
<g id="edge6" class="edge">
<title>act_ru_task:w&#45;&gt;act_re_procdef:e</title>
<path fill="none" stroke="#000000" d="M465.0227,-955.0766C405.8959,-939.6441 498.2466,-818.2324 436,-765.7 349.5971,-692.7812 295.0602,-751.7 182,-751.7"/>
<polygon fill="#000000" stroke="#000000" points="471.5498,-955.8085 479.0988,-960.2776 475.5249,-956.2542 479.5,-956.7 479.5,-956.7 479.5,-956.7 475.5249,-956.2542 479.9012,-953.1224 471.5498,-955.8085 471.5498,-955.8085"/>
<ellipse fill="none" stroke="#000000" cx="468.3698" cy="-955.4519" rx="3.2" ry="3.2"/>
</g>
</g>
</svg>
