<?xml version="1.0" encoding="UTF-8" standalone="no"?>
<!DOCTYPE svg PUBLIC "-//W3C//DTD SVG 1.1//EN"
 "http://www.w3.org/Graphics/SVG/1.1/DTD/svg11.dtd">
<!-- Generated by graphviz version 2.40.1 (20161225.0304)
 -->
<!-- Title: twoDegreesRelationshipsDiagram Pages: 1 -->
<svg width="530pt" height="377pt"
 viewBox="0.00 0.00 530.00 376.70" xmlns="http://www.w3.org/2000/svg" xmlns:xlink="http://www.w3.org/1999/xlink">
<g id="graph0" class="graph" transform="scale(1 1) rotate(0) translate(4 372.7)">
<title>twoDegreesRelationshipsDiagram</title>
<polygon fill="#ffffff" stroke="transparent" points="-4,4 -4,-372.7 526,-372.7 526,4 -4,4"/>
<text text-anchor="middle" x="72.4936" y="-7.3" font-family="Helvetica,sans-Serif" font-size="11.00" fill="#000000">Generated by SchemaSpy</text>
<!-- address -->
<g id="node1" class="node">
<title>address</title>
<g id="a_node1"><a xlink:href="../../tables/address.html" xlink:title="address" target="_top">
<polygon fill="#ffffff" stroke="transparent" points="163,-120.7 163,-364.7 338,-364.7 338,-120.7 163,-120.7"/>
<polygon fill="#f5f5f5" stroke="transparent" points="165.5,-339.7 165.5,-362.7 336.5,-362.7 336.5,-339.7 165.5,-339.7"/>
<polygon fill="none" stroke="#000000" points="165.5,-339.7 165.5,-362.7 336.5,-362.7 336.5,-339.7 165.5,-339.7"/>
<text text-anchor="start" x="170.5" y="-348.3" font-family="Helvetica,sans-Serif" font-weight="bold" font-size="11.00" fill="#000000">address</text>
<text text-anchor="start" x="301.5437" y="-347.8" font-family="Helvetica,sans-Serif" font-size="11.00" fill="#000000">[table]</text>
<polygon fill="none" stroke="#000000" points="165.5,-317.7 165.5,-339.7 269.5,-339.7 269.5,-317.7 165.5,-317.7"/>
<image xlink:href="../../images/primaryKeys.png" width="11px" height="12px" preserveAspectRatio="xMinYMin meet" x="170.5" y="-334.7"/>
<text text-anchor="start" x="185.5" y="-324.8" font-family="Helvetica,sans-Serif" font-size="11.00" fill="#000000">location_id</text>
<polygon fill="none" stroke="#000000" points="269.5,-317.7 269.5,-339.7 336.5,-339.7 336.5,-317.7 269.5,-317.7"/>
<text text-anchor="start" x="272.5" y="-325.4" font-family="Helvetica,sans-Serif" font-size="11.00" fill="#000000">int8[19]</text>
<polygon fill="none" stroke="#000000" points="165.5,-295.7 165.5,-317.7 269.5,-317.7 269.5,-295.7 165.5,-295.7"/>
<text text-anchor="start" x="185.5" y="-302.8" font-family="Helvetica,sans-Serif" font-size="11.00" fill="#000000">address_type</text>
<polygon fill="none" stroke="#000000" points="269.5,-295.7 269.5,-317.7 336.5,-317.7 336.5,-295.7 269.5,-295.7"/>
<text text-anchor="start" x="272.4365" y="-303.4" font-family="Helvetica,sans-Serif" font-size="11.00" fill="#000000">varchar[255]</text>
<polygon fill="none" stroke="#000000" points="165.5,-273.7 165.5,-295.7 269.5,-295.7 269.5,-273.7 165.5,-273.7"/>
<text text-anchor="start" x="185.5" y="-280.8" font-family="Helvetica,sans-Serif" font-size="11.00" fill="#000000">city</text>
<polygon fill="none" stroke="#000000" points="269.5,-273.7 269.5,-295.7 336.5,-295.7 336.5,-273.7 269.5,-273.7"/>
<text text-anchor="start" x="272.4365" y="-281.4" font-family="Helvetica,sans-Serif" font-size="11.00" fill="#000000">varchar[255]</text>
<polygon fill="none" stroke="#000000" points="165.5,-251.7 165.5,-273.7 269.5,-273.7 269.5,-251.7 165.5,-251.7"/>
<text text-anchor="start" x="185.5" y="-258.8" font-family="Helvetica,sans-Serif" font-size="11.00" fill="#000000">country</text>
<polygon fill="none" stroke="#000000" points="269.5,-251.7 269.5,-273.7 336.5,-273.7 336.5,-251.7 269.5,-251.7"/>
<text text-anchor="start" x="272.4365" y="-259.4" font-family="Helvetica,sans-Serif" font-size="11.00" fill="#000000">varchar[255]</text>
<polygon fill="none" stroke="#000000" points="165.5,-229.7 165.5,-251.7 269.5,-251.7 269.5,-229.7 165.5,-229.7"/>
<text text-anchor="start" x="185.5" y="-236.8" font-family="Helvetica,sans-Serif" font-size="11.00" fill="#000000">line1</text>
<polygon fill="none" stroke="#000000" points="269.5,-229.7 269.5,-251.7 336.5,-251.7 336.5,-229.7 269.5,-229.7"/>
<text text-anchor="start" x="272.4365" y="-237.4" font-family="Helvetica,sans-Serif" font-size="11.00" fill="#000000">varchar[255]</text>
<polygon fill="none" stroke="#000000" points="165.5,-207.7 165.5,-229.7 269.5,-229.7 269.5,-207.7 165.5,-207.7"/>
<text text-anchor="start" x="185.5" y="-214.8" font-family="Helvetica,sans-Serif" font-size="11.00" fill="#000000">line2</text>
<polygon fill="none" stroke="#000000" points="269.5,-207.7 269.5,-229.7 336.5,-229.7 336.5,-207.7 269.5,-207.7"/>
<text text-anchor="start" x="272.4365" y="-215.4" font-family="Helvetica,sans-Serif" font-size="11.00" fill="#000000">varchar[255]</text>
<polygon fill="none" stroke="#000000" points="165.5,-185.7 165.5,-207.7 269.5,-207.7 269.5,-185.7 165.5,-185.7"/>
<text text-anchor="start" x="185.5" y="-192.8" font-family="Helvetica,sans-Serif" font-size="11.00" fill="#000000">name</text>
<polygon fill="none" stroke="#000000" points="269.5,-185.7 269.5,-207.7 336.5,-207.7 336.5,-185.7 269.5,-185.7"/>
<text text-anchor="start" x="272.4365" y="-193.4" font-family="Helvetica,sans-Serif" font-size="11.00" fill="#000000">varchar[255]</text>
<polygon fill="none" stroke="#000000" points="165.5,-163.7 165.5,-185.7 269.5,-185.7 269.5,-163.7 165.5,-163.7"/>
<text text-anchor="start" x="185.5" y="-170.8" font-family="Helvetica,sans-Serif" font-size="11.00" fill="#000000">postal_code</text>
<polygon fill="none" stroke="#000000" points="269.5,-163.7 269.5,-185.7 336.5,-185.7 336.5,-163.7 269.5,-163.7"/>
<text text-anchor="start" x="272.4365" y="-171.4" font-family="Helvetica,sans-Serif" font-size="11.00" fill="#000000">varchar[255]</text>
<polygon fill="none" stroke="#000000" points="165.5,-141.7 165.5,-163.7 269.5,-163.7 269.5,-141.7 165.5,-141.7"/>
<text text-anchor="start" x="185.5" y="-148.8" font-family="Helvetica,sans-Serif" font-size="11.00" fill="#000000">state</text>
<polygon fill="none" stroke="#000000" points="269.5,-141.7 269.5,-163.7 336.5,-163.7 336.5,-141.7 269.5,-141.7"/>
<text text-anchor="start" x="272.4365" y="-149.4" font-family="Helvetica,sans-Serif" font-size="11.00" fill="#000000">varchar[255]</text>
<polygon fill="#ffffff" stroke="transparent" points="165.5,-122.7 165.5,-141.7 336.5,-141.7 336.5,-122.7 165.5,-122.7"/>
<polygon fill="none" stroke="#000000" points="165.5,-122.7 165.5,-141.7 336.5,-141.7 336.5,-122.7 165.5,-122.7"/>
<polygon fill="#ffffff" stroke="transparent" points="166.5,-123.7 166.5,-140.7 226.5,-140.7 226.5,-123.7 166.5,-123.7"/>
<text text-anchor="start" x="168.5" y="-128.8" font-family="Helvetica,sans-Serif" font-size="11.00" fill="#000000">&lt; 1</text>
<polygon fill="#ffffff" stroke="transparent" points="226.5,-123.7 226.5,-140.7 276.5,-140.7 276.5,-123.7 226.5,-123.7"/>
<text text-anchor="start" x="248.4431" y="-128.8" font-family="Helvetica,sans-Serif" font-size="11.00" fill="#000000"> &#160;</text>
<polygon fill="#ffffff" stroke="transparent" points="276.5,-123.7 276.5,-140.7 335.5,-140.7 335.5,-123.7 276.5,-123.7"/>
<text text-anchor="start" x="317.9053" y="-128.8" font-family="Helvetica,sans-Serif" font-size="11.00" fill="#000000">1 &gt;</text>
<polygon fill="#000000" stroke="#000000" points="226.5,-123.7 226.5,-140.7 226.5,-140.7 226.5,-123.7 226.5,-123.7"/>
<polygon fill="#000000" stroke="#000000" points="276.5,-123.7 276.5,-140.7 276.5,-140.7 276.5,-123.7 276.5,-123.7"/>
<polygon fill="none" stroke="#000000" stroke-width="2" points="164,-121.7 164,-363.7 337,-363.7 337,-121.7 164,-121.7"/>
</a>
</g>
</g>
<!-- location -->
<g id="node2" class="node">
<title>location</title>
<g id="a_node2"><a xlink:href="../../tables/location.html" xlink:title="location" target="_top">
<polygon fill="#ffffff" stroke="transparent" points="8,-280.2 8,-363.2 114,-363.2 114,-280.2 8,-280.2"/>
<polygon fill="#f5f5f5" stroke="transparent" points="8,-339.7 8,-362.7 114,-362.7 114,-339.7 8,-339.7"/>
<polygon fill="none" stroke="#000000" points="8,-339.7 8,-362.7 114,-362.7 114,-339.7 8,-339.7"/>
<text text-anchor="start" x="13" y="-348.3" font-family="Helvetica,sans-Serif" font-weight="bold" font-size="11.00" fill="#000000">location</text>
<text text-anchor="start" x="79.0437" y="-347.8" font-family="Helvetica,sans-Serif" font-size="11.00" fill="#000000">[table]</text>
<polygon fill="none" stroke="#000000" points="8,-317.7 8,-339.7 114,-339.7 114,-317.7 8,-317.7"/>
<image xlink:href="../../images/primaryKeys.png" width="11px" height="12px" preserveAspectRatio="xMinYMin meet" x="13" y="-334.7"/>
<text text-anchor="start" x="28" y="-324.8" font-family="Helvetica,sans-Serif" font-size="11.00" fill="#000000">id</text>
<polygon fill="none" stroke="#000000" points="8,-298.7 8,-317.7 114,-317.7 114,-298.7 8,-298.7"/>
<text text-anchor="start" x="11" y="-304.8" font-family="Helvetica,sans-Serif" font-size="11.00" fill="#000000">...</text>
<polygon fill="#ffffff" stroke="transparent" points="8,-279.7 8,-298.7 114,-298.7 114,-279.7 8,-279.7"/>
<polygon fill="none" stroke="#000000" points="8,-279.7 8,-298.7 114,-298.7 114,-279.7 8,-279.7"/>
<polygon fill="#ffffff" stroke="transparent" points="9,-280.7 9,-297.7 41,-297.7 41,-280.7 9,-280.7"/>
<text text-anchor="start" x="11" y="-285.8" font-family="Helvetica,sans-Serif" font-size="11.00" fill="#000000"> &#160;</text>
<polygon fill="#ffffff" stroke="transparent" points="41,-280.7 41,-297.7 73,-297.7 73,-280.7 41,-280.7"/>
<text text-anchor="start" x="53.9431" y="-285.8" font-family="Helvetica,sans-Serif" font-size="11.00" fill="#000000"> &#160;</text>
<polygon fill="#ffffff" stroke="transparent" points="73,-280.7 73,-297.7 113,-297.7 113,-280.7 73,-280.7"/>
<text text-anchor="start" x="95.4053" y="-285.8" font-family="Helvetica,sans-Serif" font-size="11.00" fill="#000000">1 &gt;</text>
<polygon fill="#000000" stroke="#000000" points="41,-280.7 41,-297.7 41,-297.7 41,-280.7 41,-280.7"/>
<polygon fill="#000000" stroke="#000000" points="73,-280.7 73,-297.7 73,-297.7 73,-280.7 73,-280.7"/>
</a>
</g>
</g>
<!-- address&#45;&gt;location -->
<g id="edge1" class="edge">
<title>address:w&#45;&gt;location:e</title>
<path fill="none" stroke="#000000" d="M155.045,-328.7C140.137,-328.7 132.9549,-328.7 114,-328.7"/>
<polygon fill="#000000" stroke="#000000" points="164.7,-324.7 164.7,-332.7 163.1,-332.7 163.1,-324.7 164.7,-324.7"/>
<polyline fill="none" stroke="#000000" points="165.5,-328.7 161.5,-328.7 "/>
<ellipse fill="none" stroke="#000000" cx="158.3" cy="-328.7001" rx="3.2" ry="3.2"/>
</g>
<!-- party_address -->
<g id="node3" class="node">
<title>party_address</title>
<g id="a_node3"><a xlink:href="../../tables/party_address.html" xlink:title="party_address" target="_top">
<polygon fill="#ffffff" stroke="transparent" points="387,-155.7 387,-241.7 514,-241.7 514,-155.7 387,-155.7"/>
<polygon fill="#f5f5f5" stroke="transparent" points="387.5,-218.7 387.5,-241.7 514.5,-241.7 514.5,-218.7 387.5,-218.7"/>
<polygon fill="none" stroke="#000000" points="387.5,-218.7 387.5,-241.7 514.5,-241.7 514.5,-218.7 387.5,-218.7"/>
<text text-anchor="start" x="392.5" y="-227.3" font-family="Helvetica,sans-Serif" font-weight="bold" font-size="11.00" fill="#000000">party_address</text>
<text text-anchor="start" x="480.0219" y="-226.8" font-family="Helvetica,sans-Serif" font-size="11.00" fill="#000000">[table]</text>
<polygon fill="none" stroke="#000000" points="387.5,-196.7 387.5,-218.7 514.5,-218.7 514.5,-196.7 387.5,-196.7"/>
<image xlink:href="../../images/primaryKeys.png" width="11px" height="12px" preserveAspectRatio="xMinYMin meet" x="392.5" y="-213.7"/>
<text text-anchor="start" x="416.5" y="-203.8" font-family="Helvetica,sans-Serif" font-size="11.00" fill="#000000">location_id</text>
<polygon fill="none" stroke="#000000" points="387.5,-174.7 387.5,-196.7 514.5,-196.7 514.5,-174.7 387.5,-174.7"/>
<image xlink:href="../../images/primaryKeys.png" width="11px" height="12px" preserveAspectRatio="xMinYMin meet" x="392.5" y="-191.7"/>
<text text-anchor="start" x="416.5" y="-181.8" font-family="Helvetica,sans-Serif" font-size="11.00" fill="#000000">party_id</text>
<polygon fill="#ffffff" stroke="transparent" points="387.5,-155.7 387.5,-174.7 514.5,-174.7 514.5,-155.7 387.5,-155.7"/>
<polygon fill="none" stroke="#000000" points="387.5,-155.7 387.5,-174.7 514.5,-174.7 514.5,-155.7 387.5,-155.7"/>
<polygon fill="#ffffff" stroke="transparent" points="388.5,-156.7 388.5,-173.7 423.5,-173.7 423.5,-156.7 388.5,-156.7"/>
<text text-anchor="start" x="390.5" y="-161.8" font-family="Helvetica,sans-Serif" font-size="11.00" fill="#000000">&lt; 2</text>
<polygon fill="#ffffff" stroke="transparent" points="423.5,-156.7 423.5,-173.7 487.5,-173.7 487.5,-156.7 423.5,-156.7"/>
<text text-anchor="start" x="433.1904" y="-161.8" font-family="Helvetica,sans-Serif" font-size="11.00" fill="#000000">237 rows</text>
<polygon fill="#ffffff" stroke="transparent" points="487.5,-156.7 487.5,-173.7 513.5,-173.7 513.5,-156.7 487.5,-156.7"/>
<text text-anchor="start" x="505.3862" y="-161.8" font-family="Helvetica,sans-Serif" font-size="11.00" fill="#000000"> &#160;</text>
<polygon fill="#000000" stroke="#000000" points="423.5,-156.7 423.5,-173.7 423.5,-173.7 423.5,-156.7 423.5,-156.7"/>
<polygon fill="#000000" stroke="#000000" points="487.5,-156.7 487.5,-173.7 487.5,-173.7 487.5,-156.7 487.5,-156.7"/>
</a>
</g>
</g>
<!-- party_address&#45;&gt;address -->
<g id="edge2" class="edge">
<title>party_address:w&#45;&gt;address:e</title>
<path fill="none" stroke="#000000" d="M373.2982,-211.1908C341.2098,-231.03 388.9323,-328.7 336.5,-328.7"/>
<polygon fill="#000000" stroke="#000000" points="379.7312,-209.6096 388.3593,-211.1959 383.6156,-208.6548 387.5,-207.7 387.5,-207.7 387.5,-207.7 383.6156,-208.6548 386.6407,-204.2041 379.7312,-209.6096 379.7312,-209.6096"/>
<ellipse fill="none" stroke="#000000" cx="376.6237" cy="-210.3734" rx="3.2" ry="3.2"/>
</g>
<!-- party -->
<g id="node4" class="node">
<title>party</title>
<g id="a_node4"><a xlink:href="../../tables/party.html" xlink:title="party" target="_top">
<polygon fill="#ffffff" stroke="transparent" points="211,-38.2 211,-99.2 290,-99.2 290,-38.2 211,-38.2"/>
<polygon fill="#f5f5f5" stroke="transparent" points="211.5,-75.7 211.5,-98.7 290.5,-98.7 290.5,-75.7 211.5,-75.7"/>
<polygon fill="none" stroke="#000000" points="211.5,-75.7 211.5,-98.7 290.5,-98.7 290.5,-75.7 211.5,-75.7"/>
<text text-anchor="start" x="216.5" y="-84.3" font-family="Helvetica,sans-Serif" font-weight="bold" font-size="11.00" fill="#000000">party</text>
<text text-anchor="start" x="255.5437" y="-83.8" font-family="Helvetica,sans-Serif" font-size="11.00" fill="#000000">[table]</text>
<polygon fill="none" stroke="#000000" points="211.5,-56.7 211.5,-75.7 290.5,-75.7 290.5,-56.7 211.5,-56.7"/>
<text text-anchor="start" x="214.5" y="-62.8" font-family="Helvetica,sans-Serif" font-size="11.00" fill="#000000">...</text>
<polygon fill="#ffffff" stroke="transparent" points="211.5,-37.7 211.5,-56.7 290.5,-56.7 290.5,-37.7 211.5,-37.7"/>
<polygon fill="none" stroke="#000000" points="211.5,-37.7 211.5,-56.7 290.5,-56.7 290.5,-37.7 211.5,-37.7"/>
<polygon fill="#ffffff" stroke="transparent" points="212.5,-38.7 212.5,-55.7 222.5,-55.7 222.5,-38.7 212.5,-38.7"/>
<text text-anchor="start" x="214.4431" y="-43.8" font-family="Helvetica,sans-Serif" font-size="11.00" fill="#000000"> &#160;</text>
<polygon fill="#ffffff" stroke="transparent" points="222.5,-38.7 222.5,-55.7 270.5,-55.7 270.5,-38.7 222.5,-38.7"/>
<text text-anchor="start" x="224.1904" y="-43.8" font-family="Helvetica,sans-Serif" font-size="11.00" fill="#000000">237 rows</text>
<polygon fill="#ffffff" stroke="transparent" points="270.5,-38.7 270.5,-55.7 289.5,-55.7 289.5,-38.7 270.5,-38.7"/>
<text text-anchor="start" x="272.2027" y="-43.8" font-family="Helvetica,sans-Serif" font-size="11.00" fill="#000000">4 &gt;</text>
<polygon fill="#000000" stroke="#000000" points="222.5,-38.7 222.5,-55.7 222.5,-55.7 222.5,-38.7 222.5,-38.7"/>
<polygon fill="#000000" stroke="#000000" points="270.5,-38.7 270.5,-55.7 270.5,-55.7 270.5,-38.7 270.5,-38.7"/>
</a>
</g>
</g>
<!-- party_address&#45;&gt;party -->
<g id="edge3" class="edge">
<title>party_address:w&#45;&gt;party:e</title>
<path fill="none" stroke="#000000" d="M373.0644,-182.2772C355.09,-171.1187 366.4535,-135.1094 346,-110.7 325.6043,-86.3595 322.256,-65.7 290.5,-65.7"/>
<polygon fill="#000000" stroke="#000000" points="379.7158,-183.8543 386.6694,-189.2029 383.6079,-184.7771 387.5,-185.7 387.5,-185.7 387.5,-185.7 383.6079,-184.7771 388.3306,-182.1971 379.7158,-183.8543 379.7158,-183.8543"/>
<ellipse fill="none" stroke="#000000" cx="376.6021" cy="-183.116" rx="3.2" ry="3.2"/>
</g>
</g>
</svg>
