<?xml version="1.0" encoding="UTF-8" standalone="no"?>
<!DOCTYPE svg PUBLIC "-//W3C//DTD SVG 1.1//EN"
 "http://www.w3.org/Graphics/SVG/1.1/DTD/svg11.dtd">
<!-- Generated by graphviz version 2.40.1 (20161225.0304)
 -->
<!-- Title: oneDegreeRelationshipsDiagram Pages: 1 -->
<svg width="530pt" height="294pt"
 viewBox="0.00 0.00 530.00 294.20" xmlns="http://www.w3.org/2000/svg" xmlns:xlink="http://www.w3.org/1999/xlink">
<g id="graph0" class="graph" transform="scale(1 1) rotate(0) translate(4 290.2)">
<title>oneDegreeRelationshipsDiagram</title>
<polygon fill="#ffffff" stroke="transparent" points="-4,4 -4,-290.2 526,-290.2 526,4 -4,4"/>
<text text-anchor="middle" x="72.4936" y="-7.3" font-family="Helvetica,sans-Serif" font-size="11.00" fill="#000000">Generated by SchemaSpy</text>
<!-- address -->
<g id="node1" class="node">
<title>address</title>
<g id="a_node1"><a xlink:href="../../tables/address.html" xlink:title="address" target="_top">
<polygon fill="#ffffff" stroke="transparent" points="163,-38.2 163,-282.2 338,-282.2 338,-38.2 163,-38.2"/>
<polygon fill="#f5f5f5" stroke="transparent" points="165.5,-257.2 165.5,-280.2 336.5,-280.2 336.5,-257.2 165.5,-257.2"/>
<polygon fill="none" stroke="#000000" points="165.5,-257.2 165.5,-280.2 336.5,-280.2 336.5,-257.2 165.5,-257.2"/>
<text text-anchor="start" x="170.5" y="-265.8" font-family="Helvetica,sans-Serif" font-weight="bold" font-size="11.00" fill="#000000">address</text>
<text text-anchor="start" x="301.5437" y="-265.3" font-family="Helvetica,sans-Serif" font-size="11.00" fill="#000000">[table]</text>
<polygon fill="none" stroke="#000000" points="165.5,-235.2 165.5,-257.2 269.5,-257.2 269.5,-235.2 165.5,-235.2"/>
<image xlink:href="../../images/primaryKeys.png" width="11px" height="12px" preserveAspectRatio="xMinYMin meet" x="170.5" y="-252.2"/>
<text text-anchor="start" x="185.5" y="-242.3" font-family="Helvetica,sans-Serif" font-size="11.00" fill="#000000">location_id</text>
<polygon fill="none" stroke="#000000" points="269.5,-235.2 269.5,-257.2 336.5,-257.2 336.5,-235.2 269.5,-235.2"/>
<text text-anchor="start" x="272.5" y="-242.9" font-family="Helvetica,sans-Serif" font-size="11.00" fill="#000000">int8[19]</text>
<polygon fill="none" stroke="#000000" points="165.5,-213.2 165.5,-235.2 269.5,-235.2 269.5,-213.2 165.5,-213.2"/>
<text text-anchor="start" x="185.5" y="-220.3" font-family="Helvetica,sans-Serif" font-size="11.00" fill="#000000">address_type</text>
<polygon fill="none" stroke="#000000" points="269.5,-213.2 269.5,-235.2 336.5,-235.2 336.5,-213.2 269.5,-213.2"/>
<text text-anchor="start" x="272.4365" y="-220.9" font-family="Helvetica,sans-Serif" font-size="11.00" fill="#000000">varchar[255]</text>
<polygon fill="none" stroke="#000000" points="165.5,-191.2 165.5,-213.2 269.5,-213.2 269.5,-191.2 165.5,-191.2"/>
<text text-anchor="start" x="185.5" y="-198.3" font-family="Helvetica,sans-Serif" font-size="11.00" fill="#000000">city</text>
<polygon fill="none" stroke="#000000" points="269.5,-191.2 269.5,-213.2 336.5,-213.2 336.5,-191.2 269.5,-191.2"/>
<text text-anchor="start" x="272.4365" y="-198.9" font-family="Helvetica,sans-Serif" font-size="11.00" fill="#000000">varchar[255]</text>
<polygon fill="none" stroke="#000000" points="165.5,-169.2 165.5,-191.2 269.5,-191.2 269.5,-169.2 165.5,-169.2"/>
<text text-anchor="start" x="185.5" y="-176.3" font-family="Helvetica,sans-Serif" font-size="11.00" fill="#000000">country</text>
<polygon fill="none" stroke="#000000" points="269.5,-169.2 269.5,-191.2 336.5,-191.2 336.5,-169.2 269.5,-169.2"/>
<text text-anchor="start" x="272.4365" y="-176.9" font-family="Helvetica,sans-Serif" font-size="11.00" fill="#000000">varchar[255]</text>
<polygon fill="none" stroke="#000000" points="165.5,-147.2 165.5,-169.2 269.5,-169.2 269.5,-147.2 165.5,-147.2"/>
<text text-anchor="start" x="185.5" y="-154.3" font-family="Helvetica,sans-Serif" font-size="11.00" fill="#000000">line1</text>
<polygon fill="none" stroke="#000000" points="269.5,-147.2 269.5,-169.2 336.5,-169.2 336.5,-147.2 269.5,-147.2"/>
<text text-anchor="start" x="272.4365" y="-154.9" font-family="Helvetica,sans-Serif" font-size="11.00" fill="#000000">varchar[255]</text>
<polygon fill="none" stroke="#000000" points="165.5,-125.2 165.5,-147.2 269.5,-147.2 269.5,-125.2 165.5,-125.2"/>
<text text-anchor="start" x="185.5" y="-132.3" font-family="Helvetica,sans-Serif" font-size="11.00" fill="#000000">line2</text>
<polygon fill="none" stroke="#000000" points="269.5,-125.2 269.5,-147.2 336.5,-147.2 336.5,-125.2 269.5,-125.2"/>
<text text-anchor="start" x="272.4365" y="-132.9" font-family="Helvetica,sans-Serif" font-size="11.00" fill="#000000">varchar[255]</text>
<polygon fill="none" stroke="#000000" points="165.5,-103.2 165.5,-125.2 269.5,-125.2 269.5,-103.2 165.5,-103.2"/>
<text text-anchor="start" x="185.5" y="-110.3" font-family="Helvetica,sans-Serif" font-size="11.00" fill="#000000">name</text>
<polygon fill="none" stroke="#000000" points="269.5,-103.2 269.5,-125.2 336.5,-125.2 336.5,-103.2 269.5,-103.2"/>
<text text-anchor="start" x="272.4365" y="-110.9" font-family="Helvetica,sans-Serif" font-size="11.00" fill="#000000">varchar[255]</text>
<polygon fill="none" stroke="#000000" points="165.5,-81.2 165.5,-103.2 269.5,-103.2 269.5,-81.2 165.5,-81.2"/>
<text text-anchor="start" x="185.5" y="-88.3" font-family="Helvetica,sans-Serif" font-size="11.00" fill="#000000">postal_code</text>
<polygon fill="none" stroke="#000000" points="269.5,-81.2 269.5,-103.2 336.5,-103.2 336.5,-81.2 269.5,-81.2"/>
<text text-anchor="start" x="272.4365" y="-88.9" font-family="Helvetica,sans-Serif" font-size="11.00" fill="#000000">varchar[255]</text>
<polygon fill="none" stroke="#000000" points="165.5,-59.2 165.5,-81.2 269.5,-81.2 269.5,-59.2 165.5,-59.2"/>
<text text-anchor="start" x="185.5" y="-66.3" font-family="Helvetica,sans-Serif" font-size="11.00" fill="#000000">state</text>
<polygon fill="none" stroke="#000000" points="269.5,-59.2 269.5,-81.2 336.5,-81.2 336.5,-59.2 269.5,-59.2"/>
<text text-anchor="start" x="272.4365" y="-66.9" font-family="Helvetica,sans-Serif" font-size="11.00" fill="#000000">varchar[255]</text>
<polygon fill="#ffffff" stroke="transparent" points="165.5,-40.2 165.5,-59.2 336.5,-59.2 336.5,-40.2 165.5,-40.2"/>
<polygon fill="none" stroke="#000000" points="165.5,-40.2 165.5,-59.2 336.5,-59.2 336.5,-40.2 165.5,-40.2"/>
<polygon fill="#ffffff" stroke="transparent" points="166.5,-41.2 166.5,-58.2 226.5,-58.2 226.5,-41.2 166.5,-41.2"/>
<text text-anchor="start" x="168.5" y="-46.3" font-family="Helvetica,sans-Serif" font-size="11.00" fill="#000000">&lt; 1</text>
<polygon fill="#ffffff" stroke="transparent" points="226.5,-41.2 226.5,-58.2 276.5,-58.2 276.5,-41.2 226.5,-41.2"/>
<text text-anchor="start" x="248.4431" y="-46.3" font-family="Helvetica,sans-Serif" font-size="11.00" fill="#000000"> &#160;</text>
<polygon fill="#ffffff" stroke="transparent" points="276.5,-41.2 276.5,-58.2 335.5,-58.2 335.5,-41.2 276.5,-41.2"/>
<text text-anchor="start" x="317.9053" y="-46.3" font-family="Helvetica,sans-Serif" font-size="11.00" fill="#000000">1 &gt;</text>
<polygon fill="#000000" stroke="#000000" points="226.5,-41.2 226.5,-58.2 226.5,-58.2 226.5,-41.2 226.5,-41.2"/>
<polygon fill="#000000" stroke="#000000" points="276.5,-41.2 276.5,-58.2 276.5,-58.2 276.5,-41.2 276.5,-41.2"/>
<polygon fill="none" stroke="#000000" stroke-width="2" points="164,-39.2 164,-281.2 337,-281.2 337,-39.2 164,-39.2"/>
</a>
</g>
</g>
<!-- location -->
<g id="node2" class="node">
<title>location</title>
<g id="a_node2"><a xlink:href="../../tables/location.html" xlink:title="location" target="_top">
<polygon fill="#ffffff" stroke="transparent" points="8,-197.7 8,-280.7 114,-280.7 114,-197.7 8,-197.7"/>
<polygon fill="#f5f5f5" stroke="transparent" points="8,-257.2 8,-280.2 114,-280.2 114,-257.2 8,-257.2"/>
<polygon fill="none" stroke="#000000" points="8,-257.2 8,-280.2 114,-280.2 114,-257.2 8,-257.2"/>
<text text-anchor="start" x="13" y="-265.8" font-family="Helvetica,sans-Serif" font-weight="bold" font-size="11.00" fill="#000000">location</text>
<text text-anchor="start" x="79.0437" y="-265.3" font-family="Helvetica,sans-Serif" font-size="11.00" fill="#000000">[table]</text>
<polygon fill="none" stroke="#000000" points="8,-235.2 8,-257.2 114,-257.2 114,-235.2 8,-235.2"/>
<image xlink:href="../../images/primaryKeys.png" width="11px" height="12px" preserveAspectRatio="xMinYMin meet" x="13" y="-252.2"/>
<text text-anchor="start" x="28" y="-242.3" font-family="Helvetica,sans-Serif" font-size="11.00" fill="#000000">id</text>
<polygon fill="none" stroke="#000000" points="8,-216.2 8,-235.2 114,-235.2 114,-216.2 8,-216.2"/>
<text text-anchor="start" x="11" y="-222.3" font-family="Helvetica,sans-Serif" font-size="11.00" fill="#000000">...</text>
<polygon fill="#ffffff" stroke="transparent" points="8,-197.2 8,-216.2 114,-216.2 114,-197.2 8,-197.2"/>
<polygon fill="none" stroke="#000000" points="8,-197.2 8,-216.2 114,-216.2 114,-197.2 8,-197.2"/>
<polygon fill="#ffffff" stroke="transparent" points="9,-198.2 9,-215.2 41,-215.2 41,-198.2 9,-198.2"/>
<text text-anchor="start" x="11" y="-203.3" font-family="Helvetica,sans-Serif" font-size="11.00" fill="#000000"> &#160;</text>
<polygon fill="#ffffff" stroke="transparent" points="41,-198.2 41,-215.2 73,-215.2 73,-198.2 41,-198.2"/>
<text text-anchor="start" x="53.9431" y="-203.3" font-family="Helvetica,sans-Serif" font-size="11.00" fill="#000000"> &#160;</text>
<polygon fill="#ffffff" stroke="transparent" points="73,-198.2 73,-215.2 113,-215.2 113,-198.2 73,-198.2"/>
<text text-anchor="start" x="95.4053" y="-203.3" font-family="Helvetica,sans-Serif" font-size="11.00" fill="#000000">1 &gt;</text>
<polygon fill="#000000" stroke="#000000" points="41,-198.2 41,-215.2 41,-215.2 41,-198.2 41,-198.2"/>
<polygon fill="#000000" stroke="#000000" points="73,-198.2 73,-215.2 73,-215.2 73,-198.2 73,-198.2"/>
</a>
</g>
</g>
<!-- address&#45;&gt;location -->
<g id="edge1" class="edge">
<title>address:w&#45;&gt;location:e</title>
<path fill="none" stroke="#000000" d="M155.045,-246.2C140.137,-246.2 132.9549,-246.2 114,-246.2"/>
<polygon fill="#000000" stroke="#000000" points="164.7,-242.2 164.7,-250.2 163.1,-250.2 163.1,-242.2 164.7,-242.2"/>
<polyline fill="none" stroke="#000000" points="165.5,-246.2 161.5,-246.2 "/>
<ellipse fill="none" stroke="#000000" cx="158.3" cy="-246.2001" rx="3.2" ry="3.2"/>
</g>
<!-- party_address -->
<g id="node3" class="node">
<title>party_address</title>
<g id="a_node3"><a xlink:href="../../tables/party_address.html" xlink:title="party_address" target="_top">
<polygon fill="#ffffff" stroke="transparent" points="387,-194.2 387,-280.2 514,-280.2 514,-194.2 387,-194.2"/>
<polygon fill="#f5f5f5" stroke="transparent" points="387.5,-257.2 387.5,-280.2 514.5,-280.2 514.5,-257.2 387.5,-257.2"/>
<polygon fill="none" stroke="#000000" points="387.5,-257.2 387.5,-280.2 514.5,-280.2 514.5,-257.2 387.5,-257.2"/>
<text text-anchor="start" x="392.5" y="-265.8" font-family="Helvetica,sans-Serif" font-weight="bold" font-size="11.00" fill="#000000">party_address</text>
<text text-anchor="start" x="480.0219" y="-265.3" font-family="Helvetica,sans-Serif" font-size="11.00" fill="#000000">[table]</text>
<polygon fill="none" stroke="#000000" points="387.5,-235.2 387.5,-257.2 514.5,-257.2 514.5,-235.2 387.5,-235.2"/>
<image xlink:href="../../images/primaryKeys.png" width="11px" height="12px" preserveAspectRatio="xMinYMin meet" x="392.5" y="-252.2"/>
<text text-anchor="start" x="416.5" y="-242.3" font-family="Helvetica,sans-Serif" font-size="11.00" fill="#000000">location_id</text>
<polygon fill="none" stroke="#000000" points="387.5,-213.2 387.5,-235.2 514.5,-235.2 514.5,-213.2 387.5,-213.2"/>
<image xlink:href="../../images/primaryKeys.png" width="11px" height="12px" preserveAspectRatio="xMinYMin meet" x="392.5" y="-230.2"/>
<text text-anchor="start" x="416.5" y="-220.3" font-family="Helvetica,sans-Serif" font-size="11.00" fill="#000000">party_id</text>
<polygon fill="#ffffff" stroke="transparent" points="387.5,-194.2 387.5,-213.2 514.5,-213.2 514.5,-194.2 387.5,-194.2"/>
<polygon fill="none" stroke="#000000" points="387.5,-194.2 387.5,-213.2 514.5,-213.2 514.5,-194.2 387.5,-194.2"/>
<polygon fill="#ffffff" stroke="transparent" points="388.5,-195.2 388.5,-212.2 423.5,-212.2 423.5,-195.2 388.5,-195.2"/>
<text text-anchor="start" x="390.5" y="-200.3" font-family="Helvetica,sans-Serif" font-size="11.00" fill="#000000">&lt; 2</text>
<polygon fill="#ffffff" stroke="transparent" points="423.5,-195.2 423.5,-212.2 487.5,-212.2 487.5,-195.2 423.5,-195.2"/>
<text text-anchor="start" x="433.1904" y="-200.3" font-family="Helvetica,sans-Serif" font-size="11.00" fill="#000000">237 rows</text>
<polygon fill="#ffffff" stroke="transparent" points="487.5,-195.2 487.5,-212.2 513.5,-212.2 513.5,-195.2 487.5,-195.2"/>
<text text-anchor="start" x="505.3862" y="-200.3" font-family="Helvetica,sans-Serif" font-size="11.00" fill="#000000"> &#160;</text>
<polygon fill="#000000" stroke="#000000" points="423.5,-195.2 423.5,-212.2 423.5,-212.2 423.5,-195.2 423.5,-195.2"/>
<polygon fill="#000000" stroke="#000000" points="487.5,-195.2 487.5,-212.2 487.5,-212.2 487.5,-195.2 487.5,-195.2"/>
</a>
</g>
</g>
<!-- party_address&#45;&gt;address -->
<g id="edge2" class="edge">
<title>party_address:w&#45;&gt;address:e</title>
<path fill="none" stroke="#000000" d="M372.776,-246.2C360.7815,-246.2 353.3229,-246.2 336.5,-246.2"/>
<polygon fill="#000000" stroke="#000000" points="379.5,-246.2001 387.5,-249.8 383.5,-246.2 387.5,-246.2 387.5,-246.2 387.5,-246.2 383.5,-246.2 387.5,-242.6 379.5,-246.2001 379.5,-246.2001"/>
<ellipse fill="none" stroke="#000000" cx="376.3" cy="-246.2001" rx="3.2" ry="3.2"/>
</g>
</g>
</svg>
