<?xml version="1.0" encoding="UTF-8" standalone="no"?>
<!DOCTYPE svg PUBLIC "-//W3C//DTD SVG 1.1//EN"
 "http://www.w3.org/Graphics/SVG/1.1/DTD/svg11.dtd">
<!-- Generated by graphviz version 2.40.1 (20161225.0304)
 -->
<!-- Title: oneDegreeRelationshipsDiagram Pages: 1 -->
<svg width="243pt" height="294pt"
 viewBox="0.00 0.00 243.00 294.20" xmlns="http://www.w3.org/2000/svg" xmlns:xlink="http://www.w3.org/1999/xlink">
<g id="graph0" class="graph" transform="scale(1 1) rotate(0) translate(4 290.2)">
<title>oneDegreeRelationshipsDiagram</title>
<polygon fill="#ffffff" stroke="transparent" points="-4,4 -4,-290.2 239,-290.2 239,4 -4,4"/>
<text text-anchor="middle" x="72.4936" y="-7.3" font-family="Helvetica,sans-Serif" font-size="11.00" fill="#000000">Generated by SchemaSpy</text>
<!-- electoral_division -->
<g id="node1" class="node">
<title>electoral_division</title>
<g id="a_node1"><a xlink:href="../../tables/electoral_division.html" xlink:title="electoral_division" target="_top">
<polygon fill="#ffffff" stroke="transparent" points="8,-38.2 8,-282.2 227,-282.2 227,-38.2 8,-38.2"/>
<polygon fill="#f5f5f5" stroke="transparent" points="10.5,-257.2 10.5,-280.2 225.5,-280.2 225.5,-257.2 10.5,-257.2"/>
<polygon fill="none" stroke="#000000" points="10.5,-257.2 10.5,-280.2 225.5,-280.2 225.5,-257.2 10.5,-257.2"/>
<text text-anchor="start" x="15.5" y="-265.8" font-family="Helvetica,sans-Serif" font-weight="bold" font-size="11.00" fill="#000000">electoral_division</text>
<text text-anchor="start" x="190.5437" y="-265.3" font-family="Helvetica,sans-Serif" font-size="11.00" fill="#000000">[table]</text>
<polygon fill="none" stroke="#000000" points="10.5,-235.2 10.5,-257.2 158.5,-257.2 158.5,-235.2 10.5,-235.2"/>
<text text-anchor="start" x="30.5" y="-242.3" font-family="Helvetica,sans-Serif" font-size="11.00" fill="#000000">date_gazetted</text>
<polygon fill="none" stroke="#000000" points="158.5,-235.2 158.5,-257.2 225.5,-257.2 225.5,-235.2 158.5,-235.2"/>
<text text-anchor="start" x="161.5" y="-242.9" font-family="Helvetica,sans-Serif" font-size="11.00" fill="#000000">date[13]</text>
<polygon fill="none" stroke="#000000" points="10.5,-213.2 10.5,-235.2 158.5,-235.2 158.5,-213.2 10.5,-213.2"/>
<image xlink:href="../../images/primaryKeys.png" width="11px" height="12px" preserveAspectRatio="xMinYMin meet" x="15.5" y="-230.2"/>
<text text-anchor="start" x="30.5" y="-220.3" font-family="Helvetica,sans-Serif" font-size="11.00" fill="#000000">id</text>
<polygon fill="none" stroke="#000000" points="158.5,-213.2 158.5,-235.2 225.5,-235.2 225.5,-213.2 158.5,-213.2"/>
<text text-anchor="start" x="161.5" y="-220.9" font-family="Helvetica,sans-Serif" font-size="11.00" fill="#000000">int8[19]</text>
<polygon fill="none" stroke="#000000" points="10.5,-191.2 10.5,-213.2 158.5,-213.2 158.5,-191.2 10.5,-191.2"/>
<text text-anchor="start" x="30.5" y="-198.3" font-family="Helvetica,sans-Serif" font-size="11.00" fill="#000000">area</text>
<polygon fill="none" stroke="#000000" points="158.5,-191.2 158.5,-213.2 225.5,-213.2 225.5,-191.2 158.5,-191.2"/>
<text text-anchor="start" x="161.4365" y="-198.9" font-family="Helvetica,sans-Serif" font-size="11.00" fill="#000000">varchar[255]</text>
<polygon fill="none" stroke="#000000" points="10.5,-169.2 10.5,-191.2 158.5,-191.2 158.5,-169.2 10.5,-169.2"/>
<text text-anchor="start" x="30.5" y="-176.3" font-family="Helvetica,sans-Serif" font-size="11.00" fill="#000000">latitude</text>
<polygon fill="none" stroke="#000000" points="158.5,-169.2 158.5,-191.2 225.5,-191.2 225.5,-169.2 158.5,-169.2"/>
<text text-anchor="start" x="161.4365" y="-176.9" font-family="Helvetica,sans-Serif" font-size="11.00" fill="#000000">varchar[255]</text>
<polygon fill="none" stroke="#000000" points="10.5,-147.2 10.5,-169.2 158.5,-169.2 158.5,-147.2 10.5,-147.2"/>
<text text-anchor="start" x="30.5" y="-154.3" font-family="Helvetica,sans-Serif" font-size="11.00" fill="#000000">location_description</text>
<polygon fill="none" stroke="#000000" points="158.5,-147.2 158.5,-169.2 225.5,-169.2 225.5,-147.2 158.5,-147.2"/>
<text text-anchor="start" x="161.4365" y="-154.9" font-family="Helvetica,sans-Serif" font-size="11.00" fill="#000000">varchar[255]</text>
<polygon fill="none" stroke="#000000" points="10.5,-125.2 10.5,-147.2 158.5,-147.2 158.5,-125.2 10.5,-125.2"/>
<text text-anchor="start" x="30.5" y="-132.3" font-family="Helvetica,sans-Serif" font-size="11.00" fill="#000000">longitude</text>
<polygon fill="none" stroke="#000000" points="158.5,-125.2 158.5,-147.2 225.5,-147.2 225.5,-125.2 158.5,-125.2"/>
<text text-anchor="start" x="161.4365" y="-132.9" font-family="Helvetica,sans-Serif" font-size="11.00" fill="#000000">varchar[255]</text>
<polygon fill="#ffffff" stroke="transparent" points="10.5,-103.2 10.5,-125.2 158.5,-125.2 158.5,-103.2 10.5,-103.2"/>
<polygon fill="none" stroke="#000000" points="10.5,-103.2 10.5,-125.2 158.5,-125.2 158.5,-103.2 10.5,-103.2"/>
<text text-anchor="start" x="30.5" y="-110.3" font-family="Helvetica,sans-Serif" font-size="11.00" fill="#000000">name</text>
<polygon fill="none" stroke="#000000" points="158.5,-103.2 158.5,-125.2 225.5,-125.2 225.5,-103.2 158.5,-103.2"/>
<text text-anchor="start" x="161.4365" y="-110.9" font-family="Helvetica,sans-Serif" font-size="11.00" fill="#000000">varchar[255]</text>
<polygon fill="none" stroke="#000000" points="10.5,-81.2 10.5,-103.2 158.5,-103.2 158.5,-81.2 10.5,-81.2"/>
<text text-anchor="start" x="30.5" y="-88.3" font-family="Helvetica,sans-Serif" font-size="11.00" fill="#000000">name_derivation</text>
<polygon fill="none" stroke="#000000" points="158.5,-81.2 158.5,-103.2 225.5,-103.2 225.5,-81.2 158.5,-81.2"/>
<text text-anchor="start" x="161.4365" y="-88.9" font-family="Helvetica,sans-Serif" font-size="11.00" fill="#000000">varchar[255]</text>
<polygon fill="none" stroke="#000000" points="10.5,-59.2 10.5,-81.2 158.5,-81.2 158.5,-59.2 10.5,-59.2"/>
<text text-anchor="start" x="30.5" y="-66.3" font-family="Helvetica,sans-Serif" font-size="11.00" fill="#000000">state</text>
<polygon fill="none" stroke="#000000" points="158.5,-59.2 158.5,-81.2 225.5,-81.2 225.5,-59.2 158.5,-59.2"/>
<text text-anchor="start" x="161.4365" y="-66.9" font-family="Helvetica,sans-Serif" font-size="11.00" fill="#000000">varchar[255]</text>
<polygon fill="#ffffff" stroke="transparent" points="10.5,-40.2 10.5,-59.2 225.5,-59.2 225.5,-40.2 10.5,-40.2"/>
<polygon fill="none" stroke="#000000" points="10.5,-40.2 10.5,-59.2 225.5,-59.2 225.5,-40.2 10.5,-40.2"/>
<polygon fill="#ffffff" stroke="transparent" points="11.5,-41.2 11.5,-58.2 73.5,-58.2 73.5,-41.2 11.5,-41.2"/>
<text text-anchor="start" x="13.5" y="-46.3" font-family="Helvetica,sans-Serif" font-size="11.00" fill="#000000">&lt; 0</text>
<polygon fill="#ffffff" stroke="transparent" points="73.5,-41.2 73.5,-58.2 163.5,-58.2 163.5,-41.2 73.5,-41.2"/>
<text text-anchor="start" x="96.1904" y="-46.3" font-family="Helvetica,sans-Serif" font-size="11.00" fill="#000000">151 rows</text>
<polygon fill="#ffffff" stroke="transparent" points="163.5,-41.2 163.5,-58.2 224.5,-58.2 224.5,-41.2 163.5,-41.2"/>
<text text-anchor="start" x="206.9053" y="-46.3" font-family="Helvetica,sans-Serif" font-size="11.00" fill="#000000">0 &gt;</text>
<polygon fill="#000000" stroke="#000000" points="73.5,-41.2 73.5,-58.2 73.5,-58.2 73.5,-41.2 73.5,-41.2"/>
<polygon fill="#000000" stroke="#000000" points="163.5,-41.2 163.5,-58.2 163.5,-58.2 163.5,-41.2 163.5,-41.2"/>
<polygon fill="none" stroke="#000000" stroke-width="2" points="9,-39.2 9,-281.2 226,-281.2 226,-39.2 9,-39.2"/>
</a>
</g>
</g>
</g>
</svg>
