<?xml version="1.0" encoding="UTF-8" standalone="no"?>
<!DOCTYPE svg PUBLIC "-//W3C//DTD SVG 1.1//EN"
 "http://www.w3.org/Graphics/SVG/1.1/DTD/svg11.dtd">
<!-- Generated by graphviz version 2.40.1 (20161225.0304)
 -->
<!-- Title: oneDegreeRelationshipsDiagram Pages: 1 -->
<svg width="430pt" height="337pt"
 viewBox="0.00 0.00 430.00 336.70" xmlns="http://www.w3.org/2000/svg" xmlns:xlink="http://www.w3.org/1999/xlink">
<g id="graph0" class="graph" transform="scale(1 1) rotate(0) translate(4 332.7)">
<title>oneDegreeRelationshipsDiagram</title>
<polygon fill="#ffffff" stroke="transparent" points="-4,4 -4,-332.7 426,-332.7 426,4 -4,4"/>
<text text-anchor="middle" x="72.4936" y="-7.3" font-family="Helvetica,sans-Serif" font-size="11.00" fill="#000000">Generated by SchemaSpy</text>
<!-- flw_ru_batch_part -->
<g id="node1" class="node">
<title>flw_ru_batch_part</title>
<g id="a_node1"><a xlink:href="../../tables/flw_ru_batch_part.html" xlink:title="flw_ru_batch_part" target="_top">
<polygon fill="#ffffff" stroke="transparent" points="264,-219.7 264,-324.7 414,-324.7 414,-219.7 264,-219.7"/>
<polygon fill="#f5f5f5" stroke="transparent" points="264,-301.2 264,-324.2 414,-324.2 414,-301.2 264,-301.2"/>
<polygon fill="none" stroke="#000000" points="264,-301.2 264,-324.2 414,-324.2 414,-301.2 264,-301.2"/>
<text text-anchor="start" x="269" y="-309.8" font-family="Helvetica,sans-Serif" font-weight="bold" font-size="11.00" fill="#000000">flw_ru_batch_part</text>
<text text-anchor="start" x="379.5219" y="-309.3" font-family="Helvetica,sans-Serif" font-size="11.00" fill="#000000">[table]</text>
<polygon fill="none" stroke="#000000" points="264,-279.2 264,-301.2 414,-301.2 414,-279.2 264,-279.2"/>
<image xlink:href="../../images/primaryKeys.png" width="11px" height="12px" preserveAspectRatio="xMinYMin meet" x="269" y="-296.2"/>
<text text-anchor="start" x="293" y="-286.3" font-family="Helvetica,sans-Serif" font-size="11.00" fill="#000000">id_</text>
<polygon fill="#ffffff" stroke="transparent" points="264,-257.2 264,-279.2 414,-279.2 414,-257.2 264,-257.2"/>
<polygon fill="none" stroke="#000000" points="264,-257.2 264,-279.2 414,-279.2 414,-257.2 264,-257.2"/>
<image xlink:href="../../images/foreignKeys.png" width="11px" height="12px" preserveAspectRatio="xMinYMin meet" x="269" y="-274.2"/>
<text text-anchor="start" x="293" y="-264.3" font-family="Helvetica,sans-Serif" font-size="11.00" fill="#000000">batch_id_</text>
<polygon fill="none" stroke="#000000" points="264,-238.2 264,-257.2 414,-257.2 414,-238.2 264,-238.2"/>
<text text-anchor="start" x="267" y="-244.3" font-family="Helvetica,sans-Serif" font-size="11.00" fill="#000000">...</text>
<polygon fill="#ffffff" stroke="transparent" points="264,-219.2 264,-238.2 414,-238.2 414,-219.2 264,-219.2"/>
<polygon fill="none" stroke="#000000" points="264,-219.2 264,-238.2 414,-238.2 414,-219.2 264,-219.2"/>
<polygon fill="#ffffff" stroke="transparent" points="265,-220.2 265,-237.2 321,-237.2 321,-220.2 265,-220.2"/>
<text text-anchor="start" x="267" y="-225.3" font-family="Helvetica,sans-Serif" font-size="11.00" fill="#000000">&lt; 1</text>
<polygon fill="#ffffff" stroke="transparent" points="321,-220.2 321,-237.2 367,-237.2 367,-220.2 321,-220.2"/>
<text text-anchor="start" x="340.9431" y="-225.3" font-family="Helvetica,sans-Serif" font-size="11.00" fill="#000000"> &#160;</text>
<polygon fill="#ffffff" stroke="transparent" points="367,-220.2 367,-237.2 413,-237.2 413,-220.2 367,-220.2"/>
<text text-anchor="start" x="404.8862" y="-225.3" font-family="Helvetica,sans-Serif" font-size="11.00" fill="#000000"> &#160;</text>
<polygon fill="#000000" stroke="#000000" points="321,-220.2 321,-237.2 321,-237.2 321,-220.2 321,-220.2"/>
<polygon fill="#000000" stroke="#000000" points="367,-220.2 367,-237.2 367,-237.2 367,-220.2 367,-220.2"/>
</a>
</g>
</g>
<!-- flw_ru_batch -->
<g id="node2" class="node">
<title>flw_ru_batch</title>
<g id="a_node2"><a xlink:href="../../tables/flw_ru_batch.html" xlink:title="flw_ru_batch" target="_top">
<polygon fill="#ffffff" stroke="transparent" points="8,-38.2 8,-304.2 215,-304.2 215,-38.2 8,-38.2"/>
<polygon fill="#f5f5f5" stroke="transparent" points="10.5,-279.2 10.5,-302.2 213.5,-302.2 213.5,-279.2 10.5,-279.2"/>
<polygon fill="none" stroke="#000000" points="10.5,-279.2 10.5,-302.2 213.5,-302.2 213.5,-279.2 10.5,-279.2"/>
<text text-anchor="start" x="15.5" y="-287.8" font-family="Helvetica,sans-Serif" font-weight="bold" font-size="11.00" fill="#000000">flw_ru_batch</text>
<text text-anchor="start" x="178.5437" y="-287.3" font-family="Helvetica,sans-Serif" font-size="11.00" fill="#000000">[table]</text>
<polygon fill="none" stroke="#000000" points="10.5,-257.2 10.5,-279.2 129.5,-279.2 129.5,-257.2 10.5,-257.2"/>
<image xlink:href="../../images/primaryKeys.png" width="11px" height="12px" preserveAspectRatio="xMinYMin meet" x="15.5" y="-274.2"/>
<text text-anchor="start" x="30.5" y="-264.3" font-family="Helvetica,sans-Serif" font-size="11.00" fill="#000000">id_</text>
<polygon fill="none" stroke="#000000" points="129.5,-257.2 129.5,-279.2 213.5,-279.2 213.5,-257.2 129.5,-257.2"/>
<text text-anchor="start" x="132.5" y="-264.9" font-family="Helvetica,sans-Serif" font-size="11.00" fill="#000000">varchar[64]</text>
<polygon fill="none" stroke="#000000" points="10.5,-235.2 10.5,-257.2 129.5,-257.2 129.5,-235.2 10.5,-235.2"/>
<text text-anchor="start" x="30.5" y="-242.3" font-family="Helvetica,sans-Serif" font-size="11.00" fill="#000000">rev_</text>
<polygon fill="none" stroke="#000000" points="129.5,-235.2 129.5,-257.2 213.5,-257.2 213.5,-235.2 129.5,-235.2"/>
<text text-anchor="start" x="132.5" y="-242.9" font-family="Helvetica,sans-Serif" font-size="11.00" fill="#000000">int4[10]</text>
<polygon fill="none" stroke="#000000" points="10.5,-213.2 10.5,-235.2 129.5,-235.2 129.5,-213.2 10.5,-213.2"/>
<text text-anchor="start" x="30.5" y="-220.3" font-family="Helvetica,sans-Serif" font-size="11.00" fill="#000000">type_</text>
<polygon fill="none" stroke="#000000" points="129.5,-213.2 129.5,-235.2 213.5,-235.2 213.5,-213.2 129.5,-213.2"/>
<text text-anchor="start" x="132.5" y="-220.9" font-family="Helvetica,sans-Serif" font-size="11.00" fill="#000000">varchar[64]</text>
<polygon fill="none" stroke="#000000" points="10.5,-191.2 10.5,-213.2 129.5,-213.2 129.5,-191.2 10.5,-191.2"/>
<text text-anchor="start" x="30.5" y="-198.3" font-family="Helvetica,sans-Serif" font-size="11.00" fill="#000000">search_key_</text>
<polygon fill="none" stroke="#000000" points="129.5,-191.2 129.5,-213.2 213.5,-213.2 213.5,-191.2 129.5,-191.2"/>
<text text-anchor="start" x="132.5" y="-198.9" font-family="Helvetica,sans-Serif" font-size="11.00" fill="#000000">varchar[255]</text>
<polygon fill="none" stroke="#000000" points="10.5,-169.2 10.5,-191.2 129.5,-191.2 129.5,-169.2 10.5,-169.2"/>
<text text-anchor="start" x="30.5" y="-176.3" font-family="Helvetica,sans-Serif" font-size="11.00" fill="#000000">search_key2_</text>
<polygon fill="none" stroke="#000000" points="129.5,-169.2 129.5,-191.2 213.5,-191.2 213.5,-169.2 129.5,-169.2"/>
<text text-anchor="start" x="132.5" y="-176.9" font-family="Helvetica,sans-Serif" font-size="11.00" fill="#000000">varchar[255]</text>
<polygon fill="none" stroke="#000000" points="10.5,-147.2 10.5,-169.2 129.5,-169.2 129.5,-147.2 10.5,-147.2"/>
<text text-anchor="start" x="30.5" y="-154.3" font-family="Helvetica,sans-Serif" font-size="11.00" fill="#000000">create_time_</text>
<polygon fill="none" stroke="#000000" points="129.5,-147.2 129.5,-169.2 213.5,-169.2 213.5,-147.2 129.5,-147.2"/>
<text text-anchor="start" x="132.3807" y="-154.9" font-family="Helvetica,sans-Serif" font-size="11.00" fill="#000000">timestamp[29,6]</text>
<polygon fill="none" stroke="#000000" points="10.5,-125.2 10.5,-147.2 129.5,-147.2 129.5,-125.2 10.5,-125.2"/>
<text text-anchor="start" x="30.5" y="-132.3" font-family="Helvetica,sans-Serif" font-size="11.00" fill="#000000">complete_time_</text>
<polygon fill="none" stroke="#000000" points="129.5,-125.2 129.5,-147.2 213.5,-147.2 213.5,-125.2 129.5,-125.2"/>
<text text-anchor="start" x="132.3807" y="-132.9" font-family="Helvetica,sans-Serif" font-size="11.00" fill="#000000">timestamp[29,6]</text>
<polygon fill="none" stroke="#000000" points="10.5,-103.2 10.5,-125.2 129.5,-125.2 129.5,-103.2 10.5,-103.2"/>
<text text-anchor="start" x="30.5" y="-110.3" font-family="Helvetica,sans-Serif" font-size="11.00" fill="#000000">status_</text>
<polygon fill="none" stroke="#000000" points="129.5,-103.2 129.5,-125.2 213.5,-125.2 213.5,-103.2 129.5,-103.2"/>
<text text-anchor="start" x="132.5" y="-110.9" font-family="Helvetica,sans-Serif" font-size="11.00" fill="#000000">varchar[255]</text>
<polygon fill="none" stroke="#000000" points="10.5,-81.2 10.5,-103.2 129.5,-103.2 129.5,-81.2 10.5,-81.2"/>
<text text-anchor="start" x="30.5" y="-88.3" font-family="Helvetica,sans-Serif" font-size="11.00" fill="#000000">batch_doc_id_</text>
<polygon fill="none" stroke="#000000" points="129.5,-81.2 129.5,-103.2 213.5,-103.2 213.5,-81.2 129.5,-81.2"/>
<text text-anchor="start" x="132.5" y="-88.9" font-family="Helvetica,sans-Serif" font-size="11.00" fill="#000000">varchar[64]</text>
<polygon fill="none" stroke="#000000" points="10.5,-59.2 10.5,-81.2 129.5,-81.2 129.5,-59.2 10.5,-59.2"/>
<text text-anchor="start" x="30.5" y="-66.3" font-family="Helvetica,sans-Serif" font-size="11.00" fill="#000000">tenant_id_</text>
<polygon fill="none" stroke="#000000" points="129.5,-59.2 129.5,-81.2 213.5,-81.2 213.5,-59.2 129.5,-59.2"/>
<text text-anchor="start" x="132.5" y="-66.9" font-family="Helvetica,sans-Serif" font-size="11.00" fill="#000000">varchar[255]</text>
<polygon fill="#ffffff" stroke="transparent" points="10.5,-40.2 10.5,-59.2 213.5,-59.2 213.5,-40.2 10.5,-40.2"/>
<polygon fill="none" stroke="#000000" points="10.5,-40.2 10.5,-59.2 213.5,-59.2 213.5,-40.2 10.5,-40.2"/>
<polygon fill="#ffffff" stroke="transparent" points="11.5,-41.2 11.5,-58.2 81.5,-58.2 81.5,-41.2 11.5,-41.2"/>
<text text-anchor="start" x="13.5" y="-46.3" font-family="Helvetica,sans-Serif" font-size="11.00" fill="#000000">&lt; 0</text>
<polygon fill="#ffffff" stroke="transparent" points="81.5,-41.2 81.5,-58.2 142.5,-58.2 142.5,-41.2 81.5,-41.2"/>
<text text-anchor="start" x="108.9431" y="-46.3" font-family="Helvetica,sans-Serif" font-size="11.00" fill="#000000"> &#160;</text>
<polygon fill="#ffffff" stroke="transparent" points="142.5,-41.2 142.5,-58.2 212.5,-58.2 212.5,-41.2 142.5,-41.2"/>
<text text-anchor="start" x="194.9053" y="-46.3" font-family="Helvetica,sans-Serif" font-size="11.00" fill="#000000">1 &gt;</text>
<polygon fill="#000000" stroke="#000000" points="81.5,-41.2 81.5,-58.2 81.5,-58.2 81.5,-41.2 81.5,-41.2"/>
<polygon fill="#000000" stroke="#000000" points="142.5,-41.2 142.5,-58.2 142.5,-58.2 142.5,-41.2 142.5,-41.2"/>
<polygon fill="none" stroke="#000000" stroke-width="2" points="9,-39.2 9,-303.2 214,-303.2 214,-39.2 9,-39.2"/>
</a>
</g>
</g>
<!-- flw_ru_batch_part&#45;&gt;flw_ru_batch -->
<g id="edge1" class="edge">
<title>flw_ru_batch_part:w&#45;&gt;flw_ru_batch:e</title>
<path fill="none" stroke="#000000" d="M249.4203,-268.2C237.5435,-268.2 230.158,-268.2 213.5,-268.2"/>
<polygon fill="#000000" stroke="#000000" points="256,-268.2001 264,-271.8 260,-268.2 264,-268.2 264,-268.2 264,-268.2 260,-268.2 264,-264.6 256,-268.2001 256,-268.2001"/>
<ellipse fill="none" stroke="#000000" cx="252.8" cy="-268.2001" rx="3.2" ry="3.2"/>
</g>
</g>
</svg>
