<?xml version="1.0" encoding="UTF-8" standalone="no"?>
<!DOCTYPE svg PUBLIC "-//W3C//DTD SVG 1.1//EN"
 "http://www.w3.org/Graphics/SVG/1.1/DTD/svg11.dtd">
<!-- Generated by graphviz version 2.40.1 (20161225.0304)
 -->
<!-- Title: oneDegreeRelationshipsDiagram Pages: 1 -->
<svg width="487pt" height="249pt"
 viewBox="0.00 0.00 487.00 248.70" xmlns="http://www.w3.org/2000/svg" xmlns:xlink="http://www.w3.org/1999/xlink">
<g id="graph0" class="graph" transform="scale(1 1) rotate(0) translate(4 244.7)">
<title>oneDegreeRelationshipsDiagram</title>
<polygon fill="#ffffff" stroke="transparent" points="-4,4 -4,-244.7 483,-244.7 483,4 -4,4"/>
<text text-anchor="middle" x="72.4936" y="-7.3" font-family="Helvetica,sans-Serif" font-size="11.00" fill="#000000">Generated by SchemaSpy</text>
<!-- flw_event_resource -->
<g id="node1" class="node">
<title>flw_event_resource</title>
<g id="a_node1"><a xlink:href="../../tables/flw_event_resource.html" xlink:title="flw_event_resource" target="_top">
<polygon fill="#ffffff" stroke="transparent" points="311,-131.7 311,-236.7 471,-236.7 471,-131.7 311,-131.7"/>
<polygon fill="#f5f5f5" stroke="transparent" points="311,-213.2 311,-236.2 471,-236.2 471,-213.2 311,-213.2"/>
<polygon fill="none" stroke="#000000" points="311,-213.2 311,-236.2 471,-236.2 471,-213.2 311,-213.2"/>
<text text-anchor="start" x="316" y="-221.8" font-family="Helvetica,sans-Serif" font-weight="bold" font-size="11.00" fill="#000000">flw_event_resource</text>
<text text-anchor="start" x="436.5219" y="-221.3" font-family="Helvetica,sans-Serif" font-size="11.00" fill="#000000">[table]</text>
<polygon fill="none" stroke="#000000" points="311,-191.2 311,-213.2 471,-213.2 471,-191.2 311,-191.2"/>
<image xlink:href="../../images/primaryKeys.png" width="11px" height="12px" preserveAspectRatio="xMinYMin meet" x="316" y="-208.2"/>
<text text-anchor="start" x="340" y="-198.3" font-family="Helvetica,sans-Serif" font-size="11.00" fill="#000000">id_</text>
<polygon fill="#ffffff" stroke="transparent" points="311,-169.2 311,-191.2 471,-191.2 471,-169.2 311,-169.2"/>
<polygon fill="none" stroke="#000000" points="311,-169.2 311,-191.2 471,-191.2 471,-169.2 311,-169.2"/>
<image xlink:href="../../images/foreignKeys.png" width="11px" height="12px" preserveAspectRatio="xMinYMin meet" x="316" y="-186.2"/>
<text text-anchor="start" x="340" y="-176.3" font-family="Helvetica,sans-Serif" font-size="11.00" fill="#000000">deployment_id_</text>
<polygon fill="none" stroke="#000000" points="311,-150.2 311,-169.2 471,-169.2 471,-150.2 311,-150.2"/>
<text text-anchor="start" x="314" y="-156.3" font-family="Helvetica,sans-Serif" font-size="11.00" fill="#000000">...</text>
<polygon fill="#ffffff" stroke="transparent" points="311,-131.2 311,-150.2 471,-150.2 471,-131.2 311,-131.2"/>
<polygon fill="none" stroke="#000000" points="311,-131.2 311,-150.2 471,-150.2 471,-131.2 311,-131.2"/>
<polygon fill="#ffffff" stroke="transparent" points="312,-132.2 312,-149.2 371,-149.2 371,-132.2 312,-132.2"/>
<text text-anchor="start" x="314" y="-137.3" font-family="Helvetica,sans-Serif" font-size="11.00" fill="#000000">&lt; 1</text>
<polygon fill="#ffffff" stroke="transparent" points="371,-132.2 371,-149.2 421,-149.2 421,-132.2 371,-132.2"/>
<text text-anchor="start" x="392.9431" y="-137.3" font-family="Helvetica,sans-Serif" font-size="11.00" fill="#000000"> &#160;</text>
<polygon fill="#ffffff" stroke="transparent" points="421,-132.2 421,-149.2 470,-149.2 470,-132.2 421,-132.2"/>
<text text-anchor="start" x="461.8862" y="-137.3" font-family="Helvetica,sans-Serif" font-size="11.00" fill="#000000"> &#160;</text>
<polygon fill="#000000" stroke="#000000" points="371,-132.2 371,-149.2 371,-149.2 371,-132.2 371,-132.2"/>
<polygon fill="#000000" stroke="#000000" points="421,-132.2 421,-149.2 421,-149.2 421,-132.2 421,-132.2"/>
</a>
</g>
</g>
<!-- flw_event_deployment -->
<g id="node2" class="node">
<title>flw_event_deployment</title>
<g id="a_node2"><a xlink:href="../../tables/flw_event_deployment.html" xlink:title="flw_event_deployment" target="_top">
<polygon fill="#ffffff" stroke="transparent" points="8,-38.2 8,-216.2 262,-216.2 262,-38.2 8,-38.2"/>
<polygon fill="#f5f5f5" stroke="transparent" points="10,-191.2 10,-214.2 260,-214.2 260,-191.2 10,-191.2"/>
<polygon fill="none" stroke="#000000" points="10,-191.2 10,-214.2 260,-214.2 260,-191.2 10,-191.2"/>
<text text-anchor="start" x="15" y="-199.8" font-family="Helvetica,sans-Serif" font-weight="bold" font-size="11.00" fill="#000000">flw_event_deployment</text>
<text text-anchor="start" x="225.0437" y="-199.3" font-family="Helvetica,sans-Serif" font-size="11.00" fill="#000000">[table]</text>
<polygon fill="none" stroke="#000000" points="10,-169.2 10,-191.2 176,-191.2 176,-169.2 10,-169.2"/>
<image xlink:href="../../images/primaryKeys.png" width="11px" height="12px" preserveAspectRatio="xMinYMin meet" x="15" y="-186.2"/>
<text text-anchor="start" x="30" y="-176.3" font-family="Helvetica,sans-Serif" font-size="11.00" fill="#000000">id_</text>
<polygon fill="none" stroke="#000000" points="176,-169.2 176,-191.2 260,-191.2 260,-169.2 176,-169.2"/>
<text text-anchor="start" x="179" y="-176.9" font-family="Helvetica,sans-Serif" font-size="11.00" fill="#000000">varchar[255]</text>
<polygon fill="none" stroke="#000000" points="10,-147.2 10,-169.2 176,-169.2 176,-147.2 10,-147.2"/>
<text text-anchor="start" x="30" y="-154.3" font-family="Helvetica,sans-Serif" font-size="11.00" fill="#000000">name_</text>
<polygon fill="none" stroke="#000000" points="176,-147.2 176,-169.2 260,-169.2 260,-147.2 176,-147.2"/>
<text text-anchor="start" x="179" y="-154.9" font-family="Helvetica,sans-Serif" font-size="11.00" fill="#000000">varchar[255]</text>
<polygon fill="none" stroke="#000000" points="10,-125.2 10,-147.2 176,-147.2 176,-125.2 10,-125.2"/>
<text text-anchor="start" x="30" y="-132.3" font-family="Helvetica,sans-Serif" font-size="11.00" fill="#000000">category_</text>
<polygon fill="none" stroke="#000000" points="176,-125.2 176,-147.2 260,-147.2 260,-125.2 176,-125.2"/>
<text text-anchor="start" x="179" y="-132.9" font-family="Helvetica,sans-Serif" font-size="11.00" fill="#000000">varchar[255]</text>
<polygon fill="none" stroke="#000000" points="10,-103.2 10,-125.2 176,-125.2 176,-103.2 10,-103.2"/>
<text text-anchor="start" x="30" y="-110.3" font-family="Helvetica,sans-Serif" font-size="11.00" fill="#000000">deploy_time_</text>
<polygon fill="none" stroke="#000000" points="176,-103.2 176,-125.2 260,-125.2 260,-103.2 176,-103.2"/>
<text text-anchor="start" x="178.8807" y="-110.9" font-family="Helvetica,sans-Serif" font-size="11.00" fill="#000000">timestamp[26,3]</text>
<polygon fill="none" stroke="#000000" points="10,-81.2 10,-103.2 176,-103.2 176,-81.2 10,-81.2"/>
<text text-anchor="start" x="30" y="-88.3" font-family="Helvetica,sans-Serif" font-size="11.00" fill="#000000">tenant_id_</text>
<polygon fill="none" stroke="#000000" points="176,-81.2 176,-103.2 260,-103.2 260,-81.2 176,-81.2"/>
<text text-anchor="start" x="179" y="-88.9" font-family="Helvetica,sans-Serif" font-size="11.00" fill="#000000">varchar[255]</text>
<polygon fill="none" stroke="#000000" points="10,-59.2 10,-81.2 176,-81.2 176,-59.2 10,-59.2"/>
<text text-anchor="start" x="30" y="-66.3" font-family="Helvetica,sans-Serif" font-size="11.00" fill="#000000">parent_deployment_id_</text>
<polygon fill="none" stroke="#000000" points="176,-59.2 176,-81.2 260,-81.2 260,-59.2 176,-59.2"/>
<text text-anchor="start" x="179" y="-66.9" font-family="Helvetica,sans-Serif" font-size="11.00" fill="#000000">varchar[255]</text>
<polygon fill="#ffffff" stroke="transparent" points="10,-40.2 10,-59.2 260,-59.2 260,-40.2 10,-40.2"/>
<polygon fill="none" stroke="#000000" points="10,-40.2 10,-59.2 260,-59.2 260,-40.2 10,-40.2"/>
<polygon fill="#ffffff" stroke="transparent" points="11,-41.2 11,-58.2 97,-58.2 97,-41.2 11,-41.2"/>
<text text-anchor="start" x="13" y="-46.3" font-family="Helvetica,sans-Serif" font-size="11.00" fill="#000000">&lt; 0</text>
<polygon fill="#ffffff" stroke="transparent" points="97,-41.2 97,-58.2 174,-58.2 174,-41.2 97,-41.2"/>
<text text-anchor="start" x="132.4431" y="-46.3" font-family="Helvetica,sans-Serif" font-size="11.00" fill="#000000"> &#160;</text>
<polygon fill="#ffffff" stroke="transparent" points="174,-41.2 174,-58.2 259,-58.2 259,-41.2 174,-41.2"/>
<text text-anchor="start" x="241.4053" y="-46.3" font-family="Helvetica,sans-Serif" font-size="11.00" fill="#000000">1 &gt;</text>
<polygon fill="#000000" stroke="#000000" points="97,-41.2 97,-58.2 97,-58.2 97,-41.2 97,-41.2"/>
<polygon fill="#000000" stroke="#000000" points="174,-41.2 174,-58.2 174,-58.2 174,-41.2 174,-41.2"/>
<polygon fill="none" stroke="#000000" stroke-width="2" points="9,-39.2 9,-215.2 261,-215.2 261,-39.2 9,-39.2"/>
</a>
</g>
</g>
<!-- flw_event_resource&#45;&gt;flw_event_deployment -->
<g id="edge1" class="edge">
<title>flw_event_resource:w&#45;&gt;flw_event_deployment:e</title>
<path fill="none" stroke="#000000" d="M296.276,-180.2C284.2815,-180.2 276.8229,-180.2 260,-180.2"/>
<polygon fill="#000000" stroke="#000000" points="303,-180.2001 311,-183.8 307,-180.2 311,-180.2 311,-180.2 311,-180.2 307,-180.2 311,-176.6 303,-180.2001 303,-180.2001"/>
<ellipse fill="none" stroke="#000000" cx="299.8" cy="-180.2001" rx="3.2" ry="3.2"/>
</g>
</g>
</svg>
