<?xml version="1.0" encoding="UTF-8" standalone="no"?>
<!DOCTYPE svg PUBLIC "-//W3C//DTD SVG 1.1//EN"
 "http://www.w3.org/Graphics/SVG/1.1/DTD/svg11.dtd">
<!-- Generated by graphviz version 2.40.1 (20161225.0304)
 -->
<!-- Title: oneDegreeRelationshipsDiagram Pages: 1 -->
<svg width="412pt" height="404pt"
 viewBox="0.00 0.00 412.00 404.20" xmlns="http://www.w3.org/2000/svg" xmlns:xlink="http://www.w3.org/1999/xlink">
<g id="graph0" class="graph" transform="scale(1 1) rotate(0) translate(4 400.2)">
<title>oneDegreeRelationshipsDiagram</title>
<polygon fill="#ffffff" stroke="transparent" points="-4,4 -4,-400.2 408,-400.2 408,4 -4,4"/>
<text text-anchor="middle" x="72.4936" y="-7.3" font-family="Helvetica,sans-Serif" font-size="11.00" fill="#000000">Generated by SchemaSpy</text>
<!-- flw_ru_batch_part -->
<g id="node1" class="node">
<title>flw_ru_batch_part</title>
<g id="a_node1"><a xlink:href="../../tables/flw_ru_batch_part.html" xlink:title="flw_ru_batch_part" target="_top">
<polygon fill="#ffffff" stroke="transparent" points="176,-38.2 176,-392.2 396,-392.2 396,-38.2 176,-38.2"/>
<polygon fill="#f5f5f5" stroke="transparent" points="178,-367.2 178,-390.2 394,-390.2 394,-367.2 178,-367.2"/>
<polygon fill="none" stroke="#000000" points="178,-367.2 178,-390.2 394,-390.2 394,-367.2 178,-367.2"/>
<text text-anchor="start" x="183" y="-375.8" font-family="Helvetica,sans-Serif" font-weight="bold" font-size="11.00" fill="#000000">flw_ru_batch_part</text>
<text text-anchor="start" x="359.0437" y="-375.3" font-family="Helvetica,sans-Serif" font-size="11.00" fill="#000000">[table]</text>
<polygon fill="none" stroke="#000000" points="178,-345.2 178,-367.2 310,-367.2 310,-345.2 178,-345.2"/>
<image xlink:href="../../images/primaryKeys.png" width="11px" height="12px" preserveAspectRatio="xMinYMin meet" x="183" y="-362.2"/>
<text text-anchor="start" x="198" y="-352.3" font-family="Helvetica,sans-Serif" font-size="11.00" fill="#000000">id_</text>
<polygon fill="none" stroke="#000000" points="310,-345.2 310,-367.2 394,-367.2 394,-345.2 310,-345.2"/>
<text text-anchor="start" x="313" y="-352.9" font-family="Helvetica,sans-Serif" font-size="11.00" fill="#000000">varchar[64]</text>
<polygon fill="none" stroke="#000000" points="178,-323.2 178,-345.2 310,-345.2 310,-323.2 178,-323.2"/>
<text text-anchor="start" x="198" y="-330.3" font-family="Helvetica,sans-Serif" font-size="11.00" fill="#000000">rev_</text>
<polygon fill="none" stroke="#000000" points="310,-323.2 310,-345.2 394,-345.2 394,-323.2 310,-323.2"/>
<text text-anchor="start" x="313" y="-330.9" font-family="Helvetica,sans-Serif" font-size="11.00" fill="#000000">int4[10]</text>
<polygon fill="#ffffff" stroke="transparent" points="178,-301.2 178,-323.2 310,-323.2 310,-301.2 178,-301.2"/>
<polygon fill="none" stroke="#000000" points="178,-301.2 178,-323.2 310,-323.2 310,-301.2 178,-301.2"/>
<image xlink:href="../../images/foreignKeys.png" width="11px" height="12px" preserveAspectRatio="xMinYMin meet" x="183" y="-318.2"/>
<text text-anchor="start" x="198" y="-308.3" font-family="Helvetica,sans-Serif" font-size="11.00" fill="#000000">batch_id_</text>
<polygon fill="none" stroke="#000000" points="310,-301.2 310,-323.2 394,-323.2 394,-301.2 310,-301.2"/>
<text text-anchor="start" x="313" y="-308.9" font-family="Helvetica,sans-Serif" font-size="11.00" fill="#000000">varchar[64]</text>
<polygon fill="none" stroke="#000000" points="178,-279.2 178,-301.2 310,-301.2 310,-279.2 178,-279.2"/>
<text text-anchor="start" x="198" y="-286.3" font-family="Helvetica,sans-Serif" font-size="11.00" fill="#000000">type_</text>
<polygon fill="none" stroke="#000000" points="310,-279.2 310,-301.2 394,-301.2 394,-279.2 310,-279.2"/>
<text text-anchor="start" x="313" y="-286.9" font-family="Helvetica,sans-Serif" font-size="11.00" fill="#000000">varchar[64]</text>
<polygon fill="none" stroke="#000000" points="178,-257.2 178,-279.2 310,-279.2 310,-257.2 178,-257.2"/>
<text text-anchor="start" x="198" y="-264.3" font-family="Helvetica,sans-Serif" font-size="11.00" fill="#000000">scope_id_</text>
<polygon fill="none" stroke="#000000" points="310,-257.2 310,-279.2 394,-279.2 394,-257.2 310,-257.2"/>
<text text-anchor="start" x="313" y="-264.9" font-family="Helvetica,sans-Serif" font-size="11.00" fill="#000000">varchar[64]</text>
<polygon fill="none" stroke="#000000" points="178,-235.2 178,-257.2 310,-257.2 310,-235.2 178,-235.2"/>
<text text-anchor="start" x="198" y="-242.3" font-family="Helvetica,sans-Serif" font-size="11.00" fill="#000000">sub_scope_id_</text>
<polygon fill="none" stroke="#000000" points="310,-235.2 310,-257.2 394,-257.2 394,-235.2 310,-235.2"/>
<text text-anchor="start" x="313" y="-242.9" font-family="Helvetica,sans-Serif" font-size="11.00" fill="#000000">varchar[64]</text>
<polygon fill="none" stroke="#000000" points="178,-213.2 178,-235.2 310,-235.2 310,-213.2 178,-213.2"/>
<text text-anchor="start" x="198" y="-220.3" font-family="Helvetica,sans-Serif" font-size="11.00" fill="#000000">scope_type_</text>
<polygon fill="none" stroke="#000000" points="310,-213.2 310,-235.2 394,-235.2 394,-213.2 310,-213.2"/>
<text text-anchor="start" x="313" y="-220.9" font-family="Helvetica,sans-Serif" font-size="11.00" fill="#000000">varchar[64]</text>
<polygon fill="none" stroke="#000000" points="178,-191.2 178,-213.2 310,-213.2 310,-191.2 178,-191.2"/>
<text text-anchor="start" x="198" y="-198.3" font-family="Helvetica,sans-Serif" font-size="11.00" fill="#000000">search_key_</text>
<polygon fill="none" stroke="#000000" points="310,-191.2 310,-213.2 394,-213.2 394,-191.2 310,-191.2"/>
<text text-anchor="start" x="313" y="-198.9" font-family="Helvetica,sans-Serif" font-size="11.00" fill="#000000">varchar[255]</text>
<polygon fill="none" stroke="#000000" points="178,-169.2 178,-191.2 310,-191.2 310,-169.2 178,-169.2"/>
<text text-anchor="start" x="198" y="-176.3" font-family="Helvetica,sans-Serif" font-size="11.00" fill="#000000">search_key2_</text>
<polygon fill="none" stroke="#000000" points="310,-169.2 310,-191.2 394,-191.2 394,-169.2 310,-169.2"/>
<text text-anchor="start" x="313" y="-176.9" font-family="Helvetica,sans-Serif" font-size="11.00" fill="#000000">varchar[255]</text>
<polygon fill="none" stroke="#000000" points="178,-147.2 178,-169.2 310,-169.2 310,-147.2 178,-147.2"/>
<text text-anchor="start" x="198" y="-154.3" font-family="Helvetica,sans-Serif" font-size="11.00" fill="#000000">create_time_</text>
<polygon fill="none" stroke="#000000" points="310,-147.2 310,-169.2 394,-169.2 394,-147.2 310,-147.2"/>
<text text-anchor="start" x="312.8807" y="-154.9" font-family="Helvetica,sans-Serif" font-size="11.00" fill="#000000">timestamp[29,6]</text>
<polygon fill="none" stroke="#000000" points="178,-125.2 178,-147.2 310,-147.2 310,-125.2 178,-125.2"/>
<text text-anchor="start" x="198" y="-132.3" font-family="Helvetica,sans-Serif" font-size="11.00" fill="#000000">complete_time_</text>
<polygon fill="none" stroke="#000000" points="310,-125.2 310,-147.2 394,-147.2 394,-125.2 310,-125.2"/>
<text text-anchor="start" x="312.8807" y="-132.9" font-family="Helvetica,sans-Serif" font-size="11.00" fill="#000000">timestamp[29,6]</text>
<polygon fill="none" stroke="#000000" points="178,-103.2 178,-125.2 310,-125.2 310,-103.2 178,-103.2"/>
<text text-anchor="start" x="198" y="-110.3" font-family="Helvetica,sans-Serif" font-size="11.00" fill="#000000">status_</text>
<polygon fill="none" stroke="#000000" points="310,-103.2 310,-125.2 394,-125.2 394,-103.2 310,-103.2"/>
<text text-anchor="start" x="313" y="-110.9" font-family="Helvetica,sans-Serif" font-size="11.00" fill="#000000">varchar[255]</text>
<polygon fill="none" stroke="#000000" points="178,-81.2 178,-103.2 310,-103.2 310,-81.2 178,-81.2"/>
<text text-anchor="start" x="198" y="-88.3" font-family="Helvetica,sans-Serif" font-size="11.00" fill="#000000">result_doc_id_</text>
<polygon fill="none" stroke="#000000" points="310,-81.2 310,-103.2 394,-103.2 394,-81.2 310,-81.2"/>
<text text-anchor="start" x="313" y="-88.9" font-family="Helvetica,sans-Serif" font-size="11.00" fill="#000000">varchar[64]</text>
<polygon fill="none" stroke="#000000" points="178,-59.2 178,-81.2 310,-81.2 310,-59.2 178,-59.2"/>
<text text-anchor="start" x="198" y="-66.3" font-family="Helvetica,sans-Serif" font-size="11.00" fill="#000000">tenant_id_</text>
<polygon fill="none" stroke="#000000" points="310,-59.2 310,-81.2 394,-81.2 394,-59.2 310,-59.2"/>
<text text-anchor="start" x="313" y="-66.9" font-family="Helvetica,sans-Serif" font-size="11.00" fill="#000000">varchar[255]</text>
<polygon fill="#ffffff" stroke="transparent" points="178,-40.2 178,-59.2 394,-59.2 394,-40.2 178,-40.2"/>
<polygon fill="none" stroke="#000000" points="178,-40.2 178,-59.2 394,-59.2 394,-40.2 178,-40.2"/>
<polygon fill="#ffffff" stroke="transparent" points="179,-41.2 179,-58.2 254,-58.2 254,-41.2 179,-41.2"/>
<text text-anchor="start" x="181" y="-46.3" font-family="Helvetica,sans-Serif" font-size="11.00" fill="#000000">&lt; 1</text>
<polygon fill="#ffffff" stroke="transparent" points="254,-41.2 254,-58.2 319,-58.2 319,-41.2 254,-41.2"/>
<text text-anchor="start" x="283.4431" y="-46.3" font-family="Helvetica,sans-Serif" font-size="11.00" fill="#000000"> &#160;</text>
<polygon fill="#ffffff" stroke="transparent" points="319,-41.2 319,-58.2 393,-58.2 393,-41.2 319,-41.2"/>
<text text-anchor="start" x="375.4053" y="-46.3" font-family="Helvetica,sans-Serif" font-size="11.00" fill="#000000">0 &gt;</text>
<polygon fill="#000000" stroke="#000000" points="254,-41.2 254,-58.2 254,-58.2 254,-41.2 254,-41.2"/>
<polygon fill="#000000" stroke="#000000" points="319,-41.2 319,-58.2 319,-58.2 319,-41.2 319,-41.2"/>
<polygon fill="none" stroke="#000000" stroke-width="2" points="177,-39.2 177,-391.2 395,-391.2 395,-39.2 177,-39.2"/>
</a>
</g>
</g>
<!-- flw_ru_batch -->
<g id="node2" class="node">
<title>flw_ru_batch</title>
<g id="a_node2"><a xlink:href="../../tables/flw_ru_batch.html" xlink:title="flw_ru_batch" target="_top">
<polygon fill="#ffffff" stroke="transparent" points="8,-263.7 8,-346.7 127,-346.7 127,-263.7 8,-263.7"/>
<polygon fill="#f5f5f5" stroke="transparent" points="8.5,-323.2 8.5,-346.2 127.5,-346.2 127.5,-323.2 8.5,-323.2"/>
<polygon fill="none" stroke="#000000" points="8.5,-323.2 8.5,-346.2 127.5,-346.2 127.5,-323.2 8.5,-323.2"/>
<text text-anchor="start" x="13.5" y="-331.8" font-family="Helvetica,sans-Serif" font-weight="bold" font-size="11.00" fill="#000000">flw_ru_batch</text>
<text text-anchor="start" x="93.0219" y="-331.3" font-family="Helvetica,sans-Serif" font-size="11.00" fill="#000000">[table]</text>
<polygon fill="none" stroke="#000000" points="8.5,-301.2 8.5,-323.2 127.5,-323.2 127.5,-301.2 8.5,-301.2"/>
<image xlink:href="../../images/primaryKeys.png" width="11px" height="12px" preserveAspectRatio="xMinYMin meet" x="13.5" y="-318.2"/>
<text text-anchor="start" x="28.5" y="-308.3" font-family="Helvetica,sans-Serif" font-size="11.00" fill="#000000">id_</text>
<polygon fill="none" stroke="#000000" points="8.5,-282.2 8.5,-301.2 127.5,-301.2 127.5,-282.2 8.5,-282.2"/>
<text text-anchor="start" x="11.5" y="-288.3" font-family="Helvetica,sans-Serif" font-size="11.00" fill="#000000">...</text>
<polygon fill="#ffffff" stroke="transparent" points="8.5,-263.2 8.5,-282.2 127.5,-282.2 127.5,-263.2 8.5,-263.2"/>
<polygon fill="none" stroke="#000000" points="8.5,-263.2 8.5,-282.2 127.5,-282.2 127.5,-263.2 8.5,-263.2"/>
<polygon fill="#ffffff" stroke="transparent" points="9.5,-264.2 9.5,-281.2 45.5,-281.2 45.5,-264.2 9.5,-264.2"/>
<text text-anchor="start" x="11.5" y="-269.3" font-family="Helvetica,sans-Serif" font-size="11.00" fill="#000000"> &#160;</text>
<polygon fill="#ffffff" stroke="transparent" points="45.5,-264.2 45.5,-281.2 81.5,-281.2 81.5,-264.2 45.5,-264.2"/>
<text text-anchor="start" x="60.4431" y="-269.3" font-family="Helvetica,sans-Serif" font-size="11.00" fill="#000000"> &#160;</text>
<polygon fill="#ffffff" stroke="transparent" points="81.5,-264.2 81.5,-281.2 126.5,-281.2 126.5,-264.2 81.5,-264.2"/>
<text text-anchor="start" x="108.9053" y="-269.3" font-family="Helvetica,sans-Serif" font-size="11.00" fill="#000000">1 &gt;</text>
<polygon fill="#000000" stroke="#000000" points="45.5,-264.2 45.5,-281.2 45.5,-281.2 45.5,-264.2 45.5,-264.2"/>
<polygon fill="#000000" stroke="#000000" points="81.5,-264.2 81.5,-281.2 81.5,-281.2 81.5,-264.2 81.5,-264.2"/>
</a>
</g>
</g>
<!-- flw_ru_batch_part&#45;&gt;flw_ru_batch -->
<g id="edge1" class="edge">
<title>flw_ru_batch_part:w&#45;&gt;flw_ru_batch:e</title>
<path fill="none" stroke="#000000" d="M163.4203,-312.2C151.5435,-312.2 144.158,-312.2 127.5,-312.2"/>
<polygon fill="#000000" stroke="#000000" points="170,-312.2001 178,-315.8 174,-312.2 178,-312.2 178,-312.2 178,-312.2 174,-312.2 178,-308.6 170,-312.2001 170,-312.2001"/>
<ellipse fill="none" stroke="#000000" cx="166.8" cy="-312.2001" rx="3.2" ry="3.2"/>
</g>
</g>
</svg>
