<?xml version="1.0" encoding="UTF-8" standalone="no"?>
<!DOCTYPE svg PUBLIC "-//W3C//DTD SVG 1.1//EN"
 "http://www.w3.org/Graphics/SVG/1.1/DTD/svg11.dtd">
<!-- Generated by graphviz version 2.40.1 (20161225.0304)
 -->
<!-- Title: oneDegreeRelationshipsDiagram Pages: 1 -->
<svg width="497pt" height="184pt"
 viewBox="0.00 0.00 497.00 184.20" xmlns="http://www.w3.org/2000/svg" xmlns:xlink="http://www.w3.org/1999/xlink">
<g id="graph0" class="graph" transform="scale(1 1) rotate(0) translate(4 180.2)">
<title>oneDegreeRelationshipsDiagram</title>
<polygon fill="#ffffff" stroke="transparent" points="-4,4 -4,-180.2 493,-180.2 493,4 -4,4"/>
<text text-anchor="middle" x="72.4936" y="-7.3" font-family="Helvetica,sans-Serif" font-size="11.00" fill="#000000">Generated by SchemaSpy</text>
<!-- flw_event_resource -->
<g id="node1" class="node">
<title>flw_event_resource</title>
<g id="a_node1"><a xlink:href="../../tables/flw_event_resource.html" xlink:title="flw_event_resource" target="_top">
<polygon fill="#ffffff" stroke="transparent" points="235,-38.2 235,-172.2 481,-172.2 481,-38.2 235,-38.2"/>
<polygon fill="#f5f5f5" stroke="transparent" points="237,-147.2 237,-170.2 479,-170.2 479,-147.2 237,-147.2"/>
<polygon fill="none" stroke="#000000" points="237,-147.2 237,-170.2 479,-170.2 479,-147.2 237,-147.2"/>
<text text-anchor="start" x="242" y="-155.8" font-family="Helvetica,sans-Serif" font-weight="bold" font-size="11.00" fill="#000000">flw_event_resource</text>
<text text-anchor="start" x="444.0437" y="-155.3" font-family="Helvetica,sans-Serif" font-size="11.00" fill="#000000">[table]</text>
<polygon fill="none" stroke="#000000" points="237,-125.2 237,-147.2 379,-147.2 379,-125.2 237,-125.2"/>
<image xlink:href="../../images/primaryKeys.png" width="11px" height="12px" preserveAspectRatio="xMinYMin meet" x="242" y="-142.2"/>
<text text-anchor="start" x="257" y="-132.3" font-family="Helvetica,sans-Serif" font-size="11.00" fill="#000000">id_</text>
<polygon fill="none" stroke="#000000" points="379,-125.2 379,-147.2 479,-147.2 479,-125.2 379,-125.2"/>
<text text-anchor="start" x="382" y="-132.9" font-family="Helvetica,sans-Serif" font-size="11.00" fill="#000000">varchar[255]</text>
<polygon fill="none" stroke="#000000" points="237,-103.2 237,-125.2 379,-125.2 379,-103.2 237,-103.2"/>
<text text-anchor="start" x="257" y="-110.3" font-family="Helvetica,sans-Serif" font-size="11.00" fill="#000000">name_</text>
<polygon fill="none" stroke="#000000" points="379,-103.2 379,-125.2 479,-125.2 479,-103.2 379,-103.2"/>
<text text-anchor="start" x="382" y="-110.9" font-family="Helvetica,sans-Serif" font-size="11.00" fill="#000000">varchar[255]</text>
<polygon fill="#ffffff" stroke="transparent" points="237,-81.2 237,-103.2 379,-103.2 379,-81.2 237,-81.2"/>
<polygon fill="none" stroke="#000000" points="237,-81.2 237,-103.2 379,-103.2 379,-81.2 237,-81.2"/>
<image xlink:href="../../images/foreignKeys.png" width="11px" height="12px" preserveAspectRatio="xMinYMin meet" x="242" y="-98.2"/>
<text text-anchor="start" x="257" y="-88.3" font-family="Helvetica,sans-Serif" font-size="11.00" fill="#000000">deployment_id_</text>
<polygon fill="none" stroke="#000000" points="379,-81.2 379,-103.2 479,-103.2 479,-81.2 379,-81.2"/>
<text text-anchor="start" x="382" y="-88.9" font-family="Helvetica,sans-Serif" font-size="11.00" fill="#000000">varchar[255]</text>
<polygon fill="none" stroke="#000000" points="237,-59.2 237,-81.2 379,-81.2 379,-59.2 237,-59.2"/>
<text text-anchor="start" x="257" y="-66.3" font-family="Helvetica,sans-Serif" font-size="11.00" fill="#000000">resource_bytes_</text>
<polygon fill="none" stroke="#000000" points="379,-59.2 379,-81.2 479,-81.2 479,-59.2 379,-59.2"/>
<text text-anchor="start" x="381.9178" y="-66.9" font-family="Helvetica,sans-Serif" font-size="11.00" fill="#000000">bytea[2147483647]</text>
<polygon fill="#ffffff" stroke="transparent" points="237,-40.2 237,-59.2 479,-59.2 479,-40.2 237,-40.2"/>
<polygon fill="none" stroke="#000000" points="237,-40.2 237,-59.2 479,-59.2 479,-40.2 237,-40.2"/>
<polygon fill="#ffffff" stroke="transparent" points="238,-41.2 238,-58.2 321,-58.2 321,-41.2 238,-41.2"/>
<text text-anchor="start" x="240" y="-46.3" font-family="Helvetica,sans-Serif" font-size="11.00" fill="#000000">&lt; 1</text>
<polygon fill="#ffffff" stroke="transparent" points="321,-41.2 321,-58.2 395,-58.2 395,-41.2 321,-41.2"/>
<text text-anchor="start" x="354.9431" y="-46.3" font-family="Helvetica,sans-Serif" font-size="11.00" fill="#000000"> &#160;</text>
<polygon fill="#ffffff" stroke="transparent" points="395,-41.2 395,-58.2 478,-58.2 478,-41.2 395,-41.2"/>
<text text-anchor="start" x="460.4053" y="-46.3" font-family="Helvetica,sans-Serif" font-size="11.00" fill="#000000">0 &gt;</text>
<polygon fill="#000000" stroke="#000000" points="321,-41.2 321,-58.2 321,-58.2 321,-41.2 321,-41.2"/>
<polygon fill="#000000" stroke="#000000" points="395,-41.2 395,-58.2 395,-58.2 395,-41.2 395,-41.2"/>
<polygon fill="none" stroke="#000000" stroke-width="2" points="236,-39.2 236,-171.2 480,-171.2 480,-39.2 236,-39.2"/>
</a>
</g>
</g>
<!-- flw_event_deployment -->
<g id="node2" class="node">
<title>flw_event_deployment</title>
<g id="a_node2"><a xlink:href="../../tables/flw_event_deployment.html" xlink:title="flw_event_deployment" target="_top">
<polygon fill="#ffffff" stroke="transparent" points="8,-43.7 8,-126.7 186,-126.7 186,-43.7 8,-43.7"/>
<polygon fill="#f5f5f5" stroke="transparent" points="8,-103.2 8,-126.2 186,-126.2 186,-103.2 8,-103.2"/>
<polygon fill="none" stroke="#000000" points="8,-103.2 8,-126.2 186,-126.2 186,-103.2 8,-103.2"/>
<text text-anchor="start" x="13" y="-111.8" font-family="Helvetica,sans-Serif" font-weight="bold" font-size="11.00" fill="#000000">flw_event_deployment</text>
<text text-anchor="start" x="151.5219" y="-111.3" font-family="Helvetica,sans-Serif" font-size="11.00" fill="#000000">[table]</text>
<polygon fill="none" stroke="#000000" points="8,-81.2 8,-103.2 186,-103.2 186,-81.2 8,-81.2"/>
<image xlink:href="../../images/primaryKeys.png" width="11px" height="12px" preserveAspectRatio="xMinYMin meet" x="13" y="-98.2"/>
<text text-anchor="start" x="34" y="-88.3" font-family="Helvetica,sans-Serif" font-size="11.00" fill="#000000">id_</text>
<polygon fill="none" stroke="#000000" points="8,-62.2 8,-81.2 186,-81.2 186,-62.2 8,-62.2"/>
<text text-anchor="start" x="11" y="-68.3" font-family="Helvetica,sans-Serif" font-size="11.00" fill="#000000">...</text>
<polygon fill="#ffffff" stroke="transparent" points="8,-43.2 8,-62.2 186,-62.2 186,-43.2 8,-43.2"/>
<polygon fill="none" stroke="#000000" points="8,-43.2 8,-62.2 186,-62.2 186,-43.2 8,-43.2"/>
<polygon fill="#ffffff" stroke="transparent" points="9,-44.2 9,-61.2 65,-61.2 65,-44.2 9,-44.2"/>
<text text-anchor="start" x="11" y="-49.3" font-family="Helvetica,sans-Serif" font-size="11.00" fill="#000000"> &#160;</text>
<polygon fill="#ffffff" stroke="transparent" points="65,-44.2 65,-61.2 121,-61.2 121,-44.2 65,-44.2"/>
<text text-anchor="start" x="89.9431" y="-49.3" font-family="Helvetica,sans-Serif" font-size="11.00" fill="#000000"> &#160;</text>
<polygon fill="#ffffff" stroke="transparent" points="121,-44.2 121,-61.2 185,-61.2 185,-44.2 121,-44.2"/>
<text text-anchor="start" x="167.4053" y="-49.3" font-family="Helvetica,sans-Serif" font-size="11.00" fill="#000000">1 &gt;</text>
<polygon fill="#000000" stroke="#000000" points="65,-44.2 65,-61.2 65,-61.2 65,-44.2 65,-44.2"/>
<polygon fill="#000000" stroke="#000000" points="121,-44.2 121,-61.2 121,-61.2 121,-44.2 121,-44.2"/>
</a>
</g>
</g>
<!-- flw_event_resource&#45;&gt;flw_event_deployment -->
<g id="edge1" class="edge">
<title>flw_event_resource:w&#45;&gt;flw_event_deployment:e</title>
<path fill="none" stroke="#000000" d="M222.276,-92.2C210.2815,-92.2 202.8229,-92.2 186,-92.2"/>
<polygon fill="#000000" stroke="#000000" points="229,-92.2001 237,-95.8 233,-92.2 237,-92.2 237,-92.2 237,-92.2 233,-92.2 237,-88.6 229,-92.2001 229,-92.2001"/>
<ellipse fill="none" stroke="#000000" cx="225.8" cy="-92.2001" rx="3.2" ry="3.2"/>
</g>
</g>
</svg>
