<?xml version="1.0" encoding="UTF-8" standalone="no"?>
<!DOCTYPE svg PUBLIC "-//W3C//DTD SVG 1.1//EN"
 "http://www.w3.org/Graphics/SVG/1.1/DTD/svg11.dtd">
<!-- Generated by graphviz version 2.40.1 (20161225.0304)
 -->
<!-- Title: twoDegreesRelationshipsDiagram Pages: 1 -->
<svg width="651pt" height="426pt"
 viewBox="0.00 0.00 651.00 426.20" xmlns="http://www.w3.org/2000/svg" xmlns:xlink="http://www.w3.org/1999/xlink">
<g id="graph0" class="graph" transform="scale(1 1) rotate(0) translate(4 422.2)">
<title>twoDegreesRelationshipsDiagram</title>
<polygon fill="#ffffff" stroke="transparent" points="-4,4 -4,-422.2 647,-422.2 647,4 -4,4"/>
<text text-anchor="middle" x="72.4936" y="-7.3" font-family="Helvetica,sans-Serif" font-size="11.00" fill="#000000">Generated by SchemaSpy</text>
<!-- individual -->
<g id="node1" class="node">
<title>individual</title>
<g id="a_node1"><a xlink:href="../../tables/individual.html" xlink:title="individual" target="_top">
<polygon fill="#ffffff" stroke="transparent" points="136,-263.7 136,-368.7 334,-368.7 334,-263.7 136,-263.7"/>
<polygon fill="#f5f5f5" stroke="transparent" points="136,-345.2 136,-368.2 334,-368.2 334,-345.2 136,-345.2"/>
<polygon fill="none" stroke="#000000" points="136,-345.2 136,-368.2 334,-368.2 334,-345.2 136,-345.2"/>
<text text-anchor="start" x="141" y="-353.8" font-family="Helvetica,sans-Serif" font-weight="bold" font-size="11.00" fill="#000000">individual</text>
<text text-anchor="start" x="299.0437" y="-353.3" font-family="Helvetica,sans-Serif" font-size="11.00" fill="#000000">[table]</text>
<polygon fill="none" stroke="#000000" points="136,-323.2 136,-345.2 334,-345.2 334,-323.2 136,-323.2"/>
<image xlink:href="../../images/primaryKeys.png" width="11px" height="12px" preserveAspectRatio="xMinYMin meet" x="141" y="-340.2"/>
<text text-anchor="start" x="156" y="-330.3" font-family="Helvetica,sans-Serif" font-size="11.00" fill="#000000">party_id</text>
<polygon fill="#ffffff" stroke="transparent" points="136,-301.2 136,-323.2 334,-323.2 334,-301.2 136,-301.2"/>
<polygon fill="none" stroke="#000000" points="136,-301.2 136,-323.2 334,-323.2 334,-301.2 136,-301.2"/>
<text text-anchor="start" x="156" y="-308.3" font-family="Helvetica,sans-Serif" font-size="11.00" fill="#000000">family_name</text>
<polygon fill="none" stroke="#000000" points="136,-282.2 136,-301.2 334,-301.2 334,-282.2 136,-282.2"/>
<text text-anchor="start" x="139" y="-288.3" font-family="Helvetica,sans-Serif" font-size="11.00" fill="#000000">...</text>
<polygon fill="#ffffff" stroke="transparent" points="136,-263.2 136,-282.2 334,-282.2 334,-263.2 136,-263.2"/>
<polygon fill="none" stroke="#000000" points="136,-263.2 136,-282.2 334,-282.2 334,-263.2 136,-263.2"/>
<polygon fill="#ffffff" stroke="transparent" points="137,-264.2 137,-281.2 193,-281.2 193,-264.2 137,-264.2"/>
<text text-anchor="start" x="139" y="-269.3" font-family="Helvetica,sans-Serif" font-size="11.00" fill="#000000">&lt; 1</text>
<polygon fill="#ffffff" stroke="transparent" points="193,-264.2 193,-281.2 278,-281.2 278,-264.2 193,-264.2"/>
<text text-anchor="start" x="213.1904" y="-269.3" font-family="Helvetica,sans-Serif" font-size="11.00" fill="#000000">231 rows</text>
<polygon fill="#ffffff" stroke="transparent" points="278,-264.2 278,-281.2 333,-281.2 333,-264.2 278,-264.2"/>
<text text-anchor="start" x="315.4053" y="-269.3" font-family="Helvetica,sans-Serif" font-size="11.00" fill="#000000">1 &gt;</text>
<polygon fill="#000000" stroke="#000000" points="193,-264.2 193,-281.2 193,-281.2 193,-264.2 193,-264.2"/>
<polygon fill="#000000" stroke="#000000" points="278,-264.2 278,-281.2 278,-281.2 278,-264.2 278,-264.2"/>
</a>
</g>
</g>
<!-- party -->
<g id="node2" class="node">
<title>party</title>
<g id="a_node2"><a xlink:href="../../tables/party.html" xlink:title="party" target="_top">
<polygon fill="#ffffff" stroke="transparent" points="8,-306.7 8,-367.7 87,-367.7 87,-306.7 8,-306.7"/>
<polygon fill="#f5f5f5" stroke="transparent" points="8.5,-344.2 8.5,-367.2 87.5,-367.2 87.5,-344.2 8.5,-344.2"/>
<polygon fill="none" stroke="#000000" points="8.5,-344.2 8.5,-367.2 87.5,-367.2 87.5,-344.2 8.5,-344.2"/>
<text text-anchor="start" x="13.5" y="-352.8" font-family="Helvetica,sans-Serif" font-weight="bold" font-size="11.00" fill="#000000">party</text>
<text text-anchor="start" x="52.5437" y="-352.3" font-family="Helvetica,sans-Serif" font-size="11.00" fill="#000000">[table]</text>
<polygon fill="none" stroke="#000000" points="8.5,-325.2 8.5,-344.2 87.5,-344.2 87.5,-325.2 8.5,-325.2"/>
<text text-anchor="start" x="11.5" y="-331.3" font-family="Helvetica,sans-Serif" font-size="11.00" fill="#000000">...</text>
<polygon fill="#ffffff" stroke="transparent" points="8.5,-306.2 8.5,-325.2 87.5,-325.2 87.5,-306.2 8.5,-306.2"/>
<polygon fill="none" stroke="#000000" points="8.5,-306.2 8.5,-325.2 87.5,-325.2 87.5,-306.2 8.5,-306.2"/>
<polygon fill="#ffffff" stroke="transparent" points="9.5,-307.2 9.5,-324.2 19.5,-324.2 19.5,-307.2 9.5,-307.2"/>
<text text-anchor="start" x="11.4431" y="-312.3" font-family="Helvetica,sans-Serif" font-size="11.00" fill="#000000"> &#160;</text>
<polygon fill="#ffffff" stroke="transparent" points="19.5,-307.2 19.5,-324.2 67.5,-324.2 67.5,-307.2 19.5,-307.2"/>
<text text-anchor="start" x="21.1904" y="-312.3" font-family="Helvetica,sans-Serif" font-size="11.00" fill="#000000">237 rows</text>
<polygon fill="#ffffff" stroke="transparent" points="67.5,-307.2 67.5,-324.2 86.5,-324.2 86.5,-307.2 67.5,-307.2"/>
<text text-anchor="start" x="69.2027" y="-312.3" font-family="Helvetica,sans-Serif" font-size="11.00" fill="#000000">4 &gt;</text>
<polygon fill="#000000" stroke="#000000" points="19.5,-307.2 19.5,-324.2 19.5,-324.2 19.5,-307.2 19.5,-307.2"/>
<polygon fill="#000000" stroke="#000000" points="67.5,-307.2 67.5,-324.2 67.5,-324.2 67.5,-307.2 67.5,-307.2"/>
</a>
</g>
</g>
<!-- individual&#45;&gt;party -->
<g id="edge1" class="edge">
<title>individual:w&#45;&gt;party:e</title>
<path fill="none" stroke="#000000" d="M125.3669,-334.2C111.8553,-334.2 105.0139,-334.2 87.5,-334.2"/>
<polygon fill="#000000" stroke="#000000" points="135.2,-330.2 135.2,-338.2 133.6,-338.2 133.6,-330.2 135.2,-330.2"/>
<polyline fill="none" stroke="#000000" points="136,-334.2 132,-334.2 "/>
<ellipse fill="none" stroke="#000000" cx="128.8" cy="-334.2001" rx="3.2" ry="3.2"/>
</g>
<!-- individual_name -->
<g id="node3" class="node">
<title>individual_name</title>
<g id="a_node3"><a xlink:href="../../tables/individual_name.html" xlink:title="individual_name" target="_top">
<polygon fill="#ffffff" stroke="transparent" points="383,-38.2 383,-414.2 635,-414.2 635,-38.2 383,-38.2"/>
<polygon fill="#f5f5f5" stroke="transparent" points="385,-389.2 385,-412.2 633,-412.2 633,-389.2 385,-389.2"/>
<polygon fill="none" stroke="#000000" points="385,-389.2 385,-412.2 633,-412.2 633,-389.2 385,-389.2"/>
<text text-anchor="start" x="390" y="-397.8" font-family="Helvetica,sans-Serif" font-weight="bold" font-size="11.00" fill="#000000">individual_name</text>
<text text-anchor="start" x="598.0437" y="-397.3" font-family="Helvetica,sans-Serif" font-size="11.00" fill="#000000">[table]</text>
<polygon fill="none" stroke="#000000" points="385,-367.2 385,-389.2 549,-389.2 549,-367.2 385,-367.2"/>
<text text-anchor="start" x="405" y="-374.3" font-family="Helvetica,sans-Serif" font-size="11.00" fill="#000000">from_date</text>
<polygon fill="none" stroke="#000000" points="549,-367.2 549,-389.2 633,-389.2 633,-367.2 549,-367.2"/>
<text text-anchor="start" x="551.8807" y="-374.9" font-family="Helvetica,sans-Serif" font-size="11.00" fill="#000000">timestamp[29,6]</text>
<polygon fill="none" stroke="#000000" points="385,-345.2 385,-367.2 549,-367.2 549,-345.2 385,-345.2"/>
<image xlink:href="../../images/primaryKeys.png" width="11px" height="12px" preserveAspectRatio="xMinYMin meet" x="390" y="-362.2"/>
<text text-anchor="start" x="405" y="-352.3" font-family="Helvetica,sans-Serif" font-size="11.00" fill="#000000">id</text>
<polygon fill="none" stroke="#000000" points="549,-345.2 549,-367.2 633,-367.2 633,-345.2 549,-345.2"/>
<text text-anchor="start" x="552" y="-352.9" font-family="Helvetica,sans-Serif" font-size="11.00" fill="#000000">int8[19]</text>
<polygon fill="none" stroke="#000000" points="385,-323.2 385,-345.2 549,-345.2 549,-323.2 385,-323.2"/>
<image xlink:href="../../images/foreignKeys.png" width="11px" height="12px" preserveAspectRatio="xMinYMin meet" x="390" y="-340.2"/>
<text text-anchor="start" x="405" y="-330.3" font-family="Helvetica,sans-Serif" font-size="11.00" fill="#000000">individual_id</text>
<polygon fill="none" stroke="#000000" points="549,-323.2 549,-345.2 633,-345.2 633,-323.2 549,-323.2"/>
<text text-anchor="start" x="552" y="-330.9" font-family="Helvetica,sans-Serif" font-size="11.00" fill="#000000">int8[19]</text>
<polygon fill="none" stroke="#000000" points="385,-301.2 385,-323.2 549,-323.2 549,-301.2 385,-301.2"/>
<text text-anchor="start" x="405" y="-308.3" font-family="Helvetica,sans-Serif" font-size="11.00" fill="#000000">to_date</text>
<polygon fill="none" stroke="#000000" points="549,-301.2 549,-323.2 633,-323.2 633,-301.2 549,-301.2"/>
<text text-anchor="start" x="551.8807" y="-308.9" font-family="Helvetica,sans-Serif" font-size="11.00" fill="#000000">timestamp[29,6]</text>
<polygon fill="none" stroke="#000000" points="385,-279.2 385,-301.2 549,-301.2 549,-279.2 385,-279.2"/>
<text text-anchor="start" x="405" y="-286.3" font-family="Helvetica,sans-Serif" font-size="11.00" fill="#000000">family_name</text>
<polygon fill="none" stroke="#000000" points="549,-279.2 549,-301.2 633,-301.2 633,-279.2 549,-279.2"/>
<text text-anchor="start" x="552" y="-286.9" font-family="Helvetica,sans-Serif" font-size="11.00" fill="#000000">varchar[255]</text>
<polygon fill="none" stroke="#000000" points="385,-257.2 385,-279.2 549,-279.2 549,-257.2 385,-257.2"/>
<text text-anchor="start" x="405" y="-264.3" font-family="Helvetica,sans-Serif" font-size="11.00" fill="#000000">given_name</text>
<polygon fill="none" stroke="#000000" points="549,-257.2 549,-279.2 633,-279.2 633,-257.2 549,-257.2"/>
<text text-anchor="start" x="552" y="-264.9" font-family="Helvetica,sans-Serif" font-size="11.00" fill="#000000">varchar[255]</text>
<polygon fill="none" stroke="#000000" points="385,-235.2 385,-257.2 549,-257.2 549,-235.2 385,-235.2"/>
<text text-anchor="start" x="405" y="-242.3" font-family="Helvetica,sans-Serif" font-size="11.00" fill="#000000">honorific</text>
<polygon fill="none" stroke="#000000" points="549,-235.2 549,-257.2 633,-257.2 633,-235.2 549,-235.2"/>
<text text-anchor="start" x="552" y="-242.9" font-family="Helvetica,sans-Serif" font-size="11.00" fill="#000000">varchar[255]</text>
<polygon fill="none" stroke="#000000" points="385,-213.2 385,-235.2 549,-235.2 549,-213.2 385,-213.2"/>
<text text-anchor="start" x="405" y="-220.3" font-family="Helvetica,sans-Serif" font-size="11.00" fill="#000000">initials</text>
<polygon fill="none" stroke="#000000" points="549,-213.2 549,-235.2 633,-235.2 633,-213.2 549,-213.2"/>
<text text-anchor="start" x="552" y="-220.9" font-family="Helvetica,sans-Serif" font-size="11.00" fill="#000000">varchar[255]</text>
<polygon fill="none" stroke="#000000" points="385,-191.2 385,-213.2 549,-213.2 549,-191.2 385,-191.2"/>
<text text-anchor="start" x="405" y="-198.3" font-family="Helvetica,sans-Serif" font-size="11.00" fill="#000000">middle_name</text>
<polygon fill="none" stroke="#000000" points="549,-191.2 549,-213.2 633,-213.2 633,-191.2 549,-191.2"/>
<text text-anchor="start" x="552" y="-198.9" font-family="Helvetica,sans-Serif" font-size="11.00" fill="#000000">varchar[255]</text>
<polygon fill="none" stroke="#000000" points="385,-169.2 385,-191.2 549,-191.2 549,-169.2 385,-169.2"/>
<text text-anchor="start" x="405" y="-176.3" font-family="Helvetica,sans-Serif" font-size="11.00" fill="#000000">preferred_family_name</text>
<polygon fill="none" stroke="#000000" points="549,-169.2 549,-191.2 633,-191.2 633,-169.2 549,-169.2"/>
<text text-anchor="start" x="552" y="-176.9" font-family="Helvetica,sans-Serif" font-size="11.00" fill="#000000">varchar[255]</text>
<polygon fill="none" stroke="#000000" points="385,-147.2 385,-169.2 549,-169.2 549,-147.2 385,-147.2"/>
<text text-anchor="start" x="405" y="-154.3" font-family="Helvetica,sans-Serif" font-size="11.00" fill="#000000">preferred_given_name</text>
<polygon fill="none" stroke="#000000" points="549,-147.2 549,-169.2 633,-169.2 633,-147.2 549,-147.2"/>
<text text-anchor="start" x="552" y="-154.9" font-family="Helvetica,sans-Serif" font-size="11.00" fill="#000000">varchar[255]</text>
<polygon fill="none" stroke="#000000" points="385,-125.2 385,-147.2 549,-147.2 549,-125.2 385,-125.2"/>
<text text-anchor="start" x="405" y="-132.3" font-family="Helvetica,sans-Serif" font-size="11.00" fill="#000000">preferred_name</text>
<polygon fill="none" stroke="#000000" points="549,-125.2 549,-147.2 633,-147.2 633,-125.2 549,-125.2"/>
<text text-anchor="start" x="552" y="-132.9" font-family="Helvetica,sans-Serif" font-size="11.00" fill="#000000">varchar[255]</text>
<polygon fill="none" stroke="#000000" points="385,-103.2 385,-125.2 549,-125.2 549,-103.2 385,-103.2"/>
<text text-anchor="start" x="405" y="-110.3" font-family="Helvetica,sans-Serif" font-size="11.00" fill="#000000">salutation</text>
<polygon fill="none" stroke="#000000" points="549,-103.2 549,-125.2 633,-125.2 633,-103.2 549,-103.2"/>
<text text-anchor="start" x="552" y="-110.9" font-family="Helvetica,sans-Serif" font-size="11.00" fill="#000000">varchar[255]</text>
<polygon fill="none" stroke="#000000" points="385,-81.2 385,-103.2 549,-103.2 549,-81.2 385,-81.2"/>
<text text-anchor="start" x="405" y="-88.3" font-family="Helvetica,sans-Serif" font-size="11.00" fill="#000000">title</text>
<polygon fill="none" stroke="#000000" points="549,-81.2 549,-103.2 633,-103.2 633,-81.2 549,-81.2"/>
<text text-anchor="start" x="552" y="-88.9" font-family="Helvetica,sans-Serif" font-size="11.00" fill="#000000">varchar[255]</text>
<polygon fill="none" stroke="#000000" points="385,-59.2 385,-81.2 549,-81.2 549,-59.2 385,-59.2"/>
<text text-anchor="start" x="405" y="-66.3" font-family="Helvetica,sans-Serif" font-size="11.00" fill="#000000">type</text>
<polygon fill="none" stroke="#000000" points="549,-59.2 549,-81.2 633,-81.2 633,-59.2 549,-59.2"/>
<text text-anchor="start" x="552" y="-66.9" font-family="Helvetica,sans-Serif" font-size="11.00" fill="#000000">varchar[255]</text>
<polygon fill="#ffffff" stroke="transparent" points="385,-40.2 385,-59.2 633,-59.2 633,-40.2 385,-40.2"/>
<polygon fill="none" stroke="#000000" points="385,-40.2 385,-59.2 633,-59.2 633,-40.2 385,-40.2"/>
<polygon fill="#ffffff" stroke="transparent" points="386,-41.2 386,-58.2 471,-58.2 471,-41.2 386,-41.2"/>
<text text-anchor="start" x="388" y="-46.3" font-family="Helvetica,sans-Serif" font-size="11.00" fill="#000000">&lt; 1</text>
<polygon fill="#ffffff" stroke="transparent" points="471,-41.2 471,-58.2 547,-58.2 547,-41.2 471,-41.2"/>
<text text-anchor="start" x="505.9431" y="-46.3" font-family="Helvetica,sans-Serif" font-size="11.00" fill="#000000"> &#160;</text>
<polygon fill="#ffffff" stroke="transparent" points="547,-41.2 547,-58.2 632,-58.2 632,-41.2 547,-41.2"/>
<text text-anchor="start" x="614.4053" y="-46.3" font-family="Helvetica,sans-Serif" font-size="11.00" fill="#000000">0 &gt;</text>
<polygon fill="#000000" stroke="#000000" points="471,-41.2 471,-58.2 471,-58.2 471,-41.2 471,-41.2"/>
<polygon fill="#000000" stroke="#000000" points="547,-41.2 547,-58.2 547,-58.2 547,-41.2 547,-41.2"/>
<polygon fill="none" stroke="#000000" stroke-width="2" points="384,-39.2 384,-413.2 634,-413.2 634,-39.2 384,-39.2"/>
</a>
</g>
</g>
<!-- individual_name&#45;&gt;individual -->
<g id="edge2" class="edge">
<title>individual_name:w&#45;&gt;individual:e</title>
<path fill="none" stroke="#000000" d="M370.276,-334.2C358.2815,-334.2 350.8229,-334.2 334,-334.2"/>
<polygon fill="#000000" stroke="#000000" points="377,-334.2001 385,-337.8 381,-334.2 385,-334.2 385,-334.2 385,-334.2 381,-334.2 385,-330.6 377,-334.2001 377,-334.2001"/>
<ellipse fill="none" stroke="#000000" cx="373.8" cy="-334.2001" rx="3.2" ry="3.2"/>
</g>
</g>
</svg>
