<?xml version="1.0" encoding="UTF-8" standalone="no"?>
<!DOCTYPE svg PUBLIC "-//W3C//DTD SVG 1.1//EN"
 "http://www.w3.org/Graphics/SVG/1.1/DTD/svg11.dtd">
<!-- Generated by graphviz version 2.40.1 (20161225.0304)
 -->
<!-- Title: oneDegreeRelationshipsDiagram Pages: 1 -->
<svg width="523pt" height="426pt"
 viewBox="0.00 0.00 523.00 426.20" xmlns="http://www.w3.org/2000/svg" xmlns:xlink="http://www.w3.org/1999/xlink">
<g id="graph0" class="graph" transform="scale(1 1) rotate(0) translate(4 422.2)">
<title>oneDegreeRelationshipsDiagram</title>
<polygon fill="#ffffff" stroke="transparent" points="-4,4 -4,-422.2 519,-422.2 519,4 -4,4"/>
<text text-anchor="middle" x="72.4936" y="-7.3" font-family="Helvetica,sans-Serif" font-size="11.00" fill="#000000">Generated by SchemaSpy</text>
<!-- individual_name -->
<g id="node1" class="node">
<title>individual_name</title>
<g id="a_node1"><a xlink:href="../../tables/individual_name.html" xlink:title="individual_name" target="_top">
<polygon fill="#ffffff" stroke="transparent" points="255,-38.2 255,-414.2 507,-414.2 507,-38.2 255,-38.2"/>
<polygon fill="#f5f5f5" stroke="transparent" points="257,-389.2 257,-412.2 505,-412.2 505,-389.2 257,-389.2"/>
<polygon fill="none" stroke="#000000" points="257,-389.2 257,-412.2 505,-412.2 505,-389.2 257,-389.2"/>
<text text-anchor="start" x="262" y="-397.8" font-family="Helvetica,sans-Serif" font-weight="bold" font-size="11.00" fill="#000000">individual_name</text>
<text text-anchor="start" x="470.0437" y="-397.3" font-family="Helvetica,sans-Serif" font-size="11.00" fill="#000000">[table]</text>
<polygon fill="none" stroke="#000000" points="257,-367.2 257,-389.2 421,-389.2 421,-367.2 257,-367.2"/>
<text text-anchor="start" x="277" y="-374.3" font-family="Helvetica,sans-Serif" font-size="11.00" fill="#000000">from_date</text>
<polygon fill="none" stroke="#000000" points="421,-367.2 421,-389.2 505,-389.2 505,-367.2 421,-367.2"/>
<text text-anchor="start" x="423.8807" y="-374.9" font-family="Helvetica,sans-Serif" font-size="11.00" fill="#000000">timestamp[29,6]</text>
<polygon fill="none" stroke="#000000" points="257,-345.2 257,-367.2 421,-367.2 421,-345.2 257,-345.2"/>
<image xlink:href="../../images/primaryKeys.png" width="11px" height="12px" preserveAspectRatio="xMinYMin meet" x="262" y="-362.2"/>
<text text-anchor="start" x="277" y="-352.3" font-family="Helvetica,sans-Serif" font-size="11.00" fill="#000000">id</text>
<polygon fill="none" stroke="#000000" points="421,-345.2 421,-367.2 505,-367.2 505,-345.2 421,-345.2"/>
<text text-anchor="start" x="424" y="-352.9" font-family="Helvetica,sans-Serif" font-size="11.00" fill="#000000">int8[19]</text>
<polygon fill="none" stroke="#000000" points="257,-323.2 257,-345.2 421,-345.2 421,-323.2 257,-323.2"/>
<image xlink:href="../../images/foreignKeys.png" width="11px" height="12px" preserveAspectRatio="xMinYMin meet" x="262" y="-340.2"/>
<text text-anchor="start" x="277" y="-330.3" font-family="Helvetica,sans-Serif" font-size="11.00" fill="#000000">individual_id</text>
<polygon fill="none" stroke="#000000" points="421,-323.2 421,-345.2 505,-345.2 505,-323.2 421,-323.2"/>
<text text-anchor="start" x="424" y="-330.9" font-family="Helvetica,sans-Serif" font-size="11.00" fill="#000000">int8[19]</text>
<polygon fill="none" stroke="#000000" points="257,-301.2 257,-323.2 421,-323.2 421,-301.2 257,-301.2"/>
<text text-anchor="start" x="277" y="-308.3" font-family="Helvetica,sans-Serif" font-size="11.00" fill="#000000">to_date</text>
<polygon fill="none" stroke="#000000" points="421,-301.2 421,-323.2 505,-323.2 505,-301.2 421,-301.2"/>
<text text-anchor="start" x="423.8807" y="-308.9" font-family="Helvetica,sans-Serif" font-size="11.00" fill="#000000">timestamp[29,6]</text>
<polygon fill="none" stroke="#000000" points="257,-279.2 257,-301.2 421,-301.2 421,-279.2 257,-279.2"/>
<text text-anchor="start" x="277" y="-286.3" font-family="Helvetica,sans-Serif" font-size="11.00" fill="#000000">family_name</text>
<polygon fill="none" stroke="#000000" points="421,-279.2 421,-301.2 505,-301.2 505,-279.2 421,-279.2"/>
<text text-anchor="start" x="424" y="-286.9" font-family="Helvetica,sans-Serif" font-size="11.00" fill="#000000">varchar[255]</text>
<polygon fill="none" stroke="#000000" points="257,-257.2 257,-279.2 421,-279.2 421,-257.2 257,-257.2"/>
<text text-anchor="start" x="277" y="-264.3" font-family="Helvetica,sans-Serif" font-size="11.00" fill="#000000">given_name</text>
<polygon fill="none" stroke="#000000" points="421,-257.2 421,-279.2 505,-279.2 505,-257.2 421,-257.2"/>
<text text-anchor="start" x="424" y="-264.9" font-family="Helvetica,sans-Serif" font-size="11.00" fill="#000000">varchar[255]</text>
<polygon fill="none" stroke="#000000" points="257,-235.2 257,-257.2 421,-257.2 421,-235.2 257,-235.2"/>
<text text-anchor="start" x="277" y="-242.3" font-family="Helvetica,sans-Serif" font-size="11.00" fill="#000000">honorific</text>
<polygon fill="none" stroke="#000000" points="421,-235.2 421,-257.2 505,-257.2 505,-235.2 421,-235.2"/>
<text text-anchor="start" x="424" y="-242.9" font-family="Helvetica,sans-Serif" font-size="11.00" fill="#000000">varchar[255]</text>
<polygon fill="none" stroke="#000000" points="257,-213.2 257,-235.2 421,-235.2 421,-213.2 257,-213.2"/>
<text text-anchor="start" x="277" y="-220.3" font-family="Helvetica,sans-Serif" font-size="11.00" fill="#000000">initials</text>
<polygon fill="none" stroke="#000000" points="421,-213.2 421,-235.2 505,-235.2 505,-213.2 421,-213.2"/>
<text text-anchor="start" x="424" y="-220.9" font-family="Helvetica,sans-Serif" font-size="11.00" fill="#000000">varchar[255]</text>
<polygon fill="none" stroke="#000000" points="257,-191.2 257,-213.2 421,-213.2 421,-191.2 257,-191.2"/>
<text text-anchor="start" x="277" y="-198.3" font-family="Helvetica,sans-Serif" font-size="11.00" fill="#000000">middle_name</text>
<polygon fill="none" stroke="#000000" points="421,-191.2 421,-213.2 505,-213.2 505,-191.2 421,-191.2"/>
<text text-anchor="start" x="424" y="-198.9" font-family="Helvetica,sans-Serif" font-size="11.00" fill="#000000">varchar[255]</text>
<polygon fill="none" stroke="#000000" points="257,-169.2 257,-191.2 421,-191.2 421,-169.2 257,-169.2"/>
<text text-anchor="start" x="277" y="-176.3" font-family="Helvetica,sans-Serif" font-size="11.00" fill="#000000">preferred_family_name</text>
<polygon fill="none" stroke="#000000" points="421,-169.2 421,-191.2 505,-191.2 505,-169.2 421,-169.2"/>
<text text-anchor="start" x="424" y="-176.9" font-family="Helvetica,sans-Serif" font-size="11.00" fill="#000000">varchar[255]</text>
<polygon fill="none" stroke="#000000" points="257,-147.2 257,-169.2 421,-169.2 421,-147.2 257,-147.2"/>
<text text-anchor="start" x="277" y="-154.3" font-family="Helvetica,sans-Serif" font-size="11.00" fill="#000000">preferred_given_name</text>
<polygon fill="none" stroke="#000000" points="421,-147.2 421,-169.2 505,-169.2 505,-147.2 421,-147.2"/>
<text text-anchor="start" x="424" y="-154.9" font-family="Helvetica,sans-Serif" font-size="11.00" fill="#000000">varchar[255]</text>
<polygon fill="none" stroke="#000000" points="257,-125.2 257,-147.2 421,-147.2 421,-125.2 257,-125.2"/>
<text text-anchor="start" x="277" y="-132.3" font-family="Helvetica,sans-Serif" font-size="11.00" fill="#000000">preferred_name</text>
<polygon fill="none" stroke="#000000" points="421,-125.2 421,-147.2 505,-147.2 505,-125.2 421,-125.2"/>
<text text-anchor="start" x="424" y="-132.9" font-family="Helvetica,sans-Serif" font-size="11.00" fill="#000000">varchar[255]</text>
<polygon fill="none" stroke="#000000" points="257,-103.2 257,-125.2 421,-125.2 421,-103.2 257,-103.2"/>
<text text-anchor="start" x="277" y="-110.3" font-family="Helvetica,sans-Serif" font-size="11.00" fill="#000000">salutation</text>
<polygon fill="none" stroke="#000000" points="421,-103.2 421,-125.2 505,-125.2 505,-103.2 421,-103.2"/>
<text text-anchor="start" x="424" y="-110.9" font-family="Helvetica,sans-Serif" font-size="11.00" fill="#000000">varchar[255]</text>
<polygon fill="none" stroke="#000000" points="257,-81.2 257,-103.2 421,-103.2 421,-81.2 257,-81.2"/>
<text text-anchor="start" x="277" y="-88.3" font-family="Helvetica,sans-Serif" font-size="11.00" fill="#000000">title</text>
<polygon fill="none" stroke="#000000" points="421,-81.2 421,-103.2 505,-103.2 505,-81.2 421,-81.2"/>
<text text-anchor="start" x="424" y="-88.9" font-family="Helvetica,sans-Serif" font-size="11.00" fill="#000000">varchar[255]</text>
<polygon fill="none" stroke="#000000" points="257,-59.2 257,-81.2 421,-81.2 421,-59.2 257,-59.2"/>
<text text-anchor="start" x="277" y="-66.3" font-family="Helvetica,sans-Serif" font-size="11.00" fill="#000000">type</text>
<polygon fill="none" stroke="#000000" points="421,-59.2 421,-81.2 505,-81.2 505,-59.2 421,-59.2"/>
<text text-anchor="start" x="424" y="-66.9" font-family="Helvetica,sans-Serif" font-size="11.00" fill="#000000">varchar[255]</text>
<polygon fill="#ffffff" stroke="transparent" points="257,-40.2 257,-59.2 505,-59.2 505,-40.2 257,-40.2"/>
<polygon fill="none" stroke="#000000" points="257,-40.2 257,-59.2 505,-59.2 505,-40.2 257,-40.2"/>
<polygon fill="#ffffff" stroke="transparent" points="258,-41.2 258,-58.2 343,-58.2 343,-41.2 258,-41.2"/>
<text text-anchor="start" x="260" y="-46.3" font-family="Helvetica,sans-Serif" font-size="11.00" fill="#000000">&lt; 1</text>
<polygon fill="#ffffff" stroke="transparent" points="343,-41.2 343,-58.2 419,-58.2 419,-41.2 343,-41.2"/>
<text text-anchor="start" x="377.9431" y="-46.3" font-family="Helvetica,sans-Serif" font-size="11.00" fill="#000000"> &#160;</text>
<polygon fill="#ffffff" stroke="transparent" points="419,-41.2 419,-58.2 504,-58.2 504,-41.2 419,-41.2"/>
<text text-anchor="start" x="486.4053" y="-46.3" font-family="Helvetica,sans-Serif" font-size="11.00" fill="#000000">0 &gt;</text>
<polygon fill="#000000" stroke="#000000" points="343,-41.2 343,-58.2 343,-58.2 343,-41.2 343,-41.2"/>
<polygon fill="#000000" stroke="#000000" points="419,-41.2 419,-58.2 419,-58.2 419,-41.2 419,-41.2"/>
<polygon fill="none" stroke="#000000" stroke-width="2" points="256,-39.2 256,-413.2 506,-413.2 506,-39.2 256,-39.2"/>
</a>
</g>
</g>
<!-- individual -->
<g id="node2" class="node">
<title>individual</title>
<g id="a_node2"><a xlink:href="../../tables/individual.html" xlink:title="individual" target="_top">
<polygon fill="#ffffff" stroke="transparent" points="8,-263.7 8,-368.7 206,-368.7 206,-263.7 8,-263.7"/>
<polygon fill="#f5f5f5" stroke="transparent" points="8,-345.2 8,-368.2 206,-368.2 206,-345.2 8,-345.2"/>
<polygon fill="none" stroke="#000000" points="8,-345.2 8,-368.2 206,-368.2 206,-345.2 8,-345.2"/>
<text text-anchor="start" x="13" y="-353.8" font-family="Helvetica,sans-Serif" font-weight="bold" font-size="11.00" fill="#000000">individual</text>
<text text-anchor="start" x="171.0437" y="-353.3" font-family="Helvetica,sans-Serif" font-size="11.00" fill="#000000">[table]</text>
<polygon fill="none" stroke="#000000" points="8,-323.2 8,-345.2 206,-345.2 206,-323.2 8,-323.2"/>
<image xlink:href="../../images/primaryKeys.png" width="11px" height="12px" preserveAspectRatio="xMinYMin meet" x="13" y="-340.2"/>
<text text-anchor="start" x="28" y="-330.3" font-family="Helvetica,sans-Serif" font-size="11.00" fill="#000000">party_id</text>
<polygon fill="#ffffff" stroke="transparent" points="8,-301.2 8,-323.2 206,-323.2 206,-301.2 8,-301.2"/>
<polygon fill="none" stroke="#000000" points="8,-301.2 8,-323.2 206,-323.2 206,-301.2 8,-301.2"/>
<text text-anchor="start" x="28" y="-308.3" font-family="Helvetica,sans-Serif" font-size="11.00" fill="#000000">family_name</text>
<polygon fill="none" stroke="#000000" points="8,-282.2 8,-301.2 206,-301.2 206,-282.2 8,-282.2"/>
<text text-anchor="start" x="11" y="-288.3" font-family="Helvetica,sans-Serif" font-size="11.00" fill="#000000">...</text>
<polygon fill="#ffffff" stroke="transparent" points="8,-263.2 8,-282.2 206,-282.2 206,-263.2 8,-263.2"/>
<polygon fill="none" stroke="#000000" points="8,-263.2 8,-282.2 206,-282.2 206,-263.2 8,-263.2"/>
<polygon fill="#ffffff" stroke="transparent" points="9,-264.2 9,-281.2 65,-281.2 65,-264.2 9,-264.2"/>
<text text-anchor="start" x="11" y="-269.3" font-family="Helvetica,sans-Serif" font-size="11.00" fill="#000000">&lt; 1</text>
<polygon fill="#ffffff" stroke="transparent" points="65,-264.2 65,-281.2 150,-281.2 150,-264.2 65,-264.2"/>
<text text-anchor="start" x="85.1904" y="-269.3" font-family="Helvetica,sans-Serif" font-size="11.00" fill="#000000">231 rows</text>
<polygon fill="#ffffff" stroke="transparent" points="150,-264.2 150,-281.2 205,-281.2 205,-264.2 150,-264.2"/>
<text text-anchor="start" x="187.4053" y="-269.3" font-family="Helvetica,sans-Serif" font-size="11.00" fill="#000000">1 &gt;</text>
<polygon fill="#000000" stroke="#000000" points="65,-264.2 65,-281.2 65,-281.2 65,-264.2 65,-264.2"/>
<polygon fill="#000000" stroke="#000000" points="150,-264.2 150,-281.2 150,-281.2 150,-264.2 150,-264.2"/>
</a>
</g>
</g>
<!-- individual_name&#45;&gt;individual -->
<g id="edge1" class="edge">
<title>individual_name:w&#45;&gt;individual:e</title>
<path fill="none" stroke="#000000" d="M242.276,-334.2C230.2815,-334.2 222.8229,-334.2 206,-334.2"/>
<polygon fill="#000000" stroke="#000000" points="249,-334.2001 257,-337.8 253,-334.2 257,-334.2 257,-334.2 257,-334.2 253,-334.2 257,-330.6 249,-334.2001 249,-334.2001"/>
<ellipse fill="none" stroke="#000000" cx="245.8" cy="-334.2001" rx="3.2" ry="3.2"/>
</g>
</g>
</svg>
