<?xml version="1.0" encoding="UTF-8" standalone="no"?>
<!DOCTYPE svg PUBLIC "-//W3C//DTD SVG 1.1//EN"
 "http://www.w3.org/Graphics/SVG/1.1/DTD/svg11.dtd">
<!-- Generated by graphviz version 2.40.1 (20161225.0304)
 -->
<!-- Title: oneDegreeRelationshipsDiagram Pages: 1 -->
<svg width="661pt" height="624pt"
 viewBox="0.00 0.00 661.00 624.20" xmlns="http://www.w3.org/2000/svg" xmlns:xlink="http://www.w3.org/1999/xlink">
<g id="graph0" class="graph" transform="scale(1 1) rotate(0) translate(4 620.2)">
<title>oneDegreeRelationshipsDiagram</title>
<polygon fill="#ffffff" stroke="transparent" points="-4,4 -4,-620.2 657,-620.2 657,4 -4,4"/>
<text text-anchor="middle" x="72.4936" y="-7.3" font-family="Helvetica,sans-Serif" font-size="11.00" fill="#000000">Generated by SchemaSpy</text>
<!-- individual -->
<g id="node1" class="node">
<title>individual</title>
<g id="a_node1"><a xlink:href="../../tables/individual.html" xlink:title="individual" target="_top">
<polygon fill="#ffffff" stroke="transparent" points="163,-38.2 163,-612.2 432,-612.2 432,-38.2 163,-38.2"/>
<polygon fill="#f5f5f5" stroke="transparent" points="165.5,-587.2 165.5,-610.2 430.5,-610.2 430.5,-587.2 165.5,-587.2"/>
<polygon fill="none" stroke="#000000" points="165.5,-587.2 165.5,-610.2 430.5,-610.2 430.5,-587.2 165.5,-587.2"/>
<text text-anchor="start" x="170.5" y="-595.8" font-family="Helvetica,sans-Serif" font-weight="bold" font-size="11.00" fill="#000000">individual</text>
<text text-anchor="start" x="395.5437" y="-595.3" font-family="Helvetica,sans-Serif" font-size="11.00" fill="#000000">[table]</text>
<polygon fill="none" stroke="#000000" points="165.5,-565.2 165.5,-587.2 363.5,-587.2 363.5,-565.2 165.5,-565.2"/>
<text text-anchor="start" x="185.5" y="-572.3" font-family="Helvetica,sans-Serif" font-size="11.00" fill="#000000">date_of_birth</text>
<polygon fill="none" stroke="#000000" points="363.5,-565.2 363.5,-587.2 430.5,-587.2 430.5,-565.2 363.5,-565.2"/>
<text text-anchor="start" x="366.5" y="-572.9" font-family="Helvetica,sans-Serif" font-size="11.00" fill="#000000">date[13]</text>
<polygon fill="none" stroke="#000000" points="165.5,-543.2 165.5,-565.2 363.5,-565.2 363.5,-543.2 165.5,-543.2"/>
<text text-anchor="start" x="185.5" y="-550.3" font-family="Helvetica,sans-Serif" font-size="11.00" fill="#000000">date_of_death</text>
<polygon fill="none" stroke="#000000" points="363.5,-543.2 363.5,-565.2 430.5,-565.2 430.5,-543.2 363.5,-543.2"/>
<text text-anchor="start" x="366.5" y="-550.9" font-family="Helvetica,sans-Serif" font-size="11.00" fill="#000000">date[13]</text>
<polygon fill="none" stroke="#000000" points="165.5,-521.2 165.5,-543.2 363.5,-543.2 363.5,-521.2 165.5,-521.2"/>
<image xlink:href="../../images/primaryKeys.png" width="11px" height="12px" preserveAspectRatio="xMinYMin meet" x="170.5" y="-538.2"/>
<text text-anchor="start" x="185.5" y="-528.3" font-family="Helvetica,sans-Serif" font-size="11.00" fill="#000000">party_id</text>
<polygon fill="none" stroke="#000000" points="363.5,-521.2 363.5,-543.2 430.5,-543.2 430.5,-521.2 363.5,-521.2"/>
<text text-anchor="start" x="366.5" y="-528.9" font-family="Helvetica,sans-Serif" font-size="11.00" fill="#000000">int8[19]</text>
<polygon fill="none" stroke="#000000" points="165.5,-499.2 165.5,-521.2 363.5,-521.2 363.5,-499.2 165.5,-499.2"/>
<text text-anchor="start" x="185.5" y="-506.3" font-family="Helvetica,sans-Serif" font-size="11.00" fill="#000000">country_of_birth</text>
<polygon fill="none" stroke="#000000" points="363.5,-499.2 363.5,-521.2 430.5,-521.2 430.5,-499.2 363.5,-499.2"/>
<text text-anchor="start" x="366.4365" y="-506.9" font-family="Helvetica,sans-Serif" font-size="11.00" fill="#000000">varchar[255]</text>
<polygon fill="none" stroke="#000000" points="165.5,-477.2 165.5,-499.2 363.5,-499.2 363.5,-477.2 165.5,-477.2"/>
<text text-anchor="start" x="185.5" y="-484.3" font-family="Helvetica,sans-Serif" font-size="11.00" fill="#000000">country_of_death</text>
<polygon fill="none" stroke="#000000" points="363.5,-477.2 363.5,-499.2 430.5,-499.2 430.5,-477.2 363.5,-477.2"/>
<text text-anchor="start" x="366.4365" y="-484.9" font-family="Helvetica,sans-Serif" font-size="11.00" fill="#000000">varchar[255]</text>
<polygon fill="none" stroke="#000000" points="165.5,-455.2 165.5,-477.2 363.5,-477.2 363.5,-455.2 165.5,-455.2"/>
<text text-anchor="start" x="185.5" y="-462.3" font-family="Helvetica,sans-Serif" font-size="11.00" fill="#000000">electorate</text>
<polygon fill="none" stroke="#000000" points="363.5,-455.2 363.5,-477.2 430.5,-477.2 430.5,-455.2 363.5,-455.2"/>
<text text-anchor="start" x="366.4365" y="-462.9" font-family="Helvetica,sans-Serif" font-size="11.00" fill="#000000">varchar[255]</text>
<polygon fill="none" stroke="#000000" points="165.5,-433.2 165.5,-455.2 363.5,-455.2 363.5,-433.2 165.5,-433.2"/>
<text text-anchor="start" x="185.5" y="-440.3" font-family="Helvetica,sans-Serif" font-size="11.00" fill="#000000">email</text>
<polygon fill="none" stroke="#000000" points="363.5,-433.2 363.5,-455.2 430.5,-455.2 430.5,-433.2 363.5,-433.2"/>
<text text-anchor="start" x="366.4365" y="-440.9" font-family="Helvetica,sans-Serif" font-size="11.00" fill="#000000">varchar[255]</text>
<polygon fill="#ffffff" stroke="transparent" points="165.5,-411.2 165.5,-433.2 363.5,-433.2 363.5,-411.2 165.5,-411.2"/>
<polygon fill="none" stroke="#000000" points="165.5,-411.2 165.5,-433.2 363.5,-433.2 363.5,-411.2 165.5,-411.2"/>
<text text-anchor="start" x="185.5" y="-418.3" font-family="Helvetica,sans-Serif" font-size="11.00" fill="#000000">family_name</text>
<polygon fill="none" stroke="#000000" points="363.5,-411.2 363.5,-433.2 430.5,-433.2 430.5,-411.2 363.5,-411.2"/>
<text text-anchor="start" x="366.4365" y="-418.9" font-family="Helvetica,sans-Serif" font-size="11.00" fill="#000000">varchar[255]</text>
<polygon fill="none" stroke="#000000" points="165.5,-389.2 165.5,-411.2 363.5,-411.2 363.5,-389.2 165.5,-389.2"/>
<text text-anchor="start" x="185.5" y="-396.3" font-family="Helvetica,sans-Serif" font-size="11.00" fill="#000000">gender</text>
<polygon fill="none" stroke="#000000" points="363.5,-389.2 363.5,-411.2 430.5,-411.2 430.5,-389.2 363.5,-389.2"/>
<text text-anchor="start" x="366.4365" y="-396.9" font-family="Helvetica,sans-Serif" font-size="11.00" fill="#000000">varchar[255]</text>
<polygon fill="none" stroke="#000000" points="165.5,-367.2 165.5,-389.2 363.5,-389.2 363.5,-367.2 165.5,-367.2"/>
<text text-anchor="start" x="185.5" y="-374.3" font-family="Helvetica,sans-Serif" font-size="11.00" fill="#000000">given_name</text>
<polygon fill="none" stroke="#000000" points="363.5,-367.2 363.5,-389.2 430.5,-389.2 430.5,-367.2 363.5,-367.2"/>
<text text-anchor="start" x="366.4365" y="-374.9" font-family="Helvetica,sans-Serif" font-size="11.00" fill="#000000">varchar[255]</text>
<polygon fill="none" stroke="#000000" points="165.5,-345.2 165.5,-367.2 363.5,-367.2 363.5,-345.2 165.5,-345.2"/>
<text text-anchor="start" x="185.5" y="-352.3" font-family="Helvetica,sans-Serif" font-size="11.00" fill="#000000">honorific</text>
<polygon fill="none" stroke="#000000" points="363.5,-345.2 363.5,-367.2 430.5,-367.2 430.5,-345.2 363.5,-345.2"/>
<text text-anchor="start" x="366.4365" y="-352.9" font-family="Helvetica,sans-Serif" font-size="11.00" fill="#000000">varchar[255]</text>
<polygon fill="none" stroke="#000000" points="165.5,-323.2 165.5,-345.2 363.5,-345.2 363.5,-323.2 165.5,-323.2"/>
<text text-anchor="start" x="185.5" y="-330.3" font-family="Helvetica,sans-Serif" font-size="11.00" fill="#000000">initials</text>
<polygon fill="none" stroke="#000000" points="363.5,-323.2 363.5,-345.2 430.5,-345.2 430.5,-323.2 363.5,-323.2"/>
<text text-anchor="start" x="366.4365" y="-330.9" font-family="Helvetica,sans-Serif" font-size="11.00" fill="#000000">varchar[255]</text>
<polygon fill="none" stroke="#000000" points="165.5,-301.2 165.5,-323.2 363.5,-323.2 363.5,-301.2 165.5,-301.2"/>
<text text-anchor="start" x="185.5" y="-308.3" font-family="Helvetica,sans-Serif" font-size="11.00" fill="#000000">middle_name</text>
<polygon fill="none" stroke="#000000" points="363.5,-301.2 363.5,-323.2 430.5,-323.2 430.5,-301.2 363.5,-301.2"/>
<text text-anchor="start" x="366.4365" y="-308.9" font-family="Helvetica,sans-Serif" font-size="11.00" fill="#000000">varchar[255]</text>
<polygon fill="none" stroke="#000000" points="165.5,-279.2 165.5,-301.2 363.5,-301.2 363.5,-279.2 165.5,-279.2"/>
<text text-anchor="start" x="185.5" y="-286.3" font-family="Helvetica,sans-Serif" font-size="11.00" fill="#000000">phone_number</text>
<polygon fill="none" stroke="#000000" points="363.5,-279.2 363.5,-301.2 430.5,-301.2 430.5,-279.2 363.5,-279.2"/>
<text text-anchor="start" x="366.4365" y="-286.9" font-family="Helvetica,sans-Serif" font-size="11.00" fill="#000000">varchar[255]</text>
<polygon fill="none" stroke="#000000" points="165.5,-257.2 165.5,-279.2 363.5,-279.2 363.5,-257.2 165.5,-257.2"/>
<text text-anchor="start" x="185.5" y="-264.3" font-family="Helvetica,sans-Serif" font-size="11.00" fill="#000000">photo_url</text>
<polygon fill="none" stroke="#000000" points="363.5,-257.2 363.5,-279.2 430.5,-279.2 430.5,-257.2 363.5,-257.2"/>
<text text-anchor="start" x="366.4365" y="-264.9" font-family="Helvetica,sans-Serif" font-size="11.00" fill="#000000">varchar[255]</text>
<polygon fill="none" stroke="#000000" points="165.5,-235.2 165.5,-257.2 363.5,-257.2 363.5,-235.2 165.5,-235.2"/>
<text text-anchor="start" x="185.5" y="-242.3" font-family="Helvetica,sans-Serif" font-size="11.00" fill="#000000">place_of_birth</text>
<polygon fill="none" stroke="#000000" points="363.5,-235.2 363.5,-257.2 430.5,-257.2 430.5,-235.2 363.5,-235.2"/>
<text text-anchor="start" x="366.4365" y="-242.9" font-family="Helvetica,sans-Serif" font-size="11.00" fill="#000000">varchar[255]</text>
<polygon fill="none" stroke="#000000" points="165.5,-213.2 165.5,-235.2 363.5,-235.2 363.5,-213.2 165.5,-213.2"/>
<text text-anchor="start" x="185.5" y="-220.3" font-family="Helvetica,sans-Serif" font-size="11.00" fill="#000000">place_of_death</text>
<polygon fill="none" stroke="#000000" points="363.5,-213.2 363.5,-235.2 430.5,-235.2 430.5,-213.2 363.5,-213.2"/>
<text text-anchor="start" x="366.4365" y="-220.9" font-family="Helvetica,sans-Serif" font-size="11.00" fill="#000000">varchar[255]</text>
<polygon fill="none" stroke="#000000" points="165.5,-191.2 165.5,-213.2 363.5,-213.2 363.5,-191.2 165.5,-191.2"/>
<text text-anchor="start" x="185.5" y="-198.3" font-family="Helvetica,sans-Serif" font-size="11.00" fill="#000000">preferred_family_name</text>
<polygon fill="none" stroke="#000000" points="363.5,-191.2 363.5,-213.2 430.5,-213.2 430.5,-191.2 363.5,-191.2"/>
<text text-anchor="start" x="366.4365" y="-198.9" font-family="Helvetica,sans-Serif" font-size="11.00" fill="#000000">varchar[255]</text>
<polygon fill="none" stroke="#000000" points="165.5,-169.2 165.5,-191.2 363.5,-191.2 363.5,-169.2 165.5,-169.2"/>
<text text-anchor="start" x="185.5" y="-176.3" font-family="Helvetica,sans-Serif" font-size="11.00" fill="#000000">preferred_given_name</text>
<polygon fill="none" stroke="#000000" points="363.5,-169.2 363.5,-191.2 430.5,-191.2 430.5,-169.2 363.5,-169.2"/>
<text text-anchor="start" x="366.4365" y="-176.9" font-family="Helvetica,sans-Serif" font-size="11.00" fill="#000000">varchar[255]</text>
<polygon fill="none" stroke="#000000" points="165.5,-147.2 165.5,-169.2 363.5,-169.2 363.5,-147.2 165.5,-147.2"/>
<text text-anchor="start" x="185.5" y="-154.3" font-family="Helvetica,sans-Serif" font-size="11.00" fill="#000000">preferred_name</text>
<polygon fill="none" stroke="#000000" points="363.5,-147.2 363.5,-169.2 430.5,-169.2 430.5,-147.2 363.5,-147.2"/>
<text text-anchor="start" x="366.4365" y="-154.9" font-family="Helvetica,sans-Serif" font-size="11.00" fill="#000000">varchar[255]</text>
<polygon fill="none" stroke="#000000" points="165.5,-125.2 165.5,-147.2 363.5,-147.2 363.5,-125.2 165.5,-125.2"/>
<text text-anchor="start" x="185.5" y="-132.3" font-family="Helvetica,sans-Serif" font-size="11.00" fill="#000000">relationship_lifecycle_status</text>
<polygon fill="none" stroke="#000000" points="363.5,-125.2 363.5,-147.2 430.5,-147.2 430.5,-125.2 363.5,-125.2"/>
<text text-anchor="start" x="366.4365" y="-132.9" font-family="Helvetica,sans-Serif" font-size="11.00" fill="#000000">varchar[255]</text>
<polygon fill="none" stroke="#000000" points="165.5,-103.2 165.5,-125.2 363.5,-125.2 363.5,-103.2 165.5,-103.2"/>
<text text-anchor="start" x="185.5" y="-110.3" font-family="Helvetica,sans-Serif" font-size="11.00" fill="#000000">salutation</text>
<polygon fill="none" stroke="#000000" points="363.5,-103.2 363.5,-125.2 430.5,-125.2 430.5,-103.2 363.5,-103.2"/>
<text text-anchor="start" x="366.4365" y="-110.9" font-family="Helvetica,sans-Serif" font-size="11.00" fill="#000000">varchar[255]</text>
<polygon fill="none" stroke="#000000" points="165.5,-81.2 165.5,-103.2 363.5,-103.2 363.5,-81.2 165.5,-81.2"/>
<text text-anchor="start" x="185.5" y="-88.3" font-family="Helvetica,sans-Serif" font-size="11.00" fill="#000000">sex</text>
<polygon fill="none" stroke="#000000" points="363.5,-81.2 363.5,-103.2 430.5,-103.2 430.5,-81.2 363.5,-81.2"/>
<text text-anchor="start" x="366.4365" y="-88.9" font-family="Helvetica,sans-Serif" font-size="11.00" fill="#000000">varchar[255]</text>
<polygon fill="none" stroke="#000000" points="165.5,-59.2 165.5,-81.2 363.5,-81.2 363.5,-59.2 165.5,-59.2"/>
<text text-anchor="start" x="185.5" y="-66.3" font-family="Helvetica,sans-Serif" font-size="11.00" fill="#000000">title</text>
<polygon fill="none" stroke="#000000" points="363.5,-59.2 363.5,-81.2 430.5,-81.2 430.5,-59.2 363.5,-59.2"/>
<text text-anchor="start" x="366.4365" y="-66.9" font-family="Helvetica,sans-Serif" font-size="11.00" fill="#000000">varchar[255]</text>
<polygon fill="#ffffff" stroke="transparent" points="165.5,-40.2 165.5,-59.2 430.5,-59.2 430.5,-40.2 165.5,-40.2"/>
<polygon fill="none" stroke="#000000" points="165.5,-40.2 165.5,-59.2 430.5,-59.2 430.5,-40.2 165.5,-40.2"/>
<polygon fill="#ffffff" stroke="transparent" points="166.5,-41.2 166.5,-58.2 244.5,-58.2 244.5,-41.2 166.5,-41.2"/>
<text text-anchor="start" x="168.5" y="-46.3" font-family="Helvetica,sans-Serif" font-size="11.00" fill="#000000">&lt; 1</text>
<polygon fill="#ffffff" stroke="transparent" points="244.5,-41.2 244.5,-58.2 351.5,-58.2 351.5,-41.2 244.5,-41.2"/>
<text text-anchor="start" x="275.6904" y="-46.3" font-family="Helvetica,sans-Serif" font-size="11.00" fill="#000000">231 rows</text>
<polygon fill="#ffffff" stroke="transparent" points="351.5,-41.2 351.5,-58.2 429.5,-58.2 429.5,-41.2 351.5,-41.2"/>
<text text-anchor="start" x="411.9053" y="-46.3" font-family="Helvetica,sans-Serif" font-size="11.00" fill="#000000">1 &gt;</text>
<polygon fill="#000000" stroke="#000000" points="244.5,-41.2 244.5,-58.2 244.5,-58.2 244.5,-41.2 244.5,-41.2"/>
<polygon fill="#000000" stroke="#000000" points="351.5,-41.2 351.5,-58.2 351.5,-58.2 351.5,-41.2 351.5,-41.2"/>
<polygon fill="none" stroke="#000000" stroke-width="2" points="164,-39.2 164,-611.2 431,-611.2 431,-39.2 164,-39.2"/>
</a>
</g>
</g>
<!-- party -->
<g id="node2" class="node">
<title>party</title>
<g id="a_node2"><a xlink:href="../../tables/party.html" xlink:title="party" target="_top">
<polygon fill="#ffffff" stroke="transparent" points="8,-483.7 8,-566.7 114,-566.7 114,-483.7 8,-483.7"/>
<polygon fill="#f5f5f5" stroke="transparent" points="8,-543.2 8,-566.2 114,-566.2 114,-543.2 8,-543.2"/>
<polygon fill="none" stroke="#000000" points="8,-543.2 8,-566.2 114,-566.2 114,-543.2 8,-543.2"/>
<text text-anchor="start" x="13" y="-551.8" font-family="Helvetica,sans-Serif" font-weight="bold" font-size="11.00" fill="#000000">party</text>
<text text-anchor="start" x="79.0437" y="-551.3" font-family="Helvetica,sans-Serif" font-size="11.00" fill="#000000">[table]</text>
<polygon fill="none" stroke="#000000" points="8,-521.2 8,-543.2 114,-543.2 114,-521.2 8,-521.2"/>
<image xlink:href="../../images/primaryKeys.png" width="11px" height="12px" preserveAspectRatio="xMinYMin meet" x="13" y="-538.2"/>
<text text-anchor="start" x="28" y="-528.3" font-family="Helvetica,sans-Serif" font-size="11.00" fill="#000000">id</text>
<polygon fill="none" stroke="#000000" points="8,-502.2 8,-521.2 114,-521.2 114,-502.2 8,-502.2"/>
<text text-anchor="start" x="11" y="-508.3" font-family="Helvetica,sans-Serif" font-size="11.00" fill="#000000">...</text>
<polygon fill="#ffffff" stroke="transparent" points="8,-483.2 8,-502.2 114,-502.2 114,-483.2 8,-483.2"/>
<polygon fill="none" stroke="#000000" points="8,-483.2 8,-502.2 114,-502.2 114,-483.2 8,-483.2"/>
<polygon fill="#ffffff" stroke="transparent" points="9,-484.2 9,-501.2 28,-501.2 28,-484.2 9,-484.2"/>
<text text-anchor="start" x="11" y="-489.3" font-family="Helvetica,sans-Serif" font-size="11.00" fill="#000000"> &#160;</text>
<polygon fill="#ffffff" stroke="transparent" points="28,-484.2 28,-501.2 85,-501.2 85,-484.2 28,-484.2"/>
<text text-anchor="start" x="34.1903" y="-489.3" font-family="Helvetica,sans-Serif" font-size="11.00" fill="#000000">237 rows</text>
<polygon fill="#ffffff" stroke="transparent" points="85,-484.2 85,-501.2 113,-501.2 113,-484.2 85,-484.2"/>
<text text-anchor="start" x="95.4053" y="-489.3" font-family="Helvetica,sans-Serif" font-size="11.00" fill="#000000">4 &gt;</text>
<polygon fill="#000000" stroke="#000000" points="28,-484.2 28,-501.2 28,-501.2 28,-484.2 28,-484.2"/>
<polygon fill="#000000" stroke="#000000" points="85,-484.2 85,-501.2 85,-501.2 85,-484.2 85,-484.2"/>
</a>
</g>
</g>
<!-- individual&#45;&gt;party -->
<g id="edge1" class="edge">
<title>individual:w&#45;&gt;party:e</title>
<path fill="none" stroke="#000000" d="M155.045,-532.2C140.137,-532.2 132.9549,-532.2 114,-532.2"/>
<polygon fill="#000000" stroke="#000000" points="164.7,-528.2 164.7,-536.2 163.1,-536.2 163.1,-528.2 164.7,-528.2"/>
<polyline fill="none" stroke="#000000" points="165.5,-532.2 161.5,-532.2 "/>
<ellipse fill="none" stroke="#000000" cx="158.3" cy="-532.2001" rx="3.2" ry="3.2"/>
</g>
<!-- individual_name -->
<g id="node3" class="node">
<title>individual_name</title>
<g id="a_node3"><a xlink:href="../../tables/individual_name.html" xlink:title="individual_name" target="_top">
<polygon fill="#ffffff" stroke="transparent" points="481,-483.7 481,-588.7 645,-588.7 645,-483.7 481,-483.7"/>
<polygon fill="#f5f5f5" stroke="transparent" points="481,-565.2 481,-588.2 645,-588.2 645,-565.2 481,-565.2"/>
<polygon fill="none" stroke="#000000" points="481,-565.2 481,-588.2 645,-588.2 645,-565.2 481,-565.2"/>
<text text-anchor="start" x="486" y="-573.8" font-family="Helvetica,sans-Serif" font-weight="bold" font-size="11.00" fill="#000000">individual_name</text>
<text text-anchor="start" x="610.0437" y="-573.3" font-family="Helvetica,sans-Serif" font-size="11.00" fill="#000000">[table]</text>
<polygon fill="none" stroke="#000000" points="481,-543.2 481,-565.2 645,-565.2 645,-543.2 481,-543.2"/>
<image xlink:href="../../images/primaryKeys.png" width="11px" height="12px" preserveAspectRatio="xMinYMin meet" x="486" y="-560.2"/>
<text text-anchor="start" x="501" y="-550.3" font-family="Helvetica,sans-Serif" font-size="11.00" fill="#000000">id</text>
<polygon fill="none" stroke="#000000" points="481,-521.2 481,-543.2 645,-543.2 645,-521.2 481,-521.2"/>
<image xlink:href="../../images/foreignKeys.png" width="11px" height="12px" preserveAspectRatio="xMinYMin meet" x="486" y="-538.2"/>
<text text-anchor="start" x="501" y="-528.3" font-family="Helvetica,sans-Serif" font-size="11.00" fill="#000000">individual_id</text>
<polygon fill="none" stroke="#000000" points="481,-502.2 481,-521.2 645,-521.2 645,-502.2 481,-502.2"/>
<text text-anchor="start" x="484" y="-508.3" font-family="Helvetica,sans-Serif" font-size="11.00" fill="#000000">...</text>
<polygon fill="#ffffff" stroke="transparent" points="481,-483.2 481,-502.2 645,-502.2 645,-483.2 481,-483.2"/>
<polygon fill="none" stroke="#000000" points="481,-483.2 481,-502.2 645,-502.2 645,-483.2 481,-483.2"/>
<polygon fill="#ffffff" stroke="transparent" points="482,-484.2 482,-501.2 542,-501.2 542,-484.2 482,-484.2"/>
<text text-anchor="start" x="484" y="-489.3" font-family="Helvetica,sans-Serif" font-size="11.00" fill="#000000">&lt; 1</text>
<polygon fill="#ffffff" stroke="transparent" points="542,-484.2 542,-501.2 593,-501.2 593,-484.2 542,-484.2"/>
<text text-anchor="start" x="564.4431" y="-489.3" font-family="Helvetica,sans-Serif" font-size="11.00" fill="#000000"> &#160;</text>
<polygon fill="#ffffff" stroke="transparent" points="593,-484.2 593,-501.2 644,-501.2 644,-484.2 593,-484.2"/>
<text text-anchor="start" x="635.8862" y="-489.3" font-family="Helvetica,sans-Serif" font-size="11.00" fill="#000000"> &#160;</text>
<polygon fill="#000000" stroke="#000000" points="542,-484.2 542,-501.2 542,-501.2 542,-484.2 542,-484.2"/>
<polygon fill="#000000" stroke="#000000" points="593,-484.2 593,-501.2 593,-501.2 593,-484.2 593,-484.2"/>
</a>
</g>
</g>
<!-- individual_name&#45;&gt;individual -->
<g id="edge2" class="edge">
<title>individual_name:w&#45;&gt;individual:e</title>
<path fill="none" stroke="#000000" d="M466.4203,-532.2C454.5435,-532.2 447.158,-532.2 430.5,-532.2"/>
<polygon fill="#000000" stroke="#000000" points="473,-532.2001 481,-535.8 477,-532.2 481,-532.2 481,-532.2 481,-532.2 477,-532.2 481,-528.6 473,-532.2001 473,-532.2001"/>
<ellipse fill="none" stroke="#000000" cx="469.8" cy="-532.2001" rx="3.2" ry="3.2"/>
</g>
</g>
</svg>
