<?xml version="1.0" encoding="UTF-8" standalone="no"?>
<!DOCTYPE svg PUBLIC "-//W3C//DTD SVG 1.1//EN"
 "http://www.w3.org/Graphics/SVG/1.1/DTD/svg11.dtd">
<!-- Generated by graphviz version 2.40.1 (20161225.0304)
 -->
<!-- Title: twoDegreesRelationshipsDiagram Pages: 1 -->
<svg width="661pt" height="871pt"
 viewBox="0.00 0.00 661.00 870.70" xmlns="http://www.w3.org/2000/svg" xmlns:xlink="http://www.w3.org/1999/xlink">
<g id="graph0" class="graph" transform="scale(1 1) rotate(0) translate(4 866.7)">
<title>twoDegreesRelationshipsDiagram</title>
<polygon fill="#ffffff" stroke="transparent" points="-4,4 -4,-866.7 657,-866.7 657,4 -4,4"/>
<text text-anchor="middle" x="72.4936" y="-7.3" font-family="Helvetica,sans-Serif" font-size="11.00" fill="#000000">Generated by SchemaSpy</text>
<!-- individual -->
<g id="node1" class="node">
<title>individual</title>
<g id="a_node1"><a xlink:href="../../tables/individual.html" xlink:title="individual" target="_top">
<polygon fill="#ffffff" stroke="transparent" points="163,-38.2 163,-612.2 432,-612.2 432,-38.2 163,-38.2"/>
<polygon fill="#f5f5f5" stroke="transparent" points="165.5,-587.2 165.5,-610.2 430.5,-610.2 430.5,-587.2 165.5,-587.2"/>
<polygon fill="none" stroke="#000000" points="165.5,-587.2 165.5,-610.2 430.5,-610.2 430.5,-587.2 165.5,-587.2"/>
<text text-anchor="start" x="170.5" y="-595.8" font-family="Helvetica,sans-Serif" font-weight="bold" font-size="11.00" fill="#000000">individual</text>
<text text-anchor="start" x="395.5437" y="-595.3" font-family="Helvetica,sans-Serif" font-size="11.00" fill="#000000">[table]</text>
<polygon fill="none" stroke="#000000" points="165.5,-565.2 165.5,-587.2 363.5,-587.2 363.5,-565.2 165.5,-565.2"/>
<text text-anchor="start" x="185.5" y="-572.3" font-family="Helvetica,sans-Serif" font-size="11.00" fill="#000000">date_of_birth</text>
<polygon fill="none" stroke="#000000" points="363.5,-565.2 363.5,-587.2 430.5,-587.2 430.5,-565.2 363.5,-565.2"/>
<text text-anchor="start" x="366.5" y="-572.9" font-family="Helvetica,sans-Serif" font-size="11.00" fill="#000000">date[13]</text>
<polygon fill="none" stroke="#000000" points="165.5,-543.2 165.5,-565.2 363.5,-565.2 363.5,-543.2 165.5,-543.2"/>
<text text-anchor="start" x="185.5" y="-550.3" font-family="Helvetica,sans-Serif" font-size="11.00" fill="#000000">date_of_death</text>
<polygon fill="none" stroke="#000000" points="363.5,-543.2 363.5,-565.2 430.5,-565.2 430.5,-543.2 363.5,-543.2"/>
<text text-anchor="start" x="366.5" y="-550.9" font-family="Helvetica,sans-Serif" font-size="11.00" fill="#000000">date[13]</text>
<polygon fill="none" stroke="#000000" points="165.5,-521.2 165.5,-543.2 363.5,-543.2 363.5,-521.2 165.5,-521.2"/>
<image xlink:href="../../images/primaryKeys.png" width="11px" height="12px" preserveAspectRatio="xMinYMin meet" x="170.5" y="-538.2"/>
<text text-anchor="start" x="185.5" y="-528.3" font-family="Helvetica,sans-Serif" font-size="11.00" fill="#000000">party_id</text>
<polygon fill="none" stroke="#000000" points="363.5,-521.2 363.5,-543.2 430.5,-543.2 430.5,-521.2 363.5,-521.2"/>
<text text-anchor="start" x="366.5" y="-528.9" font-family="Helvetica,sans-Serif" font-size="11.00" fill="#000000">int8[19]</text>
<polygon fill="none" stroke="#000000" points="165.5,-499.2 165.5,-521.2 363.5,-521.2 363.5,-499.2 165.5,-499.2"/>
<text text-anchor="start" x="185.5" y="-506.3" font-family="Helvetica,sans-Serif" font-size="11.00" fill="#000000">country_of_birth</text>
<polygon fill="none" stroke="#000000" points="363.5,-499.2 363.5,-521.2 430.5,-521.2 430.5,-499.2 363.5,-499.2"/>
<text text-anchor="start" x="366.4365" y="-506.9" font-family="Helvetica,sans-Serif" font-size="11.00" fill="#000000">varchar[255]</text>
<polygon fill="none" stroke="#000000" points="165.5,-477.2 165.5,-499.2 363.5,-499.2 363.5,-477.2 165.5,-477.2"/>
<text text-anchor="start" x="185.5" y="-484.3" font-family="Helvetica,sans-Serif" font-size="11.00" fill="#000000">country_of_death</text>
<polygon fill="none" stroke="#000000" points="363.5,-477.2 363.5,-499.2 430.5,-499.2 430.5,-477.2 363.5,-477.2"/>
<text text-anchor="start" x="366.4365" y="-484.9" font-family="Helvetica,sans-Serif" font-size="11.00" fill="#000000">varchar[255]</text>
<polygon fill="none" stroke="#000000" points="165.5,-455.2 165.5,-477.2 363.5,-477.2 363.5,-455.2 165.5,-455.2"/>
<text text-anchor="start" x="185.5" y="-462.3" font-family="Helvetica,sans-Serif" font-size="11.00" fill="#000000">electorate</text>
<polygon fill="none" stroke="#000000" points="363.5,-455.2 363.5,-477.2 430.5,-477.2 430.5,-455.2 363.5,-455.2"/>
<text text-anchor="start" x="366.4365" y="-462.9" font-family="Helvetica,sans-Serif" font-size="11.00" fill="#000000">varchar[255]</text>
<polygon fill="none" stroke="#000000" points="165.5,-433.2 165.5,-455.2 363.5,-455.2 363.5,-433.2 165.5,-433.2"/>
<text text-anchor="start" x="185.5" y="-440.3" font-family="Helvetica,sans-Serif" font-size="11.00" fill="#000000">email</text>
<polygon fill="none" stroke="#000000" points="363.5,-433.2 363.5,-455.2 430.5,-455.2 430.5,-433.2 363.5,-433.2"/>
<text text-anchor="start" x="366.4365" y="-440.9" font-family="Helvetica,sans-Serif" font-size="11.00" fill="#000000">varchar[255]</text>
<polygon fill="#ffffff" stroke="transparent" points="165.5,-411.2 165.5,-433.2 363.5,-433.2 363.5,-411.2 165.5,-411.2"/>
<polygon fill="none" stroke="#000000" points="165.5,-411.2 165.5,-433.2 363.5,-433.2 363.5,-411.2 165.5,-411.2"/>
<text text-anchor="start" x="185.5" y="-418.3" font-family="Helvetica,sans-Serif" font-size="11.00" fill="#000000">family_name</text>
<polygon fill="none" stroke="#000000" points="363.5,-411.2 363.5,-433.2 430.5,-433.2 430.5,-411.2 363.5,-411.2"/>
<text text-anchor="start" x="366.4365" y="-418.9" font-family="Helvetica,sans-Serif" font-size="11.00" fill="#000000">varchar[255]</text>
<polygon fill="none" stroke="#000000" points="165.5,-389.2 165.5,-411.2 363.5,-411.2 363.5,-389.2 165.5,-389.2"/>
<text text-anchor="start" x="185.5" y="-396.3" font-family="Helvetica,sans-Serif" font-size="11.00" fill="#000000">gender</text>
<polygon fill="none" stroke="#000000" points="363.5,-389.2 363.5,-411.2 430.5,-411.2 430.5,-389.2 363.5,-389.2"/>
<text text-anchor="start" x="366.4365" y="-396.9" font-family="Helvetica,sans-Serif" font-size="11.00" fill="#000000">varchar[255]</text>
<polygon fill="none" stroke="#000000" points="165.5,-367.2 165.5,-389.2 363.5,-389.2 363.5,-367.2 165.5,-367.2"/>
<text text-anchor="start" x="185.5" y="-374.3" font-family="Helvetica,sans-Serif" font-size="11.00" fill="#000000">given_name</text>
<polygon fill="none" stroke="#000000" points="363.5,-367.2 363.5,-389.2 430.5,-389.2 430.5,-367.2 363.5,-367.2"/>
<text text-anchor="start" x="366.4365" y="-374.9" font-family="Helvetica,sans-Serif" font-size="11.00" fill="#000000">varchar[255]</text>
<polygon fill="none" stroke="#000000" points="165.5,-345.2 165.5,-367.2 363.5,-367.2 363.5,-345.2 165.5,-345.2"/>
<text text-anchor="start" x="185.5" y="-352.3" font-family="Helvetica,sans-Serif" font-size="11.00" fill="#000000">honorific</text>
<polygon fill="none" stroke="#000000" points="363.5,-345.2 363.5,-367.2 430.5,-367.2 430.5,-345.2 363.5,-345.2"/>
<text text-anchor="start" x="366.4365" y="-352.9" font-family="Helvetica,sans-Serif" font-size="11.00" fill="#000000">varchar[255]</text>
<polygon fill="none" stroke="#000000" points="165.5,-323.2 165.5,-345.2 363.5,-345.2 363.5,-323.2 165.5,-323.2"/>
<text text-anchor="start" x="185.5" y="-330.3" font-family="Helvetica,sans-Serif" font-size="11.00" fill="#000000">initials</text>
<polygon fill="none" stroke="#000000" points="363.5,-323.2 363.5,-345.2 430.5,-345.2 430.5,-323.2 363.5,-323.2"/>
<text text-anchor="start" x="366.4365" y="-330.9" font-family="Helvetica,sans-Serif" font-size="11.00" fill="#000000">varchar[255]</text>
<polygon fill="none" stroke="#000000" points="165.5,-301.2 165.5,-323.2 363.5,-323.2 363.5,-301.2 165.5,-301.2"/>
<text text-anchor="start" x="185.5" y="-308.3" font-family="Helvetica,sans-Serif" font-size="11.00" fill="#000000">middle_name</text>
<polygon fill="none" stroke="#000000" points="363.5,-301.2 363.5,-323.2 430.5,-323.2 430.5,-301.2 363.5,-301.2"/>
<text text-anchor="start" x="366.4365" y="-308.9" font-family="Helvetica,sans-Serif" font-size="11.00" fill="#000000">varchar[255]</text>
<polygon fill="none" stroke="#000000" points="165.5,-279.2 165.5,-301.2 363.5,-301.2 363.5,-279.2 165.5,-279.2"/>
<text text-anchor="start" x="185.5" y="-286.3" font-family="Helvetica,sans-Serif" font-size="11.00" fill="#000000">phone_number</text>
<polygon fill="none" stroke="#000000" points="363.5,-279.2 363.5,-301.2 430.5,-301.2 430.5,-279.2 363.5,-279.2"/>
<text text-anchor="start" x="366.4365" y="-286.9" font-family="Helvetica,sans-Serif" font-size="11.00" fill="#000000">varchar[255]</text>
<polygon fill="none" stroke="#000000" points="165.5,-257.2 165.5,-279.2 363.5,-279.2 363.5,-257.2 165.5,-257.2"/>
<text text-anchor="start" x="185.5" y="-264.3" font-family="Helvetica,sans-Serif" font-size="11.00" fill="#000000">photo_url</text>
<polygon fill="none" stroke="#000000" points="363.5,-257.2 363.5,-279.2 430.5,-279.2 430.5,-257.2 363.5,-257.2"/>
<text text-anchor="start" x="366.4365" y="-264.9" font-family="Helvetica,sans-Serif" font-size="11.00" fill="#000000">varchar[255]</text>
<polygon fill="none" stroke="#000000" points="165.5,-235.2 165.5,-257.2 363.5,-257.2 363.5,-235.2 165.5,-235.2"/>
<text text-anchor="start" x="185.5" y="-242.3" font-family="Helvetica,sans-Serif" font-size="11.00" fill="#000000">place_of_birth</text>
<polygon fill="none" stroke="#000000" points="363.5,-235.2 363.5,-257.2 430.5,-257.2 430.5,-235.2 363.5,-235.2"/>
<text text-anchor="start" x="366.4365" y="-242.9" font-family="Helvetica,sans-Serif" font-size="11.00" fill="#000000">varchar[255]</text>
<polygon fill="none" stroke="#000000" points="165.5,-213.2 165.5,-235.2 363.5,-235.2 363.5,-213.2 165.5,-213.2"/>
<text text-anchor="start" x="185.5" y="-220.3" font-family="Helvetica,sans-Serif" font-size="11.00" fill="#000000">place_of_death</text>
<polygon fill="none" stroke="#000000" points="363.5,-213.2 363.5,-235.2 430.5,-235.2 430.5,-213.2 363.5,-213.2"/>
<text text-anchor="start" x="366.4365" y="-220.9" font-family="Helvetica,sans-Serif" font-size="11.00" fill="#000000">varchar[255]</text>
<polygon fill="none" stroke="#000000" points="165.5,-191.2 165.5,-213.2 363.5,-213.2 363.5,-191.2 165.5,-191.2"/>
<text text-anchor="start" x="185.5" y="-198.3" font-family="Helvetica,sans-Serif" font-size="11.00" fill="#000000">preferred_family_name</text>
<polygon fill="none" stroke="#000000" points="363.5,-191.2 363.5,-213.2 430.5,-213.2 430.5,-191.2 363.5,-191.2"/>
<text text-anchor="start" x="366.4365" y="-198.9" font-family="Helvetica,sans-Serif" font-size="11.00" fill="#000000">varchar[255]</text>
<polygon fill="none" stroke="#000000" points="165.5,-169.2 165.5,-191.2 363.5,-191.2 363.5,-169.2 165.5,-169.2"/>
<text text-anchor="start" x="185.5" y="-176.3" font-family="Helvetica,sans-Serif" font-size="11.00" fill="#000000">preferred_given_name</text>
<polygon fill="none" stroke="#000000" points="363.5,-169.2 363.5,-191.2 430.5,-191.2 430.5,-169.2 363.5,-169.2"/>
<text text-anchor="start" x="366.4365" y="-176.9" font-family="Helvetica,sans-Serif" font-size="11.00" fill="#000000">varchar[255]</text>
<polygon fill="none" stroke="#000000" points="165.5,-147.2 165.5,-169.2 363.5,-169.2 363.5,-147.2 165.5,-147.2"/>
<text text-anchor="start" x="185.5" y="-154.3" font-family="Helvetica,sans-Serif" font-size="11.00" fill="#000000">preferred_name</text>
<polygon fill="none" stroke="#000000" points="363.5,-147.2 363.5,-169.2 430.5,-169.2 430.5,-147.2 363.5,-147.2"/>
<text text-anchor="start" x="366.4365" y="-154.9" font-family="Helvetica,sans-Serif" font-size="11.00" fill="#000000">varchar[255]</text>
<polygon fill="none" stroke="#000000" points="165.5,-125.2 165.5,-147.2 363.5,-147.2 363.5,-125.2 165.5,-125.2"/>
<text text-anchor="start" x="185.5" y="-132.3" font-family="Helvetica,sans-Serif" font-size="11.00" fill="#000000">relationship_lifecycle_status</text>
<polygon fill="none" stroke="#000000" points="363.5,-125.2 363.5,-147.2 430.5,-147.2 430.5,-125.2 363.5,-125.2"/>
<text text-anchor="start" x="366.4365" y="-132.9" font-family="Helvetica,sans-Serif" font-size="11.00" fill="#000000">varchar[255]</text>
<polygon fill="none" stroke="#000000" points="165.5,-103.2 165.5,-125.2 363.5,-125.2 363.5,-103.2 165.5,-103.2"/>
<text text-anchor="start" x="185.5" y="-110.3" font-family="Helvetica,sans-Serif" font-size="11.00" fill="#000000">salutation</text>
<polygon fill="none" stroke="#000000" points="363.5,-103.2 363.5,-125.2 430.5,-125.2 430.5,-103.2 363.5,-103.2"/>
<text text-anchor="start" x="366.4365" y="-110.9" font-family="Helvetica,sans-Serif" font-size="11.00" fill="#000000">varchar[255]</text>
<polygon fill="none" stroke="#000000" points="165.5,-81.2 165.5,-103.2 363.5,-103.2 363.5,-81.2 165.5,-81.2"/>
<text text-anchor="start" x="185.5" y="-88.3" font-family="Helvetica,sans-Serif" font-size="11.00" fill="#000000">sex</text>
<polygon fill="none" stroke="#000000" points="363.5,-81.2 363.5,-103.2 430.5,-103.2 430.5,-81.2 363.5,-81.2"/>
<text text-anchor="start" x="366.4365" y="-88.9" font-family="Helvetica,sans-Serif" font-size="11.00" fill="#000000">varchar[255]</text>
<polygon fill="none" stroke="#000000" points="165.5,-59.2 165.5,-81.2 363.5,-81.2 363.5,-59.2 165.5,-59.2"/>
<text text-anchor="start" x="185.5" y="-66.3" font-family="Helvetica,sans-Serif" font-size="11.00" fill="#000000">title</text>
<polygon fill="none" stroke="#000000" points="363.5,-59.2 363.5,-81.2 430.5,-81.2 430.5,-59.2 363.5,-59.2"/>
<text text-anchor="start" x="366.4365" y="-66.9" font-family="Helvetica,sans-Serif" font-size="11.00" fill="#000000">varchar[255]</text>
<polygon fill="#ffffff" stroke="transparent" points="165.5,-40.2 165.5,-59.2 430.5,-59.2 430.5,-40.2 165.5,-40.2"/>
<polygon fill="none" stroke="#000000" points="165.5,-40.2 165.5,-59.2 430.5,-59.2 430.5,-40.2 165.5,-40.2"/>
<polygon fill="#ffffff" stroke="transparent" points="166.5,-41.2 166.5,-58.2 244.5,-58.2 244.5,-41.2 166.5,-41.2"/>
<text text-anchor="start" x="168.5" y="-46.3" font-family="Helvetica,sans-Serif" font-size="11.00" fill="#000000">&lt; 1</text>
<polygon fill="#ffffff" stroke="transparent" points="244.5,-41.2 244.5,-58.2 351.5,-58.2 351.5,-41.2 244.5,-41.2"/>
<text text-anchor="start" x="275.6904" y="-46.3" font-family="Helvetica,sans-Serif" font-size="11.00" fill="#000000">231 rows</text>
<polygon fill="#ffffff" stroke="transparent" points="351.5,-41.2 351.5,-58.2 429.5,-58.2 429.5,-41.2 351.5,-41.2"/>
<text text-anchor="start" x="411.9053" y="-46.3" font-family="Helvetica,sans-Serif" font-size="11.00" fill="#000000">1 &gt;</text>
<polygon fill="#000000" stroke="#000000" points="244.5,-41.2 244.5,-58.2 244.5,-58.2 244.5,-41.2 244.5,-41.2"/>
<polygon fill="#000000" stroke="#000000" points="351.5,-41.2 351.5,-58.2 351.5,-58.2 351.5,-41.2 351.5,-41.2"/>
<polygon fill="none" stroke="#000000" stroke-width="2" points="164,-39.2 164,-611.2 431,-611.2 431,-39.2 164,-39.2"/>
</a>
</g>
</g>
<!-- party -->
<g id="node2" class="node">
<title>party</title>
<g id="a_node2"><a xlink:href="../../tables/party.html" xlink:title="party" target="_top">
<polygon fill="#ffffff" stroke="transparent" points="8,-653.7 8,-736.7 114,-736.7 114,-653.7 8,-653.7"/>
<polygon fill="#f5f5f5" stroke="transparent" points="8,-713.2 8,-736.2 114,-736.2 114,-713.2 8,-713.2"/>
<polygon fill="none" stroke="#000000" points="8,-713.2 8,-736.2 114,-736.2 114,-713.2 8,-713.2"/>
<text text-anchor="start" x="13" y="-721.8" font-family="Helvetica,sans-Serif" font-weight="bold" font-size="11.00" fill="#000000">party</text>
<text text-anchor="start" x="79.0437" y="-721.3" font-family="Helvetica,sans-Serif" font-size="11.00" fill="#000000">[table]</text>
<polygon fill="none" stroke="#000000" points="8,-691.2 8,-713.2 114,-713.2 114,-691.2 8,-691.2"/>
<image xlink:href="../../images/primaryKeys.png" width="11px" height="12px" preserveAspectRatio="xMinYMin meet" x="13" y="-708.2"/>
<text text-anchor="start" x="28" y="-698.3" font-family="Helvetica,sans-Serif" font-size="11.00" fill="#000000">id</text>
<polygon fill="none" stroke="#000000" points="8,-672.2 8,-691.2 114,-691.2 114,-672.2 8,-672.2"/>
<text text-anchor="start" x="11" y="-678.3" font-family="Helvetica,sans-Serif" font-size="11.00" fill="#000000">...</text>
<polygon fill="#ffffff" stroke="transparent" points="8,-653.2 8,-672.2 114,-672.2 114,-653.2 8,-653.2"/>
<polygon fill="none" stroke="#000000" points="8,-653.2 8,-672.2 114,-672.2 114,-653.2 8,-653.2"/>
<polygon fill="#ffffff" stroke="transparent" points="9,-654.2 9,-671.2 28,-671.2 28,-654.2 9,-654.2"/>
<text text-anchor="start" x="11" y="-659.3" font-family="Helvetica,sans-Serif" font-size="11.00" fill="#000000"> &#160;</text>
<polygon fill="#ffffff" stroke="transparent" points="28,-654.2 28,-671.2 85,-671.2 85,-654.2 28,-654.2"/>
<text text-anchor="start" x="34.1903" y="-659.3" font-family="Helvetica,sans-Serif" font-size="11.00" fill="#000000">237 rows</text>
<polygon fill="#ffffff" stroke="transparent" points="85,-654.2 85,-671.2 113,-671.2 113,-654.2 85,-654.2"/>
<text text-anchor="start" x="95.4053" y="-659.3" font-family="Helvetica,sans-Serif" font-size="11.00" fill="#000000">4 &gt;</text>
<polygon fill="#000000" stroke="#000000" points="28,-654.2 28,-671.2 28,-671.2 28,-654.2 28,-654.2"/>
<polygon fill="#000000" stroke="#000000" points="85,-654.2 85,-671.2 85,-671.2 85,-654.2 85,-654.2"/>
</a>
</g>
</g>
<!-- individual&#45;&gt;party -->
<g id="edge1" class="edge">
<title>individual:w&#45;&gt;party:e</title>
<path fill="none" stroke="#000000" d="M154.8583,-533.4706C96.8811,-549.0272 188.9375,-702.2 114,-702.2"/>
<polygon fill="#000000" stroke="#000000" points="164.2314,-528.3231 165.1799,-536.2666 163.5912,-536.4563 162.6427,-528.5128 164.2314,-528.3231"/>
<polyline fill="none" stroke="#000000" points="165.5,-532.2 161.5282,-532.6743 "/>
<ellipse fill="none" stroke="#000000" cx="158.3508" cy="-533.0537" rx="3.2" ry="3.2"/>
</g>
<!-- individual_name -->
<g id="node3" class="node">
<title>individual_name</title>
<g id="a_node3"><a xlink:href="../../tables/individual_name.html" xlink:title="individual_name" target="_top">
<polygon fill="#ffffff" stroke="transparent" points="481,-483.7 481,-588.7 645,-588.7 645,-483.7 481,-483.7"/>
<polygon fill="#f5f5f5" stroke="transparent" points="481,-565.2 481,-588.2 645,-588.2 645,-565.2 481,-565.2"/>
<polygon fill="none" stroke="#000000" points="481,-565.2 481,-588.2 645,-588.2 645,-565.2 481,-565.2"/>
<text text-anchor="start" x="486" y="-573.8" font-family="Helvetica,sans-Serif" font-weight="bold" font-size="11.00" fill="#000000">individual_name</text>
<text text-anchor="start" x="610.0437" y="-573.3" font-family="Helvetica,sans-Serif" font-size="11.00" fill="#000000">[table]</text>
<polygon fill="none" stroke="#000000" points="481,-543.2 481,-565.2 645,-565.2 645,-543.2 481,-543.2"/>
<image xlink:href="../../images/primaryKeys.png" width="11px" height="12px" preserveAspectRatio="xMinYMin meet" x="486" y="-560.2"/>
<text text-anchor="start" x="501" y="-550.3" font-family="Helvetica,sans-Serif" font-size="11.00" fill="#000000">id</text>
<polygon fill="none" stroke="#000000" points="481,-521.2 481,-543.2 645,-543.2 645,-521.2 481,-521.2"/>
<image xlink:href="../../images/foreignKeys.png" width="11px" height="12px" preserveAspectRatio="xMinYMin meet" x="486" y="-538.2"/>
<text text-anchor="start" x="501" y="-528.3" font-family="Helvetica,sans-Serif" font-size="11.00" fill="#000000">individual_id</text>
<polygon fill="none" stroke="#000000" points="481,-502.2 481,-521.2 645,-521.2 645,-502.2 481,-502.2"/>
<text text-anchor="start" x="484" y="-508.3" font-family="Helvetica,sans-Serif" font-size="11.00" fill="#000000">...</text>
<polygon fill="#ffffff" stroke="transparent" points="481,-483.2 481,-502.2 645,-502.2 645,-483.2 481,-483.2"/>
<polygon fill="none" stroke="#000000" points="481,-483.2 481,-502.2 645,-502.2 645,-483.2 481,-483.2"/>
<polygon fill="#ffffff" stroke="transparent" points="482,-484.2 482,-501.2 542,-501.2 542,-484.2 482,-484.2"/>
<text text-anchor="start" x="484" y="-489.3" font-family="Helvetica,sans-Serif" font-size="11.00" fill="#000000">&lt; 1</text>
<polygon fill="#ffffff" stroke="transparent" points="542,-484.2 542,-501.2 593,-501.2 593,-484.2 542,-484.2"/>
<text text-anchor="start" x="564.4431" y="-489.3" font-family="Helvetica,sans-Serif" font-size="11.00" fill="#000000"> &#160;</text>
<polygon fill="#ffffff" stroke="transparent" points="593,-484.2 593,-501.2 644,-501.2 644,-484.2 593,-484.2"/>
<text text-anchor="start" x="635.8862" y="-489.3" font-family="Helvetica,sans-Serif" font-size="11.00" fill="#000000"> &#160;</text>
<polygon fill="#000000" stroke="#000000" points="542,-484.2 542,-501.2 542,-501.2 542,-484.2 542,-484.2"/>
<polygon fill="#000000" stroke="#000000" points="593,-484.2 593,-501.2 593,-501.2 593,-484.2 593,-484.2"/>
</a>
</g>
</g>
<!-- individual_name&#45;&gt;individual -->
<g id="edge2" class="edge">
<title>individual_name:w&#45;&gt;individual:e</title>
<path fill="none" stroke="#000000" d="M466.4203,-532.2C454.5435,-532.2 447.158,-532.2 430.5,-532.2"/>
<polygon fill="#000000" stroke="#000000" points="473,-532.2001 481,-535.8 477,-532.2 481,-532.2 481,-532.2 481,-532.2 477,-532.2 481,-528.6 473,-532.2001 473,-532.2001"/>
<ellipse fill="none" stroke="#000000" cx="469.8" cy="-532.2001" rx="3.2" ry="3.2"/>
</g>
<!-- organisation -->
<g id="node4" class="node">
<title>organisation</title>
<g id="a_node4"><a xlink:href="../../tables/organisation.html" xlink:title="organisation" target="_top">
<polygon fill="#ffffff" stroke="transparent" points="239,-797.7 239,-858.7 356,-858.7 356,-797.7 239,-797.7"/>
<polygon fill="#f5f5f5" stroke="transparent" points="239.5,-835.2 239.5,-858.2 356.5,-858.2 356.5,-835.2 239.5,-835.2"/>
<polygon fill="none" stroke="#000000" points="239.5,-835.2 239.5,-858.2 356.5,-858.2 356.5,-835.2 239.5,-835.2"/>
<text text-anchor="start" x="244.5" y="-843.8" font-family="Helvetica,sans-Serif" font-weight="bold" font-size="11.00" fill="#000000">organisation</text>
<text text-anchor="start" x="322.0219" y="-843.3" font-family="Helvetica,sans-Serif" font-size="11.00" fill="#000000">[table]</text>
<polygon fill="none" stroke="#000000" points="239.5,-816.2 239.5,-835.2 356.5,-835.2 356.5,-816.2 239.5,-816.2"/>
<text text-anchor="start" x="242.5" y="-822.3" font-family="Helvetica,sans-Serif" font-size="11.00" fill="#000000">...</text>
<polygon fill="#ffffff" stroke="transparent" points="239.5,-797.2 239.5,-816.2 356.5,-816.2 356.5,-797.2 239.5,-797.2"/>
<polygon fill="none" stroke="#000000" points="239.5,-797.2 239.5,-816.2 356.5,-816.2 356.5,-797.2 239.5,-797.2"/>
<polygon fill="#ffffff" stroke="transparent" points="240.5,-798.2 240.5,-815.2 285.5,-815.2 285.5,-798.2 240.5,-798.2"/>
<text text-anchor="start" x="242.5" y="-803.3" font-family="Helvetica,sans-Serif" font-size="11.00" fill="#000000">&lt; 1</text>
<polygon fill="#ffffff" stroke="transparent" points="285.5,-798.2 285.5,-815.2 320.5,-815.2 320.5,-798.2 285.5,-798.2"/>
<text text-anchor="start" x="299.9431" y="-803.3" font-family="Helvetica,sans-Serif" font-size="11.00" fill="#000000"> &#160;</text>
<polygon fill="#ffffff" stroke="transparent" points="320.5,-798.2 320.5,-815.2 355.5,-815.2 355.5,-798.2 320.5,-798.2"/>
<text text-anchor="start" x="347.3862" y="-803.3" font-family="Helvetica,sans-Serif" font-size="11.00" fill="#000000"> &#160;</text>
<polygon fill="#000000" stroke="#000000" points="285.5,-798.2 285.5,-815.2 285.5,-815.2 285.5,-798.2 285.5,-798.2"/>
<polygon fill="#000000" stroke="#000000" points="320.5,-798.2 320.5,-815.2 320.5,-815.2 320.5,-798.2 320.5,-798.2"/>
</a>
</g>
</g>
<!-- organisation&#45;&gt;party -->
<g id="edge3" class="edge">
<title>organisation:w&#45;&gt;party:e</title>
<path fill="none" stroke="#000000" d="M229.0325,-824.968C195.7124,-823.3763 181.8545,-813.3437 155,-787.2 124.9468,-757.9423 155.9429,-702.2 114,-702.2"/>
<polygon fill="#000000" stroke="#000000" points="238.7889,-821.1832 238.6115,-829.1813 237.0119,-829.1458 237.1893,-821.1478 238.7889,-821.1832"/>
<polyline fill="none" stroke="#000000" points="239.5,-825.2 235.501,-825.1113 "/>
<ellipse fill="none" stroke="#000000" cx="232.3018" cy="-825.0404" rx="3.2" ry="3.2"/>
</g>
<!-- party_address -->
<g id="node5" class="node">
<title>party_address</title>
<g id="a_node5"><a xlink:href="../../tables/party_address.html" xlink:title="party_address" target="_top">
<polygon fill="#ffffff" stroke="transparent" points="234,-715.7 234,-776.7 361,-776.7 361,-715.7 234,-715.7"/>
<polygon fill="#f5f5f5" stroke="transparent" points="234.5,-753.2 234.5,-776.2 361.5,-776.2 361.5,-753.2 234.5,-753.2"/>
<polygon fill="none" stroke="#000000" points="234.5,-753.2 234.5,-776.2 361.5,-776.2 361.5,-753.2 234.5,-753.2"/>
<text text-anchor="start" x="239.5" y="-761.8" font-family="Helvetica,sans-Serif" font-weight="bold" font-size="11.00" fill="#000000">party_address</text>
<text text-anchor="start" x="327.0219" y="-761.3" font-family="Helvetica,sans-Serif" font-size="11.00" fill="#000000">[table]</text>
<polygon fill="none" stroke="#000000" points="234.5,-734.2 234.5,-753.2 361.5,-753.2 361.5,-734.2 234.5,-734.2"/>
<text text-anchor="start" x="237.5" y="-740.3" font-family="Helvetica,sans-Serif" font-size="11.00" fill="#000000">...</text>
<polygon fill="#ffffff" stroke="transparent" points="234.5,-715.2 234.5,-734.2 361.5,-734.2 361.5,-715.2 234.5,-715.2"/>
<polygon fill="none" stroke="#000000" points="234.5,-715.2 234.5,-734.2 361.5,-734.2 361.5,-715.2 234.5,-715.2"/>
<polygon fill="#ffffff" stroke="transparent" points="235.5,-716.2 235.5,-733.2 270.5,-733.2 270.5,-716.2 235.5,-716.2"/>
<text text-anchor="start" x="237.5" y="-721.3" font-family="Helvetica,sans-Serif" font-size="11.00" fill="#000000">&lt; 2</text>
<polygon fill="#ffffff" stroke="transparent" points="270.5,-716.2 270.5,-733.2 334.5,-733.2 334.5,-716.2 270.5,-716.2"/>
<text text-anchor="start" x="280.1904" y="-721.3" font-family="Helvetica,sans-Serif" font-size="11.00" fill="#000000">237 rows</text>
<polygon fill="#ffffff" stroke="transparent" points="334.5,-716.2 334.5,-733.2 360.5,-733.2 360.5,-716.2 334.5,-716.2"/>
<text text-anchor="start" x="352.3862" y="-721.3" font-family="Helvetica,sans-Serif" font-size="11.00" fill="#000000"> &#160;</text>
<polygon fill="#000000" stroke="#000000" points="270.5,-716.2 270.5,-733.2 270.5,-733.2 270.5,-716.2 270.5,-716.2"/>
<polygon fill="#000000" stroke="#000000" points="334.5,-716.2 334.5,-733.2 334.5,-733.2 334.5,-716.2 334.5,-716.2"/>
</a>
</g>
</g>
<!-- party_address&#45;&gt;party -->
<g id="edge4" class="edge">
<title>party_address:w&#45;&gt;party:e</title>
<path fill="none" stroke="#000000" d="M220.0889,-742.227C176.1636,-736.0181 165.3777,-702.2 114,-702.2"/>
<polygon fill="#000000" stroke="#000000" points="226.5182,-742.661 234.2575,-746.7918 230.5091,-742.9305 234.5,-743.2 234.5,-743.2 234.5,-743.2 230.5091,-742.9305 234.7425,-739.6082 226.5182,-742.661 226.5182,-742.661"/>
<ellipse fill="none" stroke="#000000" cx="223.3254" cy="-742.4454" rx="3.2" ry="3.2"/>
</g>
<!-- party_role -->
<g id="node6" class="node">
<title>party_role</title>
<g id="a_node6"><a xlink:href="../../tables/party_role.html" xlink:title="party_role" target="_top">
<polygon fill="#ffffff" stroke="transparent" points="247,-633.7 247,-694.7 348,-694.7 348,-633.7 247,-633.7"/>
<polygon fill="#f5f5f5" stroke="transparent" points="247.5,-671.2 247.5,-694.2 348.5,-694.2 348.5,-671.2 247.5,-671.2"/>
<polygon fill="none" stroke="#000000" points="247.5,-671.2 247.5,-694.2 348.5,-694.2 348.5,-671.2 247.5,-671.2"/>
<text text-anchor="start" x="252.5" y="-679.8" font-family="Helvetica,sans-Serif" font-weight="bold" font-size="11.00" fill="#000000">party_role</text>
<text text-anchor="start" x="314.0219" y="-679.3" font-family="Helvetica,sans-Serif" font-size="11.00" fill="#000000">[table]</text>
<polygon fill="none" stroke="#000000" points="247.5,-652.2 247.5,-671.2 348.5,-671.2 348.5,-652.2 247.5,-652.2"/>
<text text-anchor="start" x="250.5" y="-658.3" font-family="Helvetica,sans-Serif" font-size="11.00" fill="#000000">...</text>
<polygon fill="#ffffff" stroke="transparent" points="247.5,-633.2 247.5,-652.2 348.5,-652.2 348.5,-633.2 247.5,-633.2"/>
<polygon fill="none" stroke="#000000" points="247.5,-633.2 247.5,-652.2 348.5,-652.2 348.5,-633.2 247.5,-633.2"/>
<polygon fill="#ffffff" stroke="transparent" points="248.5,-634.2 248.5,-651.2 275.5,-651.2 275.5,-634.2 248.5,-634.2"/>
<text text-anchor="start" x="250.5" y="-639.3" font-family="Helvetica,sans-Serif" font-size="11.00" fill="#000000">&lt; 2</text>
<polygon fill="#ffffff" stroke="transparent" points="275.5,-634.2 275.5,-651.2 330.5,-651.2 330.5,-634.2 275.5,-634.2"/>
<text text-anchor="start" x="280.6904" y="-639.3" font-family="Helvetica,sans-Serif" font-size="11.00" fill="#000000">424 rows</text>
<polygon fill="#ffffff" stroke="transparent" points="330.5,-634.2 330.5,-651.2 347.5,-651.2 347.5,-634.2 330.5,-634.2"/>
<text text-anchor="start" x="339.3862" y="-639.3" font-family="Helvetica,sans-Serif" font-size="11.00" fill="#000000"> &#160;</text>
<polygon fill="#000000" stroke="#000000" points="275.5,-634.2 275.5,-651.2 275.5,-651.2 275.5,-634.2 275.5,-634.2"/>
<polygon fill="#000000" stroke="#000000" points="330.5,-634.2 330.5,-651.2 330.5,-651.2 330.5,-634.2 330.5,-634.2"/>
</a>
</g>
</g>
<!-- party_role&#45;&gt;party -->
<g id="edge5" class="edge">
<title>party_role:w&#45;&gt;party:e</title>
<path fill="none" stroke="#000000" d="M232.9145,-662.019C183.4871,-667.7975 170.8557,-702.2 114,-702.2"/>
<polygon fill="#000000" stroke="#000000" points="239.5126,-661.6486 247.7018,-664.7943 243.5063,-661.4243 247.5,-661.2 247.5,-661.2 247.5,-661.2 243.5063,-661.4243 247.2982,-657.6057 239.5126,-661.6486 239.5126,-661.6486"/>
<ellipse fill="none" stroke="#000000" cx="236.3176" cy="-661.828" rx="3.2" ry="3.2"/>
</g>
</g>
</svg>
