<?xml version="1.0" encoding="UTF-8" standalone="no"?>
<!DOCTYPE svg PUBLIC "-//W3C//DTD SVG 1.1//EN"
 "http://www.w3.org/Graphics/SVG/1.1/DTD/svg11.dtd">
<!-- Generated by graphviz version 2.40.1 (20161225.0304)
 -->
<!-- Title: oneDegreeRelationshipsDiagram Pages: 1 -->
<svg width="371pt" height="294pt"
 viewBox="0.00 0.00 371.00 294.20" xmlns="http://www.w3.org/2000/svg" xmlns:xlink="http://www.w3.org/1999/xlink">
<g id="graph0" class="graph" transform="scale(1 1) rotate(0) translate(4 290.2)">
<title>oneDegreeRelationshipsDiagram</title>
<polygon fill="#ffffff" stroke="transparent" points="-4,4 -4,-290.2 367,-290.2 367,4 -4,4"/>
<text text-anchor="middle" x="72.4936" y="-7.3" font-family="Helvetica,sans-Serif" font-size="11.00" fill="#000000">Generated by SchemaSpy</text>
<!-- address -->
<g id="node1" class="node">
<title>address</title>
<g id="a_node1"><a xlink:href="../../tables/address.html" xlink:title="address" target="_top">
<polygon fill="#ffffff" stroke="transparent" points="251,-153.7 251,-236.7 355,-236.7 355,-153.7 251,-153.7"/>
<polygon fill="#f5f5f5" stroke="transparent" points="251,-213.2 251,-236.2 355,-236.2 355,-213.2 251,-213.2"/>
<polygon fill="none" stroke="#000000" points="251,-213.2 251,-236.2 355,-236.2 355,-213.2 251,-213.2"/>
<text text-anchor="start" x="256" y="-221.8" font-family="Helvetica,sans-Serif" font-weight="bold" font-size="11.00" fill="#000000">address</text>
<text text-anchor="start" x="320.0437" y="-221.3" font-family="Helvetica,sans-Serif" font-size="11.00" fill="#000000">[table]</text>
<polygon fill="none" stroke="#000000" points="251,-191.2 251,-213.2 355,-213.2 355,-191.2 251,-191.2"/>
<image xlink:href="../../images/primaryKeys.png" width="11px" height="12px" preserveAspectRatio="xMinYMin meet" x="256" y="-208.2"/>
<text text-anchor="start" x="271" y="-198.3" font-family="Helvetica,sans-Serif" font-size="11.00" fill="#000000">location_id</text>
<polygon fill="none" stroke="#000000" points="251,-172.2 251,-191.2 355,-191.2 355,-172.2 251,-172.2"/>
<text text-anchor="start" x="254" y="-178.3" font-family="Helvetica,sans-Serif" font-size="11.00" fill="#000000">...</text>
<polygon fill="#ffffff" stroke="transparent" points="251,-153.2 251,-172.2 355,-172.2 355,-153.2 251,-153.2"/>
<polygon fill="none" stroke="#000000" points="251,-153.2 251,-172.2 355,-172.2 355,-153.2 251,-153.2"/>
<polygon fill="#ffffff" stroke="transparent" points="252,-154.2 252,-171.2 289,-171.2 289,-154.2 252,-154.2"/>
<text text-anchor="start" x="254" y="-159.3" font-family="Helvetica,sans-Serif" font-size="11.00" fill="#000000">&lt; 1</text>
<polygon fill="#ffffff" stroke="transparent" points="289,-154.2 289,-171.2 317,-171.2 317,-154.2 289,-154.2"/>
<text text-anchor="start" x="299.9431" y="-159.3" font-family="Helvetica,sans-Serif" font-size="11.00" fill="#000000"> &#160;</text>
<polygon fill="#ffffff" stroke="transparent" points="317,-154.2 317,-171.2 354,-171.2 354,-154.2 317,-154.2"/>
<text text-anchor="start" x="336.4053" y="-159.3" font-family="Helvetica,sans-Serif" font-size="11.00" fill="#000000">1 &gt;</text>
<polygon fill="#000000" stroke="#000000" points="289,-154.2 289,-171.2 289,-171.2 289,-154.2 289,-154.2"/>
<polygon fill="#000000" stroke="#000000" points="317,-154.2 317,-171.2 317,-171.2 317,-154.2 317,-154.2"/>
</a>
</g>
</g>
<!-- location -->
<g id="node2" class="node">
<title>location</title>
<g id="a_node2"><a xlink:href="../../tables/location.html" xlink:title="location" target="_top">
<polygon fill="#ffffff" stroke="transparent" points="8,-38.2 8,-282.2 202,-282.2 202,-38.2 8,-38.2"/>
<polygon fill="#f5f5f5" stroke="transparent" points="10,-257.2 10,-280.2 200,-280.2 200,-257.2 10,-257.2"/>
<polygon fill="none" stroke="#000000" points="10,-257.2 10,-280.2 200,-280.2 200,-257.2 10,-257.2"/>
<text text-anchor="start" x="15" y="-265.8" font-family="Helvetica,sans-Serif" font-weight="bold" font-size="11.00" fill="#000000">location</text>
<text text-anchor="start" x="165.0437" y="-265.3" font-family="Helvetica,sans-Serif" font-size="11.00" fill="#000000">[table]</text>
<polygon fill="none" stroke="#000000" points="10,-235.2 10,-257.2 116,-257.2 116,-235.2 10,-235.2"/>
<text text-anchor="start" x="30" y="-242.3" font-family="Helvetica,sans-Serif" font-size="11.00" fill="#000000">created_at</text>
<polygon fill="none" stroke="#000000" points="116,-235.2 116,-257.2 200,-257.2 200,-235.2 116,-235.2"/>
<text text-anchor="start" x="118.8807" y="-242.9" font-family="Helvetica,sans-Serif" font-size="11.00" fill="#000000">timestamp[29,6]</text>
<polygon fill="none" stroke="#000000" points="10,-213.2 10,-235.2 116,-235.2 116,-213.2 10,-213.2"/>
<text text-anchor="start" x="30" y="-220.3" font-family="Helvetica,sans-Serif" font-size="11.00" fill="#000000">from_date</text>
<polygon fill="none" stroke="#000000" points="116,-213.2 116,-235.2 200,-235.2 200,-213.2 116,-213.2"/>
<text text-anchor="start" x="118.8807" y="-220.9" font-family="Helvetica,sans-Serif" font-size="11.00" fill="#000000">timestamp[29,6]</text>
<polygon fill="none" stroke="#000000" points="10,-191.2 10,-213.2 116,-213.2 116,-191.2 10,-191.2"/>
<image xlink:href="../../images/primaryKeys.png" width="11px" height="12px" preserveAspectRatio="xMinYMin meet" x="15" y="-208.2"/>
<text text-anchor="start" x="30" y="-198.3" font-family="Helvetica,sans-Serif" font-size="11.00" fill="#000000">id</text>
<polygon fill="none" stroke="#000000" points="116,-191.2 116,-213.2 200,-213.2 200,-191.2 116,-191.2"/>
<text text-anchor="start" x="119" y="-198.9" font-family="Helvetica,sans-Serif" font-size="11.00" fill="#000000">int8[19]</text>
<polygon fill="none" stroke="#000000" points="10,-169.2 10,-191.2 116,-191.2 116,-169.2 10,-169.2"/>
<text text-anchor="start" x="30" y="-176.3" font-family="Helvetica,sans-Serif" font-size="11.00" fill="#000000">to_date</text>
<polygon fill="none" stroke="#000000" points="116,-169.2 116,-191.2 200,-191.2 200,-169.2 116,-169.2"/>
<text text-anchor="start" x="118.8807" y="-176.9" font-family="Helvetica,sans-Serif" font-size="11.00" fill="#000000">timestamp[29,6]</text>
<polygon fill="none" stroke="#000000" points="10,-147.2 10,-169.2 116,-169.2 116,-147.2 10,-147.2"/>
<text text-anchor="start" x="30" y="-154.3" font-family="Helvetica,sans-Serif" font-size="11.00" fill="#000000">updated_at</text>
<polygon fill="none" stroke="#000000" points="116,-147.2 116,-169.2 200,-169.2 200,-147.2 116,-147.2"/>
<text text-anchor="start" x="118.8807" y="-154.9" font-family="Helvetica,sans-Serif" font-size="11.00" fill="#000000">timestamp[29,6]</text>
<polygon fill="none" stroke="#000000" points="10,-125.2 10,-147.2 116,-147.2 116,-125.2 10,-125.2"/>
<text text-anchor="start" x="30" y="-132.3" font-family="Helvetica,sans-Serif" font-size="11.00" fill="#000000">created_by</text>
<polygon fill="none" stroke="#000000" points="116,-125.2 116,-147.2 200,-147.2 200,-125.2 116,-125.2"/>
<text text-anchor="start" x="119" y="-132.9" font-family="Helvetica,sans-Serif" font-size="11.00" fill="#000000">varchar[255]</text>
<polygon fill="none" stroke="#000000" points="10,-103.2 10,-125.2 116,-125.2 116,-103.2 10,-103.2"/>
<text text-anchor="start" x="30" y="-110.3" font-family="Helvetica,sans-Serif" font-size="11.00" fill="#000000">display_name</text>
<polygon fill="none" stroke="#000000" points="116,-103.2 116,-125.2 200,-125.2 200,-103.2 116,-103.2"/>
<text text-anchor="start" x="119" y="-110.9" font-family="Helvetica,sans-Serif" font-size="11.00" fill="#000000">varchar[255]</text>
<polygon fill="none" stroke="#000000" points="10,-81.2 10,-103.2 116,-103.2 116,-81.2 10,-81.2"/>
<text text-anchor="start" x="30" y="-88.3" font-family="Helvetica,sans-Serif" font-size="11.00" fill="#000000">type</text>
<polygon fill="none" stroke="#000000" points="116,-81.2 116,-103.2 200,-103.2 200,-81.2 116,-81.2"/>
<text text-anchor="start" x="119" y="-88.9" font-family="Helvetica,sans-Serif" font-size="11.00" fill="#000000">varchar[255]</text>
<polygon fill="none" stroke="#000000" points="10,-59.2 10,-81.2 116,-81.2 116,-59.2 10,-59.2"/>
<text text-anchor="start" x="30" y="-66.3" font-family="Helvetica,sans-Serif" font-size="11.00" fill="#000000">updated_by</text>
<polygon fill="none" stroke="#000000" points="116,-59.2 116,-81.2 200,-81.2 200,-59.2 116,-59.2"/>
<text text-anchor="start" x="119" y="-66.9" font-family="Helvetica,sans-Serif" font-size="11.00" fill="#000000">varchar[255]</text>
<polygon fill="#ffffff" stroke="transparent" points="10,-40.2 10,-59.2 200,-59.2 200,-40.2 10,-40.2"/>
<polygon fill="none" stroke="#000000" points="10,-40.2 10,-59.2 200,-59.2 200,-40.2 10,-40.2"/>
<polygon fill="#ffffff" stroke="transparent" points="11,-41.2 11,-58.2 77,-58.2 77,-41.2 11,-41.2"/>
<text text-anchor="start" x="13" y="-46.3" font-family="Helvetica,sans-Serif" font-size="11.00" fill="#000000">&lt; 0</text>
<polygon fill="#ffffff" stroke="transparent" points="77,-41.2 77,-58.2 134,-58.2 134,-41.2 77,-41.2"/>
<text text-anchor="start" x="102.4431" y="-46.3" font-family="Helvetica,sans-Serif" font-size="11.00" fill="#000000"> &#160;</text>
<polygon fill="#ffffff" stroke="transparent" points="134,-41.2 134,-58.2 199,-58.2 199,-41.2 134,-41.2"/>
<text text-anchor="start" x="181.4053" y="-46.3" font-family="Helvetica,sans-Serif" font-size="11.00" fill="#000000">1 &gt;</text>
<polygon fill="#000000" stroke="#000000" points="77,-41.2 77,-58.2 77,-58.2 77,-41.2 77,-41.2"/>
<polygon fill="#000000" stroke="#000000" points="134,-41.2 134,-58.2 134,-58.2 134,-41.2 134,-41.2"/>
<polygon fill="none" stroke="#000000" stroke-width="2" points="9,-39.2 9,-281.2 201,-281.2 201,-39.2 9,-39.2"/>
</a>
</g>
</g>
<!-- address&#45;&gt;location -->
<g id="edge1" class="edge">
<title>address:w&#45;&gt;location:e</title>
<path fill="none" stroke="#000000" d="M240.2307,-202.2C225.748,-202.2 218.5938,-202.2 200,-202.2"/>
<polygon fill="#000000" stroke="#000000" points="250.2,-198.2 250.2,-206.2 248.6,-206.2 248.6,-198.2 250.2,-198.2"/>
<polyline fill="none" stroke="#000000" points="251,-202.2 247,-202.2 "/>
<ellipse fill="none" stroke="#000000" cx="243.8" cy="-202.2001" rx="3.2" ry="3.2"/>
</g>
</g>
</svg>
