<?xml version="1.0" encoding="UTF-8" standalone="no"?>
<!DOCTYPE svg PUBLIC "-//W3C//DTD SVG 1.1//EN"
 "http://www.w3.org/Graphics/SVG/1.1/DTD/svg11.dtd">
<!-- Generated by graphviz version 2.40.1 (20161225.0304)
 -->
<!-- Title: oneDegreeRelationshipsDiagram Pages: 1 -->
<svg width="392pt" height="206pt"
 viewBox="0.00 0.00 392.00 206.20" xmlns="http://www.w3.org/2000/svg" xmlns:xlink="http://www.w3.org/1999/xlink">
<g id="graph0" class="graph" transform="scale(1 1) rotate(0) translate(4 202.2)">
<title>oneDegreeRelationshipsDiagram</title>
<polygon fill="#ffffff" stroke="transparent" points="-4,4 -4,-202.2 388,-202.2 388,4 -4,4"/>
<text text-anchor="middle" x="72.4936" y="-7.3" font-family="Helvetica,sans-Serif" font-size="11.00" fill="#000000">Generated by SchemaSpy</text>
<!-- organisation -->
<g id="node1" class="node">
<title>organisation</title>
<g id="a_node1"><a xlink:href="../../tables/organisation.html" xlink:title="organisation" target="_top">
<polygon fill="#ffffff" stroke="transparent" points="163,-38.2 163,-194.2 376,-194.2 376,-38.2 163,-38.2"/>
<polygon fill="#f5f5f5" stroke="transparent" points="165.5,-169.2 165.5,-192.2 374.5,-192.2 374.5,-169.2 165.5,-169.2"/>
<polygon fill="none" stroke="#000000" points="165.5,-169.2 165.5,-192.2 374.5,-192.2 374.5,-169.2 165.5,-169.2"/>
<text text-anchor="start" x="170.5" y="-177.8" font-family="Helvetica,sans-Serif" font-weight="bold" font-size="11.00" fill="#000000">organisation</text>
<text text-anchor="start" x="339.5437" y="-177.3" font-family="Helvetica,sans-Serif" font-size="11.00" fill="#000000">[table]</text>
<polygon fill="none" stroke="#000000" points="165.5,-147.2 165.5,-169.2 307.5,-169.2 307.5,-147.2 165.5,-147.2"/>
<text text-anchor="start" x="185.5" y="-154.3" font-family="Helvetica,sans-Serif" font-size="11.00" fill="#000000">establishment_date</text>
<polygon fill="none" stroke="#000000" points="307.5,-147.2 307.5,-169.2 374.5,-169.2 374.5,-147.2 307.5,-147.2"/>
<text text-anchor="start" x="310.5" y="-154.9" font-family="Helvetica,sans-Serif" font-size="11.00" fill="#000000">date[13]</text>
<polygon fill="none" stroke="#000000" points="165.5,-125.2 165.5,-147.2 307.5,-147.2 307.5,-125.2 165.5,-125.2"/>
<image xlink:href="../../images/primaryKeys.png" width="11px" height="12px" preserveAspectRatio="xMinYMin meet" x="170.5" y="-142.2"/>
<text text-anchor="start" x="185.5" y="-132.3" font-family="Helvetica,sans-Serif" font-size="11.00" fill="#000000">party_id</text>
<polygon fill="none" stroke="#000000" points="307.5,-125.2 307.5,-147.2 374.5,-147.2 374.5,-125.2 307.5,-125.2"/>
<text text-anchor="start" x="310.5" y="-132.9" font-family="Helvetica,sans-Serif" font-size="11.00" fill="#000000">int8[19]</text>
<polygon fill="none" stroke="#000000" points="165.5,-103.2 165.5,-125.2 307.5,-125.2 307.5,-103.2 165.5,-103.2"/>
<text text-anchor="start" x="185.5" y="-110.3" font-family="Helvetica,sans-Serif" font-size="11.00" fill="#000000">email</text>
<polygon fill="none" stroke="#000000" points="307.5,-103.2 307.5,-125.2 374.5,-125.2 374.5,-103.2 307.5,-103.2"/>
<text text-anchor="start" x="310.4365" y="-110.9" font-family="Helvetica,sans-Serif" font-size="11.00" fill="#000000">varchar[255]</text>
<polygon fill="#ffffff" stroke="transparent" points="165.5,-81.2 165.5,-103.2 307.5,-103.2 307.5,-81.2 165.5,-81.2"/>
<polygon fill="none" stroke="#000000" points="165.5,-81.2 165.5,-103.2 307.5,-103.2 307.5,-81.2 165.5,-81.2"/>
<text text-anchor="start" x="185.5" y="-88.3" font-family="Helvetica,sans-Serif" font-size="11.00" fill="#000000">name</text>
<polygon fill="none" stroke="#000000" points="307.5,-81.2 307.5,-103.2 374.5,-103.2 374.5,-81.2 307.5,-81.2"/>
<text text-anchor="start" x="310.4365" y="-88.9" font-family="Helvetica,sans-Serif" font-size="11.00" fill="#000000">varchar[255]</text>
<polygon fill="none" stroke="#000000" points="165.5,-59.2 165.5,-81.2 307.5,-81.2 307.5,-59.2 165.5,-59.2"/>
<text text-anchor="start" x="185.5" y="-66.3" font-family="Helvetica,sans-Serif" font-size="11.00" fill="#000000">phone_number</text>
<polygon fill="none" stroke="#000000" points="307.5,-59.2 307.5,-81.2 374.5,-81.2 374.5,-59.2 307.5,-59.2"/>
<text text-anchor="start" x="310.4365" y="-66.9" font-family="Helvetica,sans-Serif" font-size="11.00" fill="#000000">varchar[255]</text>
<polygon fill="#ffffff" stroke="transparent" points="165.5,-40.2 165.5,-59.2 374.5,-59.2 374.5,-40.2 165.5,-40.2"/>
<polygon fill="none" stroke="#000000" points="165.5,-40.2 165.5,-59.2 374.5,-59.2 374.5,-40.2 165.5,-40.2"/>
<polygon fill="#ffffff" stroke="transparent" points="166.5,-41.2 166.5,-58.2 238.5,-58.2 238.5,-41.2 166.5,-41.2"/>
<text text-anchor="start" x="168.5" y="-46.3" font-family="Helvetica,sans-Serif" font-size="11.00" fill="#000000">&lt; 1</text>
<polygon fill="#ffffff" stroke="transparent" points="238.5,-41.2 238.5,-58.2 301.5,-58.2 301.5,-41.2 238.5,-41.2"/>
<text text-anchor="start" x="266.9431" y="-46.3" font-family="Helvetica,sans-Serif" font-size="11.00" fill="#000000"> &#160;</text>
<polygon fill="#ffffff" stroke="transparent" points="301.5,-41.2 301.5,-58.2 373.5,-58.2 373.5,-41.2 301.5,-41.2"/>
<text text-anchor="start" x="355.9053" y="-46.3" font-family="Helvetica,sans-Serif" font-size="11.00" fill="#000000">0 &gt;</text>
<polygon fill="#000000" stroke="#000000" points="238.5,-41.2 238.5,-58.2 238.5,-58.2 238.5,-41.2 238.5,-41.2"/>
<polygon fill="#000000" stroke="#000000" points="301.5,-41.2 301.5,-58.2 301.5,-58.2 301.5,-41.2 301.5,-41.2"/>
<polygon fill="none" stroke="#000000" stroke-width="2" points="164,-39.2 164,-193.2 375,-193.2 375,-39.2 164,-39.2"/>
</a>
</g>
</g>
<!-- party -->
<g id="node2" class="node">
<title>party</title>
<g id="a_node2"><a xlink:href="../../tables/party.html" xlink:title="party" target="_top">
<polygon fill="#ffffff" stroke="transparent" points="8,-87.7 8,-170.7 114,-170.7 114,-87.7 8,-87.7"/>
<polygon fill="#f5f5f5" stroke="transparent" points="8,-147.2 8,-170.2 114,-170.2 114,-147.2 8,-147.2"/>
<polygon fill="none" stroke="#000000" points="8,-147.2 8,-170.2 114,-170.2 114,-147.2 8,-147.2"/>
<text text-anchor="start" x="13" y="-155.8" font-family="Helvetica,sans-Serif" font-weight="bold" font-size="11.00" fill="#000000">party</text>
<text text-anchor="start" x="79.0437" y="-155.3" font-family="Helvetica,sans-Serif" font-size="11.00" fill="#000000">[table]</text>
<polygon fill="none" stroke="#000000" points="8,-125.2 8,-147.2 114,-147.2 114,-125.2 8,-125.2"/>
<image xlink:href="../../images/primaryKeys.png" width="11px" height="12px" preserveAspectRatio="xMinYMin meet" x="13" y="-142.2"/>
<text text-anchor="start" x="28" y="-132.3" font-family="Helvetica,sans-Serif" font-size="11.00" fill="#000000">id</text>
<polygon fill="none" stroke="#000000" points="8,-106.2 8,-125.2 114,-125.2 114,-106.2 8,-106.2"/>
<text text-anchor="start" x="11" y="-112.3" font-family="Helvetica,sans-Serif" font-size="11.00" fill="#000000">...</text>
<polygon fill="#ffffff" stroke="transparent" points="8,-87.2 8,-106.2 114,-106.2 114,-87.2 8,-87.2"/>
<polygon fill="none" stroke="#000000" points="8,-87.2 8,-106.2 114,-106.2 114,-87.2 8,-87.2"/>
<polygon fill="#ffffff" stroke="transparent" points="9,-88.2 9,-105.2 28,-105.2 28,-88.2 9,-88.2"/>
<text text-anchor="start" x="11" y="-93.3" font-family="Helvetica,sans-Serif" font-size="11.00" fill="#000000"> &#160;</text>
<polygon fill="#ffffff" stroke="transparent" points="28,-88.2 28,-105.2 85,-105.2 85,-88.2 28,-88.2"/>
<text text-anchor="start" x="34.1903" y="-93.3" font-family="Helvetica,sans-Serif" font-size="11.00" fill="#000000">237 rows</text>
<polygon fill="#ffffff" stroke="transparent" points="85,-88.2 85,-105.2 113,-105.2 113,-88.2 85,-88.2"/>
<text text-anchor="start" x="95.4053" y="-93.3" font-family="Helvetica,sans-Serif" font-size="11.00" fill="#000000">4 &gt;</text>
<polygon fill="#000000" stroke="#000000" points="28,-88.2 28,-105.2 28,-105.2 28,-88.2 28,-88.2"/>
<polygon fill="#000000" stroke="#000000" points="85,-88.2 85,-105.2 85,-105.2 85,-88.2 85,-88.2"/>
</a>
</g>
</g>
<!-- organisation&#45;&gt;party -->
<g id="edge1" class="edge">
<title>organisation:w&#45;&gt;party:e</title>
<path fill="none" stroke="#000000" d="M155.045,-136.2C140.137,-136.2 132.9549,-136.2 114,-136.2"/>
<polygon fill="#000000" stroke="#000000" points="164.7,-132.2 164.7,-140.2 163.1,-140.2 163.1,-132.2 164.7,-132.2"/>
<polyline fill="none" stroke="#000000" points="165.5,-136.2 161.5,-136.2 "/>
<ellipse fill="none" stroke="#000000" cx="158.3" cy="-136.2001" rx="3.2" ry="3.2"/>
</g>
</g>
</svg>
