<?xml version="1.0" encoding="UTF-8" standalone="no"?>
<!DOCTYPE svg PUBLIC "-//W3C//DTD SVG 1.1//EN"
 "http://www.w3.org/Graphics/SVG/1.1/DTD/svg11.dtd">
<!-- Generated by graphviz version 2.40.1 (20161225.0304)
 -->
<!-- Title: twoDegreesRelationshipsDiagram Pages: 1 -->
<svg width="392pt" height="453pt"
 viewBox="0.00 0.00 392.00 453.20" xmlns="http://www.w3.org/2000/svg" xmlns:xlink="http://www.w3.org/1999/xlink">
<g id="graph0" class="graph" transform="scale(1 1) rotate(0) translate(4 449.2)">
<title>twoDegreesRelationshipsDiagram</title>
<polygon fill="#ffffff" stroke="transparent" points="-4,4 -4,-449.2 388,-449.2 388,4 -4,4"/>
<text text-anchor="middle" x="72.4936" y="-7.3" font-family="Helvetica,sans-Serif" font-size="11.00" fill="#000000">Generated by SchemaSpy</text>
<!-- individual -->
<g id="node1" class="node">
<title>individual</title>
<g id="a_node1"><a xlink:href="../../tables/individual.html" xlink:title="individual" target="_top">
<polygon fill="#ffffff" stroke="transparent" points="220,-380.2 220,-441.2 319,-441.2 319,-380.2 220,-380.2"/>
<polygon fill="#f5f5f5" stroke="transparent" points="220.5,-417.7 220.5,-440.7 319.5,-440.7 319.5,-417.7 220.5,-417.7"/>
<polygon fill="none" stroke="#000000" points="220.5,-417.7 220.5,-440.7 319.5,-440.7 319.5,-417.7 220.5,-417.7"/>
<text text-anchor="start" x="225.5" y="-426.3" font-family="Helvetica,sans-Serif" font-weight="bold" font-size="11.00" fill="#000000">individual</text>
<text text-anchor="start" x="285.0219" y="-425.8" font-family="Helvetica,sans-Serif" font-size="11.00" fill="#000000">[table]</text>
<polygon fill="none" stroke="#000000" points="220.5,-398.7 220.5,-417.7 319.5,-417.7 319.5,-398.7 220.5,-398.7"/>
<text text-anchor="start" x="223.5" y="-404.8" font-family="Helvetica,sans-Serif" font-size="11.00" fill="#000000">...</text>
<polygon fill="#ffffff" stroke="transparent" points="220.5,-379.7 220.5,-398.7 319.5,-398.7 319.5,-379.7 220.5,-379.7"/>
<polygon fill="none" stroke="#000000" points="220.5,-379.7 220.5,-398.7 319.5,-398.7 319.5,-379.7 220.5,-379.7"/>
<polygon fill="#ffffff" stroke="transparent" points="221.5,-380.7 221.5,-397.7 244.5,-397.7 244.5,-380.7 221.5,-380.7"/>
<text text-anchor="start" x="223.5" y="-385.8" font-family="Helvetica,sans-Serif" font-size="11.00" fill="#000000">&lt; 1</text>
<polygon fill="#ffffff" stroke="transparent" points="244.5,-380.7 244.5,-397.7 296.5,-397.7 296.5,-380.7 244.5,-380.7"/>
<text text-anchor="start" x="248.1904" y="-385.8" font-family="Helvetica,sans-Serif" font-size="11.00" fill="#000000">231 rows</text>
<polygon fill="#ffffff" stroke="transparent" points="296.5,-380.7 296.5,-397.7 318.5,-397.7 318.5,-380.7 296.5,-380.7"/>
<text text-anchor="start" x="300.9053" y="-385.8" font-family="Helvetica,sans-Serif" font-size="11.00" fill="#000000">1 &gt;</text>
<polygon fill="#000000" stroke="#000000" points="244.5,-380.7 244.5,-397.7 244.5,-397.7 244.5,-380.7 244.5,-380.7"/>
<polygon fill="#000000" stroke="#000000" points="296.5,-380.7 296.5,-397.7 296.5,-397.7 296.5,-380.7 296.5,-380.7"/>
</a>
</g>
</g>
<!-- party -->
<g id="node2" class="node">
<title>party</title>
<g id="a_node2"><a xlink:href="../../tables/party.html" xlink:title="party" target="_top">
<polygon fill="#ffffff" stroke="transparent" points="8,-175.2 8,-258.2 114,-258.2 114,-175.2 8,-175.2"/>
<polygon fill="#f5f5f5" stroke="transparent" points="8,-234.7 8,-257.7 114,-257.7 114,-234.7 8,-234.7"/>
<polygon fill="none" stroke="#000000" points="8,-234.7 8,-257.7 114,-257.7 114,-234.7 8,-234.7"/>
<text text-anchor="start" x="13" y="-243.3" font-family="Helvetica,sans-Serif" font-weight="bold" font-size="11.00" fill="#000000">party</text>
<text text-anchor="start" x="79.0437" y="-242.8" font-family="Helvetica,sans-Serif" font-size="11.00" fill="#000000">[table]</text>
<polygon fill="none" stroke="#000000" points="8,-212.7 8,-234.7 114,-234.7 114,-212.7 8,-212.7"/>
<image xlink:href="../../images/primaryKeys.png" width="11px" height="12px" preserveAspectRatio="xMinYMin meet" x="13" y="-229.7"/>
<text text-anchor="start" x="28" y="-219.8" font-family="Helvetica,sans-Serif" font-size="11.00" fill="#000000">id</text>
<polygon fill="none" stroke="#000000" points="8,-193.7 8,-212.7 114,-212.7 114,-193.7 8,-193.7"/>
<text text-anchor="start" x="11" y="-199.8" font-family="Helvetica,sans-Serif" font-size="11.00" fill="#000000">...</text>
<polygon fill="#ffffff" stroke="transparent" points="8,-174.7 8,-193.7 114,-193.7 114,-174.7 8,-174.7"/>
<polygon fill="none" stroke="#000000" points="8,-174.7 8,-193.7 114,-193.7 114,-174.7 8,-174.7"/>
<polygon fill="#ffffff" stroke="transparent" points="9,-175.7 9,-192.7 28,-192.7 28,-175.7 9,-175.7"/>
<text text-anchor="start" x="11" y="-180.8" font-family="Helvetica,sans-Serif" font-size="11.00" fill="#000000"> &#160;</text>
<polygon fill="#ffffff" stroke="transparent" points="28,-175.7 28,-192.7 85,-192.7 85,-175.7 28,-175.7"/>
<text text-anchor="start" x="34.1903" y="-180.8" font-family="Helvetica,sans-Serif" font-size="11.00" fill="#000000">237 rows</text>
<polygon fill="#ffffff" stroke="transparent" points="85,-175.7 85,-192.7 113,-192.7 113,-175.7 85,-175.7"/>
<text text-anchor="start" x="95.4053" y="-180.8" font-family="Helvetica,sans-Serif" font-size="11.00" fill="#000000">4 &gt;</text>
<polygon fill="#000000" stroke="#000000" points="28,-175.7 28,-192.7 28,-192.7 28,-175.7 28,-175.7"/>
<polygon fill="#000000" stroke="#000000" points="85,-175.7 85,-192.7 85,-192.7 85,-175.7 85,-175.7"/>
</a>
</g>
</g>
<!-- individual&#45;&gt;party -->
<g id="edge1" class="edge">
<title>individual:w&#45;&gt;party:e</title>
<path fill="none" stroke="#000000" d="M209.8797,-407.2556C184.1808,-404.922 173.2839,-393.286 155,-369.7 113.7067,-316.432 181.3989,-223.7 114,-223.7"/>
<polygon fill="#000000" stroke="#000000" points="219.868,-403.67 219.5334,-411.663 217.9348,-411.5961 218.2694,-403.6031 219.868,-403.67"/>
<polyline fill="none" stroke="#000000" points="220.5,-407.7 216.5035,-407.5327 "/>
<ellipse fill="none" stroke="#000000" cx="213.3063" cy="-407.3989" rx="3.2" ry="3.2"/>
</g>
<!-- organisation -->
<g id="node3" class="node">
<title>organisation</title>
<g id="a_node3"><a xlink:href="../../tables/organisation.html" xlink:title="organisation" target="_top">
<polygon fill="#ffffff" stroke="transparent" points="163,-202.7 163,-358.7 376,-358.7 376,-202.7 163,-202.7"/>
<polygon fill="#f5f5f5" stroke="transparent" points="165.5,-333.7 165.5,-356.7 374.5,-356.7 374.5,-333.7 165.5,-333.7"/>
<polygon fill="none" stroke="#000000" points="165.5,-333.7 165.5,-356.7 374.5,-356.7 374.5,-333.7 165.5,-333.7"/>
<text text-anchor="start" x="170.5" y="-342.3" font-family="Helvetica,sans-Serif" font-weight="bold" font-size="11.00" fill="#000000">organisation</text>
<text text-anchor="start" x="339.5437" y="-341.8" font-family="Helvetica,sans-Serif" font-size="11.00" fill="#000000">[table]</text>
<polygon fill="none" stroke="#000000" points="165.5,-311.7 165.5,-333.7 307.5,-333.7 307.5,-311.7 165.5,-311.7"/>
<text text-anchor="start" x="185.5" y="-318.8" font-family="Helvetica,sans-Serif" font-size="11.00" fill="#000000">establishment_date</text>
<polygon fill="none" stroke="#000000" points="307.5,-311.7 307.5,-333.7 374.5,-333.7 374.5,-311.7 307.5,-311.7"/>
<text text-anchor="start" x="310.5" y="-319.4" font-family="Helvetica,sans-Serif" font-size="11.00" fill="#000000">date[13]</text>
<polygon fill="none" stroke="#000000" points="165.5,-289.7 165.5,-311.7 307.5,-311.7 307.5,-289.7 165.5,-289.7"/>
<image xlink:href="../../images/primaryKeys.png" width="11px" height="12px" preserveAspectRatio="xMinYMin meet" x="170.5" y="-306.7"/>
<text text-anchor="start" x="185.5" y="-296.8" font-family="Helvetica,sans-Serif" font-size="11.00" fill="#000000">party_id</text>
<polygon fill="none" stroke="#000000" points="307.5,-289.7 307.5,-311.7 374.5,-311.7 374.5,-289.7 307.5,-289.7"/>
<text text-anchor="start" x="310.5" y="-297.4" font-family="Helvetica,sans-Serif" font-size="11.00" fill="#000000">int8[19]</text>
<polygon fill="none" stroke="#000000" points="165.5,-267.7 165.5,-289.7 307.5,-289.7 307.5,-267.7 165.5,-267.7"/>
<text text-anchor="start" x="185.5" y="-274.8" font-family="Helvetica,sans-Serif" font-size="11.00" fill="#000000">email</text>
<polygon fill="none" stroke="#000000" points="307.5,-267.7 307.5,-289.7 374.5,-289.7 374.5,-267.7 307.5,-267.7"/>
<text text-anchor="start" x="310.4365" y="-275.4" font-family="Helvetica,sans-Serif" font-size="11.00" fill="#000000">varchar[255]</text>
<polygon fill="#ffffff" stroke="transparent" points="165.5,-245.7 165.5,-267.7 307.5,-267.7 307.5,-245.7 165.5,-245.7"/>
<polygon fill="none" stroke="#000000" points="165.5,-245.7 165.5,-267.7 307.5,-267.7 307.5,-245.7 165.5,-245.7"/>
<text text-anchor="start" x="185.5" y="-252.8" font-family="Helvetica,sans-Serif" font-size="11.00" fill="#000000">name</text>
<polygon fill="none" stroke="#000000" points="307.5,-245.7 307.5,-267.7 374.5,-267.7 374.5,-245.7 307.5,-245.7"/>
<text text-anchor="start" x="310.4365" y="-253.4" font-family="Helvetica,sans-Serif" font-size="11.00" fill="#000000">varchar[255]</text>
<polygon fill="none" stroke="#000000" points="165.5,-223.7 165.5,-245.7 307.5,-245.7 307.5,-223.7 165.5,-223.7"/>
<text text-anchor="start" x="185.5" y="-230.8" font-family="Helvetica,sans-Serif" font-size="11.00" fill="#000000">phone_number</text>
<polygon fill="none" stroke="#000000" points="307.5,-223.7 307.5,-245.7 374.5,-245.7 374.5,-223.7 307.5,-223.7"/>
<text text-anchor="start" x="310.4365" y="-231.4" font-family="Helvetica,sans-Serif" font-size="11.00" fill="#000000">varchar[255]</text>
<polygon fill="#ffffff" stroke="transparent" points="165.5,-204.7 165.5,-223.7 374.5,-223.7 374.5,-204.7 165.5,-204.7"/>
<polygon fill="none" stroke="#000000" points="165.5,-204.7 165.5,-223.7 374.5,-223.7 374.5,-204.7 165.5,-204.7"/>
<polygon fill="#ffffff" stroke="transparent" points="166.5,-205.7 166.5,-222.7 238.5,-222.7 238.5,-205.7 166.5,-205.7"/>
<text text-anchor="start" x="168.5" y="-210.8" font-family="Helvetica,sans-Serif" font-size="11.00" fill="#000000">&lt; 1</text>
<polygon fill="#ffffff" stroke="transparent" points="238.5,-205.7 238.5,-222.7 301.5,-222.7 301.5,-205.7 238.5,-205.7"/>
<text text-anchor="start" x="266.9431" y="-210.8" font-family="Helvetica,sans-Serif" font-size="11.00" fill="#000000"> &#160;</text>
<polygon fill="#ffffff" stroke="transparent" points="301.5,-205.7 301.5,-222.7 373.5,-222.7 373.5,-205.7 301.5,-205.7"/>
<text text-anchor="start" x="355.9053" y="-210.8" font-family="Helvetica,sans-Serif" font-size="11.00" fill="#000000">0 &gt;</text>
<polygon fill="#000000" stroke="#000000" points="238.5,-205.7 238.5,-222.7 238.5,-222.7 238.5,-205.7 238.5,-205.7"/>
<polygon fill="#000000" stroke="#000000" points="301.5,-205.7 301.5,-222.7 301.5,-222.7 301.5,-205.7 301.5,-205.7"/>
<polygon fill="none" stroke="#000000" stroke-width="2" points="164,-203.7 164,-357.7 375,-357.7 375,-203.7 164,-203.7"/>
</a>
</g>
</g>
<!-- organisation&#45;&gt;party -->
<g id="edge2" class="edge">
<title>organisation:w&#45;&gt;party:e</title>
<path fill="none" stroke="#000000" d="M155.0332,-298.4786C129.8509,-285.8536 150.9897,-223.7 114,-223.7"/>
<polygon fill="#000000" stroke="#000000" points="165.5479,-296.6211 163.887,-304.4468 162.3218,-304.1146 163.9828,-296.2889 165.5479,-296.6211"/>
<polyline fill="none" stroke="#000000" points="165.5,-300.7 161.5872,-299.8695 "/>
<ellipse fill="none" stroke="#000000" cx="158.4569" cy="-299.2051" rx="3.2" ry="3.2"/>
</g>
<!-- party_address -->
<g id="node4" class="node">
<title>party_address</title>
<g id="a_node4"><a xlink:href="../../tables/party_address.html" xlink:title="party_address" target="_top">
<polygon fill="#ffffff" stroke="transparent" points="206,-120.2 206,-181.2 333,-181.2 333,-120.2 206,-120.2"/>
<polygon fill="#f5f5f5" stroke="transparent" points="206.5,-157.7 206.5,-180.7 333.5,-180.7 333.5,-157.7 206.5,-157.7"/>
<polygon fill="none" stroke="#000000" points="206.5,-157.7 206.5,-180.7 333.5,-180.7 333.5,-157.7 206.5,-157.7"/>
<text text-anchor="start" x="211.5" y="-166.3" font-family="Helvetica,sans-Serif" font-weight="bold" font-size="11.00" fill="#000000">party_address</text>
<text text-anchor="start" x="299.0219" y="-165.8" font-family="Helvetica,sans-Serif" font-size="11.00" fill="#000000">[table]</text>
<polygon fill="none" stroke="#000000" points="206.5,-138.7 206.5,-157.7 333.5,-157.7 333.5,-138.7 206.5,-138.7"/>
<text text-anchor="start" x="209.5" y="-144.8" font-family="Helvetica,sans-Serif" font-size="11.00" fill="#000000">...</text>
<polygon fill="#ffffff" stroke="transparent" points="206.5,-119.7 206.5,-138.7 333.5,-138.7 333.5,-119.7 206.5,-119.7"/>
<polygon fill="none" stroke="#000000" points="206.5,-119.7 206.5,-138.7 333.5,-138.7 333.5,-119.7 206.5,-119.7"/>
<polygon fill="#ffffff" stroke="transparent" points="207.5,-120.7 207.5,-137.7 242.5,-137.7 242.5,-120.7 207.5,-120.7"/>
<text text-anchor="start" x="209.5" y="-125.8" font-family="Helvetica,sans-Serif" font-size="11.00" fill="#000000">&lt; 2</text>
<polygon fill="#ffffff" stroke="transparent" points="242.5,-120.7 242.5,-137.7 306.5,-137.7 306.5,-120.7 242.5,-120.7"/>
<text text-anchor="start" x="252.1904" y="-125.8" font-family="Helvetica,sans-Serif" font-size="11.00" fill="#000000">237 rows</text>
<polygon fill="#ffffff" stroke="transparent" points="306.5,-120.7 306.5,-137.7 332.5,-137.7 332.5,-120.7 306.5,-120.7"/>
<text text-anchor="start" x="324.3862" y="-125.8" font-family="Helvetica,sans-Serif" font-size="11.00" fill="#000000"> &#160;</text>
<polygon fill="#000000" stroke="#000000" points="242.5,-120.7 242.5,-137.7 242.5,-137.7 242.5,-120.7 242.5,-120.7"/>
<polygon fill="#000000" stroke="#000000" points="306.5,-120.7 306.5,-137.7 306.5,-137.7 306.5,-120.7 306.5,-120.7"/>
</a>
</g>
</g>
<!-- party_address&#45;&gt;party -->
<g id="edge3" class="edge">
<title>party_address:w&#45;&gt;party:e</title>
<path fill="none" stroke="#000000" d="M192.8455,-152.9238C167.6358,-170.0943 136.3431,-223.7 114,-223.7"/>
<polygon fill="#000000" stroke="#000000" points="199.0281,-150.5586 207.7863,-151.0623 202.7641,-149.1293 206.5,-147.7 206.5,-147.7 206.5,-147.7 202.7641,-149.1293 205.2137,-144.3377 199.0281,-150.5586 199.0281,-150.5586"/>
<ellipse fill="none" stroke="#000000" cx="196.0394" cy="-151.702" rx="3.2" ry="3.2"/>
</g>
<!-- party_role -->
<g id="node5" class="node">
<title>party_role</title>
<g id="a_node5"><a xlink:href="../../tables/party_role.html" xlink:title="party_role" target="_top">
<polygon fill="#ffffff" stroke="transparent" points="219,-38.2 219,-99.2 320,-99.2 320,-38.2 219,-38.2"/>
<polygon fill="#f5f5f5" stroke="transparent" points="219.5,-75.7 219.5,-98.7 320.5,-98.7 320.5,-75.7 219.5,-75.7"/>
<polygon fill="none" stroke="#000000" points="219.5,-75.7 219.5,-98.7 320.5,-98.7 320.5,-75.7 219.5,-75.7"/>
<text text-anchor="start" x="224.5" y="-84.3" font-family="Helvetica,sans-Serif" font-weight="bold" font-size="11.00" fill="#000000">party_role</text>
<text text-anchor="start" x="286.0219" y="-83.8" font-family="Helvetica,sans-Serif" font-size="11.00" fill="#000000">[table]</text>
<polygon fill="none" stroke="#000000" points="219.5,-56.7 219.5,-75.7 320.5,-75.7 320.5,-56.7 219.5,-56.7"/>
<text text-anchor="start" x="222.5" y="-62.8" font-family="Helvetica,sans-Serif" font-size="11.00" fill="#000000">...</text>
<polygon fill="#ffffff" stroke="transparent" points="219.5,-37.7 219.5,-56.7 320.5,-56.7 320.5,-37.7 219.5,-37.7"/>
<polygon fill="none" stroke="#000000" points="219.5,-37.7 219.5,-56.7 320.5,-56.7 320.5,-37.7 219.5,-37.7"/>
<polygon fill="#ffffff" stroke="transparent" points="220.5,-38.7 220.5,-55.7 247.5,-55.7 247.5,-38.7 220.5,-38.7"/>
<text text-anchor="start" x="222.5" y="-43.8" font-family="Helvetica,sans-Serif" font-size="11.00" fill="#000000">&lt; 2</text>
<polygon fill="#ffffff" stroke="transparent" points="247.5,-38.7 247.5,-55.7 302.5,-55.7 302.5,-38.7 247.5,-38.7"/>
<text text-anchor="start" x="252.6904" y="-43.8" font-family="Helvetica,sans-Serif" font-size="11.00" fill="#000000">424 rows</text>
<polygon fill="#ffffff" stroke="transparent" points="302.5,-38.7 302.5,-55.7 319.5,-55.7 319.5,-38.7 302.5,-38.7"/>
<text text-anchor="start" x="311.3862" y="-43.8" font-family="Helvetica,sans-Serif" font-size="11.00" fill="#000000"> &#160;</text>
<polygon fill="#000000" stroke="#000000" points="247.5,-38.7 247.5,-55.7 247.5,-55.7 247.5,-38.7 247.5,-38.7"/>
<polygon fill="#000000" stroke="#000000" points="302.5,-38.7 302.5,-55.7 302.5,-55.7 302.5,-38.7 302.5,-38.7"/>
</a>
</g>
</g>
<!-- party_role&#45;&gt;party -->
<g id="edge4" class="edge">
<title>party_role:w&#45;&gt;party:e</title>
<path fill="none" stroke="#000000" d="M205.0003,-66.8911C181.8144,-71.1402 172.9214,-86.546 155,-109.7 122.0431,-152.2794 167.8439,-223.7 114,-223.7"/>
<polygon fill="#000000" stroke="#000000" points="211.5269,-66.355 219.7948,-69.2879 215.5134,-66.0275 219.5,-65.7 219.5,-65.7 219.5,-65.7 215.5134,-66.0275 219.2052,-62.1121 211.5269,-66.355 211.5269,-66.355"/>
<ellipse fill="none" stroke="#000000" cx="208.3376" cy="-66.617" rx="3.2" ry="3.2"/>
</g>
</g>
</svg>
