<?xml version="1.0" encoding="UTF-8" standalone="no"?>
<!DOCTYPE svg PUBLIC "-//W3C//DTD SVG 1.1//EN"
 "http://www.w3.org/Graphics/SVG/1.1/DTD/svg11.dtd">
<!-- Generated by graphviz version 2.40.1 (20161225.0304)
 -->
<!-- Title: oneDegreeRelationshipsDiagram Pages: 1 -->
<svg width="465pt" height="496pt"
 viewBox="0.00 0.00 465.00 495.70" xmlns="http://www.w3.org/2000/svg" xmlns:xlink="http://www.w3.org/1999/xlink">
<g id="graph0" class="graph" transform="scale(1 1) rotate(0) translate(4 491.7)">
<title>oneDegreeRelationshipsDiagram</title>
<polygon fill="#ffffff" stroke="transparent" points="-4,4 -4,-491.7 461,-491.7 461,4 -4,4"/>
<text text-anchor="middle" x="72.4936" y="-7.3" font-family="Helvetica,sans-Serif" font-size="11.00" fill="#000000">Generated by SchemaSpy</text>
<!-- individual -->
<g id="node1" class="node">
<title>individual</title>
<g id="a_node1"><a xlink:href="../../tables/individual.html" xlink:title="individual" target="_top">
<polygon fill="#ffffff" stroke="transparent" points="251,-378.7 251,-483.7 449,-483.7 449,-378.7 251,-378.7"/>
<polygon fill="#f5f5f5" stroke="transparent" points="251,-460.2 251,-483.2 449,-483.2 449,-460.2 251,-460.2"/>
<polygon fill="none" stroke="#000000" points="251,-460.2 251,-483.2 449,-483.2 449,-460.2 251,-460.2"/>
<text text-anchor="start" x="256" y="-468.8" font-family="Helvetica,sans-Serif" font-weight="bold" font-size="11.00" fill="#000000">individual</text>
<text text-anchor="start" x="414.0437" y="-468.3" font-family="Helvetica,sans-Serif" font-size="11.00" fill="#000000">[table]</text>
<polygon fill="none" stroke="#000000" points="251,-438.2 251,-460.2 449,-460.2 449,-438.2 251,-438.2"/>
<image xlink:href="../../images/primaryKeys.png" width="11px" height="12px" preserveAspectRatio="xMinYMin meet" x="256" y="-455.2"/>
<text text-anchor="start" x="271" y="-445.3" font-family="Helvetica,sans-Serif" font-size="11.00" fill="#000000">party_id</text>
<polygon fill="#ffffff" stroke="transparent" points="251,-416.2 251,-438.2 449,-438.2 449,-416.2 251,-416.2"/>
<polygon fill="none" stroke="#000000" points="251,-416.2 251,-438.2 449,-438.2 449,-416.2 251,-416.2"/>
<text text-anchor="start" x="271" y="-423.3" font-family="Helvetica,sans-Serif" font-size="11.00" fill="#000000">family_name</text>
<polygon fill="none" stroke="#000000" points="251,-397.2 251,-416.2 449,-416.2 449,-397.2 251,-397.2"/>
<text text-anchor="start" x="254" y="-403.3" font-family="Helvetica,sans-Serif" font-size="11.00" fill="#000000">...</text>
<polygon fill="#ffffff" stroke="transparent" points="251,-378.2 251,-397.2 449,-397.2 449,-378.2 251,-378.2"/>
<polygon fill="none" stroke="#000000" points="251,-378.2 251,-397.2 449,-397.2 449,-378.2 251,-378.2"/>
<polygon fill="#ffffff" stroke="transparent" points="252,-379.2 252,-396.2 308,-396.2 308,-379.2 252,-379.2"/>
<text text-anchor="start" x="254" y="-384.3" font-family="Helvetica,sans-Serif" font-size="11.00" fill="#000000">&lt; 1</text>
<polygon fill="#ffffff" stroke="transparent" points="308,-379.2 308,-396.2 393,-396.2 393,-379.2 308,-379.2"/>
<text text-anchor="start" x="328.1904" y="-384.3" font-family="Helvetica,sans-Serif" font-size="11.00" fill="#000000">231 rows</text>
<polygon fill="#ffffff" stroke="transparent" points="393,-379.2 393,-396.2 448,-396.2 448,-379.2 393,-379.2"/>
<text text-anchor="start" x="430.4053" y="-384.3" font-family="Helvetica,sans-Serif" font-size="11.00" fill="#000000">1 &gt;</text>
<polygon fill="#000000" stroke="#000000" points="308,-379.2 308,-396.2 308,-396.2 308,-379.2 308,-379.2"/>
<polygon fill="#000000" stroke="#000000" points="393,-379.2 393,-396.2 393,-396.2 393,-379.2 393,-379.2"/>
</a>
</g>
</g>
<!-- party -->
<g id="node2" class="node">
<title>party</title>
<g id="a_node2"><a xlink:href="../../tables/party.html" xlink:title="party" target="_top">
<polygon fill="#ffffff" stroke="transparent" points="8,-85.2 8,-307.2 202,-307.2 202,-85.2 8,-85.2"/>
<polygon fill="#f5f5f5" stroke="transparent" points="10,-282.2 10,-305.2 200,-305.2 200,-282.2 10,-282.2"/>
<polygon fill="none" stroke="#000000" points="10,-282.2 10,-305.2 200,-305.2 200,-282.2 10,-282.2"/>
<text text-anchor="start" x="15" y="-290.8" font-family="Helvetica,sans-Serif" font-weight="bold" font-size="11.00" fill="#000000">party</text>
<text text-anchor="start" x="165.0437" y="-290.3" font-family="Helvetica,sans-Serif" font-size="11.00" fill="#000000">[table]</text>
<polygon fill="none" stroke="#000000" points="10,-260.2 10,-282.2 116,-282.2 116,-260.2 10,-260.2"/>
<text text-anchor="start" x="30" y="-267.3" font-family="Helvetica,sans-Serif" font-size="11.00" fill="#000000">created_at</text>
<polygon fill="none" stroke="#000000" points="116,-260.2 116,-282.2 200,-282.2 200,-260.2 116,-260.2"/>
<text text-anchor="start" x="118.8807" y="-267.9" font-family="Helvetica,sans-Serif" font-size="11.00" fill="#000000">timestamp[29,6]</text>
<polygon fill="none" stroke="#000000" points="10,-238.2 10,-260.2 116,-260.2 116,-238.2 10,-238.2"/>
<image xlink:href="../../images/primaryKeys.png" width="11px" height="12px" preserveAspectRatio="xMinYMin meet" x="15" y="-255.2"/>
<text text-anchor="start" x="30" y="-245.3" font-family="Helvetica,sans-Serif" font-size="11.00" fill="#000000">id</text>
<polygon fill="none" stroke="#000000" points="116,-238.2 116,-260.2 200,-260.2 200,-238.2 116,-238.2"/>
<text text-anchor="start" x="119" y="-245.9" font-family="Helvetica,sans-Serif" font-size="11.00" fill="#000000">int8[19]</text>
<polygon fill="none" stroke="#000000" points="10,-216.2 10,-238.2 116,-238.2 116,-216.2 10,-216.2"/>
<text text-anchor="start" x="30" y="-223.3" font-family="Helvetica,sans-Serif" font-size="11.00" fill="#000000">updated_at</text>
<polygon fill="none" stroke="#000000" points="116,-216.2 116,-238.2 200,-238.2 200,-216.2 116,-216.2"/>
<text text-anchor="start" x="118.8807" y="-223.9" font-family="Helvetica,sans-Serif" font-size="11.00" fill="#000000">timestamp[29,6]</text>
<polygon fill="none" stroke="#000000" points="10,-194.2 10,-216.2 116,-216.2 116,-194.2 10,-194.2"/>
<text text-anchor="start" x="30" y="-201.3" font-family="Helvetica,sans-Serif" font-size="11.00" fill="#000000">created_by</text>
<polygon fill="none" stroke="#000000" points="116,-194.2 116,-216.2 200,-216.2 200,-194.2 116,-194.2"/>
<text text-anchor="start" x="119" y="-201.9" font-family="Helvetica,sans-Serif" font-size="11.00" fill="#000000">varchar[255]</text>
<polygon fill="none" stroke="#000000" points="10,-172.2 10,-194.2 116,-194.2 116,-172.2 10,-172.2"/>
<text text-anchor="start" x="30" y="-179.3" font-family="Helvetica,sans-Serif" font-size="11.00" fill="#000000">display_name</text>
<polygon fill="none" stroke="#000000" points="116,-172.2 116,-194.2 200,-194.2 200,-172.2 116,-172.2"/>
<text text-anchor="start" x="119" y="-179.9" font-family="Helvetica,sans-Serif" font-size="11.00" fill="#000000">varchar[255]</text>
<polygon fill="none" stroke="#000000" points="10,-150.2 10,-172.2 116,-172.2 116,-150.2 10,-150.2"/>
<text text-anchor="start" x="30" y="-157.3" font-family="Helvetica,sans-Serif" font-size="11.00" fill="#000000">legal_type</text>
<polygon fill="none" stroke="#000000" points="116,-150.2 116,-172.2 200,-172.2 200,-150.2 116,-150.2"/>
<text text-anchor="start" x="119" y="-157.9" font-family="Helvetica,sans-Serif" font-size="11.00" fill="#000000">varchar[255]</text>
<polygon fill="none" stroke="#000000" points="10,-128.2 10,-150.2 116,-150.2 116,-128.2 10,-128.2"/>
<text text-anchor="start" x="30" y="-135.3" font-family="Helvetica,sans-Serif" font-size="11.00" fill="#000000">type</text>
<polygon fill="none" stroke="#000000" points="116,-128.2 116,-150.2 200,-150.2 200,-128.2 116,-128.2"/>
<text text-anchor="start" x="119" y="-135.9" font-family="Helvetica,sans-Serif" font-size="11.00" fill="#000000">varchar[255]</text>
<polygon fill="none" stroke="#000000" points="10,-106.2 10,-128.2 116,-128.2 116,-106.2 10,-106.2"/>
<text text-anchor="start" x="30" y="-113.3" font-family="Helvetica,sans-Serif" font-size="11.00" fill="#000000">updated_by</text>
<polygon fill="none" stroke="#000000" points="116,-106.2 116,-128.2 200,-128.2 200,-106.2 116,-106.2"/>
<text text-anchor="start" x="119" y="-113.9" font-family="Helvetica,sans-Serif" font-size="11.00" fill="#000000">varchar[255]</text>
<polygon fill="#ffffff" stroke="transparent" points="10,-87.2 10,-106.2 200,-106.2 200,-87.2 10,-87.2"/>
<polygon fill="none" stroke="#000000" points="10,-87.2 10,-106.2 200,-106.2 200,-87.2 10,-87.2"/>
<polygon fill="#ffffff" stroke="transparent" points="11,-88.2 11,-105.2 64,-105.2 64,-88.2 11,-88.2"/>
<text text-anchor="start" x="13" y="-93.3" font-family="Helvetica,sans-Serif" font-size="11.00" fill="#000000">&lt; 0</text>
<polygon fill="#ffffff" stroke="transparent" points="64,-88.2 64,-105.2 146,-105.2 146,-88.2 64,-88.2"/>
<text text-anchor="start" x="82.6904" y="-93.3" font-family="Helvetica,sans-Serif" font-size="11.00" fill="#000000">237 rows</text>
<polygon fill="#ffffff" stroke="transparent" points="146,-88.2 146,-105.2 199,-105.2 199,-88.2 146,-88.2"/>
<text text-anchor="start" x="181.4053" y="-93.3" font-family="Helvetica,sans-Serif" font-size="11.00" fill="#000000">4 &gt;</text>
<polygon fill="#000000" stroke="#000000" points="64,-88.2 64,-105.2 64,-105.2 64,-88.2 64,-88.2"/>
<polygon fill="#000000" stroke="#000000" points="146,-88.2 146,-105.2 146,-105.2 146,-88.2 146,-88.2"/>
<polygon fill="none" stroke="#000000" stroke-width="2" points="9,-86.2 9,-306.2 201,-306.2 201,-86.2 9,-86.2"/>
</a>
</g>
</g>
<!-- individual&#45;&gt;party -->
<g id="edge1" class="edge">
<title>individual:w&#45;&gt;party:e</title>
<path fill="none" stroke="#000000" d="M240.3813,-448.1239C170.2365,-432.3818 287.7917,-249.2 200,-249.2"/>
<polygon fill="#000000" stroke="#000000" points="250.6074,-445.1397 249.8008,-453.099 248.2089,-452.9376 249.0155,-444.9784 250.6074,-445.1397"/>
<polyline fill="none" stroke="#000000" points="251,-449.2 247.0204,-448.7967 "/>
<ellipse fill="none" stroke="#000000" cx="243.8367" cy="-448.474" rx="3.2" ry="3.2"/>
</g>
<!-- organisation -->
<g id="node3" class="node">
<title>organisation</title>
<g id="a_node3"><a xlink:href="../../tables/organisation.html" xlink:title="organisation" target="_top">
<polygon fill="#ffffff" stroke="transparent" points="279,-252.7 279,-357.7 421,-357.7 421,-252.7 279,-252.7"/>
<polygon fill="#f5f5f5" stroke="transparent" points="279,-334.2 279,-357.2 421,-357.2 421,-334.2 279,-334.2"/>
<polygon fill="none" stroke="#000000" points="279,-334.2 279,-357.2 421,-357.2 421,-334.2 279,-334.2"/>
<text text-anchor="start" x="284" y="-342.8" font-family="Helvetica,sans-Serif" font-weight="bold" font-size="11.00" fill="#000000">organisation</text>
<text text-anchor="start" x="386.0437" y="-342.3" font-family="Helvetica,sans-Serif" font-size="11.00" fill="#000000">[table]</text>
<polygon fill="none" stroke="#000000" points="279,-312.2 279,-334.2 421,-334.2 421,-312.2 279,-312.2"/>
<image xlink:href="../../images/primaryKeys.png" width="11px" height="12px" preserveAspectRatio="xMinYMin meet" x="284" y="-329.2"/>
<text text-anchor="start" x="299" y="-319.3" font-family="Helvetica,sans-Serif" font-size="11.00" fill="#000000">party_id</text>
<polygon fill="#ffffff" stroke="transparent" points="279,-290.2 279,-312.2 421,-312.2 421,-290.2 279,-290.2"/>
<polygon fill="none" stroke="#000000" points="279,-290.2 279,-312.2 421,-312.2 421,-290.2 279,-290.2"/>
<text text-anchor="start" x="299" y="-297.3" font-family="Helvetica,sans-Serif" font-size="11.00" fill="#000000">name</text>
<polygon fill="none" stroke="#000000" points="279,-271.2 279,-290.2 421,-290.2 421,-271.2 279,-271.2"/>
<text text-anchor="start" x="282" y="-277.3" font-family="Helvetica,sans-Serif" font-size="11.00" fill="#000000">...</text>
<polygon fill="#ffffff" stroke="transparent" points="279,-252.2 279,-271.2 421,-271.2 421,-252.2 279,-252.2"/>
<polygon fill="none" stroke="#000000" points="279,-252.2 279,-271.2 421,-271.2 421,-252.2 279,-252.2"/>
<polygon fill="#ffffff" stroke="transparent" points="280,-253.2 280,-270.2 333,-270.2 333,-253.2 280,-253.2"/>
<text text-anchor="start" x="282" y="-258.3" font-family="Helvetica,sans-Serif" font-size="11.00" fill="#000000">&lt; 1</text>
<polygon fill="#ffffff" stroke="transparent" points="333,-253.2 333,-270.2 377,-270.2 377,-253.2 333,-253.2"/>
<text text-anchor="start" x="351.9431" y="-258.3" font-family="Helvetica,sans-Serif" font-size="11.00" fill="#000000"> &#160;</text>
<polygon fill="#ffffff" stroke="transparent" points="377,-253.2 377,-270.2 420,-270.2 420,-253.2 377,-253.2"/>
<text text-anchor="start" x="411.8862" y="-258.3" font-family="Helvetica,sans-Serif" font-size="11.00" fill="#000000"> &#160;</text>
<polygon fill="#000000" stroke="#000000" points="333,-253.2 333,-270.2 333,-270.2 333,-253.2 333,-253.2"/>
<polygon fill="#000000" stroke="#000000" points="377,-253.2 377,-270.2 377,-270.2 377,-253.2 377,-253.2"/>
</a>
</g>
</g>
<!-- organisation&#45;&gt;party -->
<g id="edge2" class="edge">
<title>organisation:w&#45;&gt;party:e</title>
<path fill="none" stroke="#000000" d="M268.4073,-321.7878C233.2763,-311.5573 244.1625,-249.2 200,-249.2"/>
<polygon fill="#000000" stroke="#000000" points="278.7356,-319.1294 277.6784,-327.0592 276.0924,-326.8477 277.1497,-318.9179 278.7356,-319.1294"/>
<polyline fill="none" stroke="#000000" points="279,-323.2 275.0351,-322.6714 "/>
<ellipse fill="none" stroke="#000000" cx="271.8631" cy="-322.2485" rx="3.2" ry="3.2"/>
</g>
<!-- party_address -->
<g id="node4" class="node">
<title>party_address</title>
<g id="a_node4"><a xlink:href="../../tables/party_address.html" xlink:title="party_address" target="_top">
<polygon fill="#ffffff" stroke="transparent" points="286.5,-145.2 286.5,-231.2 413.5,-231.2 413.5,-145.2 286.5,-145.2"/>
<polygon fill="#f5f5f5" stroke="transparent" points="287,-208.2 287,-231.2 414,-231.2 414,-208.2 287,-208.2"/>
<polygon fill="none" stroke="#000000" points="287,-208.2 287,-231.2 414,-231.2 414,-208.2 287,-208.2"/>
<text text-anchor="start" x="292" y="-216.8" font-family="Helvetica,sans-Serif" font-weight="bold" font-size="11.00" fill="#000000">party_address</text>
<text text-anchor="start" x="379.5219" y="-216.3" font-family="Helvetica,sans-Serif" font-size="11.00" fill="#000000">[table]</text>
<polygon fill="none" stroke="#000000" points="287,-186.2 287,-208.2 414,-208.2 414,-186.2 287,-186.2"/>
<image xlink:href="../../images/primaryKeys.png" width="11px" height="12px" preserveAspectRatio="xMinYMin meet" x="292" y="-203.2"/>
<text text-anchor="start" x="316" y="-193.3" font-family="Helvetica,sans-Serif" font-size="11.00" fill="#000000">location_id</text>
<polygon fill="none" stroke="#000000" points="287,-164.2 287,-186.2 414,-186.2 414,-164.2 287,-164.2"/>
<image xlink:href="../../images/primaryKeys.png" width="11px" height="12px" preserveAspectRatio="xMinYMin meet" x="292" y="-181.2"/>
<text text-anchor="start" x="316" y="-171.3" font-family="Helvetica,sans-Serif" font-size="11.00" fill="#000000">party_id</text>
<polygon fill="#ffffff" stroke="transparent" points="287,-145.2 287,-164.2 414,-164.2 414,-145.2 287,-145.2"/>
<polygon fill="none" stroke="#000000" points="287,-145.2 287,-164.2 414,-164.2 414,-145.2 287,-145.2"/>
<polygon fill="#ffffff" stroke="transparent" points="288,-146.2 288,-163.2 323,-163.2 323,-146.2 288,-146.2"/>
<text text-anchor="start" x="290" y="-151.3" font-family="Helvetica,sans-Serif" font-size="11.00" fill="#000000">&lt; 2</text>
<polygon fill="#ffffff" stroke="transparent" points="323,-146.2 323,-163.2 387,-163.2 387,-146.2 323,-146.2"/>
<text text-anchor="start" x="332.6904" y="-151.3" font-family="Helvetica,sans-Serif" font-size="11.00" fill="#000000">237 rows</text>
<polygon fill="#ffffff" stroke="transparent" points="387,-146.2 387,-163.2 413,-163.2 413,-146.2 387,-146.2"/>
<text text-anchor="start" x="404.8862" y="-151.3" font-family="Helvetica,sans-Serif" font-size="11.00" fill="#000000"> &#160;</text>
<polygon fill="#000000" stroke="#000000" points="323,-146.2 323,-163.2 323,-163.2 323,-146.2 323,-146.2"/>
<polygon fill="#000000" stroke="#000000" points="387,-146.2 387,-163.2 387,-163.2 387,-146.2 387,-146.2"/>
</a>
</g>
</g>
<!-- party_address&#45;&gt;party -->
<g id="edge3" class="edge">
<title>party_address:w&#45;&gt;party:e</title>
<path fill="none" stroke="#000000" d="M272.5159,-177.6621C238.6341,-190.5022 245.21,-249.2 200,-249.2"/>
<polygon fill="#000000" stroke="#000000" points="279.1131,-176.5407 287.6033,-178.7491 283.0566,-175.8704 287,-175.2 287,-175.2 287,-175.2 283.0566,-175.8704 286.3967,-171.6509 279.1131,-176.5407 279.1131,-176.5407"/>
<ellipse fill="none" stroke="#000000" cx="275.9584" cy="-177.077" rx="3.2" ry="3.2"/>
</g>
<!-- party_role -->
<g id="node5" class="node">
<title>party_role</title>
<g id="a_node5"><a xlink:href="../../tables/party_role.html" xlink:title="party_role" target="_top">
<polygon fill="#ffffff" stroke="transparent" points="299.5,-38.2 299.5,-124.2 400.5,-124.2 400.5,-38.2 299.5,-38.2"/>
<polygon fill="#f5f5f5" stroke="transparent" points="300,-101.2 300,-124.2 401,-124.2 401,-101.2 300,-101.2"/>
<polygon fill="none" stroke="#000000" points="300,-101.2 300,-124.2 401,-124.2 401,-101.2 300,-101.2"/>
<text text-anchor="start" x="305" y="-109.8" font-family="Helvetica,sans-Serif" font-weight="bold" font-size="11.00" fill="#000000">party_role</text>
<text text-anchor="start" x="366.5219" y="-109.3" font-family="Helvetica,sans-Serif" font-size="11.00" fill="#000000">[table]</text>
<polygon fill="none" stroke="#000000" points="300,-79.2 300,-101.2 401,-101.2 401,-79.2 300,-79.2"/>
<image xlink:href="../../images/primaryKeys.png" width="11px" height="12px" preserveAspectRatio="xMinYMin meet" x="305" y="-96.2"/>
<text text-anchor="start" x="329" y="-86.3" font-family="Helvetica,sans-Serif" font-size="11.00" fill="#000000">party_id</text>
<polygon fill="none" stroke="#000000" points="300,-57.2 300,-79.2 401,-79.2 401,-57.2 300,-57.2"/>
<image xlink:href="../../images/primaryKeys.png" width="11px" height="12px" preserveAspectRatio="xMinYMin meet" x="305" y="-74.2"/>
<text text-anchor="start" x="329" y="-64.3" font-family="Helvetica,sans-Serif" font-size="11.00" fill="#000000">role_id</text>
<polygon fill="#ffffff" stroke="transparent" points="300,-38.2 300,-57.2 401,-57.2 401,-38.2 300,-38.2"/>
<polygon fill="none" stroke="#000000" points="300,-38.2 300,-57.2 401,-57.2 401,-38.2 300,-38.2"/>
<polygon fill="#ffffff" stroke="transparent" points="301,-39.2 301,-56.2 328,-56.2 328,-39.2 301,-39.2"/>
<text text-anchor="start" x="303" y="-44.3" font-family="Helvetica,sans-Serif" font-size="11.00" fill="#000000">&lt; 2</text>
<polygon fill="#ffffff" stroke="transparent" points="328,-39.2 328,-56.2 383,-56.2 383,-39.2 328,-39.2"/>
<text text-anchor="start" x="333.1904" y="-44.3" font-family="Helvetica,sans-Serif" font-size="11.00" fill="#000000">424 rows</text>
<polygon fill="#ffffff" stroke="transparent" points="383,-39.2 383,-56.2 400,-56.2 400,-39.2 383,-39.2"/>
<text text-anchor="start" x="391.8862" y="-44.3" font-family="Helvetica,sans-Serif" font-size="11.00" fill="#000000"> &#160;</text>
<polygon fill="#000000" stroke="#000000" points="328,-39.2 328,-56.2 328,-56.2 328,-39.2 328,-39.2"/>
<polygon fill="#000000" stroke="#000000" points="383,-39.2 383,-56.2 383,-56.2 383,-39.2 383,-39.2"/>
</a>
</g>
</g>
<!-- party_role&#45;&gt;party -->
<g id="edge4" class="edge">
<title>party_role:w&#45;&gt;party:e</title>
<path fill="none" stroke="#000000" d="M285.5126,-91.8192C265.3801,-96.9238 258.7818,-113.6274 243,-135.2 211.0272,-178.9045 254.1511,-249.2 200,-249.2"/>
<polygon fill="#000000" stroke="#000000" points="292.0495,-91.0887 300.3999,-93.7777 296.0248,-90.6443 300,-90.2 300,-90.2 300,-90.2 296.0248,-90.6443 299.6001,-86.6223 292.0495,-91.0887 292.0495,-91.0887"/>
<ellipse fill="none" stroke="#000000" cx="288.8693" cy="-91.4441" rx="3.2" ry="3.2"/>
</g>
</g>
</svg>
