<?xml version="1.0" encoding="UTF-8" standalone="no"?>
<!DOCTYPE svg PUBLIC "-//W3C//DTD SVG 1.1//EN"
 "http://www.w3.org/Graphics/SVG/1.1/DTD/svg11.dtd">
<!-- Generated by graphviz version 2.40.1 (20161225.0304)
 -->
<!-- Title: twoDegreesRelationshipsDiagram Pages: 1 -->
<svg width="471pt" height="387pt"
 viewBox="0.00 0.00 471.00 386.70" xmlns="http://www.w3.org/2000/svg" xmlns:xlink="http://www.w3.org/1999/xlink">
<g id="graph0" class="graph" transform="scale(1 1) rotate(0) translate(4 382.7)">
<title>twoDegreesRelationshipsDiagram</title>
<polygon fill="#ffffff" stroke="transparent" points="-4,4 -4,-382.7 467,-382.7 467,4 -4,4"/>
<text text-anchor="middle" x="72.4936" y="-7.3" font-family="Helvetica,sans-Serif" font-size="11.00" fill="#000000">Generated by SchemaSpy</text>
<!-- address -->
<g id="node1" class="node">
<title>address</title>
<g id="a_node1"><a xlink:href="../../tables/address.html" xlink:title="address" target="_top">
<polygon fill="#ffffff" stroke="transparent" points="146,-290.2 146,-373.2 250,-373.2 250,-290.2 146,-290.2"/>
<polygon fill="#f5f5f5" stroke="transparent" points="146,-349.7 146,-372.7 250,-372.7 250,-349.7 146,-349.7"/>
<polygon fill="none" stroke="#000000" points="146,-349.7 146,-372.7 250,-372.7 250,-349.7 146,-349.7"/>
<text text-anchor="start" x="151" y="-358.3" font-family="Helvetica,sans-Serif" font-weight="bold" font-size="11.00" fill="#000000">address</text>
<text text-anchor="start" x="215.0437" y="-357.8" font-family="Helvetica,sans-Serif" font-size="11.00" fill="#000000">[table]</text>
<polygon fill="none" stroke="#000000" points="146,-327.7 146,-349.7 250,-349.7 250,-327.7 146,-327.7"/>
<image xlink:href="../../images/primaryKeys.png" width="11px" height="12px" preserveAspectRatio="xMinYMin meet" x="151" y="-344.7"/>
<text text-anchor="start" x="166" y="-334.8" font-family="Helvetica,sans-Serif" font-size="11.00" fill="#000000">location_id</text>
<polygon fill="none" stroke="#000000" points="146,-308.7 146,-327.7 250,-327.7 250,-308.7 146,-308.7"/>
<text text-anchor="start" x="149" y="-314.8" font-family="Helvetica,sans-Serif" font-size="11.00" fill="#000000">...</text>
<polygon fill="#ffffff" stroke="transparent" points="146,-289.7 146,-308.7 250,-308.7 250,-289.7 146,-289.7"/>
<polygon fill="none" stroke="#000000" points="146,-289.7 146,-308.7 250,-308.7 250,-289.7 146,-289.7"/>
<polygon fill="#ffffff" stroke="transparent" points="147,-290.7 147,-307.7 184,-307.7 184,-290.7 147,-290.7"/>
<text text-anchor="start" x="149" y="-295.8" font-family="Helvetica,sans-Serif" font-size="11.00" fill="#000000">&lt; 1</text>
<polygon fill="#ffffff" stroke="transparent" points="184,-290.7 184,-307.7 212,-307.7 212,-290.7 184,-290.7"/>
<text text-anchor="start" x="194.9431" y="-295.8" font-family="Helvetica,sans-Serif" font-size="11.00" fill="#000000"> &#160;</text>
<polygon fill="#ffffff" stroke="transparent" points="212,-290.7 212,-307.7 249,-307.7 249,-290.7 212,-290.7"/>
<text text-anchor="start" x="231.4053" y="-295.8" font-family="Helvetica,sans-Serif" font-size="11.00" fill="#000000">1 &gt;</text>
<polygon fill="#000000" stroke="#000000" points="184,-290.7 184,-307.7 184,-307.7 184,-290.7 184,-290.7"/>
<polygon fill="#000000" stroke="#000000" points="212,-290.7 212,-307.7 212,-307.7 212,-290.7 212,-290.7"/>
</a>
</g>
</g>
<!-- location -->
<g id="node2" class="node">
<title>location</title>
<g id="a_node2"><a xlink:href="../../tables/location.html" xlink:title="location" target="_top">
<polygon fill="#ffffff" stroke="transparent" points="8,-311.2 8,-372.2 96,-372.2 96,-311.2 8,-311.2"/>
<polygon fill="#f5f5f5" stroke="transparent" points="8,-348.7 8,-371.7 96,-371.7 96,-348.7 8,-348.7"/>
<polygon fill="none" stroke="#000000" points="8,-348.7 8,-371.7 96,-371.7 96,-348.7 8,-348.7"/>
<text text-anchor="start" x="13" y="-357.3" font-family="Helvetica,sans-Serif" font-weight="bold" font-size="11.00" fill="#000000">location</text>
<text text-anchor="start" x="61.5219" y="-356.8" font-family="Helvetica,sans-Serif" font-size="11.00" fill="#000000">[table]</text>
<polygon fill="none" stroke="#000000" points="8,-329.7 8,-348.7 96,-348.7 96,-329.7 8,-329.7"/>
<text text-anchor="start" x="11" y="-335.8" font-family="Helvetica,sans-Serif" font-size="11.00" fill="#000000">...</text>
<polygon fill="#ffffff" stroke="transparent" points="8,-310.7 8,-329.7 96,-329.7 96,-310.7 8,-310.7"/>
<polygon fill="none" stroke="#000000" points="8,-310.7 8,-329.7 96,-329.7 96,-310.7 8,-310.7"/>
<polygon fill="#ffffff" stroke="transparent" points="9,-311.7 9,-328.7 35,-328.7 35,-311.7 9,-311.7"/>
<text text-anchor="start" x="11" y="-316.8" font-family="Helvetica,sans-Serif" font-size="11.00" fill="#000000"> &#160;</text>
<polygon fill="#ffffff" stroke="transparent" points="35,-311.7 35,-328.7 61,-328.7 61,-311.7 35,-311.7"/>
<text text-anchor="start" x="44.9431" y="-316.8" font-family="Helvetica,sans-Serif" font-size="11.00" fill="#000000"> &#160;</text>
<polygon fill="#ffffff" stroke="transparent" points="61,-311.7 61,-328.7 95,-328.7 95,-311.7 61,-311.7"/>
<text text-anchor="start" x="77.4053" y="-316.8" font-family="Helvetica,sans-Serif" font-size="11.00" fill="#000000">1 &gt;</text>
<polygon fill="#000000" stroke="#000000" points="35,-311.7 35,-328.7 35,-328.7 35,-311.7 35,-311.7"/>
<polygon fill="#000000" stroke="#000000" points="61,-311.7 61,-328.7 61,-328.7 61,-311.7 61,-311.7"/>
</a>
</g>
</g>
<!-- address&#45;&gt;location -->
<g id="edge1" class="edge">
<title>address:w&#45;&gt;location:e</title>
<path fill="none" stroke="#000000" d="M135.4418,-338.7C121.2431,-338.7 114.2292,-338.7 96,-338.7"/>
<polygon fill="#000000" stroke="#000000" points="145.2,-334.7 145.2,-342.7 143.6,-342.7 143.6,-334.7 145.2,-334.7"/>
<polyline fill="none" stroke="#000000" points="146,-338.7 142,-338.7 "/>
<ellipse fill="none" stroke="#000000" cx="138.8" cy="-338.7001" rx="3.2" ry="3.2"/>
</g>
<!-- individual -->
<g id="node3" class="node">
<title>individual</title>
<g id="a_node3"><a xlink:href="../../tables/individual.html" xlink:title="individual" target="_top">
<polygon fill="#ffffff" stroke="transparent" points="328,-202.2 328,-263.2 427,-263.2 427,-202.2 328,-202.2"/>
<polygon fill="#f5f5f5" stroke="transparent" points="328.5,-239.7 328.5,-262.7 427.5,-262.7 427.5,-239.7 328.5,-239.7"/>
<polygon fill="none" stroke="#000000" points="328.5,-239.7 328.5,-262.7 427.5,-262.7 427.5,-239.7 328.5,-239.7"/>
<text text-anchor="start" x="333.5" y="-248.3" font-family="Helvetica,sans-Serif" font-weight="bold" font-size="11.00" fill="#000000">individual</text>
<text text-anchor="start" x="393.0219" y="-247.8" font-family="Helvetica,sans-Serif" font-size="11.00" fill="#000000">[table]</text>
<polygon fill="none" stroke="#000000" points="328.5,-220.7 328.5,-239.7 427.5,-239.7 427.5,-220.7 328.5,-220.7"/>
<text text-anchor="start" x="331.5" y="-226.8" font-family="Helvetica,sans-Serif" font-size="11.00" fill="#000000">...</text>
<polygon fill="#ffffff" stroke="transparent" points="328.5,-201.7 328.5,-220.7 427.5,-220.7 427.5,-201.7 328.5,-201.7"/>
<polygon fill="none" stroke="#000000" points="328.5,-201.7 328.5,-220.7 427.5,-220.7 427.5,-201.7 328.5,-201.7"/>
<polygon fill="#ffffff" stroke="transparent" points="329.5,-202.7 329.5,-219.7 352.5,-219.7 352.5,-202.7 329.5,-202.7"/>
<text text-anchor="start" x="331.5" y="-207.8" font-family="Helvetica,sans-Serif" font-size="11.00" fill="#000000">&lt; 1</text>
<polygon fill="#ffffff" stroke="transparent" points="352.5,-202.7 352.5,-219.7 404.5,-219.7 404.5,-202.7 352.5,-202.7"/>
<text text-anchor="start" x="356.1904" y="-207.8" font-family="Helvetica,sans-Serif" font-size="11.00" fill="#000000">231 rows</text>
<polygon fill="#ffffff" stroke="transparent" points="404.5,-202.7 404.5,-219.7 426.5,-219.7 426.5,-202.7 404.5,-202.7"/>
<text text-anchor="start" x="408.9053" y="-207.8" font-family="Helvetica,sans-Serif" font-size="11.00" fill="#000000">1 &gt;</text>
<polygon fill="#000000" stroke="#000000" points="352.5,-202.7 352.5,-219.7 352.5,-219.7 352.5,-202.7 352.5,-202.7"/>
<polygon fill="#000000" stroke="#000000" points="404.5,-202.7 404.5,-219.7 404.5,-219.7 404.5,-202.7 404.5,-202.7"/>
</a>
</g>
</g>
<!-- party -->
<g id="node4" class="node">
<title>party</title>
<g id="a_node4"><a xlink:href="../../tables/party.html" xlink:title="party" target="_top">
<polygon fill="#ffffff" stroke="transparent" points="145,-140.2 145,-223.2 251,-223.2 251,-140.2 145,-140.2"/>
<polygon fill="#f5f5f5" stroke="transparent" points="145,-199.7 145,-222.7 251,-222.7 251,-199.7 145,-199.7"/>
<polygon fill="none" stroke="#000000" points="145,-199.7 145,-222.7 251,-222.7 251,-199.7 145,-199.7"/>
<text text-anchor="start" x="150" y="-208.3" font-family="Helvetica,sans-Serif" font-weight="bold" font-size="11.00" fill="#000000">party</text>
<text text-anchor="start" x="216.0437" y="-207.8" font-family="Helvetica,sans-Serif" font-size="11.00" fill="#000000">[table]</text>
<polygon fill="none" stroke="#000000" points="145,-177.7 145,-199.7 251,-199.7 251,-177.7 145,-177.7"/>
<image xlink:href="../../images/primaryKeys.png" width="11px" height="12px" preserveAspectRatio="xMinYMin meet" x="150" y="-194.7"/>
<text text-anchor="start" x="165" y="-184.8" font-family="Helvetica,sans-Serif" font-size="11.00" fill="#000000">id</text>
<polygon fill="none" stroke="#000000" points="145,-158.7 145,-177.7 251,-177.7 251,-158.7 145,-158.7"/>
<text text-anchor="start" x="148" y="-164.8" font-family="Helvetica,sans-Serif" font-size="11.00" fill="#000000">...</text>
<polygon fill="#ffffff" stroke="transparent" points="145,-139.7 145,-158.7 251,-158.7 251,-139.7 145,-139.7"/>
<polygon fill="none" stroke="#000000" points="145,-139.7 145,-158.7 251,-158.7 251,-139.7 145,-139.7"/>
<polygon fill="#ffffff" stroke="transparent" points="146,-140.7 146,-157.7 165,-157.7 165,-140.7 146,-140.7"/>
<text text-anchor="start" x="148" y="-145.8" font-family="Helvetica,sans-Serif" font-size="11.00" fill="#000000"> &#160;</text>
<polygon fill="#ffffff" stroke="transparent" points="165,-140.7 165,-157.7 222,-157.7 222,-140.7 165,-140.7"/>
<text text-anchor="start" x="171.1904" y="-145.8" font-family="Helvetica,sans-Serif" font-size="11.00" fill="#000000">237 rows</text>
<polygon fill="#ffffff" stroke="transparent" points="222,-140.7 222,-157.7 250,-157.7 250,-140.7 222,-140.7"/>
<text text-anchor="start" x="232.4053" y="-145.8" font-family="Helvetica,sans-Serif" font-size="11.00" fill="#000000">4 &gt;</text>
<polygon fill="#000000" stroke="#000000" points="165,-140.7 165,-157.7 165,-157.7 165,-140.7 165,-140.7"/>
<polygon fill="#000000" stroke="#000000" points="222,-140.7 222,-157.7 222,-157.7 222,-140.7 222,-140.7"/>
</a>
</g>
</g>
<!-- individual&#45;&gt;party -->
<g id="edge2" class="edge">
<title>individual:w&#45;&gt;party:e</title>
<path fill="none" stroke="#000000" d="M318.1377,-228.6033C289.2417,-222.0832 286.1621,-188.7 251,-188.7"/>
<polygon fill="#000000" stroke="#000000" points="328.1254,-225.638 327.2834,-233.5936 325.6923,-233.4252 326.5343,-225.4696 328.1254,-225.638"/>
<polyline fill="none" stroke="#000000" points="328.5,-229.7 324.5222,-229.279 "/>
<ellipse fill="none" stroke="#000000" cx="321.34" cy="-228.9422" rx="3.2" ry="3.2"/>
</g>
<!-- organisation -->
<g id="node5" class="node">
<title>organisation</title>
<g id="a_node5"><a xlink:href="../../tables/organisation.html" xlink:title="organisation" target="_top">
<polygon fill="#ffffff" stroke="transparent" points="319,-120.2 319,-181.2 436,-181.2 436,-120.2 319,-120.2"/>
<polygon fill="#f5f5f5" stroke="transparent" points="319.5,-157.7 319.5,-180.7 436.5,-180.7 436.5,-157.7 319.5,-157.7"/>
<polygon fill="none" stroke="#000000" points="319.5,-157.7 319.5,-180.7 436.5,-180.7 436.5,-157.7 319.5,-157.7"/>
<text text-anchor="start" x="324.5" y="-166.3" font-family="Helvetica,sans-Serif" font-weight="bold" font-size="11.00" fill="#000000">organisation</text>
<text text-anchor="start" x="402.0219" y="-165.8" font-family="Helvetica,sans-Serif" font-size="11.00" fill="#000000">[table]</text>
<polygon fill="none" stroke="#000000" points="319.5,-138.7 319.5,-157.7 436.5,-157.7 436.5,-138.7 319.5,-138.7"/>
<text text-anchor="start" x="322.5" y="-144.8" font-family="Helvetica,sans-Serif" font-size="11.00" fill="#000000">...</text>
<polygon fill="#ffffff" stroke="transparent" points="319.5,-119.7 319.5,-138.7 436.5,-138.7 436.5,-119.7 319.5,-119.7"/>
<polygon fill="none" stroke="#000000" points="319.5,-119.7 319.5,-138.7 436.5,-138.7 436.5,-119.7 319.5,-119.7"/>
<polygon fill="#ffffff" stroke="transparent" points="320.5,-120.7 320.5,-137.7 365.5,-137.7 365.5,-120.7 320.5,-120.7"/>
<text text-anchor="start" x="322.5" y="-125.8" font-family="Helvetica,sans-Serif" font-size="11.00" fill="#000000">&lt; 1</text>
<polygon fill="#ffffff" stroke="transparent" points="365.5,-120.7 365.5,-137.7 400.5,-137.7 400.5,-120.7 365.5,-120.7"/>
<text text-anchor="start" x="379.9431" y="-125.8" font-family="Helvetica,sans-Serif" font-size="11.00" fill="#000000"> &#160;</text>
<polygon fill="#ffffff" stroke="transparent" points="400.5,-120.7 400.5,-137.7 435.5,-137.7 435.5,-120.7 400.5,-120.7"/>
<text text-anchor="start" x="427.3862" y="-125.8" font-family="Helvetica,sans-Serif" font-size="11.00" fill="#000000"> &#160;</text>
<polygon fill="#000000" stroke="#000000" points="365.5,-120.7 365.5,-137.7 365.5,-137.7 365.5,-120.7 365.5,-120.7"/>
<polygon fill="#000000" stroke="#000000" points="400.5,-120.7 400.5,-137.7 400.5,-137.7 400.5,-120.7 400.5,-120.7"/>
</a>
</g>
</g>
<!-- organisation&#45;&gt;party -->
<g id="edge3" class="edge">
<title>organisation:w&#45;&gt;party:e</title>
<path fill="none" stroke="#000000" d="M309.1202,-149.0641C284.1036,-156.1783 282.6004,-188.7 251,-188.7"/>
<polygon fill="#000000" stroke="#000000" points="318.1856,-143.8384 319.2281,-151.7701 317.6417,-151.9786 316.5992,-144.0468 318.1856,-143.8384"/>
<polyline fill="none" stroke="#000000" points="319.5,-147.7 315.5341,-148.2212 "/>
<ellipse fill="none" stroke="#000000" cx="312.3614" cy="-148.6382" rx="3.2" ry="3.2"/>
</g>
<!-- party_address -->
<g id="node6" class="node">
<title>party_address</title>
<g id="a_node6"><a xlink:href="../../tables/party_address.html" xlink:title="party_address" target="_top">
<polygon fill="#ffffff" stroke="transparent" points="300,-284.7 300,-374.7 455,-374.7 455,-284.7 300,-284.7"/>
<polygon fill="#f5f5f5" stroke="transparent" points="302.5,-349.7 302.5,-372.7 453.5,-372.7 453.5,-349.7 302.5,-349.7"/>
<polygon fill="none" stroke="#000000" points="302.5,-349.7 302.5,-372.7 453.5,-372.7 453.5,-349.7 302.5,-349.7"/>
<text text-anchor="start" x="307.5" y="-358.3" font-family="Helvetica,sans-Serif" font-weight="bold" font-size="11.00" fill="#000000">party_address</text>
<text text-anchor="start" x="418.5437" y="-357.8" font-family="Helvetica,sans-Serif" font-size="11.00" fill="#000000">[table]</text>
<polygon fill="none" stroke="#000000" points="302.5,-327.7 302.5,-349.7 411.5,-349.7 411.5,-327.7 302.5,-327.7"/>
<image xlink:href="../../images/primaryKeys.png" width="11px" height="12px" preserveAspectRatio="xMinYMin meet" x="307.5" y="-344.7"/>
<text text-anchor="start" x="322.5" y="-334.8" font-family="Helvetica,sans-Serif" font-size="11.00" fill="#000000">location_id</text>
<polygon fill="none" stroke="#000000" points="411.5,-327.7 411.5,-349.7 453.5,-349.7 453.5,-327.7 411.5,-327.7"/>
<text text-anchor="start" x="414.4644" y="-335.4" font-family="Helvetica,sans-Serif" font-size="11.00" fill="#000000">int8[19]</text>
<polygon fill="none" stroke="#000000" points="302.5,-305.7 302.5,-327.7 411.5,-327.7 411.5,-305.7 302.5,-305.7"/>
<image xlink:href="../../images/primaryKeys.png" width="11px" height="12px" preserveAspectRatio="xMinYMin meet" x="307.5" y="-322.7"/>
<text text-anchor="start" x="322.5" y="-312.8" font-family="Helvetica,sans-Serif" font-size="11.00" fill="#000000">party_id</text>
<polygon fill="none" stroke="#000000" points="411.5,-305.7 411.5,-327.7 453.5,-327.7 453.5,-305.7 411.5,-305.7"/>
<text text-anchor="start" x="414.4644" y="-313.4" font-family="Helvetica,sans-Serif" font-size="11.00" fill="#000000">int8[19]</text>
<polygon fill="#ffffff" stroke="transparent" points="302.5,-286.7 302.5,-305.7 453.5,-305.7 453.5,-286.7 302.5,-286.7"/>
<polygon fill="none" stroke="#000000" points="302.5,-286.7 302.5,-305.7 453.5,-305.7 453.5,-286.7 302.5,-286.7"/>
<polygon fill="#ffffff" stroke="transparent" points="303.5,-287.7 303.5,-304.7 343.5,-304.7 343.5,-287.7 303.5,-287.7"/>
<text text-anchor="start" x="305.5" y="-292.8" font-family="Helvetica,sans-Serif" font-size="11.00" fill="#000000">&lt; 2</text>
<polygon fill="#ffffff" stroke="transparent" points="343.5,-287.7 343.5,-304.7 412.5,-304.7 412.5,-287.7 343.5,-287.7"/>
<text text-anchor="start" x="355.6904" y="-292.8" font-family="Helvetica,sans-Serif" font-size="11.00" fill="#000000">237 rows</text>
<polygon fill="#ffffff" stroke="transparent" points="412.5,-287.7 412.5,-304.7 452.5,-304.7 452.5,-287.7 412.5,-287.7"/>
<text text-anchor="start" x="434.9053" y="-292.8" font-family="Helvetica,sans-Serif" font-size="11.00" fill="#000000">0 &gt;</text>
<polygon fill="#000000" stroke="#000000" points="343.5,-287.7 343.5,-304.7 343.5,-304.7 343.5,-287.7 343.5,-287.7"/>
<polygon fill="#000000" stroke="#000000" points="412.5,-287.7 412.5,-304.7 412.5,-304.7 412.5,-287.7 412.5,-287.7"/>
<polygon fill="none" stroke="#000000" stroke-width="2" points="301,-285.7 301,-373.7 454,-373.7 454,-285.7 301,-285.7"/>
</a>
</g>
</g>
<!-- party_address&#45;&gt;address -->
<g id="edge4" class="edge">
<title>party_address:w&#45;&gt;address:e</title>
<path fill="none" stroke="#000000" d="M287.7344,-338.7C275.1563,-338.7 267.5,-338.7 250,-338.7"/>
<polygon fill="#000000" stroke="#000000" points="294.5,-338.7001 302.5,-342.3 298.5,-338.7 302.5,-338.7 302.5,-338.7 302.5,-338.7 298.5,-338.7 302.5,-335.1 294.5,-338.7001 294.5,-338.7001"/>
<ellipse fill="none" stroke="#000000" cx="291.3" cy="-338.7001" rx="3.2" ry="3.2"/>
</g>
<!-- party_address&#45;&gt;party -->
<g id="edge5" class="edge">
<title>party_address:w&#45;&gt;party:e</title>
<path fill="none" stroke="#000000" d="M288.078,-313.2763C253.8108,-292.9207 306.3325,-188.7 251,-188.7"/>
<polygon fill="#000000" stroke="#000000" points="294.7163,-314.8522 301.6685,-320.2027 298.6082,-315.7761 302.5,-316.7 302.5,-316.7 302.5,-316.7 298.6082,-315.7761 303.3315,-313.1973 294.7163,-314.8522 294.7163,-314.8522"/>
<ellipse fill="none" stroke="#000000" cx="291.6028" cy="-314.113" rx="3.2" ry="3.2"/>
</g>
<!-- party_role -->
<g id="node7" class="node">
<title>party_role</title>
<g id="a_node7"><a xlink:href="../../tables/party_role.html" xlink:title="party_role" target="_top">
<polygon fill="#ffffff" stroke="transparent" points="327,-38.2 327,-99.2 428,-99.2 428,-38.2 327,-38.2"/>
<polygon fill="#f5f5f5" stroke="transparent" points="327.5,-75.7 327.5,-98.7 428.5,-98.7 428.5,-75.7 327.5,-75.7"/>
<polygon fill="none" stroke="#000000" points="327.5,-75.7 327.5,-98.7 428.5,-98.7 428.5,-75.7 327.5,-75.7"/>
<text text-anchor="start" x="332.5" y="-84.3" font-family="Helvetica,sans-Serif" font-weight="bold" font-size="11.00" fill="#000000">party_role</text>
<text text-anchor="start" x="394.0219" y="-83.8" font-family="Helvetica,sans-Serif" font-size="11.00" fill="#000000">[table]</text>
<polygon fill="none" stroke="#000000" points="327.5,-56.7 327.5,-75.7 428.5,-75.7 428.5,-56.7 327.5,-56.7"/>
<text text-anchor="start" x="330.5" y="-62.8" font-family="Helvetica,sans-Serif" font-size="11.00" fill="#000000">...</text>
<polygon fill="#ffffff" stroke="transparent" points="327.5,-37.7 327.5,-56.7 428.5,-56.7 428.5,-37.7 327.5,-37.7"/>
<polygon fill="none" stroke="#000000" points="327.5,-37.7 327.5,-56.7 428.5,-56.7 428.5,-37.7 327.5,-37.7"/>
<polygon fill="#ffffff" stroke="transparent" points="328.5,-38.7 328.5,-55.7 355.5,-55.7 355.5,-38.7 328.5,-38.7"/>
<text text-anchor="start" x="330.5" y="-43.8" font-family="Helvetica,sans-Serif" font-size="11.00" fill="#000000">&lt; 2</text>
<polygon fill="#ffffff" stroke="transparent" points="355.5,-38.7 355.5,-55.7 410.5,-55.7 410.5,-38.7 355.5,-38.7"/>
<text text-anchor="start" x="360.6904" y="-43.8" font-family="Helvetica,sans-Serif" font-size="11.00" fill="#000000">424 rows</text>
<polygon fill="#ffffff" stroke="transparent" points="410.5,-38.7 410.5,-55.7 427.5,-55.7 427.5,-38.7 410.5,-38.7"/>
<text text-anchor="start" x="419.3862" y="-43.8" font-family="Helvetica,sans-Serif" font-size="11.00" fill="#000000"> &#160;</text>
<polygon fill="#000000" stroke="#000000" points="355.5,-38.7 355.5,-55.7 355.5,-55.7 355.5,-38.7 355.5,-38.7"/>
<polygon fill="#000000" stroke="#000000" points="410.5,-38.7 410.5,-55.7 410.5,-55.7 410.5,-38.7 410.5,-38.7"/>
</a>
</g>
</g>
<!-- party_role&#45;&gt;party -->
<g id="edge6" class="edge">
<title>party_role:w&#45;&gt;party:e</title>
<path fill="none" stroke="#000000" d="M313.07,-68.3834C271.4071,-86.3709 309.7192,-188.7 251,-188.7"/>
<polygon fill="#000000" stroke="#000000" points="319.6348,-67.1627 328.1582,-69.2393 323.5674,-66.4313 327.5,-65.7 327.5,-65.7 327.5,-65.7 323.5674,-66.4313 326.8418,-62.1607 319.6348,-67.1627 319.6348,-67.1627"/>
<ellipse fill="none" stroke="#000000" cx="316.4888" cy="-67.7477" rx="3.2" ry="3.2"/>
</g>
</g>
</svg>
