<?xml version="1.0" encoding="UTF-8" standalone="no"?>
<!DOCTYPE svg PUBLIC "-//W3C//DTD SVG 1.1//EN"
 "http://www.w3.org/Graphics/SVG/1.1/DTD/svg11.dtd">
<!-- Generated by graphviz version 2.40.1 (20161225.0304)
 -->
<!-- Title: oneDegreeRelationshipsDiagram Pages: 1 -->
<svg width="334pt" height="237pt"
 viewBox="0.00 0.00 334.00 237.20" xmlns="http://www.w3.org/2000/svg" xmlns:xlink="http://www.w3.org/1999/xlink">
<g id="graph0" class="graph" transform="scale(1 1) rotate(0) translate(4 233.2)">
<title>oneDegreeRelationshipsDiagram</title>
<polygon fill="#ffffff" stroke="transparent" points="-4,4 -4,-233.2 330,-233.2 330,4 -4,4"/>
<text text-anchor="middle" x="72.4936" y="-7.3" font-family="Helvetica,sans-Serif" font-size="11.00" fill="#000000">Generated by SchemaSpy</text>
<!-- party_address -->
<g id="node1" class="node">
<title>party_address</title>
<g id="a_node1"><a xlink:href="../../tables/party_address.html" xlink:title="party_address" target="_top">
<polygon fill="#ffffff" stroke="transparent" points="163,-95.7 163,-185.7 318,-185.7 318,-95.7 163,-95.7"/>
<polygon fill="#f5f5f5" stroke="transparent" points="165.5,-160.7 165.5,-183.7 316.5,-183.7 316.5,-160.7 165.5,-160.7"/>
<polygon fill="none" stroke="#000000" points="165.5,-160.7 165.5,-183.7 316.5,-183.7 316.5,-160.7 165.5,-160.7"/>
<text text-anchor="start" x="170.5" y="-169.3" font-family="Helvetica,sans-Serif" font-weight="bold" font-size="11.00" fill="#000000">party_address</text>
<text text-anchor="start" x="281.5437" y="-168.8" font-family="Helvetica,sans-Serif" font-size="11.00" fill="#000000">[table]</text>
<polygon fill="none" stroke="#000000" points="165.5,-138.7 165.5,-160.7 274.5,-160.7 274.5,-138.7 165.5,-138.7"/>
<image xlink:href="../../images/primaryKeys.png" width="11px" height="12px" preserveAspectRatio="xMinYMin meet" x="170.5" y="-155.7"/>
<text text-anchor="start" x="185.5" y="-145.8" font-family="Helvetica,sans-Serif" font-size="11.00" fill="#000000">location_id</text>
<polygon fill="none" stroke="#000000" points="274.5,-138.7 274.5,-160.7 316.5,-160.7 316.5,-138.7 274.5,-138.7"/>
<text text-anchor="start" x="277.4644" y="-146.4" font-family="Helvetica,sans-Serif" font-size="11.00" fill="#000000">int8[19]</text>
<polygon fill="none" stroke="#000000" points="165.5,-116.7 165.5,-138.7 274.5,-138.7 274.5,-116.7 165.5,-116.7"/>
<image xlink:href="../../images/primaryKeys.png" width="11px" height="12px" preserveAspectRatio="xMinYMin meet" x="170.5" y="-133.7"/>
<text text-anchor="start" x="185.5" y="-123.8" font-family="Helvetica,sans-Serif" font-size="11.00" fill="#000000">party_id</text>
<polygon fill="none" stroke="#000000" points="274.5,-116.7 274.5,-138.7 316.5,-138.7 316.5,-116.7 274.5,-116.7"/>
<text text-anchor="start" x="277.4644" y="-124.4" font-family="Helvetica,sans-Serif" font-size="11.00" fill="#000000">int8[19]</text>
<polygon fill="#ffffff" stroke="transparent" points="165.5,-97.7 165.5,-116.7 316.5,-116.7 316.5,-97.7 165.5,-97.7"/>
<polygon fill="none" stroke="#000000" points="165.5,-97.7 165.5,-116.7 316.5,-116.7 316.5,-97.7 165.5,-97.7"/>
<polygon fill="#ffffff" stroke="transparent" points="166.5,-98.7 166.5,-115.7 206.5,-115.7 206.5,-98.7 166.5,-98.7"/>
<text text-anchor="start" x="168.5" y="-103.8" font-family="Helvetica,sans-Serif" font-size="11.00" fill="#000000">&lt; 2</text>
<polygon fill="#ffffff" stroke="transparent" points="206.5,-98.7 206.5,-115.7 275.5,-115.7 275.5,-98.7 206.5,-98.7"/>
<text text-anchor="start" x="218.6904" y="-103.8" font-family="Helvetica,sans-Serif" font-size="11.00" fill="#000000">237 rows</text>
<polygon fill="#ffffff" stroke="transparent" points="275.5,-98.7 275.5,-115.7 315.5,-115.7 315.5,-98.7 275.5,-98.7"/>
<text text-anchor="start" x="297.9053" y="-103.8" font-family="Helvetica,sans-Serif" font-size="11.00" fill="#000000">0 &gt;</text>
<polygon fill="#000000" stroke="#000000" points="206.5,-98.7 206.5,-115.7 206.5,-115.7 206.5,-98.7 206.5,-98.7"/>
<polygon fill="#000000" stroke="#000000" points="275.5,-98.7 275.5,-115.7 275.5,-115.7 275.5,-98.7 275.5,-98.7"/>
<polygon fill="none" stroke="#000000" stroke-width="2" points="164,-96.7 164,-184.7 317,-184.7 317,-96.7 164,-96.7"/>
</a>
</g>
</g>
<!-- address -->
<g id="node2" class="node">
<title>address</title>
<g id="a_node2"><a xlink:href="../../tables/address.html" xlink:title="address" target="_top">
<polygon fill="#ffffff" stroke="transparent" points="9,-142.2 9,-225.2 113,-225.2 113,-142.2 9,-142.2"/>
<polygon fill="#f5f5f5" stroke="transparent" points="9,-201.7 9,-224.7 113,-224.7 113,-201.7 9,-201.7"/>
<polygon fill="none" stroke="#000000" points="9,-201.7 9,-224.7 113,-224.7 113,-201.7 9,-201.7"/>
<text text-anchor="start" x="14" y="-210.3" font-family="Helvetica,sans-Serif" font-weight="bold" font-size="11.00" fill="#000000">address</text>
<text text-anchor="start" x="78.0437" y="-209.8" font-family="Helvetica,sans-Serif" font-size="11.00" fill="#000000">[table]</text>
<polygon fill="none" stroke="#000000" points="9,-179.7 9,-201.7 113,-201.7 113,-179.7 9,-179.7"/>
<image xlink:href="../../images/primaryKeys.png" width="11px" height="12px" preserveAspectRatio="xMinYMin meet" x="14" y="-196.7"/>
<text text-anchor="start" x="29" y="-186.8" font-family="Helvetica,sans-Serif" font-size="11.00" fill="#000000">location_id</text>
<polygon fill="none" stroke="#000000" points="9,-160.7 9,-179.7 113,-179.7 113,-160.7 9,-160.7"/>
<text text-anchor="start" x="12" y="-166.8" font-family="Helvetica,sans-Serif" font-size="11.00" fill="#000000">...</text>
<polygon fill="#ffffff" stroke="transparent" points="9,-141.7 9,-160.7 113,-160.7 113,-141.7 9,-141.7"/>
<polygon fill="none" stroke="#000000" points="9,-141.7 9,-160.7 113,-160.7 113,-141.7 9,-141.7"/>
<polygon fill="#ffffff" stroke="transparent" points="10,-142.7 10,-159.7 47,-159.7 47,-142.7 10,-142.7"/>
<text text-anchor="start" x="12" y="-147.8" font-family="Helvetica,sans-Serif" font-size="11.00" fill="#000000">&lt; 1</text>
<polygon fill="#ffffff" stroke="transparent" points="47,-142.7 47,-159.7 75,-159.7 75,-142.7 47,-142.7"/>
<text text-anchor="start" x="57.9431" y="-147.8" font-family="Helvetica,sans-Serif" font-size="11.00" fill="#000000"> &#160;</text>
<polygon fill="#ffffff" stroke="transparent" points="75,-142.7 75,-159.7 112,-159.7 112,-142.7 75,-142.7"/>
<text text-anchor="start" x="94.4053" y="-147.8" font-family="Helvetica,sans-Serif" font-size="11.00" fill="#000000">1 &gt;</text>
<polygon fill="#000000" stroke="#000000" points="47,-142.7 47,-159.7 47,-159.7 47,-142.7 47,-142.7"/>
<polygon fill="#000000" stroke="#000000" points="75,-142.7 75,-159.7 75,-159.7 75,-142.7 75,-142.7"/>
</a>
</g>
</g>
<!-- party_address&#45;&gt;address -->
<g id="edge1" class="edge">
<title>party_address:w&#45;&gt;address:e</title>
<path fill="none" stroke="#000000" d="M151.3456,-154.0877C137.1224,-164.6646 136.592,-190.7 113,-190.7"/>
<polygon fill="#000000" stroke="#000000" points="157.8587,-152.0688 166.5659,-153.1386 161.6794,-150.8844 165.5,-149.7 165.5,-149.7 165.5,-149.7 161.6794,-150.8844 164.4341,-146.2614 157.8587,-152.0688 157.8587,-152.0688"/>
<ellipse fill="none" stroke="#000000" cx="154.8022" cy="-153.0163" rx="3.2" ry="3.2"/>
</g>
<!-- party -->
<g id="node3" class="node">
<title>party</title>
<g id="a_node3"><a xlink:href="../../tables/party.html" xlink:title="party" target="_top">
<polygon fill="#ffffff" stroke="transparent" points="8,-38.2 8,-121.2 114,-121.2 114,-38.2 8,-38.2"/>
<polygon fill="#f5f5f5" stroke="transparent" points="8,-97.7 8,-120.7 114,-120.7 114,-97.7 8,-97.7"/>
<polygon fill="none" stroke="#000000" points="8,-97.7 8,-120.7 114,-120.7 114,-97.7 8,-97.7"/>
<text text-anchor="start" x="13" y="-106.3" font-family="Helvetica,sans-Serif" font-weight="bold" font-size="11.00" fill="#000000">party</text>
<text text-anchor="start" x="79.0437" y="-105.8" font-family="Helvetica,sans-Serif" font-size="11.00" fill="#000000">[table]</text>
<polygon fill="none" stroke="#000000" points="8,-75.7 8,-97.7 114,-97.7 114,-75.7 8,-75.7"/>
<image xlink:href="../../images/primaryKeys.png" width="11px" height="12px" preserveAspectRatio="xMinYMin meet" x="13" y="-92.7"/>
<text text-anchor="start" x="28" y="-82.8" font-family="Helvetica,sans-Serif" font-size="11.00" fill="#000000">id</text>
<polygon fill="none" stroke="#000000" points="8,-56.7 8,-75.7 114,-75.7 114,-56.7 8,-56.7"/>
<text text-anchor="start" x="11" y="-62.8" font-family="Helvetica,sans-Serif" font-size="11.00" fill="#000000">...</text>
<polygon fill="#ffffff" stroke="transparent" points="8,-37.7 8,-56.7 114,-56.7 114,-37.7 8,-37.7"/>
<polygon fill="none" stroke="#000000" points="8,-37.7 8,-56.7 114,-56.7 114,-37.7 8,-37.7"/>
<polygon fill="#ffffff" stroke="transparent" points="9,-38.7 9,-55.7 28,-55.7 28,-38.7 9,-38.7"/>
<text text-anchor="start" x="11" y="-43.8" font-family="Helvetica,sans-Serif" font-size="11.00" fill="#000000"> &#160;</text>
<polygon fill="#ffffff" stroke="transparent" points="28,-38.7 28,-55.7 85,-55.7 85,-38.7 28,-38.7"/>
<text text-anchor="start" x="34.1903" y="-43.8" font-family="Helvetica,sans-Serif" font-size="11.00" fill="#000000">237 rows</text>
<polygon fill="#ffffff" stroke="transparent" points="85,-38.7 85,-55.7 113,-55.7 113,-38.7 85,-38.7"/>
<text text-anchor="start" x="95.4053" y="-43.8" font-family="Helvetica,sans-Serif" font-size="11.00" fill="#000000">4 &gt;</text>
<polygon fill="#000000" stroke="#000000" points="28,-38.7 28,-55.7 28,-55.7 28,-38.7 28,-38.7"/>
<polygon fill="#000000" stroke="#000000" points="85,-38.7 85,-55.7 85,-55.7 85,-38.7 85,-38.7"/>
</a>
</g>
</g>
<!-- party_address&#45;&gt;party -->
<g id="edge2" class="edge">
<title>party_address:w&#45;&gt;party:e</title>
<path fill="none" stroke="#000000" d="M151.5533,-123.3123C137.596,-112.7354 137.3139,-86.7 114,-86.7"/>
<polygon fill="#000000" stroke="#000000" points="157.8687,-125.2991 164.4196,-131.1341 161.6844,-126.4996 165.5,-127.7 165.5,-127.7 165.5,-127.7 161.6844,-126.4996 166.5804,-124.2659 157.8687,-125.2991 157.8687,-125.2991"/>
<ellipse fill="none" stroke="#000000" cx="154.8162" cy="-124.3388" rx="3.2" ry="3.2"/>
</g>
</g>
</svg>
