<?xml version="1.0" encoding="UTF-8" standalone="no"?>
<!DOCTYPE svg PUBLIC "-//W3C//DTD SVG 1.1//EN"
 "http://www.w3.org/Graphics/SVG/1.1/DTD/svg11.dtd">
<!-- Generated by graphviz version 2.40.1 (20161225.0304)
 -->
<!-- Title: twoDegreesRelationshipsDiagram Pages: 1 -->
<svg width="654pt" height="496pt"
 viewBox="0.00 0.00 654.00 496.20" xmlns="http://www.w3.org/2000/svg" xmlns:xlink="http://www.w3.org/1999/xlink">
<g id="graph0" class="graph" transform="scale(1 1) rotate(0) translate(4 492.2)">
<title>twoDegreesRelationshipsDiagram</title>
<polygon fill="#ffffff" stroke="transparent" points="-4,4 -4,-492.2 650,-492.2 650,4 -4,4"/>
<text text-anchor="middle" x="72.4936" y="-7.3" font-family="Helvetica,sans-Serif" font-size="11.00" fill="#000000">Generated by SchemaSpy</text>
<!-- individual -->
<g id="node1" class="node">
<title>individual</title>
<g id="a_node1"><a xlink:href="../../tables/individual.html" xlink:title="individual" target="_top">
<polygon fill="#ffffff" stroke="transparent" points="251,-145.7 251,-250.7 449,-250.7 449,-145.7 251,-145.7"/>
<polygon fill="#f5f5f5" stroke="transparent" points="251,-227.2 251,-250.2 449,-250.2 449,-227.2 251,-227.2"/>
<polygon fill="none" stroke="#000000" points="251,-227.2 251,-250.2 449,-250.2 449,-227.2 251,-227.2"/>
<text text-anchor="start" x="256" y="-235.8" font-family="Helvetica,sans-Serif" font-weight="bold" font-size="11.00" fill="#000000">individual</text>
<text text-anchor="start" x="414.0437" y="-235.3" font-family="Helvetica,sans-Serif" font-size="11.00" fill="#000000">[table]</text>
<polygon fill="none" stroke="#000000" points="251,-205.2 251,-227.2 449,-227.2 449,-205.2 251,-205.2"/>
<image xlink:href="../../images/primaryKeys.png" width="11px" height="12px" preserveAspectRatio="xMinYMin meet" x="256" y="-222.2"/>
<text text-anchor="start" x="271" y="-212.3" font-family="Helvetica,sans-Serif" font-size="11.00" fill="#000000">party_id</text>
<polygon fill="#ffffff" stroke="transparent" points="251,-183.2 251,-205.2 449,-205.2 449,-183.2 251,-183.2"/>
<polygon fill="none" stroke="#000000" points="251,-183.2 251,-205.2 449,-205.2 449,-183.2 251,-183.2"/>
<text text-anchor="start" x="271" y="-190.3" font-family="Helvetica,sans-Serif" font-size="11.00" fill="#000000">family_name</text>
<polygon fill="none" stroke="#000000" points="251,-164.2 251,-183.2 449,-183.2 449,-164.2 251,-164.2"/>
<text text-anchor="start" x="254" y="-170.3" font-family="Helvetica,sans-Serif" font-size="11.00" fill="#000000">...</text>
<polygon fill="#ffffff" stroke="transparent" points="251,-145.2 251,-164.2 449,-164.2 449,-145.2 251,-145.2"/>
<polygon fill="none" stroke="#000000" points="251,-145.2 251,-164.2 449,-164.2 449,-145.2 251,-145.2"/>
<polygon fill="#ffffff" stroke="transparent" points="252,-146.2 252,-163.2 308,-163.2 308,-146.2 252,-146.2"/>
<text text-anchor="start" x="254" y="-151.3" font-family="Helvetica,sans-Serif" font-size="11.00" fill="#000000">&lt; 1</text>
<polygon fill="#ffffff" stroke="transparent" points="308,-146.2 308,-163.2 393,-163.2 393,-146.2 308,-146.2"/>
<text text-anchor="start" x="328.1904" y="-151.3" font-family="Helvetica,sans-Serif" font-size="11.00" fill="#000000">231 rows</text>
<polygon fill="#ffffff" stroke="transparent" points="393,-146.2 393,-163.2 448,-163.2 448,-146.2 393,-146.2"/>
<text text-anchor="start" x="430.4053" y="-151.3" font-family="Helvetica,sans-Serif" font-size="11.00" fill="#000000">1 &gt;</text>
<polygon fill="#000000" stroke="#000000" points="308,-146.2 308,-163.2 308,-163.2 308,-146.2 308,-146.2"/>
<polygon fill="#000000" stroke="#000000" points="393,-146.2 393,-163.2 393,-163.2 393,-146.2 393,-146.2"/>
</a>
</g>
</g>
<!-- party -->
<g id="node2" class="node">
<title>party</title>
<g id="a_node2"><a xlink:href="../../tables/party.html" xlink:title="party" target="_top">
<polygon fill="#ffffff" stroke="transparent" points="8,-151.2 8,-373.2 202,-373.2 202,-151.2 8,-151.2"/>
<polygon fill="#f5f5f5" stroke="transparent" points="10,-348.2 10,-371.2 200,-371.2 200,-348.2 10,-348.2"/>
<polygon fill="none" stroke="#000000" points="10,-348.2 10,-371.2 200,-371.2 200,-348.2 10,-348.2"/>
<text text-anchor="start" x="15" y="-356.8" font-family="Helvetica,sans-Serif" font-weight="bold" font-size="11.00" fill="#000000">party</text>
<text text-anchor="start" x="165.0437" y="-356.3" font-family="Helvetica,sans-Serif" font-size="11.00" fill="#000000">[table]</text>
<polygon fill="none" stroke="#000000" points="10,-326.2 10,-348.2 116,-348.2 116,-326.2 10,-326.2"/>
<text text-anchor="start" x="30" y="-333.3" font-family="Helvetica,sans-Serif" font-size="11.00" fill="#000000">created_at</text>
<polygon fill="none" stroke="#000000" points="116,-326.2 116,-348.2 200,-348.2 200,-326.2 116,-326.2"/>
<text text-anchor="start" x="118.8807" y="-333.9" font-family="Helvetica,sans-Serif" font-size="11.00" fill="#000000">timestamp[29,6]</text>
<polygon fill="none" stroke="#000000" points="10,-304.2 10,-326.2 116,-326.2 116,-304.2 10,-304.2"/>
<image xlink:href="../../images/primaryKeys.png" width="11px" height="12px" preserveAspectRatio="xMinYMin meet" x="15" y="-321.2"/>
<text text-anchor="start" x="30" y="-311.3" font-family="Helvetica,sans-Serif" font-size="11.00" fill="#000000">id</text>
<polygon fill="none" stroke="#000000" points="116,-304.2 116,-326.2 200,-326.2 200,-304.2 116,-304.2"/>
<text text-anchor="start" x="119" y="-311.9" font-family="Helvetica,sans-Serif" font-size="11.00" fill="#000000">int8[19]</text>
<polygon fill="none" stroke="#000000" points="10,-282.2 10,-304.2 116,-304.2 116,-282.2 10,-282.2"/>
<text text-anchor="start" x="30" y="-289.3" font-family="Helvetica,sans-Serif" font-size="11.00" fill="#000000">updated_at</text>
<polygon fill="none" stroke="#000000" points="116,-282.2 116,-304.2 200,-304.2 200,-282.2 116,-282.2"/>
<text text-anchor="start" x="118.8807" y="-289.9" font-family="Helvetica,sans-Serif" font-size="11.00" fill="#000000">timestamp[29,6]</text>
<polygon fill="none" stroke="#000000" points="10,-260.2 10,-282.2 116,-282.2 116,-260.2 10,-260.2"/>
<text text-anchor="start" x="30" y="-267.3" font-family="Helvetica,sans-Serif" font-size="11.00" fill="#000000">created_by</text>
<polygon fill="none" stroke="#000000" points="116,-260.2 116,-282.2 200,-282.2 200,-260.2 116,-260.2"/>
<text text-anchor="start" x="119" y="-267.9" font-family="Helvetica,sans-Serif" font-size="11.00" fill="#000000">varchar[255]</text>
<polygon fill="none" stroke="#000000" points="10,-238.2 10,-260.2 116,-260.2 116,-238.2 10,-238.2"/>
<text text-anchor="start" x="30" y="-245.3" font-family="Helvetica,sans-Serif" font-size="11.00" fill="#000000">display_name</text>
<polygon fill="none" stroke="#000000" points="116,-238.2 116,-260.2 200,-260.2 200,-238.2 116,-238.2"/>
<text text-anchor="start" x="119" y="-245.9" font-family="Helvetica,sans-Serif" font-size="11.00" fill="#000000">varchar[255]</text>
<polygon fill="none" stroke="#000000" points="10,-216.2 10,-238.2 116,-238.2 116,-216.2 10,-216.2"/>
<text text-anchor="start" x="30" y="-223.3" font-family="Helvetica,sans-Serif" font-size="11.00" fill="#000000">legal_type</text>
<polygon fill="none" stroke="#000000" points="116,-216.2 116,-238.2 200,-238.2 200,-216.2 116,-216.2"/>
<text text-anchor="start" x="119" y="-223.9" font-family="Helvetica,sans-Serif" font-size="11.00" fill="#000000">varchar[255]</text>
<polygon fill="none" stroke="#000000" points="10,-194.2 10,-216.2 116,-216.2 116,-194.2 10,-194.2"/>
<text text-anchor="start" x="30" y="-201.3" font-family="Helvetica,sans-Serif" font-size="11.00" fill="#000000">type</text>
<polygon fill="none" stroke="#000000" points="116,-194.2 116,-216.2 200,-216.2 200,-194.2 116,-194.2"/>
<text text-anchor="start" x="119" y="-201.9" font-family="Helvetica,sans-Serif" font-size="11.00" fill="#000000">varchar[255]</text>
<polygon fill="none" stroke="#000000" points="10,-172.2 10,-194.2 116,-194.2 116,-172.2 10,-172.2"/>
<text text-anchor="start" x="30" y="-179.3" font-family="Helvetica,sans-Serif" font-size="11.00" fill="#000000">updated_by</text>
<polygon fill="none" stroke="#000000" points="116,-172.2 116,-194.2 200,-194.2 200,-172.2 116,-172.2"/>
<text text-anchor="start" x="119" y="-179.9" font-family="Helvetica,sans-Serif" font-size="11.00" fill="#000000">varchar[255]</text>
<polygon fill="#ffffff" stroke="transparent" points="10,-153.2 10,-172.2 200,-172.2 200,-153.2 10,-153.2"/>
<polygon fill="none" stroke="#000000" points="10,-153.2 10,-172.2 200,-172.2 200,-153.2 10,-153.2"/>
<polygon fill="#ffffff" stroke="transparent" points="11,-154.2 11,-171.2 64,-171.2 64,-154.2 11,-154.2"/>
<text text-anchor="start" x="13" y="-159.3" font-family="Helvetica,sans-Serif" font-size="11.00" fill="#000000">&lt; 0</text>
<polygon fill="#ffffff" stroke="transparent" points="64,-154.2 64,-171.2 146,-171.2 146,-154.2 64,-154.2"/>
<text text-anchor="start" x="82.6904" y="-159.3" font-family="Helvetica,sans-Serif" font-size="11.00" fill="#000000">237 rows</text>
<polygon fill="#ffffff" stroke="transparent" points="146,-154.2 146,-171.2 199,-171.2 199,-154.2 146,-154.2"/>
<text text-anchor="start" x="181.4053" y="-159.3" font-family="Helvetica,sans-Serif" font-size="11.00" fill="#000000">4 &gt;</text>
<polygon fill="#000000" stroke="#000000" points="64,-154.2 64,-171.2 64,-171.2 64,-154.2 64,-154.2"/>
<polygon fill="#000000" stroke="#000000" points="146,-154.2 146,-171.2 146,-171.2 146,-154.2 146,-154.2"/>
<polygon fill="none" stroke="#000000" stroke-width="2" points="9,-152.2 9,-372.2 201,-372.2 201,-152.2 9,-152.2"/>
</a>
</g>
</g>
<!-- individual&#45;&gt;party -->
<g id="edge1" class="edge">
<title>individual:w&#45;&gt;party:e</title>
<path fill="none" stroke="#000000" d="M240.6799,-218.0893C208.7222,-231.776 245.4351,-315.2 200,-315.2"/>
<polygon fill="#000000" stroke="#000000" points="249.4928,-212.4095 250.9334,-220.2787 249.3596,-220.5668 247.9189,-212.6976 249.4928,-212.4095"/>
<polyline fill="none" stroke="#000000" points="251,-216.2 247.0654,-216.9203 "/>
<ellipse fill="none" stroke="#000000" cx="243.9177" cy="-217.4966" rx="3.2" ry="3.2"/>
</g>
<!-- individual_name -->
<g id="node3" class="node">
<title>individual_name</title>
<g id="a_node3"><a xlink:href="../../tables/individual_name.html" xlink:title="individual_name" target="_top">
<polygon fill="#ffffff" stroke="transparent" points="498,-188.7 498,-249.7 638,-249.7 638,-188.7 498,-188.7"/>
<polygon fill="#f5f5f5" stroke="transparent" points="498,-226.2 498,-249.2 638,-249.2 638,-226.2 498,-226.2"/>
<polygon fill="none" stroke="#000000" points="498,-226.2 498,-249.2 638,-249.2 638,-226.2 498,-226.2"/>
<text text-anchor="start" x="503" y="-234.8" font-family="Helvetica,sans-Serif" font-weight="bold" font-size="11.00" fill="#000000">individual_name</text>
<text text-anchor="start" x="603.5219" y="-234.3" font-family="Helvetica,sans-Serif" font-size="11.00" fill="#000000">[table]</text>
<polygon fill="none" stroke="#000000" points="498,-207.2 498,-226.2 638,-226.2 638,-207.2 498,-207.2"/>
<text text-anchor="start" x="501" y="-213.3" font-family="Helvetica,sans-Serif" font-size="11.00" fill="#000000">...</text>
<polygon fill="#ffffff" stroke="transparent" points="498,-188.2 498,-207.2 638,-207.2 638,-188.2 498,-188.2"/>
<polygon fill="none" stroke="#000000" points="498,-188.2 498,-207.2 638,-207.2 638,-188.2 498,-188.2"/>
<polygon fill="#ffffff" stroke="transparent" points="499,-189.2 499,-206.2 551,-206.2 551,-189.2 499,-189.2"/>
<text text-anchor="start" x="501" y="-194.3" font-family="Helvetica,sans-Serif" font-size="11.00" fill="#000000">&lt; 1</text>
<polygon fill="#ffffff" stroke="transparent" points="551,-189.2 551,-206.2 594,-206.2 594,-189.2 551,-189.2"/>
<text text-anchor="start" x="569.4431" y="-194.3" font-family="Helvetica,sans-Serif" font-size="11.00" fill="#000000"> &#160;</text>
<polygon fill="#ffffff" stroke="transparent" points="594,-189.2 594,-206.2 637,-206.2 637,-189.2 594,-189.2"/>
<text text-anchor="start" x="628.8862" y="-194.3" font-family="Helvetica,sans-Serif" font-size="11.00" fill="#000000"> &#160;</text>
<polygon fill="#000000" stroke="#000000" points="551,-189.2 551,-206.2 551,-206.2 551,-189.2 551,-189.2"/>
<polygon fill="#000000" stroke="#000000" points="594,-189.2 594,-206.2 594,-206.2 594,-189.2 594,-189.2"/>
</a>
</g>
</g>
<!-- individual_name&#45;&gt;individual -->
<g id="edge2" class="edge">
<title>individual_name:w&#45;&gt;individual:e</title>
<path fill="none" stroke="#000000" d="M483.4909,-216.2C472.1774,-216.2 464.9931,-216.2 449,-216.2"/>
<polygon fill="#000000" stroke="#000000" points="490,-216.2001 498,-219.8 494,-216.2 498,-216.2 498,-216.2 498,-216.2 494,-216.2 498,-212.6 490,-216.2001 490,-216.2001"/>
<ellipse fill="none" stroke="#000000" cx="486.8" cy="-216.2001" rx="3.2" ry="3.2"/>
</g>
<!-- organisation -->
<g id="node4" class="node">
<title>organisation</title>
<g id="a_node4"><a xlink:href="../../tables/organisation.html" xlink:title="organisation" target="_top">
<polygon fill="#ffffff" stroke="transparent" points="279,-271.7 279,-376.7 421,-376.7 421,-271.7 279,-271.7"/>
<polygon fill="#f5f5f5" stroke="transparent" points="279,-353.2 279,-376.2 421,-376.2 421,-353.2 279,-353.2"/>
<polygon fill="none" stroke="#000000" points="279,-353.2 279,-376.2 421,-376.2 421,-353.2 279,-353.2"/>
<text text-anchor="start" x="284" y="-361.8" font-family="Helvetica,sans-Serif" font-weight="bold" font-size="11.00" fill="#000000">organisation</text>
<text text-anchor="start" x="386.0437" y="-361.3" font-family="Helvetica,sans-Serif" font-size="11.00" fill="#000000">[table]</text>
<polygon fill="none" stroke="#000000" points="279,-331.2 279,-353.2 421,-353.2 421,-331.2 279,-331.2"/>
<image xlink:href="../../images/primaryKeys.png" width="11px" height="12px" preserveAspectRatio="xMinYMin meet" x="284" y="-348.2"/>
<text text-anchor="start" x="299" y="-338.3" font-family="Helvetica,sans-Serif" font-size="11.00" fill="#000000">party_id</text>
<polygon fill="#ffffff" stroke="transparent" points="279,-309.2 279,-331.2 421,-331.2 421,-309.2 279,-309.2"/>
<polygon fill="none" stroke="#000000" points="279,-309.2 279,-331.2 421,-331.2 421,-309.2 279,-309.2"/>
<text text-anchor="start" x="299" y="-316.3" font-family="Helvetica,sans-Serif" font-size="11.00" fill="#000000">name</text>
<polygon fill="none" stroke="#000000" points="279,-290.2 279,-309.2 421,-309.2 421,-290.2 279,-290.2"/>
<text text-anchor="start" x="282" y="-296.3" font-family="Helvetica,sans-Serif" font-size="11.00" fill="#000000">...</text>
<polygon fill="#ffffff" stroke="transparent" points="279,-271.2 279,-290.2 421,-290.2 421,-271.2 279,-271.2"/>
<polygon fill="none" stroke="#000000" points="279,-271.2 279,-290.2 421,-290.2 421,-271.2 279,-271.2"/>
<polygon fill="#ffffff" stroke="transparent" points="280,-272.2 280,-289.2 333,-289.2 333,-272.2 280,-272.2"/>
<text text-anchor="start" x="282" y="-277.3" font-family="Helvetica,sans-Serif" font-size="11.00" fill="#000000">&lt; 1</text>
<polygon fill="#ffffff" stroke="transparent" points="333,-272.2 333,-289.2 377,-289.2 377,-272.2 333,-272.2"/>
<text text-anchor="start" x="351.9431" y="-277.3" font-family="Helvetica,sans-Serif" font-size="11.00" fill="#000000"> &#160;</text>
<polygon fill="#ffffff" stroke="transparent" points="377,-272.2 377,-289.2 420,-289.2 420,-272.2 377,-272.2"/>
<text text-anchor="start" x="411.8862" y="-277.3" font-family="Helvetica,sans-Serif" font-size="11.00" fill="#000000"> &#160;</text>
<polygon fill="#000000" stroke="#000000" points="333,-272.2 333,-289.2 333,-289.2 333,-272.2 333,-272.2"/>
<polygon fill="#000000" stroke="#000000" points="377,-272.2 377,-289.2 377,-289.2 377,-272.2 377,-272.2"/>
</a>
</g>
</g>
<!-- organisation&#45;&gt;party -->
<g id="edge3" class="edge">
<title>organisation:w&#45;&gt;party:e</title>
<path fill="none" stroke="#000000" d="M268.6268,-341.4211C240.5886,-336.9941 233.3366,-315.2 200,-315.2"/>
<polygon fill="#000000" stroke="#000000" points="278.5018,-338.1513 277.9027,-346.1289 276.3072,-346.009 276.9063,-338.0315 278.5018,-338.1513"/>
<polyline fill="none" stroke="#000000" points="279,-342.2 275.0112,-341.9004 "/>
<ellipse fill="none" stroke="#000000" cx="271.8202" cy="-341.6608" rx="3.2" ry="3.2"/>
</g>
<!-- party_address -->
<g id="node5" class="node">
<title>party_address</title>
<g id="a_node5"><a xlink:href="../../tables/party_address.html" xlink:title="party_address" target="_top">
<polygon fill="#ffffff" stroke="transparent" points="286.5,-398.2 286.5,-484.2 413.5,-484.2 413.5,-398.2 286.5,-398.2"/>
<polygon fill="#f5f5f5" stroke="transparent" points="287,-461.2 287,-484.2 414,-484.2 414,-461.2 287,-461.2"/>
<polygon fill="none" stroke="#000000" points="287,-461.2 287,-484.2 414,-484.2 414,-461.2 287,-461.2"/>
<text text-anchor="start" x="292" y="-469.8" font-family="Helvetica,sans-Serif" font-weight="bold" font-size="11.00" fill="#000000">party_address</text>
<text text-anchor="start" x="379.5219" y="-469.3" font-family="Helvetica,sans-Serif" font-size="11.00" fill="#000000">[table]</text>
<polygon fill="none" stroke="#000000" points="287,-439.2 287,-461.2 414,-461.2 414,-439.2 287,-439.2"/>
<image xlink:href="../../images/primaryKeys.png" width="11px" height="12px" preserveAspectRatio="xMinYMin meet" x="292" y="-456.2"/>
<text text-anchor="start" x="316" y="-446.3" font-family="Helvetica,sans-Serif" font-size="11.00" fill="#000000">location_id</text>
<polygon fill="none" stroke="#000000" points="287,-417.2 287,-439.2 414,-439.2 414,-417.2 287,-417.2"/>
<image xlink:href="../../images/primaryKeys.png" width="11px" height="12px" preserveAspectRatio="xMinYMin meet" x="292" y="-434.2"/>
<text text-anchor="start" x="316" y="-424.3" font-family="Helvetica,sans-Serif" font-size="11.00" fill="#000000">party_id</text>
<polygon fill="#ffffff" stroke="transparent" points="287,-398.2 287,-417.2 414,-417.2 414,-398.2 287,-398.2"/>
<polygon fill="none" stroke="#000000" points="287,-398.2 287,-417.2 414,-417.2 414,-398.2 287,-398.2"/>
<polygon fill="#ffffff" stroke="transparent" points="288,-399.2 288,-416.2 323,-416.2 323,-399.2 288,-399.2"/>
<text text-anchor="start" x="290" y="-404.3" font-family="Helvetica,sans-Serif" font-size="11.00" fill="#000000">&lt; 2</text>
<polygon fill="#ffffff" stroke="transparent" points="323,-399.2 323,-416.2 387,-416.2 387,-399.2 323,-399.2"/>
<text text-anchor="start" x="332.6904" y="-404.3" font-family="Helvetica,sans-Serif" font-size="11.00" fill="#000000">237 rows</text>
<polygon fill="#ffffff" stroke="transparent" points="387,-399.2 387,-416.2 413,-416.2 413,-399.2 387,-399.2"/>
<text text-anchor="start" x="404.8862" y="-404.3" font-family="Helvetica,sans-Serif" font-size="11.00" fill="#000000"> &#160;</text>
<polygon fill="#000000" stroke="#000000" points="323,-399.2 323,-416.2 323,-416.2 323,-399.2 323,-399.2"/>
<polygon fill="#000000" stroke="#000000" points="387,-399.2 387,-416.2 387,-416.2 387,-399.2 387,-399.2"/>
</a>
</g>
</g>
<!-- party_address&#45;&gt;party -->
<g id="edge5" class="edge">
<title>party_address:w&#45;&gt;party:e</title>
<path fill="none" stroke="#000000" d="M272.7823,-425.5045C259.2824,-419.3311 256.1231,-403.4439 243,-387.2 219.5771,-358.2069 237.2724,-315.2 200,-315.2"/>
<polygon fill="#000000" stroke="#000000" points="279.14,-426.7098 286.3294,-431.737 283.07,-427.4549 287,-428.2 287,-428.2 287,-428.2 283.07,-427.4549 287.6706,-424.663 279.14,-426.7098 279.14,-426.7098"/>
<ellipse fill="none" stroke="#000000" cx="275.996" cy="-426.1137" rx="3.2" ry="3.2"/>
</g>
<!-- address -->
<g id="node6" class="node">
<title>address</title>
<g id="a_node6"><a xlink:href="../../tables/address.html" xlink:title="address" target="_top">
<polygon fill="#ffffff" stroke="transparent" points="61,-422.7 61,-483.7 149,-483.7 149,-422.7 61,-422.7"/>
<polygon fill="#f5f5f5" stroke="transparent" points="61,-460.2 61,-483.2 149,-483.2 149,-460.2 61,-460.2"/>
<polygon fill="none" stroke="#000000" points="61,-460.2 61,-483.2 149,-483.2 149,-460.2 61,-460.2"/>
<text text-anchor="start" x="66" y="-468.8" font-family="Helvetica,sans-Serif" font-weight="bold" font-size="11.00" fill="#000000">address</text>
<text text-anchor="start" x="114.5219" y="-468.3" font-family="Helvetica,sans-Serif" font-size="11.00" fill="#000000">[table]</text>
<polygon fill="none" stroke="#000000" points="61,-441.2 61,-460.2 149,-460.2 149,-441.2 61,-441.2"/>
<text text-anchor="start" x="64" y="-447.3" font-family="Helvetica,sans-Serif" font-size="11.00" fill="#000000">...</text>
<polygon fill="#ffffff" stroke="transparent" points="61,-422.2 61,-441.2 149,-441.2 149,-422.2 61,-422.2"/>
<polygon fill="none" stroke="#000000" points="61,-422.2 61,-441.2 149,-441.2 149,-422.2 61,-422.2"/>
<polygon fill="#ffffff" stroke="transparent" points="62,-423.2 62,-440.2 94,-440.2 94,-423.2 62,-423.2"/>
<text text-anchor="start" x="64" y="-428.3" font-family="Helvetica,sans-Serif" font-size="11.00" fill="#000000">&lt; 1</text>
<polygon fill="#ffffff" stroke="transparent" points="94,-423.2 94,-440.2 117,-440.2 117,-423.2 94,-423.2"/>
<text text-anchor="start" x="102.4431" y="-428.3" font-family="Helvetica,sans-Serif" font-size="11.00" fill="#000000"> &#160;</text>
<polygon fill="#ffffff" stroke="transparent" points="117,-423.2 117,-440.2 148,-440.2 148,-423.2 117,-423.2"/>
<text text-anchor="start" x="130.4053" y="-428.3" font-family="Helvetica,sans-Serif" font-size="11.00" fill="#000000">1 &gt;</text>
<polygon fill="#000000" stroke="#000000" points="94,-423.2 94,-440.2 94,-440.2 94,-423.2 94,-423.2"/>
<polygon fill="#000000" stroke="#000000" points="117,-423.2 117,-440.2 117,-440.2 117,-423.2 117,-423.2"/>
</a>
</g>
</g>
<!-- party_address&#45;&gt;address -->
<g id="edge4" class="edge">
<title>party_address:w&#45;&gt;address:e</title>
<path fill="none" stroke="#000000" d="M272.4657,-450.2C222.7667,-450.2 205.1823,-450.2 149,-450.2"/>
<polygon fill="#000000" stroke="#000000" points="279,-450.2001 287,-453.8 283,-450.2 287,-450.2 287,-450.2 287,-450.2 283,-450.2 287,-446.6 279,-450.2001 279,-450.2001"/>
<ellipse fill="none" stroke="#000000" cx="275.8" cy="-450.2001" rx="3.2" ry="3.2"/>
</g>
<!-- party_role -->
<g id="node7" class="node">
<title>party_role</title>
<g id="a_node7"><a xlink:href="../../tables/party_role.html" xlink:title="party_role" target="_top">
<polygon fill="#ffffff" stroke="transparent" points="299.5,-38.2 299.5,-124.2 400.5,-124.2 400.5,-38.2 299.5,-38.2"/>
<polygon fill="#f5f5f5" stroke="transparent" points="300,-101.2 300,-124.2 401,-124.2 401,-101.2 300,-101.2"/>
<polygon fill="none" stroke="#000000" points="300,-101.2 300,-124.2 401,-124.2 401,-101.2 300,-101.2"/>
<text text-anchor="start" x="305" y="-109.8" font-family="Helvetica,sans-Serif" font-weight="bold" font-size="11.00" fill="#000000">party_role</text>
<text text-anchor="start" x="366.5219" y="-109.3" font-family="Helvetica,sans-Serif" font-size="11.00" fill="#000000">[table]</text>
<polygon fill="none" stroke="#000000" points="300,-79.2 300,-101.2 401,-101.2 401,-79.2 300,-79.2"/>
<image xlink:href="../../images/primaryKeys.png" width="11px" height="12px" preserveAspectRatio="xMinYMin meet" x="305" y="-96.2"/>
<text text-anchor="start" x="329" y="-86.3" font-family="Helvetica,sans-Serif" font-size="11.00" fill="#000000">party_id</text>
<polygon fill="none" stroke="#000000" points="300,-57.2 300,-79.2 401,-79.2 401,-57.2 300,-57.2"/>
<image xlink:href="../../images/primaryKeys.png" width="11px" height="12px" preserveAspectRatio="xMinYMin meet" x="305" y="-74.2"/>
<text text-anchor="start" x="329" y="-64.3" font-family="Helvetica,sans-Serif" font-size="11.00" fill="#000000">role_id</text>
<polygon fill="#ffffff" stroke="transparent" points="300,-38.2 300,-57.2 401,-57.2 401,-38.2 300,-38.2"/>
<polygon fill="none" stroke="#000000" points="300,-38.2 300,-57.2 401,-57.2 401,-38.2 300,-38.2"/>
<polygon fill="#ffffff" stroke="transparent" points="301,-39.2 301,-56.2 328,-56.2 328,-39.2 301,-39.2"/>
<text text-anchor="start" x="303" y="-44.3" font-family="Helvetica,sans-Serif" font-size="11.00" fill="#000000">&lt; 2</text>
<polygon fill="#ffffff" stroke="transparent" points="328,-39.2 328,-56.2 383,-56.2 383,-39.2 328,-39.2"/>
<text text-anchor="start" x="333.1904" y="-44.3" font-family="Helvetica,sans-Serif" font-size="11.00" fill="#000000">424 rows</text>
<polygon fill="#ffffff" stroke="transparent" points="383,-39.2 383,-56.2 400,-56.2 400,-39.2 383,-39.2"/>
<text text-anchor="start" x="391.8862" y="-44.3" font-family="Helvetica,sans-Serif" font-size="11.00" fill="#000000"> &#160;</text>
<polygon fill="#000000" stroke="#000000" points="328,-39.2 328,-56.2 328,-56.2 328,-39.2 328,-39.2"/>
<polygon fill="#000000" stroke="#000000" points="383,-39.2 383,-56.2 383,-56.2 383,-39.2 383,-39.2"/>
</a>
</g>
</g>
<!-- party_role&#45;&gt;party -->
<g id="edge6" class="edge">
<title>party_role:w&#45;&gt;party:e</title>
<path fill="none" stroke="#000000" d="M285.3892,-91.7349C264.9017,-96.5965 257.3901,-112.6752 243,-135.2 198.7186,-204.5137 282.251,-315.2 200,-315.2"/>
<polygon fill="#000000" stroke="#000000" points="292.0438,-91.0358 300.3761,-93.7803 296.0219,-90.6179 300,-90.2 300,-90.2 300,-90.2 296.0219,-90.6179 299.6239,-86.6197 292.0438,-91.0358 292.0438,-91.0358"/>
<ellipse fill="none" stroke="#000000" cx="288.8613" cy="-91.3702" rx="3.2" ry="3.2"/>
</g>
<!-- role -->
<g id="node8" class="node">
<title>role</title>
<g id="a_node8"><a xlink:href="../../tables/role.html" xlink:title="role" target="_top">
<polygon fill="#ffffff" stroke="transparent" points="65.5,-40.7 65.5,-101.7 144.5,-101.7 144.5,-40.7 65.5,-40.7"/>
<polygon fill="#f5f5f5" stroke="transparent" points="66,-78.2 66,-101.2 145,-101.2 145,-78.2 66,-78.2"/>
<polygon fill="none" stroke="#000000" points="66,-78.2 66,-101.2 145,-101.2 145,-78.2 66,-78.2"/>
<text text-anchor="start" x="71" y="-86.8" font-family="Helvetica,sans-Serif" font-weight="bold" font-size="11.00" fill="#000000">role</text>
<text text-anchor="start" x="110.0437" y="-86.3" font-family="Helvetica,sans-Serif" font-size="11.00" fill="#000000">[table]</text>
<polygon fill="none" stroke="#000000" points="66,-59.2 66,-78.2 145,-78.2 145,-59.2 66,-59.2"/>
<text text-anchor="start" x="69" y="-65.3" font-family="Helvetica,sans-Serif" font-size="11.00" fill="#000000">...</text>
<polygon fill="#ffffff" stroke="transparent" points="66,-40.2 66,-59.2 145,-59.2 145,-40.2 66,-40.2"/>
<polygon fill="none" stroke="#000000" points="66,-40.2 66,-59.2 145,-59.2 145,-40.2 66,-40.2"/>
<polygon fill="#ffffff" stroke="transparent" points="67,-41.2 67,-58.2 77,-58.2 77,-41.2 67,-41.2"/>
<text text-anchor="start" x="68.9431" y="-46.3" font-family="Helvetica,sans-Serif" font-size="11.00" fill="#000000"> &#160;</text>
<polygon fill="#ffffff" stroke="transparent" points="77,-41.2 77,-58.2 125,-58.2 125,-41.2 77,-41.2"/>
<text text-anchor="start" x="78.6904" y="-46.3" font-family="Helvetica,sans-Serif" font-size="11.00" fill="#000000">424 rows</text>
<polygon fill="#ffffff" stroke="transparent" points="125,-41.2 125,-58.2 144,-58.2 144,-41.2 125,-41.2"/>
<text text-anchor="start" x="126.7027" y="-46.3" font-family="Helvetica,sans-Serif" font-size="11.00" fill="#000000">1 &gt;</text>
<polygon fill="#000000" stroke="#000000" points="77,-41.2 77,-58.2 77,-58.2 77,-41.2 77,-41.2"/>
<polygon fill="#000000" stroke="#000000" points="125,-41.2 125,-58.2 125,-58.2 125,-41.2 125,-41.2"/>
</a>
</g>
</g>
<!-- party_role&#45;&gt;role -->
<g id="edge7" class="edge">
<title>party_role:w&#45;&gt;role:e</title>
<path fill="none" stroke="#000000" d="M285.473,-68.2C228.2701,-68.2 208.776,-68.2 145,-68.2"/>
<polygon fill="#000000" stroke="#000000" points="292,-68.2001 300,-71.8 296,-68.2 300,-68.2 300,-68.2 300,-68.2 296,-68.2 300,-64.6 292,-68.2001 292,-68.2001"/>
<ellipse fill="none" stroke="#000000" cx="288.8" cy="-68.2001" rx="3.2" ry="3.2"/>
</g>
</g>
</svg>
