<?xml version="1.0" encoding="UTF-8" standalone="no"?>
<!DOCTYPE svg PUBLIC "-//W3C//DTD SVG 1.1//EN"
 "http://www.w3.org/Graphics/SVG/1.1/DTD/svg11.dtd">
<!-- Generated by graphviz version 2.40.1 (20161225.0304)
 -->
<!-- Title: oneDegreeRelationshipsDiagram Pages: 1 -->
<svg width="425pt" height="259pt"
 viewBox="0.00 0.00 425.00 259.20" xmlns="http://www.w3.org/2000/svg" xmlns:xlink="http://www.w3.org/1999/xlink">
<g id="graph0" class="graph" transform="scale(1 1) rotate(0) translate(4 255.2)">
<title>oneDegreeRelationshipsDiagram</title>
<polygon fill="#ffffff" stroke="transparent" points="-4,4 -4,-255.2 421,-255.2 421,4 -4,4"/>
<text text-anchor="middle" x="72.4936" y="-7.3" font-family="Helvetica,sans-Serif" font-size="11.00" fill="#000000">Generated by SchemaSpy</text>
<!-- party_role -->
<g id="node1" class="node">
<title>party_role</title>
<g id="a_node1"><a xlink:href="../../tables/party_role.html" xlink:title="party_role" target="_top">
<polygon fill="#ffffff" stroke="transparent" points="280,-117.7 280,-207.7 409,-207.7 409,-117.7 280,-117.7"/>
<polygon fill="#f5f5f5" stroke="transparent" points="282.5,-182.7 282.5,-205.7 407.5,-205.7 407.5,-182.7 282.5,-182.7"/>
<polygon fill="none" stroke="#000000" points="282.5,-182.7 282.5,-205.7 407.5,-205.7 407.5,-182.7 282.5,-182.7"/>
<text text-anchor="start" x="287.5" y="-191.3" font-family="Helvetica,sans-Serif" font-weight="bold" font-size="11.00" fill="#000000">party_role</text>
<text text-anchor="start" x="372.5437" y="-190.8" font-family="Helvetica,sans-Serif" font-size="11.00" fill="#000000">[table]</text>
<polygon fill="none" stroke="#000000" points="282.5,-160.7 282.5,-182.7 365.5,-182.7 365.5,-160.7 282.5,-160.7"/>
<image xlink:href="../../images/primaryKeys.png" width="11px" height="12px" preserveAspectRatio="xMinYMin meet" x="287.5" y="-177.7"/>
<text text-anchor="start" x="302.5" y="-167.8" font-family="Helvetica,sans-Serif" font-size="11.00" fill="#000000">party_id</text>
<polygon fill="none" stroke="#000000" points="365.5,-160.7 365.5,-182.7 407.5,-182.7 407.5,-160.7 365.5,-160.7"/>
<text text-anchor="start" x="368.4644" y="-168.4" font-family="Helvetica,sans-Serif" font-size="11.00" fill="#000000">int8[19]</text>
<polygon fill="none" stroke="#000000" points="282.5,-138.7 282.5,-160.7 365.5,-160.7 365.5,-138.7 282.5,-138.7"/>
<image xlink:href="../../images/primaryKeys.png" width="11px" height="12px" preserveAspectRatio="xMinYMin meet" x="287.5" y="-155.7"/>
<text text-anchor="start" x="302.5" y="-145.8" font-family="Helvetica,sans-Serif" font-size="11.00" fill="#000000">role_id</text>
<polygon fill="none" stroke="#000000" points="365.5,-138.7 365.5,-160.7 407.5,-160.7 407.5,-138.7 365.5,-138.7"/>
<text text-anchor="start" x="368.4644" y="-146.4" font-family="Helvetica,sans-Serif" font-size="11.00" fill="#000000">int8[19]</text>
<polygon fill="#ffffff" stroke="transparent" points="282.5,-119.7 282.5,-138.7 407.5,-138.7 407.5,-119.7 282.5,-119.7"/>
<polygon fill="none" stroke="#000000" points="282.5,-119.7 282.5,-138.7 407.5,-138.7 407.5,-119.7 282.5,-119.7"/>
<polygon fill="#ffffff" stroke="transparent" points="283.5,-120.7 283.5,-137.7 315.5,-137.7 315.5,-120.7 283.5,-120.7"/>
<text text-anchor="start" x="285.5" y="-125.8" font-family="Helvetica,sans-Serif" font-size="11.00" fill="#000000">&lt; 2</text>
<polygon fill="#ffffff" stroke="transparent" points="315.5,-120.7 315.5,-137.7 375.5,-137.7 375.5,-120.7 315.5,-120.7"/>
<text text-anchor="start" x="323.1904" y="-125.8" font-family="Helvetica,sans-Serif" font-size="11.00" fill="#000000">424 rows</text>
<polygon fill="#ffffff" stroke="transparent" points="375.5,-120.7 375.5,-137.7 406.5,-137.7 406.5,-120.7 375.5,-120.7"/>
<text text-anchor="start" x="388.9053" y="-125.8" font-family="Helvetica,sans-Serif" font-size="11.00" fill="#000000">0 &gt;</text>
<polygon fill="#000000" stroke="#000000" points="315.5,-120.7 315.5,-137.7 315.5,-137.7 315.5,-120.7 315.5,-120.7"/>
<polygon fill="#000000" stroke="#000000" points="375.5,-120.7 375.5,-137.7 375.5,-137.7 375.5,-120.7 375.5,-120.7"/>
<polygon fill="none" stroke="#000000" stroke-width="2" points="281,-118.7 281,-206.7 408,-206.7 408,-118.7 281,-118.7"/>
</a>
</g>
</g>
<!-- party -->
<g id="node2" class="node">
<title>party</title>
<g id="a_node2"><a xlink:href="../../tables/party.html" xlink:title="party" target="_top">
<polygon fill="#ffffff" stroke="transparent" points="66.5,-164.2 66.5,-247.2 172.5,-247.2 172.5,-164.2 66.5,-164.2"/>
<polygon fill="#f5f5f5" stroke="transparent" points="66.5,-223.7 66.5,-246.7 172.5,-246.7 172.5,-223.7 66.5,-223.7"/>
<polygon fill="none" stroke="#000000" points="66.5,-223.7 66.5,-246.7 172.5,-246.7 172.5,-223.7 66.5,-223.7"/>
<text text-anchor="start" x="71.5" y="-232.3" font-family="Helvetica,sans-Serif" font-weight="bold" font-size="11.00" fill="#000000">party</text>
<text text-anchor="start" x="137.5437" y="-231.8" font-family="Helvetica,sans-Serif" font-size="11.00" fill="#000000">[table]</text>
<polygon fill="none" stroke="#000000" points="66.5,-201.7 66.5,-223.7 172.5,-223.7 172.5,-201.7 66.5,-201.7"/>
<image xlink:href="../../images/primaryKeys.png" width="11px" height="12px" preserveAspectRatio="xMinYMin meet" x="71.5" y="-218.7"/>
<text text-anchor="start" x="86.5" y="-208.8" font-family="Helvetica,sans-Serif" font-size="11.00" fill="#000000">id</text>
<polygon fill="none" stroke="#000000" points="66.5,-182.7 66.5,-201.7 172.5,-201.7 172.5,-182.7 66.5,-182.7"/>
<text text-anchor="start" x="69.5" y="-188.8" font-family="Helvetica,sans-Serif" font-size="11.00" fill="#000000">...</text>
<polygon fill="#ffffff" stroke="transparent" points="66.5,-163.7 66.5,-182.7 172.5,-182.7 172.5,-163.7 66.5,-163.7"/>
<polygon fill="none" stroke="#000000" points="66.5,-163.7 66.5,-182.7 172.5,-182.7 172.5,-163.7 66.5,-163.7"/>
<polygon fill="#ffffff" stroke="transparent" points="67.5,-164.7 67.5,-181.7 86.5,-181.7 86.5,-164.7 67.5,-164.7"/>
<text text-anchor="start" x="69.5" y="-169.8" font-family="Helvetica,sans-Serif" font-size="11.00" fill="#000000"> &#160;</text>
<polygon fill="#ffffff" stroke="transparent" points="86.5,-164.7 86.5,-181.7 143.5,-181.7 143.5,-164.7 86.5,-164.7"/>
<text text-anchor="start" x="92.6904" y="-169.8" font-family="Helvetica,sans-Serif" font-size="11.00" fill="#000000">237 rows</text>
<polygon fill="#ffffff" stroke="transparent" points="143.5,-164.7 143.5,-181.7 171.5,-181.7 171.5,-164.7 143.5,-164.7"/>
<text text-anchor="start" x="153.9053" y="-169.8" font-family="Helvetica,sans-Serif" font-size="11.00" fill="#000000">4 &gt;</text>
<polygon fill="#000000" stroke="#000000" points="86.5,-164.7 86.5,-181.7 86.5,-181.7 86.5,-164.7 86.5,-164.7"/>
<polygon fill="#000000" stroke="#000000" points="143.5,-164.7 143.5,-181.7 143.5,-181.7 143.5,-164.7 143.5,-164.7"/>
</a>
</g>
</g>
<!-- party_role&#45;&gt;party -->
<g id="edge1" class="edge">
<title>party_role:w&#45;&gt;party:e</title>
<path fill="none" stroke="#000000" d="M267.9453,-172.8828C228.6978,-179.6052 219.3755,-212.7 172.5,-212.7"/>
<polygon fill="#000000" stroke="#000000" points="274.5263,-172.3481 282.7916,-175.2882 278.5131,-172.024 282.5,-171.7 282.5,-171.7 282.5,-171.7 278.5131,-172.024 282.2084,-168.1118 274.5263,-172.3481 274.5263,-172.3481"/>
<ellipse fill="none" stroke="#000000" cx="271.3368" cy="-172.6073" rx="3.2" ry="3.2"/>
</g>
<!-- role -->
<g id="node3" class="node">
<title>role</title>
<g id="a_node3"><a xlink:href="../../tables/role.html" xlink:title="role" target="_top">
<polygon fill="#ffffff" stroke="transparent" points="8,-38.2 8,-143.2 231,-143.2 231,-38.2 8,-38.2"/>
<polygon fill="#f5f5f5" stroke="transparent" points="8.5,-119.7 8.5,-142.7 231.5,-142.7 231.5,-119.7 8.5,-119.7"/>
<polygon fill="none" stroke="#000000" points="8.5,-119.7 8.5,-142.7 231.5,-142.7 231.5,-119.7 8.5,-119.7"/>
<text text-anchor="start" x="13.5" y="-128.3" font-family="Helvetica,sans-Serif" font-weight="bold" font-size="11.00" fill="#000000">role</text>
<text text-anchor="start" x="196.5437" y="-127.8" font-family="Helvetica,sans-Serif" font-size="11.00" fill="#000000">[table]</text>
<polygon fill="none" stroke="#000000" points="8.5,-97.7 8.5,-119.7 231.5,-119.7 231.5,-97.7 8.5,-97.7"/>
<image xlink:href="../../images/primaryKeys.png" width="11px" height="12px" preserveAspectRatio="xMinYMin meet" x="13.5" y="-114.7"/>
<text text-anchor="start" x="28.5" y="-104.8" font-family="Helvetica,sans-Serif" font-size="11.00" fill="#000000">id</text>
<polygon fill="#ffffff" stroke="transparent" points="8.5,-75.7 8.5,-97.7 231.5,-97.7 231.5,-75.7 8.5,-75.7"/>
<polygon fill="none" stroke="#000000" points="8.5,-75.7 8.5,-97.7 231.5,-97.7 231.5,-75.7 8.5,-75.7"/>
<text text-anchor="start" x="28.5" y="-82.8" font-family="Helvetica,sans-Serif" font-size="11.00" fill="#000000">party_id</text>
<polygon fill="none" stroke="#000000" points="8.5,-56.7 8.5,-75.7 231.5,-75.7 231.5,-56.7 8.5,-56.7"/>
<text text-anchor="start" x="11.5" y="-62.8" font-family="Helvetica,sans-Serif" font-size="11.00" fill="#000000">...</text>
<polygon fill="#ffffff" stroke="transparent" points="8.5,-37.7 8.5,-56.7 231.5,-56.7 231.5,-37.7 8.5,-37.7"/>
<polygon fill="none" stroke="#000000" points="8.5,-37.7 8.5,-56.7 231.5,-56.7 231.5,-37.7 8.5,-37.7"/>
<polygon fill="#ffffff" stroke="transparent" points="9.5,-38.7 9.5,-55.7 67.5,-55.7 67.5,-38.7 9.5,-38.7"/>
<text text-anchor="start" x="11.5" y="-43.8" font-family="Helvetica,sans-Serif" font-size="11.00" fill="#000000"> &#160;</text>
<polygon fill="#ffffff" stroke="transparent" points="67.5,-38.7 67.5,-55.7 163.5,-55.7 163.5,-38.7 67.5,-38.7"/>
<text text-anchor="start" x="93.1904" y="-43.8" font-family="Helvetica,sans-Serif" font-size="11.00" fill="#000000">424 rows</text>
<polygon fill="#ffffff" stroke="transparent" points="163.5,-38.7 163.5,-55.7 230.5,-55.7 230.5,-38.7 163.5,-38.7"/>
<text text-anchor="start" x="212.9053" y="-43.8" font-family="Helvetica,sans-Serif" font-size="11.00" fill="#000000">1 &gt;</text>
<polygon fill="#000000" stroke="#000000" points="67.5,-38.7 67.5,-55.7 67.5,-55.7 67.5,-38.7 67.5,-38.7"/>
<polygon fill="#000000" stroke="#000000" points="163.5,-38.7 163.5,-55.7 163.5,-55.7 163.5,-38.7 163.5,-38.7"/>
</a>
</g>
</g>
<!-- party_role&#45;&gt;role -->
<g id="edge2" class="edge">
<title>party_role:w&#45;&gt;role:e</title>
<path fill="none" stroke="#000000" d="M268.6568,-145.3123C254.8325,-134.7354 254.6756,-108.7 231.5,-108.7"/>
<polygon fill="#000000" stroke="#000000" points="274.8739,-147.2828 281.4123,-153.1317 278.6869,-148.4914 282.5,-149.7 282.5,-149.7 282.5,-149.7 278.6869,-148.4914 283.5877,-146.2683 274.8739,-147.2828 274.8739,-147.2828"/>
<ellipse fill="none" stroke="#000000" cx="271.8235" cy="-146.3159" rx="3.2" ry="3.2"/>
</g>
</g>
</svg>
