<?xml version="1.0" encoding="UTF-8" standalone="no"?>
<!DOCTYPE svg PUBLIC "-//W3C//DTD SVG 1.1//EN"
 "http://www.w3.org/Graphics/SVG/1.1/DTD/svg11.dtd">
<!-- Generated by graphviz version 2.40.1 (20161225.0304)
 -->
<!-- Title: twoDegreesRelationshipsDiagram Pages: 1 -->
<svg width="425pt" height="425pt"
 viewBox="0.00 0.00 425.00 425.20" xmlns="http://www.w3.org/2000/svg" xmlns:xlink="http://www.w3.org/1999/xlink">
<g id="graph0" class="graph" transform="scale(1 1) rotate(0) translate(4 421.2)">
<title>twoDegreesRelationshipsDiagram</title>
<polygon fill="#ffffff" stroke="transparent" points="-4,4 -4,-421.2 421,-421.2 421,4 -4,4"/>
<text text-anchor="middle" x="72.4936" y="-7.3" font-family="Helvetica,sans-Serif" font-size="11.00" fill="#000000">Generated by SchemaSpy</text>
<!-- individual -->
<g id="node1" class="node">
<title>individual</title>
<g id="a_node1"><a xlink:href="../../tables/individual.html" xlink:title="individual" target="_top">
<polygon fill="#ffffff" stroke="transparent" points="295,-352.2 295,-413.2 394,-413.2 394,-352.2 295,-352.2"/>
<polygon fill="#f5f5f5" stroke="transparent" points="295.5,-389.7 295.5,-412.7 394.5,-412.7 394.5,-389.7 295.5,-389.7"/>
<polygon fill="none" stroke="#000000" points="295.5,-389.7 295.5,-412.7 394.5,-412.7 394.5,-389.7 295.5,-389.7"/>
<text text-anchor="start" x="300.5" y="-398.3" font-family="Helvetica,sans-Serif" font-weight="bold" font-size="11.00" fill="#000000">individual</text>
<text text-anchor="start" x="360.0219" y="-397.8" font-family="Helvetica,sans-Serif" font-size="11.00" fill="#000000">[table]</text>
<polygon fill="none" stroke="#000000" points="295.5,-370.7 295.5,-389.7 394.5,-389.7 394.5,-370.7 295.5,-370.7"/>
<text text-anchor="start" x="298.5" y="-376.8" font-family="Helvetica,sans-Serif" font-size="11.00" fill="#000000">...</text>
<polygon fill="#ffffff" stroke="transparent" points="295.5,-351.7 295.5,-370.7 394.5,-370.7 394.5,-351.7 295.5,-351.7"/>
<polygon fill="none" stroke="#000000" points="295.5,-351.7 295.5,-370.7 394.5,-370.7 394.5,-351.7 295.5,-351.7"/>
<polygon fill="#ffffff" stroke="transparent" points="296.5,-352.7 296.5,-369.7 319.5,-369.7 319.5,-352.7 296.5,-352.7"/>
<text text-anchor="start" x="298.5" y="-357.8" font-family="Helvetica,sans-Serif" font-size="11.00" fill="#000000">&lt; 1</text>
<polygon fill="#ffffff" stroke="transparent" points="319.5,-352.7 319.5,-369.7 371.5,-369.7 371.5,-352.7 319.5,-352.7"/>
<text text-anchor="start" x="323.1904" y="-357.8" font-family="Helvetica,sans-Serif" font-size="11.00" fill="#000000">231 rows</text>
<polygon fill="#ffffff" stroke="transparent" points="371.5,-352.7 371.5,-369.7 393.5,-369.7 393.5,-352.7 371.5,-352.7"/>
<text text-anchor="start" x="375.9053" y="-357.8" font-family="Helvetica,sans-Serif" font-size="11.00" fill="#000000">1 &gt;</text>
<polygon fill="#000000" stroke="#000000" points="319.5,-352.7 319.5,-369.7 319.5,-369.7 319.5,-352.7 319.5,-352.7"/>
<polygon fill="#000000" stroke="#000000" points="371.5,-352.7 371.5,-369.7 371.5,-369.7 371.5,-352.7 371.5,-352.7"/>
</a>
</g>
</g>
<!-- party -->
<g id="node2" class="node">
<title>party</title>
<g id="a_node2"><a xlink:href="../../tables/party.html" xlink:title="party" target="_top">
<polygon fill="#ffffff" stroke="transparent" points="66.5,-208.2 66.5,-291.2 172.5,-291.2 172.5,-208.2 66.5,-208.2"/>
<polygon fill="#f5f5f5" stroke="transparent" points="66.5,-267.7 66.5,-290.7 172.5,-290.7 172.5,-267.7 66.5,-267.7"/>
<polygon fill="none" stroke="#000000" points="66.5,-267.7 66.5,-290.7 172.5,-290.7 172.5,-267.7 66.5,-267.7"/>
<text text-anchor="start" x="71.5" y="-276.3" font-family="Helvetica,sans-Serif" font-weight="bold" font-size="11.00" fill="#000000">party</text>
<text text-anchor="start" x="137.5437" y="-275.8" font-family="Helvetica,sans-Serif" font-size="11.00" fill="#000000">[table]</text>
<polygon fill="none" stroke="#000000" points="66.5,-245.7 66.5,-267.7 172.5,-267.7 172.5,-245.7 66.5,-245.7"/>
<image xlink:href="../../images/primaryKeys.png" width="11px" height="12px" preserveAspectRatio="xMinYMin meet" x="71.5" y="-262.7"/>
<text text-anchor="start" x="86.5" y="-252.8" font-family="Helvetica,sans-Serif" font-size="11.00" fill="#000000">id</text>
<polygon fill="none" stroke="#000000" points="66.5,-226.7 66.5,-245.7 172.5,-245.7 172.5,-226.7 66.5,-226.7"/>
<text text-anchor="start" x="69.5" y="-232.8" font-family="Helvetica,sans-Serif" font-size="11.00" fill="#000000">...</text>
<polygon fill="#ffffff" stroke="transparent" points="66.5,-207.7 66.5,-226.7 172.5,-226.7 172.5,-207.7 66.5,-207.7"/>
<polygon fill="none" stroke="#000000" points="66.5,-207.7 66.5,-226.7 172.5,-226.7 172.5,-207.7 66.5,-207.7"/>
<polygon fill="#ffffff" stroke="transparent" points="67.5,-208.7 67.5,-225.7 86.5,-225.7 86.5,-208.7 67.5,-208.7"/>
<text text-anchor="start" x="69.5" y="-213.8" font-family="Helvetica,sans-Serif" font-size="11.00" fill="#000000"> &#160;</text>
<polygon fill="#ffffff" stroke="transparent" points="86.5,-208.7 86.5,-225.7 143.5,-225.7 143.5,-208.7 86.5,-208.7"/>
<text text-anchor="start" x="92.6904" y="-213.8" font-family="Helvetica,sans-Serif" font-size="11.00" fill="#000000">237 rows</text>
<polygon fill="#ffffff" stroke="transparent" points="143.5,-208.7 143.5,-225.7 171.5,-225.7 171.5,-208.7 143.5,-208.7"/>
<text text-anchor="start" x="153.9053" y="-213.8" font-family="Helvetica,sans-Serif" font-size="11.00" fill="#000000">4 &gt;</text>
<polygon fill="#000000" stroke="#000000" points="86.5,-208.7 86.5,-225.7 86.5,-225.7 86.5,-208.7 86.5,-208.7"/>
<polygon fill="#000000" stroke="#000000" points="143.5,-208.7 143.5,-225.7 143.5,-225.7 143.5,-208.7 143.5,-208.7"/>
</a>
</g>
</g>
<!-- individual&#45;&gt;party -->
<g id="edge1" class="edge">
<title>individual:w&#45;&gt;party:e</title>
<path fill="none" stroke="#000000" d="M284.929,-378.8489C221.0179,-367.9815 246.0354,-256.7 172.5,-256.7"/>
<polygon fill="#000000" stroke="#000000" points="295.0236,-375.6487 294.3815,-383.6229 292.7867,-383.4945 293.4288,-375.5203 295.0236,-375.6487"/>
<polyline fill="none" stroke="#000000" points="295.5,-379.7 291.5129,-379.3789 "/>
<ellipse fill="none" stroke="#000000" cx="288.3232" cy="-379.1221" rx="3.2" ry="3.2"/>
</g>
<!-- organisation -->
<g id="node3" class="node">
<title>organisation</title>
<g id="a_node3"><a xlink:href="../../tables/organisation.html" xlink:title="organisation" target="_top">
<polygon fill="#ffffff" stroke="transparent" points="286,-270.2 286,-331.2 403,-331.2 403,-270.2 286,-270.2"/>
<polygon fill="#f5f5f5" stroke="transparent" points="286.5,-307.7 286.5,-330.7 403.5,-330.7 403.5,-307.7 286.5,-307.7"/>
<polygon fill="none" stroke="#000000" points="286.5,-307.7 286.5,-330.7 403.5,-330.7 403.5,-307.7 286.5,-307.7"/>
<text text-anchor="start" x="291.5" y="-316.3" font-family="Helvetica,sans-Serif" font-weight="bold" font-size="11.00" fill="#000000">organisation</text>
<text text-anchor="start" x="369.0219" y="-315.8" font-family="Helvetica,sans-Serif" font-size="11.00" fill="#000000">[table]</text>
<polygon fill="none" stroke="#000000" points="286.5,-288.7 286.5,-307.7 403.5,-307.7 403.5,-288.7 286.5,-288.7"/>
<text text-anchor="start" x="289.5" y="-294.8" font-family="Helvetica,sans-Serif" font-size="11.00" fill="#000000">...</text>
<polygon fill="#ffffff" stroke="transparent" points="286.5,-269.7 286.5,-288.7 403.5,-288.7 403.5,-269.7 286.5,-269.7"/>
<polygon fill="none" stroke="#000000" points="286.5,-269.7 286.5,-288.7 403.5,-288.7 403.5,-269.7 286.5,-269.7"/>
<polygon fill="#ffffff" stroke="transparent" points="287.5,-270.7 287.5,-287.7 332.5,-287.7 332.5,-270.7 287.5,-270.7"/>
<text text-anchor="start" x="289.5" y="-275.8" font-family="Helvetica,sans-Serif" font-size="11.00" fill="#000000">&lt; 1</text>
<polygon fill="#ffffff" stroke="transparent" points="332.5,-270.7 332.5,-287.7 367.5,-287.7 367.5,-270.7 332.5,-270.7"/>
<text text-anchor="start" x="346.9431" y="-275.8" font-family="Helvetica,sans-Serif" font-size="11.00" fill="#000000"> &#160;</text>
<polygon fill="#ffffff" stroke="transparent" points="367.5,-270.7 367.5,-287.7 402.5,-287.7 402.5,-270.7 367.5,-270.7"/>
<text text-anchor="start" x="394.3862" y="-275.8" font-family="Helvetica,sans-Serif" font-size="11.00" fill="#000000"> &#160;</text>
<polygon fill="#000000" stroke="#000000" points="332.5,-270.7 332.5,-287.7 332.5,-287.7 332.5,-270.7 332.5,-270.7"/>
<polygon fill="#000000" stroke="#000000" points="367.5,-270.7 367.5,-287.7 367.5,-287.7 367.5,-270.7 367.5,-270.7"/>
</a>
</g>
</g>
<!-- organisation&#45;&gt;party -->
<g id="edge2" class="edge">
<title>organisation:w&#45;&gt;party:e</title>
<path fill="none" stroke="#000000" d="M276.0938,-297.1514C231.571,-292.2861 222.6631,-256.7 172.5,-256.7"/>
<polygon fill="#000000" stroke="#000000" points="285.9117,-293.6634 285.4905,-301.6523 283.8927,-301.5681 284.3139,-293.5792 285.9117,-293.6634"/>
<polyline fill="none" stroke="#000000" points="286.5,-297.7 282.5055,-297.4894 "/>
<ellipse fill="none" stroke="#000000" cx="279.31" cy="-297.3209" rx="3.2" ry="3.2"/>
</g>
<!-- party_address -->
<g id="node4" class="node">
<title>party_address</title>
<g id="a_node4"><a xlink:href="../../tables/party_address.html" xlink:title="party_address" target="_top">
<polygon fill="#ffffff" stroke="transparent" points="281,-188.2 281,-249.2 408,-249.2 408,-188.2 281,-188.2"/>
<polygon fill="#f5f5f5" stroke="transparent" points="281.5,-225.7 281.5,-248.7 408.5,-248.7 408.5,-225.7 281.5,-225.7"/>
<polygon fill="none" stroke="#000000" points="281.5,-225.7 281.5,-248.7 408.5,-248.7 408.5,-225.7 281.5,-225.7"/>
<text text-anchor="start" x="286.5" y="-234.3" font-family="Helvetica,sans-Serif" font-weight="bold" font-size="11.00" fill="#000000">party_address</text>
<text text-anchor="start" x="374.0219" y="-233.8" font-family="Helvetica,sans-Serif" font-size="11.00" fill="#000000">[table]</text>
<polygon fill="none" stroke="#000000" points="281.5,-206.7 281.5,-225.7 408.5,-225.7 408.5,-206.7 281.5,-206.7"/>
<text text-anchor="start" x="284.5" y="-212.8" font-family="Helvetica,sans-Serif" font-size="11.00" fill="#000000">...</text>
<polygon fill="#ffffff" stroke="transparent" points="281.5,-187.7 281.5,-206.7 408.5,-206.7 408.5,-187.7 281.5,-187.7"/>
<polygon fill="none" stroke="#000000" points="281.5,-187.7 281.5,-206.7 408.5,-206.7 408.5,-187.7 281.5,-187.7"/>
<polygon fill="#ffffff" stroke="transparent" points="282.5,-188.7 282.5,-205.7 317.5,-205.7 317.5,-188.7 282.5,-188.7"/>
<text text-anchor="start" x="284.5" y="-193.8" font-family="Helvetica,sans-Serif" font-size="11.00" fill="#000000">&lt; 2</text>
<polygon fill="#ffffff" stroke="transparent" points="317.5,-188.7 317.5,-205.7 381.5,-205.7 381.5,-188.7 317.5,-188.7"/>
<text text-anchor="start" x="327.1904" y="-193.8" font-family="Helvetica,sans-Serif" font-size="11.00" fill="#000000">237 rows</text>
<polygon fill="#ffffff" stroke="transparent" points="381.5,-188.7 381.5,-205.7 407.5,-205.7 407.5,-188.7 381.5,-188.7"/>
<text text-anchor="start" x="399.3862" y="-193.8" font-family="Helvetica,sans-Serif" font-size="11.00" fill="#000000"> &#160;</text>
<polygon fill="#000000" stroke="#000000" points="317.5,-188.7 317.5,-205.7 317.5,-205.7 317.5,-188.7 317.5,-188.7"/>
<polygon fill="#000000" stroke="#000000" points="381.5,-188.7 381.5,-205.7 381.5,-205.7 381.5,-188.7 381.5,-188.7"/>
</a>
</g>
</g>
<!-- party_address&#45;&gt;party -->
<g id="edge3" class="edge">
<title>party_address:w&#45;&gt;party:e</title>
<path fill="none" stroke="#000000" d="M267.0649,-216.8828C228.1506,-223.6052 219.0015,-256.7 172.5,-256.7"/>
<polygon fill="#000000" stroke="#000000" points="273.5267,-216.3534 281.794,-219.288 277.5134,-216.0267 281.5,-215.7 281.5,-215.7 281.5,-215.7 277.5134,-216.0267 281.206,-212.112 273.5267,-216.3534 273.5267,-216.3534"/>
<ellipse fill="none" stroke="#000000" cx="270.3374" cy="-216.6148" rx="3.2" ry="3.2"/>
</g>
<!-- party_role -->
<g id="node5" class="node">
<title>party_role</title>
<g id="a_node5"><a xlink:href="../../tables/party_role.html" xlink:title="party_role" target="_top">
<polygon fill="#ffffff" stroke="transparent" points="280,-76.7 280,-166.7 409,-166.7 409,-76.7 280,-76.7"/>
<polygon fill="#f5f5f5" stroke="transparent" points="282.5,-141.7 282.5,-164.7 407.5,-164.7 407.5,-141.7 282.5,-141.7"/>
<polygon fill="none" stroke="#000000" points="282.5,-141.7 282.5,-164.7 407.5,-164.7 407.5,-141.7 282.5,-141.7"/>
<text text-anchor="start" x="287.5" y="-150.3" font-family="Helvetica,sans-Serif" font-weight="bold" font-size="11.00" fill="#000000">party_role</text>
<text text-anchor="start" x="372.5437" y="-149.8" font-family="Helvetica,sans-Serif" font-size="11.00" fill="#000000">[table]</text>
<polygon fill="none" stroke="#000000" points="282.5,-119.7 282.5,-141.7 365.5,-141.7 365.5,-119.7 282.5,-119.7"/>
<image xlink:href="../../images/primaryKeys.png" width="11px" height="12px" preserveAspectRatio="xMinYMin meet" x="287.5" y="-136.7"/>
<text text-anchor="start" x="302.5" y="-126.8" font-family="Helvetica,sans-Serif" font-size="11.00" fill="#000000">party_id</text>
<polygon fill="none" stroke="#000000" points="365.5,-119.7 365.5,-141.7 407.5,-141.7 407.5,-119.7 365.5,-119.7"/>
<text text-anchor="start" x="368.4644" y="-127.4" font-family="Helvetica,sans-Serif" font-size="11.00" fill="#000000">int8[19]</text>
<polygon fill="none" stroke="#000000" points="282.5,-97.7 282.5,-119.7 365.5,-119.7 365.5,-97.7 282.5,-97.7"/>
<image xlink:href="../../images/primaryKeys.png" width="11px" height="12px" preserveAspectRatio="xMinYMin meet" x="287.5" y="-114.7"/>
<text text-anchor="start" x="302.5" y="-104.8" font-family="Helvetica,sans-Serif" font-size="11.00" fill="#000000">role_id</text>
<polygon fill="none" stroke="#000000" points="365.5,-97.7 365.5,-119.7 407.5,-119.7 407.5,-97.7 365.5,-97.7"/>
<text text-anchor="start" x="368.4644" y="-105.4" font-family="Helvetica,sans-Serif" font-size="11.00" fill="#000000">int8[19]</text>
<polygon fill="#ffffff" stroke="transparent" points="282.5,-78.7 282.5,-97.7 407.5,-97.7 407.5,-78.7 282.5,-78.7"/>
<polygon fill="none" stroke="#000000" points="282.5,-78.7 282.5,-97.7 407.5,-97.7 407.5,-78.7 282.5,-78.7"/>
<polygon fill="#ffffff" stroke="transparent" points="283.5,-79.7 283.5,-96.7 315.5,-96.7 315.5,-79.7 283.5,-79.7"/>
<text text-anchor="start" x="285.5" y="-84.8" font-family="Helvetica,sans-Serif" font-size="11.00" fill="#000000">&lt; 2</text>
<polygon fill="#ffffff" stroke="transparent" points="315.5,-79.7 315.5,-96.7 375.5,-96.7 375.5,-79.7 315.5,-79.7"/>
<text text-anchor="start" x="323.1904" y="-84.8" font-family="Helvetica,sans-Serif" font-size="11.00" fill="#000000">424 rows</text>
<polygon fill="#ffffff" stroke="transparent" points="375.5,-79.7 375.5,-96.7 406.5,-96.7 406.5,-79.7 375.5,-79.7"/>
<text text-anchor="start" x="388.9053" y="-84.8" font-family="Helvetica,sans-Serif" font-size="11.00" fill="#000000">0 &gt;</text>
<polygon fill="#000000" stroke="#000000" points="315.5,-79.7 315.5,-96.7 315.5,-96.7 315.5,-79.7 315.5,-79.7"/>
<polygon fill="#000000" stroke="#000000" points="375.5,-79.7 375.5,-96.7 375.5,-96.7 375.5,-79.7 375.5,-79.7"/>
<polygon fill="none" stroke="#000000" stroke-width="2" points="281,-77.7 281,-165.7 408,-165.7 408,-77.7 281,-77.7"/>
</a>
</g>
</g>
<!-- party_role&#45;&gt;party -->
<g id="edge4" class="edge">
<title>party_role:w&#45;&gt;party:e</title>
<path fill="none" stroke="#000000" d="M268.0691,-132.5789C213.1618,-148.2529 241.4658,-256.7 172.5,-256.7"/>
<polygon fill="#000000" stroke="#000000" points="274.567,-131.7329 282.9648,-134.2699 278.5335,-131.2165 282.5,-130.7 282.5,-130.7 282.5,-130.7 278.5335,-131.2165 282.0352,-127.1301 274.567,-131.7329 274.567,-131.7329"/>
<ellipse fill="none" stroke="#000000" cx="271.3937" cy="-132.1461" rx="3.2" ry="3.2"/>
</g>
<!-- role -->
<g id="node6" class="node">
<title>role</title>
<g id="a_node6"><a xlink:href="../../tables/role.html" xlink:title="role" target="_top">
<polygon fill="#ffffff" stroke="transparent" points="8,-38.2 8,-143.2 231,-143.2 231,-38.2 8,-38.2"/>
<polygon fill="#f5f5f5" stroke="transparent" points="8.5,-119.7 8.5,-142.7 231.5,-142.7 231.5,-119.7 8.5,-119.7"/>
<polygon fill="none" stroke="#000000" points="8.5,-119.7 8.5,-142.7 231.5,-142.7 231.5,-119.7 8.5,-119.7"/>
<text text-anchor="start" x="13.5" y="-128.3" font-family="Helvetica,sans-Serif" font-weight="bold" font-size="11.00" fill="#000000">role</text>
<text text-anchor="start" x="196.5437" y="-127.8" font-family="Helvetica,sans-Serif" font-size="11.00" fill="#000000">[table]</text>
<polygon fill="none" stroke="#000000" points="8.5,-97.7 8.5,-119.7 231.5,-119.7 231.5,-97.7 8.5,-97.7"/>
<image xlink:href="../../images/primaryKeys.png" width="11px" height="12px" preserveAspectRatio="xMinYMin meet" x="13.5" y="-114.7"/>
<text text-anchor="start" x="28.5" y="-104.8" font-family="Helvetica,sans-Serif" font-size="11.00" fill="#000000">id</text>
<polygon fill="#ffffff" stroke="transparent" points="8.5,-75.7 8.5,-97.7 231.5,-97.7 231.5,-75.7 8.5,-75.7"/>
<polygon fill="none" stroke="#000000" points="8.5,-75.7 8.5,-97.7 231.5,-97.7 231.5,-75.7 8.5,-75.7"/>
<text text-anchor="start" x="28.5" y="-82.8" font-family="Helvetica,sans-Serif" font-size="11.00" fill="#000000">party_id</text>
<polygon fill="none" stroke="#000000" points="8.5,-56.7 8.5,-75.7 231.5,-75.7 231.5,-56.7 8.5,-56.7"/>
<text text-anchor="start" x="11.5" y="-62.8" font-family="Helvetica,sans-Serif" font-size="11.00" fill="#000000">...</text>
<polygon fill="#ffffff" stroke="transparent" points="8.5,-37.7 8.5,-56.7 231.5,-56.7 231.5,-37.7 8.5,-37.7"/>
<polygon fill="none" stroke="#000000" points="8.5,-37.7 8.5,-56.7 231.5,-56.7 231.5,-37.7 8.5,-37.7"/>
<polygon fill="#ffffff" stroke="transparent" points="9.5,-38.7 9.5,-55.7 67.5,-55.7 67.5,-38.7 9.5,-38.7"/>
<text text-anchor="start" x="11.5" y="-43.8" font-family="Helvetica,sans-Serif" font-size="11.00" fill="#000000"> &#160;</text>
<polygon fill="#ffffff" stroke="transparent" points="67.5,-38.7 67.5,-55.7 163.5,-55.7 163.5,-38.7 67.5,-38.7"/>
<text text-anchor="start" x="93.1904" y="-43.8" font-family="Helvetica,sans-Serif" font-size="11.00" fill="#000000">424 rows</text>
<polygon fill="#ffffff" stroke="transparent" points="163.5,-38.7 163.5,-55.7 230.5,-55.7 230.5,-38.7 163.5,-38.7"/>
<text text-anchor="start" x="212.9053" y="-43.8" font-family="Helvetica,sans-Serif" font-size="11.00" fill="#000000">1 &gt;</text>
<polygon fill="#000000" stroke="#000000" points="67.5,-38.7 67.5,-55.7 67.5,-55.7 67.5,-38.7 67.5,-38.7"/>
<polygon fill="#000000" stroke="#000000" points="163.5,-38.7 163.5,-55.7 163.5,-55.7 163.5,-38.7 163.5,-38.7"/>
</a>
</g>
</g>
<!-- party_role&#45;&gt;role -->
<g id="edge5" class="edge">
<title>party_role:w&#45;&gt;role:e</title>
<path fill="none" stroke="#000000" d="M267.776,-108.7C255.7815,-108.7 248.3229,-108.7 231.5,-108.7"/>
<polygon fill="#000000" stroke="#000000" points="274.5,-108.7001 282.5,-112.3 278.5,-108.7 282.5,-108.7 282.5,-108.7 282.5,-108.7 278.5,-108.7 282.5,-105.1 274.5,-108.7001 274.5,-108.7001"/>
<ellipse fill="none" stroke="#000000" cx="271.3" cy="-108.7001" rx="3.2" ry="3.2"/>
</g>
</g>
</svg>
