<?xml version="1.0" encoding="UTF-8" standalone="no"?>
<!DOCTYPE svg PUBLIC "-//W3C//DTD SVG 1.1//EN"
 "http://www.w3.org/Graphics/SVG/1.1/DTD/svg11.dtd">
<!-- Generated by graphviz version 2.40.1 (20161225.0304)
 -->
<!-- Title: twoDegreesRelationshipsDiagram Pages: 1 -->
<svg width="468pt" height="487pt"
 viewBox="0.00 0.00 468.00 486.70" xmlns="http://www.w3.org/2000/svg" xmlns:xlink="http://www.w3.org/1999/xlink">
<g id="graph0" class="graph" transform="scale(1 1) rotate(0) translate(4 482.7)">
<title>twoDegreesRelationshipsDiagram</title>
<polygon fill="#ffffff" stroke="transparent" points="-4,4 -4,-482.7 464,-482.7 464,4 -4,4"/>
<text text-anchor="middle" x="72.4936" y="-7.3" font-family="Helvetica,sans-Serif" font-size="11.00" fill="#000000">Generated by SchemaSpy</text>
<!-- party_role -->
<g id="node1" class="node">
<title>party_role</title>
<g id="a_node1"><a xlink:href="../../tables/party_role.html" xlink:title="party_role" target="_top">
<polygon fill="#ffffff" stroke="transparent" points="351,-335.2 351,-421.2 452,-421.2 452,-335.2 351,-335.2"/>
<polygon fill="#f5f5f5" stroke="transparent" points="351.5,-398.2 351.5,-421.2 452.5,-421.2 452.5,-398.2 351.5,-398.2"/>
<polygon fill="none" stroke="#000000" points="351.5,-398.2 351.5,-421.2 452.5,-421.2 452.5,-398.2 351.5,-398.2"/>
<text text-anchor="start" x="356.5" y="-406.8" font-family="Helvetica,sans-Serif" font-weight="bold" font-size="11.00" fill="#000000">party_role</text>
<text text-anchor="start" x="418.0219" y="-406.3" font-family="Helvetica,sans-Serif" font-size="11.00" fill="#000000">[table]</text>
<polygon fill="none" stroke="#000000" points="351.5,-376.2 351.5,-398.2 452.5,-398.2 452.5,-376.2 351.5,-376.2"/>
<image xlink:href="../../images/primaryKeys.png" width="11px" height="12px" preserveAspectRatio="xMinYMin meet" x="356.5" y="-393.2"/>
<text text-anchor="start" x="380.5" y="-383.3" font-family="Helvetica,sans-Serif" font-size="11.00" fill="#000000">party_id</text>
<polygon fill="none" stroke="#000000" points="351.5,-354.2 351.5,-376.2 452.5,-376.2 452.5,-354.2 351.5,-354.2"/>
<image xlink:href="../../images/primaryKeys.png" width="11px" height="12px" preserveAspectRatio="xMinYMin meet" x="356.5" y="-371.2"/>
<text text-anchor="start" x="380.5" y="-361.3" font-family="Helvetica,sans-Serif" font-size="11.00" fill="#000000">role_id</text>
<polygon fill="#ffffff" stroke="transparent" points="351.5,-335.2 351.5,-354.2 452.5,-354.2 452.5,-335.2 351.5,-335.2"/>
<polygon fill="none" stroke="#000000" points="351.5,-335.2 351.5,-354.2 452.5,-354.2 452.5,-335.2 351.5,-335.2"/>
<polygon fill="#ffffff" stroke="transparent" points="352.5,-336.2 352.5,-353.2 379.5,-353.2 379.5,-336.2 352.5,-336.2"/>
<text text-anchor="start" x="354.5" y="-341.3" font-family="Helvetica,sans-Serif" font-size="11.00" fill="#000000">&lt; 2</text>
<polygon fill="#ffffff" stroke="transparent" points="379.5,-336.2 379.5,-353.2 434.5,-353.2 434.5,-336.2 379.5,-336.2"/>
<text text-anchor="start" x="384.6904" y="-341.3" font-family="Helvetica,sans-Serif" font-size="11.00" fill="#000000">424 rows</text>
<polygon fill="#ffffff" stroke="transparent" points="434.5,-336.2 434.5,-353.2 451.5,-353.2 451.5,-336.2 434.5,-336.2"/>
<text text-anchor="start" x="443.3862" y="-341.3" font-family="Helvetica,sans-Serif" font-size="11.00" fill="#000000"> &#160;</text>
<polygon fill="#000000" stroke="#000000" points="379.5,-336.2 379.5,-353.2 379.5,-353.2 379.5,-336.2 379.5,-336.2"/>
<polygon fill="#000000" stroke="#000000" points="434.5,-336.2 434.5,-353.2 434.5,-353.2 434.5,-336.2 434.5,-336.2"/>
</a>
</g>
</g>
<!-- party -->
<g id="node2" class="node">
<title>party</title>
<g id="a_node2"><a xlink:href="../../tables/party.html" xlink:title="party" target="_top">
<polygon fill="#ffffff" stroke="transparent" points="115.5,-413.7 115.5,-474.7 194.5,-474.7 194.5,-413.7 115.5,-413.7"/>
<polygon fill="#f5f5f5" stroke="transparent" points="116,-451.2 116,-474.2 195,-474.2 195,-451.2 116,-451.2"/>
<polygon fill="none" stroke="#000000" points="116,-451.2 116,-474.2 195,-474.2 195,-451.2 116,-451.2"/>
<text text-anchor="start" x="121" y="-459.8" font-family="Helvetica,sans-Serif" font-weight="bold" font-size="11.00" fill="#000000">party</text>
<text text-anchor="start" x="160.0437" y="-459.3" font-family="Helvetica,sans-Serif" font-size="11.00" fill="#000000">[table]</text>
<polygon fill="none" stroke="#000000" points="116,-432.2 116,-451.2 195,-451.2 195,-432.2 116,-432.2"/>
<text text-anchor="start" x="119" y="-438.3" font-family="Helvetica,sans-Serif" font-size="11.00" fill="#000000">...</text>
<polygon fill="#ffffff" stroke="transparent" points="116,-413.2 116,-432.2 195,-432.2 195,-413.2 116,-413.2"/>
<polygon fill="none" stroke="#000000" points="116,-413.2 116,-432.2 195,-432.2 195,-413.2 116,-413.2"/>
<polygon fill="#ffffff" stroke="transparent" points="117,-414.2 117,-431.2 127,-431.2 127,-414.2 117,-414.2"/>
<text text-anchor="start" x="118.9431" y="-419.3" font-family="Helvetica,sans-Serif" font-size="11.00" fill="#000000"> &#160;</text>
<polygon fill="#ffffff" stroke="transparent" points="127,-414.2 127,-431.2 175,-431.2 175,-414.2 127,-414.2"/>
<text text-anchor="start" x="128.6904" y="-419.3" font-family="Helvetica,sans-Serif" font-size="11.00" fill="#000000">237 rows</text>
<polygon fill="#ffffff" stroke="transparent" points="175,-414.2 175,-431.2 194,-431.2 194,-414.2 175,-414.2"/>
<text text-anchor="start" x="176.7027" y="-419.3" font-family="Helvetica,sans-Serif" font-size="11.00" fill="#000000">4 &gt;</text>
<polygon fill="#000000" stroke="#000000" points="127,-414.2 127,-431.2 127,-431.2 127,-414.2 127,-414.2"/>
<polygon fill="#000000" stroke="#000000" points="175,-414.2 175,-431.2 175,-431.2 175,-414.2 175,-414.2"/>
</a>
</g>
</g>
<!-- party_role&#45;&gt;party -->
<g id="edge1" class="edge">
<title>party_role:w&#45;&gt;party:e</title>
<path fill="none" stroke="#000000" d="M337.1584,-389.4615C328.3929,-392.6434 322.9416,-398.5702 310,-403.2 259.3165,-421.3319 248.8292,-441.2 195,-441.2"/>
<polygon fill="#000000" stroke="#000000" points="343.5976,-388.4462 352.0608,-390.7561 347.5488,-387.8231 351.5,-387.2 351.5,-387.2 351.5,-387.2 347.5488,-387.8231 350.9392,-383.6439 343.5976,-388.4462 343.5976,-388.4462"/>
<ellipse fill="none" stroke="#000000" cx="340.4367" cy="-388.9446" rx="3.2" ry="3.2"/>
</g>
<!-- role -->
<g id="node3" class="node">
<title>role</title>
<g id="a_node3"><a xlink:href="../../tables/role.html" xlink:title="role" target="_top">
<polygon fill="#ffffff" stroke="transparent" points="8,-38.2 8,-392.2 302,-392.2 302,-38.2 8,-38.2"/>
<polygon fill="#f5f5f5" stroke="transparent" points="10,-367.2 10,-390.2 300,-390.2 300,-367.2 10,-367.2"/>
<polygon fill="none" stroke="#000000" points="10,-367.2 10,-390.2 300,-390.2 300,-367.2 10,-367.2"/>
<text text-anchor="start" x="15" y="-375.8" font-family="Helvetica,sans-Serif" font-weight="bold" font-size="11.00" fill="#000000">role</text>
<text text-anchor="start" x="265.0437" y="-375.3" font-family="Helvetica,sans-Serif" font-size="11.00" fill="#000000">[table]</text>
<polygon fill="none" stroke="#000000" points="10,-345.2 10,-367.2 233,-367.2 233,-345.2 10,-345.2"/>
<text text-anchor="start" x="30" y="-352.3" font-family="Helvetica,sans-Serif" font-size="11.00" fill="#000000">party_type</text>
<polygon fill="none" stroke="#000000" points="233,-345.2 233,-367.2 300,-367.2 300,-345.2 233,-345.2"/>
<text text-anchor="start" x="236" y="-352.9" font-family="Helvetica,sans-Serif" font-size="11.00" fill="#000000">int2[5]</text>
<polygon fill="none" stroke="#000000" points="10,-323.2 10,-345.2 233,-345.2 233,-323.2 10,-323.2"/>
<text text-anchor="start" x="30" y="-330.3" font-family="Helvetica,sans-Serif" font-size="11.00" fill="#000000">reciprocal_party_type</text>
<polygon fill="none" stroke="#000000" points="233,-323.2 233,-345.2 300,-345.2 300,-323.2 233,-323.2"/>
<text text-anchor="start" x="236" y="-330.9" font-family="Helvetica,sans-Serif" font-size="11.00" fill="#000000">int2[5]</text>
<polygon fill="none" stroke="#000000" points="10,-301.2 10,-323.2 233,-323.2 233,-301.2 10,-301.2"/>
<image xlink:href="../../images/primaryKeys.png" width="11px" height="12px" preserveAspectRatio="xMinYMin meet" x="15" y="-318.2"/>
<text text-anchor="start" x="30" y="-308.3" font-family="Helvetica,sans-Serif" font-size="11.00" fill="#000000">id</text>
<polygon fill="none" stroke="#000000" points="233,-301.2 233,-323.2 300,-323.2 300,-301.2 233,-301.2"/>
<text text-anchor="start" x="236" y="-308.9" font-family="Helvetica,sans-Serif" font-size="11.00" fill="#000000">int8[19]</text>
<polygon fill="#ffffff" stroke="transparent" points="10,-279.2 10,-301.2 233,-301.2 233,-279.2 10,-279.2"/>
<polygon fill="none" stroke="#000000" points="10,-279.2 10,-301.2 233,-301.2 233,-279.2 10,-279.2"/>
<text text-anchor="start" x="30" y="-286.3" font-family="Helvetica,sans-Serif" font-size="11.00" fill="#000000">party_id</text>
<polygon fill="none" stroke="#000000" points="233,-279.2 233,-301.2 300,-301.2 300,-279.2 233,-279.2"/>
<text text-anchor="start" x="236" y="-286.9" font-family="Helvetica,sans-Serif" font-size="11.00" fill="#000000">int8[19]</text>
<polygon fill="none" stroke="#000000" points="10,-257.2 10,-279.2 233,-279.2 233,-257.2 10,-257.2"/>
<text text-anchor="start" x="30" y="-264.3" font-family="Helvetica,sans-Serif" font-size="11.00" fill="#000000">reciprocal_party_id</text>
<polygon fill="none" stroke="#000000" points="233,-257.2 233,-279.2 300,-279.2 300,-257.2 233,-257.2"/>
<text text-anchor="start" x="236" y="-264.9" font-family="Helvetica,sans-Serif" font-size="11.00" fill="#000000">int8[19]</text>
<polygon fill="none" stroke="#000000" points="10,-235.2 10,-257.2 233,-257.2 233,-235.2 10,-235.2"/>
<text text-anchor="start" x="30" y="-242.3" font-family="Helvetica,sans-Serif" font-size="11.00" fill="#000000">party_email</text>
<polygon fill="none" stroke="#000000" points="233,-235.2 233,-257.2 300,-257.2 300,-235.2 233,-235.2"/>
<text text-anchor="start" x="235.9365" y="-242.9" font-family="Helvetica,sans-Serif" font-size="11.00" fill="#000000">varchar[255]</text>
<polygon fill="none" stroke="#000000" points="10,-213.2 10,-235.2 233,-235.2 233,-213.2 10,-213.2"/>
<text text-anchor="start" x="30" y="-220.3" font-family="Helvetica,sans-Serif" font-size="11.00" fill="#000000">party_name</text>
<polygon fill="none" stroke="#000000" points="233,-213.2 233,-235.2 300,-235.2 300,-213.2 233,-213.2"/>
<text text-anchor="start" x="235.9365" y="-220.9" font-family="Helvetica,sans-Serif" font-size="11.00" fill="#000000">varchar[255]</text>
<polygon fill="none" stroke="#000000" points="10,-191.2 10,-213.2 233,-213.2 233,-191.2 10,-191.2"/>
<text text-anchor="start" x="30" y="-198.3" font-family="Helvetica,sans-Serif" font-size="11.00" fill="#000000">party_phone_number</text>
<polygon fill="none" stroke="#000000" points="233,-191.2 233,-213.2 300,-213.2 300,-191.2 233,-191.2"/>
<text text-anchor="start" x="235.9365" y="-198.9" font-family="Helvetica,sans-Serif" font-size="11.00" fill="#000000">varchar[255]</text>
<polygon fill="none" stroke="#000000" points="10,-169.2 10,-191.2 233,-191.2 233,-169.2 10,-169.2"/>
<text text-anchor="start" x="30" y="-176.3" font-family="Helvetica,sans-Serif" font-size="11.00" fill="#000000">reciprocal_party_email</text>
<polygon fill="none" stroke="#000000" points="233,-169.2 233,-191.2 300,-191.2 300,-169.2 233,-169.2"/>
<text text-anchor="start" x="235.9365" y="-176.9" font-family="Helvetica,sans-Serif" font-size="11.00" fill="#000000">varchar[255]</text>
<polygon fill="none" stroke="#000000" points="10,-147.2 10,-169.2 233,-169.2 233,-147.2 10,-147.2"/>
<text text-anchor="start" x="30" y="-154.3" font-family="Helvetica,sans-Serif" font-size="11.00" fill="#000000">reciprocal_party_name</text>
<polygon fill="none" stroke="#000000" points="233,-147.2 233,-169.2 300,-169.2 300,-147.2 233,-147.2"/>
<text text-anchor="start" x="235.9365" y="-154.9" font-family="Helvetica,sans-Serif" font-size="11.00" fill="#000000">varchar[255]</text>
<polygon fill="none" stroke="#000000" points="10,-125.2 10,-147.2 233,-147.2 233,-125.2 10,-125.2"/>
<text text-anchor="start" x="30" y="-132.3" font-family="Helvetica,sans-Serif" font-size="11.00" fill="#000000">reciprocal_party_phone_number</text>
<polygon fill="none" stroke="#000000" points="233,-125.2 233,-147.2 300,-147.2 300,-125.2 233,-125.2"/>
<text text-anchor="start" x="235.9365" y="-132.9" font-family="Helvetica,sans-Serif" font-size="11.00" fill="#000000">varchar[255]</text>
<polygon fill="none" stroke="#000000" points="10,-103.2 10,-125.2 233,-125.2 233,-103.2 10,-103.2"/>
<text text-anchor="start" x="30" y="-110.3" font-family="Helvetica,sans-Serif" font-size="11.00" fill="#000000">reciprocal_role</text>
<polygon fill="none" stroke="#000000" points="233,-103.2 233,-125.2 300,-125.2 300,-103.2 233,-103.2"/>
<text text-anchor="start" x="235.9365" y="-110.9" font-family="Helvetica,sans-Serif" font-size="11.00" fill="#000000">varchar[255]</text>
<polygon fill="none" stroke="#000000" points="10,-81.2 10,-103.2 233,-103.2 233,-81.2 10,-81.2"/>
<text text-anchor="start" x="30" y="-88.3" font-family="Helvetica,sans-Serif" font-size="11.00" fill="#000000">relationship</text>
<polygon fill="none" stroke="#000000" points="233,-81.2 233,-103.2 300,-103.2 300,-81.2 233,-81.2"/>
<text text-anchor="start" x="235.9365" y="-88.9" font-family="Helvetica,sans-Serif" font-size="11.00" fill="#000000">varchar[255]</text>
<polygon fill="none" stroke="#000000" points="10,-59.2 10,-81.2 233,-81.2 233,-59.2 10,-59.2"/>
<text text-anchor="start" x="30" y="-66.3" font-family="Helvetica,sans-Serif" font-size="11.00" fill="#000000">role</text>
<polygon fill="none" stroke="#000000" points="233,-59.2 233,-81.2 300,-81.2 300,-59.2 233,-59.2"/>
<text text-anchor="start" x="235.9365" y="-66.9" font-family="Helvetica,sans-Serif" font-size="11.00" fill="#000000">varchar[255]</text>
<polygon fill="#ffffff" stroke="transparent" points="10,-40.2 10,-59.2 300,-59.2 300,-40.2 10,-40.2"/>
<polygon fill="none" stroke="#000000" points="10,-40.2 10,-59.2 300,-59.2 300,-40.2 10,-40.2"/>
<polygon fill="#ffffff" stroke="transparent" points="11,-41.2 11,-58.2 98,-58.2 98,-41.2 11,-41.2"/>
<text text-anchor="start" x="13" y="-46.3" font-family="Helvetica,sans-Serif" font-size="11.00" fill="#000000">&lt; 0</text>
<polygon fill="#ffffff" stroke="transparent" points="98,-41.2 98,-58.2 213,-58.2 213,-41.2 98,-41.2"/>
<text text-anchor="start" x="133.1904" y="-46.3" font-family="Helvetica,sans-Serif" font-size="11.00" fill="#000000">424 rows</text>
<polygon fill="#ffffff" stroke="transparent" points="213,-41.2 213,-58.2 299,-58.2 299,-41.2 213,-41.2"/>
<text text-anchor="start" x="281.4053" y="-46.3" font-family="Helvetica,sans-Serif" font-size="11.00" fill="#000000">1 &gt;</text>
<polygon fill="#000000" stroke="#000000" points="98,-41.2 98,-58.2 98,-58.2 98,-41.2 98,-41.2"/>
<polygon fill="#000000" stroke="#000000" points="213,-41.2 213,-58.2 213,-58.2 213,-41.2 213,-41.2"/>
<polygon fill="none" stroke="#000000" stroke-width="2" points="9,-39.2 9,-391.2 301,-391.2 301,-39.2 9,-39.2"/>
</a>
</g>
</g>
<!-- party_role&#45;&gt;role -->
<g id="edge2" class="edge">
<title>party_role:w&#45;&gt;role:e</title>
<path fill="none" stroke="#000000" d="M337.8048,-360.6812C322.236,-347.8644 326.9428,-312.2 300,-312.2"/>
<polygon fill="#000000" stroke="#000000" points="343.9029,-362.6933 350.372,-368.6187 347.7014,-363.9466 351.5,-365.2 351.5,-365.2 351.5,-365.2 347.7014,-363.9466 352.628,-361.7813 343.9029,-362.6933 343.9029,-362.6933"/>
<ellipse fill="none" stroke="#000000" cx="340.864" cy="-361.6906" rx="3.2" ry="3.2"/>
</g>
</g>
</svg>
