<?xml version="1.0" encoding="UTF-8" standalone="no"?>
<!DOCTYPE svg PUBLIC "-//W3C//DTD SVG 1.1//EN"
 "http://www.w3.org/Graphics/SVG/1.1/DTD/svg11.dtd">
<!-- Generated by graphviz version 2.40.1 (20161225.0304)
 -->
<!-- Title: oneDegreeRelationshipsDiagram Pages: 1 -->
<svg width="468pt" height="404pt"
 viewBox="0.00 0.00 468.00 404.20" xmlns="http://www.w3.org/2000/svg" xmlns:xlink="http://www.w3.org/1999/xlink">
<g id="graph0" class="graph" transform="scale(1 1) rotate(0) translate(4 400.2)">
<title>oneDegreeRelationshipsDiagram</title>
<polygon fill="#ffffff" stroke="transparent" points="-4,4 -4,-400.2 464,-400.2 464,4 -4,4"/>
<text text-anchor="middle" x="72.4936" y="-7.3" font-family="Helvetica,sans-Serif" font-size="11.00" fill="#000000">Generated by SchemaSpy</text>
<!-- party_role -->
<g id="node1" class="node">
<title>party_role</title>
<g id="a_node1"><a xlink:href="../../tables/party_role.html" xlink:title="party_role" target="_top">
<polygon fill="#ffffff" stroke="transparent" points="351,-282.2 351,-368.2 452,-368.2 452,-282.2 351,-282.2"/>
<polygon fill="#f5f5f5" stroke="transparent" points="351.5,-345.2 351.5,-368.2 452.5,-368.2 452.5,-345.2 351.5,-345.2"/>
<polygon fill="none" stroke="#000000" points="351.5,-345.2 351.5,-368.2 452.5,-368.2 452.5,-345.2 351.5,-345.2"/>
<text text-anchor="start" x="356.5" y="-353.8" font-family="Helvetica,sans-Serif" font-weight="bold" font-size="11.00" fill="#000000">party_role</text>
<text text-anchor="start" x="418.0219" y="-353.3" font-family="Helvetica,sans-Serif" font-size="11.00" fill="#000000">[table]</text>
<polygon fill="none" stroke="#000000" points="351.5,-323.2 351.5,-345.2 452.5,-345.2 452.5,-323.2 351.5,-323.2"/>
<image xlink:href="../../images/primaryKeys.png" width="11px" height="12px" preserveAspectRatio="xMinYMin meet" x="356.5" y="-340.2"/>
<text text-anchor="start" x="380.5" y="-330.3" font-family="Helvetica,sans-Serif" font-size="11.00" fill="#000000">party_id</text>
<polygon fill="none" stroke="#000000" points="351.5,-301.2 351.5,-323.2 452.5,-323.2 452.5,-301.2 351.5,-301.2"/>
<image xlink:href="../../images/primaryKeys.png" width="11px" height="12px" preserveAspectRatio="xMinYMin meet" x="356.5" y="-318.2"/>
<text text-anchor="start" x="380.5" y="-308.3" font-family="Helvetica,sans-Serif" font-size="11.00" fill="#000000">role_id</text>
<polygon fill="#ffffff" stroke="transparent" points="351.5,-282.2 351.5,-301.2 452.5,-301.2 452.5,-282.2 351.5,-282.2"/>
<polygon fill="none" stroke="#000000" points="351.5,-282.2 351.5,-301.2 452.5,-301.2 452.5,-282.2 351.5,-282.2"/>
<polygon fill="#ffffff" stroke="transparent" points="352.5,-283.2 352.5,-300.2 379.5,-300.2 379.5,-283.2 352.5,-283.2"/>
<text text-anchor="start" x="354.5" y="-288.3" font-family="Helvetica,sans-Serif" font-size="11.00" fill="#000000">&lt; 2</text>
<polygon fill="#ffffff" stroke="transparent" points="379.5,-283.2 379.5,-300.2 434.5,-300.2 434.5,-283.2 379.5,-283.2"/>
<text text-anchor="start" x="384.6904" y="-288.3" font-family="Helvetica,sans-Serif" font-size="11.00" fill="#000000">424 rows</text>
<polygon fill="#ffffff" stroke="transparent" points="434.5,-283.2 434.5,-300.2 451.5,-300.2 451.5,-283.2 434.5,-283.2"/>
<text text-anchor="start" x="443.3862" y="-288.3" font-family="Helvetica,sans-Serif" font-size="11.00" fill="#000000"> &#160;</text>
<polygon fill="#000000" stroke="#000000" points="379.5,-283.2 379.5,-300.2 379.5,-300.2 379.5,-283.2 379.5,-283.2"/>
<polygon fill="#000000" stroke="#000000" points="434.5,-283.2 434.5,-300.2 434.5,-300.2 434.5,-283.2 434.5,-283.2"/>
</a>
</g>
</g>
<!-- role -->
<g id="node2" class="node">
<title>role</title>
<g id="a_node2"><a xlink:href="../../tables/role.html" xlink:title="role" target="_top">
<polygon fill="#ffffff" stroke="transparent" points="8,-38.2 8,-392.2 302,-392.2 302,-38.2 8,-38.2"/>
<polygon fill="#f5f5f5" stroke="transparent" points="10,-367.2 10,-390.2 300,-390.2 300,-367.2 10,-367.2"/>
<polygon fill="none" stroke="#000000" points="10,-367.2 10,-390.2 300,-390.2 300,-367.2 10,-367.2"/>
<text text-anchor="start" x="15" y="-375.8" font-family="Helvetica,sans-Serif" font-weight="bold" font-size="11.00" fill="#000000">role</text>
<text text-anchor="start" x="265.0437" y="-375.3" font-family="Helvetica,sans-Serif" font-size="11.00" fill="#000000">[table]</text>
<polygon fill="none" stroke="#000000" points="10,-345.2 10,-367.2 233,-367.2 233,-345.2 10,-345.2"/>
<text text-anchor="start" x="30" y="-352.3" font-family="Helvetica,sans-Serif" font-size="11.00" fill="#000000">party_type</text>
<polygon fill="none" stroke="#000000" points="233,-345.2 233,-367.2 300,-367.2 300,-345.2 233,-345.2"/>
<text text-anchor="start" x="236" y="-352.9" font-family="Helvetica,sans-Serif" font-size="11.00" fill="#000000">int2[5]</text>
<polygon fill="none" stroke="#000000" points="10,-323.2 10,-345.2 233,-345.2 233,-323.2 10,-323.2"/>
<text text-anchor="start" x="30" y="-330.3" font-family="Helvetica,sans-Serif" font-size="11.00" fill="#000000">reciprocal_party_type</text>
<polygon fill="none" stroke="#000000" points="233,-323.2 233,-345.2 300,-345.2 300,-323.2 233,-323.2"/>
<text text-anchor="start" x="236" y="-330.9" font-family="Helvetica,sans-Serif" font-size="11.00" fill="#000000">int2[5]</text>
<polygon fill="none" stroke="#000000" points="10,-301.2 10,-323.2 233,-323.2 233,-301.2 10,-301.2"/>
<image xlink:href="../../images/primaryKeys.png" width="11px" height="12px" preserveAspectRatio="xMinYMin meet" x="15" y="-318.2"/>
<text text-anchor="start" x="30" y="-308.3" font-family="Helvetica,sans-Serif" font-size="11.00" fill="#000000">id</text>
<polygon fill="none" stroke="#000000" points="233,-301.2 233,-323.2 300,-323.2 300,-301.2 233,-301.2"/>
<text text-anchor="start" x="236" y="-308.9" font-family="Helvetica,sans-Serif" font-size="11.00" fill="#000000">int8[19]</text>
<polygon fill="#ffffff" stroke="transparent" points="10,-279.2 10,-301.2 233,-301.2 233,-279.2 10,-279.2"/>
<polygon fill="none" stroke="#000000" points="10,-279.2 10,-301.2 233,-301.2 233,-279.2 10,-279.2"/>
<text text-anchor="start" x="30" y="-286.3" font-family="Helvetica,sans-Serif" font-size="11.00" fill="#000000">party_id</text>
<polygon fill="none" stroke="#000000" points="233,-279.2 233,-301.2 300,-301.2 300,-279.2 233,-279.2"/>
<text text-anchor="start" x="236" y="-286.9" font-family="Helvetica,sans-Serif" font-size="11.00" fill="#000000">int8[19]</text>
<polygon fill="none" stroke="#000000" points="10,-257.2 10,-279.2 233,-279.2 233,-257.2 10,-257.2"/>
<text text-anchor="start" x="30" y="-264.3" font-family="Helvetica,sans-Serif" font-size="11.00" fill="#000000">reciprocal_party_id</text>
<polygon fill="none" stroke="#000000" points="233,-257.2 233,-279.2 300,-279.2 300,-257.2 233,-257.2"/>
<text text-anchor="start" x="236" y="-264.9" font-family="Helvetica,sans-Serif" font-size="11.00" fill="#000000">int8[19]</text>
<polygon fill="none" stroke="#000000" points="10,-235.2 10,-257.2 233,-257.2 233,-235.2 10,-235.2"/>
<text text-anchor="start" x="30" y="-242.3" font-family="Helvetica,sans-Serif" font-size="11.00" fill="#000000">party_email</text>
<polygon fill="none" stroke="#000000" points="233,-235.2 233,-257.2 300,-257.2 300,-235.2 233,-235.2"/>
<text text-anchor="start" x="235.9365" y="-242.9" font-family="Helvetica,sans-Serif" font-size="11.00" fill="#000000">varchar[255]</text>
<polygon fill="none" stroke="#000000" points="10,-213.2 10,-235.2 233,-235.2 233,-213.2 10,-213.2"/>
<text text-anchor="start" x="30" y="-220.3" font-family="Helvetica,sans-Serif" font-size="11.00" fill="#000000">party_name</text>
<polygon fill="none" stroke="#000000" points="233,-213.2 233,-235.2 300,-235.2 300,-213.2 233,-213.2"/>
<text text-anchor="start" x="235.9365" y="-220.9" font-family="Helvetica,sans-Serif" font-size="11.00" fill="#000000">varchar[255]</text>
<polygon fill="none" stroke="#000000" points="10,-191.2 10,-213.2 233,-213.2 233,-191.2 10,-191.2"/>
<text text-anchor="start" x="30" y="-198.3" font-family="Helvetica,sans-Serif" font-size="11.00" fill="#000000">party_phone_number</text>
<polygon fill="none" stroke="#000000" points="233,-191.2 233,-213.2 300,-213.2 300,-191.2 233,-191.2"/>
<text text-anchor="start" x="235.9365" y="-198.9" font-family="Helvetica,sans-Serif" font-size="11.00" fill="#000000">varchar[255]</text>
<polygon fill="none" stroke="#000000" points="10,-169.2 10,-191.2 233,-191.2 233,-169.2 10,-169.2"/>
<text text-anchor="start" x="30" y="-176.3" font-family="Helvetica,sans-Serif" font-size="11.00" fill="#000000">reciprocal_party_email</text>
<polygon fill="none" stroke="#000000" points="233,-169.2 233,-191.2 300,-191.2 300,-169.2 233,-169.2"/>
<text text-anchor="start" x="235.9365" y="-176.9" font-family="Helvetica,sans-Serif" font-size="11.00" fill="#000000">varchar[255]</text>
<polygon fill="none" stroke="#000000" points="10,-147.2 10,-169.2 233,-169.2 233,-147.2 10,-147.2"/>
<text text-anchor="start" x="30" y="-154.3" font-family="Helvetica,sans-Serif" font-size="11.00" fill="#000000">reciprocal_party_name</text>
<polygon fill="none" stroke="#000000" points="233,-147.2 233,-169.2 300,-169.2 300,-147.2 233,-147.2"/>
<text text-anchor="start" x="235.9365" y="-154.9" font-family="Helvetica,sans-Serif" font-size="11.00" fill="#000000">varchar[255]</text>
<polygon fill="none" stroke="#000000" points="10,-125.2 10,-147.2 233,-147.2 233,-125.2 10,-125.2"/>
<text text-anchor="start" x="30" y="-132.3" font-family="Helvetica,sans-Serif" font-size="11.00" fill="#000000">reciprocal_party_phone_number</text>
<polygon fill="none" stroke="#000000" points="233,-125.2 233,-147.2 300,-147.2 300,-125.2 233,-125.2"/>
<text text-anchor="start" x="235.9365" y="-132.9" font-family="Helvetica,sans-Serif" font-size="11.00" fill="#000000">varchar[255]</text>
<polygon fill="none" stroke="#000000" points="10,-103.2 10,-125.2 233,-125.2 233,-103.2 10,-103.2"/>
<text text-anchor="start" x="30" y="-110.3" font-family="Helvetica,sans-Serif" font-size="11.00" fill="#000000">reciprocal_role</text>
<polygon fill="none" stroke="#000000" points="233,-103.2 233,-125.2 300,-125.2 300,-103.2 233,-103.2"/>
<text text-anchor="start" x="235.9365" y="-110.9" font-family="Helvetica,sans-Serif" font-size="11.00" fill="#000000">varchar[255]</text>
<polygon fill="none" stroke="#000000" points="10,-81.2 10,-103.2 233,-103.2 233,-81.2 10,-81.2"/>
<text text-anchor="start" x="30" y="-88.3" font-family="Helvetica,sans-Serif" font-size="11.00" fill="#000000">relationship</text>
<polygon fill="none" stroke="#000000" points="233,-81.2 233,-103.2 300,-103.2 300,-81.2 233,-81.2"/>
<text text-anchor="start" x="235.9365" y="-88.9" font-family="Helvetica,sans-Serif" font-size="11.00" fill="#000000">varchar[255]</text>
<polygon fill="none" stroke="#000000" points="10,-59.2 10,-81.2 233,-81.2 233,-59.2 10,-59.2"/>
<text text-anchor="start" x="30" y="-66.3" font-family="Helvetica,sans-Serif" font-size="11.00" fill="#000000">role</text>
<polygon fill="none" stroke="#000000" points="233,-59.2 233,-81.2 300,-81.2 300,-59.2 233,-59.2"/>
<text text-anchor="start" x="235.9365" y="-66.9" font-family="Helvetica,sans-Serif" font-size="11.00" fill="#000000">varchar[255]</text>
<polygon fill="#ffffff" stroke="transparent" points="10,-40.2 10,-59.2 300,-59.2 300,-40.2 10,-40.2"/>
<polygon fill="none" stroke="#000000" points="10,-40.2 10,-59.2 300,-59.2 300,-40.2 10,-40.2"/>
<polygon fill="#ffffff" stroke="transparent" points="11,-41.2 11,-58.2 98,-58.2 98,-41.2 11,-41.2"/>
<text text-anchor="start" x="13" y="-46.3" font-family="Helvetica,sans-Serif" font-size="11.00" fill="#000000">&lt; 0</text>
<polygon fill="#ffffff" stroke="transparent" points="98,-41.2 98,-58.2 213,-58.2 213,-41.2 98,-41.2"/>
<text text-anchor="start" x="133.1904" y="-46.3" font-family="Helvetica,sans-Serif" font-size="11.00" fill="#000000">424 rows</text>
<polygon fill="#ffffff" stroke="transparent" points="213,-41.2 213,-58.2 299,-58.2 299,-41.2 213,-41.2"/>
<text text-anchor="start" x="281.4053" y="-46.3" font-family="Helvetica,sans-Serif" font-size="11.00" fill="#000000">1 &gt;</text>
<polygon fill="#000000" stroke="#000000" points="98,-41.2 98,-58.2 98,-58.2 98,-41.2 98,-41.2"/>
<polygon fill="#000000" stroke="#000000" points="213,-41.2 213,-58.2 213,-58.2 213,-41.2 213,-41.2"/>
<polygon fill="none" stroke="#000000" stroke-width="2" points="9,-39.2 9,-391.2 301,-391.2 301,-39.2 9,-39.2"/>
</a>
</g>
</g>
<!-- party_role&#45;&gt;role -->
<g id="edge1" class="edge">
<title>party_role:w&#45;&gt;role:e</title>
<path fill="none" stroke="#000000" d="M337.0156,-312.2C324.6771,-312.2 317.1667,-312.2 300,-312.2"/>
<polygon fill="#000000" stroke="#000000" points="343.5,-312.2001 351.5,-315.8 347.5,-312.2 351.5,-312.2 351.5,-312.2 351.5,-312.2 347.5,-312.2 351.5,-308.6 343.5,-312.2001 343.5,-312.2001"/>
<ellipse fill="none" stroke="#000000" cx="340.3" cy="-312.2001" rx="3.2" ry="3.2"/>
</g>
</g>
</svg>
